<svg xmlns="http://www.w3.org/2000/svg" viewBox="0 0 600 800" width="600" height="800">
  <defs>
    <linearGradient id="bg" x1="0" y1="0" x2="0" y2="1">
      <stop offset="0" stop-color="hsl(68 70% 95%)"/><stop offset="1" stop-color="hsl(108 70% 92%)"/>
    </linearGradient>
  </defs>
  <rect width="600" height="800" fill="url(#bg)"/>
  <rect x="22" y="22" width="556" height="756" rx="28" fill="none" stroke="hsl(68 55% 38%)" stroke-width="2" opacity="0.5"/>
  <text x="300" y="74" text-anchor="middle" font-family="Quicksand, Arial, sans-serif" font-size="26" font-weight="700" fill="hsl(68 55% 38%)">&#10022; Coloreo</text>
  <g transform="translate(0,40)"><path d="M 323.4 360 Q 335.17 372.84 349.14 360 Q 335.17 347.16 323.4 360 Z" fill="none" stroke="hsl(68 55% 38%)" stroke-width="1.6" stroke-linejoin="round"/><path d="M 321.62 368.95 Q 327.58 385.32 345.4 378.81 Q 337.41 361.6 321.62 368.95 Z" fill="none" stroke="hsl(68 55% 38%)" stroke-width="1.6" stroke-linejoin="round"/><path d="M 316.55 376.55 Q 315.79 393.95 334.75 394.75 Q 333.95 375.79 316.55 376.55 Z" fill="none" stroke="hsl(68 55% 38%)" stroke-width="1.6" stroke-linejoin="round"/><path d="M 308.95 381.62 Q 301.6 397.41 318.81 405.4 Q 325.32 387.58 308.95 381.62 Z" fill="none" stroke="hsl(68 55% 38%)" stroke-width="1.6" stroke-linejoin="round"/><path d="M 300 383.4 Q 287.16 395.17 300 409.14 Q 312.84 395.17 300 383.4 Z" fill="none" stroke="hsl(68 55% 38%)" stroke-width="1.6" stroke-linejoin="round"/><path d="M 291.05 381.62 Q 274.68 387.58 281.19 405.4 Q 298.4 397.41 291.05 381.62 Z" fill="none" stroke="hsl(68 55% 38%)" stroke-width="1.6" stroke-linejoin="round"/><path d="M 283.45 376.55 Q 266.05 375.79 265.25 394.75 Q 284.21 393.95 283.45 376.55 Z" fill="none" stroke="hsl(68 55% 38%)" stroke-width="1.6" stroke-linejoin="round"/><path d="M 278.38 368.95 Q 262.59 361.6 254.6 378.81 Q 272.42 385.32 278.38 368.95 Z" fill="none" stroke="hsl(68 55% 38%)" stroke-width="1.6" stroke-linejoin="round"/><path d="M 276.6 360 Q 264.83 347.16 250.86 360 Q 264.83 372.84 276.6 360 Z" fill="none" stroke="hsl(68 55% 38%)" stroke-width="1.6" stroke-linejoin="round"/><path d="M 278.38 351.05 Q 272.42 334.68 254.6 341.19 Q 262.59 358.4 278.38 351.05 Z" fill="none" stroke="hsl(68 55% 38%)" stroke-width="1.6" stroke-linejoin="round"/><path d="M 283.45 343.45 Q 284.21 326.05 265.25 325.25 Q 266.05 344.21 283.45 343.45 Z" fill="none" stroke="hsl(68 55% 38%)" stroke-width="1.6" stroke-linejoin="round"/><path d="M 291.05 338.38 Q 298.4 322.59 281.19 314.6 Q 274.68 332.42 291.05 338.38 Z" fill="none" stroke="hsl(68 55% 38%)" stroke-width="1.6" stroke-linejoin="round"/><path d="M 300 336.6 Q 312.84 324.83 300 310.86 Q 287.16 324.83 300 336.6 Z" fill="none" stroke="hsl(68 55% 38%)" stroke-width="1.6" stroke-linejoin="round"/><path d="M 308.95 338.38 Q 325.32 332.42 318.81 314.6 Q 301.6 322.59 308.95 338.38 Z" fill="none" stroke="hsl(68 55% 38%)" stroke-width="1.6" stroke-linejoin="round"/><path d="M 316.55 343.45 Q 333.95 344.21 334.75 325.25 Q 315.79 326.05 316.55 343.45 Z" fill="none" stroke="hsl(68 55% 38%)" stroke-width="1.6" stroke-linejoin="round"/><path d="M 321.62 351.05 Q 337.41 358.4 345.4 341.19 Q 327.58 334.68 321.62 351.05 Z" fill="none" stroke="hsl(68 55% 38%)" stroke-width="1.6" stroke-linejoin="round"/><path d="M 300 345.96 C 307.75 345.96 314.04 352.25 314.04 360 C 314.04 367.75 307.75 374.04 300 374.04 C 292.25 374.04 285.96 367.75 285.96 360 C 285.96 352.25 292.25 345.96 300 345.96 Z" fill="none" stroke="hsl(68 55% 38%)" stroke-width="1.6" stroke-linejoin="round"/><path d="M 300 282 C 343.08 282 378 316.92 378 360 C 378 403.08 343.08 438 300 438 C 256.92 438 222 403.08 222 360 C 222 316.92 256.92 282 300 282 Z" fill="none" stroke="hsl(68 55% 38%)" stroke-width="1.6" stroke-linejoin="round"/><path d="M 376.5 375.22 Q 387.05 394.4 407.1 381.3 Q 393.59 361.53 376.5 375.22 Z" fill="none" stroke="hsl(68 55% 38%)" stroke-width="1.6" stroke-linejoin="round"/><path d="M 364.85 403.33 Q 367.26 425.09 390.8 420.67 Q 385.88 397.23 364.85 403.33 Z" fill="none" stroke="hsl(68 55% 38%)" stroke-width="1.6" stroke-linejoin="round"/><path d="M 343.33 424.85 Q 337.23 445.88 360.67 450.8 Q 365.09 427.26 343.33 424.85 Z" fill="none" stroke="hsl(68 55% 38%)" stroke-width="1.6" stroke-linejoin="round"/><path d="M 315.22 436.5 Q 301.53 453.59 321.3 467.1 Q 334.4 447.05 315.22 436.5 Z" fill="none" stroke="hsl(68 55% 38%)" stroke-width="1.6" stroke-linejoin="round"/><path d="M 284.78 436.5 Q 265.6 447.05 278.7 467.1 Q 298.47 453.59 284.78 436.5 Z" fill="none" stroke="hsl(68 55% 38%)" stroke-width="1.6" stroke-linejoin="round"/><path d="M 256.67 424.85 Q 234.91 427.26 239.33 450.8 Q 262.77 445.88 256.67 424.85 Z" fill="none" stroke="hsl(68 55% 38%)" stroke-width="1.6" stroke-linejoin="round"/><path d="M 235.15 403.33 Q 214.12 397.23 209.2 420.67 Q 232.74 425.09 235.15 403.33 Z" fill="none" stroke="hsl(68 55% 38%)" stroke-width="1.6" stroke-linejoin="round"/><path d="M 223.5 375.22 Q 206.41 361.53 192.9 381.3 Q 212.95 394.4 223.5 375.22 Z" fill="none" stroke="hsl(68 55% 38%)" stroke-width="1.6" stroke-linejoin="round"/><path d="M 223.5 344.78 Q 212.95 325.6 192.9 338.7 Q 206.41 358.47 223.5 344.78 Z" fill="none" stroke="hsl(68 55% 38%)" stroke-width="1.6" stroke-linejoin="round"/><path d="M 235.15 316.67 Q 232.74 294.91 209.2 299.33 Q 214.12 322.77 235.15 316.67 Z" fill="none" stroke="hsl(68 55% 38%)" stroke-width="1.6" stroke-linejoin="round"/><path d="M 256.67 295.15 Q 262.77 274.12 239.33 269.2 Q 234.91 292.74 256.67 295.15 Z" fill="none" stroke="hsl(68 55% 38%)" stroke-width="1.6" stroke-linejoin="round"/><path d="M 284.78 283.5 Q 298.47 266.41 278.7 252.9 Q 265.6 272.95 284.78 283.5 Z" fill="none" stroke="hsl(68 55% 38%)" stroke-width="1.6" stroke-linejoin="round"/><path d="M 315.22 283.5 Q 334.4 272.95 321.3 252.9 Q 301.53 266.41 315.22 283.5 Z" fill="none" stroke="hsl(68 55% 38%)" stroke-width="1.6" stroke-linejoin="round"/><path d="M 343.33 295.15 Q 365.09 292.74 360.67 269.2 Q 337.23 274.12 343.33 295.15 Z" fill="none" stroke="hsl(68 55% 38%)" stroke-width="1.6" stroke-linejoin="round"/><path d="M 364.85 316.67 Q 385.88 322.77 390.8 299.33 Q 367.26 294.91 364.85 316.67 Z" fill="none" stroke="hsl(68 55% 38%)" stroke-width="1.6" stroke-linejoin="round"/><path d="M 376.5 344.78 Q 393.59 358.47 407.1 338.7 Q 387.05 325.6 376.5 344.78 Z" fill="none" stroke="hsl(68 55% 38%)" stroke-width="1.6" stroke-linejoin="round"/><path d="M 300 243 C 364.62 243 417 295.38 417 360 C 417 424.62 364.62 477 300 477 C 235.38 477 183 424.62 183 360 C 183 295.38 235.38 243 300 243 Z" fill="none" stroke="hsl(68 55% 38%)" stroke-width="1.6" stroke-linejoin="round"/><path d="M 417 360 Q 430.46 383.74 448.2 360 Q 430.46 336.26 417 360 Z" fill="none" stroke="hsl(68 55% 38%)" stroke-width="1.6" stroke-linejoin="round"/><path d="M 414.75 382.83 Q 423.32 408.73 445.35 388.91 Q 432.58 362.17 414.75 382.83 Z" fill="none" stroke="hsl(68 55% 38%)" stroke-width="1.6" stroke-linejoin="round"/><path d="M 408.09 404.77 Q 411.44 431.86 436.92 416.71 Q 429.61 387.99 408.09 404.77 Z" fill="none" stroke="hsl(68 55% 38%)" stroke-width="1.6" stroke-linejoin="round"/><path d="M 397.28 425 Q 395.28 452.22 423.22 442.34 Q 421.66 412.74 397.28 425 Z" fill="none" stroke="hsl(68 55% 38%)" stroke-width="1.6" stroke-linejoin="round"/><path d="M 382.73 442.73 Q 375.46 469.03 404.79 464.79 Q 409.03 435.46 382.73 442.73 Z" fill="none" stroke="hsl(68 55% 38%)" stroke-width="1.6" stroke-linejoin="round"/><path d="M 365 457.28 Q 352.74 481.66 382.34 483.22 Q 392.22 455.28 365 457.28 Z" fill="none" stroke="hsl(68 55% 38%)" stroke-width="1.6" stroke-linejoin="round"/><path d="M 344.77 468.09 Q 327.99 489.61 356.71 496.92 Q 371.86 471.44 344.77 468.09 Z" fill="none" stroke="hsl(68 55% 38%)" stroke-width="1.6" stroke-linejoin="round"/><path d="M 322.83 474.75 Q 302.17 492.58 328.91 505.35 Q 348.73 483.32 322.83 474.75 Z" fill="none" stroke="hsl(68 55% 38%)" stroke-width="1.6" stroke-linejoin="round"/><path d="M 300 477 Q 276.26 490.46 300 508.2 Q 323.74 490.46 300 477 Z" fill="none" stroke="hsl(68 55% 38%)" stroke-width="1.6" stroke-linejoin="round"/><path d="M 277.17 474.75 Q 251.27 483.32 271.09 505.35 Q 297.83 492.58 277.17 474.75 Z" fill="none" stroke="hsl(68 55% 38%)" stroke-width="1.6" stroke-linejoin="round"/><path d="M 255.23 468.09 Q 228.14 471.44 243.29 496.92 Q 272.01 489.61 255.23 468.09 Z" fill="none" stroke="hsl(68 55% 38%)" stroke-width="1.6" stroke-linejoin="round"/><path d="M 235 457.28 Q 207.78 455.28 217.66 483.22 Q 247.26 481.66 235 457.28 Z" fill="none" stroke="hsl(68 55% 38%)" stroke-width="1.6" stroke-linejoin="round"/><path d="M 217.27 442.73 Q 190.97 435.46 195.21 464.79 Q 224.54 469.03 217.27 442.73 Z" fill="none" stroke="hsl(68 55% 38%)" stroke-width="1.6" stroke-linejoin="round"/><path d="M 202.72 425 Q 178.34 412.74 176.78 442.34 Q 204.72 452.22 202.72 425 Z" fill="none" stroke="hsl(68 55% 38%)" stroke-width="1.6" stroke-linejoin="round"/><path d="M 191.91 404.77 Q 170.39 387.99 163.08 416.71 Q 188.56 431.86 191.91 404.77 Z" fill="none" stroke="hsl(68 55% 38%)" stroke-width="1.6" stroke-linejoin="round"/><path d="M 185.25 382.83 Q 167.42 362.17 154.65 388.91 Q 176.68 408.73 185.25 382.83 Z" fill="none" stroke="hsl(68 55% 38%)" stroke-width="1.6" stroke-linejoin="round"/><path d="M 183 360 Q 169.54 336.26 151.8 360 Q 169.54 383.74 183 360 Z" fill="none" stroke="hsl(68 55% 38%)" stroke-width="1.6" stroke-linejoin="round"/><path d="M 185.25 337.17 Q 176.68 311.27 154.65 331.09 Q 167.42 357.83 185.25 337.17 Z" fill="none" stroke="hsl(68 55% 38%)" stroke-width="1.6" stroke-linejoin="round"/><path d="M 191.91 315.23 Q 188.56 288.14 163.08 303.29 Q 170.39 332.01 191.91 315.23 Z" fill="none" stroke="hsl(68 55% 38%)" stroke-width="1.6" stroke-linejoin="round"/><path d="M 202.72 295 Q 204.72 267.78 176.78 277.66 Q 178.34 307.26 202.72 295 Z" fill="none" stroke="hsl(68 55% 38%)" stroke-width="1.6" stroke-linejoin="round"/><path d="M 217.27 277.27 Q 224.54 250.97 195.21 255.21 Q 190.97 284.54 217.27 277.27 Z" fill="none" stroke="hsl(68 55% 38%)" stroke-width="1.6" stroke-linejoin="round"/><path d="M 235 262.72 Q 247.26 238.34 217.66 236.78 Q 207.78 264.72 235 262.72 Z" fill="none" stroke="hsl(68 55% 38%)" stroke-width="1.6" stroke-linejoin="round"/><path d="M 255.23 251.91 Q 272.01 230.39 243.29 223.08 Q 228.14 248.56 255.23 251.91 Z" fill="none" stroke="hsl(68 55% 38%)" stroke-width="1.6" stroke-linejoin="round"/><path d="M 277.17 245.25 Q 297.83 227.42 271.09 214.65 Q 251.27 236.68 277.17 245.25 Z" fill="none" stroke="hsl(68 55% 38%)" stroke-width="1.6" stroke-linejoin="round"/><path d="M 300 243 Q 323.74 229.54 300 211.8 Q 276.26 229.54 300 243 Z" fill="none" stroke="hsl(68 55% 38%)" stroke-width="1.6" stroke-linejoin="round"/><path d="M 322.83 245.25 Q 348.73 236.68 328.91 214.65 Q 302.17 227.42 322.83 245.25 Z" fill="none" stroke="hsl(68 55% 38%)" stroke-width="1.6" stroke-linejoin="round"/><path d="M 344.77 251.91 Q 371.86 248.56 356.71 223.08 Q 327.99 230.39 344.77 251.91 Z" fill="none" stroke="hsl(68 55% 38%)" stroke-width="1.6" stroke-linejoin="round"/><path d="M 365 262.72 Q 392.22 264.72 382.34 236.78 Q 352.74 238.34 365 262.72 Z" fill="none" stroke="hsl(68 55% 38%)" stroke-width="1.6" stroke-linejoin="round"/><path d="M 382.73 277.27 Q 409.03 284.54 404.79 255.21 Q 375.46 250.97 382.73 277.27 Z" fill="none" stroke="hsl(68 55% 38%)" stroke-width="1.6" stroke-linejoin="round"/><path d="M 397.28 295 Q 421.66 307.26 423.22 277.66 Q 395.28 267.78 397.28 295 Z" fill="none" stroke="hsl(68 55% 38%)" stroke-width="1.6" stroke-linejoin="round"/><path d="M 408.09 315.23 Q 429.61 332.01 436.92 303.29 Q 411.44 288.14 408.09 315.23 Z" fill="none" stroke="hsl(68 55% 38%)" stroke-width="1.6" stroke-linejoin="round"/><path d="M 414.75 337.17 Q 432.58 357.83 445.35 331.09 Q 423.32 311.27 414.75 337.17 Z" fill="none" stroke="hsl(68 55% 38%)" stroke-width="1.6" stroke-linejoin="round"/><path d="M 300 204 C 386.16 204 456 273.84 456 360 C 456 446.16 386.16 516 300 516 C 213.84 516 144 446.16 144 360 C 144 273.84 213.84 204 300 204 Z" fill="none" stroke="hsl(68 55% 38%)" stroke-width="1.6" stroke-linejoin="round"/><path d="M 453 390.43 L 474.42 394.69" fill="none" stroke="hsl(68 55% 38%)" stroke-width="1.6" stroke-linejoin="round"/><path d="M 429.71 446.67 L 447.87 458.8" fill="none" stroke="hsl(68 55% 38%)" stroke-width="1.6" stroke-linejoin="round"/><path d="M 386.67 489.71 L 398.8 507.87" fill="none" stroke="hsl(68 55% 38%)" stroke-width="1.6" stroke-linejoin="round"/><path d="M 330.43 513 L 334.69 534.42" fill="none" stroke="hsl(68 55% 38%)" stroke-width="1.6" stroke-linejoin="round"/><path d="M 269.57 513 L 265.31 534.42" fill="none" stroke="hsl(68 55% 38%)" stroke-width="1.6" stroke-linejoin="round"/><path d="M 213.33 489.71 L 201.2 507.87" fill="none" stroke="hsl(68 55% 38%)" stroke-width="1.6" stroke-linejoin="round"/><path d="M 170.29 446.67 L 152.13 458.8" fill="none" stroke="hsl(68 55% 38%)" stroke-width="1.6" stroke-linejoin="round"/><path d="M 147 390.43 L 125.58 394.69" fill="none" stroke="hsl(68 55% 38%)" stroke-width="1.6" stroke-linejoin="round"/><path d="M 147 329.57 L 125.58 325.31" fill="none" stroke="hsl(68 55% 38%)" stroke-width="1.6" stroke-linejoin="round"/><path d="M 170.29 273.33 L 152.13 261.2" fill="none" stroke="hsl(68 55% 38%)" stroke-width="1.6" stroke-linejoin="round"/><path d="M 213.33 230.29 L 201.2 212.13" fill="none" stroke="hsl(68 55% 38%)" stroke-width="1.6" stroke-linejoin="round"/><path d="M 269.57 207 L 265.31 185.58" fill="none" stroke="hsl(68 55% 38%)" stroke-width="1.6" stroke-linejoin="round"/><path d="M 330.43 207 L 334.69 185.58" fill="none" stroke="hsl(68 55% 38%)" stroke-width="1.6" stroke-linejoin="round"/><path d="M 386.67 230.29 L 398.8 212.13" fill="none" stroke="hsl(68 55% 38%)" stroke-width="1.6" stroke-linejoin="round"/><path d="M 429.71 273.33 L 447.87 261.2" fill="none" stroke="hsl(68 55% 38%)" stroke-width="1.6" stroke-linejoin="round"/><path d="M 453 329.57 L 474.42 325.31" fill="none" stroke="hsl(68 55% 38%)" stroke-width="1.6" stroke-linejoin="round"/><path d="M 300 165 C 407.7 165 495 252.3 495 360 C 495 467.7 407.7 555 300 555 C 192.3 555 105 467.7 105 360 C 105 252.3 192.3 165 300 165 Z" fill="none" stroke="hsl(68 55% 38%)" stroke-width="1.6" stroke-linejoin="round"/><path d="M 495 360 L 516.84 360" fill="none" stroke="hsl(68 55% 38%)" stroke-width="1.6" stroke-linejoin="round"/><path d="M 491.25 398.04 L 512.67 402.3" fill="none" stroke="hsl(68 55% 38%)" stroke-width="1.6" stroke-linejoin="round"/><path d="M 480.16 434.62 L 500.33 442.98" fill="none" stroke="hsl(68 55% 38%)" stroke-width="1.6" stroke-linejoin="round"/><path d="M 462.14 468.34 L 480.3 480.47" fill="none" stroke="hsl(68 55% 38%)" stroke-width="1.6" stroke-linejoin="round"/><path d="M 437.89 497.89 L 453.33 513.33" fill="none" stroke="hsl(68 55% 38%)" stroke-width="1.6" stroke-linejoin="round"/><path d="M 408.34 522.14 L 420.47 540.3" fill="none" stroke="hsl(68 55% 38%)" stroke-width="1.6" stroke-linejoin="round"/><path d="M 374.62 540.16 L 382.98 560.33" fill="none" stroke="hsl(68 55% 38%)" stroke-width="1.6" stroke-linejoin="round"/><path d="M 338.04 551.25 L 342.3 572.67" fill="none" stroke="hsl(68 55% 38%)" stroke-width="1.6" stroke-linejoin="round"/><path d="M 300 555 L 300 576.84" fill="none" stroke="hsl(68 55% 38%)" stroke-width="1.6" stroke-linejoin="round"/><path d="M 261.96 551.25 L 257.7 572.67" fill="none" stroke="hsl(68 55% 38%)" stroke-width="1.6" stroke-linejoin="round"/><path d="M 225.38 540.16 L 217.02 560.33" fill="none" stroke="hsl(68 55% 38%)" stroke-width="1.6" stroke-linejoin="round"/><path d="M 191.66 522.14 L 179.53 540.3" fill="none" stroke="hsl(68 55% 38%)" stroke-width="1.6" stroke-linejoin="round"/><path d="M 162.11 497.89 L 146.67 513.33" fill="none" stroke="hsl(68 55% 38%)" stroke-width="1.6" stroke-linejoin="round"/><path d="M 137.86 468.34 L 119.7 480.47" fill="none" stroke="hsl(68 55% 38%)" stroke-width="1.6" stroke-linejoin="round"/><path d="M 119.84 434.62 L 99.67 442.98" fill="none" stroke="hsl(68 55% 38%)" stroke-width="1.6" stroke-linejoin="round"/><path d="M 108.75 398.04 L 87.33 402.3" fill="none" stroke="hsl(68 55% 38%)" stroke-width="1.6" stroke-linejoin="round"/><path d="M 105 360 L 83.16 360" fill="none" stroke="hsl(68 55% 38%)" stroke-width="1.6" stroke-linejoin="round"/><path d="M 108.75 321.96 L 87.33 317.7" fill="none" stroke="hsl(68 55% 38%)" stroke-width="1.6" stroke-linejoin="round"/><path d="M 119.84 285.38 L 99.67 277.02" fill="none" stroke="hsl(68 55% 38%)" stroke-width="1.6" stroke-linejoin="round"/><path d="M 137.86 251.66 L 119.7 239.53" fill="none" stroke="hsl(68 55% 38%)" stroke-width="1.6" stroke-linejoin="round"/><path d="M 162.11 222.11 L 146.67 206.67" fill="none" stroke="hsl(68 55% 38%)" stroke-width="1.6" stroke-linejoin="round"/><path d="M 191.66 197.86 L 179.53 179.7" fill="none" stroke="hsl(68 55% 38%)" stroke-width="1.6" stroke-linejoin="round"/><path d="M 225.38 179.84 L 217.02 159.67" fill="none" stroke="hsl(68 55% 38%)" stroke-width="1.6" stroke-linejoin="round"/><path d="M 261.96 168.75 L 257.7 147.33" fill="none" stroke="hsl(68 55% 38%)" stroke-width="1.6" stroke-linejoin="round"/><path d="M 300 165 L 300 143.16" fill="none" stroke="hsl(68 55% 38%)" stroke-width="1.6" stroke-linejoin="round"/><path d="M 338.04 168.75 L 342.3 147.33" fill="none" stroke="hsl(68 55% 38%)" stroke-width="1.6" stroke-linejoin="round"/><path d="M 374.62 179.84 L 382.98 159.67" fill="none" stroke="hsl(68 55% 38%)" stroke-width="1.6" stroke-linejoin="round"/><path d="M 408.34 197.86 L 420.47 179.7" fill="none" stroke="hsl(68 55% 38%)" stroke-width="1.6" stroke-linejoin="round"/><path d="M 437.89 222.11 L 453.33 206.67" fill="none" stroke="hsl(68 55% 38%)" stroke-width="1.6" stroke-linejoin="round"/><path d="M 462.14 251.66 L 480.3 239.53" fill="none" stroke="hsl(68 55% 38%)" stroke-width="1.6" stroke-linejoin="round"/><path d="M 480.16 285.38 L 500.33 277.02" fill="none" stroke="hsl(68 55% 38%)" stroke-width="1.6" stroke-linejoin="round"/><path d="M 491.25 321.96 L 512.67 317.7" fill="none" stroke="hsl(68 55% 38%)" stroke-width="1.6" stroke-linejoin="round"/><path d="M 300 165 C 407.7 165 495 252.3 495 360 C 495 467.7 407.7 555 300 555 C 192.3 555 105 467.7 105 360 C 105 252.3 192.3 165 300 165 Z" fill="none" stroke="hsl(68 55% 38%)" stroke-width="1.6" stroke-linejoin="round"/></g>
  <g transform="translate(300,640)">
    <rect x="-110" y="-26" width="220" height="34" rx="17" fill="#ffffff" opacity="0.8"/>
    <text x="0" y="-3" text-anchor="middle" font-family="Quicksand, Arial, sans-serif" font-size="16" font-weight="600" fill="hsl(68 55% 38%)">🔤 ABC &amp; Zahlen</text>
  </g>
  <text x="300" y="700" text-anchor="middle" font-family="Quicksand, Arial, sans-serif" font-size="40" font-weight="700" fill="#2b2540"><tspan x="300" dy="0">ABC &amp; Zahlen –</tspan><tspan x="300" dy="44">Vol. 1</tspan></text>
  <text x="300" y="772" text-anchor="middle" font-family="Arial, sans-serif" font-size="15" fill="#5b5470">Malbuch · 24 Seiten</text>
</svg>