<svg xmlns="http://www.w3.org/2000/svg" viewBox="0 0 600 800" width="600" height="800">
  <defs>
    <linearGradient id="bg" x1="0" y1="0" x2="0" y2="1">
      <stop offset="0" stop-color="hsl(68 70% 95%)"/><stop offset="1" stop-color="hsl(108 70% 92%)"/>
    </linearGradient>
  </defs>
  <rect width="600" height="800" fill="url(#bg)"/>
  <rect x="22" y="22" width="556" height="756" rx="28" fill="none" stroke="hsl(68 55% 38%)" stroke-width="2" opacity="0.5"/>
  <text x="300" y="74" text-anchor="middle" font-family="Quicksand, Arial, sans-serif" font-size="26" font-weight="700" fill="hsl(68 55% 38%)">&#10022; Coloreo</text>
  <g transform="translate(0,40)"><path d="M 323.4 360 Q 335.17 372.84 349.14 360 Q 335.17 347.16 323.4 360 Z" fill="none" stroke="hsl(68 55% 38%)" stroke-width="1.6" stroke-linejoin="round"/><path d="M 321.62 368.95 Q 327.58 385.32 345.4 378.81 Q 337.41 361.6 321.62 368.95 Z" fill="none" stroke="hsl(68 55% 38%)" stroke-width="1.6" stroke-linejoin="round"/><path d="M 316.55 376.55 Q 315.79 393.95 334.75 394.75 Q 333.95 375.79 316.55 376.55 Z" fill="none" stroke="hsl(68 55% 38%)" stroke-width="1.6" stroke-linejoin="round"/><path d="M 308.95 381.62 Q 301.6 397.41 318.81 405.4 Q 325.32 387.58 308.95 381.62 Z" fill="none" stroke="hsl(68 55% 38%)" stroke-width="1.6" stroke-linejoin="round"/><path d="M 300 383.4 Q 287.16 395.17 300 409.14 Q 312.84 395.17 300 383.4 Z" fill="none" stroke="hsl(68 55% 38%)" stroke-width="1.6" stroke-linejoin="round"/><path d="M 291.05 381.62 Q 274.68 387.58 281.19 405.4 Q 298.4 397.41 291.05 381.62 Z" fill="none" stroke="hsl(68 55% 38%)" stroke-width="1.6" stroke-linejoin="round"/><path d="M 283.45 376.55 Q 266.05 375.79 265.25 394.75 Q 284.21 393.95 283.45 376.55 Z" fill="none" stroke="hsl(68 55% 38%)" stroke-width="1.6" stroke-linejoin="round"/><path d="M 278.38 368.95 Q 262.59 361.6 254.6 378.81 Q 272.42 385.32 278.38 368.95 Z" fill="none" stroke="hsl(68 55% 38%)" stroke-width="1.6" stroke-linejoin="round"/><path d="M 276.6 360 Q 264.83 347.16 250.86 360 Q 264.83 372.84 276.6 360 Z" fill="none" stroke="hsl(68 55% 38%)" stroke-width="1.6" stroke-linejoin="round"/><path d="M 278.38 351.05 Q 272.42 334.68 254.6 341.19 Q 262.59 358.4 278.38 351.05 Z" fill="none" stroke="hsl(68 55% 38%)" stroke-width="1.6" stroke-linejoin="round"/><path d="M 283.45 343.45 Q 284.21 326.05 265.25 325.25 Q 266.05 344.21 283.45 343.45 Z" fill="none" stroke="hsl(68 55% 38%)" stroke-width="1.6" stroke-linejoin="round"/><path d="M 291.05 338.38 Q 298.4 322.59 281.19 314.6 Q 274.68 332.42 291.05 338.38 Z" fill="none" stroke="hsl(68 55% 38%)" stroke-width="1.6" stroke-linejoin="round"/><path d="M 300 336.6 Q 312.84 324.83 300 310.86 Q 287.16 324.83 300 336.6 Z" fill="none" stroke="hsl(68 55% 38%)" stroke-width="1.6" stroke-linejoin="round"/><path d="M 308.95 338.38 Q 325.32 332.42 318.81 314.6 Q 301.6 322.59 308.95 338.38 Z" fill="none" stroke="hsl(68 55% 38%)" stroke-width="1.6" stroke-linejoin="round"/><path d="M 316.55 343.45 Q 333.95 344.21 334.75 325.25 Q 315.79 326.05 316.55 343.45 Z" fill="none" stroke="hsl(68 55% 38%)" stroke-width="1.6" stroke-linejoin="round"/><path d="M 321.62 351.05 Q 337.41 358.4 345.4 341.19 Q 327.58 334.68 321.62 351.05 Z" fill="none" stroke="hsl(68 55% 38%)" stroke-width="1.6" stroke-linejoin="round"/><path d="M 300 345.96 C 307.75 345.96 314.04 352.25 314.04 360 C 314.04 367.75 307.75 374.04 300 374.04 C 292.25 374.04 285.96 367.75 285.96 360 C 285.96 352.25 292.25 345.96 300 345.96 Z" fill="none" stroke="hsl(68 55% 38%)" stroke-width="1.6" stroke-linejoin="round"/><path d="M 300 282 C 343.08 282 378 316.92 378 360 C 378 403.08 343.08 438 300 438 C 256.92 438 222 403.08 222 360 C 222 316.92 256.92 282 300 282 Z" fill="none" stroke="hsl(68 55% 38%)" stroke-width="1.6" stroke-linejoin="round"/><path d="M 376.5 375.22 L 397.92 379.48" fill="none" stroke="hsl(68 55% 38%)" stroke-width="1.6" stroke-linejoin="round"/><path d="M 364.85 403.33 L 383.01 415.47" fill="none" stroke="hsl(68 55% 38%)" stroke-width="1.6" stroke-linejoin="round"/><path d="M 343.33 424.85 L 355.47 443.01" fill="none" stroke="hsl(68 55% 38%)" stroke-width="1.6" stroke-linejoin="round"/><path d="M 315.22 436.5 L 319.48 457.92" fill="none" stroke="hsl(68 55% 38%)" stroke-width="1.6" stroke-linejoin="round"/><path d="M 284.78 436.5 L 280.52 457.92" fill="none" stroke="hsl(68 55% 38%)" stroke-width="1.6" stroke-linejoin="round"/><path d="M 256.67 424.85 L 244.53 443.01" fill="none" stroke="hsl(68 55% 38%)" stroke-width="1.6" stroke-linejoin="round"/><path d="M 235.15 403.33 L 216.99 415.47" fill="none" stroke="hsl(68 55% 38%)" stroke-width="1.6" stroke-linejoin="round"/><path d="M 223.5 375.22 L 202.08 379.48" fill="none" stroke="hsl(68 55% 38%)" stroke-width="1.6" stroke-linejoin="round"/><path d="M 223.5 344.78 L 202.08 340.52" fill="none" stroke="hsl(68 55% 38%)" stroke-width="1.6" stroke-linejoin="round"/><path d="M 235.15 316.67 L 216.99 304.53" fill="none" stroke="hsl(68 55% 38%)" stroke-width="1.6" stroke-linejoin="round"/><path d="M 256.67 295.15 L 244.53 276.99" fill="none" stroke="hsl(68 55% 38%)" stroke-width="1.6" stroke-linejoin="round"/><path d="M 284.78 283.5 L 280.52 262.08" fill="none" stroke="hsl(68 55% 38%)" stroke-width="1.6" stroke-linejoin="round"/><path d="M 315.22 283.5 L 319.48 262.08" fill="none" stroke="hsl(68 55% 38%)" stroke-width="1.6" stroke-linejoin="round"/><path d="M 343.33 295.15 L 355.47 276.99" fill="none" stroke="hsl(68 55% 38%)" stroke-width="1.6" stroke-linejoin="round"/><path d="M 364.85 316.67 L 383.01 304.53" fill="none" stroke="hsl(68 55% 38%)" stroke-width="1.6" stroke-linejoin="round"/><path d="M 376.5 344.78 L 397.92 340.52" fill="none" stroke="hsl(68 55% 38%)" stroke-width="1.6" stroke-linejoin="round"/><path d="M 300 243 C 364.62 243 417 295.38 417 360 C 417 424.62 364.62 477 300 477 C 235.38 477 183 424.62 183 360 C 183 295.38 235.38 243 300 243 Z" fill="none" stroke="hsl(68 55% 38%)" stroke-width="1.6" stroke-linejoin="round"/><path d="M 417 351.26 C 421.82 351.26 425.74 355.18 425.74 360 C 425.74 364.82 421.82 368.74 417 368.74 C 412.18 368.74 408.26 364.82 408.26 360 C 408.26 355.18 412.18 351.26 417 351.26 Z" fill="none" stroke="hsl(68 55% 38%)" stroke-width="1.6" stroke-linejoin="round"/><path d="M 414.75 374.09 C 419.58 374.09 423.49 378 423.49 382.83 C 423.49 387.65 419.58 391.56 414.75 391.56 C 409.93 391.56 406.02 387.65 406.02 382.83 C 406.02 378 409.93 374.09 414.75 374.09 Z" fill="none" stroke="hsl(68 55% 38%)" stroke-width="1.6" stroke-linejoin="round"/><path d="M 408.09 396.04 C 412.92 396.04 416.83 399.95 416.83 404.77 C 416.83 409.6 412.92 413.51 408.09 413.51 C 403.27 413.51 399.36 409.6 399.36 404.77 C 399.36 399.95 403.27 396.04 408.09 396.04 Z" fill="none" stroke="hsl(68 55% 38%)" stroke-width="1.6" stroke-linejoin="round"/><path d="M 397.28 416.27 C 402.11 416.27 406.02 420.18 406.02 425 C 406.02 429.83 402.11 433.74 397.28 433.74 C 392.46 433.74 388.55 429.83 388.55 425 C 388.55 420.18 392.46 416.27 397.28 416.27 Z" fill="none" stroke="hsl(68 55% 38%)" stroke-width="1.6" stroke-linejoin="round"/><path d="M 382.73 434 C 387.56 434 391.47 437.91 391.47 442.73 C 391.47 447.56 387.56 451.47 382.73 451.47 C 377.91 451.47 374 447.56 374 442.73 C 374 437.91 377.91 434 382.73 434 Z" fill="none" stroke="hsl(68 55% 38%)" stroke-width="1.6" stroke-linejoin="round"/><path d="M 365 448.55 C 369.83 448.55 373.74 452.46 373.74 457.28 C 373.74 462.11 369.83 466.02 365 466.02 C 360.18 466.02 356.27 462.11 356.27 457.28 C 356.27 452.46 360.18 448.55 365 448.55 Z" fill="none" stroke="hsl(68 55% 38%)" stroke-width="1.6" stroke-linejoin="round"/><path d="M 344.77 459.36 C 349.6 459.36 353.51 463.27 353.51 468.09 C 353.51 472.92 349.6 476.83 344.77 476.83 C 339.95 476.83 336.04 472.92 336.04 468.09 C 336.04 463.27 339.95 459.36 344.77 459.36 Z" fill="none" stroke="hsl(68 55% 38%)" stroke-width="1.6" stroke-linejoin="round"/><path d="M 322.83 466.02 C 327.65 466.02 331.56 469.93 331.56 474.75 C 331.56 479.58 327.65 483.49 322.83 483.49 C 318 483.49 314.09 479.58 314.09 474.75 C 314.09 469.93 318 466.02 322.83 466.02 Z" fill="none" stroke="hsl(68 55% 38%)" stroke-width="1.6" stroke-linejoin="round"/><path d="M 300 468.26 C 304.82 468.26 308.74 472.18 308.74 477 C 308.74 481.82 304.82 485.74 300 485.74 C 295.18 485.74 291.26 481.82 291.26 477 C 291.26 472.18 295.18 468.26 300 468.26 Z" fill="none" stroke="hsl(68 55% 38%)" stroke-width="1.6" stroke-linejoin="round"/><path d="M 277.17 466.02 C 282 466.02 285.91 469.93 285.91 474.75 C 285.91 479.58 282 483.49 277.17 483.49 C 272.35 483.49 268.44 479.58 268.44 474.75 C 268.44 469.93 272.35 466.02 277.17 466.02 Z" fill="none" stroke="hsl(68 55% 38%)" stroke-width="1.6" stroke-linejoin="round"/><path d="M 255.23 459.36 C 260.05 459.36 263.96 463.27 263.96 468.09 C 263.96 472.92 260.05 476.83 255.23 476.83 C 250.4 476.83 246.49 472.92 246.49 468.09 C 246.49 463.27 250.4 459.36 255.23 459.36 Z" fill="none" stroke="hsl(68 55% 38%)" stroke-width="1.6" stroke-linejoin="round"/><path d="M 235 448.55 C 239.82 448.55 243.73 452.46 243.73 457.28 C 243.73 462.11 239.82 466.02 235 466.02 C 230.17 466.02 226.26 462.11 226.26 457.28 C 226.26 452.46 230.17 448.55 235 448.55 Z" fill="none" stroke="hsl(68 55% 38%)" stroke-width="1.6" stroke-linejoin="round"/><path d="M 217.27 434 C 222.09 434 226 437.91 226 442.73 C 226 447.56 222.09 451.47 217.27 451.47 C 212.44 451.47 208.53 447.56 208.53 442.73 C 208.53 437.91 212.44 434 217.27 434 Z" fill="none" stroke="hsl(68 55% 38%)" stroke-width="1.6" stroke-linejoin="round"/><path d="M 202.72 416.27 C 207.54 416.27 211.45 420.18 211.45 425 C 211.45 429.83 207.54 433.74 202.72 433.74 C 197.89 433.74 193.98 429.83 193.98 425 C 193.98 420.18 197.89 416.27 202.72 416.27 Z" fill="none" stroke="hsl(68 55% 38%)" stroke-width="1.6" stroke-linejoin="round"/><path d="M 191.91 396.04 C 196.73 396.04 200.64 399.95 200.64 404.77 C 200.64 409.6 196.73 413.51 191.91 413.51 C 187.08 413.51 183.17 409.6 183.17 404.77 C 183.17 399.95 187.08 396.04 191.91 396.04 Z" fill="none" stroke="hsl(68 55% 38%)" stroke-width="1.6" stroke-linejoin="round"/><path d="M 185.25 374.09 C 190.07 374.09 193.98 378 193.98 382.83 C 193.98 387.65 190.07 391.56 185.25 391.56 C 180.42 391.56 176.51 387.65 176.51 382.83 C 176.51 378 180.42 374.09 185.25 374.09 Z" fill="none" stroke="hsl(68 55% 38%)" stroke-width="1.6" stroke-linejoin="round"/><path d="M 183 351.26 C 187.82 351.26 191.74 355.18 191.74 360 C 191.74 364.82 187.82 368.74 183 368.74 C 178.18 368.74 174.26 364.82 174.26 360 C 174.26 355.18 178.18 351.26 183 351.26 Z" fill="none" stroke="hsl(68 55% 38%)" stroke-width="1.6" stroke-linejoin="round"/><path d="M 185.25 328.44 C 190.07 328.44 193.98 332.35 193.98 337.17 C 193.98 342 190.07 345.91 185.25 345.91 C 180.42 345.91 176.51 342 176.51 337.17 C 176.51 332.35 180.42 328.44 185.25 328.44 Z" fill="none" stroke="hsl(68 55% 38%)" stroke-width="1.6" stroke-linejoin="round"/><path d="M 191.91 306.49 C 196.73 306.49 200.64 310.4 200.64 315.23 C 200.64 320.05 196.73 323.96 191.91 323.96 C 187.08 323.96 183.17 320.05 183.17 315.23 C 183.17 310.4 187.08 306.49 191.91 306.49 Z" fill="none" stroke="hsl(68 55% 38%)" stroke-width="1.6" stroke-linejoin="round"/><path d="M 202.72 286.26 C 207.54 286.26 211.45 290.17 211.45 295 C 211.45 299.82 207.54 303.73 202.72 303.73 C 197.89 303.73 193.98 299.82 193.98 295 C 193.98 290.17 197.89 286.26 202.72 286.26 Z" fill="none" stroke="hsl(68 55% 38%)" stroke-width="1.6" stroke-linejoin="round"/><path d="M 217.27 268.53 C 222.09 268.53 226 272.44 226 277.27 C 226 282.09 222.09 286 217.27 286 C 212.44 286 208.53 282.09 208.53 277.27 C 208.53 272.44 212.44 268.53 217.27 268.53 Z" fill="none" stroke="hsl(68 55% 38%)" stroke-width="1.6" stroke-linejoin="round"/><path d="M 235 253.98 C 239.82 253.98 243.73 257.89 243.73 262.72 C 243.73 267.54 239.82 271.45 235 271.45 C 230.17 271.45 226.26 267.54 226.26 262.72 C 226.26 257.89 230.17 253.98 235 253.98 Z" fill="none" stroke="hsl(68 55% 38%)" stroke-width="1.6" stroke-linejoin="round"/><path d="M 255.23 243.17 C 260.05 243.17 263.96 247.08 263.96 251.91 C 263.96 256.73 260.05 260.64 255.23 260.64 C 250.4 260.64 246.49 256.73 246.49 251.91 C 246.49 247.08 250.4 243.17 255.23 243.17 Z" fill="none" stroke="hsl(68 55% 38%)" stroke-width="1.6" stroke-linejoin="round"/><path d="M 277.17 236.51 C 282 236.51 285.91 240.42 285.91 245.25 C 285.91 250.07 282 253.98 277.17 253.98 C 272.35 253.98 268.44 250.07 268.44 245.25 C 268.44 240.42 272.35 236.51 277.17 236.51 Z" fill="none" stroke="hsl(68 55% 38%)" stroke-width="1.6" stroke-linejoin="round"/><path d="M 300 234.26 C 304.82 234.26 308.74 238.18 308.74 243 C 308.74 247.82 304.82 251.74 300 251.74 C 295.18 251.74 291.26 247.82 291.26 243 C 291.26 238.18 295.18 234.26 300 234.26 Z" fill="none" stroke="hsl(68 55% 38%)" stroke-width="1.6" stroke-linejoin="round"/><path d="M 322.83 236.51 C 327.65 236.51 331.56 240.42 331.56 245.25 C 331.56 250.07 327.65 253.98 322.83 253.98 C 318 253.98 314.09 250.07 314.09 245.25 C 314.09 240.42 318 236.51 322.83 236.51 Z" fill="none" stroke="hsl(68 55% 38%)" stroke-width="1.6" stroke-linejoin="round"/><path d="M 344.77 243.17 C 349.6 243.17 353.51 247.08 353.51 251.91 C 353.51 256.73 349.6 260.64 344.77 260.64 C 339.95 260.64 336.04 256.73 336.04 251.91 C 336.04 247.08 339.95 243.17 344.77 243.17 Z" fill="none" stroke="hsl(68 55% 38%)" stroke-width="1.6" stroke-linejoin="round"/><path d="M 365 253.98 C 369.83 253.98 373.74 257.89 373.74 262.72 C 373.74 267.54 369.83 271.45 365 271.45 C 360.18 271.45 356.27 267.54 356.27 262.72 C 356.27 257.89 360.18 253.98 365 253.98 Z" fill="none" stroke="hsl(68 55% 38%)" stroke-width="1.6" stroke-linejoin="round"/><path d="M 382.73 268.53 C 387.56 268.53 391.47 272.44 391.47 277.27 C 391.47 282.09 387.56 286 382.73 286 C 377.91 286 374 282.09 374 277.27 C 374 272.44 377.91 268.53 382.73 268.53 Z" fill="none" stroke="hsl(68 55% 38%)" stroke-width="1.6" stroke-linejoin="round"/><path d="M 397.28 286.26 C 402.11 286.26 406.02 290.17 406.02 295 C 406.02 299.82 402.11 303.73 397.28 303.73 C 392.46 303.73 388.55 299.82 388.55 295 C 388.55 290.17 392.46 286.26 397.28 286.26 Z" fill="none" stroke="hsl(68 55% 38%)" stroke-width="1.6" stroke-linejoin="round"/><path d="M 408.09 306.49 C 412.92 306.49 416.83 310.4 416.83 315.23 C 416.83 320.05 412.92 323.96 408.09 323.96 C 403.27 323.96 399.36 320.05 399.36 315.23 C 399.36 310.4 403.27 306.49 408.09 306.49 Z" fill="none" stroke="hsl(68 55% 38%)" stroke-width="1.6" stroke-linejoin="round"/><path d="M 414.75 328.44 C 419.58 328.44 423.49 332.35 423.49 337.17 C 423.49 342 419.58 345.91 414.75 345.91 C 409.93 345.91 406.02 342 406.02 337.17 C 406.02 332.35 409.93 328.44 414.75 328.44 Z" fill="none" stroke="hsl(68 55% 38%)" stroke-width="1.6" stroke-linejoin="round"/><path d="M 300 204 C 386.16 204 456 273.84 456 360 C 456 446.16 386.16 516 300 516 C 213.84 516 144 446.16 144 360 C 144 273.84 213.84 204 300 204 Z" fill="none" stroke="hsl(68 55% 38%)" stroke-width="1.6" stroke-linejoin="round"/><path d="M 453 390.43 L 474.42 394.69" fill="none" stroke="hsl(68 55% 38%)" stroke-width="1.6" stroke-linejoin="round"/><path d="M 429.71 446.67 L 447.87 458.8" fill="none" stroke="hsl(68 55% 38%)" stroke-width="1.6" stroke-linejoin="round"/><path d="M 386.67 489.71 L 398.8 507.87" fill="none" stroke="hsl(68 55% 38%)" stroke-width="1.6" stroke-linejoin="round"/><path d="M 330.43 513 L 334.69 534.42" fill="none" stroke="hsl(68 55% 38%)" stroke-width="1.6" stroke-linejoin="round"/><path d="M 269.57 513 L 265.31 534.42" fill="none" stroke="hsl(68 55% 38%)" stroke-width="1.6" stroke-linejoin="round"/><path d="M 213.33 489.71 L 201.2 507.87" fill="none" stroke="hsl(68 55% 38%)" stroke-width="1.6" stroke-linejoin="round"/><path d="M 170.29 446.67 L 152.13 458.8" fill="none" stroke="hsl(68 55% 38%)" stroke-width="1.6" stroke-linejoin="round"/><path d="M 147 390.43 L 125.58 394.69" fill="none" stroke="hsl(68 55% 38%)" stroke-width="1.6" stroke-linejoin="round"/><path d="M 147 329.57 L 125.58 325.31" fill="none" stroke="hsl(68 55% 38%)" stroke-width="1.6" stroke-linejoin="round"/><path d="M 170.29 273.33 L 152.13 261.2" fill="none" stroke="hsl(68 55% 38%)" stroke-width="1.6" stroke-linejoin="round"/><path d="M 213.33 230.29 L 201.2 212.13" fill="none" stroke="hsl(68 55% 38%)" stroke-width="1.6" stroke-linejoin="round"/><path d="M 269.57 207 L 265.31 185.58" fill="none" stroke="hsl(68 55% 38%)" stroke-width="1.6" stroke-linejoin="round"/><path d="M 330.43 207 L 334.69 185.58" fill="none" stroke="hsl(68 55% 38%)" stroke-width="1.6" stroke-linejoin="round"/><path d="M 386.67 230.29 L 398.8 212.13" fill="none" stroke="hsl(68 55% 38%)" stroke-width="1.6" stroke-linejoin="round"/><path d="M 429.71 273.33 L 447.87 261.2" fill="none" stroke="hsl(68 55% 38%)" stroke-width="1.6" stroke-linejoin="round"/><path d="M 453 329.57 L 474.42 325.31" fill="none" stroke="hsl(68 55% 38%)" stroke-width="1.6" stroke-linejoin="round"/><path d="M 300 165 C 407.7 165 495 252.3 495 360 C 495 467.7 407.7 555 300 555 C 192.3 555 105 467.7 105 360 C 105 252.3 192.3 165 300 165 Z" fill="none" stroke="hsl(68 55% 38%)" stroke-width="1.6" stroke-linejoin="round"/><path d="M 495 360 L 516.84 360" fill="none" stroke="hsl(68 55% 38%)" stroke-width="1.6" stroke-linejoin="round"/><path d="M 491.25 398.04 L 512.67 402.3" fill="none" stroke="hsl(68 55% 38%)" stroke-width="1.6" stroke-linejoin="round"/><path d="M 480.16 434.62 L 500.33 442.98" fill="none" stroke="hsl(68 55% 38%)" stroke-width="1.6" stroke-linejoin="round"/><path d="M 462.14 468.34 L 480.3 480.47" fill="none" stroke="hsl(68 55% 38%)" stroke-width="1.6" stroke-linejoin="round"/><path d="M 437.89 497.89 L 453.33 513.33" fill="none" stroke="hsl(68 55% 38%)" stroke-width="1.6" stroke-linejoin="round"/><path d="M 408.34 522.14 L 420.47 540.3" fill="none" stroke="hsl(68 55% 38%)" stroke-width="1.6" stroke-linejoin="round"/><path d="M 374.62 540.16 L 382.98 560.33" fill="none" stroke="hsl(68 55% 38%)" stroke-width="1.6" stroke-linejoin="round"/><path d="M 338.04 551.25 L 342.3 572.67" fill="none" stroke="hsl(68 55% 38%)" stroke-width="1.6" stroke-linejoin="round"/><path d="M 300 555 L 300 576.84" fill="none" stroke="hsl(68 55% 38%)" stroke-width="1.6" stroke-linejoin="round"/><path d="M 261.96 551.25 L 257.7 572.67" fill="none" stroke="hsl(68 55% 38%)" stroke-width="1.6" stroke-linejoin="round"/><path d="M 225.38 540.16 L 217.02 560.33" fill="none" stroke="hsl(68 55% 38%)" stroke-width="1.6" stroke-linejoin="round"/><path d="M 191.66 522.14 L 179.53 540.3" fill="none" stroke="hsl(68 55% 38%)" stroke-width="1.6" stroke-linejoin="round"/><path d="M 162.11 497.89 L 146.67 513.33" fill="none" stroke="hsl(68 55% 38%)" stroke-width="1.6" stroke-linejoin="round"/><path d="M 137.86 468.34 L 119.7 480.47" fill="none" stroke="hsl(68 55% 38%)" stroke-width="1.6" stroke-linejoin="round"/><path d="M 119.84 434.62 L 99.67 442.98" fill="none" stroke="hsl(68 55% 38%)" stroke-width="1.6" stroke-linejoin="round"/><path d="M 108.75 398.04 L 87.33 402.3" fill="none" stroke="hsl(68 55% 38%)" stroke-width="1.6" stroke-linejoin="round"/><path d="M 105 360 L 83.16 360" fill="none" stroke="hsl(68 55% 38%)" stroke-width="1.6" stroke-linejoin="round"/><path d="M 108.75 321.96 L 87.33 317.7" fill="none" stroke="hsl(68 55% 38%)" stroke-width="1.6" stroke-linejoin="round"/><path d="M 119.84 285.38 L 99.67 277.02" fill="none" stroke="hsl(68 55% 38%)" stroke-width="1.6" stroke-linejoin="round"/><path d="M 137.86 251.66 L 119.7 239.53" fill="none" stroke="hsl(68 55% 38%)" stroke-width="1.6" stroke-linejoin="round"/><path d="M 162.11 222.11 L 146.67 206.67" fill="none" stroke="hsl(68 55% 38%)" stroke-width="1.6" stroke-linejoin="round"/><path d="M 191.66 197.86 L 179.53 179.7" fill="none" stroke="hsl(68 55% 38%)" stroke-width="1.6" stroke-linejoin="round"/><path d="M 225.38 179.84 L 217.02 159.67" fill="none" stroke="hsl(68 55% 38%)" stroke-width="1.6" stroke-linejoin="round"/><path d="M 261.96 168.75 L 257.7 147.33" fill="none" stroke="hsl(68 55% 38%)" stroke-width="1.6" stroke-linejoin="round"/><path d="M 300 165 L 300 143.16" fill="none" stroke="hsl(68 55% 38%)" stroke-width="1.6" stroke-linejoin="round"/><path d="M 338.04 168.75 L 342.3 147.33" fill="none" stroke="hsl(68 55% 38%)" stroke-width="1.6" stroke-linejoin="round"/><path d="M 374.62 179.84 L 382.98 159.67" fill="none" stroke="hsl(68 55% 38%)" stroke-width="1.6" stroke-linejoin="round"/><path d="M 408.34 197.86 L 420.47 179.7" fill="none" stroke="hsl(68 55% 38%)" stroke-width="1.6" stroke-linejoin="round"/><path d="M 437.89 222.11 L 453.33 206.67" fill="none" stroke="hsl(68 55% 38%)" stroke-width="1.6" stroke-linejoin="round"/><path d="M 462.14 251.66 L 480.3 239.53" fill="none" stroke="hsl(68 55% 38%)" stroke-width="1.6" stroke-linejoin="round"/><path d="M 480.16 285.38 L 500.33 277.02" fill="none" stroke="hsl(68 55% 38%)" stroke-width="1.6" stroke-linejoin="round"/><path d="M 491.25 321.96 L 512.67 317.7" fill="none" stroke="hsl(68 55% 38%)" stroke-width="1.6" stroke-linejoin="round"/><path d="M 300 165 C 407.7 165 495 252.3 495 360 C 495 467.7 407.7 555 300 555 C 192.3 555 105 467.7 105 360 C 105 252.3 192.3 165 300 165 Z" fill="none" stroke="hsl(68 55% 38%)" stroke-width="1.6" stroke-linejoin="round"/></g>
  <g transform="translate(300,640)">
    <rect x="-110" y="-26" width="220" height="34" rx="17" fill="#ffffff" opacity="0.8"/>
    <text x="0" y="-3" text-anchor="middle" font-family="Quicksand, Arial, sans-serif" font-size="16" font-weight="600" fill="hsl(68 55% 38%)">🔤 ABC &amp; Zahlen</text>
  </g>
  <text x="300" y="700" text-anchor="middle" font-family="Quicksand, Arial, sans-serif" font-size="40" font-weight="700" fill="#2b2540"><tspan x="300" dy="0">ABC &amp; Zahlen –</tspan><tspan x="300" dy="44">Vol. 2</tspan></text>
  <text x="300" y="772" text-anchor="middle" font-family="Arial, sans-serif" font-size="15" fill="#5b5470">Malbuch · 24 Seiten</text>
</svg>