<svg xmlns="http://www.w3.org/2000/svg" viewBox="0 0 600 800" width="600" height="800">
  <defs>
    <linearGradient id="bg" x1="0" y1="0" x2="0" y2="1">
      <stop offset="0" stop-color="hsl(101 70% 95%)"/><stop offset="1" stop-color="hsl(141 70% 92%)"/>
    </linearGradient>
  </defs>
  <rect width="600" height="800" fill="url(#bg)"/>
  <rect x="22" y="22" width="556" height="756" rx="28" fill="none" stroke="hsl(101 55% 38%)" stroke-width="2" opacity="0.5"/>
  <text x="300" y="74" text-anchor="middle" font-family="Quicksand, Arial, sans-serif" font-size="26" font-weight="700" fill="hsl(101 55% 38%)">&#10022; Coloreo</text>
  <g transform="translate(0,40)"><path d="M 323.4 360 Q 335.17 372.84 349.14 360 Q 335.17 347.16 323.4 360 Z" fill="none" stroke="hsl(101 55% 38%)" stroke-width="1.6" stroke-linejoin="round"/><path d="M 321.62 368.95 Q 327.58 385.32 345.4 378.81 Q 337.41 361.6 321.62 368.95 Z" fill="none" stroke="hsl(101 55% 38%)" stroke-width="1.6" stroke-linejoin="round"/><path d="M 316.55 376.55 Q 315.79 393.95 334.75 394.75 Q 333.95 375.79 316.55 376.55 Z" fill="none" stroke="hsl(101 55% 38%)" stroke-width="1.6" stroke-linejoin="round"/><path d="M 308.95 381.62 Q 301.6 397.41 318.81 405.4 Q 325.32 387.58 308.95 381.62 Z" fill="none" stroke="hsl(101 55% 38%)" stroke-width="1.6" stroke-linejoin="round"/><path d="M 300 383.4 Q 287.16 395.17 300 409.14 Q 312.84 395.17 300 383.4 Z" fill="none" stroke="hsl(101 55% 38%)" stroke-width="1.6" stroke-linejoin="round"/><path d="M 291.05 381.62 Q 274.68 387.58 281.19 405.4 Q 298.4 397.41 291.05 381.62 Z" fill="none" stroke="hsl(101 55% 38%)" stroke-width="1.6" stroke-linejoin="round"/><path d="M 283.45 376.55 Q 266.05 375.79 265.25 394.75 Q 284.21 393.95 283.45 376.55 Z" fill="none" stroke="hsl(101 55% 38%)" stroke-width="1.6" stroke-linejoin="round"/><path d="M 278.38 368.95 Q 262.59 361.6 254.6 378.81 Q 272.42 385.32 278.38 368.95 Z" fill="none" stroke="hsl(101 55% 38%)" stroke-width="1.6" stroke-linejoin="round"/><path d="M 276.6 360 Q 264.83 347.16 250.86 360 Q 264.83 372.84 276.6 360 Z" fill="none" stroke="hsl(101 55% 38%)" stroke-width="1.6" stroke-linejoin="round"/><path d="M 278.38 351.05 Q 272.42 334.68 254.6 341.19 Q 262.59 358.4 278.38 351.05 Z" fill="none" stroke="hsl(101 55% 38%)" stroke-width="1.6" stroke-linejoin="round"/><path d="M 283.45 343.45 Q 284.21 326.05 265.25 325.25 Q 266.05 344.21 283.45 343.45 Z" fill="none" stroke="hsl(101 55% 38%)" stroke-width="1.6" stroke-linejoin="round"/><path d="M 291.05 338.38 Q 298.4 322.59 281.19 314.6 Q 274.68 332.42 291.05 338.38 Z" fill="none" stroke="hsl(101 55% 38%)" stroke-width="1.6" stroke-linejoin="round"/><path d="M 300 336.6 Q 312.84 324.83 300 310.86 Q 287.16 324.83 300 336.6 Z" fill="none" stroke="hsl(101 55% 38%)" stroke-width="1.6" stroke-linejoin="round"/><path d="M 308.95 338.38 Q 325.32 332.42 318.81 314.6 Q 301.6 322.59 308.95 338.38 Z" fill="none" stroke="hsl(101 55% 38%)" stroke-width="1.6" stroke-linejoin="round"/><path d="M 316.55 343.45 Q 333.95 344.21 334.75 325.25 Q 315.79 326.05 316.55 343.45 Z" fill="none" stroke="hsl(101 55% 38%)" stroke-width="1.6" stroke-linejoin="round"/><path d="M 321.62 351.05 Q 337.41 358.4 345.4 341.19 Q 327.58 334.68 321.62 351.05 Z" fill="none" stroke="hsl(101 55% 38%)" stroke-width="1.6" stroke-linejoin="round"/><path d="M 285.96 360 a 14.04 14.04 0 1 0 28.08 0 a 14.04 14.04 0 1 0 -28.08 0 Z" fill="none" stroke="hsl(101 55% 38%)" stroke-width="1.6" stroke-linejoin="round"/><path d="M 222 360 a 78 78 0 1 0 156 0 a 78 78 0 1 0 -156 0 Z" fill="none" stroke="hsl(101 55% 38%)" stroke-width="1.6" stroke-linejoin="round"/><path d="M 376.5 375.22 L 397.92 379.48" fill="none" stroke="hsl(101 55% 38%)" stroke-width="1.6" stroke-linejoin="round"/><path d="M 364.85 403.33 L 383.01 415.47" fill="none" stroke="hsl(101 55% 38%)" stroke-width="1.6" stroke-linejoin="round"/><path d="M 343.33 424.85 L 355.47 443.01" fill="none" stroke="hsl(101 55% 38%)" stroke-width="1.6" stroke-linejoin="round"/><path d="M 315.22 436.5 L 319.48 457.92" fill="none" stroke="hsl(101 55% 38%)" stroke-width="1.6" stroke-linejoin="round"/><path d="M 284.78 436.5 L 280.52 457.92" fill="none" stroke="hsl(101 55% 38%)" stroke-width="1.6" stroke-linejoin="round"/><path d="M 256.67 424.85 L 244.53 443.01" fill="none" stroke="hsl(101 55% 38%)" stroke-width="1.6" stroke-linejoin="round"/><path d="M 235.15 403.33 L 216.99 415.47" fill="none" stroke="hsl(101 55% 38%)" stroke-width="1.6" stroke-linejoin="round"/><path d="M 223.5 375.22 L 202.08 379.48" fill="none" stroke="hsl(101 55% 38%)" stroke-width="1.6" stroke-linejoin="round"/><path d="M 223.5 344.78 L 202.08 340.52" fill="none" stroke="hsl(101 55% 38%)" stroke-width="1.6" stroke-linejoin="round"/><path d="M 235.15 316.67 L 216.99 304.53" fill="none" stroke="hsl(101 55% 38%)" stroke-width="1.6" stroke-linejoin="round"/><path d="M 256.67 295.15 L 244.53 276.99" fill="none" stroke="hsl(101 55% 38%)" stroke-width="1.6" stroke-linejoin="round"/><path d="M 284.78 283.5 L 280.52 262.08" fill="none" stroke="hsl(101 55% 38%)" stroke-width="1.6" stroke-linejoin="round"/><path d="M 315.22 283.5 L 319.48 262.08" fill="none" stroke="hsl(101 55% 38%)" stroke-width="1.6" stroke-linejoin="round"/><path d="M 343.33 295.15 L 355.47 276.99" fill="none" stroke="hsl(101 55% 38%)" stroke-width="1.6" stroke-linejoin="round"/><path d="M 364.85 316.67 L 383.01 304.53" fill="none" stroke="hsl(101 55% 38%)" stroke-width="1.6" stroke-linejoin="round"/><path d="M 376.5 344.78 L 397.92 340.52" fill="none" stroke="hsl(101 55% 38%)" stroke-width="1.6" stroke-linejoin="round"/><path d="M 183 360 a 117 117 0 1 0 234 0 a 117 117 0 1 0 -234 0 Z" fill="none" stroke="hsl(101 55% 38%)" stroke-width="1.6" stroke-linejoin="round"/><path d="M 408.26 360 a 8.74 8.74 0 1 0 17.47 0 a 8.74 8.74 0 1 0 -17.47 0 Z" fill="none" stroke="hsl(101 55% 38%)" stroke-width="1.6" stroke-linejoin="round"/><path d="M 406.02 382.83 a 8.74 8.74 0 1 0 17.47 0 a 8.74 8.74 0 1 0 -17.47 0 Z" fill="none" stroke="hsl(101 55% 38%)" stroke-width="1.6" stroke-linejoin="round"/><path d="M 399.36 404.77 a 8.74 8.74 0 1 0 17.47 0 a 8.74 8.74 0 1 0 -17.47 0 Z" fill="none" stroke="hsl(101 55% 38%)" stroke-width="1.6" stroke-linejoin="round"/><path d="M 388.55 425 a 8.74 8.74 0 1 0 17.47 0 a 8.74 8.74 0 1 0 -17.47 0 Z" fill="none" stroke="hsl(101 55% 38%)" stroke-width="1.6" stroke-linejoin="round"/><path d="M 374 442.73 a 8.74 8.74 0 1 0 17.47 0 a 8.74 8.74 0 1 0 -17.47 0 Z" fill="none" stroke="hsl(101 55% 38%)" stroke-width="1.6" stroke-linejoin="round"/><path d="M 356.27 457.28 a 8.74 8.74 0 1 0 17.47 0 a 8.74 8.74 0 1 0 -17.47 0 Z" fill="none" stroke="hsl(101 55% 38%)" stroke-width="1.6" stroke-linejoin="round"/><path d="M 336.04 468.09 a 8.74 8.74 0 1 0 17.47 0 a 8.74 8.74 0 1 0 -17.47 0 Z" fill="none" stroke="hsl(101 55% 38%)" stroke-width="1.6" stroke-linejoin="round"/><path d="M 314.09 474.75 a 8.74 8.74 0 1 0 17.47 0 a 8.74 8.74 0 1 0 -17.47 0 Z" fill="none" stroke="hsl(101 55% 38%)" stroke-width="1.6" stroke-linejoin="round"/><path d="M 291.26 477 a 8.74 8.74 0 1 0 17.47 0 a 8.74 8.74 0 1 0 -17.47 0 Z" fill="none" stroke="hsl(101 55% 38%)" stroke-width="1.6" stroke-linejoin="round"/><path d="M 268.44 474.75 a 8.74 8.74 0 1 0 17.47 0 a 8.74 8.74 0 1 0 -17.47 0 Z" fill="none" stroke="hsl(101 55% 38%)" stroke-width="1.6" stroke-linejoin="round"/><path d="M 246.49 468.09 a 8.74 8.74 0 1 0 17.47 0 a 8.74 8.74 0 1 0 -17.47 0 Z" fill="none" stroke="hsl(101 55% 38%)" stroke-width="1.6" stroke-linejoin="round"/><path d="M 226.26 457.28 a 8.74 8.74 0 1 0 17.47 0 a 8.74 8.74 0 1 0 -17.47 0 Z" fill="none" stroke="hsl(101 55% 38%)" stroke-width="1.6" stroke-linejoin="round"/><path d="M 208.53 442.73 a 8.74 8.74 0 1 0 17.47 0 a 8.74 8.74 0 1 0 -17.47 0 Z" fill="none" stroke="hsl(101 55% 38%)" stroke-width="1.6" stroke-linejoin="round"/><path d="M 193.98 425 a 8.74 8.74 0 1 0 17.47 0 a 8.74 8.74 0 1 0 -17.47 0 Z" fill="none" stroke="hsl(101 55% 38%)" stroke-width="1.6" stroke-linejoin="round"/><path d="M 183.17 404.77 a 8.74 8.74 0 1 0 17.47 0 a 8.74 8.74 0 1 0 -17.47 0 Z" fill="none" stroke="hsl(101 55% 38%)" stroke-width="1.6" stroke-linejoin="round"/><path d="M 176.51 382.83 a 8.74 8.74 0 1 0 17.47 0 a 8.74 8.74 0 1 0 -17.47 0 Z" fill="none" stroke="hsl(101 55% 38%)" stroke-width="1.6" stroke-linejoin="round"/><path d="M 174.26 360 a 8.74 8.74 0 1 0 17.47 0 a 8.74 8.74 0 1 0 -17.47 0 Z" fill="none" stroke="hsl(101 55% 38%)" stroke-width="1.6" stroke-linejoin="round"/><path d="M 176.51 337.17 a 8.74 8.74 0 1 0 17.47 0 a 8.74 8.74 0 1 0 -17.47 0 Z" fill="none" stroke="hsl(101 55% 38%)" stroke-width="1.6" stroke-linejoin="round"/><path d="M 183.17 315.23 a 8.74 8.74 0 1 0 17.47 0 a 8.74 8.74 0 1 0 -17.47 0 Z" fill="none" stroke="hsl(101 55% 38%)" stroke-width="1.6" stroke-linejoin="round"/><path d="M 193.98 295 a 8.74 8.74 0 1 0 17.47 0 a 8.74 8.74 0 1 0 -17.47 0 Z" fill="none" stroke="hsl(101 55% 38%)" stroke-width="1.6" stroke-linejoin="round"/><path d="M 208.53 277.27 a 8.74 8.74 0 1 0 17.47 0 a 8.74 8.74 0 1 0 -17.47 0 Z" fill="none" stroke="hsl(101 55% 38%)" stroke-width="1.6" stroke-linejoin="round"/><path d="M 226.26 262.72 a 8.74 8.74 0 1 0 17.47 0 a 8.74 8.74 0 1 0 -17.47 0 Z" fill="none" stroke="hsl(101 55% 38%)" stroke-width="1.6" stroke-linejoin="round"/><path d="M 246.49 251.91 a 8.74 8.74 0 1 0 17.47 0 a 8.74 8.74 0 1 0 -17.47 0 Z" fill="none" stroke="hsl(101 55% 38%)" stroke-width="1.6" stroke-linejoin="round"/><path d="M 268.44 245.25 a 8.74 8.74 0 1 0 17.47 0 a 8.74 8.74 0 1 0 -17.47 0 Z" fill="none" stroke="hsl(101 55% 38%)" stroke-width="1.6" stroke-linejoin="round"/><path d="M 291.26 243 a 8.74 8.74 0 1 0 17.47 0 a 8.74 8.74 0 1 0 -17.47 0 Z" fill="none" stroke="hsl(101 55% 38%)" stroke-width="1.6" stroke-linejoin="round"/><path d="M 314.09 245.25 a 8.74 8.74 0 1 0 17.47 0 a 8.74 8.74 0 1 0 -17.47 0 Z" fill="none" stroke="hsl(101 55% 38%)" stroke-width="1.6" stroke-linejoin="round"/><path d="M 336.04 251.91 a 8.74 8.74 0 1 0 17.47 0 a 8.74 8.74 0 1 0 -17.47 0 Z" fill="none" stroke="hsl(101 55% 38%)" stroke-width="1.6" stroke-linejoin="round"/><path d="M 356.27 262.72 a 8.74 8.74 0 1 0 17.47 0 a 8.74 8.74 0 1 0 -17.47 0 Z" fill="none" stroke="hsl(101 55% 38%)" stroke-width="1.6" stroke-linejoin="round"/><path d="M 374 277.27 a 8.74 8.74 0 1 0 17.47 0 a 8.74 8.74 0 1 0 -17.47 0 Z" fill="none" stroke="hsl(101 55% 38%)" stroke-width="1.6" stroke-linejoin="round"/><path d="M 388.55 295 a 8.74 8.74 0 1 0 17.47 0 a 8.74 8.74 0 1 0 -17.47 0 Z" fill="none" stroke="hsl(101 55% 38%)" stroke-width="1.6" stroke-linejoin="round"/><path d="M 399.36 315.23 a 8.74 8.74 0 1 0 17.47 0 a 8.74 8.74 0 1 0 -17.47 0 Z" fill="none" stroke="hsl(101 55% 38%)" stroke-width="1.6" stroke-linejoin="round"/><path d="M 406.02 337.17 a 8.74 8.74 0 1 0 17.47 0 a 8.74 8.74 0 1 0 -17.47 0 Z" fill="none" stroke="hsl(101 55% 38%)" stroke-width="1.6" stroke-linejoin="round"/><path d="M 144 360 a 156 156 0 1 0 312 0 a 156 156 0 1 0 -312 0 Z" fill="none" stroke="hsl(101 55% 38%)" stroke-width="1.6" stroke-linejoin="round"/><path d="M 453 390.43 Q 459.59 423.07 483.6 396.52 Q 471.58 362.81 453 390.43 Z" fill="none" stroke="hsl(101 55% 38%)" stroke-width="1.6" stroke-linejoin="round"/><path d="M 429.71 446.67 Q 423.31 479.34 455.65 464 Q 457.44 428.25 429.71 446.67 Z" fill="none" stroke="hsl(101 55% 38%)" stroke-width="1.6" stroke-linejoin="round"/><path d="M 386.67 489.71 Q 368.25 517.44 404 515.65 Q 419.34 483.31 386.67 489.71 Z" fill="none" stroke="hsl(101 55% 38%)" stroke-width="1.6" stroke-linejoin="round"/><path d="M 330.43 513 Q 302.81 531.58 336.52 543.6 Q 363.07 519.59 330.43 513 Z" fill="none" stroke="hsl(101 55% 38%)" stroke-width="1.6" stroke-linejoin="round"/><path d="M 269.57 513 Q 236.93 519.59 263.48 543.6 Q 297.19 531.58 269.57 513 Z" fill="none" stroke="hsl(101 55% 38%)" stroke-width="1.6" stroke-linejoin="round"/><path d="M 213.33 489.71 Q 180.66 483.31 196 515.65 Q 231.75 517.44 213.33 489.71 Z" fill="none" stroke="hsl(101 55% 38%)" stroke-width="1.6" stroke-linejoin="round"/><path d="M 170.29 446.67 Q 142.56 428.25 144.35 464 Q 176.69 479.34 170.29 446.67 Z" fill="none" stroke="hsl(101 55% 38%)" stroke-width="1.6" stroke-linejoin="round"/><path d="M 147 390.43 Q 128.42 362.81 116.4 396.52 Q 140.41 423.07 147 390.43 Z" fill="none" stroke="hsl(101 55% 38%)" stroke-width="1.6" stroke-linejoin="round"/><path d="M 147 329.57 Q 140.41 296.93 116.4 323.48 Q 128.42 357.19 147 329.57 Z" fill="none" stroke="hsl(101 55% 38%)" stroke-width="1.6" stroke-linejoin="round"/><path d="M 170.29 273.33 Q 176.69 240.66 144.35 256 Q 142.56 291.75 170.29 273.33 Z" fill="none" stroke="hsl(101 55% 38%)" stroke-width="1.6" stroke-linejoin="round"/><path d="M 213.33 230.29 Q 231.75 202.56 196 204.35 Q 180.66 236.69 213.33 230.29 Z" fill="none" stroke="hsl(101 55% 38%)" stroke-width="1.6" stroke-linejoin="round"/><path d="M 269.57 207 Q 297.19 188.42 263.48 176.4 Q 236.93 200.41 269.57 207 Z" fill="none" stroke="hsl(101 55% 38%)" stroke-width="1.6" stroke-linejoin="round"/><path d="M 330.43 207 Q 363.07 200.41 336.52 176.4 Q 302.81 188.42 330.43 207 Z" fill="none" stroke="hsl(101 55% 38%)" stroke-width="1.6" stroke-linejoin="round"/><path d="M 386.67 230.29 Q 419.34 236.69 404 204.35 Q 368.25 202.56 386.67 230.29 Z" fill="none" stroke="hsl(101 55% 38%)" stroke-width="1.6" stroke-linejoin="round"/><path d="M 429.71 273.33 Q 457.44 291.75 455.65 256 Q 423.31 240.66 429.71 273.33 Z" fill="none" stroke="hsl(101 55% 38%)" stroke-width="1.6" stroke-linejoin="round"/><path d="M 453 329.57 Q 471.58 357.19 483.6 323.48 Q 459.59 296.93 453 329.57 Z" fill="none" stroke="hsl(101 55% 38%)" stroke-width="1.6" stroke-linejoin="round"/><path d="M 105 360 a 195 195 0 1 0 390 0 a 195 195 0 1 0 -390 0 Z" fill="none" stroke="hsl(101 55% 38%)" stroke-width="1.6" stroke-linejoin="round"/><path d="M 486.26 360 a 8.74 8.74 0 1 0 17.47 0 a 8.74 8.74 0 1 0 -17.47 0 Z" fill="none" stroke="hsl(101 55% 38%)" stroke-width="1.6" stroke-linejoin="round"/><path d="M 482.52 398.04 a 8.74 8.74 0 1 0 17.47 0 a 8.74 8.74 0 1 0 -17.47 0 Z" fill="none" stroke="hsl(101 55% 38%)" stroke-width="1.6" stroke-linejoin="round"/><path d="M 471.42 434.62 a 8.74 8.74 0 1 0 17.47 0 a 8.74 8.74 0 1 0 -17.47 0 Z" fill="none" stroke="hsl(101 55% 38%)" stroke-width="1.6" stroke-linejoin="round"/><path d="M 453.4 468.34 a 8.74 8.74 0 1 0 17.47 0 a 8.74 8.74 0 1 0 -17.47 0 Z" fill="none" stroke="hsl(101 55% 38%)" stroke-width="1.6" stroke-linejoin="round"/><path d="M 429.15 497.89 a 8.74 8.74 0 1 0 17.47 0 a 8.74 8.74 0 1 0 -17.47 0 Z" fill="none" stroke="hsl(101 55% 38%)" stroke-width="1.6" stroke-linejoin="round"/><path d="M 399.6 522.14 a 8.74 8.74 0 1 0 17.47 0 a 8.74 8.74 0 1 0 -17.47 0 Z" fill="none" stroke="hsl(101 55% 38%)" stroke-width="1.6" stroke-linejoin="round"/><path d="M 365.89 540.16 a 8.74 8.74 0 1 0 17.47 0 a 8.74 8.74 0 1 0 -17.47 0 Z" fill="none" stroke="hsl(101 55% 38%)" stroke-width="1.6" stroke-linejoin="round"/><path d="M 329.31 551.25 a 8.74 8.74 0 1 0 17.47 0 a 8.74 8.74 0 1 0 -17.47 0 Z" fill="none" stroke="hsl(101 55% 38%)" stroke-width="1.6" stroke-linejoin="round"/><path d="M 291.26 555 a 8.74 8.74 0 1 0 17.47 0 a 8.74 8.74 0 1 0 -17.47 0 Z" fill="none" stroke="hsl(101 55% 38%)" stroke-width="1.6" stroke-linejoin="round"/><path d="M 253.22 551.25 a 8.74 8.74 0 1 0 17.47 0 a 8.74 8.74 0 1 0 -17.47 0 Z" fill="none" stroke="hsl(101 55% 38%)" stroke-width="1.6" stroke-linejoin="round"/><path d="M 216.64 540.16 a 8.74 8.74 0 1 0 17.47 0 a 8.74 8.74 0 1 0 -17.47 0 Z" fill="none" stroke="hsl(101 55% 38%)" stroke-width="1.6" stroke-linejoin="round"/><path d="M 182.93 522.14 a 8.74 8.74 0 1 0 17.47 0 a 8.74 8.74 0 1 0 -17.47 0 Z" fill="none" stroke="hsl(101 55% 38%)" stroke-width="1.6" stroke-linejoin="round"/><path d="M 153.38 497.89 a 8.74 8.74 0 1 0 17.47 0 a 8.74 8.74 0 1 0 -17.47 0 Z" fill="none" stroke="hsl(101 55% 38%)" stroke-width="1.6" stroke-linejoin="round"/><path d="M 129.13 468.34 a 8.74 8.74 0 1 0 17.47 0 a 8.74 8.74 0 1 0 -17.47 0 Z" fill="none" stroke="hsl(101 55% 38%)" stroke-width="1.6" stroke-linejoin="round"/><path d="M 111.11 434.62 a 8.74 8.74 0 1 0 17.47 0 a 8.74 8.74 0 1 0 -17.47 0 Z" fill="none" stroke="hsl(101 55% 38%)" stroke-width="1.6" stroke-linejoin="round"/><path d="M 100.01 398.04 a 8.74 8.74 0 1 0 17.47 0 a 8.74 8.74 0 1 0 -17.47 0 Z" fill="none" stroke="hsl(101 55% 38%)" stroke-width="1.6" stroke-linejoin="round"/><path d="M 96.26 360 a 8.74 8.74 0 1 0 17.47 0 a 8.74 8.74 0 1 0 -17.47 0 Z" fill="none" stroke="hsl(101 55% 38%)" stroke-width="1.6" stroke-linejoin="round"/><path d="M 100.01 321.96 a 8.74 8.74 0 1 0 17.47 0 a 8.74 8.74 0 1 0 -17.47 0 Z" fill="none" stroke="hsl(101 55% 38%)" stroke-width="1.6" stroke-linejoin="round"/><path d="M 111.11 285.38 a 8.74 8.74 0 1 0 17.47 0 a 8.74 8.74 0 1 0 -17.47 0 Z" fill="none" stroke="hsl(101 55% 38%)" stroke-width="1.6" stroke-linejoin="round"/><path d="M 129.13 251.66 a 8.74 8.74 0 1 0 17.47 0 a 8.74 8.74 0 1 0 -17.47 0 Z" fill="none" stroke="hsl(101 55% 38%)" stroke-width="1.6" stroke-linejoin="round"/><path d="M 153.38 222.11 a 8.74 8.74 0 1 0 17.47 0 a 8.74 8.74 0 1 0 -17.47 0 Z" fill="none" stroke="hsl(101 55% 38%)" stroke-width="1.6" stroke-linejoin="round"/><path d="M 182.93 197.86 a 8.74 8.74 0 1 0 17.47 0 a 8.74 8.74 0 1 0 -17.47 0 Z" fill="none" stroke="hsl(101 55% 38%)" stroke-width="1.6" stroke-linejoin="round"/><path d="M 216.64 179.84 a 8.74 8.74 0 1 0 17.47 0 a 8.74 8.74 0 1 0 -17.47 0 Z" fill="none" stroke="hsl(101 55% 38%)" stroke-width="1.6" stroke-linejoin="round"/><path d="M 253.22 168.75 a 8.74 8.74 0 1 0 17.47 0 a 8.74 8.74 0 1 0 -17.47 0 Z" fill="none" stroke="hsl(101 55% 38%)" stroke-width="1.6" stroke-linejoin="round"/><path d="M 291.26 165 a 8.74 8.74 0 1 0 17.47 0 a 8.74 8.74 0 1 0 -17.47 0 Z" fill="none" stroke="hsl(101 55% 38%)" stroke-width="1.6" stroke-linejoin="round"/><path d="M 329.31 168.75 a 8.74 8.74 0 1 0 17.47 0 a 8.74 8.74 0 1 0 -17.47 0 Z" fill="none" stroke="hsl(101 55% 38%)" stroke-width="1.6" stroke-linejoin="round"/><path d="M 365.89 179.84 a 8.74 8.74 0 1 0 17.47 0 a 8.74 8.74 0 1 0 -17.47 0 Z" fill="none" stroke="hsl(101 55% 38%)" stroke-width="1.6" stroke-linejoin="round"/><path d="M 399.6 197.86 a 8.74 8.74 0 1 0 17.47 0 a 8.74 8.74 0 1 0 -17.47 0 Z" fill="none" stroke="hsl(101 55% 38%)" stroke-width="1.6" stroke-linejoin="round"/><path d="M 429.15 222.11 a 8.74 8.74 0 1 0 17.47 0 a 8.74 8.74 0 1 0 -17.47 0 Z" fill="none" stroke="hsl(101 55% 38%)" stroke-width="1.6" stroke-linejoin="round"/><path d="M 453.4 251.66 a 8.74 8.74 0 1 0 17.47 0 a 8.74 8.74 0 1 0 -17.47 0 Z" fill="none" stroke="hsl(101 55% 38%)" stroke-width="1.6" stroke-linejoin="round"/><path d="M 471.42 285.38 a 8.74 8.74 0 1 0 17.47 0 a 8.74 8.74 0 1 0 -17.47 0 Z" fill="none" stroke="hsl(101 55% 38%)" stroke-width="1.6" stroke-linejoin="round"/><path d="M 482.52 321.96 a 8.74 8.74 0 1 0 17.47 0 a 8.74 8.74 0 1 0 -17.47 0 Z" fill="none" stroke="hsl(101 55% 38%)" stroke-width="1.6" stroke-linejoin="round"/><path d="M 105 360 a 195 195 0 1 0 390 0 a 195 195 0 1 0 -390 0 Z" fill="none" stroke="hsl(101 55% 38%)" stroke-width="1.6" stroke-linejoin="round"/></g>
  <g transform="translate(300,640)">
    <rect x="-110" y="-26" width="220" height="34" rx="17" fill="#ffffff" opacity="0.8"/>
    <text x="0" y="-3" text-anchor="middle" font-family="Quicksand, Arial, sans-serif" font-size="16" font-weight="600" fill="hsl(101 55% 38%)">🧘 Achtsamkeit &amp; Zitate</text>
  </g>
  <text x="300" y="700" text-anchor="middle" font-family="Quicksand, Arial, sans-serif" font-size="40" font-weight="700" fill="#2b2540"><tspan x="300" dy="0">Achtsamkeit &amp;</tspan><tspan x="300" dy="44">Zitate – Vol. 1</tspan></text>
  <text x="300" y="772" text-anchor="middle" font-family="Arial, sans-serif" font-size="15" fill="#5b5470">Malbuch · 30 Seiten</text>
</svg>