<svg xmlns="http://www.w3.org/2000/svg" viewBox="0 0 600 800" width="600" height="800">
  <defs>
    <linearGradient id="bg" x1="0" y1="0" x2="0" y2="1">
      <stop offset="0" stop-color="hsl(101 70% 95%)"/><stop offset="1" stop-color="hsl(141 70% 92%)"/>
    </linearGradient>
  </defs>
  <rect width="600" height="800" fill="url(#bg)"/>
  <rect x="22" y="22" width="556" height="756" rx="28" fill="none" stroke="hsl(101 55% 38%)" stroke-width="2" opacity="0.5"/>
  <text x="300" y="74" text-anchor="middle" font-family="Quicksand, Arial, sans-serif" font-size="26" font-weight="700" fill="hsl(101 55% 38%)">&#10022; Coloreo</text>
  <g transform="translate(0,40)"><path d="M 323.4 360 Q 335.17 372.84 349.14 360 Q 335.17 347.16 323.4 360 Z" fill="none" stroke="hsl(101 55% 38%)" stroke-width="1.6" stroke-linejoin="round"/><path d="M 321.62 368.95 Q 327.58 385.32 345.4 378.81 Q 337.41 361.6 321.62 368.95 Z" fill="none" stroke="hsl(101 55% 38%)" stroke-width="1.6" stroke-linejoin="round"/><path d="M 316.55 376.55 Q 315.79 393.95 334.75 394.75 Q 333.95 375.79 316.55 376.55 Z" fill="none" stroke="hsl(101 55% 38%)" stroke-width="1.6" stroke-linejoin="round"/><path d="M 308.95 381.62 Q 301.6 397.41 318.81 405.4 Q 325.32 387.58 308.95 381.62 Z" fill="none" stroke="hsl(101 55% 38%)" stroke-width="1.6" stroke-linejoin="round"/><path d="M 300 383.4 Q 287.16 395.17 300 409.14 Q 312.84 395.17 300 383.4 Z" fill="none" stroke="hsl(101 55% 38%)" stroke-width="1.6" stroke-linejoin="round"/><path d="M 291.05 381.62 Q 274.68 387.58 281.19 405.4 Q 298.4 397.41 291.05 381.62 Z" fill="none" stroke="hsl(101 55% 38%)" stroke-width="1.6" stroke-linejoin="round"/><path d="M 283.45 376.55 Q 266.05 375.79 265.25 394.75 Q 284.21 393.95 283.45 376.55 Z" fill="none" stroke="hsl(101 55% 38%)" stroke-width="1.6" stroke-linejoin="round"/><path d="M 278.38 368.95 Q 262.59 361.6 254.6 378.81 Q 272.42 385.32 278.38 368.95 Z" fill="none" stroke="hsl(101 55% 38%)" stroke-width="1.6" stroke-linejoin="round"/><path d="M 276.6 360 Q 264.83 347.16 250.86 360 Q 264.83 372.84 276.6 360 Z" fill="none" stroke="hsl(101 55% 38%)" stroke-width="1.6" stroke-linejoin="round"/><path d="M 278.38 351.05 Q 272.42 334.68 254.6 341.19 Q 262.59 358.4 278.38 351.05 Z" fill="none" stroke="hsl(101 55% 38%)" stroke-width="1.6" stroke-linejoin="round"/><path d="M 283.45 343.45 Q 284.21 326.05 265.25 325.25 Q 266.05 344.21 283.45 343.45 Z" fill="none" stroke="hsl(101 55% 38%)" stroke-width="1.6" stroke-linejoin="round"/><path d="M 291.05 338.38 Q 298.4 322.59 281.19 314.6 Q 274.68 332.42 291.05 338.38 Z" fill="none" stroke="hsl(101 55% 38%)" stroke-width="1.6" stroke-linejoin="round"/><path d="M 300 336.6 Q 312.84 324.83 300 310.86 Q 287.16 324.83 300 336.6 Z" fill="none" stroke="hsl(101 55% 38%)" stroke-width="1.6" stroke-linejoin="round"/><path d="M 308.95 338.38 Q 325.32 332.42 318.81 314.6 Q 301.6 322.59 308.95 338.38 Z" fill="none" stroke="hsl(101 55% 38%)" stroke-width="1.6" stroke-linejoin="round"/><path d="M 316.55 343.45 Q 333.95 344.21 334.75 325.25 Q 315.79 326.05 316.55 343.45 Z" fill="none" stroke="hsl(101 55% 38%)" stroke-width="1.6" stroke-linejoin="round"/><path d="M 321.62 351.05 Q 337.41 358.4 345.4 341.19 Q 327.58 334.68 321.62 351.05 Z" fill="none" stroke="hsl(101 55% 38%)" stroke-width="1.6" stroke-linejoin="round"/><path d="M 300 345.96 C 307.75 345.96 314.04 352.25 314.04 360 C 314.04 367.75 307.75 374.04 300 374.04 C 292.25 374.04 285.96 367.75 285.96 360 C 285.96 352.25 292.25 345.96 300 345.96 Z" fill="none" stroke="hsl(101 55% 38%)" stroke-width="1.6" stroke-linejoin="round"/><path d="M 300 282 C 343.08 282 378 316.92 378 360 C 378 403.08 343.08 438 300 438 C 256.92 438 222 403.08 222 360 C 222 316.92 256.92 282 300 282 Z" fill="none" stroke="hsl(101 55% 38%)" stroke-width="1.6" stroke-linejoin="round"/><path d="M 376.5 375.22 L 397.92 379.48" fill="none" stroke="hsl(101 55% 38%)" stroke-width="1.6" stroke-linejoin="round"/><path d="M 364.85 403.33 L 383.01 415.47" fill="none" stroke="hsl(101 55% 38%)" stroke-width="1.6" stroke-linejoin="round"/><path d="M 343.33 424.85 L 355.47 443.01" fill="none" stroke="hsl(101 55% 38%)" stroke-width="1.6" stroke-linejoin="round"/><path d="M 315.22 436.5 L 319.48 457.92" fill="none" stroke="hsl(101 55% 38%)" stroke-width="1.6" stroke-linejoin="round"/><path d="M 284.78 436.5 L 280.52 457.92" fill="none" stroke="hsl(101 55% 38%)" stroke-width="1.6" stroke-linejoin="round"/><path d="M 256.67 424.85 L 244.53 443.01" fill="none" stroke="hsl(101 55% 38%)" stroke-width="1.6" stroke-linejoin="round"/><path d="M 235.15 403.33 L 216.99 415.47" fill="none" stroke="hsl(101 55% 38%)" stroke-width="1.6" stroke-linejoin="round"/><path d="M 223.5 375.22 L 202.08 379.48" fill="none" stroke="hsl(101 55% 38%)" stroke-width="1.6" stroke-linejoin="round"/><path d="M 223.5 344.78 L 202.08 340.52" fill="none" stroke="hsl(101 55% 38%)" stroke-width="1.6" stroke-linejoin="round"/><path d="M 235.15 316.67 L 216.99 304.53" fill="none" stroke="hsl(101 55% 38%)" stroke-width="1.6" stroke-linejoin="round"/><path d="M 256.67 295.15 L 244.53 276.99" fill="none" stroke="hsl(101 55% 38%)" stroke-width="1.6" stroke-linejoin="round"/><path d="M 284.78 283.5 L 280.52 262.08" fill="none" stroke="hsl(101 55% 38%)" stroke-width="1.6" stroke-linejoin="round"/><path d="M 315.22 283.5 L 319.48 262.08" fill="none" stroke="hsl(101 55% 38%)" stroke-width="1.6" stroke-linejoin="round"/><path d="M 343.33 295.15 L 355.47 276.99" fill="none" stroke="hsl(101 55% 38%)" stroke-width="1.6" stroke-linejoin="round"/><path d="M 364.85 316.67 L 383.01 304.53" fill="none" stroke="hsl(101 55% 38%)" stroke-width="1.6" stroke-linejoin="round"/><path d="M 376.5 344.78 L 397.92 340.52" fill="none" stroke="hsl(101 55% 38%)" stroke-width="1.6" stroke-linejoin="round"/><path d="M 300 243 C 364.62 243 417 295.38 417 360 C 417 424.62 364.62 477 300 477 C 235.38 477 183 424.62 183 360 C 183 295.38 235.38 243 300 243 Z" fill="none" stroke="hsl(101 55% 38%)" stroke-width="1.6" stroke-linejoin="round"/><path d="M 417 351.26 C 421.82 351.26 425.74 355.18 425.74 360 C 425.74 364.82 421.82 368.74 417 368.74 C 412.18 368.74 408.26 364.82 408.26 360 C 408.26 355.18 412.18 351.26 417 351.26 Z" fill="none" stroke="hsl(101 55% 38%)" stroke-width="1.6" stroke-linejoin="round"/><path d="M 414.75 374.09 C 419.58 374.09 423.49 378 423.49 382.83 C 423.49 387.65 419.58 391.56 414.75 391.56 C 409.93 391.56 406.02 387.65 406.02 382.83 C 406.02 378 409.93 374.09 414.75 374.09 Z" fill="none" stroke="hsl(101 55% 38%)" stroke-width="1.6" stroke-linejoin="round"/><path d="M 408.09 396.04 C 412.92 396.04 416.83 399.95 416.83 404.77 C 416.83 409.6 412.92 413.51 408.09 413.51 C 403.27 413.51 399.36 409.6 399.36 404.77 C 399.36 399.95 403.27 396.04 408.09 396.04 Z" fill="none" stroke="hsl(101 55% 38%)" stroke-width="1.6" stroke-linejoin="round"/><path d="M 397.28 416.27 C 402.11 416.27 406.02 420.18 406.02 425 C 406.02 429.83 402.11 433.74 397.28 433.74 C 392.46 433.74 388.55 429.83 388.55 425 C 388.55 420.18 392.46 416.27 397.28 416.27 Z" fill="none" stroke="hsl(101 55% 38%)" stroke-width="1.6" stroke-linejoin="round"/><path d="M 382.73 434 C 387.56 434 391.47 437.91 391.47 442.73 C 391.47 447.56 387.56 451.47 382.73 451.47 C 377.91 451.47 374 447.56 374 442.73 C 374 437.91 377.91 434 382.73 434 Z" fill="none" stroke="hsl(101 55% 38%)" stroke-width="1.6" stroke-linejoin="round"/><path d="M 365 448.55 C 369.83 448.55 373.74 452.46 373.74 457.28 C 373.74 462.11 369.83 466.02 365 466.02 C 360.18 466.02 356.27 462.11 356.27 457.28 C 356.27 452.46 360.18 448.55 365 448.55 Z" fill="none" stroke="hsl(101 55% 38%)" stroke-width="1.6" stroke-linejoin="round"/><path d="M 344.77 459.36 C 349.6 459.36 353.51 463.27 353.51 468.09 C 353.51 472.92 349.6 476.83 344.77 476.83 C 339.95 476.83 336.04 472.92 336.04 468.09 C 336.04 463.27 339.95 459.36 344.77 459.36 Z" fill="none" stroke="hsl(101 55% 38%)" stroke-width="1.6" stroke-linejoin="round"/><path d="M 322.83 466.02 C 327.65 466.02 331.56 469.93 331.56 474.75 C 331.56 479.58 327.65 483.49 322.83 483.49 C 318 483.49 314.09 479.58 314.09 474.75 C 314.09 469.93 318 466.02 322.83 466.02 Z" fill="none" stroke="hsl(101 55% 38%)" stroke-width="1.6" stroke-linejoin="round"/><path d="M 300 468.26 C 304.82 468.26 308.74 472.18 308.74 477 C 308.74 481.82 304.82 485.74 300 485.74 C 295.18 485.74 291.26 481.82 291.26 477 C 291.26 472.18 295.18 468.26 300 468.26 Z" fill="none" stroke="hsl(101 55% 38%)" stroke-width="1.6" stroke-linejoin="round"/><path d="M 277.17 466.02 C 282 466.02 285.91 469.93 285.91 474.75 C 285.91 479.58 282 483.49 277.17 483.49 C 272.35 483.49 268.44 479.58 268.44 474.75 C 268.44 469.93 272.35 466.02 277.17 466.02 Z" fill="none" stroke="hsl(101 55% 38%)" stroke-width="1.6" stroke-linejoin="round"/><path d="M 255.23 459.36 C 260.05 459.36 263.96 463.27 263.96 468.09 C 263.96 472.92 260.05 476.83 255.23 476.83 C 250.4 476.83 246.49 472.92 246.49 468.09 C 246.49 463.27 250.4 459.36 255.23 459.36 Z" fill="none" stroke="hsl(101 55% 38%)" stroke-width="1.6" stroke-linejoin="round"/><path d="M 235 448.55 C 239.82 448.55 243.73 452.46 243.73 457.28 C 243.73 462.11 239.82 466.02 235 466.02 C 230.17 466.02 226.26 462.11 226.26 457.28 C 226.26 452.46 230.17 448.55 235 448.55 Z" fill="none" stroke="hsl(101 55% 38%)" stroke-width="1.6" stroke-linejoin="round"/><path d="M 217.27 434 C 222.09 434 226 437.91 226 442.73 C 226 447.56 222.09 451.47 217.27 451.47 C 212.44 451.47 208.53 447.56 208.53 442.73 C 208.53 437.91 212.44 434 217.27 434 Z" fill="none" stroke="hsl(101 55% 38%)" stroke-width="1.6" stroke-linejoin="round"/><path d="M 202.72 416.27 C 207.54 416.27 211.45 420.18 211.45 425 C 211.45 429.83 207.54 433.74 202.72 433.74 C 197.89 433.74 193.98 429.83 193.98 425 C 193.98 420.18 197.89 416.27 202.72 416.27 Z" fill="none" stroke="hsl(101 55% 38%)" stroke-width="1.6" stroke-linejoin="round"/><path d="M 191.91 396.04 C 196.73 396.04 200.64 399.95 200.64 404.77 C 200.64 409.6 196.73 413.51 191.91 413.51 C 187.08 413.51 183.17 409.6 183.17 404.77 C 183.17 399.95 187.08 396.04 191.91 396.04 Z" fill="none" stroke="hsl(101 55% 38%)" stroke-width="1.6" stroke-linejoin="round"/><path d="M 185.25 374.09 C 190.07 374.09 193.98 378 193.98 382.83 C 193.98 387.65 190.07 391.56 185.25 391.56 C 180.42 391.56 176.51 387.65 176.51 382.83 C 176.51 378 180.42 374.09 185.25 374.09 Z" fill="none" stroke="hsl(101 55% 38%)" stroke-width="1.6" stroke-linejoin="round"/><path d="M 183 351.26 C 187.82 351.26 191.74 355.18 191.74 360 C 191.74 364.82 187.82 368.74 183 368.74 C 178.18 368.74 174.26 364.82 174.26 360 C 174.26 355.18 178.18 351.26 183 351.26 Z" fill="none" stroke="hsl(101 55% 38%)" stroke-width="1.6" stroke-linejoin="round"/><path d="M 185.25 328.44 C 190.07 328.44 193.98 332.35 193.98 337.17 C 193.98 342 190.07 345.91 185.25 345.91 C 180.42 345.91 176.51 342 176.51 337.17 C 176.51 332.35 180.42 328.44 185.25 328.44 Z" fill="none" stroke="hsl(101 55% 38%)" stroke-width="1.6" stroke-linejoin="round"/><path d="M 191.91 306.49 C 196.73 306.49 200.64 310.4 200.64 315.23 C 200.64 320.05 196.73 323.96 191.91 323.96 C 187.08 323.96 183.17 320.05 183.17 315.23 C 183.17 310.4 187.08 306.49 191.91 306.49 Z" fill="none" stroke="hsl(101 55% 38%)" stroke-width="1.6" stroke-linejoin="round"/><path d="M 202.72 286.26 C 207.54 286.26 211.45 290.17 211.45 295 C 211.45 299.82 207.54 303.73 202.72 303.73 C 197.89 303.73 193.98 299.82 193.98 295 C 193.98 290.17 197.89 286.26 202.72 286.26 Z" fill="none" stroke="hsl(101 55% 38%)" stroke-width="1.6" stroke-linejoin="round"/><path d="M 217.27 268.53 C 222.09 268.53 226 272.44 226 277.27 C 226 282.09 222.09 286 217.27 286 C 212.44 286 208.53 282.09 208.53 277.27 C 208.53 272.44 212.44 268.53 217.27 268.53 Z" fill="none" stroke="hsl(101 55% 38%)" stroke-width="1.6" stroke-linejoin="round"/><path d="M 235 253.98 C 239.82 253.98 243.73 257.89 243.73 262.72 C 243.73 267.54 239.82 271.45 235 271.45 C 230.17 271.45 226.26 267.54 226.26 262.72 C 226.26 257.89 230.17 253.98 235 253.98 Z" fill="none" stroke="hsl(101 55% 38%)" stroke-width="1.6" stroke-linejoin="round"/><path d="M 255.23 243.17 C 260.05 243.17 263.96 247.08 263.96 251.91 C 263.96 256.73 260.05 260.64 255.23 260.64 C 250.4 260.64 246.49 256.73 246.49 251.91 C 246.49 247.08 250.4 243.17 255.23 243.17 Z" fill="none" stroke="hsl(101 55% 38%)" stroke-width="1.6" stroke-linejoin="round"/><path d="M 277.17 236.51 C 282 236.51 285.91 240.42 285.91 245.25 C 285.91 250.07 282 253.98 277.17 253.98 C 272.35 253.98 268.44 250.07 268.44 245.25 C 268.44 240.42 272.35 236.51 277.17 236.51 Z" fill="none" stroke="hsl(101 55% 38%)" stroke-width="1.6" stroke-linejoin="round"/><path d="M 300 234.26 C 304.82 234.26 308.74 238.18 308.74 243 C 308.74 247.82 304.82 251.74 300 251.74 C 295.18 251.74 291.26 247.82 291.26 243 C 291.26 238.18 295.18 234.26 300 234.26 Z" fill="none" stroke="hsl(101 55% 38%)" stroke-width="1.6" stroke-linejoin="round"/><path d="M 322.83 236.51 C 327.65 236.51 331.56 240.42 331.56 245.25 C 331.56 250.07 327.65 253.98 322.83 253.98 C 318 253.98 314.09 250.07 314.09 245.25 C 314.09 240.42 318 236.51 322.83 236.51 Z" fill="none" stroke="hsl(101 55% 38%)" stroke-width="1.6" stroke-linejoin="round"/><path d="M 344.77 243.17 C 349.6 243.17 353.51 247.08 353.51 251.91 C 353.51 256.73 349.6 260.64 344.77 260.64 C 339.95 260.64 336.04 256.73 336.04 251.91 C 336.04 247.08 339.95 243.17 344.77 243.17 Z" fill="none" stroke="hsl(101 55% 38%)" stroke-width="1.6" stroke-linejoin="round"/><path d="M 365 253.98 C 369.83 253.98 373.74 257.89 373.74 262.72 C 373.74 267.54 369.83 271.45 365 271.45 C 360.18 271.45 356.27 267.54 356.27 262.72 C 356.27 257.89 360.18 253.98 365 253.98 Z" fill="none" stroke="hsl(101 55% 38%)" stroke-width="1.6" stroke-linejoin="round"/><path d="M 382.73 268.53 C 387.56 268.53 391.47 272.44 391.47 277.27 C 391.47 282.09 387.56 286 382.73 286 C 377.91 286 374 282.09 374 277.27 C 374 272.44 377.91 268.53 382.73 268.53 Z" fill="none" stroke="hsl(101 55% 38%)" stroke-width="1.6" stroke-linejoin="round"/><path d="M 397.28 286.26 C 402.11 286.26 406.02 290.17 406.02 295 C 406.02 299.82 402.11 303.73 397.28 303.73 C 392.46 303.73 388.55 299.82 388.55 295 C 388.55 290.17 392.46 286.26 397.28 286.26 Z" fill="none" stroke="hsl(101 55% 38%)" stroke-width="1.6" stroke-linejoin="round"/><path d="M 408.09 306.49 C 412.92 306.49 416.83 310.4 416.83 315.23 C 416.83 320.05 412.92 323.96 408.09 323.96 C 403.27 323.96 399.36 320.05 399.36 315.23 C 399.36 310.4 403.27 306.49 408.09 306.49 Z" fill="none" stroke="hsl(101 55% 38%)" stroke-width="1.6" stroke-linejoin="round"/><path d="M 414.75 328.44 C 419.58 328.44 423.49 332.35 423.49 337.17 C 423.49 342 419.58 345.91 414.75 345.91 C 409.93 345.91 406.02 342 406.02 337.17 C 406.02 332.35 409.93 328.44 414.75 328.44 Z" fill="none" stroke="hsl(101 55% 38%)" stroke-width="1.6" stroke-linejoin="round"/><path d="M 300 204 C 386.16 204 456 273.84 456 360 C 456 446.16 386.16 516 300 516 C 213.84 516 144 446.16 144 360 C 144 273.84 213.84 204 300 204 Z" fill="none" stroke="hsl(101 55% 38%)" stroke-width="1.6" stroke-linejoin="round"/><path d="M 453 390.43 Q 459.59 423.07 483.6 396.52 Q 471.58 362.81 453 390.43 Z" fill="none" stroke="hsl(101 55% 38%)" stroke-width="1.6" stroke-linejoin="round"/><path d="M 429.71 446.67 Q 423.31 479.34 455.65 464 Q 457.44 428.25 429.71 446.67 Z" fill="none" stroke="hsl(101 55% 38%)" stroke-width="1.6" stroke-linejoin="round"/><path d="M 386.67 489.71 Q 368.25 517.44 404 515.65 Q 419.34 483.31 386.67 489.71 Z" fill="none" stroke="hsl(101 55% 38%)" stroke-width="1.6" stroke-linejoin="round"/><path d="M 330.43 513 Q 302.81 531.58 336.52 543.6 Q 363.07 519.59 330.43 513 Z" fill="none" stroke="hsl(101 55% 38%)" stroke-width="1.6" stroke-linejoin="round"/><path d="M 269.57 513 Q 236.93 519.59 263.48 543.6 Q 297.19 531.58 269.57 513 Z" fill="none" stroke="hsl(101 55% 38%)" stroke-width="1.6" stroke-linejoin="round"/><path d="M 213.33 489.71 Q 180.66 483.31 196 515.65 Q 231.75 517.44 213.33 489.71 Z" fill="none" stroke="hsl(101 55% 38%)" stroke-width="1.6" stroke-linejoin="round"/><path d="M 170.29 446.67 Q 142.56 428.25 144.35 464 Q 176.69 479.34 170.29 446.67 Z" fill="none" stroke="hsl(101 55% 38%)" stroke-width="1.6" stroke-linejoin="round"/><path d="M 147 390.43 Q 128.42 362.81 116.4 396.52 Q 140.41 423.07 147 390.43 Z" fill="none" stroke="hsl(101 55% 38%)" stroke-width="1.6" stroke-linejoin="round"/><path d="M 147 329.57 Q 140.41 296.93 116.4 323.48 Q 128.42 357.19 147 329.57 Z" fill="none" stroke="hsl(101 55% 38%)" stroke-width="1.6" stroke-linejoin="round"/><path d="M 170.29 273.33 Q 176.69 240.66 144.35 256 Q 142.56 291.75 170.29 273.33 Z" fill="none" stroke="hsl(101 55% 38%)" stroke-width="1.6" stroke-linejoin="round"/><path d="M 213.33 230.29 Q 231.75 202.56 196 204.35 Q 180.66 236.69 213.33 230.29 Z" fill="none" stroke="hsl(101 55% 38%)" stroke-width="1.6" stroke-linejoin="round"/><path d="M 269.57 207 Q 297.19 188.42 263.48 176.4 Q 236.93 200.41 269.57 207 Z" fill="none" stroke="hsl(101 55% 38%)" stroke-width="1.6" stroke-linejoin="round"/><path d="M 330.43 207 Q 363.07 200.41 336.52 176.4 Q 302.81 188.42 330.43 207 Z" fill="none" stroke="hsl(101 55% 38%)" stroke-width="1.6" stroke-linejoin="round"/><path d="M 386.67 230.29 Q 419.34 236.69 404 204.35 Q 368.25 202.56 386.67 230.29 Z" fill="none" stroke="hsl(101 55% 38%)" stroke-width="1.6" stroke-linejoin="round"/><path d="M 429.71 273.33 Q 457.44 291.75 455.65 256 Q 423.31 240.66 429.71 273.33 Z" fill="none" stroke="hsl(101 55% 38%)" stroke-width="1.6" stroke-linejoin="round"/><path d="M 453 329.57 Q 471.58 357.19 483.6 323.48 Q 459.59 296.93 453 329.57 Z" fill="none" stroke="hsl(101 55% 38%)" stroke-width="1.6" stroke-linejoin="round"/><path d="M 300 165 C 407.7 165 495 252.3 495 360 C 495 467.7 407.7 555 300 555 C 192.3 555 105 467.7 105 360 C 105 252.3 192.3 165 300 165 Z" fill="none" stroke="hsl(101 55% 38%)" stroke-width="1.6" stroke-linejoin="round"/><path d="M 495 351.26 C 499.82 351.26 503.74 355.18 503.74 360 C 503.74 364.82 499.82 368.74 495 368.74 C 490.18 368.74 486.26 364.82 486.26 360 C 486.26 355.18 490.18 351.26 495 351.26 Z" fill="none" stroke="hsl(101 55% 38%)" stroke-width="1.6" stroke-linejoin="round"/><path d="M 491.25 389.31 C 496.08 389.31 499.99 393.22 499.99 398.04 C 499.99 402.87 496.08 406.78 491.25 406.78 C 486.43 406.78 482.52 402.87 482.52 398.04 C 482.52 393.22 486.43 389.31 491.25 389.31 Z" fill="none" stroke="hsl(101 55% 38%)" stroke-width="1.6" stroke-linejoin="round"/><path d="M 480.16 425.89 C 484.98 425.89 488.89 429.8 488.89 434.62 C 488.89 439.45 484.98 443.36 480.16 443.36 C 475.33 443.36 471.42 439.45 471.42 434.62 C 471.42 429.8 475.33 425.89 480.16 425.89 Z" fill="none" stroke="hsl(101 55% 38%)" stroke-width="1.6" stroke-linejoin="round"/><path d="M 462.14 459.6 C 466.96 459.6 470.87 463.51 470.87 468.34 C 470.87 473.16 466.96 477.07 462.14 477.07 C 457.31 477.07 453.4 473.16 453.4 468.34 C 453.4 463.51 457.31 459.6 462.14 459.6 Z" fill="none" stroke="hsl(101 55% 38%)" stroke-width="1.6" stroke-linejoin="round"/><path d="M 437.89 489.15 C 442.71 489.15 446.62 493.06 446.62 497.89 C 446.62 502.71 442.71 506.62 437.89 506.62 C 433.06 506.62 429.15 502.71 429.15 497.89 C 429.15 493.06 433.06 489.15 437.89 489.15 Z" fill="none" stroke="hsl(101 55% 38%)" stroke-width="1.6" stroke-linejoin="round"/><path d="M 408.34 513.4 C 413.16 513.4 417.07 517.31 417.07 522.14 C 417.07 526.96 413.16 530.87 408.34 530.87 C 403.51 530.87 399.6 526.96 399.6 522.14 C 399.6 517.31 403.51 513.4 408.34 513.4 Z" fill="none" stroke="hsl(101 55% 38%)" stroke-width="1.6" stroke-linejoin="round"/><path d="M 374.62 531.42 C 379.45 531.42 383.36 535.33 383.36 540.16 C 383.36 544.98 379.45 548.89 374.62 548.89 C 369.8 548.89 365.89 544.98 365.89 540.16 C 365.89 535.33 369.8 531.42 374.62 531.42 Z" fill="none" stroke="hsl(101 55% 38%)" stroke-width="1.6" stroke-linejoin="round"/><path d="M 338.04 542.52 C 342.87 542.52 346.78 546.43 346.78 551.25 C 346.78 556.08 342.87 559.99 338.04 559.99 C 333.22 559.99 329.31 556.08 329.31 551.25 C 329.31 546.43 333.22 542.52 338.04 542.52 Z" fill="none" stroke="hsl(101 55% 38%)" stroke-width="1.6" stroke-linejoin="round"/><path d="M 300 546.26 C 304.82 546.26 308.74 550.18 308.74 555 C 308.74 559.82 304.82 563.74 300 563.74 C 295.18 563.74 291.26 559.82 291.26 555 C 291.26 550.18 295.18 546.26 300 546.26 Z" fill="none" stroke="hsl(101 55% 38%)" stroke-width="1.6" stroke-linejoin="round"/><path d="M 261.96 542.52 C 266.78 542.52 270.69 546.43 270.69 551.25 C 270.69 556.08 266.78 559.99 261.96 559.99 C 257.13 559.99 253.22 556.08 253.22 551.25 C 253.22 546.43 257.13 542.52 261.96 542.52 Z" fill="none" stroke="hsl(101 55% 38%)" stroke-width="1.6" stroke-linejoin="round"/><path d="M 225.38 531.42 C 230.2 531.42 234.11 535.33 234.11 540.16 C 234.11 544.98 230.2 548.89 225.38 548.89 C 220.55 548.89 216.64 544.98 216.64 540.16 C 216.64 535.33 220.55 531.42 225.38 531.42 Z" fill="none" stroke="hsl(101 55% 38%)" stroke-width="1.6" stroke-linejoin="round"/><path d="M 191.66 513.4 C 196.49 513.4 200.4 517.31 200.4 522.14 C 200.4 526.96 196.49 530.87 191.66 530.87 C 186.84 530.87 182.93 526.96 182.93 522.14 C 182.93 517.31 186.84 513.4 191.66 513.4 Z" fill="none" stroke="hsl(101 55% 38%)" stroke-width="1.6" stroke-linejoin="round"/><path d="M 162.11 489.15 C 166.94 489.15 170.85 493.06 170.85 497.89 C 170.85 502.71 166.94 506.62 162.11 506.62 C 157.29 506.62 153.38 502.71 153.38 497.89 C 153.38 493.06 157.29 489.15 162.11 489.15 Z" fill="none" stroke="hsl(101 55% 38%)" stroke-width="1.6" stroke-linejoin="round"/><path d="M 137.86 459.6 C 142.69 459.6 146.6 463.51 146.6 468.34 C 146.6 473.16 142.69 477.07 137.86 477.07 C 133.04 477.07 129.13 473.16 129.13 468.34 C 129.13 463.51 133.04 459.6 137.86 459.6 Z" fill="none" stroke="hsl(101 55% 38%)" stroke-width="1.6" stroke-linejoin="round"/><path d="M 119.84 425.89 C 124.67 425.89 128.58 429.8 128.58 434.62 C 128.58 439.45 124.67 443.36 119.84 443.36 C 115.02 443.36 111.11 439.45 111.11 434.62 C 111.11 429.8 115.02 425.89 119.84 425.89 Z" fill="none" stroke="hsl(101 55% 38%)" stroke-width="1.6" stroke-linejoin="round"/><path d="M 108.75 389.31 C 113.57 389.31 117.48 393.22 117.48 398.04 C 117.48 402.87 113.57 406.78 108.75 406.78 C 103.92 406.78 100.01 402.87 100.01 398.04 C 100.01 393.22 103.92 389.31 108.75 389.31 Z" fill="none" stroke="hsl(101 55% 38%)" stroke-width="1.6" stroke-linejoin="round"/><path d="M 105 351.26 C 109.82 351.26 113.74 355.18 113.74 360 C 113.74 364.82 109.82 368.74 105 368.74 C 100.18 368.74 96.26 364.82 96.26 360 C 96.26 355.18 100.18 351.26 105 351.26 Z" fill="none" stroke="hsl(101 55% 38%)" stroke-width="1.6" stroke-linejoin="round"/><path d="M 108.75 313.22 C 113.57 313.22 117.48 317.13 117.48 321.96 C 117.48 326.78 113.57 330.69 108.75 330.69 C 103.92 330.69 100.01 326.78 100.01 321.96 C 100.01 317.13 103.92 313.22 108.75 313.22 Z" fill="none" stroke="hsl(101 55% 38%)" stroke-width="1.6" stroke-linejoin="round"/><path d="M 119.84 276.64 C 124.67 276.64 128.58 280.55 128.58 285.38 C 128.58 290.2 124.67 294.11 119.84 294.11 C 115.02 294.11 111.11 290.2 111.11 285.38 C 111.11 280.55 115.02 276.64 119.84 276.64 Z" fill="none" stroke="hsl(101 55% 38%)" stroke-width="1.6" stroke-linejoin="round"/><path d="M 137.86 242.93 C 142.69 242.93 146.6 246.84 146.6 251.66 C 146.6 256.49 142.69 260.4 137.86 260.4 C 133.04 260.4 129.13 256.49 129.13 251.66 C 129.13 246.84 133.04 242.93 137.86 242.93 Z" fill="none" stroke="hsl(101 55% 38%)" stroke-width="1.6" stroke-linejoin="round"/><path d="M 162.11 213.38 C 166.94 213.38 170.85 217.29 170.85 222.11 C 170.85 226.94 166.94 230.85 162.11 230.85 C 157.29 230.85 153.38 226.94 153.38 222.11 C 153.38 217.29 157.29 213.38 162.11 213.38 Z" fill="none" stroke="hsl(101 55% 38%)" stroke-width="1.6" stroke-linejoin="round"/><path d="M 191.66 189.13 C 196.49 189.13 200.4 193.04 200.4 197.86 C 200.4 202.69 196.49 206.6 191.66 206.6 C 186.84 206.6 182.93 202.69 182.93 197.86 C 182.93 193.04 186.84 189.13 191.66 189.13 Z" fill="none" stroke="hsl(101 55% 38%)" stroke-width="1.6" stroke-linejoin="round"/><path d="M 225.38 171.11 C 230.2 171.11 234.11 175.02 234.11 179.84 C 234.11 184.67 230.2 188.58 225.38 188.58 C 220.55 188.58 216.64 184.67 216.64 179.84 C 216.64 175.02 220.55 171.11 225.38 171.11 Z" fill="none" stroke="hsl(101 55% 38%)" stroke-width="1.6" stroke-linejoin="round"/><path d="M 261.96 160.01 C 266.78 160.01 270.69 163.92 270.69 168.75 C 270.69 173.57 266.78 177.48 261.96 177.48 C 257.13 177.48 253.22 173.57 253.22 168.75 C 253.22 163.92 257.13 160.01 261.96 160.01 Z" fill="none" stroke="hsl(101 55% 38%)" stroke-width="1.6" stroke-linejoin="round"/><path d="M 300 156.26 C 304.82 156.26 308.74 160.18 308.74 165 C 308.74 169.82 304.82 173.74 300 173.74 C 295.18 173.74 291.26 169.82 291.26 165 C 291.26 160.18 295.18 156.26 300 156.26 Z" fill="none" stroke="hsl(101 55% 38%)" stroke-width="1.6" stroke-linejoin="round"/><path d="M 338.04 160.01 C 342.87 160.01 346.78 163.92 346.78 168.75 C 346.78 173.57 342.87 177.48 338.04 177.48 C 333.22 177.48 329.31 173.57 329.31 168.75 C 329.31 163.92 333.22 160.01 338.04 160.01 Z" fill="none" stroke="hsl(101 55% 38%)" stroke-width="1.6" stroke-linejoin="round"/><path d="M 374.62 171.11 C 379.45 171.11 383.36 175.02 383.36 179.84 C 383.36 184.67 379.45 188.58 374.62 188.58 C 369.8 188.58 365.89 184.67 365.89 179.84 C 365.89 175.02 369.8 171.11 374.62 171.11 Z" fill="none" stroke="hsl(101 55% 38%)" stroke-width="1.6" stroke-linejoin="round"/><path d="M 408.34 189.13 C 413.16 189.13 417.07 193.04 417.07 197.86 C 417.07 202.69 413.16 206.6 408.34 206.6 C 403.51 206.6 399.6 202.69 399.6 197.86 C 399.6 193.04 403.51 189.13 408.34 189.13 Z" fill="none" stroke="hsl(101 55% 38%)" stroke-width="1.6" stroke-linejoin="round"/><path d="M 437.89 213.38 C 442.71 213.38 446.62 217.29 446.62 222.11 C 446.62 226.94 442.71 230.85 437.89 230.85 C 433.06 230.85 429.15 226.94 429.15 222.11 C 429.15 217.29 433.06 213.38 437.89 213.38 Z" fill="none" stroke="hsl(101 55% 38%)" stroke-width="1.6" stroke-linejoin="round"/><path d="M 462.14 242.93 C 466.96 242.93 470.87 246.84 470.87 251.66 C 470.87 256.49 466.96 260.4 462.14 260.4 C 457.31 260.4 453.4 256.49 453.4 251.66 C 453.4 246.84 457.31 242.93 462.14 242.93 Z" fill="none" stroke="hsl(101 55% 38%)" stroke-width="1.6" stroke-linejoin="round"/><path d="M 480.16 276.64 C 484.98 276.64 488.89 280.55 488.89 285.38 C 488.89 290.2 484.98 294.11 480.16 294.11 C 475.33 294.11 471.42 290.2 471.42 285.38 C 471.42 280.55 475.33 276.64 480.16 276.64 Z" fill="none" stroke="hsl(101 55% 38%)" stroke-width="1.6" stroke-linejoin="round"/><path d="M 491.25 313.22 C 496.08 313.22 499.99 317.13 499.99 321.96 C 499.99 326.78 496.08 330.69 491.25 330.69 C 486.43 330.69 482.52 326.78 482.52 321.96 C 482.52 317.13 486.43 313.22 491.25 313.22 Z" fill="none" stroke="hsl(101 55% 38%)" stroke-width="1.6" stroke-linejoin="round"/><path d="M 300 165 C 407.7 165 495 252.3 495 360 C 495 467.7 407.7 555 300 555 C 192.3 555 105 467.7 105 360 C 105 252.3 192.3 165 300 165 Z" fill="none" stroke="hsl(101 55% 38%)" stroke-width="1.6" stroke-linejoin="round"/></g>
  <g transform="translate(300,640)">
    <rect x="-110" y="-26" width="220" height="34" rx="17" fill="#ffffff" opacity="0.8"/>
    <text x="0" y="-3" text-anchor="middle" font-family="Quicksand, Arial, sans-serif" font-size="16" font-weight="600" fill="hsl(101 55% 38%)">🧘 Achtsamkeit &amp; Zitate</text>
  </g>
  <text x="300" y="700" text-anchor="middle" font-family="Quicksand, Arial, sans-serif" font-size="40" font-weight="700" fill="#2b2540"><tspan x="300" dy="0">Achtsamkeit &amp;</tspan><tspan x="300" dy="44">Zitate – Vol. 1</tspan></text>
  <text x="300" y="772" text-anchor="middle" font-family="Arial, sans-serif" font-size="15" fill="#5b5470">Malbuch · 24 Seiten</text>
</svg>