<svg xmlns="http://www.w3.org/2000/svg" viewBox="0 0 600 800" width="600" height="800">
  <defs>
    <linearGradient id="bg" x1="0" y1="0" x2="0" y2="1">
      <stop offset="0" stop-color="hsl(101 70% 95%)"/><stop offset="1" stop-color="hsl(141 70% 92%)"/>
    </linearGradient>
  </defs>
  <rect width="600" height="800" fill="url(#bg)"/>
  <rect x="22" y="22" width="556" height="756" rx="28" fill="none" stroke="hsl(101 55% 38%)" stroke-width="2" opacity="0.5"/>
  <text x="300" y="74" text-anchor="middle" font-family="Quicksand, Arial, sans-serif" font-size="26" font-weight="700" fill="hsl(101 55% 38%)">&#10022; Coloreo</text>
  <g transform="translate(0,40)"><path d="M 323.4 360 Q 335.17 372.84 349.14 360 Q 335.17 347.16 323.4 360 Z" fill="none" stroke="hsl(101 55% 38%)" stroke-width="1.6" stroke-linejoin="round"/><path d="M 320.26 371.7 Q 324.04 388.7 342.56 384.57 Q 336.88 366.47 320.26 371.7 Z" fill="none" stroke="hsl(101 55% 38%)" stroke-width="1.6" stroke-linejoin="round"/><path d="M 311.7 380.26 Q 306.47 396.88 324.57 402.56 Q 328.7 384.04 311.7 380.26 Z" fill="none" stroke="hsl(101 55% 38%)" stroke-width="1.6" stroke-linejoin="round"/><path d="M 300 383.4 Q 287.16 395.17 300 409.14 Q 312.84 395.17 300 383.4 Z" fill="none" stroke="hsl(101 55% 38%)" stroke-width="1.6" stroke-linejoin="round"/><path d="M 288.3 380.26 Q 271.3 384.04 275.43 402.56 Q 293.53 396.88 288.3 380.26 Z" fill="none" stroke="hsl(101 55% 38%)" stroke-width="1.6" stroke-linejoin="round"/><path d="M 279.74 371.7 Q 263.12 366.47 257.44 384.57 Q 275.96 388.7 279.74 371.7 Z" fill="none" stroke="hsl(101 55% 38%)" stroke-width="1.6" stroke-linejoin="round"/><path d="M 276.6 360 Q 264.83 347.16 250.86 360 Q 264.83 372.84 276.6 360 Z" fill="none" stroke="hsl(101 55% 38%)" stroke-width="1.6" stroke-linejoin="round"/><path d="M 279.74 348.3 Q 275.96 331.3 257.44 335.43 Q 263.12 353.53 279.74 348.3 Z" fill="none" stroke="hsl(101 55% 38%)" stroke-width="1.6" stroke-linejoin="round"/><path d="M 288.3 339.74 Q 293.53 323.12 275.43 317.44 Q 271.3 335.96 288.3 339.74 Z" fill="none" stroke="hsl(101 55% 38%)" stroke-width="1.6" stroke-linejoin="round"/><path d="M 300 336.6 Q 312.84 324.83 300 310.86 Q 287.16 324.83 300 336.6 Z" fill="none" stroke="hsl(101 55% 38%)" stroke-width="1.6" stroke-linejoin="round"/><path d="M 311.7 339.74 Q 328.7 335.96 324.57 317.44 Q 306.47 323.12 311.7 339.74 Z" fill="none" stroke="hsl(101 55% 38%)" stroke-width="1.6" stroke-linejoin="round"/><path d="M 320.26 348.3 Q 336.88 353.53 342.56 335.43 Q 324.04 331.3 320.26 348.3 Z" fill="none" stroke="hsl(101 55% 38%)" stroke-width="1.6" stroke-linejoin="round"/><path d="M 300 345.96 C 307.75 345.96 314.04 352.25 314.04 360 C 314.04 367.75 307.75 374.04 300 374.04 C 292.25 374.04 285.96 367.75 285.96 360 C 285.96 352.25 292.25 345.96 300 345.96 Z" fill="none" stroke="hsl(101 55% 38%)" stroke-width="1.6" stroke-linejoin="round"/><path d="M 300 282 C 343.08 282 378 316.92 378 360 C 378 403.08 343.08 438 300 438 C 256.92 438 222 403.08 222 360 C 222 316.92 256.92 282 300 282 Z" fill="none" stroke="hsl(101 55% 38%)" stroke-width="1.6" stroke-linejoin="round"/><path d="M 375.34 371.45 C 380.17 371.45 384.08 375.36 384.08 380.19 C 384.08 385.01 380.17 388.92 375.34 388.92 C 370.52 388.92 366.61 385.01 366.61 380.19 C 366.61 375.36 370.52 371.45 375.34 371.45 Z" fill="none" stroke="hsl(101 55% 38%)" stroke-width="1.6" stroke-linejoin="round"/><path d="M 355.15 406.42 C 359.98 406.42 363.89 410.33 363.89 415.15 C 363.89 419.98 359.98 423.89 355.15 423.89 C 350.33 423.89 346.42 419.98 346.42 415.15 C 346.42 410.33 350.33 406.42 355.15 406.42 Z" fill="none" stroke="hsl(101 55% 38%)" stroke-width="1.6" stroke-linejoin="round"/><path d="M 320.19 426.61 C 325.01 426.61 328.92 430.52 328.92 435.34 C 328.92 440.17 325.01 444.08 320.19 444.08 C 315.36 444.08 311.45 440.17 311.45 435.34 C 311.45 430.52 315.36 426.61 320.19 426.61 Z" fill="none" stroke="hsl(101 55% 38%)" stroke-width="1.6" stroke-linejoin="round"/><path d="M 279.81 426.61 C 284.64 426.61 288.55 430.52 288.55 435.34 C 288.55 440.17 284.64 444.08 279.81 444.08 C 274.99 444.08 271.08 440.17 271.08 435.34 C 271.08 430.52 274.99 426.61 279.81 426.61 Z" fill="none" stroke="hsl(101 55% 38%)" stroke-width="1.6" stroke-linejoin="round"/><path d="M 244.85 406.42 C 249.67 406.42 253.58 410.33 253.58 415.15 C 253.58 419.98 249.67 423.89 244.85 423.89 C 240.02 423.89 236.11 419.98 236.11 415.15 C 236.11 410.33 240.02 406.42 244.85 406.42 Z" fill="none" stroke="hsl(101 55% 38%)" stroke-width="1.6" stroke-linejoin="round"/><path d="M 224.66 371.45 C 229.48 371.45 233.39 375.36 233.39 380.19 C 233.39 385.01 229.48 388.92 224.66 388.92 C 219.83 388.92 215.92 385.01 215.92 380.19 C 215.92 375.36 219.83 371.45 224.66 371.45 Z" fill="none" stroke="hsl(101 55% 38%)" stroke-width="1.6" stroke-linejoin="round"/><path d="M 224.66 331.08 C 229.48 331.08 233.39 334.99 233.39 339.81 C 233.39 344.64 229.48 348.55 224.66 348.55 C 219.83 348.55 215.92 344.64 215.92 339.81 C 215.92 334.99 219.83 331.08 224.66 331.08 Z" fill="none" stroke="hsl(101 55% 38%)" stroke-width="1.6" stroke-linejoin="round"/><path d="M 244.85 296.11 C 249.67 296.11 253.58 300.02 253.58 304.85 C 253.58 309.67 249.67 313.58 244.85 313.58 C 240.02 313.58 236.11 309.67 236.11 304.85 C 236.11 300.02 240.02 296.11 244.85 296.11 Z" fill="none" stroke="hsl(101 55% 38%)" stroke-width="1.6" stroke-linejoin="round"/><path d="M 279.81 275.92 C 284.64 275.92 288.55 279.83 288.55 284.66 C 288.55 289.48 284.64 293.39 279.81 293.39 C 274.99 293.39 271.08 289.48 271.08 284.66 C 271.08 279.83 274.99 275.92 279.81 275.92 Z" fill="none" stroke="hsl(101 55% 38%)" stroke-width="1.6" stroke-linejoin="round"/><path d="M 320.19 275.92 C 325.01 275.92 328.92 279.83 328.92 284.66 C 328.92 289.48 325.01 293.39 320.19 293.39 C 315.36 293.39 311.45 289.48 311.45 284.66 C 311.45 279.83 315.36 275.92 320.19 275.92 Z" fill="none" stroke="hsl(101 55% 38%)" stroke-width="1.6" stroke-linejoin="round"/><path d="M 355.15 296.11 C 359.98 296.11 363.89 300.02 363.89 304.85 C 363.89 309.67 359.98 313.58 355.15 313.58 C 350.33 313.58 346.42 309.67 346.42 304.85 C 346.42 300.02 350.33 296.11 355.15 296.11 Z" fill="none" stroke="hsl(101 55% 38%)" stroke-width="1.6" stroke-linejoin="round"/><path d="M 375.34 331.08 C 380.17 331.08 384.08 334.99 384.08 339.81 C 384.08 344.64 380.17 348.55 375.34 348.55 C 370.52 348.55 366.61 344.64 366.61 339.81 C 366.61 334.99 370.52 331.08 375.34 331.08 Z" fill="none" stroke="hsl(101 55% 38%)" stroke-width="1.6" stroke-linejoin="round"/><path d="M 300 243 C 364.62 243 417 295.38 417 360 C 417 424.62 364.62 477 300 477 C 235.38 477 183 424.62 183 360 C 183 295.38 235.38 243 300 243 Z" fill="none" stroke="hsl(101 55% 38%)" stroke-width="1.6" stroke-linejoin="round"/><path d="M 417 360 L 438.84 360" fill="none" stroke="hsl(101 55% 38%)" stroke-width="1.6" stroke-linejoin="round"/><path d="M 413.01 390.28 L 434.11 395.93" fill="none" stroke="hsl(101 55% 38%)" stroke-width="1.6" stroke-linejoin="round"/><path d="M 401.32 418.5 L 420.24 429.42" fill="none" stroke="hsl(101 55% 38%)" stroke-width="1.6" stroke-linejoin="round"/><path d="M 382.73 442.73 L 398.17 458.17" fill="none" stroke="hsl(101 55% 38%)" stroke-width="1.6" stroke-linejoin="round"/><path d="M 358.5 461.32 L 369.42 480.24" fill="none" stroke="hsl(101 55% 38%)" stroke-width="1.6" stroke-linejoin="round"/><path d="M 330.28 473.01 L 335.93 494.11" fill="none" stroke="hsl(101 55% 38%)" stroke-width="1.6" stroke-linejoin="round"/><path d="M 300 477 L 300 498.84" fill="none" stroke="hsl(101 55% 38%)" stroke-width="1.6" stroke-linejoin="round"/><path d="M 269.72 473.01 L 264.07 494.11" fill="none" stroke="hsl(101 55% 38%)" stroke-width="1.6" stroke-linejoin="round"/><path d="M 241.5 461.32 L 230.58 480.24" fill="none" stroke="hsl(101 55% 38%)" stroke-width="1.6" stroke-linejoin="round"/><path d="M 217.27 442.73 L 201.83 458.17" fill="none" stroke="hsl(101 55% 38%)" stroke-width="1.6" stroke-linejoin="round"/><path d="M 198.68 418.5 L 179.76 429.42" fill="none" stroke="hsl(101 55% 38%)" stroke-width="1.6" stroke-linejoin="round"/><path d="M 186.99 390.28 L 165.89 395.93" fill="none" stroke="hsl(101 55% 38%)" stroke-width="1.6" stroke-linejoin="round"/><path d="M 183 360 L 161.16 360" fill="none" stroke="hsl(101 55% 38%)" stroke-width="1.6" stroke-linejoin="round"/><path d="M 186.99 329.72 L 165.89 324.07" fill="none" stroke="hsl(101 55% 38%)" stroke-width="1.6" stroke-linejoin="round"/><path d="M 198.68 301.5 L 179.76 290.58" fill="none" stroke="hsl(101 55% 38%)" stroke-width="1.6" stroke-linejoin="round"/><path d="M 217.27 277.27 L 201.83 261.83" fill="none" stroke="hsl(101 55% 38%)" stroke-width="1.6" stroke-linejoin="round"/><path d="M 241.5 258.68 L 230.58 239.76" fill="none" stroke="hsl(101 55% 38%)" stroke-width="1.6" stroke-linejoin="round"/><path d="M 269.72 246.99 L 264.07 225.89" fill="none" stroke="hsl(101 55% 38%)" stroke-width="1.6" stroke-linejoin="round"/><path d="M 300 243 L 300 221.16" fill="none" stroke="hsl(101 55% 38%)" stroke-width="1.6" stroke-linejoin="round"/><path d="M 330.28 246.99 L 335.93 225.89" fill="none" stroke="hsl(101 55% 38%)" stroke-width="1.6" stroke-linejoin="round"/><path d="M 358.5 258.68 L 369.42 239.76" fill="none" stroke="hsl(101 55% 38%)" stroke-width="1.6" stroke-linejoin="round"/><path d="M 382.73 277.27 L 398.17 261.83" fill="none" stroke="hsl(101 55% 38%)" stroke-width="1.6" stroke-linejoin="round"/><path d="M 401.32 301.5 L 420.24 290.58" fill="none" stroke="hsl(101 55% 38%)" stroke-width="1.6" stroke-linejoin="round"/><path d="M 413.01 329.72 L 434.11 324.07" fill="none" stroke="hsl(101 55% 38%)" stroke-width="1.6" stroke-linejoin="round"/><path d="M 300 204 C 386.16 204 456 273.84 456 360 C 456 446.16 386.16 516 300 516 C 213.84 516 144 446.16 144 360 C 144 273.84 213.84 204 300 204 Z" fill="none" stroke="hsl(101 55% 38%)" stroke-width="1.6" stroke-linejoin="round"/><path d="M 450.68 391.64 C 455.51 391.64 459.42 395.55 459.42 400.38 C 459.42 405.2 455.51 409.11 450.68 409.11 C 445.86 409.11 441.95 405.2 441.95 400.38 C 441.95 395.55 445.86 391.64 450.68 391.64 Z" fill="none" stroke="hsl(101 55% 38%)" stroke-width="1.6" stroke-linejoin="round"/><path d="M 410.31 461.57 C 415.13 461.57 419.04 465.48 419.04 470.31 C 419.04 475.13 415.13 479.04 410.31 479.04 C 405.48 479.04 401.57 475.13 401.57 470.31 C 401.57 465.48 405.48 461.57 410.31 461.57 Z" fill="none" stroke="hsl(101 55% 38%)" stroke-width="1.6" stroke-linejoin="round"/><path d="M 340.38 501.95 C 345.2 501.95 349.11 505.86 349.11 510.68 C 349.11 515.51 345.2 519.42 340.38 519.42 C 335.55 519.42 331.64 515.51 331.64 510.68 C 331.64 505.86 335.55 501.95 340.38 501.95 Z" fill="none" stroke="hsl(101 55% 38%)" stroke-width="1.6" stroke-linejoin="round"/><path d="M 259.62 501.95 C 264.45 501.95 268.36 505.86 268.36 510.68 C 268.36 515.51 264.45 519.42 259.62 519.42 C 254.8 519.42 250.89 515.51 250.89 510.68 C 250.89 505.86 254.8 501.95 259.62 501.95 Z" fill="none" stroke="hsl(101 55% 38%)" stroke-width="1.6" stroke-linejoin="round"/><path d="M 189.69 461.57 C 194.52 461.57 198.43 465.48 198.43 470.31 C 198.43 475.13 194.52 479.04 189.69 479.04 C 184.87 479.04 180.96 475.13 180.96 470.31 C 180.96 465.48 184.87 461.57 189.69 461.57 Z" fill="none" stroke="hsl(101 55% 38%)" stroke-width="1.6" stroke-linejoin="round"/><path d="M 149.32 391.64 C 154.14 391.64 158.05 395.55 158.05 400.38 C 158.05 405.2 154.14 409.11 149.32 409.11 C 144.49 409.11 140.58 405.2 140.58 400.38 C 140.58 395.55 144.49 391.64 149.32 391.64 Z" fill="none" stroke="hsl(101 55% 38%)" stroke-width="1.6" stroke-linejoin="round"/><path d="M 149.32 310.89 C 154.14 310.89 158.05 314.8 158.05 319.62 C 158.05 324.45 154.14 328.36 149.32 328.36 C 144.49 328.36 140.58 324.45 140.58 319.62 C 140.58 314.8 144.49 310.89 149.32 310.89 Z" fill="none" stroke="hsl(101 55% 38%)" stroke-width="1.6" stroke-linejoin="round"/><path d="M 189.69 240.96 C 194.52 240.96 198.43 244.87 198.43 249.69 C 198.43 254.52 194.52 258.43 189.69 258.43 C 184.87 258.43 180.96 254.52 180.96 249.69 C 180.96 244.87 184.87 240.96 189.69 240.96 Z" fill="none" stroke="hsl(101 55% 38%)" stroke-width="1.6" stroke-linejoin="round"/><path d="M 259.62 200.58 C 264.45 200.58 268.36 204.49 268.36 209.32 C 268.36 214.14 264.45 218.05 259.62 218.05 C 254.8 218.05 250.89 214.14 250.89 209.32 C 250.89 204.49 254.8 200.58 259.62 200.58 Z" fill="none" stroke="hsl(101 55% 38%)" stroke-width="1.6" stroke-linejoin="round"/><path d="M 340.38 200.58 C 345.2 200.58 349.11 204.49 349.11 209.32 C 349.11 214.14 345.2 218.05 340.38 218.05 C 335.55 218.05 331.64 214.14 331.64 209.32 C 331.64 204.49 335.55 200.58 340.38 200.58 Z" fill="none" stroke="hsl(101 55% 38%)" stroke-width="1.6" stroke-linejoin="round"/><path d="M 410.31 240.96 C 415.13 240.96 419.04 244.87 419.04 249.69 C 419.04 254.52 415.13 258.43 410.31 258.43 C 405.48 258.43 401.57 254.52 401.57 249.69 C 401.57 244.87 405.48 240.96 410.31 240.96 Z" fill="none" stroke="hsl(101 55% 38%)" stroke-width="1.6" stroke-linejoin="round"/><path d="M 450.68 310.89 C 455.51 310.89 459.42 314.8 459.42 319.62 C 459.42 324.45 455.51 328.36 450.68 328.36 C 445.86 328.36 441.95 324.45 441.95 319.62 C 441.95 314.8 445.86 310.89 450.68 310.89 Z" fill="none" stroke="hsl(101 55% 38%)" stroke-width="1.6" stroke-linejoin="round"/><path d="M 300 165 C 407.7 165 495 252.3 495 360 C 495 467.7 407.7 555 300 555 C 192.3 555 105 467.7 105 360 C 105 252.3 192.3 165 300 165 Z" fill="none" stroke="hsl(101 55% 38%)" stroke-width="1.6" stroke-linejoin="round"/><path d="M 495 360 Q 507.2 397.7 526.2 360 Q 507.2 322.3 495 360 Z" fill="none" stroke="hsl(101 55% 38%)" stroke-width="1.6" stroke-linejoin="round"/><path d="M 488.36 410.47 Q 490.38 450.05 518.49 418.54 Q 509.9 377.21 488.36 410.47 Z" fill="none" stroke="hsl(101 55% 38%)" stroke-width="1.6" stroke-linejoin="round"/><path d="M 468.87 457.5 Q 460.59 496.25 495.89 473.1 Q 498.29 430.95 468.87 457.5 Z" fill="none" stroke="hsl(101 55% 38%)" stroke-width="1.6" stroke-linejoin="round"/><path d="M 437.89 497.89 Q 419.85 533.17 459.95 519.95 Q 473.17 479.85 437.89 497.89 Z" fill="none" stroke="hsl(101 55% 38%)" stroke-width="1.6" stroke-linejoin="round"/><path d="M 397.5 528.87 Q 370.95 558.29 413.1 555.89 Q 436.25 520.59 397.5 528.87 Z" fill="none" stroke="hsl(101 55% 38%)" stroke-width="1.6" stroke-linejoin="round"/><path d="M 350.47 548.36 Q 317.21 569.9 358.54 578.49 Q 390.05 550.38 350.47 548.36 Z" fill="none" stroke="hsl(101 55% 38%)" stroke-width="1.6" stroke-linejoin="round"/><path d="M 300 555 Q 262.3 567.2 300 586.2 Q 337.7 567.2 300 555 Z" fill="none" stroke="hsl(101 55% 38%)" stroke-width="1.6" stroke-linejoin="round"/><path d="M 249.53 548.36 Q 209.95 550.38 241.46 578.49 Q 282.79 569.9 249.53 548.36 Z" fill="none" stroke="hsl(101 55% 38%)" stroke-width="1.6" stroke-linejoin="round"/><path d="M 202.5 528.87 Q 163.75 520.59 186.9 555.89 Q 229.05 558.29 202.5 528.87 Z" fill="none" stroke="hsl(101 55% 38%)" stroke-width="1.6" stroke-linejoin="round"/><path d="M 162.11 497.89 Q 126.83 479.85 140.05 519.95 Q 180.15 533.17 162.11 497.89 Z" fill="none" stroke="hsl(101 55% 38%)" stroke-width="1.6" stroke-linejoin="round"/><path d="M 131.13 457.5 Q 101.71 430.95 104.11 473.1 Q 139.41 496.25 131.13 457.5 Z" fill="none" stroke="hsl(101 55% 38%)" stroke-width="1.6" stroke-linejoin="round"/><path d="M 111.64 410.47 Q 90.1 377.21 81.51 418.54 Q 109.62 450.05 111.64 410.47 Z" fill="none" stroke="hsl(101 55% 38%)" stroke-width="1.6" stroke-linejoin="round"/><path d="M 105 360 Q 92.8 322.3 73.8 360 Q 92.8 397.7 105 360 Z" fill="none" stroke="hsl(101 55% 38%)" stroke-width="1.6" stroke-linejoin="round"/><path d="M 111.64 309.53 Q 109.62 269.95 81.51 301.46 Q 90.1 342.79 111.64 309.53 Z" fill="none" stroke="hsl(101 55% 38%)" stroke-width="1.6" stroke-linejoin="round"/><path d="M 131.13 262.5 Q 139.41 223.75 104.11 246.9 Q 101.71 289.05 131.13 262.5 Z" fill="none" stroke="hsl(101 55% 38%)" stroke-width="1.6" stroke-linejoin="round"/><path d="M 162.11 222.11 Q 180.15 186.83 140.05 200.05 Q 126.83 240.15 162.11 222.11 Z" fill="none" stroke="hsl(101 55% 38%)" stroke-width="1.6" stroke-linejoin="round"/><path d="M 202.5 191.13 Q 229.05 161.71 186.9 164.11 Q 163.75 199.41 202.5 191.13 Z" fill="none" stroke="hsl(101 55% 38%)" stroke-width="1.6" stroke-linejoin="round"/><path d="M 249.53 171.64 Q 282.79 150.1 241.46 141.51 Q 209.95 169.62 249.53 171.64 Z" fill="none" stroke="hsl(101 55% 38%)" stroke-width="1.6" stroke-linejoin="round"/><path d="M 300 165 Q 337.7 152.8 300 133.8 Q 262.3 152.8 300 165 Z" fill="none" stroke="hsl(101 55% 38%)" stroke-width="1.6" stroke-linejoin="round"/><path d="M 350.47 171.64 Q 390.05 169.62 358.54 141.51 Q 317.21 150.1 350.47 171.64 Z" fill="none" stroke="hsl(101 55% 38%)" stroke-width="1.6" stroke-linejoin="round"/><path d="M 397.5 191.13 Q 436.25 199.41 413.1 164.11 Q 370.95 161.71 397.5 191.13 Z" fill="none" stroke="hsl(101 55% 38%)" stroke-width="1.6" stroke-linejoin="round"/><path d="M 437.89 222.11 Q 473.17 240.15 459.95 200.05 Q 419.85 186.83 437.89 222.11 Z" fill="none" stroke="hsl(101 55% 38%)" stroke-width="1.6" stroke-linejoin="round"/><path d="M 468.87 262.5 Q 498.29 289.05 495.89 246.9 Q 460.59 223.75 468.87 262.5 Z" fill="none" stroke="hsl(101 55% 38%)" stroke-width="1.6" stroke-linejoin="round"/><path d="M 488.36 309.53 Q 509.9 342.79 518.49 301.46 Q 490.38 269.95 488.36 309.53 Z" fill="none" stroke="hsl(101 55% 38%)" stroke-width="1.6" stroke-linejoin="round"/><path d="M 300 165 C 407.7 165 495 252.3 495 360 C 495 467.7 407.7 555 300 555 C 192.3 555 105 467.7 105 360 C 105 252.3 192.3 165 300 165 Z" fill="none" stroke="hsl(101 55% 38%)" stroke-width="1.6" stroke-linejoin="round"/></g>
  <g transform="translate(300,640)">
    <rect x="-110" y="-26" width="220" height="34" rx="17" fill="#ffffff" opacity="0.8"/>
    <text x="0" y="-3" text-anchor="middle" font-family="Quicksand, Arial, sans-serif" font-size="16" font-weight="600" fill="hsl(101 55% 38%)">🧘 Achtsamkeit &amp; Zitate</text>
  </g>
  <text x="300" y="700" text-anchor="middle" font-family="Quicksand, Arial, sans-serif" font-size="40" font-weight="700" fill="#2b2540"><tspan x="300" dy="0">Achtsamkeit &amp;</tspan><tspan x="300" dy="44">Zitate – Vol. 2</tspan></text>
  <text x="300" y="772" text-anchor="middle" font-family="Arial, sans-serif" font-size="15" fill="#5b5470">Malbuch · 24 Seiten</text>
</svg>