<svg xmlns="http://www.w3.org/2000/svg" viewBox="0 0 600 800" width="600" height="800">
  <defs>
    <linearGradient id="bg" x1="0" y1="0" x2="0" y2="1">
      <stop offset="0" stop-color="hsl(187 70% 95%)"/><stop offset="1" stop-color="hsl(227 70% 92%)"/>
    </linearGradient>
  </defs>
  <rect width="600" height="800" fill="url(#bg)"/>
  <rect x="22" y="22" width="556" height="756" rx="28" fill="none" stroke="hsl(187 55% 38%)" stroke-width="2" opacity="0.5"/>
  <text x="300" y="74" text-anchor="middle" font-family="Quicksand, Arial, sans-serif" font-size="26" font-weight="700" fill="hsl(187 55% 38%)">&#10022; Coloreo</text>
  <g transform="translate(0,40)"><path d="M 323.4 360 Q 335.17 372.84 349.14 360 Q 335.17 347.16 323.4 360 Z" fill="none" stroke="hsl(187 55% 38%)" stroke-width="1.6" stroke-linejoin="round"/><path d="M 321.62 368.95 Q 327.58 385.32 345.4 378.81 Q 337.41 361.6 321.62 368.95 Z" fill="none" stroke="hsl(187 55% 38%)" stroke-width="1.6" stroke-linejoin="round"/><path d="M 316.55 376.55 Q 315.79 393.95 334.75 394.75 Q 333.95 375.79 316.55 376.55 Z" fill="none" stroke="hsl(187 55% 38%)" stroke-width="1.6" stroke-linejoin="round"/><path d="M 308.95 381.62 Q 301.6 397.41 318.81 405.4 Q 325.32 387.58 308.95 381.62 Z" fill="none" stroke="hsl(187 55% 38%)" stroke-width="1.6" stroke-linejoin="round"/><path d="M 300 383.4 Q 287.16 395.17 300 409.14 Q 312.84 395.17 300 383.4 Z" fill="none" stroke="hsl(187 55% 38%)" stroke-width="1.6" stroke-linejoin="round"/><path d="M 291.05 381.62 Q 274.68 387.58 281.19 405.4 Q 298.4 397.41 291.05 381.62 Z" fill="none" stroke="hsl(187 55% 38%)" stroke-width="1.6" stroke-linejoin="round"/><path d="M 283.45 376.55 Q 266.05 375.79 265.25 394.75 Q 284.21 393.95 283.45 376.55 Z" fill="none" stroke="hsl(187 55% 38%)" stroke-width="1.6" stroke-linejoin="round"/><path d="M 278.38 368.95 Q 262.59 361.6 254.6 378.81 Q 272.42 385.32 278.38 368.95 Z" fill="none" stroke="hsl(187 55% 38%)" stroke-width="1.6" stroke-linejoin="round"/><path d="M 276.6 360 Q 264.83 347.16 250.86 360 Q 264.83 372.84 276.6 360 Z" fill="none" stroke="hsl(187 55% 38%)" stroke-width="1.6" stroke-linejoin="round"/><path d="M 278.38 351.05 Q 272.42 334.68 254.6 341.19 Q 262.59 358.4 278.38 351.05 Z" fill="none" stroke="hsl(187 55% 38%)" stroke-width="1.6" stroke-linejoin="round"/><path d="M 283.45 343.45 Q 284.21 326.05 265.25 325.25 Q 266.05 344.21 283.45 343.45 Z" fill="none" stroke="hsl(187 55% 38%)" stroke-width="1.6" stroke-linejoin="round"/><path d="M 291.05 338.38 Q 298.4 322.59 281.19 314.6 Q 274.68 332.42 291.05 338.38 Z" fill="none" stroke="hsl(187 55% 38%)" stroke-width="1.6" stroke-linejoin="round"/><path d="M 300 336.6 Q 312.84 324.83 300 310.86 Q 287.16 324.83 300 336.6 Z" fill="none" stroke="hsl(187 55% 38%)" stroke-width="1.6" stroke-linejoin="round"/><path d="M 308.95 338.38 Q 325.32 332.42 318.81 314.6 Q 301.6 322.59 308.95 338.38 Z" fill="none" stroke="hsl(187 55% 38%)" stroke-width="1.6" stroke-linejoin="round"/><path d="M 316.55 343.45 Q 333.95 344.21 334.75 325.25 Q 315.79 326.05 316.55 343.45 Z" fill="none" stroke="hsl(187 55% 38%)" stroke-width="1.6" stroke-linejoin="round"/><path d="M 321.62 351.05 Q 337.41 358.4 345.4 341.19 Q 327.58 334.68 321.62 351.05 Z" fill="none" stroke="hsl(187 55% 38%)" stroke-width="1.6" stroke-linejoin="round"/><path d="M 300 345.96 C 307.75 345.96 314.04 352.25 314.04 360 C 314.04 367.75 307.75 374.04 300 374.04 C 292.25 374.04 285.96 367.75 285.96 360 C 285.96 352.25 292.25 345.96 300 345.96 Z" fill="none" stroke="hsl(187 55% 38%)" stroke-width="1.6" stroke-linejoin="round"/><path d="M 300 295 C 335.9 295 365 324.1 365 360 C 365 395.9 335.9 425 300 425 C 264.1 425 235 395.9 235 360 C 235 324.1 264.1 295 300 295 Z" fill="none" stroke="hsl(187 55% 38%)" stroke-width="1.6" stroke-linejoin="round"/><path d="M 363.75 372.68 Q 372.54 388.67 389.25 377.75 Q 377.99 361.28 363.75 372.68 Z" fill="none" stroke="hsl(187 55% 38%)" stroke-width="1.6" stroke-linejoin="round"/><path d="M 354.05 396.11 Q 356.05 414.25 375.66 410.56 Q 371.56 391.02 354.05 396.11 Z" fill="none" stroke="hsl(187 55% 38%)" stroke-width="1.6" stroke-linejoin="round"/><path d="M 336.11 414.05 Q 331.02 431.56 350.56 435.66 Q 354.25 416.05 336.11 414.05 Z" fill="none" stroke="hsl(187 55% 38%)" stroke-width="1.6" stroke-linejoin="round"/><path d="M 312.68 423.75 Q 301.28 437.99 317.75 449.25 Q 328.67 432.54 312.68 423.75 Z" fill="none" stroke="hsl(187 55% 38%)" stroke-width="1.6" stroke-linejoin="round"/><path d="M 287.32 423.75 Q 271.33 432.54 282.25 449.25 Q 298.72 437.99 287.32 423.75 Z" fill="none" stroke="hsl(187 55% 38%)" stroke-width="1.6" stroke-linejoin="round"/><path d="M 263.89 414.05 Q 245.75 416.05 249.44 435.66 Q 268.98 431.56 263.89 414.05 Z" fill="none" stroke="hsl(187 55% 38%)" stroke-width="1.6" stroke-linejoin="round"/><path d="M 245.95 396.11 Q 228.44 391.02 224.34 410.56 Q 243.95 414.25 245.95 396.11 Z" fill="none" stroke="hsl(187 55% 38%)" stroke-width="1.6" stroke-linejoin="round"/><path d="M 236.25 372.68 Q 222.01 361.28 210.75 377.75 Q 227.46 388.67 236.25 372.68 Z" fill="none" stroke="hsl(187 55% 38%)" stroke-width="1.6" stroke-linejoin="round"/><path d="M 236.25 347.32 Q 227.46 331.33 210.75 342.25 Q 222.01 358.72 236.25 347.32 Z" fill="none" stroke="hsl(187 55% 38%)" stroke-width="1.6" stroke-linejoin="round"/><path d="M 245.95 323.89 Q 243.95 305.75 224.34 309.44 Q 228.44 328.98 245.95 323.89 Z" fill="none" stroke="hsl(187 55% 38%)" stroke-width="1.6" stroke-linejoin="round"/><path d="M 263.89 305.95 Q 268.98 288.44 249.44 284.34 Q 245.75 303.95 263.89 305.95 Z" fill="none" stroke="hsl(187 55% 38%)" stroke-width="1.6" stroke-linejoin="round"/><path d="M 287.32 296.25 Q 298.72 282.01 282.25 270.75 Q 271.33 287.46 287.32 296.25 Z" fill="none" stroke="hsl(187 55% 38%)" stroke-width="1.6" stroke-linejoin="round"/><path d="M 312.68 296.25 Q 328.67 287.46 317.75 270.75 Q 301.28 282.01 312.68 296.25 Z" fill="none" stroke="hsl(187 55% 38%)" stroke-width="1.6" stroke-linejoin="round"/><path d="M 336.11 305.95 Q 354.25 303.95 350.56 284.34 Q 331.02 288.44 336.11 305.95 Z" fill="none" stroke="hsl(187 55% 38%)" stroke-width="1.6" stroke-linejoin="round"/><path d="M 354.05 323.89 Q 371.56 328.98 375.66 309.44 Q 356.05 305.75 354.05 323.89 Z" fill="none" stroke="hsl(187 55% 38%)" stroke-width="1.6" stroke-linejoin="round"/><path d="M 363.75 347.32 Q 377.99 358.72 389.25 342.25 Q 372.54 331.33 363.75 347.32 Z" fill="none" stroke="hsl(187 55% 38%)" stroke-width="1.6" stroke-linejoin="round"/><path d="M 300 262.5 C 353.85 262.5 397.5 306.15 397.5 360 C 397.5 413.85 353.85 457.5 300 457.5 C 246.15 457.5 202.5 413.85 202.5 360 C 202.5 306.15 246.15 262.5 300 262.5 Z" fill="none" stroke="hsl(187 55% 38%)" stroke-width="1.6" stroke-linejoin="round"/><path d="M 397.5 360 Q 408.71 379.78 423.5 360 Q 408.71 340.22 397.5 360 Z" fill="none" stroke="hsl(187 55% 38%)" stroke-width="1.6" stroke-linejoin="round"/><path d="M 395.63 379.02 Q 402.77 400.61 421.13 384.09 Q 410.49 361.81 395.63 379.02 Z" fill="none" stroke="hsl(187 55% 38%)" stroke-width="1.6" stroke-linejoin="round"/><path d="M 390.08 397.31 Q 392.87 419.88 414.1 407.26 Q 408.01 383.33 390.08 397.31 Z" fill="none" stroke="hsl(187 55% 38%)" stroke-width="1.6" stroke-linejoin="round"/><path d="M 381.07 414.17 Q 379.4 436.85 402.69 428.61 Q 401.38 403.95 381.07 414.17 Z" fill="none" stroke="hsl(187 55% 38%)" stroke-width="1.6" stroke-linejoin="round"/><path d="M 368.94 428.94 Q 362.88 450.86 387.33 447.33 Q 390.86 422.88 368.94 428.94 Z" fill="none" stroke="hsl(187 55% 38%)" stroke-width="1.6" stroke-linejoin="round"/><path d="M 354.17 441.07 Q 343.95 461.38 368.61 462.69 Q 376.85 439.4 354.17 441.07 Z" fill="none" stroke="hsl(187 55% 38%)" stroke-width="1.6" stroke-linejoin="round"/><path d="M 337.31 450.08 Q 323.33 468.01 347.26 474.1 Q 359.88 452.87 337.31 450.08 Z" fill="none" stroke="hsl(187 55% 38%)" stroke-width="1.6" stroke-linejoin="round"/><path d="M 319.02 455.63 Q 301.81 470.49 324.09 481.13 Q 340.61 462.77 319.02 455.63 Z" fill="none" stroke="hsl(187 55% 38%)" stroke-width="1.6" stroke-linejoin="round"/><path d="M 300 457.5 Q 280.22 468.71 300 483.5 Q 319.78 468.71 300 457.5 Z" fill="none" stroke="hsl(187 55% 38%)" stroke-width="1.6" stroke-linejoin="round"/><path d="M 280.98 455.63 Q 259.39 462.77 275.91 481.13 Q 298.19 470.49 280.98 455.63 Z" fill="none" stroke="hsl(187 55% 38%)" stroke-width="1.6" stroke-linejoin="round"/><path d="M 262.69 450.08 Q 240.12 452.87 252.74 474.1 Q 276.67 468.01 262.69 450.08 Z" fill="none" stroke="hsl(187 55% 38%)" stroke-width="1.6" stroke-linejoin="round"/><path d="M 245.83 441.07 Q 223.15 439.4 231.39 462.69 Q 256.05 461.38 245.83 441.07 Z" fill="none" stroke="hsl(187 55% 38%)" stroke-width="1.6" stroke-linejoin="round"/><path d="M 231.06 428.94 Q 209.14 422.88 212.67 447.33 Q 237.12 450.86 231.06 428.94 Z" fill="none" stroke="hsl(187 55% 38%)" stroke-width="1.6" stroke-linejoin="round"/><path d="M 218.93 414.17 Q 198.62 403.95 197.31 428.61 Q 220.6 436.85 218.93 414.17 Z" fill="none" stroke="hsl(187 55% 38%)" stroke-width="1.6" stroke-linejoin="round"/><path d="M 209.92 397.31 Q 191.99 383.33 185.9 407.26 Q 207.13 419.88 209.92 397.31 Z" fill="none" stroke="hsl(187 55% 38%)" stroke-width="1.6" stroke-linejoin="round"/><path d="M 204.37 379.02 Q 189.51 361.81 178.87 384.09 Q 197.23 400.61 204.37 379.02 Z" fill="none" stroke="hsl(187 55% 38%)" stroke-width="1.6" stroke-linejoin="round"/><path d="M 202.5 360 Q 191.29 340.22 176.5 360 Q 191.29 379.78 202.5 360 Z" fill="none" stroke="hsl(187 55% 38%)" stroke-width="1.6" stroke-linejoin="round"/><path d="M 204.37 340.98 Q 197.23 319.39 178.87 335.91 Q 189.51 358.19 204.37 340.98 Z" fill="none" stroke="hsl(187 55% 38%)" stroke-width="1.6" stroke-linejoin="round"/><path d="M 209.92 322.69 Q 207.13 300.12 185.9 312.74 Q 191.99 336.67 209.92 322.69 Z" fill="none" stroke="hsl(187 55% 38%)" stroke-width="1.6" stroke-linejoin="round"/><path d="M 218.93 305.83 Q 220.6 283.15 197.31 291.39 Q 198.62 316.05 218.93 305.83 Z" fill="none" stroke="hsl(187 55% 38%)" stroke-width="1.6" stroke-linejoin="round"/><path d="M 231.06 291.06 Q 237.12 269.14 212.67 272.67 Q 209.14 297.12 231.06 291.06 Z" fill="none" stroke="hsl(187 55% 38%)" stroke-width="1.6" stroke-linejoin="round"/><path d="M 245.83 278.93 Q 256.05 258.62 231.39 257.31 Q 223.15 280.6 245.83 278.93 Z" fill="none" stroke="hsl(187 55% 38%)" stroke-width="1.6" stroke-linejoin="round"/><path d="M 262.69 269.92 Q 276.67 251.99 252.74 245.9 Q 240.12 267.13 262.69 269.92 Z" fill="none" stroke="hsl(187 55% 38%)" stroke-width="1.6" stroke-linejoin="round"/><path d="M 280.98 264.37 Q 298.19 249.51 275.91 238.87 Q 259.39 257.23 280.98 264.37 Z" fill="none" stroke="hsl(187 55% 38%)" stroke-width="1.6" stroke-linejoin="round"/><path d="M 300 262.5 Q 319.78 251.29 300 236.5 Q 280.22 251.29 300 262.5 Z" fill="none" stroke="hsl(187 55% 38%)" stroke-width="1.6" stroke-linejoin="round"/><path d="M 319.02 264.37 Q 340.61 257.23 324.09 238.87 Q 301.81 249.51 319.02 264.37 Z" fill="none" stroke="hsl(187 55% 38%)" stroke-width="1.6" stroke-linejoin="round"/><path d="M 337.31 269.92 Q 359.88 267.13 347.26 245.9 Q 323.33 251.99 337.31 269.92 Z" fill="none" stroke="hsl(187 55% 38%)" stroke-width="1.6" stroke-linejoin="round"/><path d="M 354.17 278.93 Q 376.85 280.6 368.61 257.31 Q 343.95 258.62 354.17 278.93 Z" fill="none" stroke="hsl(187 55% 38%)" stroke-width="1.6" stroke-linejoin="round"/><path d="M 368.94 291.06 Q 390.86 297.12 387.33 272.67 Q 362.88 269.14 368.94 291.06 Z" fill="none" stroke="hsl(187 55% 38%)" stroke-width="1.6" stroke-linejoin="round"/><path d="M 381.07 305.83 Q 401.38 316.05 402.69 291.39 Q 379.4 283.15 381.07 305.83 Z" fill="none" stroke="hsl(187 55% 38%)" stroke-width="1.6" stroke-linejoin="round"/><path d="M 390.08 322.69 Q 408.01 336.67 414.1 312.74 Q 392.87 300.12 390.08 322.69 Z" fill="none" stroke="hsl(187 55% 38%)" stroke-width="1.6" stroke-linejoin="round"/><path d="M 395.63 340.98 Q 410.49 358.19 421.13 335.91 Q 402.77 319.39 395.63 340.98 Z" fill="none" stroke="hsl(187 55% 38%)" stroke-width="1.6" stroke-linejoin="round"/><path d="M 300 230 C 371.8 230 430 288.2 430 360 C 430 431.8 371.8 490 300 490 C 228.2 490 170 431.8 170 360 C 170 288.2 228.2 230 300 230 Z" fill="none" stroke="hsl(187 55% 38%)" stroke-width="1.6" stroke-linejoin="round"/><path d="M 427.5 385.36 Q 432.99 412.56 453 390.43 Q 442.98 362.34 427.5 385.36 Z" fill="none" stroke="hsl(187 55% 38%)" stroke-width="1.6" stroke-linejoin="round"/><path d="M 408.09 432.22 Q 402.76 459.45 429.71 446.67 Q 431.2 416.88 408.09 432.22 Z" fill="none" stroke="hsl(187 55% 38%)" stroke-width="1.6" stroke-linejoin="round"/><path d="M 372.22 468.09 Q 356.88 491.2 386.67 489.71 Q 399.45 462.76 372.22 468.09 Z" fill="none" stroke="hsl(187 55% 38%)" stroke-width="1.6" stroke-linejoin="round"/><path d="M 325.36 487.5 Q 302.34 502.98 330.43 513 Q 352.56 492.99 325.36 487.5 Z" fill="none" stroke="hsl(187 55% 38%)" stroke-width="1.6" stroke-linejoin="round"/><path d="M 274.64 487.5 Q 247.44 492.99 269.57 513 Q 297.66 502.98 274.64 487.5 Z" fill="none" stroke="hsl(187 55% 38%)" stroke-width="1.6" stroke-linejoin="round"/><path d="M 227.78 468.09 Q 200.55 462.76 213.33 489.71 Q 243.12 491.2 227.78 468.09 Z" fill="none" stroke="hsl(187 55% 38%)" stroke-width="1.6" stroke-linejoin="round"/><path d="M 191.91 432.22 Q 168.8 416.88 170.29 446.67 Q 197.24 459.45 191.91 432.22 Z" fill="none" stroke="hsl(187 55% 38%)" stroke-width="1.6" stroke-linejoin="round"/><path d="M 172.5 385.36 Q 157.02 362.34 147 390.43 Q 167.01 412.56 172.5 385.36 Z" fill="none" stroke="hsl(187 55% 38%)" stroke-width="1.6" stroke-linejoin="round"/><path d="M 172.5 334.64 Q 167.01 307.44 147 329.57 Q 157.02 357.66 172.5 334.64 Z" fill="none" stroke="hsl(187 55% 38%)" stroke-width="1.6" stroke-linejoin="round"/><path d="M 191.91 287.78 Q 197.24 260.55 170.29 273.33 Q 168.8 303.12 191.91 287.78 Z" fill="none" stroke="hsl(187 55% 38%)" stroke-width="1.6" stroke-linejoin="round"/><path d="M 227.78 251.91 Q 243.12 228.8 213.33 230.29 Q 200.55 257.24 227.78 251.91 Z" fill="none" stroke="hsl(187 55% 38%)" stroke-width="1.6" stroke-linejoin="round"/><path d="M 274.64 232.5 Q 297.66 217.02 269.57 207 Q 247.44 227.01 274.64 232.5 Z" fill="none" stroke="hsl(187 55% 38%)" stroke-width="1.6" stroke-linejoin="round"/><path d="M 325.36 232.5 Q 352.56 227.01 330.43 207 Q 302.34 217.02 325.36 232.5 Z" fill="none" stroke="hsl(187 55% 38%)" stroke-width="1.6" stroke-linejoin="round"/><path d="M 372.22 251.91 Q 399.45 257.24 386.67 230.29 Q 356.88 228.8 372.22 251.91 Z" fill="none" stroke="hsl(187 55% 38%)" stroke-width="1.6" stroke-linejoin="round"/><path d="M 408.09 287.78 Q 431.2 303.12 429.71 273.33 Q 402.76 260.55 408.09 287.78 Z" fill="none" stroke="hsl(187 55% 38%)" stroke-width="1.6" stroke-linejoin="round"/><path d="M 427.5 334.64 Q 442.98 357.66 453 329.57 Q 432.99 307.44 427.5 334.64 Z" fill="none" stroke="hsl(187 55% 38%)" stroke-width="1.6" stroke-linejoin="round"/><path d="M 300 197.5 C 389.75 197.5 462.5 270.25 462.5 360 C 462.5 449.75 389.75 522.5 300 522.5 C 210.25 522.5 137.5 449.75 137.5 360 C 137.5 270.25 210.25 197.5 300 197.5 Z" fill="none" stroke="hsl(187 55% 38%)" stroke-width="1.6" stroke-linejoin="round"/><path d="M 462.5 360 L 480.7 360" fill="none" stroke="hsl(187 55% 38%)" stroke-width="1.6" stroke-linejoin="round"/><path d="M 459.38 391.7 L 477.23 395.25" fill="none" stroke="hsl(187 55% 38%)" stroke-width="1.6" stroke-linejoin="round"/><path d="M 450.13 422.19 L 466.95 429.15" fill="none" stroke="hsl(187 55% 38%)" stroke-width="1.6" stroke-linejoin="round"/><path d="M 435.11 450.28 L 450.25 460.39" fill="none" stroke="hsl(187 55% 38%)" stroke-width="1.6" stroke-linejoin="round"/><path d="M 414.9 474.9 L 427.77 487.77" fill="none" stroke="hsl(187 55% 38%)" stroke-width="1.6" stroke-linejoin="round"/><path d="M 390.28 495.11 L 400.39 510.25" fill="none" stroke="hsl(187 55% 38%)" stroke-width="1.6" stroke-linejoin="round"/><path d="M 362.19 510.13 L 369.15 526.95" fill="none" stroke="hsl(187 55% 38%)" stroke-width="1.6" stroke-linejoin="round"/><path d="M 331.7 519.38 L 335.25 537.23" fill="none" stroke="hsl(187 55% 38%)" stroke-width="1.6" stroke-linejoin="round"/><path d="M 300 522.5 L 300 540.7" fill="none" stroke="hsl(187 55% 38%)" stroke-width="1.6" stroke-linejoin="round"/><path d="M 268.3 519.38 L 264.75 537.23" fill="none" stroke="hsl(187 55% 38%)" stroke-width="1.6" stroke-linejoin="round"/><path d="M 237.81 510.13 L 230.85 526.95" fill="none" stroke="hsl(187 55% 38%)" stroke-width="1.6" stroke-linejoin="round"/><path d="M 209.72 495.11 L 199.61 510.25" fill="none" stroke="hsl(187 55% 38%)" stroke-width="1.6" stroke-linejoin="round"/><path d="M 185.1 474.9 L 172.23 487.77" fill="none" stroke="hsl(187 55% 38%)" stroke-width="1.6" stroke-linejoin="round"/><path d="M 164.89 450.28 L 149.75 460.39" fill="none" stroke="hsl(187 55% 38%)" stroke-width="1.6" stroke-linejoin="round"/><path d="M 149.87 422.19 L 133.05 429.15" fill="none" stroke="hsl(187 55% 38%)" stroke-width="1.6" stroke-linejoin="round"/><path d="M 140.62 391.7 L 122.77 395.25" fill="none" stroke="hsl(187 55% 38%)" stroke-width="1.6" stroke-linejoin="round"/><path d="M 137.5 360 L 119.3 360" fill="none" stroke="hsl(187 55% 38%)" stroke-width="1.6" stroke-linejoin="round"/><path d="M 140.62 328.3 L 122.77 324.75" fill="none" stroke="hsl(187 55% 38%)" stroke-width="1.6" stroke-linejoin="round"/><path d="M 149.87 297.81 L 133.05 290.85" fill="none" stroke="hsl(187 55% 38%)" stroke-width="1.6" stroke-linejoin="round"/><path d="M 164.89 269.72 L 149.75 259.61" fill="none" stroke="hsl(187 55% 38%)" stroke-width="1.6" stroke-linejoin="round"/><path d="M 185.1 245.1 L 172.23 232.23" fill="none" stroke="hsl(187 55% 38%)" stroke-width="1.6" stroke-linejoin="round"/><path d="M 209.72 224.89 L 199.61 209.75" fill="none" stroke="hsl(187 55% 38%)" stroke-width="1.6" stroke-linejoin="round"/><path d="M 237.81 209.87 L 230.85 193.05" fill="none" stroke="hsl(187 55% 38%)" stroke-width="1.6" stroke-linejoin="round"/><path d="M 268.3 200.62 L 264.75 182.77" fill="none" stroke="hsl(187 55% 38%)" stroke-width="1.6" stroke-linejoin="round"/><path d="M 300 197.5 L 300 179.3" fill="none" stroke="hsl(187 55% 38%)" stroke-width="1.6" stroke-linejoin="round"/><path d="M 331.7 200.62 L 335.25 182.77" fill="none" stroke="hsl(187 55% 38%)" stroke-width="1.6" stroke-linejoin="round"/><path d="M 362.19 209.87 L 369.15 193.05" fill="none" stroke="hsl(187 55% 38%)" stroke-width="1.6" stroke-linejoin="round"/><path d="M 390.28 224.89 L 400.39 209.75" fill="none" stroke="hsl(187 55% 38%)" stroke-width="1.6" stroke-linejoin="round"/><path d="M 414.9 245.1 L 427.77 232.23" fill="none" stroke="hsl(187 55% 38%)" stroke-width="1.6" stroke-linejoin="round"/><path d="M 435.11 269.72 L 450.25 259.61" fill="none" stroke="hsl(187 55% 38%)" stroke-width="1.6" stroke-linejoin="round"/><path d="M 450.13 297.81 L 466.95 290.85" fill="none" stroke="hsl(187 55% 38%)" stroke-width="1.6" stroke-linejoin="round"/><path d="M 459.38 328.3 L 477.23 324.75" fill="none" stroke="hsl(187 55% 38%)" stroke-width="1.6" stroke-linejoin="round"/><path d="M 300 165 C 407.7 165 495 252.3 495 360 C 495 467.7 407.7 555 300 555 C 192.3 555 105 467.7 105 360 C 105 252.3 192.3 165 300 165 Z" fill="none" stroke="hsl(187 55% 38%)" stroke-width="1.6" stroke-linejoin="round"/><path d="M 491.25 398.04 L 509.1 401.59" fill="none" stroke="hsl(187 55% 38%)" stroke-width="1.6" stroke-linejoin="round"/><path d="M 462.14 468.34 L 477.27 478.45" fill="none" stroke="hsl(187 55% 38%)" stroke-width="1.6" stroke-linejoin="round"/><path d="M 408.34 522.14 L 418.45 537.27" fill="none" stroke="hsl(187 55% 38%)" stroke-width="1.6" stroke-linejoin="round"/><path d="M 338.04 551.25 L 341.59 569.1" fill="none" stroke="hsl(187 55% 38%)" stroke-width="1.6" stroke-linejoin="round"/><path d="M 261.96 551.25 L 258.41 569.1" fill="none" stroke="hsl(187 55% 38%)" stroke-width="1.6" stroke-linejoin="round"/><path d="M 191.66 522.14 L 181.55 537.27" fill="none" stroke="hsl(187 55% 38%)" stroke-width="1.6" stroke-linejoin="round"/><path d="M 137.86 468.34 L 122.73 478.45" fill="none" stroke="hsl(187 55% 38%)" stroke-width="1.6" stroke-linejoin="round"/><path d="M 108.75 398.04 L 90.9 401.59" fill="none" stroke="hsl(187 55% 38%)" stroke-width="1.6" stroke-linejoin="round"/><path d="M 108.75 321.96 L 90.9 318.41" fill="none" stroke="hsl(187 55% 38%)" stroke-width="1.6" stroke-linejoin="round"/><path d="M 137.86 251.66 L 122.73 241.55" fill="none" stroke="hsl(187 55% 38%)" stroke-width="1.6" stroke-linejoin="round"/><path d="M 191.66 197.86 L 181.55 182.73" fill="none" stroke="hsl(187 55% 38%)" stroke-width="1.6" stroke-linejoin="round"/><path d="M 261.96 168.75 L 258.41 150.9" fill="none" stroke="hsl(187 55% 38%)" stroke-width="1.6" stroke-linejoin="round"/><path d="M 338.04 168.75 L 341.59 150.9" fill="none" stroke="hsl(187 55% 38%)" stroke-width="1.6" stroke-linejoin="round"/><path d="M 408.34 197.86 L 418.45 182.73" fill="none" stroke="hsl(187 55% 38%)" stroke-width="1.6" stroke-linejoin="round"/><path d="M 462.14 251.66 L 477.27 241.55" fill="none" stroke="hsl(187 55% 38%)" stroke-width="1.6" stroke-linejoin="round"/><path d="M 491.25 321.96 L 509.1 318.41" fill="none" stroke="hsl(187 55% 38%)" stroke-width="1.6" stroke-linejoin="round"/><path d="M 300 165 C 407.7 165 495 252.3 495 360 C 495 467.7 407.7 555 300 555 C 192.3 555 105 467.7 105 360 C 105 252.3 192.3 165 300 165 Z" fill="none" stroke="hsl(187 55% 38%)" stroke-width="1.6" stroke-linejoin="round"/></g>
  <g transform="translate(300,640)">
    <rect x="-110" y="-26" width="220" height="34" rx="17" fill="#ffffff" opacity="0.8"/>
    <text x="0" y="-3" text-anchor="middle" font-family="Quicksand, Arial, sans-serif" font-size="16" font-weight="600" fill="hsl(187 55% 38%)">🌸 Blumen &amp; Botanik</text>
  </g>
  <text x="300" y="700" text-anchor="middle" font-family="Quicksand, Arial, sans-serif" font-size="40" font-weight="700" fill="#2b2540"><tspan x="300" dy="0">Blumen &amp; Botanik –</tspan><tspan x="300" dy="44">Vol. 2</tspan></text>
  <text x="300" y="772" text-anchor="middle" font-family="Arial, sans-serif" font-size="15" fill="#5b5470">Malbuch · 24 Seiten</text>
</svg>