<svg xmlns="http://www.w3.org/2000/svg" viewBox="0 0 600 800" width="600" height="800">
  <defs>
    <linearGradient id="bg" x1="0" y1="0" x2="0" y2="1">
      <stop offset="0" stop-color="hsl(187 70% 95%)"/><stop offset="1" stop-color="hsl(227 70% 92%)"/>
    </linearGradient>
  </defs>
  <rect width="600" height="800" fill="url(#bg)"/>
  <rect x="22" y="22" width="556" height="756" rx="28" fill="none" stroke="hsl(187 55% 38%)" stroke-width="2" opacity="0.5"/>
  <text x="300" y="74" text-anchor="middle" font-family="Quicksand, Arial, sans-serif" font-size="26" font-weight="700" fill="hsl(187 55% 38%)">&#10022; Coloreo</text>
  <g transform="translate(0,40)"><path d="M 323.4 360 Q 335.17 372.84 349.14 360 Q 335.17 347.16 323.4 360 Z" fill="none" stroke="hsl(187 55% 38%)" stroke-width="1.6" stroke-linejoin="round"/><path d="M 316.55 376.55 Q 315.79 393.95 334.75 394.75 Q 333.95 375.79 316.55 376.55 Z" fill="none" stroke="hsl(187 55% 38%)" stroke-width="1.6" stroke-linejoin="round"/><path d="M 300 383.4 Q 287.16 395.17 300 409.14 Q 312.84 395.17 300 383.4 Z" fill="none" stroke="hsl(187 55% 38%)" stroke-width="1.6" stroke-linejoin="round"/><path d="M 283.45 376.55 Q 266.05 375.79 265.25 394.75 Q 284.21 393.95 283.45 376.55 Z" fill="none" stroke="hsl(187 55% 38%)" stroke-width="1.6" stroke-linejoin="round"/><path d="M 276.6 360 Q 264.83 347.16 250.86 360 Q 264.83 372.84 276.6 360 Z" fill="none" stroke="hsl(187 55% 38%)" stroke-width="1.6" stroke-linejoin="round"/><path d="M 283.45 343.45 Q 284.21 326.05 265.25 325.25 Q 266.05 344.21 283.45 343.45 Z" fill="none" stroke="hsl(187 55% 38%)" stroke-width="1.6" stroke-linejoin="round"/><path d="M 300 336.6 Q 312.84 324.83 300 310.86 Q 287.16 324.83 300 336.6 Z" fill="none" stroke="hsl(187 55% 38%)" stroke-width="1.6" stroke-linejoin="round"/><path d="M 316.55 343.45 Q 333.95 344.21 334.75 325.25 Q 315.79 326.05 316.55 343.45 Z" fill="none" stroke="hsl(187 55% 38%)" stroke-width="1.6" stroke-linejoin="round"/><path d="M 285.96 360 a 14.04 14.04 0 1 0 28.08 0 a 14.04 14.04 0 1 0 -28.08 0 Z" fill="none" stroke="hsl(187 55% 38%)" stroke-width="1.6" stroke-linejoin="round"/><path d="M 235 360 a 65 65 0 1 0 130 0 a 65 65 0 1 0 -130 0 Z" fill="none" stroke="hsl(187 55% 38%)" stroke-width="1.6" stroke-linejoin="round"/><path d="M 360.05 384.87 L 376.87 391.84" fill="none" stroke="hsl(187 55% 38%)" stroke-width="1.6" stroke-linejoin="round"/><path d="M 324.87 420.05 L 331.84 436.87" fill="none" stroke="hsl(187 55% 38%)" stroke-width="1.6" stroke-linejoin="round"/><path d="M 275.13 420.05 L 268.16 436.87" fill="none" stroke="hsl(187 55% 38%)" stroke-width="1.6" stroke-linejoin="round"/><path d="M 239.95 384.87 L 223.13 391.84" fill="none" stroke="hsl(187 55% 38%)" stroke-width="1.6" stroke-linejoin="round"/><path d="M 239.95 335.13 L 223.13 328.16" fill="none" stroke="hsl(187 55% 38%)" stroke-width="1.6" stroke-linejoin="round"/><path d="M 275.13 299.95 L 268.16 283.13" fill="none" stroke="hsl(187 55% 38%)" stroke-width="1.6" stroke-linejoin="round"/><path d="M 324.87 299.95 L 331.84 283.13" fill="none" stroke="hsl(187 55% 38%)" stroke-width="1.6" stroke-linejoin="round"/><path d="M 360.05 335.13 L 376.87 328.16" fill="none" stroke="hsl(187 55% 38%)" stroke-width="1.6" stroke-linejoin="round"/><path d="M 202.5 360 a 97.5 97.5 0 1 0 195 0 a 97.5 97.5 0 1 0 -195 0 Z" fill="none" stroke="hsl(187 55% 38%)" stroke-width="1.6" stroke-linejoin="round"/><path d="M 397.5 360 Q 408.71 379.78 423.5 360 Q 408.71 340.22 397.5 360 Z" fill="none" stroke="hsl(187 55% 38%)" stroke-width="1.6" stroke-linejoin="round"/><path d="M 390.08 397.31 Q 392.87 419.88 414.1 407.26 Q 408.01 383.33 390.08 397.31 Z" fill="none" stroke="hsl(187 55% 38%)" stroke-width="1.6" stroke-linejoin="round"/><path d="M 368.94 428.94 Q 362.88 450.86 387.33 447.33 Q 390.86 422.88 368.94 428.94 Z" fill="none" stroke="hsl(187 55% 38%)" stroke-width="1.6" stroke-linejoin="round"/><path d="M 337.31 450.08 Q 323.33 468.01 347.26 474.1 Q 359.88 452.87 337.31 450.08 Z" fill="none" stroke="hsl(187 55% 38%)" stroke-width="1.6" stroke-linejoin="round"/><path d="M 300 457.5 Q 280.22 468.71 300 483.5 Q 319.78 468.71 300 457.5 Z" fill="none" stroke="hsl(187 55% 38%)" stroke-width="1.6" stroke-linejoin="round"/><path d="M 262.69 450.08 Q 240.12 452.87 252.74 474.1 Q 276.67 468.01 262.69 450.08 Z" fill="none" stroke="hsl(187 55% 38%)" stroke-width="1.6" stroke-linejoin="round"/><path d="M 231.06 428.94 Q 209.14 422.88 212.67 447.33 Q 237.12 450.86 231.06 428.94 Z" fill="none" stroke="hsl(187 55% 38%)" stroke-width="1.6" stroke-linejoin="round"/><path d="M 209.92 397.31 Q 191.99 383.33 185.9 407.26 Q 207.13 419.88 209.92 397.31 Z" fill="none" stroke="hsl(187 55% 38%)" stroke-width="1.6" stroke-linejoin="round"/><path d="M 202.5 360 Q 191.29 340.22 176.5 360 Q 191.29 379.78 202.5 360 Z" fill="none" stroke="hsl(187 55% 38%)" stroke-width="1.6" stroke-linejoin="round"/><path d="M 209.92 322.69 Q 207.13 300.12 185.9 312.74 Q 191.99 336.67 209.92 322.69 Z" fill="none" stroke="hsl(187 55% 38%)" stroke-width="1.6" stroke-linejoin="round"/><path d="M 231.06 291.06 Q 237.12 269.14 212.67 272.67 Q 209.14 297.12 231.06 291.06 Z" fill="none" stroke="hsl(187 55% 38%)" stroke-width="1.6" stroke-linejoin="round"/><path d="M 262.69 269.92 Q 276.67 251.99 252.74 245.9 Q 240.12 267.13 262.69 269.92 Z" fill="none" stroke="hsl(187 55% 38%)" stroke-width="1.6" stroke-linejoin="round"/><path d="M 300 262.5 Q 319.78 251.29 300 236.5 Q 280.22 251.29 300 262.5 Z" fill="none" stroke="hsl(187 55% 38%)" stroke-width="1.6" stroke-linejoin="round"/><path d="M 337.31 269.92 Q 359.88 267.13 347.26 245.9 Q 323.33 251.99 337.31 269.92 Z" fill="none" stroke="hsl(187 55% 38%)" stroke-width="1.6" stroke-linejoin="round"/><path d="M 368.94 291.06 Q 390.86 297.12 387.33 272.67 Q 362.88 269.14 368.94 291.06 Z" fill="none" stroke="hsl(187 55% 38%)" stroke-width="1.6" stroke-linejoin="round"/><path d="M 390.08 322.69 Q 408.01 336.67 414.1 312.74 Q 392.87 300.12 390.08 322.69 Z" fill="none" stroke="hsl(187 55% 38%)" stroke-width="1.6" stroke-linejoin="round"/><path d="M 170 360 a 130 130 0 1 0 260 0 a 130 130 0 1 0 -260 0 Z" fill="none" stroke="hsl(187 55% 38%)" stroke-width="1.6" stroke-linejoin="round"/><path d="M 420.1 409.75 Q 420.18 437.49 444.13 419.7 Q 439.78 390.19 420.1 409.75 Z" fill="none" stroke="hsl(187 55% 38%)" stroke-width="1.6" stroke-linejoin="round"/><path d="M 349.75 480.1 Q 330.19 499.78 359.7 504.13 Q 377.49 480.18 349.75 480.1 Z" fill="none" stroke="hsl(187 55% 38%)" stroke-width="1.6" stroke-linejoin="round"/><path d="M 250.25 480.1 Q 222.51 480.18 240.3 504.13 Q 269.81 499.78 250.25 480.1 Z" fill="none" stroke="hsl(187 55% 38%)" stroke-width="1.6" stroke-linejoin="round"/><path d="M 179.9 409.75 Q 160.22 390.19 155.87 419.7 Q 179.82 437.49 179.9 409.75 Z" fill="none" stroke="hsl(187 55% 38%)" stroke-width="1.6" stroke-linejoin="round"/><path d="M 179.9 310.25 Q 179.82 282.51 155.87 300.3 Q 160.22 329.81 179.9 310.25 Z" fill="none" stroke="hsl(187 55% 38%)" stroke-width="1.6" stroke-linejoin="round"/><path d="M 250.25 239.9 Q 269.81 220.22 240.3 215.87 Q 222.51 239.82 250.25 239.9 Z" fill="none" stroke="hsl(187 55% 38%)" stroke-width="1.6" stroke-linejoin="round"/><path d="M 349.75 239.9 Q 377.49 239.82 359.7 215.87 Q 330.19 220.22 349.75 239.9 Z" fill="none" stroke="hsl(187 55% 38%)" stroke-width="1.6" stroke-linejoin="round"/><path d="M 420.1 310.25 Q 439.78 329.81 444.13 300.3 Q 420.18 282.51 420.1 310.25 Z" fill="none" stroke="hsl(187 55% 38%)" stroke-width="1.6" stroke-linejoin="round"/><path d="M 137.5 360 a 162.5 162.5 0 1 0 325 0 a 162.5 162.5 0 1 0 -325 0 Z" fill="none" stroke="hsl(187 55% 38%)" stroke-width="1.6" stroke-linejoin="round"/><path d="M 462.5 360 Q 472.66 391.42 488.5 360 Q 472.66 328.58 462.5 360 Z" fill="none" stroke="hsl(187 55% 38%)" stroke-width="1.6" stroke-linejoin="round"/><path d="M 450.13 422.19 Q 447.5 455.1 474.15 432.14 Q 471.55 397.05 450.13 422.19 Z" fill="none" stroke="hsl(187 55% 38%)" stroke-width="1.6" stroke-linejoin="round"/><path d="M 414.9 474.9 Q 399.88 504.31 433.29 493.29 Q 444.31 459.88 414.9 474.9 Z" fill="none" stroke="hsl(187 55% 38%)" stroke-width="1.6" stroke-linejoin="round"/><path d="M 362.19 510.13 Q 337.05 531.55 372.14 534.15 Q 395.1 507.5 362.19 510.13 Z" fill="none" stroke="hsl(187 55% 38%)" stroke-width="1.6" stroke-linejoin="round"/><path d="M 300 522.5 Q 268.58 532.66 300 548.5 Q 331.42 532.66 300 522.5 Z" fill="none" stroke="hsl(187 55% 38%)" stroke-width="1.6" stroke-linejoin="round"/><path d="M 237.81 510.13 Q 204.9 507.5 227.86 534.15 Q 262.95 531.55 237.81 510.13 Z" fill="none" stroke="hsl(187 55% 38%)" stroke-width="1.6" stroke-linejoin="round"/><path d="M 185.1 474.9 Q 155.69 459.88 166.71 493.29 Q 200.12 504.31 185.1 474.9 Z" fill="none" stroke="hsl(187 55% 38%)" stroke-width="1.6" stroke-linejoin="round"/><path d="M 149.87 422.19 Q 128.45 397.05 125.85 432.14 Q 152.5 455.1 149.87 422.19 Z" fill="none" stroke="hsl(187 55% 38%)" stroke-width="1.6" stroke-linejoin="round"/><path d="M 137.5 360 Q 127.34 328.58 111.5 360 Q 127.34 391.42 137.5 360 Z" fill="none" stroke="hsl(187 55% 38%)" stroke-width="1.6" stroke-linejoin="round"/><path d="M 149.87 297.81 Q 152.5 264.9 125.85 287.86 Q 128.45 322.95 149.87 297.81 Z" fill="none" stroke="hsl(187 55% 38%)" stroke-width="1.6" stroke-linejoin="round"/><path d="M 185.1 245.1 Q 200.12 215.69 166.71 226.71 Q 155.69 260.12 185.1 245.1 Z" fill="none" stroke="hsl(187 55% 38%)" stroke-width="1.6" stroke-linejoin="round"/><path d="M 237.81 209.87 Q 262.95 188.45 227.86 185.85 Q 204.9 212.5 237.81 209.87 Z" fill="none" stroke="hsl(187 55% 38%)" stroke-width="1.6" stroke-linejoin="round"/><path d="M 300 197.5 Q 331.42 187.34 300 171.5 Q 268.58 187.34 300 197.5 Z" fill="none" stroke="hsl(187 55% 38%)" stroke-width="1.6" stroke-linejoin="round"/><path d="M 362.19 209.87 Q 395.1 212.5 372.14 185.85 Q 337.05 188.45 362.19 209.87 Z" fill="none" stroke="hsl(187 55% 38%)" stroke-width="1.6" stroke-linejoin="round"/><path d="M 414.9 245.1 Q 444.31 260.12 433.29 226.71 Q 399.88 215.69 414.9 245.1 Z" fill="none" stroke="hsl(187 55% 38%)" stroke-width="1.6" stroke-linejoin="round"/><path d="M 450.13 297.81 Q 471.55 322.95 474.15 287.86 Q 447.5 264.9 450.13 297.81 Z" fill="none" stroke="hsl(187 55% 38%)" stroke-width="1.6" stroke-linejoin="round"/><path d="M 105 360 a 195 195 0 1 0 390 0 a 195 195 0 1 0 -390 0 Z" fill="none" stroke="hsl(187 55% 38%)" stroke-width="1.6" stroke-linejoin="round"/><path d="M 472.88 434.62 a 7.28 7.28 0 1 0 14.56 0 a 7.28 7.28 0 1 0 -14.56 0 Z" fill="none" stroke="hsl(187 55% 38%)" stroke-width="1.6" stroke-linejoin="round"/><path d="M 367.34 540.16 a 7.28 7.28 0 1 0 14.56 0 a 7.28 7.28 0 1 0 -14.56 0 Z" fill="none" stroke="hsl(187 55% 38%)" stroke-width="1.6" stroke-linejoin="round"/><path d="M 218.1 540.16 a 7.28 7.28 0 1 0 14.56 0 a 7.28 7.28 0 1 0 -14.56 0 Z" fill="none" stroke="hsl(187 55% 38%)" stroke-width="1.6" stroke-linejoin="round"/><path d="M 112.56 434.62 a 7.28 7.28 0 1 0 14.56 0 a 7.28 7.28 0 1 0 -14.56 0 Z" fill="none" stroke="hsl(187 55% 38%)" stroke-width="1.6" stroke-linejoin="round"/><path d="M 112.56 285.38 a 7.28 7.28 0 1 0 14.56 0 a 7.28 7.28 0 1 0 -14.56 0 Z" fill="none" stroke="hsl(187 55% 38%)" stroke-width="1.6" stroke-linejoin="round"/><path d="M 218.1 179.84 a 7.28 7.28 0 1 0 14.56 0 a 7.28 7.28 0 1 0 -14.56 0 Z" fill="none" stroke="hsl(187 55% 38%)" stroke-width="1.6" stroke-linejoin="round"/><path d="M 367.34 179.84 a 7.28 7.28 0 1 0 14.56 0 a 7.28 7.28 0 1 0 -14.56 0 Z" fill="none" stroke="hsl(187 55% 38%)" stroke-width="1.6" stroke-linejoin="round"/><path d="M 472.88 285.38 a 7.28 7.28 0 1 0 14.56 0 a 7.28 7.28 0 1 0 -14.56 0 Z" fill="none" stroke="hsl(187 55% 38%)" stroke-width="1.6" stroke-linejoin="round"/><path d="M 105 360 a 195 195 0 1 0 390 0 a 195 195 0 1 0 -390 0 Z" fill="none" stroke="hsl(187 55% 38%)" stroke-width="1.6" stroke-linejoin="round"/></g>
  <g transform="translate(300,640)">
    <rect x="-110" y="-26" width="220" height="34" rx="17" fill="#ffffff" opacity="0.8"/>
    <text x="0" y="-3" text-anchor="middle" font-family="Quicksand, Arial, sans-serif" font-size="16" font-weight="600" fill="hsl(187 55% 38%)">🌸 Blumen &amp; Botanik</text>
  </g>
  <text x="300" y="700" text-anchor="middle" font-family="Quicksand, Arial, sans-serif" font-size="40" font-weight="700" fill="#2b2540"><tspan x="300" dy="0">Blumen &amp; Botanik –</tspan><tspan x="300" dy="44">Vol. 1</tspan></text>
  <text x="300" y="772" text-anchor="middle" font-family="Arial, sans-serif" font-size="15" fill="#5b5470">Malbuch · 30 Seiten</text>
</svg>