<svg xmlns="http://www.w3.org/2000/svg" viewBox="0 0 600 800" width="600" height="800">
  <defs>
    <linearGradient id="bg" x1="0" y1="0" x2="0" y2="1">
      <stop offset="0" stop-color="hsl(187 70% 95%)"/><stop offset="1" stop-color="hsl(227 70% 92%)"/>
    </linearGradient>
  </defs>
  <rect width="600" height="800" fill="url(#bg)"/>
  <rect x="22" y="22" width="556" height="756" rx="28" fill="none" stroke="hsl(187 55% 38%)" stroke-width="2" opacity="0.5"/>
  <text x="300" y="74" text-anchor="middle" font-family="Quicksand, Arial, sans-serif" font-size="26" font-weight="700" fill="hsl(187 55% 38%)">&#10022; Coloreo</text>
  <g transform="translate(0,40)"><path d="M 323.4 360 Q 335.17 372.84 349.14 360 Q 335.17 347.16 323.4 360 Z" fill="none" stroke="hsl(187 55% 38%)" stroke-width="1.6" stroke-linejoin="round"/><path d="M 321.62 368.95 Q 327.58 385.32 345.4 378.81 Q 337.41 361.6 321.62 368.95 Z" fill="none" stroke="hsl(187 55% 38%)" stroke-width="1.6" stroke-linejoin="round"/><path d="M 316.55 376.55 Q 315.79 393.95 334.75 394.75 Q 333.95 375.79 316.55 376.55 Z" fill="none" stroke="hsl(187 55% 38%)" stroke-width="1.6" stroke-linejoin="round"/><path d="M 308.95 381.62 Q 301.6 397.41 318.81 405.4 Q 325.32 387.58 308.95 381.62 Z" fill="none" stroke="hsl(187 55% 38%)" stroke-width="1.6" stroke-linejoin="round"/><path d="M 300 383.4 Q 287.16 395.17 300 409.14 Q 312.84 395.17 300 383.4 Z" fill="none" stroke="hsl(187 55% 38%)" stroke-width="1.6" stroke-linejoin="round"/><path d="M 291.05 381.62 Q 274.68 387.58 281.19 405.4 Q 298.4 397.41 291.05 381.62 Z" fill="none" stroke="hsl(187 55% 38%)" stroke-width="1.6" stroke-linejoin="round"/><path d="M 283.45 376.55 Q 266.05 375.79 265.25 394.75 Q 284.21 393.95 283.45 376.55 Z" fill="none" stroke="hsl(187 55% 38%)" stroke-width="1.6" stroke-linejoin="round"/><path d="M 278.38 368.95 Q 262.59 361.6 254.6 378.81 Q 272.42 385.32 278.38 368.95 Z" fill="none" stroke="hsl(187 55% 38%)" stroke-width="1.6" stroke-linejoin="round"/><path d="M 276.6 360 Q 264.83 347.16 250.86 360 Q 264.83 372.84 276.6 360 Z" fill="none" stroke="hsl(187 55% 38%)" stroke-width="1.6" stroke-linejoin="round"/><path d="M 278.38 351.05 Q 272.42 334.68 254.6 341.19 Q 262.59 358.4 278.38 351.05 Z" fill="none" stroke="hsl(187 55% 38%)" stroke-width="1.6" stroke-linejoin="round"/><path d="M 283.45 343.45 Q 284.21 326.05 265.25 325.25 Q 266.05 344.21 283.45 343.45 Z" fill="none" stroke="hsl(187 55% 38%)" stroke-width="1.6" stroke-linejoin="round"/><path d="M 291.05 338.38 Q 298.4 322.59 281.19 314.6 Q 274.68 332.42 291.05 338.38 Z" fill="none" stroke="hsl(187 55% 38%)" stroke-width="1.6" stroke-linejoin="round"/><path d="M 300 336.6 Q 312.84 324.83 300 310.86 Q 287.16 324.83 300 336.6 Z" fill="none" stroke="hsl(187 55% 38%)" stroke-width="1.6" stroke-linejoin="round"/><path d="M 308.95 338.38 Q 325.32 332.42 318.81 314.6 Q 301.6 322.59 308.95 338.38 Z" fill="none" stroke="hsl(187 55% 38%)" stroke-width="1.6" stroke-linejoin="round"/><path d="M 316.55 343.45 Q 333.95 344.21 334.75 325.25 Q 315.79 326.05 316.55 343.45 Z" fill="none" stroke="hsl(187 55% 38%)" stroke-width="1.6" stroke-linejoin="round"/><path d="M 321.62 351.05 Q 337.41 358.4 345.4 341.19 Q 327.58 334.68 321.62 351.05 Z" fill="none" stroke="hsl(187 55% 38%)" stroke-width="1.6" stroke-linejoin="round"/><path d="M 300 345.96 C 307.75 345.96 314.04 352.25 314.04 360 C 314.04 367.75 307.75 374.04 300 374.04 C 292.25 374.04 285.96 367.75 285.96 360 C 285.96 352.25 292.25 345.96 300 345.96 Z" fill="none" stroke="hsl(187 55% 38%)" stroke-width="1.6" stroke-linejoin="round"/><path d="M 300 262.5 C 353.85 262.5 397.5 306.15 397.5 360 C 397.5 413.85 353.85 457.5 300 457.5 C 246.15 457.5 202.5 413.85 202.5 360 C 202.5 306.15 246.15 262.5 300 262.5 Z" fill="none" stroke="hsl(187 55% 38%)" stroke-width="1.6" stroke-linejoin="round"/><path d="M 395.63 368.1 C 401.66 368.1 406.55 372.99 406.55 379.02 C 406.55 385.05 401.66 389.94 395.63 389.94 C 389.6 389.94 384.71 385.05 384.71 379.02 C 384.71 372.99 389.6 368.1 395.63 368.1 Z" fill="none" stroke="hsl(187 55% 38%)" stroke-width="1.6" stroke-linejoin="round"/><path d="M 381.07 403.25 C 387.1 403.25 391.99 408.14 391.99 414.17 C 391.99 420.2 387.1 425.09 381.07 425.09 C 375.04 425.09 370.15 420.2 370.15 414.17 C 370.15 408.14 375.04 403.25 381.07 403.25 Z" fill="none" stroke="hsl(187 55% 38%)" stroke-width="1.6" stroke-linejoin="round"/><path d="M 354.17 430.15 C 360.2 430.15 365.09 435.04 365.09 441.07 C 365.09 447.1 360.2 451.99 354.17 451.99 C 348.14 451.99 343.25 447.1 343.25 441.07 C 343.25 435.04 348.14 430.15 354.17 430.15 Z" fill="none" stroke="hsl(187 55% 38%)" stroke-width="1.6" stroke-linejoin="round"/><path d="M 319.02 444.71 C 325.05 444.71 329.94 449.6 329.94 455.63 C 329.94 461.66 325.05 466.55 319.02 466.55 C 312.99 466.55 308.1 461.66 308.1 455.63 C 308.1 449.6 312.99 444.71 319.02 444.71 Z" fill="none" stroke="hsl(187 55% 38%)" stroke-width="1.6" stroke-linejoin="round"/><path d="M 280.98 444.71 C 287.01 444.71 291.9 449.6 291.9 455.63 C 291.9 461.66 287.01 466.55 280.98 466.55 C 274.95 466.55 270.06 461.66 270.06 455.63 C 270.06 449.6 274.95 444.71 280.98 444.71 Z" fill="none" stroke="hsl(187 55% 38%)" stroke-width="1.6" stroke-linejoin="round"/><path d="M 245.83 430.15 C 251.86 430.15 256.75 435.04 256.75 441.07 C 256.75 447.1 251.86 451.99 245.83 451.99 C 239.8 451.99 234.91 447.1 234.91 441.07 C 234.91 435.04 239.8 430.15 245.83 430.15 Z" fill="none" stroke="hsl(187 55% 38%)" stroke-width="1.6" stroke-linejoin="round"/><path d="M 218.93 403.25 C 224.96 403.25 229.85 408.14 229.85 414.17 C 229.85 420.2 224.96 425.09 218.93 425.09 C 212.9 425.09 208.01 420.2 208.01 414.17 C 208.01 408.14 212.9 403.25 218.93 403.25 Z" fill="none" stroke="hsl(187 55% 38%)" stroke-width="1.6" stroke-linejoin="round"/><path d="M 204.37 368.1 C 210.4 368.1 215.29 372.99 215.29 379.02 C 215.29 385.05 210.4 389.94 204.37 389.94 C 198.34 389.94 193.45 385.05 193.45 379.02 C 193.45 372.99 198.34 368.1 204.37 368.1 Z" fill="none" stroke="hsl(187 55% 38%)" stroke-width="1.6" stroke-linejoin="round"/><path d="M 204.37 330.06 C 210.4 330.06 215.29 334.95 215.29 340.98 C 215.29 347.01 210.4 351.9 204.37 351.9 C 198.34 351.9 193.45 347.01 193.45 340.98 C 193.45 334.95 198.34 330.06 204.37 330.06 Z" fill="none" stroke="hsl(187 55% 38%)" stroke-width="1.6" stroke-linejoin="round"/><path d="M 218.93 294.91 C 224.96 294.91 229.85 299.8 229.85 305.83 C 229.85 311.86 224.96 316.75 218.93 316.75 C 212.9 316.75 208.01 311.86 208.01 305.83 C 208.01 299.8 212.9 294.91 218.93 294.91 Z" fill="none" stroke="hsl(187 55% 38%)" stroke-width="1.6" stroke-linejoin="round"/><path d="M 245.83 268.01 C 251.86 268.01 256.75 272.9 256.75 278.93 C 256.75 284.96 251.86 289.85 245.83 289.85 C 239.8 289.85 234.91 284.96 234.91 278.93 C 234.91 272.9 239.8 268.01 245.83 268.01 Z" fill="none" stroke="hsl(187 55% 38%)" stroke-width="1.6" stroke-linejoin="round"/><path d="M 280.98 253.45 C 287.01 253.45 291.9 258.34 291.9 264.37 C 291.9 270.4 287.01 275.29 280.98 275.29 C 274.95 275.29 270.06 270.4 270.06 264.37 C 270.06 258.34 274.95 253.45 280.98 253.45 Z" fill="none" stroke="hsl(187 55% 38%)" stroke-width="1.6" stroke-linejoin="round"/><path d="M 319.02 253.45 C 325.05 253.45 329.94 258.34 329.94 264.37 C 329.94 270.4 325.05 275.29 319.02 275.29 C 312.99 275.29 308.1 270.4 308.1 264.37 C 308.1 258.34 312.99 253.45 319.02 253.45 Z" fill="none" stroke="hsl(187 55% 38%)" stroke-width="1.6" stroke-linejoin="round"/><path d="M 354.17 268.01 C 360.2 268.01 365.09 272.9 365.09 278.93 C 365.09 284.96 360.2 289.85 354.17 289.85 C 348.14 289.85 343.25 284.96 343.25 278.93 C 343.25 272.9 348.14 268.01 354.17 268.01 Z" fill="none" stroke="hsl(187 55% 38%)" stroke-width="1.6" stroke-linejoin="round"/><path d="M 381.07 294.91 C 387.1 294.91 391.99 299.8 391.99 305.83 C 391.99 311.86 387.1 316.75 381.07 316.75 C 375.04 316.75 370.15 311.86 370.15 305.83 C 370.15 299.8 375.04 294.91 381.07 294.91 Z" fill="none" stroke="hsl(187 55% 38%)" stroke-width="1.6" stroke-linejoin="round"/><path d="M 395.63 330.06 C 401.66 330.06 406.55 334.95 406.55 340.98 C 406.55 347.01 401.66 351.9 395.63 351.9 C 389.6 351.9 384.71 347.01 384.71 340.98 C 384.71 334.95 389.6 330.06 395.63 330.06 Z" fill="none" stroke="hsl(187 55% 38%)" stroke-width="1.6" stroke-linejoin="round"/><path d="M 300 213.75 C 380.77 213.75 446.25 279.23 446.25 360 C 446.25 440.77 380.77 506.25 300 506.25 C 219.23 506.25 153.75 440.77 153.75 360 C 153.75 279.23 219.23 213.75 300 213.75 Z" fill="none" stroke="hsl(187 55% 38%)" stroke-width="1.6" stroke-linejoin="round"/><path d="M 446.25 360 L 473.55 360" fill="none" stroke="hsl(187 55% 38%)" stroke-width="1.6" stroke-linejoin="round"/><path d="M 443.44 388.53 L 470.22 393.86" fill="none" stroke="hsl(187 55% 38%)" stroke-width="1.6" stroke-linejoin="round"/><path d="M 435.12 415.97 L 460.34 426.41" fill="none" stroke="hsl(187 55% 38%)" stroke-width="1.6" stroke-linejoin="round"/><path d="M 421.6 441.25 L 444.3 456.42" fill="none" stroke="hsl(187 55% 38%)" stroke-width="1.6" stroke-linejoin="round"/><path d="M 403.41 463.41 L 422.72 482.72" fill="none" stroke="hsl(187 55% 38%)" stroke-width="1.6" stroke-linejoin="round"/><path d="M 381.25 481.6 L 396.42 504.3" fill="none" stroke="hsl(187 55% 38%)" stroke-width="1.6" stroke-linejoin="round"/><path d="M 355.97 495.12 L 366.41 520.34" fill="none" stroke="hsl(187 55% 38%)" stroke-width="1.6" stroke-linejoin="round"/><path d="M 328.53 503.44 L 333.86 530.22" fill="none" stroke="hsl(187 55% 38%)" stroke-width="1.6" stroke-linejoin="round"/><path d="M 300 506.25 L 300 533.55" fill="none" stroke="hsl(187 55% 38%)" stroke-width="1.6" stroke-linejoin="round"/><path d="M 271.47 503.44 L 266.14 530.22" fill="none" stroke="hsl(187 55% 38%)" stroke-width="1.6" stroke-linejoin="round"/><path d="M 244.03 495.12 L 233.59 520.34" fill="none" stroke="hsl(187 55% 38%)" stroke-width="1.6" stroke-linejoin="round"/><path d="M 218.75 481.6 L 203.58 504.3" fill="none" stroke="hsl(187 55% 38%)" stroke-width="1.6" stroke-linejoin="round"/><path d="M 196.59 463.41 L 177.28 482.72" fill="none" stroke="hsl(187 55% 38%)" stroke-width="1.6" stroke-linejoin="round"/><path d="M 178.4 441.25 L 155.7 456.42" fill="none" stroke="hsl(187 55% 38%)" stroke-width="1.6" stroke-linejoin="round"/><path d="M 164.88 415.97 L 139.66 426.41" fill="none" stroke="hsl(187 55% 38%)" stroke-width="1.6" stroke-linejoin="round"/><path d="M 156.56 388.53 L 129.78 393.86" fill="none" stroke="hsl(187 55% 38%)" stroke-width="1.6" stroke-linejoin="round"/><path d="M 153.75 360 L 126.45 360" fill="none" stroke="hsl(187 55% 38%)" stroke-width="1.6" stroke-linejoin="round"/><path d="M 156.56 331.47 L 129.78 326.14" fill="none" stroke="hsl(187 55% 38%)" stroke-width="1.6" stroke-linejoin="round"/><path d="M 164.88 304.03 L 139.66 293.59" fill="none" stroke="hsl(187 55% 38%)" stroke-width="1.6" stroke-linejoin="round"/><path d="M 178.4 278.75 L 155.7 263.58" fill="none" stroke="hsl(187 55% 38%)" stroke-width="1.6" stroke-linejoin="round"/><path d="M 196.59 256.59 L 177.28 237.28" fill="none" stroke="hsl(187 55% 38%)" stroke-width="1.6" stroke-linejoin="round"/><path d="M 218.75 238.4 L 203.58 215.7" fill="none" stroke="hsl(187 55% 38%)" stroke-width="1.6" stroke-linejoin="round"/><path d="M 244.03 224.88 L 233.59 199.66" fill="none" stroke="hsl(187 55% 38%)" stroke-width="1.6" stroke-linejoin="round"/><path d="M 271.47 216.56 L 266.14 189.78" fill="none" stroke="hsl(187 55% 38%)" stroke-width="1.6" stroke-linejoin="round"/><path d="M 300 213.75 L 300 186.45" fill="none" stroke="hsl(187 55% 38%)" stroke-width="1.6" stroke-linejoin="round"/><path d="M 328.53 216.56 L 333.86 189.78" fill="none" stroke="hsl(187 55% 38%)" stroke-width="1.6" stroke-linejoin="round"/><path d="M 355.97 224.88 L 366.41 199.66" fill="none" stroke="hsl(187 55% 38%)" stroke-width="1.6" stroke-linejoin="round"/><path d="M 381.25 238.4 L 396.42 215.7" fill="none" stroke="hsl(187 55% 38%)" stroke-width="1.6" stroke-linejoin="round"/><path d="M 403.41 256.59 L 422.72 237.28" fill="none" stroke="hsl(187 55% 38%)" stroke-width="1.6" stroke-linejoin="round"/><path d="M 421.6 278.75 L 444.3 263.58" fill="none" stroke="hsl(187 55% 38%)" stroke-width="1.6" stroke-linejoin="round"/><path d="M 435.12 304.03 L 460.34 293.59" fill="none" stroke="hsl(187 55% 38%)" stroke-width="1.6" stroke-linejoin="round"/><path d="M 443.44 331.47 L 470.22 326.14" fill="none" stroke="hsl(187 55% 38%)" stroke-width="1.6" stroke-linejoin="round"/><path d="M 300 165 C 407.7 165 495 252.3 495 360 C 495 467.7 407.7 555 300 555 C 192.3 555 105 467.7 105 360 C 105 252.3 192.3 165 300 165 Z" fill="none" stroke="hsl(187 55% 38%)" stroke-width="1.6" stroke-linejoin="round"/><path d="M 491.25 398.04 Q 499.49 438.83 529.5 405.65 Q 514.47 363.51 491.25 398.04 Z" fill="none" stroke="hsl(187 55% 38%)" stroke-width="1.6" stroke-linejoin="round"/><path d="M 462.14 468.34 Q 454.13 509.17 494.56 490 Q 496.8 445.31 462.14 468.34 Z" fill="none" stroke="hsl(187 55% 38%)" stroke-width="1.6" stroke-linejoin="round"/><path d="M 408.34 522.14 Q 385.31 556.8 430 554.56 Q 449.17 514.13 408.34 522.14 Z" fill="none" stroke="hsl(187 55% 38%)" stroke-width="1.6" stroke-linejoin="round"/><path d="M 338.04 551.25 Q 303.51 574.47 345.65 589.5 Q 378.83 559.49 338.04 551.25 Z" fill="none" stroke="hsl(187 55% 38%)" stroke-width="1.6" stroke-linejoin="round"/><path d="M 261.96 551.25 Q 221.17 559.49 254.35 589.5 Q 296.49 574.47 261.96 551.25 Z" fill="none" stroke="hsl(187 55% 38%)" stroke-width="1.6" stroke-linejoin="round"/><path d="M 191.66 522.14 Q 150.83 514.13 170 554.56 Q 214.69 556.8 191.66 522.14 Z" fill="none" stroke="hsl(187 55% 38%)" stroke-width="1.6" stroke-linejoin="round"/><path d="M 137.86 468.34 Q 103.2 445.31 105.44 490 Q 145.87 509.17 137.86 468.34 Z" fill="none" stroke="hsl(187 55% 38%)" stroke-width="1.6" stroke-linejoin="round"/><path d="M 108.75 398.04 Q 85.53 363.51 70.5 405.65 Q 100.51 438.83 108.75 398.04 Z" fill="none" stroke="hsl(187 55% 38%)" stroke-width="1.6" stroke-linejoin="round"/><path d="M 108.75 321.96 Q 100.51 281.17 70.5 314.35 Q 85.53 356.49 108.75 321.96 Z" fill="none" stroke="hsl(187 55% 38%)" stroke-width="1.6" stroke-linejoin="round"/><path d="M 137.86 251.66 Q 145.87 210.83 105.44 230 Q 103.2 274.69 137.86 251.66 Z" fill="none" stroke="hsl(187 55% 38%)" stroke-width="1.6" stroke-linejoin="round"/><path d="M 191.66 197.86 Q 214.69 163.2 170 165.44 Q 150.83 205.87 191.66 197.86 Z" fill="none" stroke="hsl(187 55% 38%)" stroke-width="1.6" stroke-linejoin="round"/><path d="M 261.96 168.75 Q 296.49 145.53 254.35 130.5 Q 221.17 160.51 261.96 168.75 Z" fill="none" stroke="hsl(187 55% 38%)" stroke-width="1.6" stroke-linejoin="round"/><path d="M 338.04 168.75 Q 378.83 160.51 345.65 130.5 Q 303.51 145.53 338.04 168.75 Z" fill="none" stroke="hsl(187 55% 38%)" stroke-width="1.6" stroke-linejoin="round"/><path d="M 408.34 197.86 Q 449.17 205.87 430 165.44 Q 385.31 163.2 408.34 197.86 Z" fill="none" stroke="hsl(187 55% 38%)" stroke-width="1.6" stroke-linejoin="round"/><path d="M 462.14 251.66 Q 496.8 274.69 494.56 230 Q 454.13 210.83 462.14 251.66 Z" fill="none" stroke="hsl(187 55% 38%)" stroke-width="1.6" stroke-linejoin="round"/><path d="M 491.25 321.96 Q 514.47 356.49 529.5 314.35 Q 499.49 281.17 491.25 321.96 Z" fill="none" stroke="hsl(187 55% 38%)" stroke-width="1.6" stroke-linejoin="round"/><path d="M 300 165 C 407.7 165 495 252.3 495 360 C 495 467.7 407.7 555 300 555 C 192.3 555 105 467.7 105 360 C 105 252.3 192.3 165 300 165 Z" fill="none" stroke="hsl(187 55% 38%)" stroke-width="1.6" stroke-linejoin="round"/></g>
  <g transform="translate(300,640)">
    <rect x="-110" y="-26" width="220" height="34" rx="17" fill="#ffffff" opacity="0.8"/>
    <text x="0" y="-3" text-anchor="middle" font-family="Quicksand, Arial, sans-serif" font-size="16" font-weight="600" fill="hsl(187 55% 38%)">🌸 Blumen &amp; Botanik</text>
  </g>
  <text x="300" y="700" text-anchor="middle" font-family="Quicksand, Arial, sans-serif" font-size="40" font-weight="700" fill="#2b2540"><tspan x="300" dy="0">Blumen &amp; Botanik –</tspan><tspan x="300" dy="44">Special Edition</tspan></text>
  <text x="300" y="772" text-anchor="middle" font-family="Arial, sans-serif" font-size="15" fill="#5b5470">Malbuch · 24 Seiten</text>
</svg>