<svg xmlns="http://www.w3.org/2000/svg" viewBox="0 0 600 800" width="600" height="800">
  <defs>
    <linearGradient id="bg" x1="0" y1="0" x2="0" y2="1">
      <stop offset="0" stop-color="hsl(187 70% 95%)"/><stop offset="1" stop-color="hsl(227 70% 92%)"/>
    </linearGradient>
  </defs>
  <rect width="600" height="800" fill="url(#bg)"/>
  <rect x="22" y="22" width="556" height="756" rx="28" fill="none" stroke="hsl(187 55% 38%)" stroke-width="2" opacity="0.5"/>
  <text x="300" y="74" text-anchor="middle" font-family="Quicksand, Arial, sans-serif" font-size="26" font-weight="700" fill="hsl(187 55% 38%)">&#10022; Coloreo</text>
  <g transform="translate(0,40)"><path d="M 323.4 360 Q 335.17 372.84 349.14 360 Q 335.17 347.16 323.4 360 Z" fill="none" stroke="hsl(187 55% 38%)" stroke-width="1.6" stroke-linejoin="round"/><path d="M 316.55 376.55 Q 315.79 393.95 334.75 394.75 Q 333.95 375.79 316.55 376.55 Z" fill="none" stroke="hsl(187 55% 38%)" stroke-width="1.6" stroke-linejoin="round"/><path d="M 300 383.4 Q 287.16 395.17 300 409.14 Q 312.84 395.17 300 383.4 Z" fill="none" stroke="hsl(187 55% 38%)" stroke-width="1.6" stroke-linejoin="round"/><path d="M 283.45 376.55 Q 266.05 375.79 265.25 394.75 Q 284.21 393.95 283.45 376.55 Z" fill="none" stroke="hsl(187 55% 38%)" stroke-width="1.6" stroke-linejoin="round"/><path d="M 276.6 360 Q 264.83 347.16 250.86 360 Q 264.83 372.84 276.6 360 Z" fill="none" stroke="hsl(187 55% 38%)" stroke-width="1.6" stroke-linejoin="round"/><path d="M 283.45 343.45 Q 284.21 326.05 265.25 325.25 Q 266.05 344.21 283.45 343.45 Z" fill="none" stroke="hsl(187 55% 38%)" stroke-width="1.6" stroke-linejoin="round"/><path d="M 300 336.6 Q 312.84 324.83 300 310.86 Q 287.16 324.83 300 336.6 Z" fill="none" stroke="hsl(187 55% 38%)" stroke-width="1.6" stroke-linejoin="round"/><path d="M 316.55 343.45 Q 333.95 344.21 334.75 325.25 Q 315.79 326.05 316.55 343.45 Z" fill="none" stroke="hsl(187 55% 38%)" stroke-width="1.6" stroke-linejoin="round"/><path d="M 300 345.96 C 307.75 345.96 314.04 352.25 314.04 360 C 314.04 367.75 307.75 374.04 300 374.04 C 292.25 374.04 285.96 367.75 285.96 360 C 285.96 352.25 292.25 345.96 300 345.96 Z" fill="none" stroke="hsl(187 55% 38%)" stroke-width="1.6" stroke-linejoin="round"/><path d="M 300 295 C 335.9 295 365 324.1 365 360 C 365 395.9 335.9 425 300 425 C 264.1 425 235 395.9 235 360 C 235 324.1 264.1 295 300 295 Z" fill="none" stroke="hsl(187 55% 38%)" stroke-width="1.6" stroke-linejoin="round"/><path d="M 360.05 384.87 L 376.87 391.84" fill="none" stroke="hsl(187 55% 38%)" stroke-width="1.6" stroke-linejoin="round"/><path d="M 324.87 420.05 L 331.84 436.87" fill="none" stroke="hsl(187 55% 38%)" stroke-width="1.6" stroke-linejoin="round"/><path d="M 275.13 420.05 L 268.16 436.87" fill="none" stroke="hsl(187 55% 38%)" stroke-width="1.6" stroke-linejoin="round"/><path d="M 239.95 384.87 L 223.13 391.84" fill="none" stroke="hsl(187 55% 38%)" stroke-width="1.6" stroke-linejoin="round"/><path d="M 239.95 335.13 L 223.13 328.16" fill="none" stroke="hsl(187 55% 38%)" stroke-width="1.6" stroke-linejoin="round"/><path d="M 275.13 299.95 L 268.16 283.13" fill="none" stroke="hsl(187 55% 38%)" stroke-width="1.6" stroke-linejoin="round"/><path d="M 324.87 299.95 L 331.84 283.13" fill="none" stroke="hsl(187 55% 38%)" stroke-width="1.6" stroke-linejoin="round"/><path d="M 360.05 335.13 L 376.87 328.16" fill="none" stroke="hsl(187 55% 38%)" stroke-width="1.6" stroke-linejoin="round"/><path d="M 300 262.5 C 353.85 262.5 397.5 306.15 397.5 360 C 397.5 413.85 353.85 457.5 300 457.5 C 246.15 457.5 202.5 413.85 202.5 360 C 202.5 306.15 246.15 262.5 300 262.5 Z" fill="none" stroke="hsl(187 55% 38%)" stroke-width="1.6" stroke-linejoin="round"/><path d="M 397.5 360 Q 408.71 379.78 423.5 360 Q 408.71 340.22 397.5 360 Z" fill="none" stroke="hsl(187 55% 38%)" stroke-width="1.6" stroke-linejoin="round"/><path d="M 390.08 397.31 Q 392.87 419.88 414.1 407.26 Q 408.01 383.33 390.08 397.31 Z" fill="none" stroke="hsl(187 55% 38%)" stroke-width="1.6" stroke-linejoin="round"/><path d="M 368.94 428.94 Q 362.88 450.86 387.33 447.33 Q 390.86 422.88 368.94 428.94 Z" fill="none" stroke="hsl(187 55% 38%)" stroke-width="1.6" stroke-linejoin="round"/><path d="M 337.31 450.08 Q 323.33 468.01 347.26 474.1 Q 359.88 452.87 337.31 450.08 Z" fill="none" stroke="hsl(187 55% 38%)" stroke-width="1.6" stroke-linejoin="round"/><path d="M 300 457.5 Q 280.22 468.71 300 483.5 Q 319.78 468.71 300 457.5 Z" fill="none" stroke="hsl(187 55% 38%)" stroke-width="1.6" stroke-linejoin="round"/><path d="M 262.69 450.08 Q 240.12 452.87 252.74 474.1 Q 276.67 468.01 262.69 450.08 Z" fill="none" stroke="hsl(187 55% 38%)" stroke-width="1.6" stroke-linejoin="round"/><path d="M 231.06 428.94 Q 209.14 422.88 212.67 447.33 Q 237.12 450.86 231.06 428.94 Z" fill="none" stroke="hsl(187 55% 38%)" stroke-width="1.6" stroke-linejoin="round"/><path d="M 209.92 397.31 Q 191.99 383.33 185.9 407.26 Q 207.13 419.88 209.92 397.31 Z" fill="none" stroke="hsl(187 55% 38%)" stroke-width="1.6" stroke-linejoin="round"/><path d="M 202.5 360 Q 191.29 340.22 176.5 360 Q 191.29 379.78 202.5 360 Z" fill="none" stroke="hsl(187 55% 38%)" stroke-width="1.6" stroke-linejoin="round"/><path d="M 209.92 322.69 Q 207.13 300.12 185.9 312.74 Q 191.99 336.67 209.92 322.69 Z" fill="none" stroke="hsl(187 55% 38%)" stroke-width="1.6" stroke-linejoin="round"/><path d="M 231.06 291.06 Q 237.12 269.14 212.67 272.67 Q 209.14 297.12 231.06 291.06 Z" fill="none" stroke="hsl(187 55% 38%)" stroke-width="1.6" stroke-linejoin="round"/><path d="M 262.69 269.92 Q 276.67 251.99 252.74 245.9 Q 240.12 267.13 262.69 269.92 Z" fill="none" stroke="hsl(187 55% 38%)" stroke-width="1.6" stroke-linejoin="round"/><path d="M 300 262.5 Q 319.78 251.29 300 236.5 Q 280.22 251.29 300 262.5 Z" fill="none" stroke="hsl(187 55% 38%)" stroke-width="1.6" stroke-linejoin="round"/><path d="M 337.31 269.92 Q 359.88 267.13 347.26 245.9 Q 323.33 251.99 337.31 269.92 Z" fill="none" stroke="hsl(187 55% 38%)" stroke-width="1.6" stroke-linejoin="round"/><path d="M 368.94 291.06 Q 390.86 297.12 387.33 272.67 Q 362.88 269.14 368.94 291.06 Z" fill="none" stroke="hsl(187 55% 38%)" stroke-width="1.6" stroke-linejoin="round"/><path d="M 390.08 322.69 Q 408.01 336.67 414.1 312.74 Q 392.87 300.12 390.08 322.69 Z" fill="none" stroke="hsl(187 55% 38%)" stroke-width="1.6" stroke-linejoin="round"/><path d="M 300 230 C 371.8 230 430 288.2 430 360 C 430 431.8 371.8 490 300 490 C 228.2 490 170 431.8 170 360 C 170 288.2 228.2 230 300 230 Z" fill="none" stroke="hsl(187 55% 38%)" stroke-width="1.6" stroke-linejoin="round"/><path d="M 420.1 409.75 Q 420.18 437.49 444.13 419.7 Q 439.78 390.19 420.1 409.75 Z" fill="none" stroke="hsl(187 55% 38%)" stroke-width="1.6" stroke-linejoin="round"/><path d="M 349.75 480.1 Q 330.19 499.78 359.7 504.13 Q 377.49 480.18 349.75 480.1 Z" fill="none" stroke="hsl(187 55% 38%)" stroke-width="1.6" stroke-linejoin="round"/><path d="M 250.25 480.1 Q 222.51 480.18 240.3 504.13 Q 269.81 499.78 250.25 480.1 Z" fill="none" stroke="hsl(187 55% 38%)" stroke-width="1.6" stroke-linejoin="round"/><path d="M 179.9 409.75 Q 160.22 390.19 155.87 419.7 Q 179.82 437.49 179.9 409.75 Z" fill="none" stroke="hsl(187 55% 38%)" stroke-width="1.6" stroke-linejoin="round"/><path d="M 179.9 310.25 Q 179.82 282.51 155.87 300.3 Q 160.22 329.81 179.9 310.25 Z" fill="none" stroke="hsl(187 55% 38%)" stroke-width="1.6" stroke-linejoin="round"/><path d="M 250.25 239.9 Q 269.81 220.22 240.3 215.87 Q 222.51 239.82 250.25 239.9 Z" fill="none" stroke="hsl(187 55% 38%)" stroke-width="1.6" stroke-linejoin="round"/><path d="M 349.75 239.9 Q 377.49 239.82 359.7 215.87 Q 330.19 220.22 349.75 239.9 Z" fill="none" stroke="hsl(187 55% 38%)" stroke-width="1.6" stroke-linejoin="round"/><path d="M 420.1 310.25 Q 439.78 329.81 444.13 300.3 Q 420.18 282.51 420.1 310.25 Z" fill="none" stroke="hsl(187 55% 38%)" stroke-width="1.6" stroke-linejoin="round"/><path d="M 300 197.5 C 389.75 197.5 462.5 270.25 462.5 360 C 462.5 449.75 389.75 522.5 300 522.5 C 210.25 522.5 137.5 449.75 137.5 360 C 137.5 270.25 210.25 197.5 300 197.5 Z" fill="none" stroke="hsl(187 55% 38%)" stroke-width="1.6" stroke-linejoin="round"/><path d="M 462.5 360 Q 472.66 391.42 488.5 360 Q 472.66 328.58 462.5 360 Z" fill="none" stroke="hsl(187 55% 38%)" stroke-width="1.6" stroke-linejoin="round"/><path d="M 450.13 422.19 Q 447.5 455.1 474.15 432.14 Q 471.55 397.05 450.13 422.19 Z" fill="none" stroke="hsl(187 55% 38%)" stroke-width="1.6" stroke-linejoin="round"/><path d="M 414.9 474.9 Q 399.88 504.31 433.29 493.29 Q 444.31 459.88 414.9 474.9 Z" fill="none" stroke="hsl(187 55% 38%)" stroke-width="1.6" stroke-linejoin="round"/><path d="M 362.19 510.13 Q 337.05 531.55 372.14 534.15 Q 395.1 507.5 362.19 510.13 Z" fill="none" stroke="hsl(187 55% 38%)" stroke-width="1.6" stroke-linejoin="round"/><path d="M 300 522.5 Q 268.58 532.66 300 548.5 Q 331.42 532.66 300 522.5 Z" fill="none" stroke="hsl(187 55% 38%)" stroke-width="1.6" stroke-linejoin="round"/><path d="M 237.81 510.13 Q 204.9 507.5 227.86 534.15 Q 262.95 531.55 237.81 510.13 Z" fill="none" stroke="hsl(187 55% 38%)" stroke-width="1.6" stroke-linejoin="round"/><path d="M 185.1 474.9 Q 155.69 459.88 166.71 493.29 Q 200.12 504.31 185.1 474.9 Z" fill="none" stroke="hsl(187 55% 38%)" stroke-width="1.6" stroke-linejoin="round"/><path d="M 149.87 422.19 Q 128.45 397.05 125.85 432.14 Q 152.5 455.1 149.87 422.19 Z" fill="none" stroke="hsl(187 55% 38%)" stroke-width="1.6" stroke-linejoin="round"/><path d="M 137.5 360 Q 127.34 328.58 111.5 360 Q 127.34 391.42 137.5 360 Z" fill="none" stroke="hsl(187 55% 38%)" stroke-width="1.6" stroke-linejoin="round"/><path d="M 149.87 297.81 Q 152.5 264.9 125.85 287.86 Q 128.45 322.95 149.87 297.81 Z" fill="none" stroke="hsl(187 55% 38%)" stroke-width="1.6" stroke-linejoin="round"/><path d="M 185.1 245.1 Q 200.12 215.69 166.71 226.71 Q 155.69 260.12 185.1 245.1 Z" fill="none" stroke="hsl(187 55% 38%)" stroke-width="1.6" stroke-linejoin="round"/><path d="M 237.81 209.87 Q 262.95 188.45 227.86 185.85 Q 204.9 212.5 237.81 209.87 Z" fill="none" stroke="hsl(187 55% 38%)" stroke-width="1.6" stroke-linejoin="round"/><path d="M 300 197.5 Q 331.42 187.34 300 171.5 Q 268.58 187.34 300 197.5 Z" fill="none" stroke="hsl(187 55% 38%)" stroke-width="1.6" stroke-linejoin="round"/><path d="M 362.19 209.87 Q 395.1 212.5 372.14 185.85 Q 337.05 188.45 362.19 209.87 Z" fill="none" stroke="hsl(187 55% 38%)" stroke-width="1.6" stroke-linejoin="round"/><path d="M 414.9 245.1 Q 444.31 260.12 433.29 226.71 Q 399.88 215.69 414.9 245.1 Z" fill="none" stroke="hsl(187 55% 38%)" stroke-width="1.6" stroke-linejoin="round"/><path d="M 450.13 297.81 Q 471.55 322.95 474.15 287.86 Q 447.5 264.9 450.13 297.81 Z" fill="none" stroke="hsl(187 55% 38%)" stroke-width="1.6" stroke-linejoin="round"/><path d="M 300 165 C 407.7 165 495 252.3 495 360 C 495 467.7 407.7 555 300 555 C 192.3 555 105 467.7 105 360 C 105 252.3 192.3 165 300 165 Z" fill="none" stroke="hsl(187 55% 38%)" stroke-width="1.6" stroke-linejoin="round"/><path d="M 480.16 427.34 C 484.18 427.34 487.44 430.6 487.44 434.62 C 487.44 438.64 484.18 441.9 480.16 441.9 C 476.14 441.9 472.88 438.64 472.88 434.62 C 472.88 430.6 476.14 427.34 480.16 427.34 Z" fill="none" stroke="hsl(187 55% 38%)" stroke-width="1.6" stroke-linejoin="round"/><path d="M 374.62 532.88 C 378.64 532.88 381.9 536.14 381.9 540.16 C 381.9 544.18 378.64 547.44 374.62 547.44 C 370.6 547.44 367.34 544.18 367.34 540.16 C 367.34 536.14 370.6 532.88 374.62 532.88 Z" fill="none" stroke="hsl(187 55% 38%)" stroke-width="1.6" stroke-linejoin="round"/><path d="M 225.38 532.88 C 229.4 532.88 232.66 536.14 232.66 540.16 C 232.66 544.18 229.4 547.44 225.38 547.44 C 221.36 547.44 218.1 544.18 218.1 540.16 C 218.1 536.14 221.36 532.88 225.38 532.88 Z" fill="none" stroke="hsl(187 55% 38%)" stroke-width="1.6" stroke-linejoin="round"/><path d="M 119.84 427.34 C 123.86 427.34 127.12 430.6 127.12 434.62 C 127.12 438.64 123.86 441.9 119.84 441.9 C 115.82 441.9 112.56 438.64 112.56 434.62 C 112.56 430.6 115.82 427.34 119.84 427.34 Z" fill="none" stroke="hsl(187 55% 38%)" stroke-width="1.6" stroke-linejoin="round"/><path d="M 119.84 278.1 C 123.86 278.1 127.12 281.36 127.12 285.38 C 127.12 289.4 123.86 292.66 119.84 292.66 C 115.82 292.66 112.56 289.4 112.56 285.38 C 112.56 281.36 115.82 278.1 119.84 278.1 Z" fill="none" stroke="hsl(187 55% 38%)" stroke-width="1.6" stroke-linejoin="round"/><path d="M 225.38 172.56 C 229.4 172.56 232.66 175.82 232.66 179.84 C 232.66 183.86 229.4 187.12 225.38 187.12 C 221.36 187.12 218.1 183.86 218.1 179.84 C 218.1 175.82 221.36 172.56 225.38 172.56 Z" fill="none" stroke="hsl(187 55% 38%)" stroke-width="1.6" stroke-linejoin="round"/><path d="M 374.62 172.56 C 378.64 172.56 381.9 175.82 381.9 179.84 C 381.9 183.86 378.64 187.12 374.62 187.12 C 370.6 187.12 367.34 183.86 367.34 179.84 C 367.34 175.82 370.6 172.56 374.62 172.56 Z" fill="none" stroke="hsl(187 55% 38%)" stroke-width="1.6" stroke-linejoin="round"/><path d="M 480.16 278.1 C 484.18 278.1 487.44 281.36 487.44 285.38 C 487.44 289.4 484.18 292.66 480.16 292.66 C 476.14 292.66 472.88 289.4 472.88 285.38 C 472.88 281.36 476.14 278.1 480.16 278.1 Z" fill="none" stroke="hsl(187 55% 38%)" stroke-width="1.6" stroke-linejoin="round"/><path d="M 300 165 C 407.7 165 495 252.3 495 360 C 495 467.7 407.7 555 300 555 C 192.3 555 105 467.7 105 360 C 105 252.3 192.3 165 300 165 Z" fill="none" stroke="hsl(187 55% 38%)" stroke-width="1.6" stroke-linejoin="round"/></g>
  <g transform="translate(300,640)">
    <rect x="-110" y="-26" width="220" height="34" rx="17" fill="#ffffff" opacity="0.8"/>
    <text x="0" y="-3" text-anchor="middle" font-family="Quicksand, Arial, sans-serif" font-size="16" font-weight="600" fill="hsl(187 55% 38%)">🌸 Blumen &amp; Botanik</text>
  </g>
  <text x="300" y="700" text-anchor="middle" font-family="Quicksand, Arial, sans-serif" font-size="40" font-weight="700" fill="#2b2540"><tspan x="300" dy="0">Blumen &amp; Botanik –</tspan><tspan x="300" dy="44">Vol. 1</tspan></text>
  <text x="300" y="772" text-anchor="middle" font-family="Arial, sans-serif" font-size="15" fill="#5b5470">Malbuch · 24 Seiten</text>
</svg>