<svg xmlns="http://www.w3.org/2000/svg" viewBox="0 0 600 800" width="600" height="800">
  <defs>
    <linearGradient id="bg" x1="0" y1="0" x2="0" y2="1">
      <stop offset="0" stop-color="hsl(11 70% 95%)"/><stop offset="1" stop-color="hsl(51 70% 92%)"/>
    </linearGradient>
  </defs>
  <rect width="600" height="800" fill="url(#bg)"/>
  <rect x="22" y="22" width="556" height="756" rx="28" fill="none" stroke="hsl(11 55% 38%)" stroke-width="2" opacity="0.5"/>
  <text x="300" y="74" text-anchor="middle" font-family="Quicksand, Arial, sans-serif" font-size="26" font-weight="700" fill="hsl(11 55% 38%)">&#10022; Coloreo</text>
  <g transform="translate(0,40)"><path d="M 323.4 360 Q 335.17 372.84 349.14 360 Q 335.17 347.16 323.4 360 Z" fill="none" stroke="hsl(11 55% 38%)" stroke-width="1.6" stroke-linejoin="round"/><path d="M 316.55 376.55 Q 315.79 393.95 334.75 394.75 Q 333.95 375.79 316.55 376.55 Z" fill="none" stroke="hsl(11 55% 38%)" stroke-width="1.6" stroke-linejoin="round"/><path d="M 300 383.4 Q 287.16 395.17 300 409.14 Q 312.84 395.17 300 383.4 Z" fill="none" stroke="hsl(11 55% 38%)" stroke-width="1.6" stroke-linejoin="round"/><path d="M 283.45 376.55 Q 266.05 375.79 265.25 394.75 Q 284.21 393.95 283.45 376.55 Z" fill="none" stroke="hsl(11 55% 38%)" stroke-width="1.6" stroke-linejoin="round"/><path d="M 276.6 360 Q 264.83 347.16 250.86 360 Q 264.83 372.84 276.6 360 Z" fill="none" stroke="hsl(11 55% 38%)" stroke-width="1.6" stroke-linejoin="round"/><path d="M 283.45 343.45 Q 284.21 326.05 265.25 325.25 Q 266.05 344.21 283.45 343.45 Z" fill="none" stroke="hsl(11 55% 38%)" stroke-width="1.6" stroke-linejoin="round"/><path d="M 300 336.6 Q 312.84 324.83 300 310.86 Q 287.16 324.83 300 336.6 Z" fill="none" stroke="hsl(11 55% 38%)" stroke-width="1.6" stroke-linejoin="round"/><path d="M 316.55 343.45 Q 333.95 344.21 334.75 325.25 Q 315.79 326.05 316.55 343.45 Z" fill="none" stroke="hsl(11 55% 38%)" stroke-width="1.6" stroke-linejoin="round"/><path d="M 285.96 360 a 14.04 14.04 0 1 0 28.08 0 a 14.04 14.04 0 1 0 -28.08 0 Z" fill="none" stroke="hsl(11 55% 38%)" stroke-width="1.6" stroke-linejoin="round"/><path d="M 202.5 360 a 97.5 97.5 0 1 0 195 0 a 97.5 97.5 0 1 0 -195 0 Z" fill="none" stroke="hsl(11 55% 38%)" stroke-width="1.6" stroke-linejoin="round"/><path d="M 390.08 397.31 L 415.3 407.76" fill="none" stroke="hsl(11 55% 38%)" stroke-width="1.6" stroke-linejoin="round"/><path d="M 337.31 450.08 L 347.76 475.3" fill="none" stroke="hsl(11 55% 38%)" stroke-width="1.6" stroke-linejoin="round"/><path d="M 262.69 450.08 L 252.24 475.3" fill="none" stroke="hsl(11 55% 38%)" stroke-width="1.6" stroke-linejoin="round"/><path d="M 209.92 397.31 L 184.7 407.76" fill="none" stroke="hsl(11 55% 38%)" stroke-width="1.6" stroke-linejoin="round"/><path d="M 209.92 322.69 L 184.7 312.24" fill="none" stroke="hsl(11 55% 38%)" stroke-width="1.6" stroke-linejoin="round"/><path d="M 262.69 269.92 L 252.24 244.7" fill="none" stroke="hsl(11 55% 38%)" stroke-width="1.6" stroke-linejoin="round"/><path d="M 337.31 269.92 L 347.76 244.7" fill="none" stroke="hsl(11 55% 38%)" stroke-width="1.6" stroke-linejoin="round"/><path d="M 390.08 322.69 L 415.3 312.24" fill="none" stroke="hsl(11 55% 38%)" stroke-width="1.6" stroke-linejoin="round"/><path d="M 153.75 360 a 146.25 146.25 0 1 0 292.5 0 a 146.25 146.25 0 1 0 -292.5 0 Z" fill="none" stroke="hsl(11 55% 38%)" stroke-width="1.6" stroke-linejoin="round"/><path d="M 446.25 360 L 473.55 360" fill="none" stroke="hsl(11 55% 38%)" stroke-width="1.6" stroke-linejoin="round"/><path d="M 435.12 415.97 L 460.34 426.41" fill="none" stroke="hsl(11 55% 38%)" stroke-width="1.6" stroke-linejoin="round"/><path d="M 403.41 463.41 L 422.72 482.72" fill="none" stroke="hsl(11 55% 38%)" stroke-width="1.6" stroke-linejoin="round"/><path d="M 355.97 495.12 L 366.41 520.34" fill="none" stroke="hsl(11 55% 38%)" stroke-width="1.6" stroke-linejoin="round"/><path d="M 300 506.25 L 300 533.55" fill="none" stroke="hsl(11 55% 38%)" stroke-width="1.6" stroke-linejoin="round"/><path d="M 244.03 495.12 L 233.59 520.34" fill="none" stroke="hsl(11 55% 38%)" stroke-width="1.6" stroke-linejoin="round"/><path d="M 196.59 463.41 L 177.28 482.72" fill="none" stroke="hsl(11 55% 38%)" stroke-width="1.6" stroke-linejoin="round"/><path d="M 164.88 415.97 L 139.66 426.41" fill="none" stroke="hsl(11 55% 38%)" stroke-width="1.6" stroke-linejoin="round"/><path d="M 153.75 360 L 126.45 360" fill="none" stroke="hsl(11 55% 38%)" stroke-width="1.6" stroke-linejoin="round"/><path d="M 164.88 304.03 L 139.66 293.59" fill="none" stroke="hsl(11 55% 38%)" stroke-width="1.6" stroke-linejoin="round"/><path d="M 196.59 256.59 L 177.28 237.28" fill="none" stroke="hsl(11 55% 38%)" stroke-width="1.6" stroke-linejoin="round"/><path d="M 244.03 224.88 L 233.59 199.66" fill="none" stroke="hsl(11 55% 38%)" stroke-width="1.6" stroke-linejoin="round"/><path d="M 300 213.75 L 300 186.45" fill="none" stroke="hsl(11 55% 38%)" stroke-width="1.6" stroke-linejoin="round"/><path d="M 355.97 224.88 L 366.41 199.66" fill="none" stroke="hsl(11 55% 38%)" stroke-width="1.6" stroke-linejoin="round"/><path d="M 403.41 256.59 L 422.72 237.28" fill="none" stroke="hsl(11 55% 38%)" stroke-width="1.6" stroke-linejoin="round"/><path d="M 435.12 304.03 L 460.34 293.59" fill="none" stroke="hsl(11 55% 38%)" stroke-width="1.6" stroke-linejoin="round"/><path d="M 105 360 a 195 195 0 1 0 390 0 a 195 195 0 1 0 -390 0 Z" fill="none" stroke="hsl(11 55% 38%)" stroke-width="1.6" stroke-linejoin="round"/><path d="M 469.24 434.62 a 10.92 10.92 0 1 0 21.84 0 a 10.92 10.92 0 1 0 -21.84 0 Z" fill="none" stroke="hsl(11 55% 38%)" stroke-width="1.6" stroke-linejoin="round"/><path d="M 363.7 540.16 a 10.92 10.92 0 1 0 21.84 0 a 10.92 10.92 0 1 0 -21.84 0 Z" fill="none" stroke="hsl(11 55% 38%)" stroke-width="1.6" stroke-linejoin="round"/><path d="M 214.46 540.16 a 10.92 10.92 0 1 0 21.84 0 a 10.92 10.92 0 1 0 -21.84 0 Z" fill="none" stroke="hsl(11 55% 38%)" stroke-width="1.6" stroke-linejoin="round"/><path d="M 108.92 434.62 a 10.92 10.92 0 1 0 21.84 0 a 10.92 10.92 0 1 0 -21.84 0 Z" fill="none" stroke="hsl(11 55% 38%)" stroke-width="1.6" stroke-linejoin="round"/><path d="M 108.92 285.38 a 10.92 10.92 0 1 0 21.84 0 a 10.92 10.92 0 1 0 -21.84 0 Z" fill="none" stroke="hsl(11 55% 38%)" stroke-width="1.6" stroke-linejoin="round"/><path d="M 214.46 179.84 a 10.92 10.92 0 1 0 21.84 0 a 10.92 10.92 0 1 0 -21.84 0 Z" fill="none" stroke="hsl(11 55% 38%)" stroke-width="1.6" stroke-linejoin="round"/><path d="M 363.7 179.84 a 10.92 10.92 0 1 0 21.84 0 a 10.92 10.92 0 1 0 -21.84 0 Z" fill="none" stroke="hsl(11 55% 38%)" stroke-width="1.6" stroke-linejoin="round"/><path d="M 469.24 285.38 a 10.92 10.92 0 1 0 21.84 0 a 10.92 10.92 0 1 0 -21.84 0 Z" fill="none" stroke="hsl(11 55% 38%)" stroke-width="1.6" stroke-linejoin="round"/><path d="M 105 360 a 195 195 0 1 0 390 0 a 195 195 0 1 0 -390 0 Z" fill="none" stroke="hsl(11 55% 38%)" stroke-width="1.6" stroke-linejoin="round"/></g>
  <g transform="translate(300,640)">
    <rect x="-110" y="-26" width="220" height="34" rx="17" fill="#ffffff" opacity="0.8"/>
    <text x="0" y="-3" text-anchor="middle" font-family="Quicksand, Arial, sans-serif" font-size="16" font-weight="600" fill="hsl(11 55% 38%)">🦕 Dinosaurier</text>
  </g>
  <text x="300" y="700" text-anchor="middle" font-family="Quicksand, Arial, sans-serif" font-size="40" font-weight="700" fill="#2b2540"><tspan x="300" dy="0">Dinosaurier – Vol.</tspan><tspan x="300" dy="44">2</tspan></text>
  <text x="300" y="772" text-anchor="middle" font-family="Arial, sans-serif" font-size="15" fill="#5b5470">Malbuch · 40 Seiten</text>
</svg>