<svg xmlns="http://www.w3.org/2000/svg" viewBox="0 0 600 800" width="600" height="800">
  <defs>
    <linearGradient id="bg" x1="0" y1="0" x2="0" y2="1">
      <stop offset="0" stop-color="hsl(11 70% 95%)"/><stop offset="1" stop-color="hsl(51 70% 92%)"/>
    </linearGradient>
  </defs>
  <rect width="600" height="800" fill="url(#bg)"/>
  <rect x="22" y="22" width="556" height="756" rx="28" fill="none" stroke="hsl(11 55% 38%)" stroke-width="2" opacity="0.5"/>
  <text x="300" y="74" text-anchor="middle" font-family="Quicksand, Arial, sans-serif" font-size="26" font-weight="700" fill="hsl(11 55% 38%)">&#10022; Coloreo</text>
  <g transform="translate(0,40)"><path d="M 323.4 360 Q 335.17 372.84 349.14 360 Q 335.17 347.16 323.4 360 Z" fill="none" stroke="hsl(11 55% 38%)" stroke-width="1.6" stroke-linejoin="round"/><path d="M 316.55 376.55 Q 315.79 393.95 334.75 394.75 Q 333.95 375.79 316.55 376.55 Z" fill="none" stroke="hsl(11 55% 38%)" stroke-width="1.6" stroke-linejoin="round"/><path d="M 300 383.4 Q 287.16 395.17 300 409.14 Q 312.84 395.17 300 383.4 Z" fill="none" stroke="hsl(11 55% 38%)" stroke-width="1.6" stroke-linejoin="round"/><path d="M 283.45 376.55 Q 266.05 375.79 265.25 394.75 Q 284.21 393.95 283.45 376.55 Z" fill="none" stroke="hsl(11 55% 38%)" stroke-width="1.6" stroke-linejoin="round"/><path d="M 276.6 360 Q 264.83 347.16 250.86 360 Q 264.83 372.84 276.6 360 Z" fill="none" stroke="hsl(11 55% 38%)" stroke-width="1.6" stroke-linejoin="round"/><path d="M 283.45 343.45 Q 284.21 326.05 265.25 325.25 Q 266.05 344.21 283.45 343.45 Z" fill="none" stroke="hsl(11 55% 38%)" stroke-width="1.6" stroke-linejoin="round"/><path d="M 300 336.6 Q 312.84 324.83 300 310.86 Q 287.16 324.83 300 336.6 Z" fill="none" stroke="hsl(11 55% 38%)" stroke-width="1.6" stroke-linejoin="round"/><path d="M 316.55 343.45 Q 333.95 344.21 334.75 325.25 Q 315.79 326.05 316.55 343.45 Z" fill="none" stroke="hsl(11 55% 38%)" stroke-width="1.6" stroke-linejoin="round"/><path d="M 300 345.96 C 307.75 345.96 314.04 352.25 314.04 360 C 314.04 367.75 307.75 374.04 300 374.04 C 292.25 374.04 285.96 367.75 285.96 360 C 285.96 352.25 292.25 345.96 300 345.96 Z" fill="none" stroke="hsl(11 55% 38%)" stroke-width="1.6" stroke-linejoin="round"/><path d="M 300 262.5 C 353.85 262.5 397.5 306.15 397.5 360 C 397.5 413.85 353.85 457.5 300 457.5 C 246.15 457.5 202.5 413.85 202.5 360 C 202.5 306.15 246.15 262.5 300 262.5 Z" fill="none" stroke="hsl(11 55% 38%)" stroke-width="1.6" stroke-linejoin="round"/><path d="M 390.08 397.31 L 415.3 407.76" fill="none" stroke="hsl(11 55% 38%)" stroke-width="1.6" stroke-linejoin="round"/><path d="M 337.31 450.08 L 347.76 475.3" fill="none" stroke="hsl(11 55% 38%)" stroke-width="1.6" stroke-linejoin="round"/><path d="M 262.69 450.08 L 252.24 475.3" fill="none" stroke="hsl(11 55% 38%)" stroke-width="1.6" stroke-linejoin="round"/><path d="M 209.92 397.31 L 184.7 407.76" fill="none" stroke="hsl(11 55% 38%)" stroke-width="1.6" stroke-linejoin="round"/><path d="M 209.92 322.69 L 184.7 312.24" fill="none" stroke="hsl(11 55% 38%)" stroke-width="1.6" stroke-linejoin="round"/><path d="M 262.69 269.92 L 252.24 244.7" fill="none" stroke="hsl(11 55% 38%)" stroke-width="1.6" stroke-linejoin="round"/><path d="M 337.31 269.92 L 347.76 244.7" fill="none" stroke="hsl(11 55% 38%)" stroke-width="1.6" stroke-linejoin="round"/><path d="M 390.08 322.69 L 415.3 312.24" fill="none" stroke="hsl(11 55% 38%)" stroke-width="1.6" stroke-linejoin="round"/><path d="M 300 213.75 C 380.77 213.75 446.25 279.23 446.25 360 C 446.25 440.77 380.77 506.25 300 506.25 C 219.23 506.25 153.75 440.77 153.75 360 C 153.75 279.23 219.23 213.75 300 213.75 Z" fill="none" stroke="hsl(11 55% 38%)" stroke-width="1.6" stroke-linejoin="round"/><path d="M 446.25 360 L 473.55 360" fill="none" stroke="hsl(11 55% 38%)" stroke-width="1.6" stroke-linejoin="round"/><path d="M 435.12 415.97 L 460.34 426.41" fill="none" stroke="hsl(11 55% 38%)" stroke-width="1.6" stroke-linejoin="round"/><path d="M 403.41 463.41 L 422.72 482.72" fill="none" stroke="hsl(11 55% 38%)" stroke-width="1.6" stroke-linejoin="round"/><path d="M 355.97 495.12 L 366.41 520.34" fill="none" stroke="hsl(11 55% 38%)" stroke-width="1.6" stroke-linejoin="round"/><path d="M 300 506.25 L 300 533.55" fill="none" stroke="hsl(11 55% 38%)" stroke-width="1.6" stroke-linejoin="round"/><path d="M 244.03 495.12 L 233.59 520.34" fill="none" stroke="hsl(11 55% 38%)" stroke-width="1.6" stroke-linejoin="round"/><path d="M 196.59 463.41 L 177.28 482.72" fill="none" stroke="hsl(11 55% 38%)" stroke-width="1.6" stroke-linejoin="round"/><path d="M 164.88 415.97 L 139.66 426.41" fill="none" stroke="hsl(11 55% 38%)" stroke-width="1.6" stroke-linejoin="round"/><path d="M 153.75 360 L 126.45 360" fill="none" stroke="hsl(11 55% 38%)" stroke-width="1.6" stroke-linejoin="round"/><path d="M 164.88 304.03 L 139.66 293.59" fill="none" stroke="hsl(11 55% 38%)" stroke-width="1.6" stroke-linejoin="round"/><path d="M 196.59 256.59 L 177.28 237.28" fill="none" stroke="hsl(11 55% 38%)" stroke-width="1.6" stroke-linejoin="round"/><path d="M 244.03 224.88 L 233.59 199.66" fill="none" stroke="hsl(11 55% 38%)" stroke-width="1.6" stroke-linejoin="round"/><path d="M 300 213.75 L 300 186.45" fill="none" stroke="hsl(11 55% 38%)" stroke-width="1.6" stroke-linejoin="round"/><path d="M 355.97 224.88 L 366.41 199.66" fill="none" stroke="hsl(11 55% 38%)" stroke-width="1.6" stroke-linejoin="round"/><path d="M 403.41 256.59 L 422.72 237.28" fill="none" stroke="hsl(11 55% 38%)" stroke-width="1.6" stroke-linejoin="round"/><path d="M 435.12 304.03 L 460.34 293.59" fill="none" stroke="hsl(11 55% 38%)" stroke-width="1.6" stroke-linejoin="round"/><path d="M 300 165 C 407.7 165 495 252.3 495 360 C 495 467.7 407.7 555 300 555 C 192.3 555 105 467.7 105 360 C 105 252.3 192.3 165 300 165 Z" fill="none" stroke="hsl(11 55% 38%)" stroke-width="1.6" stroke-linejoin="round"/><path d="M 480.16 423.7 C 486.19 423.7 491.08 428.59 491.08 434.62 C 491.08 440.65 486.19 445.54 480.16 445.54 C 474.13 445.54 469.24 440.65 469.24 434.62 C 469.24 428.59 474.13 423.7 480.16 423.7 Z" fill="none" stroke="hsl(11 55% 38%)" stroke-width="1.6" stroke-linejoin="round"/><path d="M 374.62 529.24 C 380.65 529.24 385.54 534.13 385.54 540.16 C 385.54 546.19 380.65 551.08 374.62 551.08 C 368.59 551.08 363.7 546.19 363.7 540.16 C 363.7 534.13 368.59 529.24 374.62 529.24 Z" fill="none" stroke="hsl(11 55% 38%)" stroke-width="1.6" stroke-linejoin="round"/><path d="M 225.38 529.24 C 231.41 529.24 236.3 534.13 236.3 540.16 C 236.3 546.19 231.41 551.08 225.38 551.08 C 219.35 551.08 214.46 546.19 214.46 540.16 C 214.46 534.13 219.35 529.24 225.38 529.24 Z" fill="none" stroke="hsl(11 55% 38%)" stroke-width="1.6" stroke-linejoin="round"/><path d="M 119.84 423.7 C 125.87 423.7 130.76 428.59 130.76 434.62 C 130.76 440.65 125.87 445.54 119.84 445.54 C 113.81 445.54 108.92 440.65 108.92 434.62 C 108.92 428.59 113.81 423.7 119.84 423.7 Z" fill="none" stroke="hsl(11 55% 38%)" stroke-width="1.6" stroke-linejoin="round"/><path d="M 119.84 274.46 C 125.87 274.46 130.76 279.35 130.76 285.38 C 130.76 291.41 125.87 296.3 119.84 296.3 C 113.81 296.3 108.92 291.41 108.92 285.38 C 108.92 279.35 113.81 274.46 119.84 274.46 Z" fill="none" stroke="hsl(11 55% 38%)" stroke-width="1.6" stroke-linejoin="round"/><path d="M 225.38 168.92 C 231.41 168.92 236.3 173.81 236.3 179.84 C 236.3 185.87 231.41 190.76 225.38 190.76 C 219.35 190.76 214.46 185.87 214.46 179.84 C 214.46 173.81 219.35 168.92 225.38 168.92 Z" fill="none" stroke="hsl(11 55% 38%)" stroke-width="1.6" stroke-linejoin="round"/><path d="M 374.62 168.92 C 380.65 168.92 385.54 173.81 385.54 179.84 C 385.54 185.87 380.65 190.76 374.62 190.76 C 368.59 190.76 363.7 185.87 363.7 179.84 C 363.7 173.81 368.59 168.92 374.62 168.92 Z" fill="none" stroke="hsl(11 55% 38%)" stroke-width="1.6" stroke-linejoin="round"/><path d="M 480.16 274.46 C 486.19 274.46 491.08 279.35 491.08 285.38 C 491.08 291.41 486.19 296.3 480.16 296.3 C 474.13 296.3 469.24 291.41 469.24 285.38 C 469.24 279.35 474.13 274.46 480.16 274.46 Z" fill="none" stroke="hsl(11 55% 38%)" stroke-width="1.6" stroke-linejoin="round"/><path d="M 300 165 C 407.7 165 495 252.3 495 360 C 495 467.7 407.7 555 300 555 C 192.3 555 105 467.7 105 360 C 105 252.3 192.3 165 300 165 Z" fill="none" stroke="hsl(11 55% 38%)" stroke-width="1.6" stroke-linejoin="round"/></g>
  <g transform="translate(300,640)">
    <rect x="-110" y="-26" width="220" height="34" rx="17" fill="#ffffff" opacity="0.8"/>
    <text x="0" y="-3" text-anchor="middle" font-family="Quicksand, Arial, sans-serif" font-size="16" font-weight="600" fill="hsl(11 55% 38%)">🦕 Dinosaurier</text>
  </g>
  <text x="300" y="700" text-anchor="middle" font-family="Quicksand, Arial, sans-serif" font-size="40" font-weight="700" fill="#2b2540"><tspan x="300" dy="0">Dinosaurier – Vol.</tspan><tspan x="300" dy="44">2</tspan></text>
  <text x="300" y="772" text-anchor="middle" font-family="Arial, sans-serif" font-size="15" fill="#5b5470">Malbuch · 24 Seiten</text>
</svg>