<svg xmlns="http://www.w3.org/2000/svg" viewBox="0 0 600 800" width="600" height="800">
  <defs>
    <linearGradient id="bg" x1="0" y1="0" x2="0" y2="1">
      <stop offset="0" stop-color="hsl(11 70% 95%)"/><stop offset="1" stop-color="hsl(51 70% 92%)"/>
    </linearGradient>
  </defs>
  <rect width="600" height="800" fill="url(#bg)"/>
  <rect x="22" y="22" width="556" height="756" rx="28" fill="none" stroke="hsl(11 55% 38%)" stroke-width="2" opacity="0.5"/>
  <text x="300" y="74" text-anchor="middle" font-family="Quicksand, Arial, sans-serif" font-size="26" font-weight="700" fill="hsl(11 55% 38%)">&#10022; Coloreo</text>
  <g transform="translate(0,40)"><path d="M 323.4 360 Q 335.17 372.84 349.14 360 Q 335.17 347.16 323.4 360 Z" fill="none" stroke="hsl(11 55% 38%)" stroke-width="1.6" stroke-linejoin="round"/><path d="M 318.93 373.75 Q 320.91 391.06 339.76 388.88 Q 336 370.29 318.93 373.75 Z" fill="none" stroke="hsl(11 55% 38%)" stroke-width="1.6" stroke-linejoin="round"/><path d="M 307.23 382.25 Q 298.66 397.42 315.19 406.73 Q 323.08 389.48 307.23 382.25 Z" fill="none" stroke="hsl(11 55% 38%)" stroke-width="1.6" stroke-linejoin="round"/><path d="M 292.77 382.25 Q 276.92 389.48 284.81 406.73 Q 301.34 397.42 292.77 382.25 Z" fill="none" stroke="hsl(11 55% 38%)" stroke-width="1.6" stroke-linejoin="round"/><path d="M 281.07 373.75 Q 264 370.29 260.24 388.88 Q 279.09 391.06 281.07 373.75 Z" fill="none" stroke="hsl(11 55% 38%)" stroke-width="1.6" stroke-linejoin="round"/><path d="M 276.6 360 Q 264.83 347.16 250.86 360 Q 264.83 372.84 276.6 360 Z" fill="none" stroke="hsl(11 55% 38%)" stroke-width="1.6" stroke-linejoin="round"/><path d="M 281.07 346.25 Q 279.09 328.94 260.24 331.12 Q 264 349.71 281.07 346.25 Z" fill="none" stroke="hsl(11 55% 38%)" stroke-width="1.6" stroke-linejoin="round"/><path d="M 292.77 337.75 Q 301.34 322.58 284.81 313.27 Q 276.92 330.52 292.77 337.75 Z" fill="none" stroke="hsl(11 55% 38%)" stroke-width="1.6" stroke-linejoin="round"/><path d="M 307.23 337.75 Q 323.08 330.52 315.19 313.27 Q 298.66 322.58 307.23 337.75 Z" fill="none" stroke="hsl(11 55% 38%)" stroke-width="1.6" stroke-linejoin="round"/><path d="M 318.93 346.25 Q 336 349.71 339.76 331.12 Q 320.91 328.94 318.93 346.25 Z" fill="none" stroke="hsl(11 55% 38%)" stroke-width="1.6" stroke-linejoin="round"/><path d="M 300 345.96 C 307.75 345.96 314.04 352.25 314.04 360 C 314.04 367.75 307.75 374.04 300 374.04 C 292.25 374.04 285.96 367.75 285.96 360 C 285.96 352.25 292.25 345.96 300 345.96 Z" fill="none" stroke="hsl(11 55% 38%)" stroke-width="1.6" stroke-linejoin="round"/><path d="M 300 282 C 343.08 282 378 316.92 378 360 C 378 403.08 343.08 438 300 438 C 256.92 438 222 403.08 222 360 C 222 316.92 256.92 282 300 282 Z" fill="none" stroke="hsl(11 55% 38%)" stroke-width="1.6" stroke-linejoin="round"/><path d="M 374.18 384.1 L 394.95 390.85" fill="none" stroke="hsl(11 55% 38%)" stroke-width="1.6" stroke-linejoin="round"/><path d="M 345.85 423.1 L 358.68 440.77" fill="none" stroke="hsl(11 55% 38%)" stroke-width="1.6" stroke-linejoin="round"/><path d="M 300 438 L 300 459.84" fill="none" stroke="hsl(11 55% 38%)" stroke-width="1.6" stroke-linejoin="round"/><path d="M 254.15 423.1 L 241.32 440.77" fill="none" stroke="hsl(11 55% 38%)" stroke-width="1.6" stroke-linejoin="round"/><path d="M 225.82 384.1 L 205.05 390.85" fill="none" stroke="hsl(11 55% 38%)" stroke-width="1.6" stroke-linejoin="round"/><path d="M 225.82 335.9 L 205.05 329.15" fill="none" stroke="hsl(11 55% 38%)" stroke-width="1.6" stroke-linejoin="round"/><path d="M 254.15 296.9 L 241.32 279.23" fill="none" stroke="hsl(11 55% 38%)" stroke-width="1.6" stroke-linejoin="round"/><path d="M 300 282 L 300 260.16" fill="none" stroke="hsl(11 55% 38%)" stroke-width="1.6" stroke-linejoin="round"/><path d="M 345.85 296.9 L 358.68 279.23" fill="none" stroke="hsl(11 55% 38%)" stroke-width="1.6" stroke-linejoin="round"/><path d="M 374.18 335.9 L 394.95 329.15" fill="none" stroke="hsl(11 55% 38%)" stroke-width="1.6" stroke-linejoin="round"/><path d="M 300 243 C 364.62 243 417 295.38 417 360 C 417 424.62 364.62 477 300 477 C 235.38 477 183 424.62 183 360 C 183 295.38 235.38 243 300 243 Z" fill="none" stroke="hsl(11 55% 38%)" stroke-width="1.6" stroke-linejoin="round"/><path d="M 417 351.26 C 421.82 351.26 425.74 355.18 425.74 360 C 425.74 364.82 421.82 368.74 417 368.74 C 412.18 368.74 408.26 364.82 408.26 360 C 408.26 355.18 412.18 351.26 417 351.26 Z" fill="none" stroke="hsl(11 55% 38%)" stroke-width="1.6" stroke-linejoin="round"/><path d="M 411.27 387.42 C 416.1 387.42 420.01 391.33 420.01 396.15 C 420.01 400.98 416.1 404.89 411.27 404.89 C 406.45 404.89 402.54 400.98 402.54 396.15 C 402.54 391.33 406.45 387.42 411.27 387.42 Z" fill="none" stroke="hsl(11 55% 38%)" stroke-width="1.6" stroke-linejoin="round"/><path d="M 394.65 420.03 C 399.48 420.03 403.39 423.95 403.39 428.77 C 403.39 433.6 399.48 437.51 394.65 437.51 C 389.83 437.51 385.92 433.6 385.92 428.77 C 385.92 423.95 389.83 420.03 394.65 420.03 Z" fill="none" stroke="hsl(11 55% 38%)" stroke-width="1.6" stroke-linejoin="round"/><path d="M 368.77 445.92 C 373.6 445.92 377.51 449.83 377.51 454.65 C 377.51 459.48 373.6 463.39 368.77 463.39 C 363.95 463.39 360.03 459.48 360.03 454.65 C 360.03 449.83 363.95 445.92 368.77 445.92 Z" fill="none" stroke="hsl(11 55% 38%)" stroke-width="1.6" stroke-linejoin="round"/><path d="M 336.15 462.54 C 340.98 462.54 344.89 466.45 344.89 471.27 C 344.89 476.1 340.98 480.01 336.15 480.01 C 331.33 480.01 327.42 476.1 327.42 471.27 C 327.42 466.45 331.33 462.54 336.15 462.54 Z" fill="none" stroke="hsl(11 55% 38%)" stroke-width="1.6" stroke-linejoin="round"/><path d="M 300 468.26 C 304.82 468.26 308.74 472.18 308.74 477 C 308.74 481.82 304.82 485.74 300 485.74 C 295.18 485.74 291.26 481.82 291.26 477 C 291.26 472.18 295.18 468.26 300 468.26 Z" fill="none" stroke="hsl(11 55% 38%)" stroke-width="1.6" stroke-linejoin="round"/><path d="M 263.85 462.54 C 268.67 462.54 272.58 466.45 272.58 471.27 C 272.58 476.1 268.67 480.01 263.85 480.01 C 259.02 480.01 255.11 476.1 255.11 471.27 C 255.11 466.45 259.02 462.54 263.85 462.54 Z" fill="none" stroke="hsl(11 55% 38%)" stroke-width="1.6" stroke-linejoin="round"/><path d="M 231.23 445.92 C 236.05 445.92 239.97 449.83 239.97 454.65 C 239.97 459.48 236.05 463.39 231.23 463.39 C 226.4 463.39 222.49 459.48 222.49 454.65 C 222.49 449.83 226.4 445.92 231.23 445.92 Z" fill="none" stroke="hsl(11 55% 38%)" stroke-width="1.6" stroke-linejoin="round"/><path d="M 205.35 420.03 C 210.17 420.03 214.08 423.95 214.08 428.77 C 214.08 433.6 210.17 437.51 205.35 437.51 C 200.52 437.51 196.61 433.6 196.61 428.77 C 196.61 423.95 200.52 420.03 205.35 420.03 Z" fill="none" stroke="hsl(11 55% 38%)" stroke-width="1.6" stroke-linejoin="round"/><path d="M 188.73 387.42 C 193.55 387.42 197.46 391.33 197.46 396.15 C 197.46 400.98 193.55 404.89 188.73 404.89 C 183.9 404.89 179.99 400.98 179.99 396.15 C 179.99 391.33 183.9 387.42 188.73 387.42 Z" fill="none" stroke="hsl(11 55% 38%)" stroke-width="1.6" stroke-linejoin="round"/><path d="M 183 351.26 C 187.82 351.26 191.74 355.18 191.74 360 C 191.74 364.82 187.82 368.74 183 368.74 C 178.18 368.74 174.26 364.82 174.26 360 C 174.26 355.18 178.18 351.26 183 351.26 Z" fill="none" stroke="hsl(11 55% 38%)" stroke-width="1.6" stroke-linejoin="round"/><path d="M 188.73 315.11 C 193.55 315.11 197.46 319.02 197.46 323.85 C 197.46 328.67 193.55 332.58 188.73 332.58 C 183.9 332.58 179.99 328.67 179.99 323.85 C 179.99 319.02 183.9 315.11 188.73 315.11 Z" fill="none" stroke="hsl(11 55% 38%)" stroke-width="1.6" stroke-linejoin="round"/><path d="M 205.35 282.49 C 210.17 282.49 214.08 286.4 214.08 291.23 C 214.08 296.05 210.17 299.97 205.35 299.97 C 200.52 299.97 196.61 296.05 196.61 291.23 C 196.61 286.4 200.52 282.49 205.35 282.49 Z" fill="none" stroke="hsl(11 55% 38%)" stroke-width="1.6" stroke-linejoin="round"/><path d="M 231.23 256.61 C 236.05 256.61 239.97 260.52 239.97 265.35 C 239.97 270.17 236.05 274.08 231.23 274.08 C 226.4 274.08 222.49 270.17 222.49 265.35 C 222.49 260.52 226.4 256.61 231.23 256.61 Z" fill="none" stroke="hsl(11 55% 38%)" stroke-width="1.6" stroke-linejoin="round"/><path d="M 263.85 239.99 C 268.67 239.99 272.58 243.9 272.58 248.73 C 272.58 253.55 268.67 257.46 263.85 257.46 C 259.02 257.46 255.11 253.55 255.11 248.73 C 255.11 243.9 259.02 239.99 263.85 239.99 Z" fill="none" stroke="hsl(11 55% 38%)" stroke-width="1.6" stroke-linejoin="round"/><path d="M 300 234.26 C 304.82 234.26 308.74 238.18 308.74 243 C 308.74 247.82 304.82 251.74 300 251.74 C 295.18 251.74 291.26 247.82 291.26 243 C 291.26 238.18 295.18 234.26 300 234.26 Z" fill="none" stroke="hsl(11 55% 38%)" stroke-width="1.6" stroke-linejoin="round"/><path d="M 336.15 239.99 C 340.98 239.99 344.89 243.9 344.89 248.73 C 344.89 253.55 340.98 257.46 336.15 257.46 C 331.33 257.46 327.42 253.55 327.42 248.73 C 327.42 243.9 331.33 239.99 336.15 239.99 Z" fill="none" stroke="hsl(11 55% 38%)" stroke-width="1.6" stroke-linejoin="round"/><path d="M 368.77 256.61 C 373.6 256.61 377.51 260.52 377.51 265.35 C 377.51 270.17 373.6 274.08 368.77 274.08 C 363.95 274.08 360.03 270.17 360.03 265.35 C 360.03 260.52 363.95 256.61 368.77 256.61 Z" fill="none" stroke="hsl(11 55% 38%)" stroke-width="1.6" stroke-linejoin="round"/><path d="M 394.65 282.49 C 399.48 282.49 403.39 286.4 403.39 291.23 C 403.39 296.05 399.48 299.97 394.65 299.97 C 389.83 299.97 385.92 296.05 385.92 291.23 C 385.92 286.4 389.83 282.49 394.65 282.49 Z" fill="none" stroke="hsl(11 55% 38%)" stroke-width="1.6" stroke-linejoin="round"/><path d="M 411.27 315.11 C 416.1 315.11 420.01 319.02 420.01 323.85 C 420.01 328.67 416.1 332.58 411.27 332.58 C 406.45 332.58 402.54 328.67 402.54 323.85 C 402.54 319.02 406.45 315.11 411.27 315.11 Z" fill="none" stroke="hsl(11 55% 38%)" stroke-width="1.6" stroke-linejoin="round"/><path d="M 300 204 C 386.16 204 456 273.84 456 360 C 456 446.16 386.16 516 300 516 C 213.84 516 144 446.16 144 360 C 144 273.84 213.84 204 300 204 Z" fill="none" stroke="hsl(11 55% 38%)" stroke-width="1.6" stroke-linejoin="round"/><path d="M 448.36 408.21 Q 451.07 441.39 478.04 417.85 Q 470.06 382.95 448.36 408.21 Z" fill="none" stroke="hsl(11 55% 38%)" stroke-width="1.6" stroke-linejoin="round"/><path d="M 391.69 486.21 Q 374.38 514.64 410.03 511.45 Q 424.09 478.53 391.69 486.21 Z" fill="none" stroke="hsl(11 55% 38%)" stroke-width="1.6" stroke-linejoin="round"/><path d="M 300 516 Q 269.28 528.83 300 547.2 Q 330.72 528.83 300 516 Z" fill="none" stroke="hsl(11 55% 38%)" stroke-width="1.6" stroke-linejoin="round"/><path d="M 208.31 486.21 Q 175.91 478.53 189.97 511.45 Q 225.62 514.64 208.31 486.21 Z" fill="none" stroke="hsl(11 55% 38%)" stroke-width="1.6" stroke-linejoin="round"/><path d="M 151.64 408.21 Q 129.94 382.95 121.96 417.85 Q 148.93 441.39 151.64 408.21 Z" fill="none" stroke="hsl(11 55% 38%)" stroke-width="1.6" stroke-linejoin="round"/><path d="M 151.64 311.79 Q 148.93 278.61 121.96 302.15 Q 129.94 337.05 151.64 311.79 Z" fill="none" stroke="hsl(11 55% 38%)" stroke-width="1.6" stroke-linejoin="round"/><path d="M 208.31 233.79 Q 225.62 205.36 189.97 208.55 Q 175.91 241.47 208.31 233.79 Z" fill="none" stroke="hsl(11 55% 38%)" stroke-width="1.6" stroke-linejoin="round"/><path d="M 300 204 Q 330.72 191.17 300 172.8 Q 269.28 191.17 300 204 Z" fill="none" stroke="hsl(11 55% 38%)" stroke-width="1.6" stroke-linejoin="round"/><path d="M 391.69 233.79 Q 424.09 241.47 410.03 208.55 Q 374.38 205.36 391.69 233.79 Z" fill="none" stroke="hsl(11 55% 38%)" stroke-width="1.6" stroke-linejoin="round"/><path d="M 448.36 311.79 Q 470.06 337.05 478.04 302.15 Q 451.07 278.61 448.36 311.79 Z" fill="none" stroke="hsl(11 55% 38%)" stroke-width="1.6" stroke-linejoin="round"/><path d="M 300 165 C 407.7 165 495 252.3 495 360 C 495 467.7 407.7 555 300 555 C 192.3 555 105 467.7 105 360 C 105 252.3 192.3 165 300 165 Z" fill="none" stroke="hsl(11 55% 38%)" stroke-width="1.6" stroke-linejoin="round"/><path d="M 495 360 L 516.84 360" fill="none" stroke="hsl(11 55% 38%)" stroke-width="1.6" stroke-linejoin="round"/><path d="M 485.46 420.26 L 506.23 427.01" fill="none" stroke="hsl(11 55% 38%)" stroke-width="1.6" stroke-linejoin="round"/><path d="M 457.76 474.62 L 475.43 487.46" fill="none" stroke="hsl(11 55% 38%)" stroke-width="1.6" stroke-linejoin="round"/><path d="M 414.62 517.76 L 427.46 535.43" fill="none" stroke="hsl(11 55% 38%)" stroke-width="1.6" stroke-linejoin="round"/><path d="M 360.26 545.46 L 367.01 566.23" fill="none" stroke="hsl(11 55% 38%)" stroke-width="1.6" stroke-linejoin="round"/><path d="M 300 555 L 300 576.84" fill="none" stroke="hsl(11 55% 38%)" stroke-width="1.6" stroke-linejoin="round"/><path d="M 239.74 545.46 L 232.99 566.23" fill="none" stroke="hsl(11 55% 38%)" stroke-width="1.6" stroke-linejoin="round"/><path d="M 185.38 517.76 L 172.54 535.43" fill="none" stroke="hsl(11 55% 38%)" stroke-width="1.6" stroke-linejoin="round"/><path d="M 142.24 474.62 L 124.57 487.46" fill="none" stroke="hsl(11 55% 38%)" stroke-width="1.6" stroke-linejoin="round"/><path d="M 114.54 420.26 L 93.77 427.01" fill="none" stroke="hsl(11 55% 38%)" stroke-width="1.6" stroke-linejoin="round"/><path d="M 105 360 L 83.16 360" fill="none" stroke="hsl(11 55% 38%)" stroke-width="1.6" stroke-linejoin="round"/><path d="M 114.54 299.74 L 93.77 292.99" fill="none" stroke="hsl(11 55% 38%)" stroke-width="1.6" stroke-linejoin="round"/><path d="M 142.24 245.38 L 124.57 232.54" fill="none" stroke="hsl(11 55% 38%)" stroke-width="1.6" stroke-linejoin="round"/><path d="M 185.38 202.24 L 172.54 184.57" fill="none" stroke="hsl(11 55% 38%)" stroke-width="1.6" stroke-linejoin="round"/><path d="M 239.74 174.54 L 232.99 153.77" fill="none" stroke="hsl(11 55% 38%)" stroke-width="1.6" stroke-linejoin="round"/><path d="M 300 165 L 300 143.16" fill="none" stroke="hsl(11 55% 38%)" stroke-width="1.6" stroke-linejoin="round"/><path d="M 360.26 174.54 L 367.01 153.77" fill="none" stroke="hsl(11 55% 38%)" stroke-width="1.6" stroke-linejoin="round"/><path d="M 414.62 202.24 L 427.46 184.57" fill="none" stroke="hsl(11 55% 38%)" stroke-width="1.6" stroke-linejoin="round"/><path d="M 457.76 245.38 L 475.43 232.54" fill="none" stroke="hsl(11 55% 38%)" stroke-width="1.6" stroke-linejoin="round"/><path d="M 485.46 299.74 L 506.23 292.99" fill="none" stroke="hsl(11 55% 38%)" stroke-width="1.6" stroke-linejoin="round"/><path d="M 300 165 C 407.7 165 495 252.3 495 360 C 495 467.7 407.7 555 300 555 C 192.3 555 105 467.7 105 360 C 105 252.3 192.3 165 300 165 Z" fill="none" stroke="hsl(11 55% 38%)" stroke-width="1.6" stroke-linejoin="round"/></g>
  <g transform="translate(300,640)">
    <rect x="-110" y="-26" width="220" height="34" rx="17" fill="#ffffff" opacity="0.8"/>
    <text x="0" y="-3" text-anchor="middle" font-family="Quicksand, Arial, sans-serif" font-size="16" font-weight="600" fill="hsl(11 55% 38%)">🦕 Dinosaurier</text>
  </g>
  <text x="300" y="700" text-anchor="middle" font-family="Quicksand, Arial, sans-serif" font-size="40" font-weight="700" fill="#2b2540"><tspan x="300" dy="0">Dinosaurier – Vol.</tspan><tspan x="300" dy="44">1</tspan></text>
  <text x="300" y="772" text-anchor="middle" font-family="Arial, sans-serif" font-size="15" fill="#5b5470">Malbuch · 24 Seiten</text>
</svg>