<svg xmlns="http://www.w3.org/2000/svg" viewBox="0 0 600 800" width="600" height="800">
  <defs>
    <linearGradient id="bg" x1="0" y1="0" x2="0" y2="1">
      <stop offset="0" stop-color="hsl(11 70% 95%)"/><stop offset="1" stop-color="hsl(51 70% 92%)"/>
    </linearGradient>
  </defs>
  <rect width="600" height="800" fill="url(#bg)"/>
  <rect x="22" y="22" width="556" height="756" rx="28" fill="none" stroke="hsl(11 55% 38%)" stroke-width="2" opacity="0.5"/>
  <text x="300" y="74" text-anchor="middle" font-family="Quicksand, Arial, sans-serif" font-size="26" font-weight="700" fill="hsl(11 55% 38%)">&#10022; Coloreo</text>
  <g transform="translate(0,40)"><path d="M 323.4 360 Q 335.17 372.84 349.14 360 Q 335.17 347.16 323.4 360 Z" fill="none" stroke="hsl(11 55% 38%)" stroke-width="1.6" stroke-linejoin="round"/><path d="M 318.93 373.75 Q 320.91 391.06 339.76 388.88 Q 336 370.29 318.93 373.75 Z" fill="none" stroke="hsl(11 55% 38%)" stroke-width="1.6" stroke-linejoin="round"/><path d="M 307.23 382.25 Q 298.66 397.42 315.19 406.73 Q 323.08 389.48 307.23 382.25 Z" fill="none" stroke="hsl(11 55% 38%)" stroke-width="1.6" stroke-linejoin="round"/><path d="M 292.77 382.25 Q 276.92 389.48 284.81 406.73 Q 301.34 397.42 292.77 382.25 Z" fill="none" stroke="hsl(11 55% 38%)" stroke-width="1.6" stroke-linejoin="round"/><path d="M 281.07 373.75 Q 264 370.29 260.24 388.88 Q 279.09 391.06 281.07 373.75 Z" fill="none" stroke="hsl(11 55% 38%)" stroke-width="1.6" stroke-linejoin="round"/><path d="M 276.6 360 Q 264.83 347.16 250.86 360 Q 264.83 372.84 276.6 360 Z" fill="none" stroke="hsl(11 55% 38%)" stroke-width="1.6" stroke-linejoin="round"/><path d="M 281.07 346.25 Q 279.09 328.94 260.24 331.12 Q 264 349.71 281.07 346.25 Z" fill="none" stroke="hsl(11 55% 38%)" stroke-width="1.6" stroke-linejoin="round"/><path d="M 292.77 337.75 Q 301.34 322.58 284.81 313.27 Q 276.92 330.52 292.77 337.75 Z" fill="none" stroke="hsl(11 55% 38%)" stroke-width="1.6" stroke-linejoin="round"/><path d="M 307.23 337.75 Q 323.08 330.52 315.19 313.27 Q 298.66 322.58 307.23 337.75 Z" fill="none" stroke="hsl(11 55% 38%)" stroke-width="1.6" stroke-linejoin="round"/><path d="M 318.93 346.25 Q 336 349.71 339.76 331.12 Q 320.91 328.94 318.93 346.25 Z" fill="none" stroke="hsl(11 55% 38%)" stroke-width="1.6" stroke-linejoin="round"/><path d="M 285.96 360 a 14.04 14.04 0 1 0 28.08 0 a 14.04 14.04 0 1 0 -28.08 0 Z" fill="none" stroke="hsl(11 55% 38%)" stroke-width="1.6" stroke-linejoin="round"/><path d="M 222 360 a 78 78 0 1 0 156 0 a 78 78 0 1 0 -156 0 Z" fill="none" stroke="hsl(11 55% 38%)" stroke-width="1.6" stroke-linejoin="round"/><path d="M 374.18 384.1 L 394.95 390.85" fill="none" stroke="hsl(11 55% 38%)" stroke-width="1.6" stroke-linejoin="round"/><path d="M 345.85 423.1 L 358.68 440.77" fill="none" stroke="hsl(11 55% 38%)" stroke-width="1.6" stroke-linejoin="round"/><path d="M 300 438 L 300 459.84" fill="none" stroke="hsl(11 55% 38%)" stroke-width="1.6" stroke-linejoin="round"/><path d="M 254.15 423.1 L 241.32 440.77" fill="none" stroke="hsl(11 55% 38%)" stroke-width="1.6" stroke-linejoin="round"/><path d="M 225.82 384.1 L 205.05 390.85" fill="none" stroke="hsl(11 55% 38%)" stroke-width="1.6" stroke-linejoin="round"/><path d="M 225.82 335.9 L 205.05 329.15" fill="none" stroke="hsl(11 55% 38%)" stroke-width="1.6" stroke-linejoin="round"/><path d="M 254.15 296.9 L 241.32 279.23" fill="none" stroke="hsl(11 55% 38%)" stroke-width="1.6" stroke-linejoin="round"/><path d="M 300 282 L 300 260.16" fill="none" stroke="hsl(11 55% 38%)" stroke-width="1.6" stroke-linejoin="round"/><path d="M 345.85 296.9 L 358.68 279.23" fill="none" stroke="hsl(11 55% 38%)" stroke-width="1.6" stroke-linejoin="round"/><path d="M 374.18 335.9 L 394.95 329.15" fill="none" stroke="hsl(11 55% 38%)" stroke-width="1.6" stroke-linejoin="round"/><path d="M 183 360 a 117 117 0 1 0 234 0 a 117 117 0 1 0 -234 0 Z" fill="none" stroke="hsl(11 55% 38%)" stroke-width="1.6" stroke-linejoin="round"/><path d="M 408.26 360 a 8.74 8.74 0 1 0 17.47 0 a 8.74 8.74 0 1 0 -17.47 0 Z" fill="none" stroke="hsl(11 55% 38%)" stroke-width="1.6" stroke-linejoin="round"/><path d="M 402.54 396.15 a 8.74 8.74 0 1 0 17.47 0 a 8.74 8.74 0 1 0 -17.47 0 Z" fill="none" stroke="hsl(11 55% 38%)" stroke-width="1.6" stroke-linejoin="round"/><path d="M 385.92 428.77 a 8.74 8.74 0 1 0 17.47 0 a 8.74 8.74 0 1 0 -17.47 0 Z" fill="none" stroke="hsl(11 55% 38%)" stroke-width="1.6" stroke-linejoin="round"/><path d="M 360.03 454.65 a 8.74 8.74 0 1 0 17.47 0 a 8.74 8.74 0 1 0 -17.47 0 Z" fill="none" stroke="hsl(11 55% 38%)" stroke-width="1.6" stroke-linejoin="round"/><path d="M 327.42 471.27 a 8.74 8.74 0 1 0 17.47 0 a 8.74 8.74 0 1 0 -17.47 0 Z" fill="none" stroke="hsl(11 55% 38%)" stroke-width="1.6" stroke-linejoin="round"/><path d="M 291.26 477 a 8.74 8.74 0 1 0 17.47 0 a 8.74 8.74 0 1 0 -17.47 0 Z" fill="none" stroke="hsl(11 55% 38%)" stroke-width="1.6" stroke-linejoin="round"/><path d="M 255.11 471.27 a 8.74 8.74 0 1 0 17.47 0 a 8.74 8.74 0 1 0 -17.47 0 Z" fill="none" stroke="hsl(11 55% 38%)" stroke-width="1.6" stroke-linejoin="round"/><path d="M 222.49 454.65 a 8.74 8.74 0 1 0 17.47 0 a 8.74 8.74 0 1 0 -17.47 0 Z" fill="none" stroke="hsl(11 55% 38%)" stroke-width="1.6" stroke-linejoin="round"/><path d="M 196.61 428.77 a 8.74 8.74 0 1 0 17.47 0 a 8.74 8.74 0 1 0 -17.47 0 Z" fill="none" stroke="hsl(11 55% 38%)" stroke-width="1.6" stroke-linejoin="round"/><path d="M 179.99 396.15 a 8.74 8.74 0 1 0 17.47 0 a 8.74 8.74 0 1 0 -17.47 0 Z" fill="none" stroke="hsl(11 55% 38%)" stroke-width="1.6" stroke-linejoin="round"/><path d="M 174.26 360 a 8.74 8.74 0 1 0 17.47 0 a 8.74 8.74 0 1 0 -17.47 0 Z" fill="none" stroke="hsl(11 55% 38%)" stroke-width="1.6" stroke-linejoin="round"/><path d="M 179.99 323.85 a 8.74 8.74 0 1 0 17.47 0 a 8.74 8.74 0 1 0 -17.47 0 Z" fill="none" stroke="hsl(11 55% 38%)" stroke-width="1.6" stroke-linejoin="round"/><path d="M 196.61 291.23 a 8.74 8.74 0 1 0 17.47 0 a 8.74 8.74 0 1 0 -17.47 0 Z" fill="none" stroke="hsl(11 55% 38%)" stroke-width="1.6" stroke-linejoin="round"/><path d="M 222.49 265.35 a 8.74 8.74 0 1 0 17.47 0 a 8.74 8.74 0 1 0 -17.47 0 Z" fill="none" stroke="hsl(11 55% 38%)" stroke-width="1.6" stroke-linejoin="round"/><path d="M 255.11 248.73 a 8.74 8.74 0 1 0 17.47 0 a 8.74 8.74 0 1 0 -17.47 0 Z" fill="none" stroke="hsl(11 55% 38%)" stroke-width="1.6" stroke-linejoin="round"/><path d="M 291.26 243 a 8.74 8.74 0 1 0 17.47 0 a 8.74 8.74 0 1 0 -17.47 0 Z" fill="none" stroke="hsl(11 55% 38%)" stroke-width="1.6" stroke-linejoin="round"/><path d="M 327.42 248.73 a 8.74 8.74 0 1 0 17.47 0 a 8.74 8.74 0 1 0 -17.47 0 Z" fill="none" stroke="hsl(11 55% 38%)" stroke-width="1.6" stroke-linejoin="round"/><path d="M 360.03 265.35 a 8.74 8.74 0 1 0 17.47 0 a 8.74 8.74 0 1 0 -17.47 0 Z" fill="none" stroke="hsl(11 55% 38%)" stroke-width="1.6" stroke-linejoin="round"/><path d="M 385.92 291.23 a 8.74 8.74 0 1 0 17.47 0 a 8.74 8.74 0 1 0 -17.47 0 Z" fill="none" stroke="hsl(11 55% 38%)" stroke-width="1.6" stroke-linejoin="round"/><path d="M 402.54 323.85 a 8.74 8.74 0 1 0 17.47 0 a 8.74 8.74 0 1 0 -17.47 0 Z" fill="none" stroke="hsl(11 55% 38%)" stroke-width="1.6" stroke-linejoin="round"/><path d="M 144 360 a 156 156 0 1 0 312 0 a 156 156 0 1 0 -312 0 Z" fill="none" stroke="hsl(11 55% 38%)" stroke-width="1.6" stroke-linejoin="round"/><path d="M 448.36 408.21 Q 451.07 441.39 478.04 417.85 Q 470.06 382.95 448.36 408.21 Z" fill="none" stroke="hsl(11 55% 38%)" stroke-width="1.6" stroke-linejoin="round"/><path d="M 391.69 486.21 Q 374.38 514.64 410.03 511.45 Q 424.09 478.53 391.69 486.21 Z" fill="none" stroke="hsl(11 55% 38%)" stroke-width="1.6" stroke-linejoin="round"/><path d="M 300 516 Q 269.28 528.83 300 547.2 Q 330.72 528.83 300 516 Z" fill="none" stroke="hsl(11 55% 38%)" stroke-width="1.6" stroke-linejoin="round"/><path d="M 208.31 486.21 Q 175.91 478.53 189.97 511.45 Q 225.62 514.64 208.31 486.21 Z" fill="none" stroke="hsl(11 55% 38%)" stroke-width="1.6" stroke-linejoin="round"/><path d="M 151.64 408.21 Q 129.94 382.95 121.96 417.85 Q 148.93 441.39 151.64 408.21 Z" fill="none" stroke="hsl(11 55% 38%)" stroke-width="1.6" stroke-linejoin="round"/><path d="M 151.64 311.79 Q 148.93 278.61 121.96 302.15 Q 129.94 337.05 151.64 311.79 Z" fill="none" stroke="hsl(11 55% 38%)" stroke-width="1.6" stroke-linejoin="round"/><path d="M 208.31 233.79 Q 225.62 205.36 189.97 208.55 Q 175.91 241.47 208.31 233.79 Z" fill="none" stroke="hsl(11 55% 38%)" stroke-width="1.6" stroke-linejoin="round"/><path d="M 300 204 Q 330.72 191.17 300 172.8 Q 269.28 191.17 300 204 Z" fill="none" stroke="hsl(11 55% 38%)" stroke-width="1.6" stroke-linejoin="round"/><path d="M 391.69 233.79 Q 424.09 241.47 410.03 208.55 Q 374.38 205.36 391.69 233.79 Z" fill="none" stroke="hsl(11 55% 38%)" stroke-width="1.6" stroke-linejoin="round"/><path d="M 448.36 311.79 Q 470.06 337.05 478.04 302.15 Q 451.07 278.61 448.36 311.79 Z" fill="none" stroke="hsl(11 55% 38%)" stroke-width="1.6" stroke-linejoin="round"/><path d="M 105 360 a 195 195 0 1 0 390 0 a 195 195 0 1 0 -390 0 Z" fill="none" stroke="hsl(11 55% 38%)" stroke-width="1.6" stroke-linejoin="round"/><path d="M 495 360 L 516.84 360" fill="none" stroke="hsl(11 55% 38%)" stroke-width="1.6" stroke-linejoin="round"/><path d="M 485.46 420.26 L 506.23 427.01" fill="none" stroke="hsl(11 55% 38%)" stroke-width="1.6" stroke-linejoin="round"/><path d="M 457.76 474.62 L 475.43 487.46" fill="none" stroke="hsl(11 55% 38%)" stroke-width="1.6" stroke-linejoin="round"/><path d="M 414.62 517.76 L 427.46 535.43" fill="none" stroke="hsl(11 55% 38%)" stroke-width="1.6" stroke-linejoin="round"/><path d="M 360.26 545.46 L 367.01 566.23" fill="none" stroke="hsl(11 55% 38%)" stroke-width="1.6" stroke-linejoin="round"/><path d="M 300 555 L 300 576.84" fill="none" stroke="hsl(11 55% 38%)" stroke-width="1.6" stroke-linejoin="round"/><path d="M 239.74 545.46 L 232.99 566.23" fill="none" stroke="hsl(11 55% 38%)" stroke-width="1.6" stroke-linejoin="round"/><path d="M 185.38 517.76 L 172.54 535.43" fill="none" stroke="hsl(11 55% 38%)" stroke-width="1.6" stroke-linejoin="round"/><path d="M 142.24 474.62 L 124.57 487.46" fill="none" stroke="hsl(11 55% 38%)" stroke-width="1.6" stroke-linejoin="round"/><path d="M 114.54 420.26 L 93.77 427.01" fill="none" stroke="hsl(11 55% 38%)" stroke-width="1.6" stroke-linejoin="round"/><path d="M 105 360 L 83.16 360" fill="none" stroke="hsl(11 55% 38%)" stroke-width="1.6" stroke-linejoin="round"/><path d="M 114.54 299.74 L 93.77 292.99" fill="none" stroke="hsl(11 55% 38%)" stroke-width="1.6" stroke-linejoin="round"/><path d="M 142.24 245.38 L 124.57 232.54" fill="none" stroke="hsl(11 55% 38%)" stroke-width="1.6" stroke-linejoin="round"/><path d="M 185.38 202.24 L 172.54 184.57" fill="none" stroke="hsl(11 55% 38%)" stroke-width="1.6" stroke-linejoin="round"/><path d="M 239.74 174.54 L 232.99 153.77" fill="none" stroke="hsl(11 55% 38%)" stroke-width="1.6" stroke-linejoin="round"/><path d="M 300 165 L 300 143.16" fill="none" stroke="hsl(11 55% 38%)" stroke-width="1.6" stroke-linejoin="round"/><path d="M 360.26 174.54 L 367.01 153.77" fill="none" stroke="hsl(11 55% 38%)" stroke-width="1.6" stroke-linejoin="round"/><path d="M 414.62 202.24 L 427.46 184.57" fill="none" stroke="hsl(11 55% 38%)" stroke-width="1.6" stroke-linejoin="round"/><path d="M 457.76 245.38 L 475.43 232.54" fill="none" stroke="hsl(11 55% 38%)" stroke-width="1.6" stroke-linejoin="round"/><path d="M 485.46 299.74 L 506.23 292.99" fill="none" stroke="hsl(11 55% 38%)" stroke-width="1.6" stroke-linejoin="round"/><path d="M 105 360 a 195 195 0 1 0 390 0 a 195 195 0 1 0 -390 0 Z" fill="none" stroke="hsl(11 55% 38%)" stroke-width="1.6" stroke-linejoin="round"/></g>
  <g transform="translate(300,640)">
    <rect x="-110" y="-26" width="220" height="34" rx="17" fill="#ffffff" opacity="0.8"/>
    <text x="0" y="-3" text-anchor="middle" font-family="Quicksand, Arial, sans-serif" font-size="16" font-weight="600" fill="hsl(11 55% 38%)">🦕 Dinosaurier</text>
  </g>
  <text x="300" y="700" text-anchor="middle" font-family="Quicksand, Arial, sans-serif" font-size="40" font-weight="700" fill="#2b2540"><tspan x="300" dy="0">Dinosaurier – Vol.</tspan><tspan x="300" dy="44">1</tspan></text>
  <text x="300" y="772" text-anchor="middle" font-family="Arial, sans-serif" font-size="15" fill="#5b5470">Malbuch · 30 Seiten</text>
</svg>