<svg xmlns="http://www.w3.org/2000/svg" viewBox="0 0 600 800" width="600" height="800">
  <defs>
    <linearGradient id="bg" x1="0" y1="0" x2="0" y2="1">
      <stop offset="0" stop-color="hsl(198 70% 95%)"/><stop offset="1" stop-color="hsl(238 70% 92%)"/>
    </linearGradient>
  </defs>
  <rect width="600" height="800" fill="url(#bg)"/>
  <rect x="22" y="22" width="556" height="756" rx="28" fill="none" stroke="hsl(198 55% 38%)" stroke-width="2" opacity="0.5"/>
  <text x="300" y="74" text-anchor="middle" font-family="Quicksand, Arial, sans-serif" font-size="26" font-weight="700" fill="hsl(198 55% 38%)">&#10022; Coloreo</text>
  <g transform="translate(0,40)"><path d="M 323.4 360 Q 335.17 372.84 349.14 360 Q 335.17 347.16 323.4 360 Z" fill="none" stroke="hsl(198 55% 38%)" stroke-width="1.6" stroke-linejoin="round"/><path d="M 316.55 376.55 Q 315.79 393.95 334.75 394.75 Q 333.95 375.79 316.55 376.55 Z" fill="none" stroke="hsl(198 55% 38%)" stroke-width="1.6" stroke-linejoin="round"/><path d="M 300 383.4 Q 287.16 395.17 300 409.14 Q 312.84 395.17 300 383.4 Z" fill="none" stroke="hsl(198 55% 38%)" stroke-width="1.6" stroke-linejoin="round"/><path d="M 283.45 376.55 Q 266.05 375.79 265.25 394.75 Q 284.21 393.95 283.45 376.55 Z" fill="none" stroke="hsl(198 55% 38%)" stroke-width="1.6" stroke-linejoin="round"/><path d="M 276.6 360 Q 264.83 347.16 250.86 360 Q 264.83 372.84 276.6 360 Z" fill="none" stroke="hsl(198 55% 38%)" stroke-width="1.6" stroke-linejoin="round"/><path d="M 283.45 343.45 Q 284.21 326.05 265.25 325.25 Q 266.05 344.21 283.45 343.45 Z" fill="none" stroke="hsl(198 55% 38%)" stroke-width="1.6" stroke-linejoin="round"/><path d="M 300 336.6 Q 312.84 324.83 300 310.86 Q 287.16 324.83 300 336.6 Z" fill="none" stroke="hsl(198 55% 38%)" stroke-width="1.6" stroke-linejoin="round"/><path d="M 316.55 343.45 Q 333.95 344.21 334.75 325.25 Q 315.79 326.05 316.55 343.45 Z" fill="none" stroke="hsl(198 55% 38%)" stroke-width="1.6" stroke-linejoin="round"/><path d="M 300 345.96 C 307.75 345.96 314.04 352.25 314.04 360 C 314.04 367.75 307.75 374.04 300 374.04 C 292.25 374.04 285.96 367.75 285.96 360 C 285.96 352.25 292.25 345.96 300 345.96 Z" fill="none" stroke="hsl(198 55% 38%)" stroke-width="1.6" stroke-linejoin="round"/><path d="M 300 295 C 335.9 295 365 324.1 365 360 C 365 395.9 335.9 425 300 425 C 264.1 425 235 395.9 235 360 C 235 324.1 264.1 295 300 295 Z" fill="none" stroke="hsl(198 55% 38%)" stroke-width="1.6" stroke-linejoin="round"/><path d="M 360.05 384.87 Q 365.55 402.27 384.07 394.82 Q 376.24 376.47 360.05 384.87 Z" fill="none" stroke="hsl(198 55% 38%)" stroke-width="1.6" stroke-linejoin="round"/><path d="M 324.87 420.05 Q 316.47 436.24 334.82 444.07 Q 342.27 425.55 324.87 420.05 Z" fill="none" stroke="hsl(198 55% 38%)" stroke-width="1.6" stroke-linejoin="round"/><path d="M 275.13 420.05 Q 257.73 425.55 265.18 444.07 Q 283.53 436.24 275.13 420.05 Z" fill="none" stroke="hsl(198 55% 38%)" stroke-width="1.6" stroke-linejoin="round"/><path d="M 239.95 384.87 Q 223.76 376.47 215.93 394.82 Q 234.45 402.27 239.95 384.87 Z" fill="none" stroke="hsl(198 55% 38%)" stroke-width="1.6" stroke-linejoin="round"/><path d="M 239.95 335.13 Q 234.45 317.73 215.93 325.18 Q 223.76 343.53 239.95 335.13 Z" fill="none" stroke="hsl(198 55% 38%)" stroke-width="1.6" stroke-linejoin="round"/><path d="M 275.13 299.95 Q 283.53 283.76 265.18 275.93 Q 257.73 294.45 275.13 299.95 Z" fill="none" stroke="hsl(198 55% 38%)" stroke-width="1.6" stroke-linejoin="round"/><path d="M 324.87 299.95 Q 342.27 294.45 334.82 275.93 Q 316.47 283.76 324.87 299.95 Z" fill="none" stroke="hsl(198 55% 38%)" stroke-width="1.6" stroke-linejoin="round"/><path d="M 360.05 335.13 Q 376.24 343.53 384.07 325.18 Q 365.55 317.73 360.05 335.13 Z" fill="none" stroke="hsl(198 55% 38%)" stroke-width="1.6" stroke-linejoin="round"/><path d="M 300 262.5 C 353.85 262.5 397.5 306.15 397.5 360 C 397.5 413.85 353.85 457.5 300 457.5 C 246.15 457.5 202.5 413.85 202.5 360 C 202.5 306.15 246.15 262.5 300 262.5 Z" fill="none" stroke="hsl(198 55% 38%)" stroke-width="1.6" stroke-linejoin="round"/><path d="M 397.5 360 Q 408.71 379.78 423.5 360 Q 408.71 340.22 397.5 360 Z" fill="none" stroke="hsl(198 55% 38%)" stroke-width="1.6" stroke-linejoin="round"/><path d="M 390.08 397.31 Q 392.87 419.88 414.1 407.26 Q 408.01 383.33 390.08 397.31 Z" fill="none" stroke="hsl(198 55% 38%)" stroke-width="1.6" stroke-linejoin="round"/><path d="M 368.94 428.94 Q 362.88 450.86 387.33 447.33 Q 390.86 422.88 368.94 428.94 Z" fill="none" stroke="hsl(198 55% 38%)" stroke-width="1.6" stroke-linejoin="round"/><path d="M 337.31 450.08 Q 323.33 468.01 347.26 474.1 Q 359.88 452.87 337.31 450.08 Z" fill="none" stroke="hsl(198 55% 38%)" stroke-width="1.6" stroke-linejoin="round"/><path d="M 300 457.5 Q 280.22 468.71 300 483.5 Q 319.78 468.71 300 457.5 Z" fill="none" stroke="hsl(198 55% 38%)" stroke-width="1.6" stroke-linejoin="round"/><path d="M 262.69 450.08 Q 240.12 452.87 252.74 474.1 Q 276.67 468.01 262.69 450.08 Z" fill="none" stroke="hsl(198 55% 38%)" stroke-width="1.6" stroke-linejoin="round"/><path d="M 231.06 428.94 Q 209.14 422.88 212.67 447.33 Q 237.12 450.86 231.06 428.94 Z" fill="none" stroke="hsl(198 55% 38%)" stroke-width="1.6" stroke-linejoin="round"/><path d="M 209.92 397.31 Q 191.99 383.33 185.9 407.26 Q 207.13 419.88 209.92 397.31 Z" fill="none" stroke="hsl(198 55% 38%)" stroke-width="1.6" stroke-linejoin="round"/><path d="M 202.5 360 Q 191.29 340.22 176.5 360 Q 191.29 379.78 202.5 360 Z" fill="none" stroke="hsl(198 55% 38%)" stroke-width="1.6" stroke-linejoin="round"/><path d="M 209.92 322.69 Q 207.13 300.12 185.9 312.74 Q 191.99 336.67 209.92 322.69 Z" fill="none" stroke="hsl(198 55% 38%)" stroke-width="1.6" stroke-linejoin="round"/><path d="M 231.06 291.06 Q 237.12 269.14 212.67 272.67 Q 209.14 297.12 231.06 291.06 Z" fill="none" stroke="hsl(198 55% 38%)" stroke-width="1.6" stroke-linejoin="round"/><path d="M 262.69 269.92 Q 276.67 251.99 252.74 245.9 Q 240.12 267.13 262.69 269.92 Z" fill="none" stroke="hsl(198 55% 38%)" stroke-width="1.6" stroke-linejoin="round"/><path d="M 300 262.5 Q 319.78 251.29 300 236.5 Q 280.22 251.29 300 262.5 Z" fill="none" stroke="hsl(198 55% 38%)" stroke-width="1.6" stroke-linejoin="round"/><path d="M 337.31 269.92 Q 359.88 267.13 347.26 245.9 Q 323.33 251.99 337.31 269.92 Z" fill="none" stroke="hsl(198 55% 38%)" stroke-width="1.6" stroke-linejoin="round"/><path d="M 368.94 291.06 Q 390.86 297.12 387.33 272.67 Q 362.88 269.14 368.94 291.06 Z" fill="none" stroke="hsl(198 55% 38%)" stroke-width="1.6" stroke-linejoin="round"/><path d="M 390.08 322.69 Q 408.01 336.67 414.1 312.74 Q 392.87 300.12 390.08 322.69 Z" fill="none" stroke="hsl(198 55% 38%)" stroke-width="1.6" stroke-linejoin="round"/><path d="M 300 230 C 371.8 230 430 288.2 430 360 C 430 431.8 371.8 490 300 490 C 228.2 490 170 431.8 170 360 C 170 288.2 228.2 230 300 230 Z" fill="none" stroke="hsl(198 55% 38%)" stroke-width="1.6" stroke-linejoin="round"/><path d="M 420.1 402.47 C 424.12 402.47 427.38 405.73 427.38 409.75 C 427.38 413.77 424.12 417.03 420.1 417.03 C 416.08 417.03 412.82 413.77 412.82 409.75 C 412.82 405.73 416.08 402.47 420.1 402.47 Z" fill="none" stroke="hsl(198 55% 38%)" stroke-width="1.6" stroke-linejoin="round"/><path d="M 349.75 472.82 C 353.77 472.82 357.03 476.08 357.03 480.1 C 357.03 484.12 353.77 487.38 349.75 487.38 C 345.73 487.38 342.47 484.12 342.47 480.1 C 342.47 476.08 345.73 472.82 349.75 472.82 Z" fill="none" stroke="hsl(198 55% 38%)" stroke-width="1.6" stroke-linejoin="round"/><path d="M 250.25 472.82 C 254.27 472.82 257.53 476.08 257.53 480.1 C 257.53 484.12 254.27 487.38 250.25 487.38 C 246.23 487.38 242.97 484.12 242.97 480.1 C 242.97 476.08 246.23 472.82 250.25 472.82 Z" fill="none" stroke="hsl(198 55% 38%)" stroke-width="1.6" stroke-linejoin="round"/><path d="M 179.9 402.47 C 183.92 402.47 187.18 405.73 187.18 409.75 C 187.18 413.77 183.92 417.03 179.9 417.03 C 175.88 417.03 172.62 413.77 172.62 409.75 C 172.62 405.73 175.88 402.47 179.9 402.47 Z" fill="none" stroke="hsl(198 55% 38%)" stroke-width="1.6" stroke-linejoin="round"/><path d="M 179.9 302.97 C 183.92 302.97 187.18 306.23 187.18 310.25 C 187.18 314.27 183.92 317.53 179.9 317.53 C 175.88 317.53 172.62 314.27 172.62 310.25 C 172.62 306.23 175.88 302.97 179.9 302.97 Z" fill="none" stroke="hsl(198 55% 38%)" stroke-width="1.6" stroke-linejoin="round"/><path d="M 250.25 232.62 C 254.27 232.62 257.53 235.88 257.53 239.9 C 257.53 243.92 254.27 247.18 250.25 247.18 C 246.23 247.18 242.97 243.92 242.97 239.9 C 242.97 235.88 246.23 232.62 250.25 232.62 Z" fill="none" stroke="hsl(198 55% 38%)" stroke-width="1.6" stroke-linejoin="round"/><path d="M 349.75 232.62 C 353.77 232.62 357.03 235.88 357.03 239.9 C 357.03 243.92 353.77 247.18 349.75 247.18 C 345.73 247.18 342.47 243.92 342.47 239.9 C 342.47 235.88 345.73 232.62 349.75 232.62 Z" fill="none" stroke="hsl(198 55% 38%)" stroke-width="1.6" stroke-linejoin="round"/><path d="M 420.1 302.97 C 424.12 302.97 427.38 306.23 427.38 310.25 C 427.38 314.27 424.12 317.53 420.1 317.53 C 416.08 317.53 412.82 314.27 412.82 310.25 C 412.82 306.23 416.08 302.97 420.1 302.97 Z" fill="none" stroke="hsl(198 55% 38%)" stroke-width="1.6" stroke-linejoin="round"/><path d="M 300 197.5 C 389.75 197.5 462.5 270.25 462.5 360 C 462.5 449.75 389.75 522.5 300 522.5 C 210.25 522.5 137.5 449.75 137.5 360 C 137.5 270.25 210.25 197.5 300 197.5 Z" fill="none" stroke="hsl(198 55% 38%)" stroke-width="1.6" stroke-linejoin="round"/><path d="M 462.5 352.72 C 466.52 352.72 469.78 355.98 469.78 360 C 469.78 364.02 466.52 367.28 462.5 367.28 C 458.48 367.28 455.22 364.02 455.22 360 C 455.22 355.98 458.48 352.72 462.5 352.72 Z" fill="none" stroke="hsl(198 55% 38%)" stroke-width="1.6" stroke-linejoin="round"/><path d="M 450.13 414.91 C 454.15 414.91 457.41 418.17 457.41 422.19 C 457.41 426.21 454.15 429.47 450.13 429.47 C 446.11 429.47 442.85 426.21 442.85 422.19 C 442.85 418.17 446.11 414.91 450.13 414.91 Z" fill="none" stroke="hsl(198 55% 38%)" stroke-width="1.6" stroke-linejoin="round"/><path d="M 414.9 467.62 C 418.93 467.62 422.18 470.88 422.18 474.9 C 422.18 478.93 418.93 482.18 414.9 482.18 C 410.88 482.18 407.62 478.93 407.62 474.9 C 407.62 470.88 410.88 467.62 414.9 467.62 Z" fill="none" stroke="hsl(198 55% 38%)" stroke-width="1.6" stroke-linejoin="round"/><path d="M 362.19 502.85 C 366.21 502.85 369.47 506.11 369.47 510.13 C 369.47 514.15 366.21 517.41 362.19 517.41 C 358.17 517.41 354.91 514.15 354.91 510.13 C 354.91 506.11 358.17 502.85 362.19 502.85 Z" fill="none" stroke="hsl(198 55% 38%)" stroke-width="1.6" stroke-linejoin="round"/><path d="M 300 515.22 C 304.02 515.22 307.28 518.48 307.28 522.5 C 307.28 526.52 304.02 529.78 300 529.78 C 295.98 529.78 292.72 526.52 292.72 522.5 C 292.72 518.48 295.98 515.22 300 515.22 Z" fill="none" stroke="hsl(198 55% 38%)" stroke-width="1.6" stroke-linejoin="round"/><path d="M 237.81 502.85 C 241.83 502.85 245.09 506.11 245.09 510.13 C 245.09 514.15 241.83 517.41 237.81 517.41 C 233.79 517.41 230.53 514.15 230.53 510.13 C 230.53 506.11 233.79 502.85 237.81 502.85 Z" fill="none" stroke="hsl(198 55% 38%)" stroke-width="1.6" stroke-linejoin="round"/><path d="M 185.1 467.62 C 189.12 467.62 192.38 470.88 192.38 474.9 C 192.38 478.93 189.12 482.18 185.1 482.18 C 181.07 482.18 177.82 478.93 177.82 474.9 C 177.82 470.88 181.07 467.62 185.1 467.62 Z" fill="none" stroke="hsl(198 55% 38%)" stroke-width="1.6" stroke-linejoin="round"/><path d="M 149.87 414.91 C 153.89 414.91 157.15 418.17 157.15 422.19 C 157.15 426.21 153.89 429.47 149.87 429.47 C 145.85 429.47 142.59 426.21 142.59 422.19 C 142.59 418.17 145.85 414.91 149.87 414.91 Z" fill="none" stroke="hsl(198 55% 38%)" stroke-width="1.6" stroke-linejoin="round"/><path d="M 137.5 352.72 C 141.52 352.72 144.78 355.98 144.78 360 C 144.78 364.02 141.52 367.28 137.5 367.28 C 133.48 367.28 130.22 364.02 130.22 360 C 130.22 355.98 133.48 352.72 137.5 352.72 Z" fill="none" stroke="hsl(198 55% 38%)" stroke-width="1.6" stroke-linejoin="round"/><path d="M 149.87 290.53 C 153.89 290.53 157.15 293.79 157.15 297.81 C 157.15 301.83 153.89 305.09 149.87 305.09 C 145.85 305.09 142.59 301.83 142.59 297.81 C 142.59 293.79 145.85 290.53 149.87 290.53 Z" fill="none" stroke="hsl(198 55% 38%)" stroke-width="1.6" stroke-linejoin="round"/><path d="M 185.1 237.82 C 189.12 237.82 192.38 241.07 192.38 245.1 C 192.38 249.12 189.12 252.38 185.1 252.38 C 181.07 252.38 177.82 249.12 177.82 245.1 C 177.82 241.07 181.07 237.82 185.1 237.82 Z" fill="none" stroke="hsl(198 55% 38%)" stroke-width="1.6" stroke-linejoin="round"/><path d="M 237.81 202.59 C 241.83 202.59 245.09 205.85 245.09 209.87 C 245.09 213.89 241.83 217.15 237.81 217.15 C 233.79 217.15 230.53 213.89 230.53 209.87 C 230.53 205.85 233.79 202.59 237.81 202.59 Z" fill="none" stroke="hsl(198 55% 38%)" stroke-width="1.6" stroke-linejoin="round"/><path d="M 300 190.22 C 304.02 190.22 307.28 193.48 307.28 197.5 C 307.28 201.52 304.02 204.78 300 204.78 C 295.98 204.78 292.72 201.52 292.72 197.5 C 292.72 193.48 295.98 190.22 300 190.22 Z" fill="none" stroke="hsl(198 55% 38%)" stroke-width="1.6" stroke-linejoin="round"/><path d="M 362.19 202.59 C 366.21 202.59 369.47 205.85 369.47 209.87 C 369.47 213.89 366.21 217.15 362.19 217.15 C 358.17 217.15 354.91 213.89 354.91 209.87 C 354.91 205.85 358.17 202.59 362.19 202.59 Z" fill="none" stroke="hsl(198 55% 38%)" stroke-width="1.6" stroke-linejoin="round"/><path d="M 414.9 237.82 C 418.93 237.82 422.18 241.07 422.18 245.1 C 422.18 249.12 418.93 252.38 414.9 252.38 C 410.88 252.38 407.62 249.12 407.62 245.1 C 407.62 241.07 410.88 237.82 414.9 237.82 Z" fill="none" stroke="hsl(198 55% 38%)" stroke-width="1.6" stroke-linejoin="round"/><path d="M 450.13 290.53 C 454.15 290.53 457.41 293.79 457.41 297.81 C 457.41 301.83 454.15 305.09 450.13 305.09 C 446.11 305.09 442.85 301.83 442.85 297.81 C 442.85 293.79 446.11 290.53 450.13 290.53 Z" fill="none" stroke="hsl(198 55% 38%)" stroke-width="1.6" stroke-linejoin="round"/><path d="M 300 165 C 407.7 165 495 252.3 495 360 C 495 467.7 407.7 555 300 555 C 192.3 555 105 467.7 105 360 C 105 252.3 192.3 165 300 165 Z" fill="none" stroke="hsl(198 55% 38%)" stroke-width="1.6" stroke-linejoin="round"/><path d="M 480.16 427.34 C 484.18 427.34 487.44 430.6 487.44 434.62 C 487.44 438.64 484.18 441.9 480.16 441.9 C 476.14 441.9 472.88 438.64 472.88 434.62 C 472.88 430.6 476.14 427.34 480.16 427.34 Z" fill="none" stroke="hsl(198 55% 38%)" stroke-width="1.6" stroke-linejoin="round"/><path d="M 374.62 532.88 C 378.64 532.88 381.9 536.14 381.9 540.16 C 381.9 544.18 378.64 547.44 374.62 547.44 C 370.6 547.44 367.34 544.18 367.34 540.16 C 367.34 536.14 370.6 532.88 374.62 532.88 Z" fill="none" stroke="hsl(198 55% 38%)" stroke-width="1.6" stroke-linejoin="round"/><path d="M 225.38 532.88 C 229.4 532.88 232.66 536.14 232.66 540.16 C 232.66 544.18 229.4 547.44 225.38 547.44 C 221.36 547.44 218.1 544.18 218.1 540.16 C 218.1 536.14 221.36 532.88 225.38 532.88 Z" fill="none" stroke="hsl(198 55% 38%)" stroke-width="1.6" stroke-linejoin="round"/><path d="M 119.84 427.34 C 123.86 427.34 127.12 430.6 127.12 434.62 C 127.12 438.64 123.86 441.9 119.84 441.9 C 115.82 441.9 112.56 438.64 112.56 434.62 C 112.56 430.6 115.82 427.34 119.84 427.34 Z" fill="none" stroke="hsl(198 55% 38%)" stroke-width="1.6" stroke-linejoin="round"/><path d="M 119.84 278.1 C 123.86 278.1 127.12 281.36 127.12 285.38 C 127.12 289.4 123.86 292.66 119.84 292.66 C 115.82 292.66 112.56 289.4 112.56 285.38 C 112.56 281.36 115.82 278.1 119.84 278.1 Z" fill="none" stroke="hsl(198 55% 38%)" stroke-width="1.6" stroke-linejoin="round"/><path d="M 225.38 172.56 C 229.4 172.56 232.66 175.82 232.66 179.84 C 232.66 183.86 229.4 187.12 225.38 187.12 C 221.36 187.12 218.1 183.86 218.1 179.84 C 218.1 175.82 221.36 172.56 225.38 172.56 Z" fill="none" stroke="hsl(198 55% 38%)" stroke-width="1.6" stroke-linejoin="round"/><path d="M 374.62 172.56 C 378.64 172.56 381.9 175.82 381.9 179.84 C 381.9 183.86 378.64 187.12 374.62 187.12 C 370.6 187.12 367.34 183.86 367.34 179.84 C 367.34 175.82 370.6 172.56 374.62 172.56 Z" fill="none" stroke="hsl(198 55% 38%)" stroke-width="1.6" stroke-linejoin="round"/><path d="M 480.16 278.1 C 484.18 278.1 487.44 281.36 487.44 285.38 C 487.44 289.4 484.18 292.66 480.16 292.66 C 476.14 292.66 472.88 289.4 472.88 285.38 C 472.88 281.36 476.14 278.1 480.16 278.1 Z" fill="none" stroke="hsl(198 55% 38%)" stroke-width="1.6" stroke-linejoin="round"/><path d="M 300 165 C 407.7 165 495 252.3 495 360 C 495 467.7 407.7 555 300 555 C 192.3 555 105 467.7 105 360 C 105 252.3 192.3 165 300 165 Z" fill="none" stroke="hsl(198 55% 38%)" stroke-width="1.6" stroke-linejoin="round"/></g>
  <g transform="translate(300,640)">
    <rect x="-110" y="-26" width="220" height="34" rx="17" fill="#ffffff" opacity="0.8"/>
    <text x="0" y="-3" text-anchor="middle" font-family="Quicksand, Arial, sans-serif" font-size="16" font-weight="600" fill="hsl(198 55% 38%)">🦄 Einhörner &amp; Magie</text>
  </g>
  <text x="300" y="700" text-anchor="middle" font-family="Quicksand, Arial, sans-serif" font-size="40" font-weight="700" fill="#2b2540"><tspan x="300" dy="0">Einhörner &amp; Magie</tspan><tspan x="300" dy="44">– Vol. 1</tspan></text>
  <text x="300" y="772" text-anchor="middle" font-family="Arial, sans-serif" font-size="15" fill="#5b5470">Malbuch · 24 Seiten</text>
</svg>