<svg xmlns="http://www.w3.org/2000/svg" viewBox="0 0 600 800" width="600" height="800">
  <defs>
    <linearGradient id="bg" x1="0" y1="0" x2="0" y2="1">
      <stop offset="0" stop-color="hsl(41 70% 95%)"/><stop offset="1" stop-color="hsl(81 70% 92%)"/>
    </linearGradient>
  </defs>
  <rect width="600" height="800" fill="url(#bg)"/>
  <rect x="22" y="22" width="556" height="756" rx="28" fill="none" stroke="hsl(41 55% 38%)" stroke-width="2" opacity="0.5"/>
  <text x="300" y="74" text-anchor="middle" font-family="Quicksand, Arial, sans-serif" font-size="26" font-weight="700" fill="hsl(41 55% 38%)">&#10022; Coloreo</text>
  <g transform="translate(0,40)"><path d="M 323.4 360 Q 335.17 372.84 349.14 360 Q 335.17 347.16 323.4 360 Z" fill="none" stroke="hsl(41 55% 38%)" stroke-width="1.6" stroke-linejoin="round"/><path d="M 311.7 380.26 Q 306.47 396.88 324.57 402.56 Q 328.7 384.04 311.7 380.26 Z" fill="none" stroke="hsl(41 55% 38%)" stroke-width="1.6" stroke-linejoin="round"/><path d="M 288.3 380.26 Q 271.3 384.04 275.43 402.56 Q 293.53 396.88 288.3 380.26 Z" fill="none" stroke="hsl(41 55% 38%)" stroke-width="1.6" stroke-linejoin="round"/><path d="M 276.6 360 Q 264.83 347.16 250.86 360 Q 264.83 372.84 276.6 360 Z" fill="none" stroke="hsl(41 55% 38%)" stroke-width="1.6" stroke-linejoin="round"/><path d="M 288.3 339.74 Q 293.53 323.12 275.43 317.44 Q 271.3 335.96 288.3 339.74 Z" fill="none" stroke="hsl(41 55% 38%)" stroke-width="1.6" stroke-linejoin="round"/><path d="M 311.7 339.74 Q 328.7 335.96 324.57 317.44 Q 306.47 323.12 311.7 339.74 Z" fill="none" stroke="hsl(41 55% 38%)" stroke-width="1.6" stroke-linejoin="round"/><path d="M 285.96 360 a 14.04 14.04 0 1 0 28.08 0 a 14.04 14.04 0 1 0 -28.08 0 Z" fill="none" stroke="hsl(41 55% 38%)" stroke-width="1.6" stroke-linejoin="round"/><path d="M 235 360 a 65 65 0 1 0 130 0 a 65 65 0 1 0 -130 0 Z" fill="none" stroke="hsl(41 55% 38%)" stroke-width="1.6" stroke-linejoin="round"/><path d="M 356.29 392.5 L 372.05 401.6" fill="none" stroke="hsl(41 55% 38%)" stroke-width="1.6" stroke-linejoin="round"/><path d="M 300 425 L 300 443.2" fill="none" stroke="hsl(41 55% 38%)" stroke-width="1.6" stroke-linejoin="round"/><path d="M 243.71 392.5 L 227.95 401.6" fill="none" stroke="hsl(41 55% 38%)" stroke-width="1.6" stroke-linejoin="round"/><path d="M 243.71 327.5 L 227.95 318.4" fill="none" stroke="hsl(41 55% 38%)" stroke-width="1.6" stroke-linejoin="round"/><path d="M 300 295 L 300 276.8" fill="none" stroke="hsl(41 55% 38%)" stroke-width="1.6" stroke-linejoin="round"/><path d="M 356.29 327.5 L 372.05 318.4" fill="none" stroke="hsl(41 55% 38%)" stroke-width="1.6" stroke-linejoin="round"/><path d="M 202.5 360 a 97.5 97.5 0 1 0 195 0 a 97.5 97.5 0 1 0 -195 0 Z" fill="none" stroke="hsl(41 55% 38%)" stroke-width="1.6" stroke-linejoin="round"/><path d="M 390.22 360 a 7.28 7.28 0 1 0 14.56 0 a 7.28 7.28 0 1 0 -14.56 0 Z" fill="none" stroke="hsl(41 55% 38%)" stroke-width="1.6" stroke-linejoin="round"/><path d="M 377.16 408.75 a 7.28 7.28 0 1 0 14.56 0 a 7.28 7.28 0 1 0 -14.56 0 Z" fill="none" stroke="hsl(41 55% 38%)" stroke-width="1.6" stroke-linejoin="round"/><path d="M 341.47 444.44 a 7.28 7.28 0 1 0 14.56 0 a 7.28 7.28 0 1 0 -14.56 0 Z" fill="none" stroke="hsl(41 55% 38%)" stroke-width="1.6" stroke-linejoin="round"/><path d="M 292.72 457.5 a 7.28 7.28 0 1 0 14.56 0 a 7.28 7.28 0 1 0 -14.56 0 Z" fill="none" stroke="hsl(41 55% 38%)" stroke-width="1.6" stroke-linejoin="round"/><path d="M 243.97 444.44 a 7.28 7.28 0 1 0 14.56 0 a 7.28 7.28 0 1 0 -14.56 0 Z" fill="none" stroke="hsl(41 55% 38%)" stroke-width="1.6" stroke-linejoin="round"/><path d="M 208.28 408.75 a 7.28 7.28 0 1 0 14.56 0 a 7.28 7.28 0 1 0 -14.56 0 Z" fill="none" stroke="hsl(41 55% 38%)" stroke-width="1.6" stroke-linejoin="round"/><path d="M 195.22 360 a 7.28 7.28 0 1 0 14.56 0 a 7.28 7.28 0 1 0 -14.56 0 Z" fill="none" stroke="hsl(41 55% 38%)" stroke-width="1.6" stroke-linejoin="round"/><path d="M 208.28 311.25 a 7.28 7.28 0 1 0 14.56 0 a 7.28 7.28 0 1 0 -14.56 0 Z" fill="none" stroke="hsl(41 55% 38%)" stroke-width="1.6" stroke-linejoin="round"/><path d="M 243.97 275.56 a 7.28 7.28 0 1 0 14.56 0 a 7.28 7.28 0 1 0 -14.56 0 Z" fill="none" stroke="hsl(41 55% 38%)" stroke-width="1.6" stroke-linejoin="round"/><path d="M 292.72 262.5 a 7.28 7.28 0 1 0 14.56 0 a 7.28 7.28 0 1 0 -14.56 0 Z" fill="none" stroke="hsl(41 55% 38%)" stroke-width="1.6" stroke-linejoin="round"/><path d="M 341.47 275.56 a 7.28 7.28 0 1 0 14.56 0 a 7.28 7.28 0 1 0 -14.56 0 Z" fill="none" stroke="hsl(41 55% 38%)" stroke-width="1.6" stroke-linejoin="round"/><path d="M 377.16 311.25 a 7.28 7.28 0 1 0 14.56 0 a 7.28 7.28 0 1 0 -14.56 0 Z" fill="none" stroke="hsl(41 55% 38%)" stroke-width="1.6" stroke-linejoin="round"/><path d="M 170 360 a 130 130 0 1 0 260 0 a 130 130 0 1 0 -260 0 Z" fill="none" stroke="hsl(41 55% 38%)" stroke-width="1.6" stroke-linejoin="round"/><path d="M 412.58 425 L 428.34 434.1" fill="none" stroke="hsl(41 55% 38%)" stroke-width="1.6" stroke-linejoin="round"/><path d="M 300 490 L 300 508.2" fill="none" stroke="hsl(41 55% 38%)" stroke-width="1.6" stroke-linejoin="round"/><path d="M 187.42 425 L 171.66 434.1" fill="none" stroke="hsl(41 55% 38%)" stroke-width="1.6" stroke-linejoin="round"/><path d="M 187.42 295 L 171.66 285.9" fill="none" stroke="hsl(41 55% 38%)" stroke-width="1.6" stroke-linejoin="round"/><path d="M 300 230 L 300 211.8" fill="none" stroke="hsl(41 55% 38%)" stroke-width="1.6" stroke-linejoin="round"/><path d="M 412.58 295 L 428.34 285.9" fill="none" stroke="hsl(41 55% 38%)" stroke-width="1.6" stroke-linejoin="round"/><path d="M 137.5 360 a 162.5 162.5 0 1 0 325 0 a 162.5 162.5 0 1 0 -325 0 Z" fill="none" stroke="hsl(41 55% 38%)" stroke-width="1.6" stroke-linejoin="round"/><path d="M 455.22 360 a 7.28 7.28 0 1 0 14.56 0 a 7.28 7.28 0 1 0 -14.56 0 Z" fill="none" stroke="hsl(41 55% 38%)" stroke-width="1.6" stroke-linejoin="round"/><path d="M 433.45 441.25 a 7.28 7.28 0 1 0 14.56 0 a 7.28 7.28 0 1 0 -14.56 0 Z" fill="none" stroke="hsl(41 55% 38%)" stroke-width="1.6" stroke-linejoin="round"/><path d="M 373.97 500.73 a 7.28 7.28 0 1 0 14.56 0 a 7.28 7.28 0 1 0 -14.56 0 Z" fill="none" stroke="hsl(41 55% 38%)" stroke-width="1.6" stroke-linejoin="round"/><path d="M 292.72 522.5 a 7.28 7.28 0 1 0 14.56 0 a 7.28 7.28 0 1 0 -14.56 0 Z" fill="none" stroke="hsl(41 55% 38%)" stroke-width="1.6" stroke-linejoin="round"/><path d="M 211.47 500.73 a 7.28 7.28 0 1 0 14.56 0 a 7.28 7.28 0 1 0 -14.56 0 Z" fill="none" stroke="hsl(41 55% 38%)" stroke-width="1.6" stroke-linejoin="round"/><path d="M 151.99 441.25 a 7.28 7.28 0 1 0 14.56 0 a 7.28 7.28 0 1 0 -14.56 0 Z" fill="none" stroke="hsl(41 55% 38%)" stroke-width="1.6" stroke-linejoin="round"/><path d="M 130.22 360 a 7.28 7.28 0 1 0 14.56 0 a 7.28 7.28 0 1 0 -14.56 0 Z" fill="none" stroke="hsl(41 55% 38%)" stroke-width="1.6" stroke-linejoin="round"/><path d="M 151.99 278.75 a 7.28 7.28 0 1 0 14.56 0 a 7.28 7.28 0 1 0 -14.56 0 Z" fill="none" stroke="hsl(41 55% 38%)" stroke-width="1.6" stroke-linejoin="round"/><path d="M 211.47 219.27 a 7.28 7.28 0 1 0 14.56 0 a 7.28 7.28 0 1 0 -14.56 0 Z" fill="none" stroke="hsl(41 55% 38%)" stroke-width="1.6" stroke-linejoin="round"/><path d="M 292.72 197.5 a 7.28 7.28 0 1 0 14.56 0 a 7.28 7.28 0 1 0 -14.56 0 Z" fill="none" stroke="hsl(41 55% 38%)" stroke-width="1.6" stroke-linejoin="round"/><path d="M 373.97 219.27 a 7.28 7.28 0 1 0 14.56 0 a 7.28 7.28 0 1 0 -14.56 0 Z" fill="none" stroke="hsl(41 55% 38%)" stroke-width="1.6" stroke-linejoin="round"/><path d="M 433.45 278.75 a 7.28 7.28 0 1 0 14.56 0 a 7.28 7.28 0 1 0 -14.56 0 Z" fill="none" stroke="hsl(41 55% 38%)" stroke-width="1.6" stroke-linejoin="round"/><path d="M 105 360 a 195 195 0 1 0 390 0 a 195 195 0 1 0 -390 0 Z" fill="none" stroke="hsl(41 55% 38%)" stroke-width="1.6" stroke-linejoin="round"/><path d="M 461.59 457.5 a 7.28 7.28 0 1 0 14.56 0 a 7.28 7.28 0 1 0 -14.56 0 Z" fill="none" stroke="hsl(41 55% 38%)" stroke-width="1.6" stroke-linejoin="round"/><path d="M 292.72 555 a 7.28 7.28 0 1 0 14.56 0 a 7.28 7.28 0 1 0 -14.56 0 Z" fill="none" stroke="hsl(41 55% 38%)" stroke-width="1.6" stroke-linejoin="round"/><path d="M 123.85 457.5 a 7.28 7.28 0 1 0 14.56 0 a 7.28 7.28 0 1 0 -14.56 0 Z" fill="none" stroke="hsl(41 55% 38%)" stroke-width="1.6" stroke-linejoin="round"/><path d="M 123.85 262.5 a 7.28 7.28 0 1 0 14.56 0 a 7.28 7.28 0 1 0 -14.56 0 Z" fill="none" stroke="hsl(41 55% 38%)" stroke-width="1.6" stroke-linejoin="round"/><path d="M 292.72 165 a 7.28 7.28 0 1 0 14.56 0 a 7.28 7.28 0 1 0 -14.56 0 Z" fill="none" stroke="hsl(41 55% 38%)" stroke-width="1.6" stroke-linejoin="round"/><path d="M 461.59 262.5 a 7.28 7.28 0 1 0 14.56 0 a 7.28 7.28 0 1 0 -14.56 0 Z" fill="none" stroke="hsl(41 55% 38%)" stroke-width="1.6" stroke-linejoin="round"/><path d="M 105 360 a 195 195 0 1 0 390 0 a 195 195 0 1 0 -390 0 Z" fill="none" stroke="hsl(41 55% 38%)" stroke-width="1.6" stroke-linejoin="round"/></g>
  <g transform="translate(300,640)">
    <rect x="-110" y="-26" width="220" height="34" rx="17" fill="#ffffff" opacity="0.8"/>
    <text x="0" y="-3" text-anchor="middle" font-family="Quicksand, Arial, sans-serif" font-size="16" font-weight="600" fill="hsl(41 55% 38%)">🐉 Fantasy &amp; Drachen</text>
  </g>
  <text x="300" y="700" text-anchor="middle" font-family="Quicksand, Arial, sans-serif" font-size="40" font-weight="700" fill="#2b2540"><tspan x="300" dy="0">Fantasy &amp; Drachen</tspan><tspan x="300" dy="44">– Vol. 1</tspan></text>
  <text x="300" y="772" text-anchor="middle" font-family="Arial, sans-serif" font-size="15" fill="#5b5470">Malbuch · 30 Seiten</text>
</svg>