<svg xmlns="http://www.w3.org/2000/svg" viewBox="0 0 600 800" width="600" height="800">
  <defs>
    <linearGradient id="bg" x1="0" y1="0" x2="0" y2="1">
      <stop offset="0" stop-color="hsl(41 70% 95%)"/><stop offset="1" stop-color="hsl(81 70% 92%)"/>
    </linearGradient>
  </defs>
  <rect width="600" height="800" fill="url(#bg)"/>
  <rect x="22" y="22" width="556" height="756" rx="28" fill="none" stroke="hsl(41 55% 38%)" stroke-width="2" opacity="0.5"/>
  <text x="300" y="74" text-anchor="middle" font-family="Quicksand, Arial, sans-serif" font-size="26" font-weight="700" fill="hsl(41 55% 38%)">&#10022; Coloreo</text>
  <g transform="translate(0,40)"><path d="M 323.4 360 Q 335.17 372.84 349.14 360 Q 335.17 347.16 323.4 360 Z" fill="none" stroke="hsl(41 55% 38%)" stroke-width="1.6" stroke-linejoin="round"/><path d="M 311.7 380.26 Q 306.47 396.88 324.57 402.56 Q 328.7 384.04 311.7 380.26 Z" fill="none" stroke="hsl(41 55% 38%)" stroke-width="1.6" stroke-linejoin="round"/><path d="M 288.3 380.26 Q 271.3 384.04 275.43 402.56 Q 293.53 396.88 288.3 380.26 Z" fill="none" stroke="hsl(41 55% 38%)" stroke-width="1.6" stroke-linejoin="round"/><path d="M 276.6 360 Q 264.83 347.16 250.86 360 Q 264.83 372.84 276.6 360 Z" fill="none" stroke="hsl(41 55% 38%)" stroke-width="1.6" stroke-linejoin="round"/><path d="M 288.3 339.74 Q 293.53 323.12 275.43 317.44 Q 271.3 335.96 288.3 339.74 Z" fill="none" stroke="hsl(41 55% 38%)" stroke-width="1.6" stroke-linejoin="round"/><path d="M 311.7 339.74 Q 328.7 335.96 324.57 317.44 Q 306.47 323.12 311.7 339.74 Z" fill="none" stroke="hsl(41 55% 38%)" stroke-width="1.6" stroke-linejoin="round"/><path d="M 300 345.96 C 307.75 345.96 314.04 352.25 314.04 360 C 314.04 367.75 307.75 374.04 300 374.04 C 292.25 374.04 285.96 367.75 285.96 360 C 285.96 352.25 292.25 345.96 300 345.96 Z" fill="none" stroke="hsl(41 55% 38%)" stroke-width="1.6" stroke-linejoin="round"/><path d="M 300 295 C 335.9 295 365 324.1 365 360 C 365 395.9 335.9 425 300 425 C 264.1 425 235 395.9 235 360 C 235 324.1 264.1 295 300 295 Z" fill="none" stroke="hsl(41 55% 38%)" stroke-width="1.6" stroke-linejoin="round"/><path d="M 356.29 392.5 L 372.05 401.6" fill="none" stroke="hsl(41 55% 38%)" stroke-width="1.6" stroke-linejoin="round"/><path d="M 300 425 L 300 443.2" fill="none" stroke="hsl(41 55% 38%)" stroke-width="1.6" stroke-linejoin="round"/><path d="M 243.71 392.5 L 227.95 401.6" fill="none" stroke="hsl(41 55% 38%)" stroke-width="1.6" stroke-linejoin="round"/><path d="M 243.71 327.5 L 227.95 318.4" fill="none" stroke="hsl(41 55% 38%)" stroke-width="1.6" stroke-linejoin="round"/><path d="M 300 295 L 300 276.8" fill="none" stroke="hsl(41 55% 38%)" stroke-width="1.6" stroke-linejoin="round"/><path d="M 356.29 327.5 L 372.05 318.4" fill="none" stroke="hsl(41 55% 38%)" stroke-width="1.6" stroke-linejoin="round"/><path d="M 300 262.5 C 353.85 262.5 397.5 306.15 397.5 360 C 397.5 413.85 353.85 457.5 300 457.5 C 246.15 457.5 202.5 413.85 202.5 360 C 202.5 306.15 246.15 262.5 300 262.5 Z" fill="none" stroke="hsl(41 55% 38%)" stroke-width="1.6" stroke-linejoin="round"/><path d="M 397.5 352.72 C 401.52 352.72 404.78 355.98 404.78 360 C 404.78 364.02 401.52 367.28 397.5 367.28 C 393.48 367.28 390.22 364.02 390.22 360 C 390.22 355.98 393.48 352.72 397.5 352.72 Z" fill="none" stroke="hsl(41 55% 38%)" stroke-width="1.6" stroke-linejoin="round"/><path d="M 384.44 401.47 C 388.46 401.47 391.72 404.73 391.72 408.75 C 391.72 412.77 388.46 416.03 384.44 416.03 C 380.42 416.03 377.16 412.77 377.16 408.75 C 377.16 404.73 380.42 401.47 384.44 401.47 Z" fill="none" stroke="hsl(41 55% 38%)" stroke-width="1.6" stroke-linejoin="round"/><path d="M 348.75 437.16 C 352.77 437.16 356.03 440.42 356.03 444.44 C 356.03 448.46 352.77 451.72 348.75 451.72 C 344.73 451.72 341.47 448.46 341.47 444.44 C 341.47 440.42 344.73 437.16 348.75 437.16 Z" fill="none" stroke="hsl(41 55% 38%)" stroke-width="1.6" stroke-linejoin="round"/><path d="M 300 450.22 C 304.02 450.22 307.28 453.48 307.28 457.5 C 307.28 461.52 304.02 464.78 300 464.78 C 295.98 464.78 292.72 461.52 292.72 457.5 C 292.72 453.48 295.98 450.22 300 450.22 Z" fill="none" stroke="hsl(41 55% 38%)" stroke-width="1.6" stroke-linejoin="round"/><path d="M 251.25 437.16 C 255.27 437.16 258.53 440.42 258.53 444.44 C 258.53 448.46 255.27 451.72 251.25 451.72 C 247.23 451.72 243.97 448.46 243.97 444.44 C 243.97 440.42 247.23 437.16 251.25 437.16 Z" fill="none" stroke="hsl(41 55% 38%)" stroke-width="1.6" stroke-linejoin="round"/><path d="M 215.56 401.47 C 219.58 401.47 222.84 404.73 222.84 408.75 C 222.84 412.77 219.58 416.03 215.56 416.03 C 211.54 416.03 208.28 412.77 208.28 408.75 C 208.28 404.73 211.54 401.47 215.56 401.47 Z" fill="none" stroke="hsl(41 55% 38%)" stroke-width="1.6" stroke-linejoin="round"/><path d="M 202.5 352.72 C 206.52 352.72 209.78 355.98 209.78 360 C 209.78 364.02 206.52 367.28 202.5 367.28 C 198.48 367.28 195.22 364.02 195.22 360 C 195.22 355.98 198.48 352.72 202.5 352.72 Z" fill="none" stroke="hsl(41 55% 38%)" stroke-width="1.6" stroke-linejoin="round"/><path d="M 215.56 303.97 C 219.58 303.97 222.84 307.23 222.84 311.25 C 222.84 315.27 219.58 318.53 215.56 318.53 C 211.54 318.53 208.28 315.27 208.28 311.25 C 208.28 307.23 211.54 303.97 215.56 303.97 Z" fill="none" stroke="hsl(41 55% 38%)" stroke-width="1.6" stroke-linejoin="round"/><path d="M 251.25 268.28 C 255.27 268.28 258.53 271.54 258.53 275.56 C 258.53 279.58 255.27 282.84 251.25 282.84 C 247.23 282.84 243.97 279.58 243.97 275.56 C 243.97 271.54 247.23 268.28 251.25 268.28 Z" fill="none" stroke="hsl(41 55% 38%)" stroke-width="1.6" stroke-linejoin="round"/><path d="M 300 255.22 C 304.02 255.22 307.28 258.48 307.28 262.5 C 307.28 266.52 304.02 269.78 300 269.78 C 295.98 269.78 292.72 266.52 292.72 262.5 C 292.72 258.48 295.98 255.22 300 255.22 Z" fill="none" stroke="hsl(41 55% 38%)" stroke-width="1.6" stroke-linejoin="round"/><path d="M 348.75 268.28 C 352.77 268.28 356.03 271.54 356.03 275.56 C 356.03 279.58 352.77 282.84 348.75 282.84 C 344.73 282.84 341.47 279.58 341.47 275.56 C 341.47 271.54 344.73 268.28 348.75 268.28 Z" fill="none" stroke="hsl(41 55% 38%)" stroke-width="1.6" stroke-linejoin="round"/><path d="M 384.44 303.97 C 388.46 303.97 391.72 307.23 391.72 311.25 C 391.72 315.27 388.46 318.53 384.44 318.53 C 380.42 318.53 377.16 315.27 377.16 311.25 C 377.16 307.23 380.42 303.97 384.44 303.97 Z" fill="none" stroke="hsl(41 55% 38%)" stroke-width="1.6" stroke-linejoin="round"/><path d="M 300 230 C 371.8 230 430 288.2 430 360 C 430 431.8 371.8 490 300 490 C 228.2 490 170 431.8 170 360 C 170 288.2 228.2 230 300 230 Z" fill="none" stroke="hsl(41 55% 38%)" stroke-width="1.6" stroke-linejoin="round"/><path d="M 412.58 425 L 428.34 434.1" fill="none" stroke="hsl(41 55% 38%)" stroke-width="1.6" stroke-linejoin="round"/><path d="M 300 490 L 300 508.2" fill="none" stroke="hsl(41 55% 38%)" stroke-width="1.6" stroke-linejoin="round"/><path d="M 187.42 425 L 171.66 434.1" fill="none" stroke="hsl(41 55% 38%)" stroke-width="1.6" stroke-linejoin="round"/><path d="M 187.42 295 L 171.66 285.9" fill="none" stroke="hsl(41 55% 38%)" stroke-width="1.6" stroke-linejoin="round"/><path d="M 300 230 L 300 211.8" fill="none" stroke="hsl(41 55% 38%)" stroke-width="1.6" stroke-linejoin="round"/><path d="M 412.58 295 L 428.34 285.9" fill="none" stroke="hsl(41 55% 38%)" stroke-width="1.6" stroke-linejoin="round"/><path d="M 300 197.5 C 389.75 197.5 462.5 270.25 462.5 360 C 462.5 449.75 389.75 522.5 300 522.5 C 210.25 522.5 137.5 449.75 137.5 360 C 137.5 270.25 210.25 197.5 300 197.5 Z" fill="none" stroke="hsl(41 55% 38%)" stroke-width="1.6" stroke-linejoin="round"/><path d="M 462.5 352.72 C 466.52 352.72 469.78 355.98 469.78 360 C 469.78 364.02 466.52 367.28 462.5 367.28 C 458.48 367.28 455.22 364.02 455.22 360 C 455.22 355.98 458.48 352.72 462.5 352.72 Z" fill="none" stroke="hsl(41 55% 38%)" stroke-width="1.6" stroke-linejoin="round"/><path d="M 440.73 433.97 C 444.75 433.97 448.01 437.23 448.01 441.25 C 448.01 445.27 444.75 448.53 440.73 448.53 C 436.71 448.53 433.45 445.27 433.45 441.25 C 433.45 437.23 436.71 433.97 440.73 433.97 Z" fill="none" stroke="hsl(41 55% 38%)" stroke-width="1.6" stroke-linejoin="round"/><path d="M 381.25 493.45 C 385.27 493.45 388.53 496.71 388.53 500.73 C 388.53 504.75 385.27 508.01 381.25 508.01 C 377.23 508.01 373.97 504.75 373.97 500.73 C 373.97 496.71 377.23 493.45 381.25 493.45 Z" fill="none" stroke="hsl(41 55% 38%)" stroke-width="1.6" stroke-linejoin="round"/><path d="M 300 515.22 C 304.02 515.22 307.28 518.48 307.28 522.5 C 307.28 526.52 304.02 529.78 300 529.78 C 295.98 529.78 292.72 526.52 292.72 522.5 C 292.72 518.48 295.98 515.22 300 515.22 Z" fill="none" stroke="hsl(41 55% 38%)" stroke-width="1.6" stroke-linejoin="round"/><path d="M 218.75 493.45 C 222.77 493.45 226.03 496.71 226.03 500.73 C 226.03 504.75 222.77 508.01 218.75 508.01 C 214.73 508.01 211.47 504.75 211.47 500.73 C 211.47 496.71 214.73 493.45 218.75 493.45 Z" fill="none" stroke="hsl(41 55% 38%)" stroke-width="1.6" stroke-linejoin="round"/><path d="M 159.27 433.97 C 163.29 433.97 166.55 437.23 166.55 441.25 C 166.55 445.27 163.29 448.53 159.27 448.53 C 155.25 448.53 151.99 445.27 151.99 441.25 C 151.99 437.23 155.25 433.97 159.27 433.97 Z" fill="none" stroke="hsl(41 55% 38%)" stroke-width="1.6" stroke-linejoin="round"/><path d="M 137.5 352.72 C 141.52 352.72 144.78 355.98 144.78 360 C 144.78 364.02 141.52 367.28 137.5 367.28 C 133.48 367.28 130.22 364.02 130.22 360 C 130.22 355.98 133.48 352.72 137.5 352.72 Z" fill="none" stroke="hsl(41 55% 38%)" stroke-width="1.6" stroke-linejoin="round"/><path d="M 159.27 271.47 C 163.29 271.47 166.55 274.73 166.55 278.75 C 166.55 282.77 163.29 286.03 159.27 286.03 C 155.25 286.03 151.99 282.77 151.99 278.75 C 151.99 274.73 155.25 271.47 159.27 271.47 Z" fill="none" stroke="hsl(41 55% 38%)" stroke-width="1.6" stroke-linejoin="round"/><path d="M 218.75 211.99 C 222.77 211.99 226.03 215.25 226.03 219.27 C 226.03 223.29 222.77 226.55 218.75 226.55 C 214.73 226.55 211.47 223.29 211.47 219.27 C 211.47 215.25 214.73 211.99 218.75 211.99 Z" fill="none" stroke="hsl(41 55% 38%)" stroke-width="1.6" stroke-linejoin="round"/><path d="M 300 190.22 C 304.02 190.22 307.28 193.48 307.28 197.5 C 307.28 201.52 304.02 204.78 300 204.78 C 295.98 204.78 292.72 201.52 292.72 197.5 C 292.72 193.48 295.98 190.22 300 190.22 Z" fill="none" stroke="hsl(41 55% 38%)" stroke-width="1.6" stroke-linejoin="round"/><path d="M 381.25 211.99 C 385.27 211.99 388.53 215.25 388.53 219.27 C 388.53 223.29 385.27 226.55 381.25 226.55 C 377.23 226.55 373.97 223.29 373.97 219.27 C 373.97 215.25 377.23 211.99 381.25 211.99 Z" fill="none" stroke="hsl(41 55% 38%)" stroke-width="1.6" stroke-linejoin="round"/><path d="M 440.73 271.47 C 444.75 271.47 448.01 274.73 448.01 278.75 C 448.01 282.77 444.75 286.03 440.73 286.03 C 436.71 286.03 433.45 282.77 433.45 278.75 C 433.45 274.73 436.71 271.47 440.73 271.47 Z" fill="none" stroke="hsl(41 55% 38%)" stroke-width="1.6" stroke-linejoin="round"/><path d="M 300 165 C 407.7 165 495 252.3 495 360 C 495 467.7 407.7 555 300 555 C 192.3 555 105 467.7 105 360 C 105 252.3 192.3 165 300 165 Z" fill="none" stroke="hsl(41 55% 38%)" stroke-width="1.6" stroke-linejoin="round"/><path d="M 468.87 450.22 C 472.9 450.22 476.15 453.48 476.15 457.5 C 476.15 461.52 472.9 464.78 468.87 464.78 C 464.85 464.78 461.59 461.52 461.59 457.5 C 461.59 453.48 464.85 450.22 468.87 450.22 Z" fill="none" stroke="hsl(41 55% 38%)" stroke-width="1.6" stroke-linejoin="round"/><path d="M 300 547.72 C 304.02 547.72 307.28 550.98 307.28 555 C 307.28 559.02 304.02 562.28 300 562.28 C 295.98 562.28 292.72 559.02 292.72 555 C 292.72 550.98 295.98 547.72 300 547.72 Z" fill="none" stroke="hsl(41 55% 38%)" stroke-width="1.6" stroke-linejoin="round"/><path d="M 131.13 450.22 C 135.15 450.22 138.41 453.48 138.41 457.5 C 138.41 461.52 135.15 464.78 131.13 464.78 C 127.1 464.78 123.85 461.52 123.85 457.5 C 123.85 453.48 127.1 450.22 131.13 450.22 Z" fill="none" stroke="hsl(41 55% 38%)" stroke-width="1.6" stroke-linejoin="round"/><path d="M 131.13 255.22 C 135.15 255.22 138.41 258.48 138.41 262.5 C 138.41 266.52 135.15 269.78 131.13 269.78 C 127.1 269.78 123.85 266.52 123.85 262.5 C 123.85 258.48 127.1 255.22 131.13 255.22 Z" fill="none" stroke="hsl(41 55% 38%)" stroke-width="1.6" stroke-linejoin="round"/><path d="M 300 157.72 C 304.02 157.72 307.28 160.98 307.28 165 C 307.28 169.02 304.02 172.28 300 172.28 C 295.98 172.28 292.72 169.02 292.72 165 C 292.72 160.98 295.98 157.72 300 157.72 Z" fill="none" stroke="hsl(41 55% 38%)" stroke-width="1.6" stroke-linejoin="round"/><path d="M 468.87 255.22 C 472.9 255.22 476.15 258.48 476.15 262.5 C 476.15 266.52 472.9 269.78 468.87 269.78 C 464.85 269.78 461.59 266.52 461.59 262.5 C 461.59 258.48 464.85 255.22 468.87 255.22 Z" fill="none" stroke="hsl(41 55% 38%)" stroke-width="1.6" stroke-linejoin="round"/><path d="M 300 165 C 407.7 165 495 252.3 495 360 C 495 467.7 407.7 555 300 555 C 192.3 555 105 467.7 105 360 C 105 252.3 192.3 165 300 165 Z" fill="none" stroke="hsl(41 55% 38%)" stroke-width="1.6" stroke-linejoin="round"/></g>
  <g transform="translate(300,640)">
    <rect x="-110" y="-26" width="220" height="34" rx="17" fill="#ffffff" opacity="0.8"/>
    <text x="0" y="-3" text-anchor="middle" font-family="Quicksand, Arial, sans-serif" font-size="16" font-weight="600" fill="hsl(41 55% 38%)">🐉 Fantasy &amp; Drachen</text>
  </g>
  <text x="300" y="700" text-anchor="middle" font-family="Quicksand, Arial, sans-serif" font-size="40" font-weight="700" fill="#2b2540"><tspan x="300" dy="0">Fantasy &amp; Drachen</tspan><tspan x="300" dy="44">– Vol. 1</tspan></text>
  <text x="300" y="772" text-anchor="middle" font-family="Arial, sans-serif" font-size="15" fill="#5b5470">Malbuch · 24 Seiten</text>
</svg>