<svg xmlns="http://www.w3.org/2000/svg" viewBox="0 0 600 800" width="600" height="800">
  <defs>
    <linearGradient id="bg" x1="0" y1="0" x2="0" y2="1">
      <stop offset="0" stop-color="hsl(214 70% 95%)"/><stop offset="1" stop-color="hsl(254 70% 92%)"/>
    </linearGradient>
  </defs>
  <rect width="600" height="800" fill="url(#bg)"/>
  <rect x="22" y="22" width="556" height="756" rx="28" fill="none" stroke="hsl(214 55% 38%)" stroke-width="2" opacity="0.5"/>
  <text x="300" y="74" text-anchor="middle" font-family="Quicksand, Arial, sans-serif" font-size="26" font-weight="700" fill="hsl(214 55% 38%)">&#10022; Coloreo</text>
  <g transform="translate(0,40)"><path d="M 323.4 360 Q 335.17 372.84 349.14 360 Q 335.17 347.16 323.4 360 Z" fill="none" stroke="hsl(214 55% 38%)" stroke-width="1.6" stroke-linejoin="round"/><path d="M 311.7 380.26 Q 306.47 396.88 324.57 402.56 Q 328.7 384.04 311.7 380.26 Z" fill="none" stroke="hsl(214 55% 38%)" stroke-width="1.6" stroke-linejoin="round"/><path d="M 288.3 380.26 Q 271.3 384.04 275.43 402.56 Q 293.53 396.88 288.3 380.26 Z" fill="none" stroke="hsl(214 55% 38%)" stroke-width="1.6" stroke-linejoin="round"/><path d="M 276.6 360 Q 264.83 347.16 250.86 360 Q 264.83 372.84 276.6 360 Z" fill="none" stroke="hsl(214 55% 38%)" stroke-width="1.6" stroke-linejoin="round"/><path d="M 288.3 339.74 Q 293.53 323.12 275.43 317.44 Q 271.3 335.96 288.3 339.74 Z" fill="none" stroke="hsl(214 55% 38%)" stroke-width="1.6" stroke-linejoin="round"/><path d="M 311.7 339.74 Q 328.7 335.96 324.57 317.44 Q 306.47 323.12 311.7 339.74 Z" fill="none" stroke="hsl(214 55% 38%)" stroke-width="1.6" stroke-linejoin="round"/><path d="M 300 345.96 C 307.75 345.96 314.04 352.25 314.04 360 C 314.04 367.75 307.75 374.04 300 374.04 C 292.25 374.04 285.96 367.75 285.96 360 C 285.96 352.25 292.25 345.96 300 345.96 Z" fill="none" stroke="hsl(214 55% 38%)" stroke-width="1.6" stroke-linejoin="round"/><path d="M 300 282 C 343.08 282 378 316.92 378 360 C 378 403.08 343.08 438 300 438 C 256.92 438 222 403.08 222 360 C 222 316.92 256.92 282 300 282 Z" fill="none" stroke="hsl(214 55% 38%)" stroke-width="1.6" stroke-linejoin="round"/><path d="M 367.55 399 Q 371.37 420.56 394.57 414.6 Q 388.13 391.53 367.55 399 Z" fill="none" stroke="hsl(214 55% 38%)" stroke-width="1.6" stroke-linejoin="round"/><path d="M 300 438 Q 283.24 452.09 300 469.2 Q 316.76 452.09 300 438 Z" fill="none" stroke="hsl(214 55% 38%)" stroke-width="1.6" stroke-linejoin="round"/><path d="M 232.45 399 Q 211.87 391.53 205.43 414.6 Q 228.63 420.56 232.45 399 Z" fill="none" stroke="hsl(214 55% 38%)" stroke-width="1.6" stroke-linejoin="round"/><path d="M 232.45 321 Q 228.63 299.44 205.43 305.4 Q 211.87 328.47 232.45 321 Z" fill="none" stroke="hsl(214 55% 38%)" stroke-width="1.6" stroke-linejoin="round"/><path d="M 300 282 Q 316.76 267.91 300 250.8 Q 283.24 267.91 300 282 Z" fill="none" stroke="hsl(214 55% 38%)" stroke-width="1.6" stroke-linejoin="round"/><path d="M 367.55 321 Q 388.13 328.47 394.57 305.4 Q 371.37 299.44 367.55 321 Z" fill="none" stroke="hsl(214 55% 38%)" stroke-width="1.6" stroke-linejoin="round"/><path d="M 300 243 C 364.62 243 417 295.38 417 360 C 417 424.62 364.62 477 300 477 C 235.38 477 183 424.62 183 360 C 183 295.38 235.38 243 300 243 Z" fill="none" stroke="hsl(214 55% 38%)" stroke-width="1.6" stroke-linejoin="round"/><path d="M 417 360 Q 430.46 383.74 448.2 360 Q 430.46 336.26 417 360 Z" fill="none" stroke="hsl(214 55% 38%)" stroke-width="1.6" stroke-linejoin="round"/><path d="M 401.32 418.5 Q 401.11 445.79 428.34 434.1 Q 424.85 404.67 401.32 418.5 Z" fill="none" stroke="hsl(214 55% 38%)" stroke-width="1.6" stroke-linejoin="round"/><path d="M 358.5 461.32 Q 344.67 484.85 374.1 488.34 Q 385.79 461.11 358.5 461.32 Z" fill="none" stroke="hsl(214 55% 38%)" stroke-width="1.6" stroke-linejoin="round"/><path d="M 300 477 Q 276.26 490.46 300 508.2 Q 323.74 490.46 300 477 Z" fill="none" stroke="hsl(214 55% 38%)" stroke-width="1.6" stroke-linejoin="round"/><path d="M 241.5 461.32 Q 214.21 461.11 225.9 488.34 Q 255.33 484.85 241.5 461.32 Z" fill="none" stroke="hsl(214 55% 38%)" stroke-width="1.6" stroke-linejoin="round"/><path d="M 198.68 418.5 Q 175.15 404.67 171.66 434.1 Q 198.89 445.79 198.68 418.5 Z" fill="none" stroke="hsl(214 55% 38%)" stroke-width="1.6" stroke-linejoin="round"/><path d="M 183 360 Q 169.54 336.26 151.8 360 Q 169.54 383.74 183 360 Z" fill="none" stroke="hsl(214 55% 38%)" stroke-width="1.6" stroke-linejoin="round"/><path d="M 198.68 301.5 Q 198.89 274.21 171.66 285.9 Q 175.15 315.33 198.68 301.5 Z" fill="none" stroke="hsl(214 55% 38%)" stroke-width="1.6" stroke-linejoin="round"/><path d="M 241.5 258.68 Q 255.33 235.15 225.9 231.66 Q 214.21 258.89 241.5 258.68 Z" fill="none" stroke="hsl(214 55% 38%)" stroke-width="1.6" stroke-linejoin="round"/><path d="M 300 243 Q 323.74 229.54 300 211.8 Q 276.26 229.54 300 243 Z" fill="none" stroke="hsl(214 55% 38%)" stroke-width="1.6" stroke-linejoin="round"/><path d="M 358.5 258.68 Q 385.79 258.89 374.1 231.66 Q 344.67 235.15 358.5 258.68 Z" fill="none" stroke="hsl(214 55% 38%)" stroke-width="1.6" stroke-linejoin="round"/><path d="M 401.32 301.5 Q 424.85 315.33 428.34 285.9 Q 401.11 274.21 401.32 301.5 Z" fill="none" stroke="hsl(214 55% 38%)" stroke-width="1.6" stroke-linejoin="round"/><path d="M 300 204 C 386.16 204 456 273.84 456 360 C 456 446.16 386.16 516 300 516 C 213.84 516 144 446.16 144 360 C 144 273.84 213.84 204 300 204 Z" fill="none" stroke="hsl(214 55% 38%)" stroke-width="1.6" stroke-linejoin="round"/><path d="M 435.1 438 L 454.01 448.92" fill="none" stroke="hsl(214 55% 38%)" stroke-width="1.6" stroke-linejoin="round"/><path d="M 300 516 L 300 537.84" fill="none" stroke="hsl(214 55% 38%)" stroke-width="1.6" stroke-linejoin="round"/><path d="M 164.9 438 L 145.99 448.92" fill="none" stroke="hsl(214 55% 38%)" stroke-width="1.6" stroke-linejoin="round"/><path d="M 164.9 282 L 145.99 271.08" fill="none" stroke="hsl(214 55% 38%)" stroke-width="1.6" stroke-linejoin="round"/><path d="M 300 204 L 300 182.16" fill="none" stroke="hsl(214 55% 38%)" stroke-width="1.6" stroke-linejoin="round"/><path d="M 435.1 282 L 454.01 271.08" fill="none" stroke="hsl(214 55% 38%)" stroke-width="1.6" stroke-linejoin="round"/><path d="M 300 165 C 407.7 165 495 252.3 495 360 C 495 467.7 407.7 555 300 555 C 192.3 555 105 467.7 105 360 C 105 252.3 192.3 165 300 165 Z" fill="none" stroke="hsl(214 55% 38%)" stroke-width="1.6" stroke-linejoin="round"/><path d="M 495 351.26 C 499.82 351.26 503.74 355.18 503.74 360 C 503.74 364.82 499.82 368.74 495 368.74 C 490.18 368.74 486.26 364.82 486.26 360 C 486.26 355.18 490.18 351.26 495 351.26 Z" fill="none" stroke="hsl(214 55% 38%)" stroke-width="1.6" stroke-linejoin="round"/><path d="M 468.87 448.76 C 473.7 448.76 477.61 452.68 477.61 457.5 C 477.61 462.32 473.7 466.24 468.87 466.24 C 464.05 466.24 460.14 462.32 460.14 457.5 C 460.14 452.68 464.05 448.76 468.87 448.76 Z" fill="none" stroke="hsl(214 55% 38%)" stroke-width="1.6" stroke-linejoin="round"/><path d="M 397.5 520.14 C 402.32 520.14 406.24 524.05 406.24 528.87 C 406.24 533.7 402.32 537.61 397.5 537.61 C 392.68 537.61 388.76 533.7 388.76 528.87 C 388.76 524.05 392.68 520.14 397.5 520.14 Z" fill="none" stroke="hsl(214 55% 38%)" stroke-width="1.6" stroke-linejoin="round"/><path d="M 300 546.26 C 304.82 546.26 308.74 550.18 308.74 555 C 308.74 559.82 304.82 563.74 300 563.74 C 295.18 563.74 291.26 559.82 291.26 555 C 291.26 550.18 295.18 546.26 300 546.26 Z" fill="none" stroke="hsl(214 55% 38%)" stroke-width="1.6" stroke-linejoin="round"/><path d="M 202.5 520.14 C 207.32 520.14 211.24 524.05 211.24 528.87 C 211.24 533.7 207.32 537.61 202.5 537.61 C 197.68 537.61 193.76 533.7 193.76 528.87 C 193.76 524.05 197.68 520.14 202.5 520.14 Z" fill="none" stroke="hsl(214 55% 38%)" stroke-width="1.6" stroke-linejoin="round"/><path d="M 131.13 448.76 C 135.95 448.76 139.86 452.68 139.86 457.5 C 139.86 462.32 135.95 466.24 131.13 466.24 C 126.3 466.24 122.39 462.32 122.39 457.5 C 122.39 452.68 126.3 448.76 131.13 448.76 Z" fill="none" stroke="hsl(214 55% 38%)" stroke-width="1.6" stroke-linejoin="round"/><path d="M 105 351.26 C 109.82 351.26 113.74 355.18 113.74 360 C 113.74 364.82 109.82 368.74 105 368.74 C 100.18 368.74 96.26 364.82 96.26 360 C 96.26 355.18 100.18 351.26 105 351.26 Z" fill="none" stroke="hsl(214 55% 38%)" stroke-width="1.6" stroke-linejoin="round"/><path d="M 131.13 253.76 C 135.95 253.76 139.86 257.68 139.86 262.5 C 139.86 267.32 135.95 271.24 131.13 271.24 C 126.3 271.24 122.39 267.32 122.39 262.5 C 122.39 257.68 126.3 253.76 131.13 253.76 Z" fill="none" stroke="hsl(214 55% 38%)" stroke-width="1.6" stroke-linejoin="round"/><path d="M 202.5 182.39 C 207.32 182.39 211.24 186.3 211.24 191.13 C 211.24 195.95 207.32 199.86 202.5 199.86 C 197.68 199.86 193.76 195.95 193.76 191.13 C 193.76 186.3 197.68 182.39 202.5 182.39 Z" fill="none" stroke="hsl(214 55% 38%)" stroke-width="1.6" stroke-linejoin="round"/><path d="M 300 156.26 C 304.82 156.26 308.74 160.18 308.74 165 C 308.74 169.82 304.82 173.74 300 173.74 C 295.18 173.74 291.26 169.82 291.26 165 C 291.26 160.18 295.18 156.26 300 156.26 Z" fill="none" stroke="hsl(214 55% 38%)" stroke-width="1.6" stroke-linejoin="round"/><path d="M 397.5 182.39 C 402.32 182.39 406.24 186.3 406.24 191.13 C 406.24 195.95 402.32 199.86 397.5 199.86 C 392.68 199.86 388.76 195.95 388.76 191.13 C 388.76 186.3 392.68 182.39 397.5 182.39 Z" fill="none" stroke="hsl(214 55% 38%)" stroke-width="1.6" stroke-linejoin="round"/><path d="M 468.87 253.76 C 473.7 253.76 477.61 257.68 477.61 262.5 C 477.61 267.32 473.7 271.24 468.87 271.24 C 464.05 271.24 460.14 267.32 460.14 262.5 C 460.14 257.68 464.05 253.76 468.87 253.76 Z" fill="none" stroke="hsl(214 55% 38%)" stroke-width="1.6" stroke-linejoin="round"/><path d="M 300 165 C 407.7 165 495 252.3 495 360 C 495 467.7 407.7 555 300 555 C 192.3 555 105 467.7 105 360 C 105 252.3 192.3 165 300 165 Z" fill="none" stroke="hsl(214 55% 38%)" stroke-width="1.6" stroke-linejoin="round"/></g>
  <g transform="translate(300,640)">
    <rect x="-110" y="-26" width="220" height="34" rx="17" fill="#ffffff" opacity="0.8"/>
    <text x="0" y="-3" text-anchor="middle" font-family="Quicksand, Arial, sans-serif" font-size="16" font-weight="600" fill="hsl(214 55% 38%)">👗 Fashion &amp; Porträts</text>
  </g>
  <text x="300" y="700" text-anchor="middle" font-family="Quicksand, Arial, sans-serif" font-size="40" font-weight="700" fill="#2b2540"><tspan x="300" dy="0">Fashion &amp; Porträts</tspan><tspan x="300" dy="44">– Vol. 2</tspan></text>
  <text x="300" y="772" text-anchor="middle" font-family="Arial, sans-serif" font-size="15" fill="#5b5470">Malbuch · 24 Seiten</text>
</svg>