<svg xmlns="http://www.w3.org/2000/svg" viewBox="0 0 600 800" width="600" height="800">
  <defs>
    <linearGradient id="bg" x1="0" y1="0" x2="0" y2="1">
      <stop offset="0" stop-color="hsl(214 70% 95%)"/><stop offset="1" stop-color="hsl(254 70% 92%)"/>
    </linearGradient>
  </defs>
  <rect width="600" height="800" fill="url(#bg)"/>
  <rect x="22" y="22" width="556" height="756" rx="28" fill="none" stroke="hsl(214 55% 38%)" stroke-width="2" opacity="0.5"/>
  <text x="300" y="74" text-anchor="middle" font-family="Quicksand, Arial, sans-serif" font-size="26" font-weight="700" fill="hsl(214 55% 38%)">&#10022; Coloreo</text>
  <g transform="translate(0,40)"><path d="M 323.4 360 Q 335.17 372.84 349.14 360 Q 335.17 347.16 323.4 360 Z" fill="none" stroke="hsl(214 55% 38%)" stroke-width="1.6" stroke-linejoin="round"/><path d="M 321.62 368.95 Q 327.58 385.32 345.4 378.81 Q 337.41 361.6 321.62 368.95 Z" fill="none" stroke="hsl(214 55% 38%)" stroke-width="1.6" stroke-linejoin="round"/><path d="M 316.55 376.55 Q 315.79 393.95 334.75 394.75 Q 333.95 375.79 316.55 376.55 Z" fill="none" stroke="hsl(214 55% 38%)" stroke-width="1.6" stroke-linejoin="round"/><path d="M 308.95 381.62 Q 301.6 397.41 318.81 405.4 Q 325.32 387.58 308.95 381.62 Z" fill="none" stroke="hsl(214 55% 38%)" stroke-width="1.6" stroke-linejoin="round"/><path d="M 300 383.4 Q 287.16 395.17 300 409.14 Q 312.84 395.17 300 383.4 Z" fill="none" stroke="hsl(214 55% 38%)" stroke-width="1.6" stroke-linejoin="round"/><path d="M 291.05 381.62 Q 274.68 387.58 281.19 405.4 Q 298.4 397.41 291.05 381.62 Z" fill="none" stroke="hsl(214 55% 38%)" stroke-width="1.6" stroke-linejoin="round"/><path d="M 283.45 376.55 Q 266.05 375.79 265.25 394.75 Q 284.21 393.95 283.45 376.55 Z" fill="none" stroke="hsl(214 55% 38%)" stroke-width="1.6" stroke-linejoin="round"/><path d="M 278.38 368.95 Q 262.59 361.6 254.6 378.81 Q 272.42 385.32 278.38 368.95 Z" fill="none" stroke="hsl(214 55% 38%)" stroke-width="1.6" stroke-linejoin="round"/><path d="M 276.6 360 Q 264.83 347.16 250.86 360 Q 264.83 372.84 276.6 360 Z" fill="none" stroke="hsl(214 55% 38%)" stroke-width="1.6" stroke-linejoin="round"/><path d="M 278.38 351.05 Q 272.42 334.68 254.6 341.19 Q 262.59 358.4 278.38 351.05 Z" fill="none" stroke="hsl(214 55% 38%)" stroke-width="1.6" stroke-linejoin="round"/><path d="M 283.45 343.45 Q 284.21 326.05 265.25 325.25 Q 266.05 344.21 283.45 343.45 Z" fill="none" stroke="hsl(214 55% 38%)" stroke-width="1.6" stroke-linejoin="round"/><path d="M 291.05 338.38 Q 298.4 322.59 281.19 314.6 Q 274.68 332.42 291.05 338.38 Z" fill="none" stroke="hsl(214 55% 38%)" stroke-width="1.6" stroke-linejoin="round"/><path d="M 300 336.6 Q 312.84 324.83 300 310.86 Q 287.16 324.83 300 336.6 Z" fill="none" stroke="hsl(214 55% 38%)" stroke-width="1.6" stroke-linejoin="round"/><path d="M 308.95 338.38 Q 325.32 332.42 318.81 314.6 Q 301.6 322.59 308.95 338.38 Z" fill="none" stroke="hsl(214 55% 38%)" stroke-width="1.6" stroke-linejoin="round"/><path d="M 316.55 343.45 Q 333.95 344.21 334.75 325.25 Q 315.79 326.05 316.55 343.45 Z" fill="none" stroke="hsl(214 55% 38%)" stroke-width="1.6" stroke-linejoin="round"/><path d="M 321.62 351.05 Q 337.41 358.4 345.4 341.19 Q 327.58 334.68 321.62 351.05 Z" fill="none" stroke="hsl(214 55% 38%)" stroke-width="1.6" stroke-linejoin="round"/><path d="M 285.96 360 a 14.04 14.04 0 1 0 28.08 0 a 14.04 14.04 0 1 0 -28.08 0 Z" fill="none" stroke="hsl(214 55% 38%)" stroke-width="1.6" stroke-linejoin="round"/><path d="M 202.5 360 a 97.5 97.5 0 1 0 195 0 a 97.5 97.5 0 1 0 -195 0 Z" fill="none" stroke="hsl(214 55% 38%)" stroke-width="1.6" stroke-linejoin="round"/><path d="M 395.63 379.02 L 422.4 384.35" fill="none" stroke="hsl(214 55% 38%)" stroke-width="1.6" stroke-linejoin="round"/><path d="M 381.07 414.17 L 403.77 429.34" fill="none" stroke="hsl(214 55% 38%)" stroke-width="1.6" stroke-linejoin="round"/><path d="M 354.17 441.07 L 369.34 463.77" fill="none" stroke="hsl(214 55% 38%)" stroke-width="1.6" stroke-linejoin="round"/><path d="M 319.02 455.63 L 324.35 482.4" fill="none" stroke="hsl(214 55% 38%)" stroke-width="1.6" stroke-linejoin="round"/><path d="M 280.98 455.63 L 275.65 482.4" fill="none" stroke="hsl(214 55% 38%)" stroke-width="1.6" stroke-linejoin="round"/><path d="M 245.83 441.07 L 230.66 463.77" fill="none" stroke="hsl(214 55% 38%)" stroke-width="1.6" stroke-linejoin="round"/><path d="M 218.93 414.17 L 196.23 429.34" fill="none" stroke="hsl(214 55% 38%)" stroke-width="1.6" stroke-linejoin="round"/><path d="M 204.37 379.02 L 177.6 384.35" fill="none" stroke="hsl(214 55% 38%)" stroke-width="1.6" stroke-linejoin="round"/><path d="M 204.37 340.98 L 177.6 335.65" fill="none" stroke="hsl(214 55% 38%)" stroke-width="1.6" stroke-linejoin="round"/><path d="M 218.93 305.83 L 196.23 290.66" fill="none" stroke="hsl(214 55% 38%)" stroke-width="1.6" stroke-linejoin="round"/><path d="M 245.83 278.93 L 230.66 256.23" fill="none" stroke="hsl(214 55% 38%)" stroke-width="1.6" stroke-linejoin="round"/><path d="M 280.98 264.37 L 275.65 237.6" fill="none" stroke="hsl(214 55% 38%)" stroke-width="1.6" stroke-linejoin="round"/><path d="M 319.02 264.37 L 324.35 237.6" fill="none" stroke="hsl(214 55% 38%)" stroke-width="1.6" stroke-linejoin="round"/><path d="M 354.17 278.93 L 369.34 256.23" fill="none" stroke="hsl(214 55% 38%)" stroke-width="1.6" stroke-linejoin="round"/><path d="M 381.07 305.83 L 403.77 290.66" fill="none" stroke="hsl(214 55% 38%)" stroke-width="1.6" stroke-linejoin="round"/><path d="M 395.63 340.98 L 422.4 335.65" fill="none" stroke="hsl(214 55% 38%)" stroke-width="1.6" stroke-linejoin="round"/><path d="M 153.75 360 a 146.25 146.25 0 1 0 292.5 0 a 146.25 146.25 0 1 0 -292.5 0 Z" fill="none" stroke="hsl(214 55% 38%)" stroke-width="1.6" stroke-linejoin="round"/><path d="M 435.33 360 a 10.92 10.92 0 1 0 21.84 0 a 10.92 10.92 0 1 0 -21.84 0 Z" fill="none" stroke="hsl(214 55% 38%)" stroke-width="1.6" stroke-linejoin="round"/><path d="M 432.52 388.53 a 10.92 10.92 0 1 0 21.84 0 a 10.92 10.92 0 1 0 -21.84 0 Z" fill="none" stroke="hsl(214 55% 38%)" stroke-width="1.6" stroke-linejoin="round"/><path d="M 424.2 415.97 a 10.92 10.92 0 1 0 21.84 0 a 10.92 10.92 0 1 0 -21.84 0 Z" fill="none" stroke="hsl(214 55% 38%)" stroke-width="1.6" stroke-linejoin="round"/><path d="M 410.68 441.25 a 10.92 10.92 0 1 0 21.84 0 a 10.92 10.92 0 1 0 -21.84 0 Z" fill="none" stroke="hsl(214 55% 38%)" stroke-width="1.6" stroke-linejoin="round"/><path d="M 392.49 463.41 a 10.92 10.92 0 1 0 21.84 0 a 10.92 10.92 0 1 0 -21.84 0 Z" fill="none" stroke="hsl(214 55% 38%)" stroke-width="1.6" stroke-linejoin="round"/><path d="M 370.33 481.6 a 10.92 10.92 0 1 0 21.84 0 a 10.92 10.92 0 1 0 -21.84 0 Z" fill="none" stroke="hsl(214 55% 38%)" stroke-width="1.6" stroke-linejoin="round"/><path d="M 345.05 495.12 a 10.92 10.92 0 1 0 21.84 0 a 10.92 10.92 0 1 0 -21.84 0 Z" fill="none" stroke="hsl(214 55% 38%)" stroke-width="1.6" stroke-linejoin="round"/><path d="M 317.61 503.44 a 10.92 10.92 0 1 0 21.84 0 a 10.92 10.92 0 1 0 -21.84 0 Z" fill="none" stroke="hsl(214 55% 38%)" stroke-width="1.6" stroke-linejoin="round"/><path d="M 289.08 506.25 a 10.92 10.92 0 1 0 21.84 0 a 10.92 10.92 0 1 0 -21.84 0 Z" fill="none" stroke="hsl(214 55% 38%)" stroke-width="1.6" stroke-linejoin="round"/><path d="M 260.55 503.44 a 10.92 10.92 0 1 0 21.84 0 a 10.92 10.92 0 1 0 -21.84 0 Z" fill="none" stroke="hsl(214 55% 38%)" stroke-width="1.6" stroke-linejoin="round"/><path d="M 233.11 495.12 a 10.92 10.92 0 1 0 21.84 0 a 10.92 10.92 0 1 0 -21.84 0 Z" fill="none" stroke="hsl(214 55% 38%)" stroke-width="1.6" stroke-linejoin="round"/><path d="M 207.83 481.6 a 10.92 10.92 0 1 0 21.84 0 a 10.92 10.92 0 1 0 -21.84 0 Z" fill="none" stroke="hsl(214 55% 38%)" stroke-width="1.6" stroke-linejoin="round"/><path d="M 185.67 463.41 a 10.92 10.92 0 1 0 21.84 0 a 10.92 10.92 0 1 0 -21.84 0 Z" fill="none" stroke="hsl(214 55% 38%)" stroke-width="1.6" stroke-linejoin="round"/><path d="M 167.48 441.25 a 10.92 10.92 0 1 0 21.84 0 a 10.92 10.92 0 1 0 -21.84 0 Z" fill="none" stroke="hsl(214 55% 38%)" stroke-width="1.6" stroke-linejoin="round"/><path d="M 153.96 415.97 a 10.92 10.92 0 1 0 21.84 0 a 10.92 10.92 0 1 0 -21.84 0 Z" fill="none" stroke="hsl(214 55% 38%)" stroke-width="1.6" stroke-linejoin="round"/><path d="M 145.64 388.53 a 10.92 10.92 0 1 0 21.84 0 a 10.92 10.92 0 1 0 -21.84 0 Z" fill="none" stroke="hsl(214 55% 38%)" stroke-width="1.6" stroke-linejoin="round"/><path d="M 142.83 360 a 10.92 10.92 0 1 0 21.84 0 a 10.92 10.92 0 1 0 -21.84 0 Z" fill="none" stroke="hsl(214 55% 38%)" stroke-width="1.6" stroke-linejoin="round"/><path d="M 145.64 331.47 a 10.92 10.92 0 1 0 21.84 0 a 10.92 10.92 0 1 0 -21.84 0 Z" fill="none" stroke="hsl(214 55% 38%)" stroke-width="1.6" stroke-linejoin="round"/><path d="M 153.96 304.03 a 10.92 10.92 0 1 0 21.84 0 a 10.92 10.92 0 1 0 -21.84 0 Z" fill="none" stroke="hsl(214 55% 38%)" stroke-width="1.6" stroke-linejoin="round"/><path d="M 167.48 278.75 a 10.92 10.92 0 1 0 21.84 0 a 10.92 10.92 0 1 0 -21.84 0 Z" fill="none" stroke="hsl(214 55% 38%)" stroke-width="1.6" stroke-linejoin="round"/><path d="M 185.67 256.59 a 10.92 10.92 0 1 0 21.84 0 a 10.92 10.92 0 1 0 -21.84 0 Z" fill="none" stroke="hsl(214 55% 38%)" stroke-width="1.6" stroke-linejoin="round"/><path d="M 207.83 238.4 a 10.92 10.92 0 1 0 21.84 0 a 10.92 10.92 0 1 0 -21.84 0 Z" fill="none" stroke="hsl(214 55% 38%)" stroke-width="1.6" stroke-linejoin="round"/><path d="M 233.11 224.88 a 10.92 10.92 0 1 0 21.84 0 a 10.92 10.92 0 1 0 -21.84 0 Z" fill="none" stroke="hsl(214 55% 38%)" stroke-width="1.6" stroke-linejoin="round"/><path d="M 260.55 216.56 a 10.92 10.92 0 1 0 21.84 0 a 10.92 10.92 0 1 0 -21.84 0 Z" fill="none" stroke="hsl(214 55% 38%)" stroke-width="1.6" stroke-linejoin="round"/><path d="M 289.08 213.75 a 10.92 10.92 0 1 0 21.84 0 a 10.92 10.92 0 1 0 -21.84 0 Z" fill="none" stroke="hsl(214 55% 38%)" stroke-width="1.6" stroke-linejoin="round"/><path d="M 317.61 216.56 a 10.92 10.92 0 1 0 21.84 0 a 10.92 10.92 0 1 0 -21.84 0 Z" fill="none" stroke="hsl(214 55% 38%)" stroke-width="1.6" stroke-linejoin="round"/><path d="M 345.05 224.88 a 10.92 10.92 0 1 0 21.84 0 a 10.92 10.92 0 1 0 -21.84 0 Z" fill="none" stroke="hsl(214 55% 38%)" stroke-width="1.6" stroke-linejoin="round"/><path d="M 370.33 238.4 a 10.92 10.92 0 1 0 21.84 0 a 10.92 10.92 0 1 0 -21.84 0 Z" fill="none" stroke="hsl(214 55% 38%)" stroke-width="1.6" stroke-linejoin="round"/><path d="M 392.49 256.59 a 10.92 10.92 0 1 0 21.84 0 a 10.92 10.92 0 1 0 -21.84 0 Z" fill="none" stroke="hsl(214 55% 38%)" stroke-width="1.6" stroke-linejoin="round"/><path d="M 410.68 278.75 a 10.92 10.92 0 1 0 21.84 0 a 10.92 10.92 0 1 0 -21.84 0 Z" fill="none" stroke="hsl(214 55% 38%)" stroke-width="1.6" stroke-linejoin="round"/><path d="M 424.2 304.03 a 10.92 10.92 0 1 0 21.84 0 a 10.92 10.92 0 1 0 -21.84 0 Z" fill="none" stroke="hsl(214 55% 38%)" stroke-width="1.6" stroke-linejoin="round"/><path d="M 432.52 331.47 a 10.92 10.92 0 1 0 21.84 0 a 10.92 10.92 0 1 0 -21.84 0 Z" fill="none" stroke="hsl(214 55% 38%)" stroke-width="1.6" stroke-linejoin="round"/><path d="M 105 360 a 195 195 0 1 0 390 0 a 195 195 0 1 0 -390 0 Z" fill="none" stroke="hsl(214 55% 38%)" stroke-width="1.6" stroke-linejoin="round"/><path d="M 480.33 398.04 a 10.92 10.92 0 1 0 21.84 0 a 10.92 10.92 0 1 0 -21.84 0 Z" fill="none" stroke="hsl(214 55% 38%)" stroke-width="1.6" stroke-linejoin="round"/><path d="M 451.22 468.34 a 10.92 10.92 0 1 0 21.84 0 a 10.92 10.92 0 1 0 -21.84 0 Z" fill="none" stroke="hsl(214 55% 38%)" stroke-width="1.6" stroke-linejoin="round"/><path d="M 397.42 522.14 a 10.92 10.92 0 1 0 21.84 0 a 10.92 10.92 0 1 0 -21.84 0 Z" fill="none" stroke="hsl(214 55% 38%)" stroke-width="1.6" stroke-linejoin="round"/><path d="M 327.12 551.25 a 10.92 10.92 0 1 0 21.84 0 a 10.92 10.92 0 1 0 -21.84 0 Z" fill="none" stroke="hsl(214 55% 38%)" stroke-width="1.6" stroke-linejoin="round"/><path d="M 251.04 551.25 a 10.92 10.92 0 1 0 21.84 0 a 10.92 10.92 0 1 0 -21.84 0 Z" fill="none" stroke="hsl(214 55% 38%)" stroke-width="1.6" stroke-linejoin="round"/><path d="M 180.74 522.14 a 10.92 10.92 0 1 0 21.84 0 a 10.92 10.92 0 1 0 -21.84 0 Z" fill="none" stroke="hsl(214 55% 38%)" stroke-width="1.6" stroke-linejoin="round"/><path d="M 126.94 468.34 a 10.92 10.92 0 1 0 21.84 0 a 10.92 10.92 0 1 0 -21.84 0 Z" fill="none" stroke="hsl(214 55% 38%)" stroke-width="1.6" stroke-linejoin="round"/><path d="M 97.83 398.04 a 10.92 10.92 0 1 0 21.84 0 a 10.92 10.92 0 1 0 -21.84 0 Z" fill="none" stroke="hsl(214 55% 38%)" stroke-width="1.6" stroke-linejoin="round"/><path d="M 97.83 321.96 a 10.92 10.92 0 1 0 21.84 0 a 10.92 10.92 0 1 0 -21.84 0 Z" fill="none" stroke="hsl(214 55% 38%)" stroke-width="1.6" stroke-linejoin="round"/><path d="M 126.94 251.66 a 10.92 10.92 0 1 0 21.84 0 a 10.92 10.92 0 1 0 -21.84 0 Z" fill="none" stroke="hsl(214 55% 38%)" stroke-width="1.6" stroke-linejoin="round"/><path d="M 180.74 197.86 a 10.92 10.92 0 1 0 21.84 0 a 10.92 10.92 0 1 0 -21.84 0 Z" fill="none" stroke="hsl(214 55% 38%)" stroke-width="1.6" stroke-linejoin="round"/><path d="M 251.04 168.75 a 10.92 10.92 0 1 0 21.84 0 a 10.92 10.92 0 1 0 -21.84 0 Z" fill="none" stroke="hsl(214 55% 38%)" stroke-width="1.6" stroke-linejoin="round"/><path d="M 327.12 168.75 a 10.92 10.92 0 1 0 21.84 0 a 10.92 10.92 0 1 0 -21.84 0 Z" fill="none" stroke="hsl(214 55% 38%)" stroke-width="1.6" stroke-linejoin="round"/><path d="M 397.42 197.86 a 10.92 10.92 0 1 0 21.84 0 a 10.92 10.92 0 1 0 -21.84 0 Z" fill="none" stroke="hsl(214 55% 38%)" stroke-width="1.6" stroke-linejoin="round"/><path d="M 451.22 251.66 a 10.92 10.92 0 1 0 21.84 0 a 10.92 10.92 0 1 0 -21.84 0 Z" fill="none" stroke="hsl(214 55% 38%)" stroke-width="1.6" stroke-linejoin="round"/><path d="M 480.33 321.96 a 10.92 10.92 0 1 0 21.84 0 a 10.92 10.92 0 1 0 -21.84 0 Z" fill="none" stroke="hsl(214 55% 38%)" stroke-width="1.6" stroke-linejoin="round"/><path d="M 105 360 a 195 195 0 1 0 390 0 a 195 195 0 1 0 -390 0 Z" fill="none" stroke="hsl(214 55% 38%)" stroke-width="1.6" stroke-linejoin="round"/></g>
  <g transform="translate(300,640)">
    <rect x="-110" y="-26" width="220" height="34" rx="17" fill="#ffffff" opacity="0.8"/>
    <text x="0" y="-3" text-anchor="middle" font-family="Quicksand, Arial, sans-serif" font-size="16" font-weight="600" fill="hsl(214 55% 38%)">👗 Fashion &amp; Porträts</text>
  </g>
  <text x="300" y="700" text-anchor="middle" font-family="Quicksand, Arial, sans-serif" font-size="40" font-weight="700" fill="#2b2540"><tspan x="300" dy="0">Fashion &amp; Porträts</tspan><tspan x="300" dy="44">– Vol. 1</tspan></text>
  <text x="300" y="772" text-anchor="middle" font-family="Arial, sans-serif" font-size="15" fill="#5b5470">Malbuch · 30 Seiten</text>
</svg>