<svg xmlns="http://www.w3.org/2000/svg" viewBox="0 0 600 800" width="600" height="800">
  <defs>
    <linearGradient id="bg" x1="0" y1="0" x2="0" y2="1">
      <stop offset="0" stop-color="hsl(132 70% 95%)"/><stop offset="1" stop-color="hsl(172 70% 92%)"/>
    </linearGradient>
  </defs>
  <rect width="600" height="800" fill="url(#bg)"/>
  <rect x="22" y="22" width="556" height="756" rx="28" fill="none" stroke="hsl(132 55% 38%)" stroke-width="2" opacity="0.5"/>
  <text x="300" y="74" text-anchor="middle" font-family="Quicksand, Arial, sans-serif" font-size="26" font-weight="700" fill="hsl(132 55% 38%)">&#10022; Coloreo</text>
  <g transform="translate(0,40)"><path d="M 323.4 360 Q 335.17 372.84 349.14 360 Q 335.17 347.16 323.4 360 Z" fill="none" stroke="hsl(132 55% 38%)" stroke-width="1.6" stroke-linejoin="round"/><path d="M 321.62 368.95 Q 327.58 385.32 345.4 378.81 Q 337.41 361.6 321.62 368.95 Z" fill="none" stroke="hsl(132 55% 38%)" stroke-width="1.6" stroke-linejoin="round"/><path d="M 316.55 376.55 Q 315.79 393.95 334.75 394.75 Q 333.95 375.79 316.55 376.55 Z" fill="none" stroke="hsl(132 55% 38%)" stroke-width="1.6" stroke-linejoin="round"/><path d="M 308.95 381.62 Q 301.6 397.41 318.81 405.4 Q 325.32 387.58 308.95 381.62 Z" fill="none" stroke="hsl(132 55% 38%)" stroke-width="1.6" stroke-linejoin="round"/><path d="M 300 383.4 Q 287.16 395.17 300 409.14 Q 312.84 395.17 300 383.4 Z" fill="none" stroke="hsl(132 55% 38%)" stroke-width="1.6" stroke-linejoin="round"/><path d="M 291.05 381.62 Q 274.68 387.58 281.19 405.4 Q 298.4 397.41 291.05 381.62 Z" fill="none" stroke="hsl(132 55% 38%)" stroke-width="1.6" stroke-linejoin="round"/><path d="M 283.45 376.55 Q 266.05 375.79 265.25 394.75 Q 284.21 393.95 283.45 376.55 Z" fill="none" stroke="hsl(132 55% 38%)" stroke-width="1.6" stroke-linejoin="round"/><path d="M 278.38 368.95 Q 262.59 361.6 254.6 378.81 Q 272.42 385.32 278.38 368.95 Z" fill="none" stroke="hsl(132 55% 38%)" stroke-width="1.6" stroke-linejoin="round"/><path d="M 276.6 360 Q 264.83 347.16 250.86 360 Q 264.83 372.84 276.6 360 Z" fill="none" stroke="hsl(132 55% 38%)" stroke-width="1.6" stroke-linejoin="round"/><path d="M 278.38 351.05 Q 272.42 334.68 254.6 341.19 Q 262.59 358.4 278.38 351.05 Z" fill="none" stroke="hsl(132 55% 38%)" stroke-width="1.6" stroke-linejoin="round"/><path d="M 283.45 343.45 Q 284.21 326.05 265.25 325.25 Q 266.05 344.21 283.45 343.45 Z" fill="none" stroke="hsl(132 55% 38%)" stroke-width="1.6" stroke-linejoin="round"/><path d="M 291.05 338.38 Q 298.4 322.59 281.19 314.6 Q 274.68 332.42 291.05 338.38 Z" fill="none" stroke="hsl(132 55% 38%)" stroke-width="1.6" stroke-linejoin="round"/><path d="M 300 336.6 Q 312.84 324.83 300 310.86 Q 287.16 324.83 300 336.6 Z" fill="none" stroke="hsl(132 55% 38%)" stroke-width="1.6" stroke-linejoin="round"/><path d="M 308.95 338.38 Q 325.32 332.42 318.81 314.6 Q 301.6 322.59 308.95 338.38 Z" fill="none" stroke="hsl(132 55% 38%)" stroke-width="1.6" stroke-linejoin="round"/><path d="M 316.55 343.45 Q 333.95 344.21 334.75 325.25 Q 315.79 326.05 316.55 343.45 Z" fill="none" stroke="hsl(132 55% 38%)" stroke-width="1.6" stroke-linejoin="round"/><path d="M 321.62 351.05 Q 337.41 358.4 345.4 341.19 Q 327.58 334.68 321.62 351.05 Z" fill="none" stroke="hsl(132 55% 38%)" stroke-width="1.6" stroke-linejoin="round"/><path d="M 300 345.96 C 307.75 345.96 314.04 352.25 314.04 360 C 314.04 367.75 307.75 374.04 300 374.04 C 292.25 374.04 285.96 367.75 285.96 360 C 285.96 352.25 292.25 345.96 300 345.96 Z" fill="none" stroke="hsl(132 55% 38%)" stroke-width="1.6" stroke-linejoin="round"/><path d="M 300 262.5 C 353.85 262.5 397.5 306.15 397.5 360 C 397.5 413.85 353.85 457.5 300 457.5 C 246.15 457.5 202.5 413.85 202.5 360 C 202.5 306.15 246.15 262.5 300 262.5 Z" fill="none" stroke="hsl(132 55% 38%)" stroke-width="1.6" stroke-linejoin="round"/><path d="M 395.63 368.1 C 401.66 368.1 406.55 372.99 406.55 379.02 C 406.55 385.05 401.66 389.94 395.63 389.94 C 389.6 389.94 384.71 385.05 384.71 379.02 C 384.71 372.99 389.6 368.1 395.63 368.1 Z" fill="none" stroke="hsl(132 55% 38%)" stroke-width="1.6" stroke-linejoin="round"/><path d="M 381.07 403.25 C 387.1 403.25 391.99 408.14 391.99 414.17 C 391.99 420.2 387.1 425.09 381.07 425.09 C 375.04 425.09 370.15 420.2 370.15 414.17 C 370.15 408.14 375.04 403.25 381.07 403.25 Z" fill="none" stroke="hsl(132 55% 38%)" stroke-width="1.6" stroke-linejoin="round"/><path d="M 354.17 430.15 C 360.2 430.15 365.09 435.04 365.09 441.07 C 365.09 447.1 360.2 451.99 354.17 451.99 C 348.14 451.99 343.25 447.1 343.25 441.07 C 343.25 435.04 348.14 430.15 354.17 430.15 Z" fill="none" stroke="hsl(132 55% 38%)" stroke-width="1.6" stroke-linejoin="round"/><path d="M 319.02 444.71 C 325.05 444.71 329.94 449.6 329.94 455.63 C 329.94 461.66 325.05 466.55 319.02 466.55 C 312.99 466.55 308.1 461.66 308.1 455.63 C 308.1 449.6 312.99 444.71 319.02 444.71 Z" fill="none" stroke="hsl(132 55% 38%)" stroke-width="1.6" stroke-linejoin="round"/><path d="M 280.98 444.71 C 287.01 444.71 291.9 449.6 291.9 455.63 C 291.9 461.66 287.01 466.55 280.98 466.55 C 274.95 466.55 270.06 461.66 270.06 455.63 C 270.06 449.6 274.95 444.71 280.98 444.71 Z" fill="none" stroke="hsl(132 55% 38%)" stroke-width="1.6" stroke-linejoin="round"/><path d="M 245.83 430.15 C 251.86 430.15 256.75 435.04 256.75 441.07 C 256.75 447.1 251.86 451.99 245.83 451.99 C 239.8 451.99 234.91 447.1 234.91 441.07 C 234.91 435.04 239.8 430.15 245.83 430.15 Z" fill="none" stroke="hsl(132 55% 38%)" stroke-width="1.6" stroke-linejoin="round"/><path d="M 218.93 403.25 C 224.96 403.25 229.85 408.14 229.85 414.17 C 229.85 420.2 224.96 425.09 218.93 425.09 C 212.9 425.09 208.01 420.2 208.01 414.17 C 208.01 408.14 212.9 403.25 218.93 403.25 Z" fill="none" stroke="hsl(132 55% 38%)" stroke-width="1.6" stroke-linejoin="round"/><path d="M 204.37 368.1 C 210.4 368.1 215.29 372.99 215.29 379.02 C 215.29 385.05 210.4 389.94 204.37 389.94 C 198.34 389.94 193.45 385.05 193.45 379.02 C 193.45 372.99 198.34 368.1 204.37 368.1 Z" fill="none" stroke="hsl(132 55% 38%)" stroke-width="1.6" stroke-linejoin="round"/><path d="M 204.37 330.06 C 210.4 330.06 215.29 334.95 215.29 340.98 C 215.29 347.01 210.4 351.9 204.37 351.9 C 198.34 351.9 193.45 347.01 193.45 340.98 C 193.45 334.95 198.34 330.06 204.37 330.06 Z" fill="none" stroke="hsl(132 55% 38%)" stroke-width="1.6" stroke-linejoin="round"/><path d="M 218.93 294.91 C 224.96 294.91 229.85 299.8 229.85 305.83 C 229.85 311.86 224.96 316.75 218.93 316.75 C 212.9 316.75 208.01 311.86 208.01 305.83 C 208.01 299.8 212.9 294.91 218.93 294.91 Z" fill="none" stroke="hsl(132 55% 38%)" stroke-width="1.6" stroke-linejoin="round"/><path d="M 245.83 268.01 C 251.86 268.01 256.75 272.9 256.75 278.93 C 256.75 284.96 251.86 289.85 245.83 289.85 C 239.8 289.85 234.91 284.96 234.91 278.93 C 234.91 272.9 239.8 268.01 245.83 268.01 Z" fill="none" stroke="hsl(132 55% 38%)" stroke-width="1.6" stroke-linejoin="round"/><path d="M 280.98 253.45 C 287.01 253.45 291.9 258.34 291.9 264.37 C 291.9 270.4 287.01 275.29 280.98 275.29 C 274.95 275.29 270.06 270.4 270.06 264.37 C 270.06 258.34 274.95 253.45 280.98 253.45 Z" fill="none" stroke="hsl(132 55% 38%)" stroke-width="1.6" stroke-linejoin="round"/><path d="M 319.02 253.45 C 325.05 253.45 329.94 258.34 329.94 264.37 C 329.94 270.4 325.05 275.29 319.02 275.29 C 312.99 275.29 308.1 270.4 308.1 264.37 C 308.1 258.34 312.99 253.45 319.02 253.45 Z" fill="none" stroke="hsl(132 55% 38%)" stroke-width="1.6" stroke-linejoin="round"/><path d="M 354.17 268.01 C 360.2 268.01 365.09 272.9 365.09 278.93 C 365.09 284.96 360.2 289.85 354.17 289.85 C 348.14 289.85 343.25 284.96 343.25 278.93 C 343.25 272.9 348.14 268.01 354.17 268.01 Z" fill="none" stroke="hsl(132 55% 38%)" stroke-width="1.6" stroke-linejoin="round"/><path d="M 381.07 294.91 C 387.1 294.91 391.99 299.8 391.99 305.83 C 391.99 311.86 387.1 316.75 381.07 316.75 C 375.04 316.75 370.15 311.86 370.15 305.83 C 370.15 299.8 375.04 294.91 381.07 294.91 Z" fill="none" stroke="hsl(132 55% 38%)" stroke-width="1.6" stroke-linejoin="round"/><path d="M 395.63 330.06 C 401.66 330.06 406.55 334.95 406.55 340.98 C 406.55 347.01 401.66 351.9 395.63 351.9 C 389.6 351.9 384.71 347.01 384.71 340.98 C 384.71 334.95 389.6 330.06 395.63 330.06 Z" fill="none" stroke="hsl(132 55% 38%)" stroke-width="1.6" stroke-linejoin="round"/><path d="M 300 213.75 C 380.77 213.75 446.25 279.23 446.25 360 C 446.25 440.77 380.77 506.25 300 506.25 C 219.23 506.25 153.75 440.77 153.75 360 C 153.75 279.23 219.23 213.75 300 213.75 Z" fill="none" stroke="hsl(132 55% 38%)" stroke-width="1.6" stroke-linejoin="round"/><path d="M 446.25 360 Q 463.07 389.67 485.25 360 Q 463.07 330.33 446.25 360 Z" fill="none" stroke="hsl(132 55% 38%)" stroke-width="1.6" stroke-linejoin="round"/><path d="M 443.44 388.53 Q 454.15 420.92 481.69 396.14 Q 465.73 362.71 443.44 388.53 Z" fill="none" stroke="hsl(132 55% 38%)" stroke-width="1.6" stroke-linejoin="round"/><path d="M 435.12 415.97 Q 439.3 449.82 471.15 430.89 Q 462.01 394.99 435.12 415.97 Z" fill="none" stroke="hsl(132 55% 38%)" stroke-width="1.6" stroke-linejoin="round"/><path d="M 421.6 441.25 Q 419.1 475.27 454.03 462.92 Q 452.08 425.92 421.6 441.25 Z" fill="none" stroke="hsl(132 55% 38%)" stroke-width="1.6" stroke-linejoin="round"/><path d="M 403.41 463.41 Q 394.33 496.29 430.99 490.99 Q 436.29 454.33 403.41 463.41 Z" fill="none" stroke="hsl(132 55% 38%)" stroke-width="1.6" stroke-linejoin="round"/><path d="M 381.25 481.6 Q 365.92 512.08 402.92 514.03 Q 415.27 479.1 381.25 481.6 Z" fill="none" stroke="hsl(132 55% 38%)" stroke-width="1.6" stroke-linejoin="round"/><path d="M 355.97 495.12 Q 334.99 522.01 370.89 531.15 Q 389.82 499.3 355.97 495.12 Z" fill="none" stroke="hsl(132 55% 38%)" stroke-width="1.6" stroke-linejoin="round"/><path d="M 328.53 503.44 Q 302.71 525.73 336.14 541.69 Q 360.92 514.15 328.53 503.44 Z" fill="none" stroke="hsl(132 55% 38%)" stroke-width="1.6" stroke-linejoin="round"/><path d="M 300 506.25 Q 270.33 523.07 300 545.25 Q 329.67 523.07 300 506.25 Z" fill="none" stroke="hsl(132 55% 38%)" stroke-width="1.6" stroke-linejoin="round"/><path d="M 271.47 503.44 Q 239.08 514.15 263.86 541.69 Q 297.29 525.73 271.47 503.44 Z" fill="none" stroke="hsl(132 55% 38%)" stroke-width="1.6" stroke-linejoin="round"/><path d="M 244.03 495.12 Q 210.18 499.3 229.11 531.15 Q 265.01 522.01 244.03 495.12 Z" fill="none" stroke="hsl(132 55% 38%)" stroke-width="1.6" stroke-linejoin="round"/><path d="M 218.75 481.6 Q 184.73 479.1 197.08 514.03 Q 234.08 512.08 218.75 481.6 Z" fill="none" stroke="hsl(132 55% 38%)" stroke-width="1.6" stroke-linejoin="round"/><path d="M 196.59 463.41 Q 163.71 454.33 169.01 490.99 Q 205.67 496.29 196.59 463.41 Z" fill="none" stroke="hsl(132 55% 38%)" stroke-width="1.6" stroke-linejoin="round"/><path d="M 178.4 441.25 Q 147.92 425.92 145.97 462.92 Q 180.9 475.27 178.4 441.25 Z" fill="none" stroke="hsl(132 55% 38%)" stroke-width="1.6" stroke-linejoin="round"/><path d="M 164.88 415.97 Q 137.99 394.99 128.85 430.89 Q 160.7 449.82 164.88 415.97 Z" fill="none" stroke="hsl(132 55% 38%)" stroke-width="1.6" stroke-linejoin="round"/><path d="M 156.56 388.53 Q 134.27 362.71 118.31 396.14 Q 145.85 420.92 156.56 388.53 Z" fill="none" stroke="hsl(132 55% 38%)" stroke-width="1.6" stroke-linejoin="round"/><path d="M 153.75 360 Q 136.93 330.33 114.75 360 Q 136.93 389.67 153.75 360 Z" fill="none" stroke="hsl(132 55% 38%)" stroke-width="1.6" stroke-linejoin="round"/><path d="M 156.56 331.47 Q 145.85 299.08 118.31 323.86 Q 134.27 357.29 156.56 331.47 Z" fill="none" stroke="hsl(132 55% 38%)" stroke-width="1.6" stroke-linejoin="round"/><path d="M 164.88 304.03 Q 160.7 270.18 128.85 289.11 Q 137.99 325.01 164.88 304.03 Z" fill="none" stroke="hsl(132 55% 38%)" stroke-width="1.6" stroke-linejoin="round"/><path d="M 178.4 278.75 Q 180.9 244.73 145.97 257.08 Q 147.92 294.08 178.4 278.75 Z" fill="none" stroke="hsl(132 55% 38%)" stroke-width="1.6" stroke-linejoin="round"/><path d="M 196.59 256.59 Q 205.67 223.71 169.01 229.01 Q 163.71 265.67 196.59 256.59 Z" fill="none" stroke="hsl(132 55% 38%)" stroke-width="1.6" stroke-linejoin="round"/><path d="M 218.75 238.4 Q 234.08 207.92 197.08 205.97 Q 184.73 240.9 218.75 238.4 Z" fill="none" stroke="hsl(132 55% 38%)" stroke-width="1.6" stroke-linejoin="round"/><path d="M 244.03 224.88 Q 265.01 197.99 229.11 188.85 Q 210.18 220.7 244.03 224.88 Z" fill="none" stroke="hsl(132 55% 38%)" stroke-width="1.6" stroke-linejoin="round"/><path d="M 271.47 216.56 Q 297.29 194.27 263.86 178.31 Q 239.08 205.85 271.47 216.56 Z" fill="none" stroke="hsl(132 55% 38%)" stroke-width="1.6" stroke-linejoin="round"/><path d="M 300 213.75 Q 329.67 196.93 300 174.75 Q 270.33 196.93 300 213.75 Z" fill="none" stroke="hsl(132 55% 38%)" stroke-width="1.6" stroke-linejoin="round"/><path d="M 328.53 216.56 Q 360.92 205.85 336.14 178.31 Q 302.71 194.27 328.53 216.56 Z" fill="none" stroke="hsl(132 55% 38%)" stroke-width="1.6" stroke-linejoin="round"/><path d="M 355.97 224.88 Q 389.82 220.7 370.89 188.85 Q 334.99 197.99 355.97 224.88 Z" fill="none" stroke="hsl(132 55% 38%)" stroke-width="1.6" stroke-linejoin="round"/><path d="M 381.25 238.4 Q 415.27 240.9 402.92 205.97 Q 365.92 207.92 381.25 238.4 Z" fill="none" stroke="hsl(132 55% 38%)" stroke-width="1.6" stroke-linejoin="round"/><path d="M 403.41 256.59 Q 436.29 265.67 430.99 229.01 Q 394.33 223.71 403.41 256.59 Z" fill="none" stroke="hsl(132 55% 38%)" stroke-width="1.6" stroke-linejoin="round"/><path d="M 421.6 278.75 Q 452.08 294.08 454.03 257.08 Q 419.1 244.73 421.6 278.75 Z" fill="none" stroke="hsl(132 55% 38%)" stroke-width="1.6" stroke-linejoin="round"/><path d="M 435.12 304.03 Q 462.01 325.01 471.15 289.11 Q 439.3 270.18 435.12 304.03 Z" fill="none" stroke="hsl(132 55% 38%)" stroke-width="1.6" stroke-linejoin="round"/><path d="M 443.44 331.47 Q 465.73 357.29 481.69 323.86 Q 454.15 299.08 443.44 331.47 Z" fill="none" stroke="hsl(132 55% 38%)" stroke-width="1.6" stroke-linejoin="round"/><path d="M 300 165 C 407.7 165 495 252.3 495 360 C 495 467.7 407.7 555 300 555 C 192.3 555 105 467.7 105 360 C 105 252.3 192.3 165 300 165 Z" fill="none" stroke="hsl(132 55% 38%)" stroke-width="1.6" stroke-linejoin="round"/><path d="M 491.25 387.12 C 497.28 387.12 502.17 392.01 502.17 398.04 C 502.17 404.07 497.28 408.96 491.25 408.96 C 485.22 408.96 480.33 404.07 480.33 398.04 C 480.33 392.01 485.22 387.12 491.25 387.12 Z" fill="none" stroke="hsl(132 55% 38%)" stroke-width="1.6" stroke-linejoin="round"/><path d="M 462.14 457.42 C 468.17 457.42 473.06 462.31 473.06 468.34 C 473.06 474.37 468.17 479.26 462.14 479.26 C 456.11 479.26 451.22 474.37 451.22 468.34 C 451.22 462.31 456.11 457.42 462.14 457.42 Z" fill="none" stroke="hsl(132 55% 38%)" stroke-width="1.6" stroke-linejoin="round"/><path d="M 408.34 511.22 C 414.37 511.22 419.26 516.11 419.26 522.14 C 419.26 528.17 414.37 533.06 408.34 533.06 C 402.31 533.06 397.42 528.17 397.42 522.14 C 397.42 516.11 402.31 511.22 408.34 511.22 Z" fill="none" stroke="hsl(132 55% 38%)" stroke-width="1.6" stroke-linejoin="round"/><path d="M 338.04 540.33 C 344.07 540.33 348.96 545.22 348.96 551.25 C 348.96 557.28 344.07 562.17 338.04 562.17 C 332.01 562.17 327.12 557.28 327.12 551.25 C 327.12 545.22 332.01 540.33 338.04 540.33 Z" fill="none" stroke="hsl(132 55% 38%)" stroke-width="1.6" stroke-linejoin="round"/><path d="M 261.96 540.33 C 267.99 540.33 272.88 545.22 272.88 551.25 C 272.88 557.28 267.99 562.17 261.96 562.17 C 255.93 562.17 251.04 557.28 251.04 551.25 C 251.04 545.22 255.93 540.33 261.96 540.33 Z" fill="none" stroke="hsl(132 55% 38%)" stroke-width="1.6" stroke-linejoin="round"/><path d="M 191.66 511.22 C 197.69 511.22 202.58 516.11 202.58 522.14 C 202.58 528.17 197.69 533.06 191.66 533.06 C 185.63 533.06 180.74 528.17 180.74 522.14 C 180.74 516.11 185.63 511.22 191.66 511.22 Z" fill="none" stroke="hsl(132 55% 38%)" stroke-width="1.6" stroke-linejoin="round"/><path d="M 137.86 457.42 C 143.89 457.42 148.78 462.31 148.78 468.34 C 148.78 474.37 143.89 479.26 137.86 479.26 C 131.83 479.26 126.94 474.37 126.94 468.34 C 126.94 462.31 131.83 457.42 137.86 457.42 Z" fill="none" stroke="hsl(132 55% 38%)" stroke-width="1.6" stroke-linejoin="round"/><path d="M 108.75 387.12 C 114.78 387.12 119.67 392.01 119.67 398.04 C 119.67 404.07 114.78 408.96 108.75 408.96 C 102.72 408.96 97.83 404.07 97.83 398.04 C 97.83 392.01 102.72 387.12 108.75 387.12 Z" fill="none" stroke="hsl(132 55% 38%)" stroke-width="1.6" stroke-linejoin="round"/><path d="M 108.75 311.04 C 114.78 311.04 119.67 315.93 119.67 321.96 C 119.67 327.99 114.78 332.88 108.75 332.88 C 102.72 332.88 97.83 327.99 97.83 321.96 C 97.83 315.93 102.72 311.04 108.75 311.04 Z" fill="none" stroke="hsl(132 55% 38%)" stroke-width="1.6" stroke-linejoin="round"/><path d="M 137.86 240.74 C 143.89 240.74 148.78 245.63 148.78 251.66 C 148.78 257.69 143.89 262.58 137.86 262.58 C 131.83 262.58 126.94 257.69 126.94 251.66 C 126.94 245.63 131.83 240.74 137.86 240.74 Z" fill="none" stroke="hsl(132 55% 38%)" stroke-width="1.6" stroke-linejoin="round"/><path d="M 191.66 186.94 C 197.69 186.94 202.58 191.83 202.58 197.86 C 202.58 203.89 197.69 208.78 191.66 208.78 C 185.63 208.78 180.74 203.89 180.74 197.86 C 180.74 191.83 185.63 186.94 191.66 186.94 Z" fill="none" stroke="hsl(132 55% 38%)" stroke-width="1.6" stroke-linejoin="round"/><path d="M 261.96 157.83 C 267.99 157.83 272.88 162.72 272.88 168.75 C 272.88 174.78 267.99 179.67 261.96 179.67 C 255.93 179.67 251.04 174.78 251.04 168.75 C 251.04 162.72 255.93 157.83 261.96 157.83 Z" fill="none" stroke="hsl(132 55% 38%)" stroke-width="1.6" stroke-linejoin="round"/><path d="M 338.04 157.83 C 344.07 157.83 348.96 162.72 348.96 168.75 C 348.96 174.78 344.07 179.67 338.04 179.67 C 332.01 179.67 327.12 174.78 327.12 168.75 C 327.12 162.72 332.01 157.83 338.04 157.83 Z" fill="none" stroke="hsl(132 55% 38%)" stroke-width="1.6" stroke-linejoin="round"/><path d="M 408.34 186.94 C 414.37 186.94 419.26 191.83 419.26 197.86 C 419.26 203.89 414.37 208.78 408.34 208.78 C 402.31 208.78 397.42 203.89 397.42 197.86 C 397.42 191.83 402.31 186.94 408.34 186.94 Z" fill="none" stroke="hsl(132 55% 38%)" stroke-width="1.6" stroke-linejoin="round"/><path d="M 462.14 240.74 C 468.17 240.74 473.06 245.63 473.06 251.66 C 473.06 257.69 468.17 262.58 462.14 262.58 C 456.11 262.58 451.22 257.69 451.22 251.66 C 451.22 245.63 456.11 240.74 462.14 240.74 Z" fill="none" stroke="hsl(132 55% 38%)" stroke-width="1.6" stroke-linejoin="round"/><path d="M 491.25 311.04 C 497.28 311.04 502.17 315.93 502.17 321.96 C 502.17 327.99 497.28 332.88 491.25 332.88 C 485.22 332.88 480.33 327.99 480.33 321.96 C 480.33 315.93 485.22 311.04 491.25 311.04 Z" fill="none" stroke="hsl(132 55% 38%)" stroke-width="1.6" stroke-linejoin="round"/><path d="M 300 165 C 407.7 165 495 252.3 495 360 C 495 467.7 407.7 555 300 555 C 192.3 555 105 467.7 105 360 C 105 252.3 192.3 165 300 165 Z" fill="none" stroke="hsl(132 55% 38%)" stroke-width="1.6" stroke-linejoin="round"/></g>
  <g transform="translate(300,640)">
    <rect x="-110" y="-26" width="220" height="34" rx="17" fill="#ffffff" opacity="0.8"/>
    <text x="0" y="-3" text-anchor="middle" font-family="Quicksand, Arial, sans-serif" font-size="16" font-weight="600" fill="hsl(132 55% 38%)">🔷 Geometrische Muster</text>
  </g>
  <text x="300" y="700" text-anchor="middle" font-family="Quicksand, Arial, sans-serif" font-size="40" font-weight="700" fill="#2b2540"><tspan x="300" dy="0">Geometrische</tspan><tspan x="300" dy="44">Muster – Vol. 1</tspan></text>
  <text x="300" y="772" text-anchor="middle" font-family="Arial, sans-serif" font-size="15" fill="#5b5470">Malbuch · 24 Seiten</text>
</svg>