<svg xmlns="http://www.w3.org/2000/svg" viewBox="0 0 600 800" width="600" height="800">
  <defs>
    <linearGradient id="bg" x1="0" y1="0" x2="0" y2="1">
      <stop offset="0" stop-color="hsl(132 70% 95%)"/><stop offset="1" stop-color="hsl(172 70% 92%)"/>
    </linearGradient>
  </defs>
  <rect width="600" height="800" fill="url(#bg)"/>
  <rect x="22" y="22" width="556" height="756" rx="28" fill="none" stroke="hsl(132 55% 38%)" stroke-width="2" opacity="0.5"/>
  <text x="300" y="74" text-anchor="middle" font-family="Quicksand, Arial, sans-serif" font-size="26" font-weight="700" fill="hsl(132 55% 38%)">&#10022; Coloreo</text>
  <g transform="translate(0,40)"><path d="M 323.4 360 Q 335.17 372.84 349.14 360 Q 335.17 347.16 323.4 360 Z" fill="none" stroke="hsl(132 55% 38%)" stroke-width="1.6" stroke-linejoin="round"/><path d="M 321.62 368.95 Q 327.58 385.32 345.4 378.81 Q 337.41 361.6 321.62 368.95 Z" fill="none" stroke="hsl(132 55% 38%)" stroke-width="1.6" stroke-linejoin="round"/><path d="M 316.55 376.55 Q 315.79 393.95 334.75 394.75 Q 333.95 375.79 316.55 376.55 Z" fill="none" stroke="hsl(132 55% 38%)" stroke-width="1.6" stroke-linejoin="round"/><path d="M 308.95 381.62 Q 301.6 397.41 318.81 405.4 Q 325.32 387.58 308.95 381.62 Z" fill="none" stroke="hsl(132 55% 38%)" stroke-width="1.6" stroke-linejoin="round"/><path d="M 300 383.4 Q 287.16 395.17 300 409.14 Q 312.84 395.17 300 383.4 Z" fill="none" stroke="hsl(132 55% 38%)" stroke-width="1.6" stroke-linejoin="round"/><path d="M 291.05 381.62 Q 274.68 387.58 281.19 405.4 Q 298.4 397.41 291.05 381.62 Z" fill="none" stroke="hsl(132 55% 38%)" stroke-width="1.6" stroke-linejoin="round"/><path d="M 283.45 376.55 Q 266.05 375.79 265.25 394.75 Q 284.21 393.95 283.45 376.55 Z" fill="none" stroke="hsl(132 55% 38%)" stroke-width="1.6" stroke-linejoin="round"/><path d="M 278.38 368.95 Q 262.59 361.6 254.6 378.81 Q 272.42 385.32 278.38 368.95 Z" fill="none" stroke="hsl(132 55% 38%)" stroke-width="1.6" stroke-linejoin="round"/><path d="M 276.6 360 Q 264.83 347.16 250.86 360 Q 264.83 372.84 276.6 360 Z" fill="none" stroke="hsl(132 55% 38%)" stroke-width="1.6" stroke-linejoin="round"/><path d="M 278.38 351.05 Q 272.42 334.68 254.6 341.19 Q 262.59 358.4 278.38 351.05 Z" fill="none" stroke="hsl(132 55% 38%)" stroke-width="1.6" stroke-linejoin="round"/><path d="M 283.45 343.45 Q 284.21 326.05 265.25 325.25 Q 266.05 344.21 283.45 343.45 Z" fill="none" stroke="hsl(132 55% 38%)" stroke-width="1.6" stroke-linejoin="round"/><path d="M 291.05 338.38 Q 298.4 322.59 281.19 314.6 Q 274.68 332.42 291.05 338.38 Z" fill="none" stroke="hsl(132 55% 38%)" stroke-width="1.6" stroke-linejoin="round"/><path d="M 300 336.6 Q 312.84 324.83 300 310.86 Q 287.16 324.83 300 336.6 Z" fill="none" stroke="hsl(132 55% 38%)" stroke-width="1.6" stroke-linejoin="round"/><path d="M 308.95 338.38 Q 325.32 332.42 318.81 314.6 Q 301.6 322.59 308.95 338.38 Z" fill="none" stroke="hsl(132 55% 38%)" stroke-width="1.6" stroke-linejoin="round"/><path d="M 316.55 343.45 Q 333.95 344.21 334.75 325.25 Q 315.79 326.05 316.55 343.45 Z" fill="none" stroke="hsl(132 55% 38%)" stroke-width="1.6" stroke-linejoin="round"/><path d="M 321.62 351.05 Q 337.41 358.4 345.4 341.19 Q 327.58 334.68 321.62 351.05 Z" fill="none" stroke="hsl(132 55% 38%)" stroke-width="1.6" stroke-linejoin="round"/><path d="M 285.96 360 a 14.04 14.04 0 1 0 28.08 0 a 14.04 14.04 0 1 0 -28.08 0 Z" fill="none" stroke="hsl(132 55% 38%)" stroke-width="1.6" stroke-linejoin="round"/><path d="M 202.5 360 a 97.5 97.5 0 1 0 195 0 a 97.5 97.5 0 1 0 -195 0 Z" fill="none" stroke="hsl(132 55% 38%)" stroke-width="1.6" stroke-linejoin="round"/><path d="M 384.71 379.02 a 10.92 10.92 0 1 0 21.84 0 a 10.92 10.92 0 1 0 -21.84 0 Z" fill="none" stroke="hsl(132 55% 38%)" stroke-width="1.6" stroke-linejoin="round"/><path d="M 370.15 414.17 a 10.92 10.92 0 1 0 21.84 0 a 10.92 10.92 0 1 0 -21.84 0 Z" fill="none" stroke="hsl(132 55% 38%)" stroke-width="1.6" stroke-linejoin="round"/><path d="M 343.25 441.07 a 10.92 10.92 0 1 0 21.84 0 a 10.92 10.92 0 1 0 -21.84 0 Z" fill="none" stroke="hsl(132 55% 38%)" stroke-width="1.6" stroke-linejoin="round"/><path d="M 308.1 455.63 a 10.92 10.92 0 1 0 21.84 0 a 10.92 10.92 0 1 0 -21.84 0 Z" fill="none" stroke="hsl(132 55% 38%)" stroke-width="1.6" stroke-linejoin="round"/><path d="M 270.06 455.63 a 10.92 10.92 0 1 0 21.84 0 a 10.92 10.92 0 1 0 -21.84 0 Z" fill="none" stroke="hsl(132 55% 38%)" stroke-width="1.6" stroke-linejoin="round"/><path d="M 234.91 441.07 a 10.92 10.92 0 1 0 21.84 0 a 10.92 10.92 0 1 0 -21.84 0 Z" fill="none" stroke="hsl(132 55% 38%)" stroke-width="1.6" stroke-linejoin="round"/><path d="M 208.01 414.17 a 10.92 10.92 0 1 0 21.84 0 a 10.92 10.92 0 1 0 -21.84 0 Z" fill="none" stroke="hsl(132 55% 38%)" stroke-width="1.6" stroke-linejoin="round"/><path d="M 193.45 379.02 a 10.92 10.92 0 1 0 21.84 0 a 10.92 10.92 0 1 0 -21.84 0 Z" fill="none" stroke="hsl(132 55% 38%)" stroke-width="1.6" stroke-linejoin="round"/><path d="M 193.45 340.98 a 10.92 10.92 0 1 0 21.84 0 a 10.92 10.92 0 1 0 -21.84 0 Z" fill="none" stroke="hsl(132 55% 38%)" stroke-width="1.6" stroke-linejoin="round"/><path d="M 208.01 305.83 a 10.92 10.92 0 1 0 21.84 0 a 10.92 10.92 0 1 0 -21.84 0 Z" fill="none" stroke="hsl(132 55% 38%)" stroke-width="1.6" stroke-linejoin="round"/><path d="M 234.91 278.93 a 10.92 10.92 0 1 0 21.84 0 a 10.92 10.92 0 1 0 -21.84 0 Z" fill="none" stroke="hsl(132 55% 38%)" stroke-width="1.6" stroke-linejoin="round"/><path d="M 270.06 264.37 a 10.92 10.92 0 1 0 21.84 0 a 10.92 10.92 0 1 0 -21.84 0 Z" fill="none" stroke="hsl(132 55% 38%)" stroke-width="1.6" stroke-linejoin="round"/><path d="M 308.1 264.37 a 10.92 10.92 0 1 0 21.84 0 a 10.92 10.92 0 1 0 -21.84 0 Z" fill="none" stroke="hsl(132 55% 38%)" stroke-width="1.6" stroke-linejoin="round"/><path d="M 343.25 278.93 a 10.92 10.92 0 1 0 21.84 0 a 10.92 10.92 0 1 0 -21.84 0 Z" fill="none" stroke="hsl(132 55% 38%)" stroke-width="1.6" stroke-linejoin="round"/><path d="M 370.15 305.83 a 10.92 10.92 0 1 0 21.84 0 a 10.92 10.92 0 1 0 -21.84 0 Z" fill="none" stroke="hsl(132 55% 38%)" stroke-width="1.6" stroke-linejoin="round"/><path d="M 384.71 340.98 a 10.92 10.92 0 1 0 21.84 0 a 10.92 10.92 0 1 0 -21.84 0 Z" fill="none" stroke="hsl(132 55% 38%)" stroke-width="1.6" stroke-linejoin="round"/><path d="M 153.75 360 a 146.25 146.25 0 1 0 292.5 0 a 146.25 146.25 0 1 0 -292.5 0 Z" fill="none" stroke="hsl(132 55% 38%)" stroke-width="1.6" stroke-linejoin="round"/><path d="M 446.25 360 Q 463.07 389.67 485.25 360 Q 463.07 330.33 446.25 360 Z" fill="none" stroke="hsl(132 55% 38%)" stroke-width="1.6" stroke-linejoin="round"/><path d="M 443.44 388.53 Q 454.15 420.92 481.69 396.14 Q 465.73 362.71 443.44 388.53 Z" fill="none" stroke="hsl(132 55% 38%)" stroke-width="1.6" stroke-linejoin="round"/><path d="M 435.12 415.97 Q 439.3 449.82 471.15 430.89 Q 462.01 394.99 435.12 415.97 Z" fill="none" stroke="hsl(132 55% 38%)" stroke-width="1.6" stroke-linejoin="round"/><path d="M 421.6 441.25 Q 419.1 475.27 454.03 462.92 Q 452.08 425.92 421.6 441.25 Z" fill="none" stroke="hsl(132 55% 38%)" stroke-width="1.6" stroke-linejoin="round"/><path d="M 403.41 463.41 Q 394.33 496.29 430.99 490.99 Q 436.29 454.33 403.41 463.41 Z" fill="none" stroke="hsl(132 55% 38%)" stroke-width="1.6" stroke-linejoin="round"/><path d="M 381.25 481.6 Q 365.92 512.08 402.92 514.03 Q 415.27 479.1 381.25 481.6 Z" fill="none" stroke="hsl(132 55% 38%)" stroke-width="1.6" stroke-linejoin="round"/><path d="M 355.97 495.12 Q 334.99 522.01 370.89 531.15 Q 389.82 499.3 355.97 495.12 Z" fill="none" stroke="hsl(132 55% 38%)" stroke-width="1.6" stroke-linejoin="round"/><path d="M 328.53 503.44 Q 302.71 525.73 336.14 541.69 Q 360.92 514.15 328.53 503.44 Z" fill="none" stroke="hsl(132 55% 38%)" stroke-width="1.6" stroke-linejoin="round"/><path d="M 300 506.25 Q 270.33 523.07 300 545.25 Q 329.67 523.07 300 506.25 Z" fill="none" stroke="hsl(132 55% 38%)" stroke-width="1.6" stroke-linejoin="round"/><path d="M 271.47 503.44 Q 239.08 514.15 263.86 541.69 Q 297.29 525.73 271.47 503.44 Z" fill="none" stroke="hsl(132 55% 38%)" stroke-width="1.6" stroke-linejoin="round"/><path d="M 244.03 495.12 Q 210.18 499.3 229.11 531.15 Q 265.01 522.01 244.03 495.12 Z" fill="none" stroke="hsl(132 55% 38%)" stroke-width="1.6" stroke-linejoin="round"/><path d="M 218.75 481.6 Q 184.73 479.1 197.08 514.03 Q 234.08 512.08 218.75 481.6 Z" fill="none" stroke="hsl(132 55% 38%)" stroke-width="1.6" stroke-linejoin="round"/><path d="M 196.59 463.41 Q 163.71 454.33 169.01 490.99 Q 205.67 496.29 196.59 463.41 Z" fill="none" stroke="hsl(132 55% 38%)" stroke-width="1.6" stroke-linejoin="round"/><path d="M 178.4 441.25 Q 147.92 425.92 145.97 462.92 Q 180.9 475.27 178.4 441.25 Z" fill="none" stroke="hsl(132 55% 38%)" stroke-width="1.6" stroke-linejoin="round"/><path d="M 164.88 415.97 Q 137.99 394.99 128.85 430.89 Q 160.7 449.82 164.88 415.97 Z" fill="none" stroke="hsl(132 55% 38%)" stroke-width="1.6" stroke-linejoin="round"/><path d="M 156.56 388.53 Q 134.27 362.71 118.31 396.14 Q 145.85 420.92 156.56 388.53 Z" fill="none" stroke="hsl(132 55% 38%)" stroke-width="1.6" stroke-linejoin="round"/><path d="M 153.75 360 Q 136.93 330.33 114.75 360 Q 136.93 389.67 153.75 360 Z" fill="none" stroke="hsl(132 55% 38%)" stroke-width="1.6" stroke-linejoin="round"/><path d="M 156.56 331.47 Q 145.85 299.08 118.31 323.86 Q 134.27 357.29 156.56 331.47 Z" fill="none" stroke="hsl(132 55% 38%)" stroke-width="1.6" stroke-linejoin="round"/><path d="M 164.88 304.03 Q 160.7 270.18 128.85 289.11 Q 137.99 325.01 164.88 304.03 Z" fill="none" stroke="hsl(132 55% 38%)" stroke-width="1.6" stroke-linejoin="round"/><path d="M 178.4 278.75 Q 180.9 244.73 145.97 257.08 Q 147.92 294.08 178.4 278.75 Z" fill="none" stroke="hsl(132 55% 38%)" stroke-width="1.6" stroke-linejoin="round"/><path d="M 196.59 256.59 Q 205.67 223.71 169.01 229.01 Q 163.71 265.67 196.59 256.59 Z" fill="none" stroke="hsl(132 55% 38%)" stroke-width="1.6" stroke-linejoin="round"/><path d="M 218.75 238.4 Q 234.08 207.92 197.08 205.97 Q 184.73 240.9 218.75 238.4 Z" fill="none" stroke="hsl(132 55% 38%)" stroke-width="1.6" stroke-linejoin="round"/><path d="M 244.03 224.88 Q 265.01 197.99 229.11 188.85 Q 210.18 220.7 244.03 224.88 Z" fill="none" stroke="hsl(132 55% 38%)" stroke-width="1.6" stroke-linejoin="round"/><path d="M 271.47 216.56 Q 297.29 194.27 263.86 178.31 Q 239.08 205.85 271.47 216.56 Z" fill="none" stroke="hsl(132 55% 38%)" stroke-width="1.6" stroke-linejoin="round"/><path d="M 300 213.75 Q 329.67 196.93 300 174.75 Q 270.33 196.93 300 213.75 Z" fill="none" stroke="hsl(132 55% 38%)" stroke-width="1.6" stroke-linejoin="round"/><path d="M 328.53 216.56 Q 360.92 205.85 336.14 178.31 Q 302.71 194.27 328.53 216.56 Z" fill="none" stroke="hsl(132 55% 38%)" stroke-width="1.6" stroke-linejoin="round"/><path d="M 355.97 224.88 Q 389.82 220.7 370.89 188.85 Q 334.99 197.99 355.97 224.88 Z" fill="none" stroke="hsl(132 55% 38%)" stroke-width="1.6" stroke-linejoin="round"/><path d="M 381.25 238.4 Q 415.27 240.9 402.92 205.97 Q 365.92 207.92 381.25 238.4 Z" fill="none" stroke="hsl(132 55% 38%)" stroke-width="1.6" stroke-linejoin="round"/><path d="M 403.41 256.59 Q 436.29 265.67 430.99 229.01 Q 394.33 223.71 403.41 256.59 Z" fill="none" stroke="hsl(132 55% 38%)" stroke-width="1.6" stroke-linejoin="round"/><path d="M 421.6 278.75 Q 452.08 294.08 454.03 257.08 Q 419.1 244.73 421.6 278.75 Z" fill="none" stroke="hsl(132 55% 38%)" stroke-width="1.6" stroke-linejoin="round"/><path d="M 435.12 304.03 Q 462.01 325.01 471.15 289.11 Q 439.3 270.18 435.12 304.03 Z" fill="none" stroke="hsl(132 55% 38%)" stroke-width="1.6" stroke-linejoin="round"/><path d="M 443.44 331.47 Q 465.73 357.29 481.69 323.86 Q 454.15 299.08 443.44 331.47 Z" fill="none" stroke="hsl(132 55% 38%)" stroke-width="1.6" stroke-linejoin="round"/><path d="M 105 360 a 195 195 0 1 0 390 0 a 195 195 0 1 0 -390 0 Z" fill="none" stroke="hsl(132 55% 38%)" stroke-width="1.6" stroke-linejoin="round"/><path d="M 491.25 398.04 Q 499.49 438.83 529.5 405.65 Q 514.47 363.51 491.25 398.04 Z" fill="none" stroke="hsl(132 55% 38%)" stroke-width="1.6" stroke-linejoin="round"/><path d="M 462.14 468.34 Q 454.13 509.17 494.56 490 Q 496.8 445.31 462.14 468.34 Z" fill="none" stroke="hsl(132 55% 38%)" stroke-width="1.6" stroke-linejoin="round"/><path d="M 408.34 522.14 Q 385.31 556.8 430 554.56 Q 449.17 514.13 408.34 522.14 Z" fill="none" stroke="hsl(132 55% 38%)" stroke-width="1.6" stroke-linejoin="round"/><path d="M 338.04 551.25 Q 303.51 574.47 345.65 589.5 Q 378.83 559.49 338.04 551.25 Z" fill="none" stroke="hsl(132 55% 38%)" stroke-width="1.6" stroke-linejoin="round"/><path d="M 261.96 551.25 Q 221.17 559.49 254.35 589.5 Q 296.49 574.47 261.96 551.25 Z" fill="none" stroke="hsl(132 55% 38%)" stroke-width="1.6" stroke-linejoin="round"/><path d="M 191.66 522.14 Q 150.83 514.13 170 554.56 Q 214.69 556.8 191.66 522.14 Z" fill="none" stroke="hsl(132 55% 38%)" stroke-width="1.6" stroke-linejoin="round"/><path d="M 137.86 468.34 Q 103.2 445.31 105.44 490 Q 145.87 509.17 137.86 468.34 Z" fill="none" stroke="hsl(132 55% 38%)" stroke-width="1.6" stroke-linejoin="round"/><path d="M 108.75 398.04 Q 85.53 363.51 70.5 405.65 Q 100.51 438.83 108.75 398.04 Z" fill="none" stroke="hsl(132 55% 38%)" stroke-width="1.6" stroke-linejoin="round"/><path d="M 108.75 321.96 Q 100.51 281.17 70.5 314.35 Q 85.53 356.49 108.75 321.96 Z" fill="none" stroke="hsl(132 55% 38%)" stroke-width="1.6" stroke-linejoin="round"/><path d="M 137.86 251.66 Q 145.87 210.83 105.44 230 Q 103.2 274.69 137.86 251.66 Z" fill="none" stroke="hsl(132 55% 38%)" stroke-width="1.6" stroke-linejoin="round"/><path d="M 191.66 197.86 Q 214.69 163.2 170 165.44 Q 150.83 205.87 191.66 197.86 Z" fill="none" stroke="hsl(132 55% 38%)" stroke-width="1.6" stroke-linejoin="round"/><path d="M 261.96 168.75 Q 296.49 145.53 254.35 130.5 Q 221.17 160.51 261.96 168.75 Z" fill="none" stroke="hsl(132 55% 38%)" stroke-width="1.6" stroke-linejoin="round"/><path d="M 338.04 168.75 Q 378.83 160.51 345.65 130.5 Q 303.51 145.53 338.04 168.75 Z" fill="none" stroke="hsl(132 55% 38%)" stroke-width="1.6" stroke-linejoin="round"/><path d="M 408.34 197.86 Q 449.17 205.87 430 165.44 Q 385.31 163.2 408.34 197.86 Z" fill="none" stroke="hsl(132 55% 38%)" stroke-width="1.6" stroke-linejoin="round"/><path d="M 462.14 251.66 Q 496.8 274.69 494.56 230 Q 454.13 210.83 462.14 251.66 Z" fill="none" stroke="hsl(132 55% 38%)" stroke-width="1.6" stroke-linejoin="round"/><path d="M 491.25 321.96 Q 514.47 356.49 529.5 314.35 Q 499.49 281.17 491.25 321.96 Z" fill="none" stroke="hsl(132 55% 38%)" stroke-width="1.6" stroke-linejoin="round"/><path d="M 105 360 a 195 195 0 1 0 390 0 a 195 195 0 1 0 -390 0 Z" fill="none" stroke="hsl(132 55% 38%)" stroke-width="1.6" stroke-linejoin="round"/></g>
  <g transform="translate(300,640)">
    <rect x="-110" y="-26" width="220" height="34" rx="17" fill="#ffffff" opacity="0.8"/>
    <text x="0" y="-3" text-anchor="middle" font-family="Quicksand, Arial, sans-serif" font-size="16" font-weight="600" fill="hsl(132 55% 38%)">🔷 Geometrische Muster</text>
  </g>
  <text x="300" y="700" text-anchor="middle" font-family="Quicksand, Arial, sans-serif" font-size="40" font-weight="700" fill="#2b2540"><tspan x="300" dy="0">Geometrische</tspan><tspan x="300" dy="44">Muster – Vol. 2</tspan></text>
  <text x="300" y="772" text-anchor="middle" font-family="Arial, sans-serif" font-size="15" fill="#5b5470">Malbuch · 40 Seiten</text>
</svg>