<svg xmlns="http://www.w3.org/2000/svg" viewBox="0 0 600 800" width="600" height="800">
  <defs>
    <linearGradient id="bg" x1="0" y1="0" x2="0" y2="1">
      <stop offset="0" stop-color="hsl(91 70% 95%)"/><stop offset="1" stop-color="hsl(131 70% 92%)"/>
    </linearGradient>
  </defs>
  <rect width="600" height="800" fill="url(#bg)"/>
  <rect x="22" y="22" width="556" height="756" rx="28" fill="none" stroke="hsl(91 55% 38%)" stroke-width="2" opacity="0.5"/>
  <text x="300" y="74" text-anchor="middle" font-family="Quicksand, Arial, sans-serif" font-size="26" font-weight="700" fill="hsl(91 55% 38%)">&#10022; Coloreo</text>
  <g transform="translate(0,40)"><path d="M 323.4 360 Q 335.17 372.84 349.14 360 Q 335.17 347.16 323.4 360 Z" fill="none" stroke="hsl(91 55% 38%)" stroke-width="1.6" stroke-linejoin="round"/><path d="M 316.55 376.55 Q 315.79 393.95 334.75 394.75 Q 333.95 375.79 316.55 376.55 Z" fill="none" stroke="hsl(91 55% 38%)" stroke-width="1.6" stroke-linejoin="round"/><path d="M 300 383.4 Q 287.16 395.17 300 409.14 Q 312.84 395.17 300 383.4 Z" fill="none" stroke="hsl(91 55% 38%)" stroke-width="1.6" stroke-linejoin="round"/><path d="M 283.45 376.55 Q 266.05 375.79 265.25 394.75 Q 284.21 393.95 283.45 376.55 Z" fill="none" stroke="hsl(91 55% 38%)" stroke-width="1.6" stroke-linejoin="round"/><path d="M 276.6 360 Q 264.83 347.16 250.86 360 Q 264.83 372.84 276.6 360 Z" fill="none" stroke="hsl(91 55% 38%)" stroke-width="1.6" stroke-linejoin="round"/><path d="M 283.45 343.45 Q 284.21 326.05 265.25 325.25 Q 266.05 344.21 283.45 343.45 Z" fill="none" stroke="hsl(91 55% 38%)" stroke-width="1.6" stroke-linejoin="round"/><path d="M 300 336.6 Q 312.84 324.83 300 310.86 Q 287.16 324.83 300 336.6 Z" fill="none" stroke="hsl(91 55% 38%)" stroke-width="1.6" stroke-linejoin="round"/><path d="M 316.55 343.45 Q 333.95 344.21 334.75 325.25 Q 315.79 326.05 316.55 343.45 Z" fill="none" stroke="hsl(91 55% 38%)" stroke-width="1.6" stroke-linejoin="round"/><path d="M 300 345.96 C 307.75 345.96 314.04 352.25 314.04 360 C 314.04 367.75 307.75 374.04 300 374.04 C 292.25 374.04 285.96 367.75 285.96 360 C 285.96 352.25 292.25 345.96 300 345.96 Z" fill="none" stroke="hsl(91 55% 38%)" stroke-width="1.6" stroke-linejoin="round"/><path d="M 300 282 C 343.08 282 378 316.92 378 360 C 378 403.08 343.08 438 300 438 C 256.92 438 222 403.08 222 360 C 222 316.92 256.92 282 300 282 Z" fill="none" stroke="hsl(91 55% 38%)" stroke-width="1.6" stroke-linejoin="round"/><path d="M 372.06 389.85 L 392.24 398.21" fill="none" stroke="hsl(91 55% 38%)" stroke-width="1.6" stroke-linejoin="round"/><path d="M 329.85 432.06 L 338.21 452.24" fill="none" stroke="hsl(91 55% 38%)" stroke-width="1.6" stroke-linejoin="round"/><path d="M 270.15 432.06 L 261.79 452.24" fill="none" stroke="hsl(91 55% 38%)" stroke-width="1.6" stroke-linejoin="round"/><path d="M 227.94 389.85 L 207.76 398.21" fill="none" stroke="hsl(91 55% 38%)" stroke-width="1.6" stroke-linejoin="round"/><path d="M 227.94 330.15 L 207.76 321.79" fill="none" stroke="hsl(91 55% 38%)" stroke-width="1.6" stroke-linejoin="round"/><path d="M 270.15 287.94 L 261.79 267.76" fill="none" stroke="hsl(91 55% 38%)" stroke-width="1.6" stroke-linejoin="round"/><path d="M 329.85 287.94 L 338.21 267.76" fill="none" stroke="hsl(91 55% 38%)" stroke-width="1.6" stroke-linejoin="round"/><path d="M 372.06 330.15 L 392.24 321.79" fill="none" stroke="hsl(91 55% 38%)" stroke-width="1.6" stroke-linejoin="round"/><path d="M 300 243 C 364.62 243 417 295.38 417 360 C 417 424.62 364.62 477 300 477 C 235.38 477 183 424.62 183 360 C 183 295.38 235.38 243 300 243 Z" fill="none" stroke="hsl(91 55% 38%)" stroke-width="1.6" stroke-linejoin="round"/><path d="M 417 360 L 438.84 360" fill="none" stroke="hsl(91 55% 38%)" stroke-width="1.6" stroke-linejoin="round"/><path d="M 408.09 404.77 L 428.27 413.13" fill="none" stroke="hsl(91 55% 38%)" stroke-width="1.6" stroke-linejoin="round"/><path d="M 382.73 442.73 L 398.17 458.17" fill="none" stroke="hsl(91 55% 38%)" stroke-width="1.6" stroke-linejoin="round"/><path d="M 344.77 468.09 L 353.13 488.27" fill="none" stroke="hsl(91 55% 38%)" stroke-width="1.6" stroke-linejoin="round"/><path d="M 300 477 L 300 498.84" fill="none" stroke="hsl(91 55% 38%)" stroke-width="1.6" stroke-linejoin="round"/><path d="M 255.23 468.09 L 246.87 488.27" fill="none" stroke="hsl(91 55% 38%)" stroke-width="1.6" stroke-linejoin="round"/><path d="M 217.27 442.73 L 201.83 458.17" fill="none" stroke="hsl(91 55% 38%)" stroke-width="1.6" stroke-linejoin="round"/><path d="M 191.91 404.77 L 171.73 413.13" fill="none" stroke="hsl(91 55% 38%)" stroke-width="1.6" stroke-linejoin="round"/><path d="M 183 360 L 161.16 360" fill="none" stroke="hsl(91 55% 38%)" stroke-width="1.6" stroke-linejoin="round"/><path d="M 191.91 315.23 L 171.73 306.87" fill="none" stroke="hsl(91 55% 38%)" stroke-width="1.6" stroke-linejoin="round"/><path d="M 217.27 277.27 L 201.83 261.83" fill="none" stroke="hsl(91 55% 38%)" stroke-width="1.6" stroke-linejoin="round"/><path d="M 255.23 251.91 L 246.87 231.73" fill="none" stroke="hsl(91 55% 38%)" stroke-width="1.6" stroke-linejoin="round"/><path d="M 300 243 L 300 221.16" fill="none" stroke="hsl(91 55% 38%)" stroke-width="1.6" stroke-linejoin="round"/><path d="M 344.77 251.91 L 353.13 231.73" fill="none" stroke="hsl(91 55% 38%)" stroke-width="1.6" stroke-linejoin="round"/><path d="M 382.73 277.27 L 398.17 261.83" fill="none" stroke="hsl(91 55% 38%)" stroke-width="1.6" stroke-linejoin="round"/><path d="M 408.09 315.23 L 428.27 306.87" fill="none" stroke="hsl(91 55% 38%)" stroke-width="1.6" stroke-linejoin="round"/><path d="M 300 204 C 386.16 204 456 273.84 456 360 C 456 446.16 386.16 516 300 516 C 213.84 516 144 446.16 144 360 C 144 273.84 213.84 204 300 204 Z" fill="none" stroke="hsl(91 55% 38%)" stroke-width="1.6" stroke-linejoin="round"/><path d="M 444.13 419.7 Q 444.22 452.99 472.95 431.64 Q 467.73 396.22 444.13 419.7 Z" fill="none" stroke="hsl(91 55% 38%)" stroke-width="1.6" stroke-linejoin="round"/><path d="M 359.7 504.13 Q 336.22 527.73 371.64 532.95 Q 392.99 504.22 359.7 504.13 Z" fill="none" stroke="hsl(91 55% 38%)" stroke-width="1.6" stroke-linejoin="round"/><path d="M 240.3 504.13 Q 207.01 504.22 228.36 532.95 Q 263.78 527.73 240.3 504.13 Z" fill="none" stroke="hsl(91 55% 38%)" stroke-width="1.6" stroke-linejoin="round"/><path d="M 155.87 419.7 Q 132.27 396.22 127.05 431.64 Q 155.78 452.99 155.87 419.7 Z" fill="none" stroke="hsl(91 55% 38%)" stroke-width="1.6" stroke-linejoin="round"/><path d="M 155.87 300.3 Q 155.78 267.01 127.05 288.36 Q 132.27 323.78 155.87 300.3 Z" fill="none" stroke="hsl(91 55% 38%)" stroke-width="1.6" stroke-linejoin="round"/><path d="M 240.3 215.87 Q 263.78 192.27 228.36 187.05 Q 207.01 215.78 240.3 215.87 Z" fill="none" stroke="hsl(91 55% 38%)" stroke-width="1.6" stroke-linejoin="round"/><path d="M 359.7 215.87 Q 392.99 215.78 371.64 187.05 Q 336.22 192.27 359.7 215.87 Z" fill="none" stroke="hsl(91 55% 38%)" stroke-width="1.6" stroke-linejoin="round"/><path d="M 444.13 300.3 Q 467.73 323.78 472.95 288.36 Q 444.22 267.01 444.13 300.3 Z" fill="none" stroke="hsl(91 55% 38%)" stroke-width="1.6" stroke-linejoin="round"/><path d="M 300 165 C 407.7 165 495 252.3 495 360 C 495 467.7 407.7 555 300 555 C 192.3 555 105 467.7 105 360 C 105 252.3 192.3 165 300 165 Z" fill="none" stroke="hsl(91 55% 38%)" stroke-width="1.6" stroke-linejoin="round"/><path d="M 495 360 Q 507.2 397.7 526.2 360 Q 507.2 322.3 495 360 Z" fill="none" stroke="hsl(91 55% 38%)" stroke-width="1.6" stroke-linejoin="round"/><path d="M 480.16 434.62 Q 477 474.12 508.98 446.56 Q 505.85 404.46 480.16 434.62 Z" fill="none" stroke="hsl(91 55% 38%)" stroke-width="1.6" stroke-linejoin="round"/><path d="M 437.89 497.89 Q 419.85 533.17 459.95 519.95 Q 473.17 479.85 437.89 497.89 Z" fill="none" stroke="hsl(91 55% 38%)" stroke-width="1.6" stroke-linejoin="round"/><path d="M 374.62 540.16 Q 344.46 565.85 386.56 568.98 Q 414.12 537 374.62 540.16 Z" fill="none" stroke="hsl(91 55% 38%)" stroke-width="1.6" stroke-linejoin="round"/><path d="M 300 555 Q 262.3 567.2 300 586.2 Q 337.7 567.2 300 555 Z" fill="none" stroke="hsl(91 55% 38%)" stroke-width="1.6" stroke-linejoin="round"/><path d="M 225.38 540.16 Q 185.88 537 213.44 568.98 Q 255.54 565.85 225.38 540.16 Z" fill="none" stroke="hsl(91 55% 38%)" stroke-width="1.6" stroke-linejoin="round"/><path d="M 162.11 497.89 Q 126.83 479.85 140.05 519.95 Q 180.15 533.17 162.11 497.89 Z" fill="none" stroke="hsl(91 55% 38%)" stroke-width="1.6" stroke-linejoin="round"/><path d="M 119.84 434.62 Q 94.15 404.46 91.02 446.56 Q 123 474.12 119.84 434.62 Z" fill="none" stroke="hsl(91 55% 38%)" stroke-width="1.6" stroke-linejoin="round"/><path d="M 105 360 Q 92.8 322.3 73.8 360 Q 92.8 397.7 105 360 Z" fill="none" stroke="hsl(91 55% 38%)" stroke-width="1.6" stroke-linejoin="round"/><path d="M 119.84 285.38 Q 123 245.88 91.02 273.44 Q 94.15 315.54 119.84 285.38 Z" fill="none" stroke="hsl(91 55% 38%)" stroke-width="1.6" stroke-linejoin="round"/><path d="M 162.11 222.11 Q 180.15 186.83 140.05 200.05 Q 126.83 240.15 162.11 222.11 Z" fill="none" stroke="hsl(91 55% 38%)" stroke-width="1.6" stroke-linejoin="round"/><path d="M 225.38 179.84 Q 255.54 154.15 213.44 151.02 Q 185.88 183 225.38 179.84 Z" fill="none" stroke="hsl(91 55% 38%)" stroke-width="1.6" stroke-linejoin="round"/><path d="M 300 165 Q 337.7 152.8 300 133.8 Q 262.3 152.8 300 165 Z" fill="none" stroke="hsl(91 55% 38%)" stroke-width="1.6" stroke-linejoin="round"/><path d="M 374.62 179.84 Q 414.12 183 386.56 151.02 Q 344.46 154.15 374.62 179.84 Z" fill="none" stroke="hsl(91 55% 38%)" stroke-width="1.6" stroke-linejoin="round"/><path d="M 437.89 222.11 Q 473.17 240.15 459.95 200.05 Q 419.85 186.83 437.89 222.11 Z" fill="none" stroke="hsl(91 55% 38%)" stroke-width="1.6" stroke-linejoin="round"/><path d="M 480.16 285.38 Q 505.85 315.54 508.98 273.44 Q 477 245.88 480.16 285.38 Z" fill="none" stroke="hsl(91 55% 38%)" stroke-width="1.6" stroke-linejoin="round"/><path d="M 300 165 C 407.7 165 495 252.3 495 360 C 495 467.7 407.7 555 300 555 C 192.3 555 105 467.7 105 360 C 105 252.3 192.3 165 300 165 Z" fill="none" stroke="hsl(91 55% 38%)" stroke-width="1.6" stroke-linejoin="round"/></g>
  <g transform="translate(300,640)">
    <rect x="-110" y="-26" width="220" height="34" rx="17" fill="#ffffff" opacity="0.8"/>
    <text x="0" y="-3" text-anchor="middle" font-family="Quicksand, Arial, sans-serif" font-size="16" font-weight="600" fill="hsl(91 55% 38%)">💀 Gothic &amp; Sugar Skulls</text>
  </g>
  <text x="300" y="700" text-anchor="middle" font-family="Quicksand, Arial, sans-serif" font-size="40" font-weight="700" fill="#2b2540"><tspan x="300" dy="0">Gothic &amp; Sugar</tspan><tspan x="300" dy="44">Skulls – Vol. 2</tspan></text>
  <text x="300" y="772" text-anchor="middle" font-family="Arial, sans-serif" font-size="15" fill="#5b5470">Malbuch · 24 Seiten</text>
</svg>