<svg xmlns="http://www.w3.org/2000/svg" viewBox="0 0 600 800" width="600" height="800">
  <defs>
    <linearGradient id="bg" x1="0" y1="0" x2="0" y2="1">
      <stop offset="0" stop-color="hsl(63 70% 95%)"/><stop offset="1" stop-color="hsl(103 70% 92%)"/>
    </linearGradient>
  </defs>
  <rect width="600" height="800" fill="url(#bg)"/>
  <rect x="22" y="22" width="556" height="756" rx="28" fill="none" stroke="hsl(63 55% 38%)" stroke-width="2" opacity="0.5"/>
  <text x="300" y="74" text-anchor="middle" font-family="Quicksand, Arial, sans-serif" font-size="26" font-weight="700" fill="hsl(63 55% 38%)">&#10022; Coloreo</text>
  <g transform="translate(0,40)"><path d="M 323.4 360 Q 335.17 372.84 349.14 360 Q 335.17 347.16 323.4 360 Z" fill="none" stroke="hsl(63 55% 38%)" stroke-width="1.6" stroke-linejoin="round"/><path d="M 321.62 368.95 Q 327.58 385.32 345.4 378.81 Q 337.41 361.6 321.62 368.95 Z" fill="none" stroke="hsl(63 55% 38%)" stroke-width="1.6" stroke-linejoin="round"/><path d="M 316.55 376.55 Q 315.79 393.95 334.75 394.75 Q 333.95 375.79 316.55 376.55 Z" fill="none" stroke="hsl(63 55% 38%)" stroke-width="1.6" stroke-linejoin="round"/><path d="M 308.95 381.62 Q 301.6 397.41 318.81 405.4 Q 325.32 387.58 308.95 381.62 Z" fill="none" stroke="hsl(63 55% 38%)" stroke-width="1.6" stroke-linejoin="round"/><path d="M 300 383.4 Q 287.16 395.17 300 409.14 Q 312.84 395.17 300 383.4 Z" fill="none" stroke="hsl(63 55% 38%)" stroke-width="1.6" stroke-linejoin="round"/><path d="M 291.05 381.62 Q 274.68 387.58 281.19 405.4 Q 298.4 397.41 291.05 381.62 Z" fill="none" stroke="hsl(63 55% 38%)" stroke-width="1.6" stroke-linejoin="round"/><path d="M 283.45 376.55 Q 266.05 375.79 265.25 394.75 Q 284.21 393.95 283.45 376.55 Z" fill="none" stroke="hsl(63 55% 38%)" stroke-width="1.6" stroke-linejoin="round"/><path d="M 278.38 368.95 Q 262.59 361.6 254.6 378.81 Q 272.42 385.32 278.38 368.95 Z" fill="none" stroke="hsl(63 55% 38%)" stroke-width="1.6" stroke-linejoin="round"/><path d="M 276.6 360 Q 264.83 347.16 250.86 360 Q 264.83 372.84 276.6 360 Z" fill="none" stroke="hsl(63 55% 38%)" stroke-width="1.6" stroke-linejoin="round"/><path d="M 278.38 351.05 Q 272.42 334.68 254.6 341.19 Q 262.59 358.4 278.38 351.05 Z" fill="none" stroke="hsl(63 55% 38%)" stroke-width="1.6" stroke-linejoin="round"/><path d="M 283.45 343.45 Q 284.21 326.05 265.25 325.25 Q 266.05 344.21 283.45 343.45 Z" fill="none" stroke="hsl(63 55% 38%)" stroke-width="1.6" stroke-linejoin="round"/><path d="M 291.05 338.38 Q 298.4 322.59 281.19 314.6 Q 274.68 332.42 291.05 338.38 Z" fill="none" stroke="hsl(63 55% 38%)" stroke-width="1.6" stroke-linejoin="round"/><path d="M 300 336.6 Q 312.84 324.83 300 310.86 Q 287.16 324.83 300 336.6 Z" fill="none" stroke="hsl(63 55% 38%)" stroke-width="1.6" stroke-linejoin="round"/><path d="M 308.95 338.38 Q 325.32 332.42 318.81 314.6 Q 301.6 322.59 308.95 338.38 Z" fill="none" stroke="hsl(63 55% 38%)" stroke-width="1.6" stroke-linejoin="round"/><path d="M 316.55 343.45 Q 333.95 344.21 334.75 325.25 Q 315.79 326.05 316.55 343.45 Z" fill="none" stroke="hsl(63 55% 38%)" stroke-width="1.6" stroke-linejoin="round"/><path d="M 321.62 351.05 Q 337.41 358.4 345.4 341.19 Q 327.58 334.68 321.62 351.05 Z" fill="none" stroke="hsl(63 55% 38%)" stroke-width="1.6" stroke-linejoin="round"/><path d="M 285.96 360 a 14.04 14.04 0 1 0 28.08 0 a 14.04 14.04 0 1 0 -28.08 0 Z" fill="none" stroke="hsl(63 55% 38%)" stroke-width="1.6" stroke-linejoin="round"/><path d="M 202.5 360 a 97.5 97.5 0 1 0 195 0 a 97.5 97.5 0 1 0 -195 0 Z" fill="none" stroke="hsl(63 55% 38%)" stroke-width="1.6" stroke-linejoin="round"/><path d="M 395.63 379.02 L 422.4 384.35" fill="none" stroke="hsl(63 55% 38%)" stroke-width="1.6" stroke-linejoin="round"/><path d="M 381.07 414.17 L 403.77 429.34" fill="none" stroke="hsl(63 55% 38%)" stroke-width="1.6" stroke-linejoin="round"/><path d="M 354.17 441.07 L 369.34 463.77" fill="none" stroke="hsl(63 55% 38%)" stroke-width="1.6" stroke-linejoin="round"/><path d="M 319.02 455.63 L 324.35 482.4" fill="none" stroke="hsl(63 55% 38%)" stroke-width="1.6" stroke-linejoin="round"/><path d="M 280.98 455.63 L 275.65 482.4" fill="none" stroke="hsl(63 55% 38%)" stroke-width="1.6" stroke-linejoin="round"/><path d="M 245.83 441.07 L 230.66 463.77" fill="none" stroke="hsl(63 55% 38%)" stroke-width="1.6" stroke-linejoin="round"/><path d="M 218.93 414.17 L 196.23 429.34" fill="none" stroke="hsl(63 55% 38%)" stroke-width="1.6" stroke-linejoin="round"/><path d="M 204.37 379.02 L 177.6 384.35" fill="none" stroke="hsl(63 55% 38%)" stroke-width="1.6" stroke-linejoin="round"/><path d="M 204.37 340.98 L 177.6 335.65" fill="none" stroke="hsl(63 55% 38%)" stroke-width="1.6" stroke-linejoin="round"/><path d="M 218.93 305.83 L 196.23 290.66" fill="none" stroke="hsl(63 55% 38%)" stroke-width="1.6" stroke-linejoin="round"/><path d="M 245.83 278.93 L 230.66 256.23" fill="none" stroke="hsl(63 55% 38%)" stroke-width="1.6" stroke-linejoin="round"/><path d="M 280.98 264.37 L 275.65 237.6" fill="none" stroke="hsl(63 55% 38%)" stroke-width="1.6" stroke-linejoin="round"/><path d="M 319.02 264.37 L 324.35 237.6" fill="none" stroke="hsl(63 55% 38%)" stroke-width="1.6" stroke-linejoin="round"/><path d="M 354.17 278.93 L 369.34 256.23" fill="none" stroke="hsl(63 55% 38%)" stroke-width="1.6" stroke-linejoin="round"/><path d="M 381.07 305.83 L 403.77 290.66" fill="none" stroke="hsl(63 55% 38%)" stroke-width="1.6" stroke-linejoin="round"/><path d="M 395.63 340.98 L 422.4 335.65" fill="none" stroke="hsl(63 55% 38%)" stroke-width="1.6" stroke-linejoin="round"/><path d="M 153.75 360 a 146.25 146.25 0 1 0 292.5 0 a 146.25 146.25 0 1 0 -292.5 0 Z" fill="none" stroke="hsl(63 55% 38%)" stroke-width="1.6" stroke-linejoin="round"/><path d="M 446.25 360 L 473.55 360" fill="none" stroke="hsl(63 55% 38%)" stroke-width="1.6" stroke-linejoin="round"/><path d="M 443.44 388.53 L 470.22 393.86" fill="none" stroke="hsl(63 55% 38%)" stroke-width="1.6" stroke-linejoin="round"/><path d="M 435.12 415.97 L 460.34 426.41" fill="none" stroke="hsl(63 55% 38%)" stroke-width="1.6" stroke-linejoin="round"/><path d="M 421.6 441.25 L 444.3 456.42" fill="none" stroke="hsl(63 55% 38%)" stroke-width="1.6" stroke-linejoin="round"/><path d="M 403.41 463.41 L 422.72 482.72" fill="none" stroke="hsl(63 55% 38%)" stroke-width="1.6" stroke-linejoin="round"/><path d="M 381.25 481.6 L 396.42 504.3" fill="none" stroke="hsl(63 55% 38%)" stroke-width="1.6" stroke-linejoin="round"/><path d="M 355.97 495.12 L 366.41 520.34" fill="none" stroke="hsl(63 55% 38%)" stroke-width="1.6" stroke-linejoin="round"/><path d="M 328.53 503.44 L 333.86 530.22" fill="none" stroke="hsl(63 55% 38%)" stroke-width="1.6" stroke-linejoin="round"/><path d="M 300 506.25 L 300 533.55" fill="none" stroke="hsl(63 55% 38%)" stroke-width="1.6" stroke-linejoin="round"/><path d="M 271.47 503.44 L 266.14 530.22" fill="none" stroke="hsl(63 55% 38%)" stroke-width="1.6" stroke-linejoin="round"/><path d="M 244.03 495.12 L 233.59 520.34" fill="none" stroke="hsl(63 55% 38%)" stroke-width="1.6" stroke-linejoin="round"/><path d="M 218.75 481.6 L 203.58 504.3" fill="none" stroke="hsl(63 55% 38%)" stroke-width="1.6" stroke-linejoin="round"/><path d="M 196.59 463.41 L 177.28 482.72" fill="none" stroke="hsl(63 55% 38%)" stroke-width="1.6" stroke-linejoin="round"/><path d="M 178.4 441.25 L 155.7 456.42" fill="none" stroke="hsl(63 55% 38%)" stroke-width="1.6" stroke-linejoin="round"/><path d="M 164.88 415.97 L 139.66 426.41" fill="none" stroke="hsl(63 55% 38%)" stroke-width="1.6" stroke-linejoin="round"/><path d="M 156.56 388.53 L 129.78 393.86" fill="none" stroke="hsl(63 55% 38%)" stroke-width="1.6" stroke-linejoin="round"/><path d="M 153.75 360 L 126.45 360" fill="none" stroke="hsl(63 55% 38%)" stroke-width="1.6" stroke-linejoin="round"/><path d="M 156.56 331.47 L 129.78 326.14" fill="none" stroke="hsl(63 55% 38%)" stroke-width="1.6" stroke-linejoin="round"/><path d="M 164.88 304.03 L 139.66 293.59" fill="none" stroke="hsl(63 55% 38%)" stroke-width="1.6" stroke-linejoin="round"/><path d="M 178.4 278.75 L 155.7 263.58" fill="none" stroke="hsl(63 55% 38%)" stroke-width="1.6" stroke-linejoin="round"/><path d="M 196.59 256.59 L 177.28 237.28" fill="none" stroke="hsl(63 55% 38%)" stroke-width="1.6" stroke-linejoin="round"/><path d="M 218.75 238.4 L 203.58 215.7" fill="none" stroke="hsl(63 55% 38%)" stroke-width="1.6" stroke-linejoin="round"/><path d="M 244.03 224.88 L 233.59 199.66" fill="none" stroke="hsl(63 55% 38%)" stroke-width="1.6" stroke-linejoin="round"/><path d="M 271.47 216.56 L 266.14 189.78" fill="none" stroke="hsl(63 55% 38%)" stroke-width="1.6" stroke-linejoin="round"/><path d="M 300 213.75 L 300 186.45" fill="none" stroke="hsl(63 55% 38%)" stroke-width="1.6" stroke-linejoin="round"/><path d="M 328.53 216.56 L 333.86 189.78" fill="none" stroke="hsl(63 55% 38%)" stroke-width="1.6" stroke-linejoin="round"/><path d="M 355.97 224.88 L 366.41 199.66" fill="none" stroke="hsl(63 55% 38%)" stroke-width="1.6" stroke-linejoin="round"/><path d="M 381.25 238.4 L 396.42 215.7" fill="none" stroke="hsl(63 55% 38%)" stroke-width="1.6" stroke-linejoin="round"/><path d="M 403.41 256.59 L 422.72 237.28" fill="none" stroke="hsl(63 55% 38%)" stroke-width="1.6" stroke-linejoin="round"/><path d="M 421.6 278.75 L 444.3 263.58" fill="none" stroke="hsl(63 55% 38%)" stroke-width="1.6" stroke-linejoin="round"/><path d="M 435.12 304.03 L 460.34 293.59" fill="none" stroke="hsl(63 55% 38%)" stroke-width="1.6" stroke-linejoin="round"/><path d="M 443.44 331.47 L 470.22 326.14" fill="none" stroke="hsl(63 55% 38%)" stroke-width="1.6" stroke-linejoin="round"/><path d="M 105 360 a 195 195 0 1 0 390 0 a 195 195 0 1 0 -390 0 Z" fill="none" stroke="hsl(63 55% 38%)" stroke-width="1.6" stroke-linejoin="round"/><path d="M 491.25 398.04 L 518.03 403.37" fill="none" stroke="hsl(63 55% 38%)" stroke-width="1.6" stroke-linejoin="round"/><path d="M 462.14 468.34 L 484.84 483.5" fill="none" stroke="hsl(63 55% 38%)" stroke-width="1.6" stroke-linejoin="round"/><path d="M 408.34 522.14 L 423.5 544.84" fill="none" stroke="hsl(63 55% 38%)" stroke-width="1.6" stroke-linejoin="round"/><path d="M 338.04 551.25 L 343.37 578.03" fill="none" stroke="hsl(63 55% 38%)" stroke-width="1.6" stroke-linejoin="round"/><path d="M 261.96 551.25 L 256.63 578.03" fill="none" stroke="hsl(63 55% 38%)" stroke-width="1.6" stroke-linejoin="round"/><path d="M 191.66 522.14 L 176.5 544.84" fill="none" stroke="hsl(63 55% 38%)" stroke-width="1.6" stroke-linejoin="round"/><path d="M 137.86 468.34 L 115.16 483.5" fill="none" stroke="hsl(63 55% 38%)" stroke-width="1.6" stroke-linejoin="round"/><path d="M 108.75 398.04 L 81.97 403.37" fill="none" stroke="hsl(63 55% 38%)" stroke-width="1.6" stroke-linejoin="round"/><path d="M 108.75 321.96 L 81.97 316.63" fill="none" stroke="hsl(63 55% 38%)" stroke-width="1.6" stroke-linejoin="round"/><path d="M 137.86 251.66 L 115.16 236.5" fill="none" stroke="hsl(63 55% 38%)" stroke-width="1.6" stroke-linejoin="round"/><path d="M 191.66 197.86 L 176.5 175.16" fill="none" stroke="hsl(63 55% 38%)" stroke-width="1.6" stroke-linejoin="round"/><path d="M 261.96 168.75 L 256.63 141.97" fill="none" stroke="hsl(63 55% 38%)" stroke-width="1.6" stroke-linejoin="round"/><path d="M 338.04 168.75 L 343.37 141.97" fill="none" stroke="hsl(63 55% 38%)" stroke-width="1.6" stroke-linejoin="round"/><path d="M 408.34 197.86 L 423.5 175.16" fill="none" stroke="hsl(63 55% 38%)" stroke-width="1.6" stroke-linejoin="round"/><path d="M 462.14 251.66 L 484.84 236.5" fill="none" stroke="hsl(63 55% 38%)" stroke-width="1.6" stroke-linejoin="round"/><path d="M 491.25 321.96 L 518.03 316.63" fill="none" stroke="hsl(63 55% 38%)" stroke-width="1.6" stroke-linejoin="round"/><path d="M 105 360 a 195 195 0 1 0 390 0 a 195 195 0 1 0 -390 0 Z" fill="none" stroke="hsl(63 55% 38%)" stroke-width="1.6" stroke-linejoin="round"/></g>
  <g transform="translate(300,640)">
    <rect x="-110" y="-26" width="220" height="34" rx="17" fill="#ffffff" opacity="0.8"/>
    <text x="0" y="-3" text-anchor="middle" font-family="Quicksand, Arial, sans-serif" font-size="16" font-weight="600" fill="hsl(63 55% 38%)">🐶 Hunde</text>
  </g>
  <text x="300" y="700" text-anchor="middle" font-family="Quicksand, Arial, sans-serif" font-size="40" font-weight="700" fill="#2b2540"><tspan x="300" dy="0">Hunde – Vol. 2</tspan></text>
  <text x="300" y="772" text-anchor="middle" font-family="Arial, sans-serif" font-size="15" fill="#5b5470">Malbuch · 40 Seiten</text>
</svg>