<svg xmlns="http://www.w3.org/2000/svg" viewBox="0 0 600 800" width="600" height="800">
  <defs>
    <linearGradient id="bg" x1="0" y1="0" x2="0" y2="1">
      <stop offset="0" stop-color="hsl(63 70% 95%)"/><stop offset="1" stop-color="hsl(103 70% 92%)"/>
    </linearGradient>
  </defs>
  <rect width="600" height="800" fill="url(#bg)"/>
  <rect x="22" y="22" width="556" height="756" rx="28" fill="none" stroke="hsl(63 55% 38%)" stroke-width="2" opacity="0.5"/>
  <text x="300" y="74" text-anchor="middle" font-family="Quicksand, Arial, sans-serif" font-size="26" font-weight="700" fill="hsl(63 55% 38%)">&#10022; Coloreo</text>
  <g transform="translate(0,40)"><path d="M 323.4 360 Q 335.17 372.84 349.14 360 Q 335.17 347.16 323.4 360 Z" fill="none" stroke="hsl(63 55% 38%)" stroke-width="1.6" stroke-linejoin="round"/><path d="M 318.93 373.75 Q 320.91 391.06 339.76 388.88 Q 336 370.29 318.93 373.75 Z" fill="none" stroke="hsl(63 55% 38%)" stroke-width="1.6" stroke-linejoin="round"/><path d="M 307.23 382.25 Q 298.66 397.42 315.19 406.73 Q 323.08 389.48 307.23 382.25 Z" fill="none" stroke="hsl(63 55% 38%)" stroke-width="1.6" stroke-linejoin="round"/><path d="M 292.77 382.25 Q 276.92 389.48 284.81 406.73 Q 301.34 397.42 292.77 382.25 Z" fill="none" stroke="hsl(63 55% 38%)" stroke-width="1.6" stroke-linejoin="round"/><path d="M 281.07 373.75 Q 264 370.29 260.24 388.88 Q 279.09 391.06 281.07 373.75 Z" fill="none" stroke="hsl(63 55% 38%)" stroke-width="1.6" stroke-linejoin="round"/><path d="M 276.6 360 Q 264.83 347.16 250.86 360 Q 264.83 372.84 276.6 360 Z" fill="none" stroke="hsl(63 55% 38%)" stroke-width="1.6" stroke-linejoin="round"/><path d="M 281.07 346.25 Q 279.09 328.94 260.24 331.12 Q 264 349.71 281.07 346.25 Z" fill="none" stroke="hsl(63 55% 38%)" stroke-width="1.6" stroke-linejoin="round"/><path d="M 292.77 337.75 Q 301.34 322.58 284.81 313.27 Q 276.92 330.52 292.77 337.75 Z" fill="none" stroke="hsl(63 55% 38%)" stroke-width="1.6" stroke-linejoin="round"/><path d="M 307.23 337.75 Q 323.08 330.52 315.19 313.27 Q 298.66 322.58 307.23 337.75 Z" fill="none" stroke="hsl(63 55% 38%)" stroke-width="1.6" stroke-linejoin="round"/><path d="M 318.93 346.25 Q 336 349.71 339.76 331.12 Q 320.91 328.94 318.93 346.25 Z" fill="none" stroke="hsl(63 55% 38%)" stroke-width="1.6" stroke-linejoin="round"/><path d="M 285.96 360 a 14.04 14.04 0 1 0 28.08 0 a 14.04 14.04 0 1 0 -28.08 0 Z" fill="none" stroke="hsl(63 55% 38%)" stroke-width="1.6" stroke-linejoin="round"/><path d="M 235 360 a 65 65 0 1 0 130 0 a 65 65 0 1 0 -130 0 Z" fill="none" stroke="hsl(63 55% 38%)" stroke-width="1.6" stroke-linejoin="round"/><path d="M 361.82 380.09 Q 368.67 396.99 386.55 388.12 Q 377.3 370.43 361.82 380.09 Z" fill="none" stroke="hsl(63 55% 38%)" stroke-width="1.6" stroke-linejoin="round"/><path d="M 338.21 412.59 Q 333.81 430.29 353.49 433.62 Q 356.4 413.88 338.21 412.59 Z" fill="none" stroke="hsl(63 55% 38%)" stroke-width="1.6" stroke-linejoin="round"/><path d="M 300 425 Q 286.04 436.74 300 451 Q 313.96 436.74 300 425 Z" fill="none" stroke="hsl(63 55% 38%)" stroke-width="1.6" stroke-linejoin="round"/><path d="M 261.79 412.59 Q 243.6 413.88 246.51 433.62 Q 266.19 430.29 261.79 412.59 Z" fill="none" stroke="hsl(63 55% 38%)" stroke-width="1.6" stroke-linejoin="round"/><path d="M 238.18 380.09 Q 222.7 370.43 213.45 388.12 Q 231.33 396.99 238.18 380.09 Z" fill="none" stroke="hsl(63 55% 38%)" stroke-width="1.6" stroke-linejoin="round"/><path d="M 238.18 339.91 Q 231.33 323.01 213.45 331.88 Q 222.7 349.57 238.18 339.91 Z" fill="none" stroke="hsl(63 55% 38%)" stroke-width="1.6" stroke-linejoin="round"/><path d="M 261.79 307.41 Q 266.19 289.71 246.51 286.38 Q 243.6 306.12 261.79 307.41 Z" fill="none" stroke="hsl(63 55% 38%)" stroke-width="1.6" stroke-linejoin="round"/><path d="M 300 295 Q 313.96 283.26 300 269 Q 286.04 283.26 300 295 Z" fill="none" stroke="hsl(63 55% 38%)" stroke-width="1.6" stroke-linejoin="round"/><path d="M 338.21 307.41 Q 356.4 306.12 353.49 286.38 Q 333.81 289.71 338.21 307.41 Z" fill="none" stroke="hsl(63 55% 38%)" stroke-width="1.6" stroke-linejoin="round"/><path d="M 361.82 339.91 Q 377.3 349.57 386.55 331.88 Q 368.67 323.01 361.82 339.91 Z" fill="none" stroke="hsl(63 55% 38%)" stroke-width="1.6" stroke-linejoin="round"/><path d="M 202.5 360 a 97.5 97.5 0 1 0 195 0 a 97.5 97.5 0 1 0 -195 0 Z" fill="none" stroke="hsl(63 55% 38%)" stroke-width="1.6" stroke-linejoin="round"/><path d="M 390.22 360 a 7.28 7.28 0 1 0 14.56 0 a 7.28 7.28 0 1 0 -14.56 0 Z" fill="none" stroke="hsl(63 55% 38%)" stroke-width="1.6" stroke-linejoin="round"/><path d="M 385.45 390.13 a 7.28 7.28 0 1 0 14.56 0 a 7.28 7.28 0 1 0 -14.56 0 Z" fill="none" stroke="hsl(63 55% 38%)" stroke-width="1.6" stroke-linejoin="round"/><path d="M 371.6 417.31 a 7.28 7.28 0 1 0 14.56 0 a 7.28 7.28 0 1 0 -14.56 0 Z" fill="none" stroke="hsl(63 55% 38%)" stroke-width="1.6" stroke-linejoin="round"/><path d="M 350.03 438.88 a 7.28 7.28 0 1 0 14.56 0 a 7.28 7.28 0 1 0 -14.56 0 Z" fill="none" stroke="hsl(63 55% 38%)" stroke-width="1.6" stroke-linejoin="round"/><path d="M 322.85 452.73 a 7.28 7.28 0 1 0 14.56 0 a 7.28 7.28 0 1 0 -14.56 0 Z" fill="none" stroke="hsl(63 55% 38%)" stroke-width="1.6" stroke-linejoin="round"/><path d="M 292.72 457.5 a 7.28 7.28 0 1 0 14.56 0 a 7.28 7.28 0 1 0 -14.56 0 Z" fill="none" stroke="hsl(63 55% 38%)" stroke-width="1.6" stroke-linejoin="round"/><path d="M 262.59 452.73 a 7.28 7.28 0 1 0 14.56 0 a 7.28 7.28 0 1 0 -14.56 0 Z" fill="none" stroke="hsl(63 55% 38%)" stroke-width="1.6" stroke-linejoin="round"/><path d="M 235.41 438.88 a 7.28 7.28 0 1 0 14.56 0 a 7.28 7.28 0 1 0 -14.56 0 Z" fill="none" stroke="hsl(63 55% 38%)" stroke-width="1.6" stroke-linejoin="round"/><path d="M 213.84 417.31 a 7.28 7.28 0 1 0 14.56 0 a 7.28 7.28 0 1 0 -14.56 0 Z" fill="none" stroke="hsl(63 55% 38%)" stroke-width="1.6" stroke-linejoin="round"/><path d="M 199.99 390.13 a 7.28 7.28 0 1 0 14.56 0 a 7.28 7.28 0 1 0 -14.56 0 Z" fill="none" stroke="hsl(63 55% 38%)" stroke-width="1.6" stroke-linejoin="round"/><path d="M 195.22 360 a 7.28 7.28 0 1 0 14.56 0 a 7.28 7.28 0 1 0 -14.56 0 Z" fill="none" stroke="hsl(63 55% 38%)" stroke-width="1.6" stroke-linejoin="round"/><path d="M 199.99 329.87 a 7.28 7.28 0 1 0 14.56 0 a 7.28 7.28 0 1 0 -14.56 0 Z" fill="none" stroke="hsl(63 55% 38%)" stroke-width="1.6" stroke-linejoin="round"/><path d="M 213.84 302.69 a 7.28 7.28 0 1 0 14.56 0 a 7.28 7.28 0 1 0 -14.56 0 Z" fill="none" stroke="hsl(63 55% 38%)" stroke-width="1.6" stroke-linejoin="round"/><path d="M 235.41 281.12 a 7.28 7.28 0 1 0 14.56 0 a 7.28 7.28 0 1 0 -14.56 0 Z" fill="none" stroke="hsl(63 55% 38%)" stroke-width="1.6" stroke-linejoin="round"/><path d="M 262.59 267.27 a 7.28 7.28 0 1 0 14.56 0 a 7.28 7.28 0 1 0 -14.56 0 Z" fill="none" stroke="hsl(63 55% 38%)" stroke-width="1.6" stroke-linejoin="round"/><path d="M 292.72 262.5 a 7.28 7.28 0 1 0 14.56 0 a 7.28 7.28 0 1 0 -14.56 0 Z" fill="none" stroke="hsl(63 55% 38%)" stroke-width="1.6" stroke-linejoin="round"/><path d="M 322.85 267.27 a 7.28 7.28 0 1 0 14.56 0 a 7.28 7.28 0 1 0 -14.56 0 Z" fill="none" stroke="hsl(63 55% 38%)" stroke-width="1.6" stroke-linejoin="round"/><path d="M 350.03 281.12 a 7.28 7.28 0 1 0 14.56 0 a 7.28 7.28 0 1 0 -14.56 0 Z" fill="none" stroke="hsl(63 55% 38%)" stroke-width="1.6" stroke-linejoin="round"/><path d="M 371.6 302.69 a 7.28 7.28 0 1 0 14.56 0 a 7.28 7.28 0 1 0 -14.56 0 Z" fill="none" stroke="hsl(63 55% 38%)" stroke-width="1.6" stroke-linejoin="round"/><path d="M 385.45 329.87 a 7.28 7.28 0 1 0 14.56 0 a 7.28 7.28 0 1 0 -14.56 0 Z" fill="none" stroke="hsl(63 55% 38%)" stroke-width="1.6" stroke-linejoin="round"/><path d="M 170 360 a 130 130 0 1 0 260 0 a 130 130 0 1 0 -260 0 Z" fill="none" stroke="hsl(63 55% 38%)" stroke-width="1.6" stroke-linejoin="round"/><path d="M 423.64 400.17 L 440.95 405.8" fill="none" stroke="hsl(63 55% 38%)" stroke-width="1.6" stroke-linejoin="round"/><path d="M 376.41 465.17 L 387.11 479.9" fill="none" stroke="hsl(63 55% 38%)" stroke-width="1.6" stroke-linejoin="round"/><path d="M 300 490 L 300 508.2" fill="none" stroke="hsl(63 55% 38%)" stroke-width="1.6" stroke-linejoin="round"/><path d="M 223.59 465.17 L 212.89 479.9" fill="none" stroke="hsl(63 55% 38%)" stroke-width="1.6" stroke-linejoin="round"/><path d="M 176.36 400.17 L 159.05 405.8" fill="none" stroke="hsl(63 55% 38%)" stroke-width="1.6" stroke-linejoin="round"/><path d="M 176.36 319.83 L 159.05 314.2" fill="none" stroke="hsl(63 55% 38%)" stroke-width="1.6" stroke-linejoin="round"/><path d="M 223.59 254.83 L 212.89 240.1" fill="none" stroke="hsl(63 55% 38%)" stroke-width="1.6" stroke-linejoin="round"/><path d="M 300 230 L 300 211.8" fill="none" stroke="hsl(63 55% 38%)" stroke-width="1.6" stroke-linejoin="round"/><path d="M 376.41 254.83 L 387.11 240.1" fill="none" stroke="hsl(63 55% 38%)" stroke-width="1.6" stroke-linejoin="round"/><path d="M 423.64 319.83 L 440.95 314.2" fill="none" stroke="hsl(63 55% 38%)" stroke-width="1.6" stroke-linejoin="round"/><path d="M 137.5 360 a 162.5 162.5 0 1 0 325 0 a 162.5 162.5 0 1 0 -325 0 Z" fill="none" stroke="hsl(63 55% 38%)" stroke-width="1.6" stroke-linejoin="round"/><path d="M 462.5 360 L 480.7 360" fill="none" stroke="hsl(63 55% 38%)" stroke-width="1.6" stroke-linejoin="round"/><path d="M 454.55 410.22 L 471.86 415.84" fill="none" stroke="hsl(63 55% 38%)" stroke-width="1.6" stroke-linejoin="round"/><path d="M 431.47 455.52 L 446.19 466.21" fill="none" stroke="hsl(63 55% 38%)" stroke-width="1.6" stroke-linejoin="round"/><path d="M 395.52 491.47 L 406.21 506.19" fill="none" stroke="hsl(63 55% 38%)" stroke-width="1.6" stroke-linejoin="round"/><path d="M 350.22 514.55 L 355.84 531.86" fill="none" stroke="hsl(63 55% 38%)" stroke-width="1.6" stroke-linejoin="round"/><path d="M 300 522.5 L 300 540.7" fill="none" stroke="hsl(63 55% 38%)" stroke-width="1.6" stroke-linejoin="round"/><path d="M 249.78 514.55 L 244.16 531.86" fill="none" stroke="hsl(63 55% 38%)" stroke-width="1.6" stroke-linejoin="round"/><path d="M 204.48 491.47 L 193.79 506.19" fill="none" stroke="hsl(63 55% 38%)" stroke-width="1.6" stroke-linejoin="round"/><path d="M 168.53 455.52 L 153.81 466.21" fill="none" stroke="hsl(63 55% 38%)" stroke-width="1.6" stroke-linejoin="round"/><path d="M 145.45 410.22 L 128.14 415.84" fill="none" stroke="hsl(63 55% 38%)" stroke-width="1.6" stroke-linejoin="round"/><path d="M 137.5 360 L 119.3 360" fill="none" stroke="hsl(63 55% 38%)" stroke-width="1.6" stroke-linejoin="round"/><path d="M 145.45 309.78 L 128.14 304.16" fill="none" stroke="hsl(63 55% 38%)" stroke-width="1.6" stroke-linejoin="round"/><path d="M 168.53 264.48 L 153.81 253.79" fill="none" stroke="hsl(63 55% 38%)" stroke-width="1.6" stroke-linejoin="round"/><path d="M 204.48 228.53 L 193.79 213.81" fill="none" stroke="hsl(63 55% 38%)" stroke-width="1.6" stroke-linejoin="round"/><path d="M 249.78 205.45 L 244.16 188.14" fill="none" stroke="hsl(63 55% 38%)" stroke-width="1.6" stroke-linejoin="round"/><path d="M 300 197.5 L 300 179.3" fill="none" stroke="hsl(63 55% 38%)" stroke-width="1.6" stroke-linejoin="round"/><path d="M 350.22 205.45 L 355.84 188.14" fill="none" stroke="hsl(63 55% 38%)" stroke-width="1.6" stroke-linejoin="round"/><path d="M 395.52 228.53 L 406.21 213.81" fill="none" stroke="hsl(63 55% 38%)" stroke-width="1.6" stroke-linejoin="round"/><path d="M 431.47 264.48 L 446.19 253.79" fill="none" stroke="hsl(63 55% 38%)" stroke-width="1.6" stroke-linejoin="round"/><path d="M 454.55 309.78 L 471.86 304.16" fill="none" stroke="hsl(63 55% 38%)" stroke-width="1.6" stroke-linejoin="round"/><path d="M 105 360 a 195 195 0 1 0 390 0 a 195 195 0 1 0 -390 0 Z" fill="none" stroke="hsl(63 55% 38%)" stroke-width="1.6" stroke-linejoin="round"/><path d="M 478.18 420.26 a 7.28 7.28 0 1 0 14.56 0 a 7.28 7.28 0 1 0 -14.56 0 Z" fill="none" stroke="hsl(63 55% 38%)" stroke-width="1.6" stroke-linejoin="round"/><path d="M 407.34 517.76 a 7.28 7.28 0 1 0 14.56 0 a 7.28 7.28 0 1 0 -14.56 0 Z" fill="none" stroke="hsl(63 55% 38%)" stroke-width="1.6" stroke-linejoin="round"/><path d="M 292.72 555 a 7.28 7.28 0 1 0 14.56 0 a 7.28 7.28 0 1 0 -14.56 0 Z" fill="none" stroke="hsl(63 55% 38%)" stroke-width="1.6" stroke-linejoin="round"/><path d="M 178.1 517.76 a 7.28 7.28 0 1 0 14.56 0 a 7.28 7.28 0 1 0 -14.56 0 Z" fill="none" stroke="hsl(63 55% 38%)" stroke-width="1.6" stroke-linejoin="round"/><path d="M 107.26 420.26 a 7.28 7.28 0 1 0 14.56 0 a 7.28 7.28 0 1 0 -14.56 0 Z" fill="none" stroke="hsl(63 55% 38%)" stroke-width="1.6" stroke-linejoin="round"/><path d="M 107.26 299.74 a 7.28 7.28 0 1 0 14.56 0 a 7.28 7.28 0 1 0 -14.56 0 Z" fill="none" stroke="hsl(63 55% 38%)" stroke-width="1.6" stroke-linejoin="round"/><path d="M 178.1 202.24 a 7.28 7.28 0 1 0 14.56 0 a 7.28 7.28 0 1 0 -14.56 0 Z" fill="none" stroke="hsl(63 55% 38%)" stroke-width="1.6" stroke-linejoin="round"/><path d="M 292.72 165 a 7.28 7.28 0 1 0 14.56 0 a 7.28 7.28 0 1 0 -14.56 0 Z" fill="none" stroke="hsl(63 55% 38%)" stroke-width="1.6" stroke-linejoin="round"/><path d="M 407.34 202.24 a 7.28 7.28 0 1 0 14.56 0 a 7.28 7.28 0 1 0 -14.56 0 Z" fill="none" stroke="hsl(63 55% 38%)" stroke-width="1.6" stroke-linejoin="round"/><path d="M 478.18 299.74 a 7.28 7.28 0 1 0 14.56 0 a 7.28 7.28 0 1 0 -14.56 0 Z" fill="none" stroke="hsl(63 55% 38%)" stroke-width="1.6" stroke-linejoin="round"/><path d="M 105 360 a 195 195 0 1 0 390 0 a 195 195 0 1 0 -390 0 Z" fill="none" stroke="hsl(63 55% 38%)" stroke-width="1.6" stroke-linejoin="round"/></g>
  <g transform="translate(300,640)">
    <rect x="-110" y="-26" width="220" height="34" rx="17" fill="#ffffff" opacity="0.8"/>
    <text x="0" y="-3" text-anchor="middle" font-family="Quicksand, Arial, sans-serif" font-size="16" font-weight="600" fill="hsl(63 55% 38%)">🐶 Hunde</text>
  </g>
  <text x="300" y="700" text-anchor="middle" font-family="Quicksand, Arial, sans-serif" font-size="40" font-weight="700" fill="#2b2540"><tspan x="300" dy="0">Hunde – Vol. 1</tspan></text>
  <text x="300" y="772" text-anchor="middle" font-family="Arial, sans-serif" font-size="15" fill="#5b5470">Malbuch · 30 Seiten</text>
</svg>