<svg xmlns="http://www.w3.org/2000/svg" viewBox="0 0 600 800" width="600" height="800">
  <defs>
    <linearGradient id="bg" x1="0" y1="0" x2="0" y2="1">
      <stop offset="0" stop-color="hsl(63 70% 95%)"/><stop offset="1" stop-color="hsl(103 70% 92%)"/>
    </linearGradient>
  </defs>
  <rect width="600" height="800" fill="url(#bg)"/>
  <rect x="22" y="22" width="556" height="756" rx="28" fill="none" stroke="hsl(63 55% 38%)" stroke-width="2" opacity="0.5"/>
  <text x="300" y="74" text-anchor="middle" font-family="Quicksand, Arial, sans-serif" font-size="26" font-weight="700" fill="hsl(63 55% 38%)">&#10022; Coloreo</text>
  <g transform="translate(0,40)"><path d="M 323.4 360 Q 335.17 372.84 349.14 360 Q 335.17 347.16 323.4 360 Z" fill="none" stroke="hsl(63 55% 38%)" stroke-width="1.6" stroke-linejoin="round"/><path d="M 318.93 373.75 Q 320.91 391.06 339.76 388.88 Q 336 370.29 318.93 373.75 Z" fill="none" stroke="hsl(63 55% 38%)" stroke-width="1.6" stroke-linejoin="round"/><path d="M 307.23 382.25 Q 298.66 397.42 315.19 406.73 Q 323.08 389.48 307.23 382.25 Z" fill="none" stroke="hsl(63 55% 38%)" stroke-width="1.6" stroke-linejoin="round"/><path d="M 292.77 382.25 Q 276.92 389.48 284.81 406.73 Q 301.34 397.42 292.77 382.25 Z" fill="none" stroke="hsl(63 55% 38%)" stroke-width="1.6" stroke-linejoin="round"/><path d="M 281.07 373.75 Q 264 370.29 260.24 388.88 Q 279.09 391.06 281.07 373.75 Z" fill="none" stroke="hsl(63 55% 38%)" stroke-width="1.6" stroke-linejoin="round"/><path d="M 276.6 360 Q 264.83 347.16 250.86 360 Q 264.83 372.84 276.6 360 Z" fill="none" stroke="hsl(63 55% 38%)" stroke-width="1.6" stroke-linejoin="round"/><path d="M 281.07 346.25 Q 279.09 328.94 260.24 331.12 Q 264 349.71 281.07 346.25 Z" fill="none" stroke="hsl(63 55% 38%)" stroke-width="1.6" stroke-linejoin="round"/><path d="M 292.77 337.75 Q 301.34 322.58 284.81 313.27 Q 276.92 330.52 292.77 337.75 Z" fill="none" stroke="hsl(63 55% 38%)" stroke-width="1.6" stroke-linejoin="round"/><path d="M 307.23 337.75 Q 323.08 330.52 315.19 313.27 Q 298.66 322.58 307.23 337.75 Z" fill="none" stroke="hsl(63 55% 38%)" stroke-width="1.6" stroke-linejoin="round"/><path d="M 318.93 346.25 Q 336 349.71 339.76 331.12 Q 320.91 328.94 318.93 346.25 Z" fill="none" stroke="hsl(63 55% 38%)" stroke-width="1.6" stroke-linejoin="round"/><path d="M 300 345.96 C 307.75 345.96 314.04 352.25 314.04 360 C 314.04 367.75 307.75 374.04 300 374.04 C 292.25 374.04 285.96 367.75 285.96 360 C 285.96 352.25 292.25 345.96 300 345.96 Z" fill="none" stroke="hsl(63 55% 38%)" stroke-width="1.6" stroke-linejoin="round"/><path d="M 300 295 C 335.9 295 365 324.1 365 360 C 365 395.9 335.9 425 300 425 C 264.1 425 235 395.9 235 360 C 235 324.1 264.1 295 300 295 Z" fill="none" stroke="hsl(63 55% 38%)" stroke-width="1.6" stroke-linejoin="round"/><path d="M 361.82 380.09 Q 368.67 396.99 386.55 388.12 Q 377.3 370.43 361.82 380.09 Z" fill="none" stroke="hsl(63 55% 38%)" stroke-width="1.6" stroke-linejoin="round"/><path d="M 338.21 412.59 Q 333.81 430.29 353.49 433.62 Q 356.4 413.88 338.21 412.59 Z" fill="none" stroke="hsl(63 55% 38%)" stroke-width="1.6" stroke-linejoin="round"/><path d="M 300 425 Q 286.04 436.74 300 451 Q 313.96 436.74 300 425 Z" fill="none" stroke="hsl(63 55% 38%)" stroke-width="1.6" stroke-linejoin="round"/><path d="M 261.79 412.59 Q 243.6 413.88 246.51 433.62 Q 266.19 430.29 261.79 412.59 Z" fill="none" stroke="hsl(63 55% 38%)" stroke-width="1.6" stroke-linejoin="round"/><path d="M 238.18 380.09 Q 222.7 370.43 213.45 388.12 Q 231.33 396.99 238.18 380.09 Z" fill="none" stroke="hsl(63 55% 38%)" stroke-width="1.6" stroke-linejoin="round"/><path d="M 238.18 339.91 Q 231.33 323.01 213.45 331.88 Q 222.7 349.57 238.18 339.91 Z" fill="none" stroke="hsl(63 55% 38%)" stroke-width="1.6" stroke-linejoin="round"/><path d="M 261.79 307.41 Q 266.19 289.71 246.51 286.38 Q 243.6 306.12 261.79 307.41 Z" fill="none" stroke="hsl(63 55% 38%)" stroke-width="1.6" stroke-linejoin="round"/><path d="M 300 295 Q 313.96 283.26 300 269 Q 286.04 283.26 300 295 Z" fill="none" stroke="hsl(63 55% 38%)" stroke-width="1.6" stroke-linejoin="round"/><path d="M 338.21 307.41 Q 356.4 306.12 353.49 286.38 Q 333.81 289.71 338.21 307.41 Z" fill="none" stroke="hsl(63 55% 38%)" stroke-width="1.6" stroke-linejoin="round"/><path d="M 361.82 339.91 Q 377.3 349.57 386.55 331.88 Q 368.67 323.01 361.82 339.91 Z" fill="none" stroke="hsl(63 55% 38%)" stroke-width="1.6" stroke-linejoin="round"/><path d="M 300 262.5 C 353.85 262.5 397.5 306.15 397.5 360 C 397.5 413.85 353.85 457.5 300 457.5 C 246.15 457.5 202.5 413.85 202.5 360 C 202.5 306.15 246.15 262.5 300 262.5 Z" fill="none" stroke="hsl(63 55% 38%)" stroke-width="1.6" stroke-linejoin="round"/><path d="M 397.5 352.72 C 401.52 352.72 404.78 355.98 404.78 360 C 404.78 364.02 401.52 367.28 397.5 367.28 C 393.48 367.28 390.22 364.02 390.22 360 C 390.22 355.98 393.48 352.72 397.5 352.72 Z" fill="none" stroke="hsl(63 55% 38%)" stroke-width="1.6" stroke-linejoin="round"/><path d="M 392.73 382.85 C 396.75 382.85 400.01 386.11 400.01 390.13 C 400.01 394.15 396.75 397.41 392.73 397.41 C 388.71 397.41 385.45 394.15 385.45 390.13 C 385.45 386.11 388.71 382.85 392.73 382.85 Z" fill="none" stroke="hsl(63 55% 38%)" stroke-width="1.6" stroke-linejoin="round"/><path d="M 378.88 410.03 C 382.9 410.03 386.16 413.29 386.16 417.31 C 386.16 421.33 382.9 424.59 378.88 424.59 C 374.86 424.59 371.6 421.33 371.6 417.31 C 371.6 413.29 374.86 410.03 378.88 410.03 Z" fill="none" stroke="hsl(63 55% 38%)" stroke-width="1.6" stroke-linejoin="round"/><path d="M 357.31 431.6 C 361.33 431.6 364.59 434.86 364.59 438.88 C 364.59 442.9 361.33 446.16 357.31 446.16 C 353.29 446.16 350.03 442.9 350.03 438.88 C 350.03 434.86 353.29 431.6 357.31 431.6 Z" fill="none" stroke="hsl(63 55% 38%)" stroke-width="1.6" stroke-linejoin="round"/><path d="M 330.13 445.45 C 334.15 445.45 337.41 448.71 337.41 452.73 C 337.41 456.75 334.15 460.01 330.13 460.01 C 326.11 460.01 322.85 456.75 322.85 452.73 C 322.85 448.71 326.11 445.45 330.13 445.45 Z" fill="none" stroke="hsl(63 55% 38%)" stroke-width="1.6" stroke-linejoin="round"/><path d="M 300 450.22 C 304.02 450.22 307.28 453.48 307.28 457.5 C 307.28 461.52 304.02 464.78 300 464.78 C 295.98 464.78 292.72 461.52 292.72 457.5 C 292.72 453.48 295.98 450.22 300 450.22 Z" fill="none" stroke="hsl(63 55% 38%)" stroke-width="1.6" stroke-linejoin="round"/><path d="M 269.87 445.45 C 273.89 445.45 277.15 448.71 277.15 452.73 C 277.15 456.75 273.89 460.01 269.87 460.01 C 265.85 460.01 262.59 456.75 262.59 452.73 C 262.59 448.71 265.85 445.45 269.87 445.45 Z" fill="none" stroke="hsl(63 55% 38%)" stroke-width="1.6" stroke-linejoin="round"/><path d="M 242.69 431.6 C 246.71 431.6 249.97 434.86 249.97 438.88 C 249.97 442.9 246.71 446.16 242.69 446.16 C 238.67 446.16 235.41 442.9 235.41 438.88 C 235.41 434.86 238.67 431.6 242.69 431.6 Z" fill="none" stroke="hsl(63 55% 38%)" stroke-width="1.6" stroke-linejoin="round"/><path d="M 221.12 410.03 C 225.14 410.03 228.4 413.29 228.4 417.31 C 228.4 421.33 225.14 424.59 221.12 424.59 C 217.1 424.59 213.84 421.33 213.84 417.31 C 213.84 413.29 217.1 410.03 221.12 410.03 Z" fill="none" stroke="hsl(63 55% 38%)" stroke-width="1.6" stroke-linejoin="round"/><path d="M 207.27 382.85 C 211.29 382.85 214.55 386.11 214.55 390.13 C 214.55 394.15 211.29 397.41 207.27 397.41 C 203.25 397.41 199.99 394.15 199.99 390.13 C 199.99 386.11 203.25 382.85 207.27 382.85 Z" fill="none" stroke="hsl(63 55% 38%)" stroke-width="1.6" stroke-linejoin="round"/><path d="M 202.5 352.72 C 206.52 352.72 209.78 355.98 209.78 360 C 209.78 364.02 206.52 367.28 202.5 367.28 C 198.48 367.28 195.22 364.02 195.22 360 C 195.22 355.98 198.48 352.72 202.5 352.72 Z" fill="none" stroke="hsl(63 55% 38%)" stroke-width="1.6" stroke-linejoin="round"/><path d="M 207.27 322.59 C 211.29 322.59 214.55 325.85 214.55 329.87 C 214.55 333.89 211.29 337.15 207.27 337.15 C 203.25 337.15 199.99 333.89 199.99 329.87 C 199.99 325.85 203.25 322.59 207.27 322.59 Z" fill="none" stroke="hsl(63 55% 38%)" stroke-width="1.6" stroke-linejoin="round"/><path d="M 221.12 295.41 C 225.14 295.41 228.4 298.67 228.4 302.69 C 228.4 306.71 225.14 309.97 221.12 309.97 C 217.1 309.97 213.84 306.71 213.84 302.69 C 213.84 298.67 217.1 295.41 221.12 295.41 Z" fill="none" stroke="hsl(63 55% 38%)" stroke-width="1.6" stroke-linejoin="round"/><path d="M 242.69 273.84 C 246.71 273.84 249.97 277.1 249.97 281.12 C 249.97 285.14 246.71 288.4 242.69 288.4 C 238.67 288.4 235.41 285.14 235.41 281.12 C 235.41 277.1 238.67 273.84 242.69 273.84 Z" fill="none" stroke="hsl(63 55% 38%)" stroke-width="1.6" stroke-linejoin="round"/><path d="M 269.87 259.99 C 273.89 259.99 277.15 263.25 277.15 267.27 C 277.15 271.29 273.89 274.55 269.87 274.55 C 265.85 274.55 262.59 271.29 262.59 267.27 C 262.59 263.25 265.85 259.99 269.87 259.99 Z" fill="none" stroke="hsl(63 55% 38%)" stroke-width="1.6" stroke-linejoin="round"/><path d="M 300 255.22 C 304.02 255.22 307.28 258.48 307.28 262.5 C 307.28 266.52 304.02 269.78 300 269.78 C 295.98 269.78 292.72 266.52 292.72 262.5 C 292.72 258.48 295.98 255.22 300 255.22 Z" fill="none" stroke="hsl(63 55% 38%)" stroke-width="1.6" stroke-linejoin="round"/><path d="M 330.13 259.99 C 334.15 259.99 337.41 263.25 337.41 267.27 C 337.41 271.29 334.15 274.55 330.13 274.55 C 326.11 274.55 322.85 271.29 322.85 267.27 C 322.85 263.25 326.11 259.99 330.13 259.99 Z" fill="none" stroke="hsl(63 55% 38%)" stroke-width="1.6" stroke-linejoin="round"/><path d="M 357.31 273.84 C 361.33 273.84 364.59 277.1 364.59 281.12 C 364.59 285.14 361.33 288.4 357.31 288.4 C 353.29 288.4 350.03 285.14 350.03 281.12 C 350.03 277.1 353.29 273.84 357.31 273.84 Z" fill="none" stroke="hsl(63 55% 38%)" stroke-width="1.6" stroke-linejoin="round"/><path d="M 378.88 295.41 C 382.9 295.41 386.16 298.67 386.16 302.69 C 386.16 306.71 382.9 309.97 378.88 309.97 C 374.86 309.97 371.6 306.71 371.6 302.69 C 371.6 298.67 374.86 295.41 378.88 295.41 Z" fill="none" stroke="hsl(63 55% 38%)" stroke-width="1.6" stroke-linejoin="round"/><path d="M 392.73 322.59 C 396.75 322.59 400.01 325.85 400.01 329.87 C 400.01 333.89 396.75 337.15 392.73 337.15 C 388.71 337.15 385.45 333.89 385.45 329.87 C 385.45 325.85 388.71 322.59 392.73 322.59 Z" fill="none" stroke="hsl(63 55% 38%)" stroke-width="1.6" stroke-linejoin="round"/><path d="M 300 230 C 371.8 230 430 288.2 430 360 C 430 431.8 371.8 490 300 490 C 228.2 490 170 431.8 170 360 C 170 288.2 228.2 230 300 230 Z" fill="none" stroke="hsl(63 55% 38%)" stroke-width="1.6" stroke-linejoin="round"/><path d="M 423.64 400.17 L 440.95 405.8" fill="none" stroke="hsl(63 55% 38%)" stroke-width="1.6" stroke-linejoin="round"/><path d="M 376.41 465.17 L 387.11 479.9" fill="none" stroke="hsl(63 55% 38%)" stroke-width="1.6" stroke-linejoin="round"/><path d="M 300 490 L 300 508.2" fill="none" stroke="hsl(63 55% 38%)" stroke-width="1.6" stroke-linejoin="round"/><path d="M 223.59 465.17 L 212.89 479.9" fill="none" stroke="hsl(63 55% 38%)" stroke-width="1.6" stroke-linejoin="round"/><path d="M 176.36 400.17 L 159.05 405.8" fill="none" stroke="hsl(63 55% 38%)" stroke-width="1.6" stroke-linejoin="round"/><path d="M 176.36 319.83 L 159.05 314.2" fill="none" stroke="hsl(63 55% 38%)" stroke-width="1.6" stroke-linejoin="round"/><path d="M 223.59 254.83 L 212.89 240.1" fill="none" stroke="hsl(63 55% 38%)" stroke-width="1.6" stroke-linejoin="round"/><path d="M 300 230 L 300 211.8" fill="none" stroke="hsl(63 55% 38%)" stroke-width="1.6" stroke-linejoin="round"/><path d="M 376.41 254.83 L 387.11 240.1" fill="none" stroke="hsl(63 55% 38%)" stroke-width="1.6" stroke-linejoin="round"/><path d="M 423.64 319.83 L 440.95 314.2" fill="none" stroke="hsl(63 55% 38%)" stroke-width="1.6" stroke-linejoin="round"/><path d="M 300 197.5 C 389.75 197.5 462.5 270.25 462.5 360 C 462.5 449.75 389.75 522.5 300 522.5 C 210.25 522.5 137.5 449.75 137.5 360 C 137.5 270.25 210.25 197.5 300 197.5 Z" fill="none" stroke="hsl(63 55% 38%)" stroke-width="1.6" stroke-linejoin="round"/><path d="M 462.5 360 L 480.7 360" fill="none" stroke="hsl(63 55% 38%)" stroke-width="1.6" stroke-linejoin="round"/><path d="M 454.55 410.22 L 471.86 415.84" fill="none" stroke="hsl(63 55% 38%)" stroke-width="1.6" stroke-linejoin="round"/><path d="M 431.47 455.52 L 446.19 466.21" fill="none" stroke="hsl(63 55% 38%)" stroke-width="1.6" stroke-linejoin="round"/><path d="M 395.52 491.47 L 406.21 506.19" fill="none" stroke="hsl(63 55% 38%)" stroke-width="1.6" stroke-linejoin="round"/><path d="M 350.22 514.55 L 355.84 531.86" fill="none" stroke="hsl(63 55% 38%)" stroke-width="1.6" stroke-linejoin="round"/><path d="M 300 522.5 L 300 540.7" fill="none" stroke="hsl(63 55% 38%)" stroke-width="1.6" stroke-linejoin="round"/><path d="M 249.78 514.55 L 244.16 531.86" fill="none" stroke="hsl(63 55% 38%)" stroke-width="1.6" stroke-linejoin="round"/><path d="M 204.48 491.47 L 193.79 506.19" fill="none" stroke="hsl(63 55% 38%)" stroke-width="1.6" stroke-linejoin="round"/><path d="M 168.53 455.52 L 153.81 466.21" fill="none" stroke="hsl(63 55% 38%)" stroke-width="1.6" stroke-linejoin="round"/><path d="M 145.45 410.22 L 128.14 415.84" fill="none" stroke="hsl(63 55% 38%)" stroke-width="1.6" stroke-linejoin="round"/><path d="M 137.5 360 L 119.3 360" fill="none" stroke="hsl(63 55% 38%)" stroke-width="1.6" stroke-linejoin="round"/><path d="M 145.45 309.78 L 128.14 304.16" fill="none" stroke="hsl(63 55% 38%)" stroke-width="1.6" stroke-linejoin="round"/><path d="M 168.53 264.48 L 153.81 253.79" fill="none" stroke="hsl(63 55% 38%)" stroke-width="1.6" stroke-linejoin="round"/><path d="M 204.48 228.53 L 193.79 213.81" fill="none" stroke="hsl(63 55% 38%)" stroke-width="1.6" stroke-linejoin="round"/><path d="M 249.78 205.45 L 244.16 188.14" fill="none" stroke="hsl(63 55% 38%)" stroke-width="1.6" stroke-linejoin="round"/><path d="M 300 197.5 L 300 179.3" fill="none" stroke="hsl(63 55% 38%)" stroke-width="1.6" stroke-linejoin="round"/><path d="M 350.22 205.45 L 355.84 188.14" fill="none" stroke="hsl(63 55% 38%)" stroke-width="1.6" stroke-linejoin="round"/><path d="M 395.52 228.53 L 406.21 213.81" fill="none" stroke="hsl(63 55% 38%)" stroke-width="1.6" stroke-linejoin="round"/><path d="M 431.47 264.48 L 446.19 253.79" fill="none" stroke="hsl(63 55% 38%)" stroke-width="1.6" stroke-linejoin="round"/><path d="M 454.55 309.78 L 471.86 304.16" fill="none" stroke="hsl(63 55% 38%)" stroke-width="1.6" stroke-linejoin="round"/><path d="M 300 165 C 407.7 165 495 252.3 495 360 C 495 467.7 407.7 555 300 555 C 192.3 555 105 467.7 105 360 C 105 252.3 192.3 165 300 165 Z" fill="none" stroke="hsl(63 55% 38%)" stroke-width="1.6" stroke-linejoin="round"/><path d="M 485.46 412.98 C 489.48 412.98 492.74 416.24 492.74 420.26 C 492.74 424.28 489.48 427.54 485.46 427.54 C 481.44 427.54 478.18 424.28 478.18 420.26 C 478.18 416.24 481.44 412.98 485.46 412.98 Z" fill="none" stroke="hsl(63 55% 38%)" stroke-width="1.6" stroke-linejoin="round"/><path d="M 414.62 510.48 C 418.64 510.48 421.9 513.74 421.9 517.76 C 421.9 521.78 418.64 525.04 414.62 525.04 C 410.6 525.04 407.34 521.78 407.34 517.76 C 407.34 513.74 410.6 510.48 414.62 510.48 Z" fill="none" stroke="hsl(63 55% 38%)" stroke-width="1.6" stroke-linejoin="round"/><path d="M 300 547.72 C 304.02 547.72 307.28 550.98 307.28 555 C 307.28 559.02 304.02 562.28 300 562.28 C 295.98 562.28 292.72 559.02 292.72 555 C 292.72 550.98 295.98 547.72 300 547.72 Z" fill="none" stroke="hsl(63 55% 38%)" stroke-width="1.6" stroke-linejoin="round"/><path d="M 185.38 510.48 C 189.4 510.48 192.66 513.74 192.66 517.76 C 192.66 521.78 189.4 525.04 185.38 525.04 C 181.36 525.04 178.1 521.78 178.1 517.76 C 178.1 513.74 181.36 510.48 185.38 510.48 Z" fill="none" stroke="hsl(63 55% 38%)" stroke-width="1.6" stroke-linejoin="round"/><path d="M 114.54 412.98 C 118.56 412.98 121.82 416.24 121.82 420.26 C 121.82 424.28 118.56 427.54 114.54 427.54 C 110.52 427.54 107.26 424.28 107.26 420.26 C 107.26 416.24 110.52 412.98 114.54 412.98 Z" fill="none" stroke="hsl(63 55% 38%)" stroke-width="1.6" stroke-linejoin="round"/><path d="M 114.54 292.46 C 118.56 292.46 121.82 295.72 121.82 299.74 C 121.82 303.76 118.56 307.02 114.54 307.02 C 110.52 307.02 107.26 303.76 107.26 299.74 C 107.26 295.72 110.52 292.46 114.54 292.46 Z" fill="none" stroke="hsl(63 55% 38%)" stroke-width="1.6" stroke-linejoin="round"/><path d="M 185.38 194.96 C 189.4 194.96 192.66 198.22 192.66 202.24 C 192.66 206.26 189.4 209.52 185.38 209.52 C 181.36 209.52 178.1 206.26 178.1 202.24 C 178.1 198.22 181.36 194.96 185.38 194.96 Z" fill="none" stroke="hsl(63 55% 38%)" stroke-width="1.6" stroke-linejoin="round"/><path d="M 300 157.72 C 304.02 157.72 307.28 160.98 307.28 165 C 307.28 169.02 304.02 172.28 300 172.28 C 295.98 172.28 292.72 169.02 292.72 165 C 292.72 160.98 295.98 157.72 300 157.72 Z" fill="none" stroke="hsl(63 55% 38%)" stroke-width="1.6" stroke-linejoin="round"/><path d="M 414.62 194.96 C 418.64 194.96 421.9 198.22 421.9 202.24 C 421.9 206.26 418.64 209.52 414.62 209.52 C 410.6 209.52 407.34 206.26 407.34 202.24 C 407.34 198.22 410.6 194.96 414.62 194.96 Z" fill="none" stroke="hsl(63 55% 38%)" stroke-width="1.6" stroke-linejoin="round"/><path d="M 485.46 292.46 C 489.48 292.46 492.74 295.72 492.74 299.74 C 492.74 303.76 489.48 307.02 485.46 307.02 C 481.44 307.02 478.18 303.76 478.18 299.74 C 478.18 295.72 481.44 292.46 485.46 292.46 Z" fill="none" stroke="hsl(63 55% 38%)" stroke-width="1.6" stroke-linejoin="round"/><path d="M 300 165 C 407.7 165 495 252.3 495 360 C 495 467.7 407.7 555 300 555 C 192.3 555 105 467.7 105 360 C 105 252.3 192.3 165 300 165 Z" fill="none" stroke="hsl(63 55% 38%)" stroke-width="1.6" stroke-linejoin="round"/></g>
  <g transform="translate(300,640)">
    <rect x="-110" y="-26" width="220" height="34" rx="17" fill="#ffffff" opacity="0.8"/>
    <text x="0" y="-3" text-anchor="middle" font-family="Quicksand, Arial, sans-serif" font-size="16" font-weight="600" fill="hsl(63 55% 38%)">🐶 Hunde</text>
  </g>
  <text x="300" y="700" text-anchor="middle" font-family="Quicksand, Arial, sans-serif" font-size="40" font-weight="700" fill="#2b2540"><tspan x="300" dy="0">Hunde – Vol. 1</tspan></text>
  <text x="300" y="772" text-anchor="middle" font-family="Arial, sans-serif" font-size="15" fill="#5b5470">Malbuch · 24 Seiten</text>
</svg>