<svg xmlns="http://www.w3.org/2000/svg" viewBox="0 0 600 800" width="600" height="800">
  <defs>
    <linearGradient id="bg" x1="0" y1="0" x2="0" y2="1">
      <stop offset="0" stop-color="hsl(264 70% 95%)"/><stop offset="1" stop-color="hsl(304 70% 92%)"/>
    </linearGradient>
  </defs>
  <rect width="600" height="800" fill="url(#bg)"/>
  <rect x="22" y="22" width="556" height="756" rx="28" fill="none" stroke="hsl(264 55% 38%)" stroke-width="2" opacity="0.5"/>
  <text x="300" y="74" text-anchor="middle" font-family="Quicksand, Arial, sans-serif" font-size="26" font-weight="700" fill="hsl(264 55% 38%)">&#10022; Coloreo</text>
  <g transform="translate(0,40)"><path d="M 323.4 360 Q 335.17 372.84 349.14 360 Q 335.17 347.16 323.4 360 Z" fill="none" stroke="hsl(264 55% 38%)" stroke-width="1.6" stroke-linejoin="round"/><path d="M 320.26 371.7 Q 324.04 388.7 342.56 384.57 Q 336.88 366.47 320.26 371.7 Z" fill="none" stroke="hsl(264 55% 38%)" stroke-width="1.6" stroke-linejoin="round"/><path d="M 311.7 380.26 Q 306.47 396.88 324.57 402.56 Q 328.7 384.04 311.7 380.26 Z" fill="none" stroke="hsl(264 55% 38%)" stroke-width="1.6" stroke-linejoin="round"/><path d="M 300 383.4 Q 287.16 395.17 300 409.14 Q 312.84 395.17 300 383.4 Z" fill="none" stroke="hsl(264 55% 38%)" stroke-width="1.6" stroke-linejoin="round"/><path d="M 288.3 380.26 Q 271.3 384.04 275.43 402.56 Q 293.53 396.88 288.3 380.26 Z" fill="none" stroke="hsl(264 55% 38%)" stroke-width="1.6" stroke-linejoin="round"/><path d="M 279.74 371.7 Q 263.12 366.47 257.44 384.57 Q 275.96 388.7 279.74 371.7 Z" fill="none" stroke="hsl(264 55% 38%)" stroke-width="1.6" stroke-linejoin="round"/><path d="M 276.6 360 Q 264.83 347.16 250.86 360 Q 264.83 372.84 276.6 360 Z" fill="none" stroke="hsl(264 55% 38%)" stroke-width="1.6" stroke-linejoin="round"/><path d="M 279.74 348.3 Q 275.96 331.3 257.44 335.43 Q 263.12 353.53 279.74 348.3 Z" fill="none" stroke="hsl(264 55% 38%)" stroke-width="1.6" stroke-linejoin="round"/><path d="M 288.3 339.74 Q 293.53 323.12 275.43 317.44 Q 271.3 335.96 288.3 339.74 Z" fill="none" stroke="hsl(264 55% 38%)" stroke-width="1.6" stroke-linejoin="round"/><path d="M 300 336.6 Q 312.84 324.83 300 310.86 Q 287.16 324.83 300 336.6 Z" fill="none" stroke="hsl(264 55% 38%)" stroke-width="1.6" stroke-linejoin="round"/><path d="M 311.7 339.74 Q 328.7 335.96 324.57 317.44 Q 306.47 323.12 311.7 339.74 Z" fill="none" stroke="hsl(264 55% 38%)" stroke-width="1.6" stroke-linejoin="round"/><path d="M 320.26 348.3 Q 336.88 353.53 342.56 335.43 Q 324.04 331.3 320.26 348.3 Z" fill="none" stroke="hsl(264 55% 38%)" stroke-width="1.6" stroke-linejoin="round"/><path d="M 300 345.96 C 307.75 345.96 314.04 352.25 314.04 360 C 314.04 367.75 307.75 374.04 300 374.04 C 292.25 374.04 285.96 367.75 285.96 360 C 285.96 352.25 292.25 345.96 300 345.96 Z" fill="none" stroke="hsl(264 55% 38%)" stroke-width="1.6" stroke-linejoin="round"/><path d="M 300 262.5 C 353.85 262.5 397.5 306.15 397.5 360 C 397.5 413.85 353.85 457.5 300 457.5 C 246.15 457.5 202.5 413.85 202.5 360 C 202.5 306.15 246.15 262.5 300 262.5 Z" fill="none" stroke="hsl(264 55% 38%)" stroke-width="1.6" stroke-linejoin="round"/><path d="M 394.18 385.23 L 420.55 392.3" fill="none" stroke="hsl(264 55% 38%)" stroke-width="1.6" stroke-linejoin="round"/><path d="M 368.94 428.94 L 388.25 448.25" fill="none" stroke="hsl(264 55% 38%)" stroke-width="1.6" stroke-linejoin="round"/><path d="M 325.23 454.18 L 332.3 480.55" fill="none" stroke="hsl(264 55% 38%)" stroke-width="1.6" stroke-linejoin="round"/><path d="M 274.77 454.18 L 267.7 480.55" fill="none" stroke="hsl(264 55% 38%)" stroke-width="1.6" stroke-linejoin="round"/><path d="M 231.06 428.94 L 211.75 448.25" fill="none" stroke="hsl(264 55% 38%)" stroke-width="1.6" stroke-linejoin="round"/><path d="M 205.82 385.23 L 179.45 392.3" fill="none" stroke="hsl(264 55% 38%)" stroke-width="1.6" stroke-linejoin="round"/><path d="M 205.82 334.77 L 179.45 327.7" fill="none" stroke="hsl(264 55% 38%)" stroke-width="1.6" stroke-linejoin="round"/><path d="M 231.06 291.06 L 211.75 271.75" fill="none" stroke="hsl(264 55% 38%)" stroke-width="1.6" stroke-linejoin="round"/><path d="M 274.77 265.82 L 267.7 239.45" fill="none" stroke="hsl(264 55% 38%)" stroke-width="1.6" stroke-linejoin="round"/><path d="M 325.23 265.82 L 332.3 239.45" fill="none" stroke="hsl(264 55% 38%)" stroke-width="1.6" stroke-linejoin="round"/><path d="M 368.94 291.06 L 388.25 271.75" fill="none" stroke="hsl(264 55% 38%)" stroke-width="1.6" stroke-linejoin="round"/><path d="M 394.18 334.77 L 420.55 327.7" fill="none" stroke="hsl(264 55% 38%)" stroke-width="1.6" stroke-linejoin="round"/><path d="M 300 213.75 C 380.77 213.75 446.25 279.23 446.25 360 C 446.25 440.77 380.77 506.25 300 506.25 C 219.23 506.25 153.75 440.77 153.75 360 C 153.75 279.23 219.23 213.75 300 213.75 Z" fill="none" stroke="hsl(264 55% 38%)" stroke-width="1.6" stroke-linejoin="round"/><path d="M 446.25 360 Q 463.07 389.67 485.25 360 Q 463.07 330.33 446.25 360 Z" fill="none" stroke="hsl(264 55% 38%)" stroke-width="1.6" stroke-linejoin="round"/><path d="M 441.27 397.85 Q 449.84 430.87 478.94 407.95 Q 465.2 373.54 441.27 397.85 Z" fill="none" stroke="hsl(264 55% 38%)" stroke-width="1.6" stroke-linejoin="round"/><path d="M 426.66 433.13 Q 426.39 467.23 460.43 452.63 Q 456.06 415.84 426.66 433.13 Z" fill="none" stroke="hsl(264 55% 38%)" stroke-width="1.6" stroke-linejoin="round"/><path d="M 403.41 463.41 Q 394.33 496.29 430.99 490.99 Q 436.29 454.33 403.41 463.41 Z" fill="none" stroke="hsl(264 55% 38%)" stroke-width="1.6" stroke-linejoin="round"/><path d="M 373.13 486.66 Q 355.84 516.06 392.63 520.43 Q 407.23 486.39 373.13 486.66 Z" fill="none" stroke="hsl(264 55% 38%)" stroke-width="1.6" stroke-linejoin="round"/><path d="M 337.85 501.27 Q 313.54 525.2 347.95 538.94 Q 370.87 509.84 337.85 501.27 Z" fill="none" stroke="hsl(264 55% 38%)" stroke-width="1.6" stroke-linejoin="round"/><path d="M 300 506.25 Q 270.33 523.07 300 545.25 Q 329.67 523.07 300 506.25 Z" fill="none" stroke="hsl(264 55% 38%)" stroke-width="1.6" stroke-linejoin="round"/><path d="M 262.15 501.27 Q 229.13 509.84 252.05 538.94 Q 286.46 525.2 262.15 501.27 Z" fill="none" stroke="hsl(264 55% 38%)" stroke-width="1.6" stroke-linejoin="round"/><path d="M 226.88 486.66 Q 192.77 486.39 207.38 520.43 Q 244.16 516.06 226.88 486.66 Z" fill="none" stroke="hsl(264 55% 38%)" stroke-width="1.6" stroke-linejoin="round"/><path d="M 196.59 463.41 Q 163.71 454.33 169.01 490.99 Q 205.67 496.29 196.59 463.41 Z" fill="none" stroke="hsl(264 55% 38%)" stroke-width="1.6" stroke-linejoin="round"/><path d="M 173.34 433.13 Q 143.94 415.84 139.57 452.63 Q 173.61 467.23 173.34 433.13 Z" fill="none" stroke="hsl(264 55% 38%)" stroke-width="1.6" stroke-linejoin="round"/><path d="M 158.73 397.85 Q 134.8 373.54 121.06 407.95 Q 150.16 430.87 158.73 397.85 Z" fill="none" stroke="hsl(264 55% 38%)" stroke-width="1.6" stroke-linejoin="round"/><path d="M 153.75 360 Q 136.93 330.33 114.75 360 Q 136.93 389.67 153.75 360 Z" fill="none" stroke="hsl(264 55% 38%)" stroke-width="1.6" stroke-linejoin="round"/><path d="M 158.73 322.15 Q 150.16 289.13 121.06 312.05 Q 134.8 346.46 158.73 322.15 Z" fill="none" stroke="hsl(264 55% 38%)" stroke-width="1.6" stroke-linejoin="round"/><path d="M 173.34 286.88 Q 173.61 252.77 139.57 267.38 Q 143.94 304.16 173.34 286.88 Z" fill="none" stroke="hsl(264 55% 38%)" stroke-width="1.6" stroke-linejoin="round"/><path d="M 196.59 256.59 Q 205.67 223.71 169.01 229.01 Q 163.71 265.67 196.59 256.59 Z" fill="none" stroke="hsl(264 55% 38%)" stroke-width="1.6" stroke-linejoin="round"/><path d="M 226.87 233.34 Q 244.16 203.94 207.37 199.57 Q 192.77 233.61 226.87 233.34 Z" fill="none" stroke="hsl(264 55% 38%)" stroke-width="1.6" stroke-linejoin="round"/><path d="M 262.15 218.73 Q 286.46 194.8 252.05 181.06 Q 229.13 210.16 262.15 218.73 Z" fill="none" stroke="hsl(264 55% 38%)" stroke-width="1.6" stroke-linejoin="round"/><path d="M 300 213.75 Q 329.67 196.93 300 174.75 Q 270.33 196.93 300 213.75 Z" fill="none" stroke="hsl(264 55% 38%)" stroke-width="1.6" stroke-linejoin="round"/><path d="M 337.85 218.73 Q 370.87 210.16 347.95 181.06 Q 313.54 194.8 337.85 218.73 Z" fill="none" stroke="hsl(264 55% 38%)" stroke-width="1.6" stroke-linejoin="round"/><path d="M 373.13 233.34 Q 407.23 233.61 392.63 199.57 Q 355.84 203.94 373.13 233.34 Z" fill="none" stroke="hsl(264 55% 38%)" stroke-width="1.6" stroke-linejoin="round"/><path d="M 403.41 256.59 Q 436.29 265.67 430.99 229.01 Q 394.33 223.71 403.41 256.59 Z" fill="none" stroke="hsl(264 55% 38%)" stroke-width="1.6" stroke-linejoin="round"/><path d="M 426.66 286.87 Q 456.06 304.16 460.43 267.37 Q 426.39 252.77 426.66 286.87 Z" fill="none" stroke="hsl(264 55% 38%)" stroke-width="1.6" stroke-linejoin="round"/><path d="M 441.27 322.15 Q 465.2 346.46 478.94 312.05 Q 449.84 289.13 441.27 322.15 Z" fill="none" stroke="hsl(264 55% 38%)" stroke-width="1.6" stroke-linejoin="round"/><path d="M 300 165 C 407.7 165 495 252.3 495 360 C 495 467.7 407.7 555 300 555 C 192.3 555 105 467.7 105 360 C 105 252.3 192.3 165 300 165 Z" fill="none" stroke="hsl(264 55% 38%)" stroke-width="1.6" stroke-linejoin="round"/><path d="M 488.36 399.55 C 494.39 399.55 499.28 404.44 499.28 410.47 C 499.28 416.5 494.39 421.39 488.36 421.39 C 482.32 421.39 477.44 416.5 477.44 410.47 C 477.44 404.44 482.32 399.55 488.36 399.55 Z" fill="none" stroke="hsl(264 55% 38%)" stroke-width="1.6" stroke-linejoin="round"/><path d="M 437.89 486.97 C 443.92 486.97 448.81 491.85 448.81 497.89 C 448.81 503.92 443.92 508.81 437.89 508.81 C 431.85 508.81 426.97 503.92 426.97 497.89 C 426.97 491.85 431.85 486.97 437.89 486.97 Z" fill="none" stroke="hsl(264 55% 38%)" stroke-width="1.6" stroke-linejoin="round"/><path d="M 350.47 537.44 C 356.5 537.44 361.39 542.32 361.39 548.36 C 361.39 554.39 356.5 559.28 350.47 559.28 C 344.44 559.28 339.55 554.39 339.55 548.36 C 339.55 542.32 344.44 537.44 350.47 537.44 Z" fill="none" stroke="hsl(264 55% 38%)" stroke-width="1.6" stroke-linejoin="round"/><path d="M 249.53 537.44 C 255.56 537.44 260.45 542.32 260.45 548.36 C 260.45 554.39 255.56 559.28 249.53 559.28 C 243.5 559.28 238.61 554.39 238.61 548.36 C 238.61 542.32 243.5 537.44 249.53 537.44 Z" fill="none" stroke="hsl(264 55% 38%)" stroke-width="1.6" stroke-linejoin="round"/><path d="M 162.11 486.97 C 168.15 486.97 173.03 491.85 173.03 497.89 C 173.03 503.92 168.15 508.81 162.11 508.81 C 156.08 508.81 151.19 503.92 151.19 497.89 C 151.19 491.85 156.08 486.97 162.11 486.97 Z" fill="none" stroke="hsl(264 55% 38%)" stroke-width="1.6" stroke-linejoin="round"/><path d="M 111.64 399.55 C 117.68 399.55 122.56 404.44 122.56 410.47 C 122.56 416.5 117.68 421.39 111.64 421.39 C 105.61 421.39 100.72 416.5 100.72 410.47 C 100.72 404.44 105.61 399.55 111.64 399.55 Z" fill="none" stroke="hsl(264 55% 38%)" stroke-width="1.6" stroke-linejoin="round"/><path d="M 111.64 298.61 C 117.68 298.61 122.56 303.5 122.56 309.53 C 122.56 315.56 117.68 320.45 111.64 320.45 C 105.61 320.45 100.72 315.56 100.72 309.53 C 100.72 303.5 105.61 298.61 111.64 298.61 Z" fill="none" stroke="hsl(264 55% 38%)" stroke-width="1.6" stroke-linejoin="round"/><path d="M 162.11 211.19 C 168.15 211.19 173.03 216.08 173.03 222.11 C 173.03 228.15 168.15 233.03 162.11 233.03 C 156.08 233.03 151.19 228.15 151.19 222.11 C 151.19 216.08 156.08 211.19 162.11 211.19 Z" fill="none" stroke="hsl(264 55% 38%)" stroke-width="1.6" stroke-linejoin="round"/><path d="M 249.53 160.72 C 255.56 160.72 260.45 165.61 260.45 171.64 C 260.45 177.68 255.56 182.56 249.53 182.56 C 243.5 182.56 238.61 177.68 238.61 171.64 C 238.61 165.61 243.5 160.72 249.53 160.72 Z" fill="none" stroke="hsl(264 55% 38%)" stroke-width="1.6" stroke-linejoin="round"/><path d="M 350.47 160.72 C 356.5 160.72 361.39 165.61 361.39 171.64 C 361.39 177.68 356.5 182.56 350.47 182.56 C 344.44 182.56 339.55 177.68 339.55 171.64 C 339.55 165.61 344.44 160.72 350.47 160.72 Z" fill="none" stroke="hsl(264 55% 38%)" stroke-width="1.6" stroke-linejoin="round"/><path d="M 437.89 211.19 C 443.92 211.19 448.81 216.08 448.81 222.11 C 448.81 228.15 443.92 233.03 437.89 233.03 C 431.85 233.03 426.97 228.15 426.97 222.11 C 426.97 216.08 431.85 211.19 437.89 211.19 Z" fill="none" stroke="hsl(264 55% 38%)" stroke-width="1.6" stroke-linejoin="round"/><path d="M 488.36 298.61 C 494.39 298.61 499.28 303.5 499.28 309.53 C 499.28 315.56 494.39 320.45 488.36 320.45 C 482.32 320.45 477.44 315.56 477.44 309.53 C 477.44 303.5 482.32 298.61 488.36 298.61 Z" fill="none" stroke="hsl(264 55% 38%)" stroke-width="1.6" stroke-linejoin="round"/><path d="M 300 165 C 407.7 165 495 252.3 495 360 C 495 467.7 407.7 555 300 555 C 192.3 555 105 467.7 105 360 C 105 252.3 192.3 165 300 165 Z" fill="none" stroke="hsl(264 55% 38%)" stroke-width="1.6" stroke-linejoin="round"/></g>
  <g transform="translate(300,640)">
    <rect x="-110" y="-26" width="220" height="34" rx="17" fill="#ffffff" opacity="0.8"/>
    <text x="0" y="-3" text-anchor="middle" font-family="Quicksand, Arial, sans-serif" font-size="16" font-weight="600" fill="hsl(264 55% 38%)">🎄 Jahreszeiten &amp; Feste</text>
  </g>
  <text x="300" y="700" text-anchor="middle" font-family="Quicksand, Arial, sans-serif" font-size="40" font-weight="700" fill="#2b2540"><tspan x="300" dy="0">Jahreszeiten &amp;</tspan><tspan x="300" dy="44">Feste – Vol. 2</tspan></text>
  <text x="300" y="772" text-anchor="middle" font-family="Arial, sans-serif" font-size="15" fill="#5b5470">Malbuch · 24 Seiten</text>
</svg>