<svg xmlns="http://www.w3.org/2000/svg" viewBox="0 0 600 800" width="600" height="800">
  <defs>
    <linearGradient id="bg" x1="0" y1="0" x2="0" y2="1">
      <stop offset="0" stop-color="hsl(20 70% 95%)"/><stop offset="1" stop-color="hsl(60 70% 92%)"/>
    </linearGradient>
  </defs>
  <rect width="600" height="800" fill="url(#bg)"/>
  <rect x="22" y="22" width="556" height="756" rx="28" fill="none" stroke="hsl(20 55% 38%)" stroke-width="2" opacity="0.5"/>
  <text x="300" y="74" text-anchor="middle" font-family="Quicksand, Arial, sans-serif" font-size="26" font-weight="700" fill="hsl(20 55% 38%)">&#10022; Coloreo</text>
  <g transform="translate(0,40)"><path d="M 323.4 360 Q 335.17 372.84 349.14 360 Q 335.17 347.16 323.4 360 Z" fill="none" stroke="hsl(20 55% 38%)" stroke-width="1.6" stroke-linejoin="round"/><path d="M 321.62 368.95 Q 327.58 385.32 345.4 378.81 Q 337.41 361.6 321.62 368.95 Z" fill="none" stroke="hsl(20 55% 38%)" stroke-width="1.6" stroke-linejoin="round"/><path d="M 316.55 376.55 Q 315.79 393.95 334.75 394.75 Q 333.95 375.79 316.55 376.55 Z" fill="none" stroke="hsl(20 55% 38%)" stroke-width="1.6" stroke-linejoin="round"/><path d="M 308.95 381.62 Q 301.6 397.41 318.81 405.4 Q 325.32 387.58 308.95 381.62 Z" fill="none" stroke="hsl(20 55% 38%)" stroke-width="1.6" stroke-linejoin="round"/><path d="M 300 383.4 Q 287.16 395.17 300 409.14 Q 312.84 395.17 300 383.4 Z" fill="none" stroke="hsl(20 55% 38%)" stroke-width="1.6" stroke-linejoin="round"/><path d="M 291.05 381.62 Q 274.68 387.58 281.19 405.4 Q 298.4 397.41 291.05 381.62 Z" fill="none" stroke="hsl(20 55% 38%)" stroke-width="1.6" stroke-linejoin="round"/><path d="M 283.45 376.55 Q 266.05 375.79 265.25 394.75 Q 284.21 393.95 283.45 376.55 Z" fill="none" stroke="hsl(20 55% 38%)" stroke-width="1.6" stroke-linejoin="round"/><path d="M 278.38 368.95 Q 262.59 361.6 254.6 378.81 Q 272.42 385.32 278.38 368.95 Z" fill="none" stroke="hsl(20 55% 38%)" stroke-width="1.6" stroke-linejoin="round"/><path d="M 276.6 360 Q 264.83 347.16 250.86 360 Q 264.83 372.84 276.6 360 Z" fill="none" stroke="hsl(20 55% 38%)" stroke-width="1.6" stroke-linejoin="round"/><path d="M 278.38 351.05 Q 272.42 334.68 254.6 341.19 Q 262.59 358.4 278.38 351.05 Z" fill="none" stroke="hsl(20 55% 38%)" stroke-width="1.6" stroke-linejoin="round"/><path d="M 283.45 343.45 Q 284.21 326.05 265.25 325.25 Q 266.05 344.21 283.45 343.45 Z" fill="none" stroke="hsl(20 55% 38%)" stroke-width="1.6" stroke-linejoin="round"/><path d="M 291.05 338.38 Q 298.4 322.59 281.19 314.6 Q 274.68 332.42 291.05 338.38 Z" fill="none" stroke="hsl(20 55% 38%)" stroke-width="1.6" stroke-linejoin="round"/><path d="M 300 336.6 Q 312.84 324.83 300 310.86 Q 287.16 324.83 300 336.6 Z" fill="none" stroke="hsl(20 55% 38%)" stroke-width="1.6" stroke-linejoin="round"/><path d="M 308.95 338.38 Q 325.32 332.42 318.81 314.6 Q 301.6 322.59 308.95 338.38 Z" fill="none" stroke="hsl(20 55% 38%)" stroke-width="1.6" stroke-linejoin="round"/><path d="M 316.55 343.45 Q 333.95 344.21 334.75 325.25 Q 315.79 326.05 316.55 343.45 Z" fill="none" stroke="hsl(20 55% 38%)" stroke-width="1.6" stroke-linejoin="round"/><path d="M 321.62 351.05 Q 337.41 358.4 345.4 341.19 Q 327.58 334.68 321.62 351.05 Z" fill="none" stroke="hsl(20 55% 38%)" stroke-width="1.6" stroke-linejoin="round"/><path d="M 300 345.96 C 307.75 345.96 314.04 352.25 314.04 360 C 314.04 367.75 307.75 374.04 300 374.04 C 292.25 374.04 285.96 367.75 285.96 360 C 285.96 352.25 292.25 345.96 300 345.96 Z" fill="none" stroke="hsl(20 55% 38%)" stroke-width="1.6" stroke-linejoin="round"/><path d="M 300 295 C 335.9 295 365 324.1 365 360 C 365 395.9 335.9 425 300 425 C 264.1 425 235 395.9 235 360 C 235 324.1 264.1 295 300 295 Z" fill="none" stroke="hsl(20 55% 38%)" stroke-width="1.6" stroke-linejoin="round"/><path d="M 363.75 365.4 C 367.77 365.4 371.03 368.66 371.03 372.68 C 371.03 376.7 367.77 379.96 363.75 379.96 C 359.73 379.96 356.47 376.7 356.47 372.68 C 356.47 368.66 359.73 365.4 363.75 365.4 Z" fill="none" stroke="hsl(20 55% 38%)" stroke-width="1.6" stroke-linejoin="round"/><path d="M 354.05 388.83 C 358.07 388.83 361.33 392.09 361.33 396.11 C 361.33 400.13 358.07 403.39 354.05 403.39 C 350.02 403.39 346.77 400.13 346.77 396.11 C 346.77 392.09 350.02 388.83 354.05 388.83 Z" fill="none" stroke="hsl(20 55% 38%)" stroke-width="1.6" stroke-linejoin="round"/><path d="M 336.11 406.77 C 340.13 406.77 343.39 410.02 343.39 414.05 C 343.39 418.07 340.13 421.33 336.11 421.33 C 332.09 421.33 328.83 418.07 328.83 414.05 C 328.83 410.02 332.09 406.77 336.11 406.77 Z" fill="none" stroke="hsl(20 55% 38%)" stroke-width="1.6" stroke-linejoin="round"/><path d="M 312.68 416.47 C 316.7 416.47 319.96 419.73 319.96 423.75 C 319.96 427.77 316.7 431.03 312.68 431.03 C 308.66 431.03 305.4 427.77 305.4 423.75 C 305.4 419.73 308.66 416.47 312.68 416.47 Z" fill="none" stroke="hsl(20 55% 38%)" stroke-width="1.6" stroke-linejoin="round"/><path d="M 287.32 416.47 C 291.34 416.47 294.6 419.73 294.6 423.75 C 294.6 427.77 291.34 431.03 287.32 431.03 C 283.3 431.03 280.04 427.77 280.04 423.75 C 280.04 419.73 283.3 416.47 287.32 416.47 Z" fill="none" stroke="hsl(20 55% 38%)" stroke-width="1.6" stroke-linejoin="round"/><path d="M 263.89 406.77 C 267.91 406.77 271.17 410.02 271.17 414.05 C 271.17 418.07 267.91 421.33 263.89 421.33 C 259.87 421.33 256.61 418.07 256.61 414.05 C 256.61 410.02 259.87 406.77 263.89 406.77 Z" fill="none" stroke="hsl(20 55% 38%)" stroke-width="1.6" stroke-linejoin="round"/><path d="M 245.95 388.83 C 249.98 388.83 253.23 392.09 253.23 396.11 C 253.23 400.13 249.98 403.39 245.95 403.39 C 241.93 403.39 238.67 400.13 238.67 396.11 C 238.67 392.09 241.93 388.83 245.95 388.83 Z" fill="none" stroke="hsl(20 55% 38%)" stroke-width="1.6" stroke-linejoin="round"/><path d="M 236.25 365.4 C 240.27 365.4 243.53 368.66 243.53 372.68 C 243.53 376.7 240.27 379.96 236.25 379.96 C 232.23 379.96 228.97 376.7 228.97 372.68 C 228.97 368.66 232.23 365.4 236.25 365.4 Z" fill="none" stroke="hsl(20 55% 38%)" stroke-width="1.6" stroke-linejoin="round"/><path d="M 236.25 340.04 C 240.27 340.04 243.53 343.3 243.53 347.32 C 243.53 351.34 240.27 354.6 236.25 354.6 C 232.23 354.6 228.97 351.34 228.97 347.32 C 228.97 343.3 232.23 340.04 236.25 340.04 Z" fill="none" stroke="hsl(20 55% 38%)" stroke-width="1.6" stroke-linejoin="round"/><path d="M 245.95 316.61 C 249.98 316.61 253.23 319.87 253.23 323.89 C 253.23 327.91 249.98 331.17 245.95 331.17 C 241.93 331.17 238.67 327.91 238.67 323.89 C 238.67 319.87 241.93 316.61 245.95 316.61 Z" fill="none" stroke="hsl(20 55% 38%)" stroke-width="1.6" stroke-linejoin="round"/><path d="M 263.89 298.67 C 267.91 298.67 271.17 301.93 271.17 305.95 C 271.17 309.98 267.91 313.23 263.89 313.23 C 259.87 313.23 256.61 309.98 256.61 305.95 C 256.61 301.93 259.87 298.67 263.89 298.67 Z" fill="none" stroke="hsl(20 55% 38%)" stroke-width="1.6" stroke-linejoin="round"/><path d="M 287.32 288.97 C 291.34 288.97 294.6 292.23 294.6 296.25 C 294.6 300.27 291.34 303.53 287.32 303.53 C 283.3 303.53 280.04 300.27 280.04 296.25 C 280.04 292.23 283.3 288.97 287.32 288.97 Z" fill="none" stroke="hsl(20 55% 38%)" stroke-width="1.6" stroke-linejoin="round"/><path d="M 312.68 288.97 C 316.7 288.97 319.96 292.23 319.96 296.25 C 319.96 300.27 316.7 303.53 312.68 303.53 C 308.66 303.53 305.4 300.27 305.4 296.25 C 305.4 292.23 308.66 288.97 312.68 288.97 Z" fill="none" stroke="hsl(20 55% 38%)" stroke-width="1.6" stroke-linejoin="round"/><path d="M 336.11 298.67 C 340.13 298.67 343.39 301.93 343.39 305.95 C 343.39 309.98 340.13 313.23 336.11 313.23 C 332.09 313.23 328.83 309.98 328.83 305.95 C 328.83 301.93 332.09 298.67 336.11 298.67 Z" fill="none" stroke="hsl(20 55% 38%)" stroke-width="1.6" stroke-linejoin="round"/><path d="M 354.05 316.61 C 358.07 316.61 361.33 319.87 361.33 323.89 C 361.33 327.91 358.07 331.17 354.05 331.17 C 350.02 331.17 346.77 327.91 346.77 323.89 C 346.77 319.87 350.02 316.61 354.05 316.61 Z" fill="none" stroke="hsl(20 55% 38%)" stroke-width="1.6" stroke-linejoin="round"/><path d="M 363.75 340.04 C 367.77 340.04 371.03 343.3 371.03 347.32 C 371.03 351.34 367.77 354.6 363.75 354.6 C 359.73 354.6 356.47 351.34 356.47 347.32 C 356.47 343.3 359.73 340.04 363.75 340.04 Z" fill="none" stroke="hsl(20 55% 38%)" stroke-width="1.6" stroke-linejoin="round"/><path d="M 300 262.5 C 353.85 262.5 397.5 306.15 397.5 360 C 397.5 413.85 353.85 457.5 300 457.5 C 246.15 457.5 202.5 413.85 202.5 360 C 202.5 306.15 246.15 262.5 300 262.5 Z" fill="none" stroke="hsl(20 55% 38%)" stroke-width="1.6" stroke-linejoin="round"/><path d="M 397.5 360 Q 408.71 379.78 423.5 360 Q 408.71 340.22 397.5 360 Z" fill="none" stroke="hsl(20 55% 38%)" stroke-width="1.6" stroke-linejoin="round"/><path d="M 395.63 379.02 Q 402.77 400.61 421.13 384.09 Q 410.49 361.81 395.63 379.02 Z" fill="none" stroke="hsl(20 55% 38%)" stroke-width="1.6" stroke-linejoin="round"/><path d="M 390.08 397.31 Q 392.87 419.88 414.1 407.26 Q 408.01 383.33 390.08 397.31 Z" fill="none" stroke="hsl(20 55% 38%)" stroke-width="1.6" stroke-linejoin="round"/><path d="M 381.07 414.17 Q 379.4 436.85 402.69 428.61 Q 401.38 403.95 381.07 414.17 Z" fill="none" stroke="hsl(20 55% 38%)" stroke-width="1.6" stroke-linejoin="round"/><path d="M 368.94 428.94 Q 362.88 450.86 387.33 447.33 Q 390.86 422.88 368.94 428.94 Z" fill="none" stroke="hsl(20 55% 38%)" stroke-width="1.6" stroke-linejoin="round"/><path d="M 354.17 441.07 Q 343.95 461.38 368.61 462.69 Q 376.85 439.4 354.17 441.07 Z" fill="none" stroke="hsl(20 55% 38%)" stroke-width="1.6" stroke-linejoin="round"/><path d="M 337.31 450.08 Q 323.33 468.01 347.26 474.1 Q 359.88 452.87 337.31 450.08 Z" fill="none" stroke="hsl(20 55% 38%)" stroke-width="1.6" stroke-linejoin="round"/><path d="M 319.02 455.63 Q 301.81 470.49 324.09 481.13 Q 340.61 462.77 319.02 455.63 Z" fill="none" stroke="hsl(20 55% 38%)" stroke-width="1.6" stroke-linejoin="round"/><path d="M 300 457.5 Q 280.22 468.71 300 483.5 Q 319.78 468.71 300 457.5 Z" fill="none" stroke="hsl(20 55% 38%)" stroke-width="1.6" stroke-linejoin="round"/><path d="M 280.98 455.63 Q 259.39 462.77 275.91 481.13 Q 298.19 470.49 280.98 455.63 Z" fill="none" stroke="hsl(20 55% 38%)" stroke-width="1.6" stroke-linejoin="round"/><path d="M 262.69 450.08 Q 240.12 452.87 252.74 474.1 Q 276.67 468.01 262.69 450.08 Z" fill="none" stroke="hsl(20 55% 38%)" stroke-width="1.6" stroke-linejoin="round"/><path d="M 245.83 441.07 Q 223.15 439.4 231.39 462.69 Q 256.05 461.38 245.83 441.07 Z" fill="none" stroke="hsl(20 55% 38%)" stroke-width="1.6" stroke-linejoin="round"/><path d="M 231.06 428.94 Q 209.14 422.88 212.67 447.33 Q 237.12 450.86 231.06 428.94 Z" fill="none" stroke="hsl(20 55% 38%)" stroke-width="1.6" stroke-linejoin="round"/><path d="M 218.93 414.17 Q 198.62 403.95 197.31 428.61 Q 220.6 436.85 218.93 414.17 Z" fill="none" stroke="hsl(20 55% 38%)" stroke-width="1.6" stroke-linejoin="round"/><path d="M 209.92 397.31 Q 191.99 383.33 185.9 407.26 Q 207.13 419.88 209.92 397.31 Z" fill="none" stroke="hsl(20 55% 38%)" stroke-width="1.6" stroke-linejoin="round"/><path d="M 204.37 379.02 Q 189.51 361.81 178.87 384.09 Q 197.23 400.61 204.37 379.02 Z" fill="none" stroke="hsl(20 55% 38%)" stroke-width="1.6" stroke-linejoin="round"/><path d="M 202.5 360 Q 191.29 340.22 176.5 360 Q 191.29 379.78 202.5 360 Z" fill="none" stroke="hsl(20 55% 38%)" stroke-width="1.6" stroke-linejoin="round"/><path d="M 204.37 340.98 Q 197.23 319.39 178.87 335.91 Q 189.51 358.19 204.37 340.98 Z" fill="none" stroke="hsl(20 55% 38%)" stroke-width="1.6" stroke-linejoin="round"/><path d="M 209.92 322.69 Q 207.13 300.12 185.9 312.74 Q 191.99 336.67 209.92 322.69 Z" fill="none" stroke="hsl(20 55% 38%)" stroke-width="1.6" stroke-linejoin="round"/><path d="M 218.93 305.83 Q 220.6 283.15 197.31 291.39 Q 198.62 316.05 218.93 305.83 Z" fill="none" stroke="hsl(20 55% 38%)" stroke-width="1.6" stroke-linejoin="round"/><path d="M 231.06 291.06 Q 237.12 269.14 212.67 272.67 Q 209.14 297.12 231.06 291.06 Z" fill="none" stroke="hsl(20 55% 38%)" stroke-width="1.6" stroke-linejoin="round"/><path d="M 245.83 278.93 Q 256.05 258.62 231.39 257.31 Q 223.15 280.6 245.83 278.93 Z" fill="none" stroke="hsl(20 55% 38%)" stroke-width="1.6" stroke-linejoin="round"/><path d="M 262.69 269.92 Q 276.67 251.99 252.74 245.9 Q 240.12 267.13 262.69 269.92 Z" fill="none" stroke="hsl(20 55% 38%)" stroke-width="1.6" stroke-linejoin="round"/><path d="M 280.98 264.37 Q 298.19 249.51 275.91 238.87 Q 259.39 257.23 280.98 264.37 Z" fill="none" stroke="hsl(20 55% 38%)" stroke-width="1.6" stroke-linejoin="round"/><path d="M 300 262.5 Q 319.78 251.29 300 236.5 Q 280.22 251.29 300 262.5 Z" fill="none" stroke="hsl(20 55% 38%)" stroke-width="1.6" stroke-linejoin="round"/><path d="M 319.02 264.37 Q 340.61 257.23 324.09 238.87 Q 301.81 249.51 319.02 264.37 Z" fill="none" stroke="hsl(20 55% 38%)" stroke-width="1.6" stroke-linejoin="round"/><path d="M 337.31 269.92 Q 359.88 267.13 347.26 245.9 Q 323.33 251.99 337.31 269.92 Z" fill="none" stroke="hsl(20 55% 38%)" stroke-width="1.6" stroke-linejoin="round"/><path d="M 354.17 278.93 Q 376.85 280.6 368.61 257.31 Q 343.95 258.62 354.17 278.93 Z" fill="none" stroke="hsl(20 55% 38%)" stroke-width="1.6" stroke-linejoin="round"/><path d="M 368.94 291.06 Q 390.86 297.12 387.33 272.67 Q 362.88 269.14 368.94 291.06 Z" fill="none" stroke="hsl(20 55% 38%)" stroke-width="1.6" stroke-linejoin="round"/><path d="M 381.07 305.83 Q 401.38 316.05 402.69 291.39 Q 379.4 283.15 381.07 305.83 Z" fill="none" stroke="hsl(20 55% 38%)" stroke-width="1.6" stroke-linejoin="round"/><path d="M 390.08 322.69 Q 408.01 336.67 414.1 312.74 Q 392.87 300.12 390.08 322.69 Z" fill="none" stroke="hsl(20 55% 38%)" stroke-width="1.6" stroke-linejoin="round"/><path d="M 395.63 340.98 Q 410.49 358.19 421.13 335.91 Q 402.77 319.39 395.63 340.98 Z" fill="none" stroke="hsl(20 55% 38%)" stroke-width="1.6" stroke-linejoin="round"/><path d="M 300 230 C 371.8 230 430 288.2 430 360 C 430 431.8 371.8 490 300 490 C 228.2 490 170 431.8 170 360 C 170 288.2 228.2 230 300 230 Z" fill="none" stroke="hsl(20 55% 38%)" stroke-width="1.6" stroke-linejoin="round"/><path d="M 427.5 378.08 C 431.52 378.08 434.78 381.34 434.78 385.36 C 434.78 389.38 431.52 392.64 427.5 392.64 C 423.48 392.64 420.22 389.38 420.22 385.36 C 420.22 381.34 423.48 378.08 427.5 378.08 Z" fill="none" stroke="hsl(20 55% 38%)" stroke-width="1.6" stroke-linejoin="round"/><path d="M 408.09 424.94 C 412.11 424.94 415.37 428.2 415.37 432.22 C 415.37 436.24 412.11 439.5 408.09 439.5 C 404.07 439.5 400.81 436.24 400.81 432.22 C 400.81 428.2 404.07 424.94 408.09 424.94 Z" fill="none" stroke="hsl(20 55% 38%)" stroke-width="1.6" stroke-linejoin="round"/><path d="M 372.22 460.81 C 376.24 460.81 379.5 464.07 379.5 468.09 C 379.5 472.11 376.24 475.37 372.22 475.37 C 368.2 475.37 364.94 472.11 364.94 468.09 C 364.94 464.07 368.2 460.81 372.22 460.81 Z" fill="none" stroke="hsl(20 55% 38%)" stroke-width="1.6" stroke-linejoin="round"/><path d="M 325.36 480.22 C 329.38 480.22 332.64 483.48 332.64 487.5 C 332.64 491.52 329.38 494.78 325.36 494.78 C 321.34 494.78 318.08 491.52 318.08 487.5 C 318.08 483.48 321.34 480.22 325.36 480.22 Z" fill="none" stroke="hsl(20 55% 38%)" stroke-width="1.6" stroke-linejoin="round"/><path d="M 274.64 480.22 C 278.66 480.22 281.92 483.48 281.92 487.5 C 281.92 491.52 278.66 494.78 274.64 494.78 C 270.62 494.78 267.36 491.52 267.36 487.5 C 267.36 483.48 270.62 480.22 274.64 480.22 Z" fill="none" stroke="hsl(20 55% 38%)" stroke-width="1.6" stroke-linejoin="round"/><path d="M 227.78 460.81 C 231.8 460.81 235.06 464.07 235.06 468.09 C 235.06 472.11 231.8 475.37 227.78 475.37 C 223.76 475.37 220.5 472.11 220.5 468.09 C 220.5 464.07 223.76 460.81 227.78 460.81 Z" fill="none" stroke="hsl(20 55% 38%)" stroke-width="1.6" stroke-linejoin="round"/><path d="M 191.91 424.94 C 195.93 424.94 199.19 428.2 199.19 432.22 C 199.19 436.24 195.93 439.5 191.91 439.5 C 187.89 439.5 184.63 436.24 184.63 432.22 C 184.63 428.2 187.89 424.94 191.91 424.94 Z" fill="none" stroke="hsl(20 55% 38%)" stroke-width="1.6" stroke-linejoin="round"/><path d="M 172.5 378.08 C 176.52 378.08 179.78 381.34 179.78 385.36 C 179.78 389.38 176.52 392.64 172.5 392.64 C 168.48 392.64 165.22 389.38 165.22 385.36 C 165.22 381.34 168.48 378.08 172.5 378.08 Z" fill="none" stroke="hsl(20 55% 38%)" stroke-width="1.6" stroke-linejoin="round"/><path d="M 172.5 327.36 C 176.52 327.36 179.78 330.62 179.78 334.64 C 179.78 338.66 176.52 341.92 172.5 341.92 C 168.48 341.92 165.22 338.66 165.22 334.64 C 165.22 330.62 168.48 327.36 172.5 327.36 Z" fill="none" stroke="hsl(20 55% 38%)" stroke-width="1.6" stroke-linejoin="round"/><path d="M 191.91 280.5 C 195.93 280.5 199.19 283.76 199.19 287.78 C 199.19 291.8 195.93 295.06 191.91 295.06 C 187.89 295.06 184.63 291.8 184.63 287.78 C 184.63 283.76 187.89 280.5 191.91 280.5 Z" fill="none" stroke="hsl(20 55% 38%)" stroke-width="1.6" stroke-linejoin="round"/><path d="M 227.78 244.63 C 231.8 244.63 235.06 247.89 235.06 251.91 C 235.06 255.93 231.8 259.19 227.78 259.19 C 223.76 259.19 220.5 255.93 220.5 251.91 C 220.5 247.89 223.76 244.63 227.78 244.63 Z" fill="none" stroke="hsl(20 55% 38%)" stroke-width="1.6" stroke-linejoin="round"/><path d="M 274.64 225.22 C 278.66 225.22 281.92 228.48 281.92 232.5 C 281.92 236.52 278.66 239.78 274.64 239.78 C 270.62 239.78 267.36 236.52 267.36 232.5 C 267.36 228.48 270.62 225.22 274.64 225.22 Z" fill="none" stroke="hsl(20 55% 38%)" stroke-width="1.6" stroke-linejoin="round"/><path d="M 325.36 225.22 C 329.38 225.22 332.64 228.48 332.64 232.5 C 332.64 236.52 329.38 239.78 325.36 239.78 C 321.34 239.78 318.08 236.52 318.08 232.5 C 318.08 228.48 321.34 225.22 325.36 225.22 Z" fill="none" stroke="hsl(20 55% 38%)" stroke-width="1.6" stroke-linejoin="round"/><path d="M 372.22 244.63 C 376.24 244.63 379.5 247.89 379.5 251.91 C 379.5 255.93 376.24 259.19 372.22 259.19 C 368.2 259.19 364.94 255.93 364.94 251.91 C 364.94 247.89 368.2 244.63 372.22 244.63 Z" fill="none" stroke="hsl(20 55% 38%)" stroke-width="1.6" stroke-linejoin="round"/><path d="M 408.09 280.5 C 412.11 280.5 415.37 283.76 415.37 287.78 C 415.37 291.8 412.11 295.06 408.09 295.06 C 404.07 295.06 400.81 291.8 400.81 287.78 C 400.81 283.76 404.07 280.5 408.09 280.5 Z" fill="none" stroke="hsl(20 55% 38%)" stroke-width="1.6" stroke-linejoin="round"/><path d="M 427.5 327.36 C 431.52 327.36 434.78 330.62 434.78 334.64 C 434.78 338.66 431.52 341.92 427.5 341.92 C 423.48 341.92 420.22 338.66 420.22 334.64 C 420.22 330.62 423.48 327.36 427.5 327.36 Z" fill="none" stroke="hsl(20 55% 38%)" stroke-width="1.6" stroke-linejoin="round"/><path d="M 300 197.5 C 389.75 197.5 462.5 270.25 462.5 360 C 462.5 449.75 389.75 522.5 300 522.5 C 210.25 522.5 137.5 449.75 137.5 360 C 137.5 270.25 210.25 197.5 300 197.5 Z" fill="none" stroke="hsl(20 55% 38%)" stroke-width="1.6" stroke-linejoin="round"/><path d="M 462.5 352.72 C 466.52 352.72 469.78 355.98 469.78 360 C 469.78 364.02 466.52 367.28 462.5 367.28 C 458.48 367.28 455.22 364.02 455.22 360 C 455.22 355.98 458.48 352.72 462.5 352.72 Z" fill="none" stroke="hsl(20 55% 38%)" stroke-width="1.6" stroke-linejoin="round"/><path d="M 459.38 384.42 C 463.4 384.42 466.66 387.68 466.66 391.7 C 466.66 395.72 463.4 398.98 459.38 398.98 C 455.36 398.98 452.1 395.72 452.1 391.7 C 452.1 387.68 455.36 384.42 459.38 384.42 Z" fill="none" stroke="hsl(20 55% 38%)" stroke-width="1.6" stroke-linejoin="round"/><path d="M 450.13 414.91 C 454.15 414.91 457.41 418.17 457.41 422.19 C 457.41 426.21 454.15 429.47 450.13 429.47 C 446.11 429.47 442.85 426.21 442.85 422.19 C 442.85 418.17 446.11 414.91 450.13 414.91 Z" fill="none" stroke="hsl(20 55% 38%)" stroke-width="1.6" stroke-linejoin="round"/><path d="M 435.11 443 C 439.13 443 442.39 446.26 442.39 450.28 C 442.39 454.3 439.13 457.56 435.11 457.56 C 431.09 457.56 427.83 454.3 427.83 450.28 C 427.83 446.26 431.09 443 435.11 443 Z" fill="none" stroke="hsl(20 55% 38%)" stroke-width="1.6" stroke-linejoin="round"/><path d="M 414.9 467.62 C 418.93 467.62 422.18 470.88 422.18 474.9 C 422.18 478.93 418.93 482.18 414.9 482.18 C 410.88 482.18 407.62 478.93 407.62 474.9 C 407.62 470.88 410.88 467.62 414.9 467.62 Z" fill="none" stroke="hsl(20 55% 38%)" stroke-width="1.6" stroke-linejoin="round"/><path d="M 390.28 487.83 C 394.3 487.83 397.56 491.09 397.56 495.11 C 397.56 499.13 394.3 502.39 390.28 502.39 C 386.26 502.39 383 499.13 383 495.11 C 383 491.09 386.26 487.83 390.28 487.83 Z" fill="none" stroke="hsl(20 55% 38%)" stroke-width="1.6" stroke-linejoin="round"/><path d="M 362.19 502.85 C 366.21 502.85 369.47 506.11 369.47 510.13 C 369.47 514.15 366.21 517.41 362.19 517.41 C 358.17 517.41 354.91 514.15 354.91 510.13 C 354.91 506.11 358.17 502.85 362.19 502.85 Z" fill="none" stroke="hsl(20 55% 38%)" stroke-width="1.6" stroke-linejoin="round"/><path d="M 331.7 512.1 C 335.72 512.1 338.98 515.36 338.98 519.38 C 338.98 523.4 335.72 526.66 331.7 526.66 C 327.68 526.66 324.42 523.4 324.42 519.38 C 324.42 515.36 327.68 512.1 331.7 512.1 Z" fill="none" stroke="hsl(20 55% 38%)" stroke-width="1.6" stroke-linejoin="round"/><path d="M 300 515.22 C 304.02 515.22 307.28 518.48 307.28 522.5 C 307.28 526.52 304.02 529.78 300 529.78 C 295.98 529.78 292.72 526.52 292.72 522.5 C 292.72 518.48 295.98 515.22 300 515.22 Z" fill="none" stroke="hsl(20 55% 38%)" stroke-width="1.6" stroke-linejoin="round"/><path d="M 268.3 512.1 C 272.32 512.1 275.58 515.36 275.58 519.38 C 275.58 523.4 272.32 526.66 268.3 526.66 C 264.28 526.66 261.02 523.4 261.02 519.38 C 261.02 515.36 264.28 512.1 268.3 512.1 Z" fill="none" stroke="hsl(20 55% 38%)" stroke-width="1.6" stroke-linejoin="round"/><path d="M 237.81 502.85 C 241.83 502.85 245.09 506.11 245.09 510.13 C 245.09 514.15 241.83 517.41 237.81 517.41 C 233.79 517.41 230.53 514.15 230.53 510.13 C 230.53 506.11 233.79 502.85 237.81 502.85 Z" fill="none" stroke="hsl(20 55% 38%)" stroke-width="1.6" stroke-linejoin="round"/><path d="M 209.72 487.83 C 213.74 487.83 217 491.09 217 495.11 C 217 499.13 213.74 502.39 209.72 502.39 C 205.7 502.39 202.44 499.13 202.44 495.11 C 202.44 491.09 205.7 487.83 209.72 487.83 Z" fill="none" stroke="hsl(20 55% 38%)" stroke-width="1.6" stroke-linejoin="round"/><path d="M 185.1 467.62 C 189.12 467.62 192.38 470.88 192.38 474.9 C 192.38 478.93 189.12 482.18 185.1 482.18 C 181.07 482.18 177.82 478.93 177.82 474.9 C 177.82 470.88 181.07 467.62 185.1 467.62 Z" fill="none" stroke="hsl(20 55% 38%)" stroke-width="1.6" stroke-linejoin="round"/><path d="M 164.89 443 C 168.91 443 172.17 446.26 172.17 450.28 C 172.17 454.3 168.91 457.56 164.89 457.56 C 160.87 457.56 157.61 454.3 157.61 450.28 C 157.61 446.26 160.87 443 164.89 443 Z" fill="none" stroke="hsl(20 55% 38%)" stroke-width="1.6" stroke-linejoin="round"/><path d="M 149.87 414.91 C 153.89 414.91 157.15 418.17 157.15 422.19 C 157.15 426.21 153.89 429.47 149.87 429.47 C 145.85 429.47 142.59 426.21 142.59 422.19 C 142.59 418.17 145.85 414.91 149.87 414.91 Z" fill="none" stroke="hsl(20 55% 38%)" stroke-width="1.6" stroke-linejoin="round"/><path d="M 140.62 384.42 C 144.64 384.42 147.9 387.68 147.9 391.7 C 147.9 395.72 144.64 398.98 140.62 398.98 C 136.6 398.98 133.34 395.72 133.34 391.7 C 133.34 387.68 136.6 384.42 140.62 384.42 Z" fill="none" stroke="hsl(20 55% 38%)" stroke-width="1.6" stroke-linejoin="round"/><path d="M 137.5 352.72 C 141.52 352.72 144.78 355.98 144.78 360 C 144.78 364.02 141.52 367.28 137.5 367.28 C 133.48 367.28 130.22 364.02 130.22 360 C 130.22 355.98 133.48 352.72 137.5 352.72 Z" fill="none" stroke="hsl(20 55% 38%)" stroke-width="1.6" stroke-linejoin="round"/><path d="M 140.62 321.02 C 144.64 321.02 147.9 324.28 147.9 328.3 C 147.9 332.32 144.64 335.58 140.62 335.58 C 136.6 335.58 133.34 332.32 133.34 328.3 C 133.34 324.28 136.6 321.02 140.62 321.02 Z" fill="none" stroke="hsl(20 55% 38%)" stroke-width="1.6" stroke-linejoin="round"/><path d="M 149.87 290.53 C 153.89 290.53 157.15 293.79 157.15 297.81 C 157.15 301.83 153.89 305.09 149.87 305.09 C 145.85 305.09 142.59 301.83 142.59 297.81 C 142.59 293.79 145.85 290.53 149.87 290.53 Z" fill="none" stroke="hsl(20 55% 38%)" stroke-width="1.6" stroke-linejoin="round"/><path d="M 164.89 262.44 C 168.91 262.44 172.17 265.7 172.17 269.72 C 172.17 273.74 168.91 277 164.89 277 C 160.87 277 157.61 273.74 157.61 269.72 C 157.61 265.7 160.87 262.44 164.89 262.44 Z" fill="none" stroke="hsl(20 55% 38%)" stroke-width="1.6" stroke-linejoin="round"/><path d="M 185.1 237.82 C 189.12 237.82 192.38 241.07 192.38 245.1 C 192.38 249.12 189.12 252.38 185.1 252.38 C 181.07 252.38 177.82 249.12 177.82 245.1 C 177.82 241.07 181.07 237.82 185.1 237.82 Z" fill="none" stroke="hsl(20 55% 38%)" stroke-width="1.6" stroke-linejoin="round"/><path d="M 209.72 217.61 C 213.74 217.61 217 220.87 217 224.89 C 217 228.91 213.74 232.17 209.72 232.17 C 205.7 232.17 202.44 228.91 202.44 224.89 C 202.44 220.87 205.7 217.61 209.72 217.61 Z" fill="none" stroke="hsl(20 55% 38%)" stroke-width="1.6" stroke-linejoin="round"/><path d="M 237.81 202.59 C 241.83 202.59 245.09 205.85 245.09 209.87 C 245.09 213.89 241.83 217.15 237.81 217.15 C 233.79 217.15 230.53 213.89 230.53 209.87 C 230.53 205.85 233.79 202.59 237.81 202.59 Z" fill="none" stroke="hsl(20 55% 38%)" stroke-width="1.6" stroke-linejoin="round"/><path d="M 268.3 193.34 C 272.32 193.34 275.58 196.6 275.58 200.62 C 275.58 204.64 272.32 207.9 268.3 207.9 C 264.28 207.9 261.02 204.64 261.02 200.62 C 261.02 196.6 264.28 193.34 268.3 193.34 Z" fill="none" stroke="hsl(20 55% 38%)" stroke-width="1.6" stroke-linejoin="round"/><path d="M 300 190.22 C 304.02 190.22 307.28 193.48 307.28 197.5 C 307.28 201.52 304.02 204.78 300 204.78 C 295.98 204.78 292.72 201.52 292.72 197.5 C 292.72 193.48 295.98 190.22 300 190.22 Z" fill="none" stroke="hsl(20 55% 38%)" stroke-width="1.6" stroke-linejoin="round"/><path d="M 331.7 193.34 C 335.72 193.34 338.98 196.6 338.98 200.62 C 338.98 204.64 335.72 207.9 331.7 207.9 C 327.68 207.9 324.42 204.64 324.42 200.62 C 324.42 196.6 327.68 193.34 331.7 193.34 Z" fill="none" stroke="hsl(20 55% 38%)" stroke-width="1.6" stroke-linejoin="round"/><path d="M 362.19 202.59 C 366.21 202.59 369.47 205.85 369.47 209.87 C 369.47 213.89 366.21 217.15 362.19 217.15 C 358.17 217.15 354.91 213.89 354.91 209.87 C 354.91 205.85 358.17 202.59 362.19 202.59 Z" fill="none" stroke="hsl(20 55% 38%)" stroke-width="1.6" stroke-linejoin="round"/><path d="M 390.28 217.61 C 394.3 217.61 397.56 220.87 397.56 224.89 C 397.56 228.91 394.3 232.17 390.28 232.17 C 386.26 232.17 383 228.91 383 224.89 C 383 220.87 386.26 217.61 390.28 217.61 Z" fill="none" stroke="hsl(20 55% 38%)" stroke-width="1.6" stroke-linejoin="round"/><path d="M 414.9 237.82 C 418.93 237.82 422.18 241.07 422.18 245.1 C 422.18 249.12 418.93 252.38 414.9 252.38 C 410.88 252.38 407.62 249.12 407.62 245.1 C 407.62 241.07 410.88 237.82 414.9 237.82 Z" fill="none" stroke="hsl(20 55% 38%)" stroke-width="1.6" stroke-linejoin="round"/><path d="M 435.11 262.44 C 439.13 262.44 442.39 265.7 442.39 269.72 C 442.39 273.74 439.13 277 435.11 277 C 431.09 277 427.83 273.74 427.83 269.72 C 427.83 265.7 431.09 262.44 435.11 262.44 Z" fill="none" stroke="hsl(20 55% 38%)" stroke-width="1.6" stroke-linejoin="round"/><path d="M 450.13 290.53 C 454.15 290.53 457.41 293.79 457.41 297.81 C 457.41 301.83 454.15 305.09 450.13 305.09 C 446.11 305.09 442.85 301.83 442.85 297.81 C 442.85 293.79 446.11 290.53 450.13 290.53 Z" fill="none" stroke="hsl(20 55% 38%)" stroke-width="1.6" stroke-linejoin="round"/><path d="M 459.38 321.02 C 463.4 321.02 466.66 324.28 466.66 328.3 C 466.66 332.32 463.4 335.58 459.38 335.58 C 455.36 335.58 452.1 332.32 452.1 328.3 C 452.1 324.28 455.36 321.02 459.38 321.02 Z" fill="none" stroke="hsl(20 55% 38%)" stroke-width="1.6" stroke-linejoin="round"/><path d="M 300 165 C 407.7 165 495 252.3 495 360 C 495 467.7 407.7 555 300 555 C 192.3 555 105 467.7 105 360 C 105 252.3 192.3 165 300 165 Z" fill="none" stroke="hsl(20 55% 38%)" stroke-width="1.6" stroke-linejoin="round"/><path d="M 491.25 398.04 L 509.1 401.59" fill="none" stroke="hsl(20 55% 38%)" stroke-width="1.6" stroke-linejoin="round"/><path d="M 462.14 468.34 L 477.27 478.45" fill="none" stroke="hsl(20 55% 38%)" stroke-width="1.6" stroke-linejoin="round"/><path d="M 408.34 522.14 L 418.45 537.27" fill="none" stroke="hsl(20 55% 38%)" stroke-width="1.6" stroke-linejoin="round"/><path d="M 338.04 551.25 L 341.59 569.1" fill="none" stroke="hsl(20 55% 38%)" stroke-width="1.6" stroke-linejoin="round"/><path d="M 261.96 551.25 L 258.41 569.1" fill="none" stroke="hsl(20 55% 38%)" stroke-width="1.6" stroke-linejoin="round"/><path d="M 191.66 522.14 L 181.55 537.27" fill="none" stroke="hsl(20 55% 38%)" stroke-width="1.6" stroke-linejoin="round"/><path d="M 137.86 468.34 L 122.73 478.45" fill="none" stroke="hsl(20 55% 38%)" stroke-width="1.6" stroke-linejoin="round"/><path d="M 108.75 398.04 L 90.9 401.59" fill="none" stroke="hsl(20 55% 38%)" stroke-width="1.6" stroke-linejoin="round"/><path d="M 108.75 321.96 L 90.9 318.41" fill="none" stroke="hsl(20 55% 38%)" stroke-width="1.6" stroke-linejoin="round"/><path d="M 137.86 251.66 L 122.73 241.55" fill="none" stroke="hsl(20 55% 38%)" stroke-width="1.6" stroke-linejoin="round"/><path d="M 191.66 197.86 L 181.55 182.73" fill="none" stroke="hsl(20 55% 38%)" stroke-width="1.6" stroke-linejoin="round"/><path d="M 261.96 168.75 L 258.41 150.9" fill="none" stroke="hsl(20 55% 38%)" stroke-width="1.6" stroke-linejoin="round"/><path d="M 338.04 168.75 L 341.59 150.9" fill="none" stroke="hsl(20 55% 38%)" stroke-width="1.6" stroke-linejoin="round"/><path d="M 408.34 197.86 L 418.45 182.73" fill="none" stroke="hsl(20 55% 38%)" stroke-width="1.6" stroke-linejoin="round"/><path d="M 462.14 251.66 L 477.27 241.55" fill="none" stroke="hsl(20 55% 38%)" stroke-width="1.6" stroke-linejoin="round"/><path d="M 491.25 321.96 L 509.1 318.41" fill="none" stroke="hsl(20 55% 38%)" stroke-width="1.6" stroke-linejoin="round"/><path d="M 300 165 C 407.7 165 495 252.3 495 360 C 495 467.7 407.7 555 300 555 C 192.3 555 105 467.7 105 360 C 105 252.3 192.3 165 300 165 Z" fill="none" stroke="hsl(20 55% 38%)" stroke-width="1.6" stroke-linejoin="round"/></g>
  <g transform="translate(300,640)">
    <rect x="-110" y="-26" width="220" height="34" rx="17" fill="#ffffff" opacity="0.8"/>
    <text x="0" y="-3" text-anchor="middle" font-family="Quicksand, Arial, sans-serif" font-size="16" font-weight="600" fill="hsl(20 55% 38%)">🌊 Japan &amp; Zen</text>
  </g>
  <text x="300" y="700" text-anchor="middle" font-family="Quicksand, Arial, sans-serif" font-size="40" font-weight="700" fill="#2b2540"><tspan x="300" dy="0">Japan &amp; Zen – Vol.</tspan><tspan x="300" dy="44">2</tspan></text>
  <text x="300" y="772" text-anchor="middle" font-family="Arial, sans-serif" font-size="15" fill="#5b5470">Malbuch · 24 Seiten</text>
</svg>