<svg xmlns="http://www.w3.org/2000/svg" viewBox="0 0 600 800" width="600" height="800">
  <defs>
    <linearGradient id="bg" x1="0" y1="0" x2="0" y2="1">
      <stop offset="0" stop-color="hsl(20 70% 95%)"/><stop offset="1" stop-color="hsl(60 70% 92%)"/>
    </linearGradient>
  </defs>
  <rect width="600" height="800" fill="url(#bg)"/>
  <rect x="22" y="22" width="556" height="756" rx="28" fill="none" stroke="hsl(20 55% 38%)" stroke-width="2" opacity="0.5"/>
  <text x="300" y="74" text-anchor="middle" font-family="Quicksand, Arial, sans-serif" font-size="26" font-weight="700" fill="hsl(20 55% 38%)">&#10022; Coloreo</text>
  <g transform="translate(0,40)"><path d="M 323.4 360 Q 335.17 372.84 349.14 360 Q 335.17 347.16 323.4 360 Z" fill="none" stroke="hsl(20 55% 38%)" stroke-width="1.6" stroke-linejoin="round"/><path d="M 311.7 380.26 Q 306.47 396.88 324.57 402.56 Q 328.7 384.04 311.7 380.26 Z" fill="none" stroke="hsl(20 55% 38%)" stroke-width="1.6" stroke-linejoin="round"/><path d="M 288.3 380.26 Q 271.3 384.04 275.43 402.56 Q 293.53 396.88 288.3 380.26 Z" fill="none" stroke="hsl(20 55% 38%)" stroke-width="1.6" stroke-linejoin="round"/><path d="M 276.6 360 Q 264.83 347.16 250.86 360 Q 264.83 372.84 276.6 360 Z" fill="none" stroke="hsl(20 55% 38%)" stroke-width="1.6" stroke-linejoin="round"/><path d="M 288.3 339.74 Q 293.53 323.12 275.43 317.44 Q 271.3 335.96 288.3 339.74 Z" fill="none" stroke="hsl(20 55% 38%)" stroke-width="1.6" stroke-linejoin="round"/><path d="M 311.7 339.74 Q 328.7 335.96 324.57 317.44 Q 306.47 323.12 311.7 339.74 Z" fill="none" stroke="hsl(20 55% 38%)" stroke-width="1.6" stroke-linejoin="round"/><path d="M 285.96 360 a 14.04 14.04 0 1 0 28.08 0 a 14.04 14.04 0 1 0 -28.08 0 Z" fill="none" stroke="hsl(20 55% 38%)" stroke-width="1.6" stroke-linejoin="round"/><path d="M 202.5 360 a 97.5 97.5 0 1 0 195 0 a 97.5 97.5 0 1 0 -195 0 Z" fill="none" stroke="hsl(20 55% 38%)" stroke-width="1.6" stroke-linejoin="round"/><path d="M 384.44 408.75 L 408.08 422.4" fill="none" stroke="hsl(20 55% 38%)" stroke-width="1.6" stroke-linejoin="round"/><path d="M 300 457.5 L 300 484.8" fill="none" stroke="hsl(20 55% 38%)" stroke-width="1.6" stroke-linejoin="round"/><path d="M 215.56 408.75 L 191.92 422.4" fill="none" stroke="hsl(20 55% 38%)" stroke-width="1.6" stroke-linejoin="round"/><path d="M 215.56 311.25 L 191.92 297.6" fill="none" stroke="hsl(20 55% 38%)" stroke-width="1.6" stroke-linejoin="round"/><path d="M 300 262.5 L 300 235.2" fill="none" stroke="hsl(20 55% 38%)" stroke-width="1.6" stroke-linejoin="round"/><path d="M 384.44 311.25 L 408.08 297.6" fill="none" stroke="hsl(20 55% 38%)" stroke-width="1.6" stroke-linejoin="round"/><path d="M 153.75 360 a 146.25 146.25 0 1 0 292.5 0 a 146.25 146.25 0 1 0 -292.5 0 Z" fill="none" stroke="hsl(20 55% 38%)" stroke-width="1.6" stroke-linejoin="round"/><path d="M 446.25 360 L 473.55 360" fill="none" stroke="hsl(20 55% 38%)" stroke-width="1.6" stroke-linejoin="round"/><path d="M 426.66 433.13 L 450.3 446.77" fill="none" stroke="hsl(20 55% 38%)" stroke-width="1.6" stroke-linejoin="round"/><path d="M 373.13 486.66 L 386.78 510.3" fill="none" stroke="hsl(20 55% 38%)" stroke-width="1.6" stroke-linejoin="round"/><path d="M 300 506.25 L 300 533.55" fill="none" stroke="hsl(20 55% 38%)" stroke-width="1.6" stroke-linejoin="round"/><path d="M 226.88 486.66 L 213.23 510.3" fill="none" stroke="hsl(20 55% 38%)" stroke-width="1.6" stroke-linejoin="round"/><path d="M 173.34 433.13 L 149.7 446.77" fill="none" stroke="hsl(20 55% 38%)" stroke-width="1.6" stroke-linejoin="round"/><path d="M 153.75 360 L 126.45 360" fill="none" stroke="hsl(20 55% 38%)" stroke-width="1.6" stroke-linejoin="round"/><path d="M 173.34 286.88 L 149.7 273.22" fill="none" stroke="hsl(20 55% 38%)" stroke-width="1.6" stroke-linejoin="round"/><path d="M 226.87 233.34 L 213.22 209.7" fill="none" stroke="hsl(20 55% 38%)" stroke-width="1.6" stroke-linejoin="round"/><path d="M 300 213.75 L 300 186.45" fill="none" stroke="hsl(20 55% 38%)" stroke-width="1.6" stroke-linejoin="round"/><path d="M 373.13 233.34 L 386.78 209.7" fill="none" stroke="hsl(20 55% 38%)" stroke-width="1.6" stroke-linejoin="round"/><path d="M 426.66 286.87 L 450.3 273.22" fill="none" stroke="hsl(20 55% 38%)" stroke-width="1.6" stroke-linejoin="round"/><path d="M 105 360 a 195 195 0 1 0 390 0 a 195 195 0 1 0 -390 0 Z" fill="none" stroke="hsl(20 55% 38%)" stroke-width="1.6" stroke-linejoin="round"/><path d="M 468.87 457.5 L 492.52 471.15" fill="none" stroke="hsl(20 55% 38%)" stroke-width="1.6" stroke-linejoin="round"/><path d="M 300 555 L 300 582.3" fill="none" stroke="hsl(20 55% 38%)" stroke-width="1.6" stroke-linejoin="round"/><path d="M 131.13 457.5 L 107.48 471.15" fill="none" stroke="hsl(20 55% 38%)" stroke-width="1.6" stroke-linejoin="round"/><path d="M 131.13 262.5 L 107.48 248.85" fill="none" stroke="hsl(20 55% 38%)" stroke-width="1.6" stroke-linejoin="round"/><path d="M 300 165 L 300 137.7" fill="none" stroke="hsl(20 55% 38%)" stroke-width="1.6" stroke-linejoin="round"/><path d="M 468.87 262.5 L 492.52 248.85" fill="none" stroke="hsl(20 55% 38%)" stroke-width="1.6" stroke-linejoin="round"/><path d="M 105 360 a 195 195 0 1 0 390 0 a 195 195 0 1 0 -390 0 Z" fill="none" stroke="hsl(20 55% 38%)" stroke-width="1.6" stroke-linejoin="round"/></g>
  <g transform="translate(300,640)">
    <rect x="-110" y="-26" width="220" height="34" rx="17" fill="#ffffff" opacity="0.8"/>
    <text x="0" y="-3" text-anchor="middle" font-family="Quicksand, Arial, sans-serif" font-size="16" font-weight="600" fill="hsl(20 55% 38%)">🌊 Japan &amp; Zen</text>
  </g>
  <text x="300" y="700" text-anchor="middle" font-family="Quicksand, Arial, sans-serif" font-size="40" font-weight="700" fill="#2b2540"><tspan x="300" dy="0">Japan &amp; Zen – Vol.</tspan><tspan x="300" dy="44">1</tspan></text>
  <text x="300" y="772" text-anchor="middle" font-family="Arial, sans-serif" font-size="15" fill="#5b5470">Malbuch · 30 Seiten</text>
</svg>