<svg xmlns="http://www.w3.org/2000/svg" viewBox="0 0 600 800" width="600" height="800">
  <defs>
    <linearGradient id="bg" x1="0" y1="0" x2="0" y2="1">
      <stop offset="0" stop-color="hsl(352 70% 95%)"/><stop offset="1" stop-color="hsl(32 70% 92%)"/>
    </linearGradient>
  </defs>
  <rect width="600" height="800" fill="url(#bg)"/>
  <rect x="22" y="22" width="556" height="756" rx="28" fill="none" stroke="hsl(352 55% 38%)" stroke-width="2" opacity="0.5"/>
  <text x="300" y="74" text-anchor="middle" font-family="Quicksand, Arial, sans-serif" font-size="26" font-weight="700" fill="hsl(352 55% 38%)">&#10022; Coloreo</text>
  <g transform="translate(0,40)"><path d="M 323.4 360 Q 335.17 372.84 349.14 360 Q 335.17 347.16 323.4 360 Z" fill="none" stroke="hsl(352 55% 38%)" stroke-width="1.6" stroke-linejoin="round"/><path d="M 320.26 371.7 Q 324.04 388.7 342.56 384.57 Q 336.88 366.47 320.26 371.7 Z" fill="none" stroke="hsl(352 55% 38%)" stroke-width="1.6" stroke-linejoin="round"/><path d="M 311.7 380.26 Q 306.47 396.88 324.57 402.56 Q 328.7 384.04 311.7 380.26 Z" fill="none" stroke="hsl(352 55% 38%)" stroke-width="1.6" stroke-linejoin="round"/><path d="M 300 383.4 Q 287.16 395.17 300 409.14 Q 312.84 395.17 300 383.4 Z" fill="none" stroke="hsl(352 55% 38%)" stroke-width="1.6" stroke-linejoin="round"/><path d="M 288.3 380.26 Q 271.3 384.04 275.43 402.56 Q 293.53 396.88 288.3 380.26 Z" fill="none" stroke="hsl(352 55% 38%)" stroke-width="1.6" stroke-linejoin="round"/><path d="M 279.74 371.7 Q 263.12 366.47 257.44 384.57 Q 275.96 388.7 279.74 371.7 Z" fill="none" stroke="hsl(352 55% 38%)" stroke-width="1.6" stroke-linejoin="round"/><path d="M 276.6 360 Q 264.83 347.16 250.86 360 Q 264.83 372.84 276.6 360 Z" fill="none" stroke="hsl(352 55% 38%)" stroke-width="1.6" stroke-linejoin="round"/><path d="M 279.74 348.3 Q 275.96 331.3 257.44 335.43 Q 263.12 353.53 279.74 348.3 Z" fill="none" stroke="hsl(352 55% 38%)" stroke-width="1.6" stroke-linejoin="round"/><path d="M 288.3 339.74 Q 293.53 323.12 275.43 317.44 Q 271.3 335.96 288.3 339.74 Z" fill="none" stroke="hsl(352 55% 38%)" stroke-width="1.6" stroke-linejoin="round"/><path d="M 300 336.6 Q 312.84 324.83 300 310.86 Q 287.16 324.83 300 336.6 Z" fill="none" stroke="hsl(352 55% 38%)" stroke-width="1.6" stroke-linejoin="round"/><path d="M 311.7 339.74 Q 328.7 335.96 324.57 317.44 Q 306.47 323.12 311.7 339.74 Z" fill="none" stroke="hsl(352 55% 38%)" stroke-width="1.6" stroke-linejoin="round"/><path d="M 320.26 348.3 Q 336.88 353.53 342.56 335.43 Q 324.04 331.3 320.26 348.3 Z" fill="none" stroke="hsl(352 55% 38%)" stroke-width="1.6" stroke-linejoin="round"/><path d="M 285.96 360 a 14.04 14.04 0 1 0 28.08 0 a 14.04 14.04 0 1 0 -28.08 0 Z" fill="none" stroke="hsl(352 55% 38%)" stroke-width="1.6" stroke-linejoin="round"/><path d="M 202.5 360 a 97.5 97.5 0 1 0 195 0 a 97.5 97.5 0 1 0 -195 0 Z" fill="none" stroke="hsl(352 55% 38%)" stroke-width="1.6" stroke-linejoin="round"/><path d="M 394.18 385.23 L 420.55 392.3" fill="none" stroke="hsl(352 55% 38%)" stroke-width="1.6" stroke-linejoin="round"/><path d="M 368.94 428.94 L 388.25 448.25" fill="none" stroke="hsl(352 55% 38%)" stroke-width="1.6" stroke-linejoin="round"/><path d="M 325.23 454.18 L 332.3 480.55" fill="none" stroke="hsl(352 55% 38%)" stroke-width="1.6" stroke-linejoin="round"/><path d="M 274.77 454.18 L 267.7 480.55" fill="none" stroke="hsl(352 55% 38%)" stroke-width="1.6" stroke-linejoin="round"/><path d="M 231.06 428.94 L 211.75 448.25" fill="none" stroke="hsl(352 55% 38%)" stroke-width="1.6" stroke-linejoin="round"/><path d="M 205.82 385.23 L 179.45 392.3" fill="none" stroke="hsl(352 55% 38%)" stroke-width="1.6" stroke-linejoin="round"/><path d="M 205.82 334.77 L 179.45 327.7" fill="none" stroke="hsl(352 55% 38%)" stroke-width="1.6" stroke-linejoin="round"/><path d="M 231.06 291.06 L 211.75 271.75" fill="none" stroke="hsl(352 55% 38%)" stroke-width="1.6" stroke-linejoin="round"/><path d="M 274.77 265.82 L 267.7 239.45" fill="none" stroke="hsl(352 55% 38%)" stroke-width="1.6" stroke-linejoin="round"/><path d="M 325.23 265.82 L 332.3 239.45" fill="none" stroke="hsl(352 55% 38%)" stroke-width="1.6" stroke-linejoin="round"/><path d="M 368.94 291.06 L 388.25 271.75" fill="none" stroke="hsl(352 55% 38%)" stroke-width="1.6" stroke-linejoin="round"/><path d="M 394.18 334.77 L 420.55 327.7" fill="none" stroke="hsl(352 55% 38%)" stroke-width="1.6" stroke-linejoin="round"/><path d="M 153.75 360 a 146.25 146.25 0 1 0 292.5 0 a 146.25 146.25 0 1 0 -292.5 0 Z" fill="none" stroke="hsl(352 55% 38%)" stroke-width="1.6" stroke-linejoin="round"/><path d="M 446.25 360 L 473.55 360" fill="none" stroke="hsl(352 55% 38%)" stroke-width="1.6" stroke-linejoin="round"/><path d="M 441.27 397.85 L 467.64 404.92" fill="none" stroke="hsl(352 55% 38%)" stroke-width="1.6" stroke-linejoin="round"/><path d="M 426.66 433.13 L 450.3 446.77" fill="none" stroke="hsl(352 55% 38%)" stroke-width="1.6" stroke-linejoin="round"/><path d="M 403.41 463.41 L 422.72 482.72" fill="none" stroke="hsl(352 55% 38%)" stroke-width="1.6" stroke-linejoin="round"/><path d="M 373.13 486.66 L 386.78 510.3" fill="none" stroke="hsl(352 55% 38%)" stroke-width="1.6" stroke-linejoin="round"/><path d="M 337.85 501.27 L 344.92 527.64" fill="none" stroke="hsl(352 55% 38%)" stroke-width="1.6" stroke-linejoin="round"/><path d="M 300 506.25 L 300 533.55" fill="none" stroke="hsl(352 55% 38%)" stroke-width="1.6" stroke-linejoin="round"/><path d="M 262.15 501.27 L 255.08 527.64" fill="none" stroke="hsl(352 55% 38%)" stroke-width="1.6" stroke-linejoin="round"/><path d="M 226.88 486.66 L 213.23 510.3" fill="none" stroke="hsl(352 55% 38%)" stroke-width="1.6" stroke-linejoin="round"/><path d="M 196.59 463.41 L 177.28 482.72" fill="none" stroke="hsl(352 55% 38%)" stroke-width="1.6" stroke-linejoin="round"/><path d="M 173.34 433.13 L 149.7 446.77" fill="none" stroke="hsl(352 55% 38%)" stroke-width="1.6" stroke-linejoin="round"/><path d="M 158.73 397.85 L 132.36 404.92" fill="none" stroke="hsl(352 55% 38%)" stroke-width="1.6" stroke-linejoin="round"/><path d="M 153.75 360 L 126.45 360" fill="none" stroke="hsl(352 55% 38%)" stroke-width="1.6" stroke-linejoin="round"/><path d="M 158.73 322.15 L 132.36 315.08" fill="none" stroke="hsl(352 55% 38%)" stroke-width="1.6" stroke-linejoin="round"/><path d="M 173.34 286.88 L 149.7 273.22" fill="none" stroke="hsl(352 55% 38%)" stroke-width="1.6" stroke-linejoin="round"/><path d="M 196.59 256.59 L 177.28 237.28" fill="none" stroke="hsl(352 55% 38%)" stroke-width="1.6" stroke-linejoin="round"/><path d="M 226.87 233.34 L 213.22 209.7" fill="none" stroke="hsl(352 55% 38%)" stroke-width="1.6" stroke-linejoin="round"/><path d="M 262.15 218.73 L 255.08 192.36" fill="none" stroke="hsl(352 55% 38%)" stroke-width="1.6" stroke-linejoin="round"/><path d="M 300 213.75 L 300 186.45" fill="none" stroke="hsl(352 55% 38%)" stroke-width="1.6" stroke-linejoin="round"/><path d="M 337.85 218.73 L 344.92 192.36" fill="none" stroke="hsl(352 55% 38%)" stroke-width="1.6" stroke-linejoin="round"/><path d="M 373.13 233.34 L 386.78 209.7" fill="none" stroke="hsl(352 55% 38%)" stroke-width="1.6" stroke-linejoin="round"/><path d="M 403.41 256.59 L 422.72 237.28" fill="none" stroke="hsl(352 55% 38%)" stroke-width="1.6" stroke-linejoin="round"/><path d="M 426.66 286.87 L 450.3 273.22" fill="none" stroke="hsl(352 55% 38%)" stroke-width="1.6" stroke-linejoin="round"/><path d="M 441.27 322.15 L 467.64 315.08" fill="none" stroke="hsl(352 55% 38%)" stroke-width="1.6" stroke-linejoin="round"/><path d="M 105 360 a 195 195 0 1 0 390 0 a 195 195 0 1 0 -390 0 Z" fill="none" stroke="hsl(352 55% 38%)" stroke-width="1.6" stroke-linejoin="round"/><path d="M 488.36 410.47 L 514.73 417.54" fill="none" stroke="hsl(352 55% 38%)" stroke-width="1.6" stroke-linejoin="round"/><path d="M 437.89 497.89 L 457.19 517.19" fill="none" stroke="hsl(352 55% 38%)" stroke-width="1.6" stroke-linejoin="round"/><path d="M 350.47 548.36 L 357.54 574.73" fill="none" stroke="hsl(352 55% 38%)" stroke-width="1.6" stroke-linejoin="round"/><path d="M 249.53 548.36 L 242.46 574.73" fill="none" stroke="hsl(352 55% 38%)" stroke-width="1.6" stroke-linejoin="round"/><path d="M 162.11 497.89 L 142.81 517.19" fill="none" stroke="hsl(352 55% 38%)" stroke-width="1.6" stroke-linejoin="round"/><path d="M 111.64 410.47 L 85.27 417.54" fill="none" stroke="hsl(352 55% 38%)" stroke-width="1.6" stroke-linejoin="round"/><path d="M 111.64 309.53 L 85.27 302.46" fill="none" stroke="hsl(352 55% 38%)" stroke-width="1.6" stroke-linejoin="round"/><path d="M 162.11 222.11 L 142.81 202.81" fill="none" stroke="hsl(352 55% 38%)" stroke-width="1.6" stroke-linejoin="round"/><path d="M 249.53 171.64 L 242.46 145.27" fill="none" stroke="hsl(352 55% 38%)" stroke-width="1.6" stroke-linejoin="round"/><path d="M 350.47 171.64 L 357.54 145.27" fill="none" stroke="hsl(352 55% 38%)" stroke-width="1.6" stroke-linejoin="round"/><path d="M 437.89 222.11 L 457.19 202.81" fill="none" stroke="hsl(352 55% 38%)" stroke-width="1.6" stroke-linejoin="round"/><path d="M 488.36 309.53 L 514.73 302.46" fill="none" stroke="hsl(352 55% 38%)" stroke-width="1.6" stroke-linejoin="round"/><path d="M 105 360 a 195 195 0 1 0 390 0 a 195 195 0 1 0 -390 0 Z" fill="none" stroke="hsl(352 55% 38%)" stroke-width="1.6" stroke-linejoin="round"/></g>
  <g transform="translate(300,640)">
    <rect x="-110" y="-26" width="220" height="34" rx="17" fill="#ffffff" opacity="0.8"/>
    <text x="0" y="-3" text-anchor="middle" font-family="Quicksand, Arial, sans-serif" font-size="16" font-weight="600" fill="hsl(352 55% 38%)">🧁 Kawaii &amp; Süßes</text>
  </g>
  <text x="300" y="700" text-anchor="middle" font-family="Quicksand, Arial, sans-serif" font-size="40" font-weight="700" fill="#2b2540"><tspan x="300" dy="0">Kawaii &amp; Süßes –</tspan><tspan x="300" dy="44">Vol. 2</tspan></text>
  <text x="300" y="772" text-anchor="middle" font-family="Arial, sans-serif" font-size="15" fill="#5b5470">Malbuch · 40 Seiten</text>
</svg>