<svg xmlns="http://www.w3.org/2000/svg" viewBox="0 0 600 800" width="600" height="800">
  <defs>
    <linearGradient id="bg" x1="0" y1="0" x2="0" y2="1">
      <stop offset="0" stop-color="hsl(352 70% 95%)"/><stop offset="1" stop-color="hsl(32 70% 92%)"/>
    </linearGradient>
  </defs>
  <rect width="600" height="800" fill="url(#bg)"/>
  <rect x="22" y="22" width="556" height="756" rx="28" fill="none" stroke="hsl(352 55% 38%)" stroke-width="2" opacity="0.5"/>
  <text x="300" y="74" text-anchor="middle" font-family="Quicksand, Arial, sans-serif" font-size="26" font-weight="700" fill="hsl(352 55% 38%)">&#10022; Coloreo</text>
  <g transform="translate(0,40)"><path d="M 323.4 360 Q 335.17 372.84 349.14 360 Q 335.17 347.16 323.4 360 Z" fill="none" stroke="hsl(352 55% 38%)" stroke-width="1.6" stroke-linejoin="round"/><path d="M 316.55 376.55 Q 315.79 393.95 334.75 394.75 Q 333.95 375.79 316.55 376.55 Z" fill="none" stroke="hsl(352 55% 38%)" stroke-width="1.6" stroke-linejoin="round"/><path d="M 300 383.4 Q 287.16 395.17 300 409.14 Q 312.84 395.17 300 383.4 Z" fill="none" stroke="hsl(352 55% 38%)" stroke-width="1.6" stroke-linejoin="round"/><path d="M 283.45 376.55 Q 266.05 375.79 265.25 394.75 Q 284.21 393.95 283.45 376.55 Z" fill="none" stroke="hsl(352 55% 38%)" stroke-width="1.6" stroke-linejoin="round"/><path d="M 276.6 360 Q 264.83 347.16 250.86 360 Q 264.83 372.84 276.6 360 Z" fill="none" stroke="hsl(352 55% 38%)" stroke-width="1.6" stroke-linejoin="round"/><path d="M 283.45 343.45 Q 284.21 326.05 265.25 325.25 Q 266.05 344.21 283.45 343.45 Z" fill="none" stroke="hsl(352 55% 38%)" stroke-width="1.6" stroke-linejoin="round"/><path d="M 300 336.6 Q 312.84 324.83 300 310.86 Q 287.16 324.83 300 336.6 Z" fill="none" stroke="hsl(352 55% 38%)" stroke-width="1.6" stroke-linejoin="round"/><path d="M 316.55 343.45 Q 333.95 344.21 334.75 325.25 Q 315.79 326.05 316.55 343.45 Z" fill="none" stroke="hsl(352 55% 38%)" stroke-width="1.6" stroke-linejoin="round"/><path d="M 300 345.96 C 307.75 345.96 314.04 352.25 314.04 360 C 314.04 367.75 307.75 374.04 300 374.04 C 292.25 374.04 285.96 367.75 285.96 360 C 285.96 352.25 292.25 345.96 300 345.96 Z" fill="none" stroke="hsl(352 55% 38%)" stroke-width="1.6" stroke-linejoin="round"/><path d="M 300 295 C 335.9 295 365 324.1 365 360 C 365 395.9 335.9 425 300 425 C 264.1 425 235 395.9 235 360 C 235 324.1 264.1 295 300 295 Z" fill="none" stroke="hsl(352 55% 38%)" stroke-width="1.6" stroke-linejoin="round"/><path d="M 360.05 384.87 Q 365.55 402.27 384.07 394.82 Q 376.24 376.47 360.05 384.87 Z" fill="none" stroke="hsl(352 55% 38%)" stroke-width="1.6" stroke-linejoin="round"/><path d="M 324.87 420.05 Q 316.47 436.24 334.82 444.07 Q 342.27 425.55 324.87 420.05 Z" fill="none" stroke="hsl(352 55% 38%)" stroke-width="1.6" stroke-linejoin="round"/><path d="M 275.13 420.05 Q 257.73 425.55 265.18 444.07 Q 283.53 436.24 275.13 420.05 Z" fill="none" stroke="hsl(352 55% 38%)" stroke-width="1.6" stroke-linejoin="round"/><path d="M 239.95 384.87 Q 223.76 376.47 215.93 394.82 Q 234.45 402.27 239.95 384.87 Z" fill="none" stroke="hsl(352 55% 38%)" stroke-width="1.6" stroke-linejoin="round"/><path d="M 239.95 335.13 Q 234.45 317.73 215.93 325.18 Q 223.76 343.53 239.95 335.13 Z" fill="none" stroke="hsl(352 55% 38%)" stroke-width="1.6" stroke-linejoin="round"/><path d="M 275.13 299.95 Q 283.53 283.76 265.18 275.93 Q 257.73 294.45 275.13 299.95 Z" fill="none" stroke="hsl(352 55% 38%)" stroke-width="1.6" stroke-linejoin="round"/><path d="M 324.87 299.95 Q 342.27 294.45 334.82 275.93 Q 316.47 283.76 324.87 299.95 Z" fill="none" stroke="hsl(352 55% 38%)" stroke-width="1.6" stroke-linejoin="round"/><path d="M 360.05 335.13 Q 376.24 343.53 384.07 325.18 Q 365.55 317.73 360.05 335.13 Z" fill="none" stroke="hsl(352 55% 38%)" stroke-width="1.6" stroke-linejoin="round"/><path d="M 300 262.5 C 353.85 262.5 397.5 306.15 397.5 360 C 397.5 413.85 353.85 457.5 300 457.5 C 246.15 457.5 202.5 413.85 202.5 360 C 202.5 306.15 246.15 262.5 300 262.5 Z" fill="none" stroke="hsl(352 55% 38%)" stroke-width="1.6" stroke-linejoin="round"/><path d="M 397.5 352.72 C 401.52 352.72 404.78 355.98 404.78 360 C 404.78 364.02 401.52 367.28 397.5 367.28 C 393.48 367.28 390.22 364.02 390.22 360 C 390.22 355.98 393.48 352.72 397.5 352.72 Z" fill="none" stroke="hsl(352 55% 38%)" stroke-width="1.6" stroke-linejoin="round"/><path d="M 390.08 390.03 C 394.1 390.03 397.36 393.29 397.36 397.31 C 397.36 401.33 394.1 404.59 390.08 404.59 C 386.06 404.59 382.8 401.33 382.8 397.31 C 382.8 393.29 386.06 390.03 390.08 390.03 Z" fill="none" stroke="hsl(352 55% 38%)" stroke-width="1.6" stroke-linejoin="round"/><path d="M 368.94 421.66 C 372.96 421.66 376.22 424.92 376.22 428.94 C 376.22 432.96 372.96 436.22 368.94 436.22 C 364.92 436.22 361.66 432.96 361.66 428.94 C 361.66 424.92 364.92 421.66 368.94 421.66 Z" fill="none" stroke="hsl(352 55% 38%)" stroke-width="1.6" stroke-linejoin="round"/><path d="M 337.31 442.8 C 341.33 442.8 344.59 446.06 344.59 450.08 C 344.59 454.1 341.33 457.36 337.31 457.36 C 333.29 457.36 330.03 454.1 330.03 450.08 C 330.03 446.06 333.29 442.8 337.31 442.8 Z" fill="none" stroke="hsl(352 55% 38%)" stroke-width="1.6" stroke-linejoin="round"/><path d="M 300 450.22 C 304.02 450.22 307.28 453.48 307.28 457.5 C 307.28 461.52 304.02 464.78 300 464.78 C 295.98 464.78 292.72 461.52 292.72 457.5 C 292.72 453.48 295.98 450.22 300 450.22 Z" fill="none" stroke="hsl(352 55% 38%)" stroke-width="1.6" stroke-linejoin="round"/><path d="M 262.69 442.8 C 266.71 442.8 269.97 446.06 269.97 450.08 C 269.97 454.1 266.71 457.36 262.69 457.36 C 258.67 457.36 255.41 454.1 255.41 450.08 C 255.41 446.06 258.67 442.8 262.69 442.8 Z" fill="none" stroke="hsl(352 55% 38%)" stroke-width="1.6" stroke-linejoin="round"/><path d="M 231.06 421.66 C 235.08 421.66 238.34 424.92 238.34 428.94 C 238.34 432.96 235.08 436.22 231.06 436.22 C 227.04 436.22 223.78 432.96 223.78 428.94 C 223.78 424.92 227.04 421.66 231.06 421.66 Z" fill="none" stroke="hsl(352 55% 38%)" stroke-width="1.6" stroke-linejoin="round"/><path d="M 209.92 390.03 C 213.94 390.03 217.2 393.29 217.2 397.31 C 217.2 401.33 213.94 404.59 209.92 404.59 C 205.9 404.59 202.64 401.33 202.64 397.31 C 202.64 393.29 205.9 390.03 209.92 390.03 Z" fill="none" stroke="hsl(352 55% 38%)" stroke-width="1.6" stroke-linejoin="round"/><path d="M 202.5 352.72 C 206.52 352.72 209.78 355.98 209.78 360 C 209.78 364.02 206.52 367.28 202.5 367.28 C 198.48 367.28 195.22 364.02 195.22 360 C 195.22 355.98 198.48 352.72 202.5 352.72 Z" fill="none" stroke="hsl(352 55% 38%)" stroke-width="1.6" stroke-linejoin="round"/><path d="M 209.92 315.41 C 213.94 315.41 217.2 318.67 217.2 322.69 C 217.2 326.71 213.94 329.97 209.92 329.97 C 205.9 329.97 202.64 326.71 202.64 322.69 C 202.64 318.67 205.9 315.41 209.92 315.41 Z" fill="none" stroke="hsl(352 55% 38%)" stroke-width="1.6" stroke-linejoin="round"/><path d="M 231.06 283.78 C 235.08 283.78 238.34 287.04 238.34 291.06 C 238.34 295.08 235.08 298.34 231.06 298.34 C 227.04 298.34 223.78 295.08 223.78 291.06 C 223.78 287.04 227.04 283.78 231.06 283.78 Z" fill="none" stroke="hsl(352 55% 38%)" stroke-width="1.6" stroke-linejoin="round"/><path d="M 262.69 262.64 C 266.71 262.64 269.97 265.9 269.97 269.92 C 269.97 273.94 266.71 277.2 262.69 277.2 C 258.67 277.2 255.41 273.94 255.41 269.92 C 255.41 265.9 258.67 262.64 262.69 262.64 Z" fill="none" stroke="hsl(352 55% 38%)" stroke-width="1.6" stroke-linejoin="round"/><path d="M 300 255.22 C 304.02 255.22 307.28 258.48 307.28 262.5 C 307.28 266.52 304.02 269.78 300 269.78 C 295.98 269.78 292.72 266.52 292.72 262.5 C 292.72 258.48 295.98 255.22 300 255.22 Z" fill="none" stroke="hsl(352 55% 38%)" stroke-width="1.6" stroke-linejoin="round"/><path d="M 337.31 262.64 C 341.33 262.64 344.59 265.9 344.59 269.92 C 344.59 273.94 341.33 277.2 337.31 277.2 C 333.29 277.2 330.03 273.94 330.03 269.92 C 330.03 265.9 333.29 262.64 337.31 262.64 Z" fill="none" stroke="hsl(352 55% 38%)" stroke-width="1.6" stroke-linejoin="round"/><path d="M 368.94 283.78 C 372.96 283.78 376.22 287.04 376.22 291.06 C 376.22 295.08 372.96 298.34 368.94 298.34 C 364.92 298.34 361.66 295.08 361.66 291.06 C 361.66 287.04 364.92 283.78 368.94 283.78 Z" fill="none" stroke="hsl(352 55% 38%)" stroke-width="1.6" stroke-linejoin="round"/><path d="M 390.08 315.41 C 394.1 315.41 397.36 318.67 397.36 322.69 C 397.36 326.71 394.1 329.97 390.08 329.97 C 386.06 329.97 382.8 326.71 382.8 322.69 C 382.8 318.67 386.06 315.41 390.08 315.41 Z" fill="none" stroke="hsl(352 55% 38%)" stroke-width="1.6" stroke-linejoin="round"/><path d="M 300 230 C 371.8 230 430 288.2 430 360 C 430 431.8 371.8 490 300 490 C 228.2 490 170 431.8 170 360 C 170 288.2 228.2 230 300 230 Z" fill="none" stroke="hsl(352 55% 38%)" stroke-width="1.6" stroke-linejoin="round"/><path d="M 420.1 409.75 Q 420.18 437.49 444.13 419.7 Q 439.78 390.19 420.1 409.75 Z" fill="none" stroke="hsl(352 55% 38%)" stroke-width="1.6" stroke-linejoin="round"/><path d="M 349.75 480.1 Q 330.19 499.78 359.7 504.13 Q 377.49 480.18 349.75 480.1 Z" fill="none" stroke="hsl(352 55% 38%)" stroke-width="1.6" stroke-linejoin="round"/><path d="M 250.25 480.1 Q 222.51 480.18 240.3 504.13 Q 269.81 499.78 250.25 480.1 Z" fill="none" stroke="hsl(352 55% 38%)" stroke-width="1.6" stroke-linejoin="round"/><path d="M 179.9 409.75 Q 160.22 390.19 155.87 419.7 Q 179.82 437.49 179.9 409.75 Z" fill="none" stroke="hsl(352 55% 38%)" stroke-width="1.6" stroke-linejoin="round"/><path d="M 179.9 310.25 Q 179.82 282.51 155.87 300.3 Q 160.22 329.81 179.9 310.25 Z" fill="none" stroke="hsl(352 55% 38%)" stroke-width="1.6" stroke-linejoin="round"/><path d="M 250.25 239.9 Q 269.81 220.22 240.3 215.87 Q 222.51 239.82 250.25 239.9 Z" fill="none" stroke="hsl(352 55% 38%)" stroke-width="1.6" stroke-linejoin="round"/><path d="M 349.75 239.9 Q 377.49 239.82 359.7 215.87 Q 330.19 220.22 349.75 239.9 Z" fill="none" stroke="hsl(352 55% 38%)" stroke-width="1.6" stroke-linejoin="round"/><path d="M 420.1 310.25 Q 439.78 329.81 444.13 300.3 Q 420.18 282.51 420.1 310.25 Z" fill="none" stroke="hsl(352 55% 38%)" stroke-width="1.6" stroke-linejoin="round"/><path d="M 300 197.5 C 389.75 197.5 462.5 270.25 462.5 360 C 462.5 449.75 389.75 522.5 300 522.5 C 210.25 522.5 137.5 449.75 137.5 360 C 137.5 270.25 210.25 197.5 300 197.5 Z" fill="none" stroke="hsl(352 55% 38%)" stroke-width="1.6" stroke-linejoin="round"/><path d="M 462.5 352.72 C 466.52 352.72 469.78 355.98 469.78 360 C 469.78 364.02 466.52 367.28 462.5 367.28 C 458.48 367.28 455.22 364.02 455.22 360 C 455.22 355.98 458.48 352.72 462.5 352.72 Z" fill="none" stroke="hsl(352 55% 38%)" stroke-width="1.6" stroke-linejoin="round"/><path d="M 450.13 414.91 C 454.15 414.91 457.41 418.17 457.41 422.19 C 457.41 426.21 454.15 429.47 450.13 429.47 C 446.11 429.47 442.85 426.21 442.85 422.19 C 442.85 418.17 446.11 414.91 450.13 414.91 Z" fill="none" stroke="hsl(352 55% 38%)" stroke-width="1.6" stroke-linejoin="round"/><path d="M 414.9 467.62 C 418.93 467.62 422.18 470.88 422.18 474.9 C 422.18 478.93 418.93 482.18 414.9 482.18 C 410.88 482.18 407.62 478.93 407.62 474.9 C 407.62 470.88 410.88 467.62 414.9 467.62 Z" fill="none" stroke="hsl(352 55% 38%)" stroke-width="1.6" stroke-linejoin="round"/><path d="M 362.19 502.85 C 366.21 502.85 369.47 506.11 369.47 510.13 C 369.47 514.15 366.21 517.41 362.19 517.41 C 358.17 517.41 354.91 514.15 354.91 510.13 C 354.91 506.11 358.17 502.85 362.19 502.85 Z" fill="none" stroke="hsl(352 55% 38%)" stroke-width="1.6" stroke-linejoin="round"/><path d="M 300 515.22 C 304.02 515.22 307.28 518.48 307.28 522.5 C 307.28 526.52 304.02 529.78 300 529.78 C 295.98 529.78 292.72 526.52 292.72 522.5 C 292.72 518.48 295.98 515.22 300 515.22 Z" fill="none" stroke="hsl(352 55% 38%)" stroke-width="1.6" stroke-linejoin="round"/><path d="M 237.81 502.85 C 241.83 502.85 245.09 506.11 245.09 510.13 C 245.09 514.15 241.83 517.41 237.81 517.41 C 233.79 517.41 230.53 514.15 230.53 510.13 C 230.53 506.11 233.79 502.85 237.81 502.85 Z" fill="none" stroke="hsl(352 55% 38%)" stroke-width="1.6" stroke-linejoin="round"/><path d="M 185.1 467.62 C 189.12 467.62 192.38 470.88 192.38 474.9 C 192.38 478.93 189.12 482.18 185.1 482.18 C 181.07 482.18 177.82 478.93 177.82 474.9 C 177.82 470.88 181.07 467.62 185.1 467.62 Z" fill="none" stroke="hsl(352 55% 38%)" stroke-width="1.6" stroke-linejoin="round"/><path d="M 149.87 414.91 C 153.89 414.91 157.15 418.17 157.15 422.19 C 157.15 426.21 153.89 429.47 149.87 429.47 C 145.85 429.47 142.59 426.21 142.59 422.19 C 142.59 418.17 145.85 414.91 149.87 414.91 Z" fill="none" stroke="hsl(352 55% 38%)" stroke-width="1.6" stroke-linejoin="round"/><path d="M 137.5 352.72 C 141.52 352.72 144.78 355.98 144.78 360 C 144.78 364.02 141.52 367.28 137.5 367.28 C 133.48 367.28 130.22 364.02 130.22 360 C 130.22 355.98 133.48 352.72 137.5 352.72 Z" fill="none" stroke="hsl(352 55% 38%)" stroke-width="1.6" stroke-linejoin="round"/><path d="M 149.87 290.53 C 153.89 290.53 157.15 293.79 157.15 297.81 C 157.15 301.83 153.89 305.09 149.87 305.09 C 145.85 305.09 142.59 301.83 142.59 297.81 C 142.59 293.79 145.85 290.53 149.87 290.53 Z" fill="none" stroke="hsl(352 55% 38%)" stroke-width="1.6" stroke-linejoin="round"/><path d="M 185.1 237.82 C 189.12 237.82 192.38 241.07 192.38 245.1 C 192.38 249.12 189.12 252.38 185.1 252.38 C 181.07 252.38 177.82 249.12 177.82 245.1 C 177.82 241.07 181.07 237.82 185.1 237.82 Z" fill="none" stroke="hsl(352 55% 38%)" stroke-width="1.6" stroke-linejoin="round"/><path d="M 237.81 202.59 C 241.83 202.59 245.09 205.85 245.09 209.87 C 245.09 213.89 241.83 217.15 237.81 217.15 C 233.79 217.15 230.53 213.89 230.53 209.87 C 230.53 205.85 233.79 202.59 237.81 202.59 Z" fill="none" stroke="hsl(352 55% 38%)" stroke-width="1.6" stroke-linejoin="round"/><path d="M 300 190.22 C 304.02 190.22 307.28 193.48 307.28 197.5 C 307.28 201.52 304.02 204.78 300 204.78 C 295.98 204.78 292.72 201.52 292.72 197.5 C 292.72 193.48 295.98 190.22 300 190.22 Z" fill="none" stroke="hsl(352 55% 38%)" stroke-width="1.6" stroke-linejoin="round"/><path d="M 362.19 202.59 C 366.21 202.59 369.47 205.85 369.47 209.87 C 369.47 213.89 366.21 217.15 362.19 217.15 C 358.17 217.15 354.91 213.89 354.91 209.87 C 354.91 205.85 358.17 202.59 362.19 202.59 Z" fill="none" stroke="hsl(352 55% 38%)" stroke-width="1.6" stroke-linejoin="round"/><path d="M 414.9 237.82 C 418.93 237.82 422.18 241.07 422.18 245.1 C 422.18 249.12 418.93 252.38 414.9 252.38 C 410.88 252.38 407.62 249.12 407.62 245.1 C 407.62 241.07 410.88 237.82 414.9 237.82 Z" fill="none" stroke="hsl(352 55% 38%)" stroke-width="1.6" stroke-linejoin="round"/><path d="M 450.13 290.53 C 454.15 290.53 457.41 293.79 457.41 297.81 C 457.41 301.83 454.15 305.09 450.13 305.09 C 446.11 305.09 442.85 301.83 442.85 297.81 C 442.85 293.79 446.11 290.53 450.13 290.53 Z" fill="none" stroke="hsl(352 55% 38%)" stroke-width="1.6" stroke-linejoin="round"/><path d="M 300 165 C 407.7 165 495 252.3 495 360 C 495 467.7 407.7 555 300 555 C 192.3 555 105 467.7 105 360 C 105 252.3 192.3 165 300 165 Z" fill="none" stroke="hsl(352 55% 38%)" stroke-width="1.6" stroke-linejoin="round"/><path d="M 480.16 434.62 L 496.97 441.59" fill="none" stroke="hsl(352 55% 38%)" stroke-width="1.6" stroke-linejoin="round"/><path d="M 374.62 540.16 L 381.59 556.97" fill="none" stroke="hsl(352 55% 38%)" stroke-width="1.6" stroke-linejoin="round"/><path d="M 225.38 540.16 L 218.41 556.97" fill="none" stroke="hsl(352 55% 38%)" stroke-width="1.6" stroke-linejoin="round"/><path d="M 119.84 434.62 L 103.03 441.59" fill="none" stroke="hsl(352 55% 38%)" stroke-width="1.6" stroke-linejoin="round"/><path d="M 119.84 285.38 L 103.03 278.41" fill="none" stroke="hsl(352 55% 38%)" stroke-width="1.6" stroke-linejoin="round"/><path d="M 225.38 179.84 L 218.41 163.03" fill="none" stroke="hsl(352 55% 38%)" stroke-width="1.6" stroke-linejoin="round"/><path d="M 374.62 179.84 L 381.59 163.03" fill="none" stroke="hsl(352 55% 38%)" stroke-width="1.6" stroke-linejoin="round"/><path d="M 480.16 285.38 L 496.97 278.41" fill="none" stroke="hsl(352 55% 38%)" stroke-width="1.6" stroke-linejoin="round"/><path d="M 300 165 C 407.7 165 495 252.3 495 360 C 495 467.7 407.7 555 300 555 C 192.3 555 105 467.7 105 360 C 105 252.3 192.3 165 300 165 Z" fill="none" stroke="hsl(352 55% 38%)" stroke-width="1.6" stroke-linejoin="round"/></g>
  <g transform="translate(300,640)">
    <rect x="-110" y="-26" width="220" height="34" rx="17" fill="#ffffff" opacity="0.8"/>
    <text x="0" y="-3" text-anchor="middle" font-family="Quicksand, Arial, sans-serif" font-size="16" font-weight="600" fill="hsl(352 55% 38%)">🧁 Kawaii &amp; Süßes</text>
  </g>
  <text x="300" y="700" text-anchor="middle" font-family="Quicksand, Arial, sans-serif" font-size="40" font-weight="700" fill="#2b2540"><tspan x="300" dy="0">Kawaii &amp; Süßes –</tspan><tspan x="300" dy="44">Vol. 1</tspan></text>
  <text x="300" y="772" text-anchor="middle" font-family="Arial, sans-serif" font-size="15" fill="#5b5470">Malbuch · 24 Seiten</text>
</svg>