<svg xmlns="http://www.w3.org/2000/svg" viewBox="0 0 600 800" width="600" height="800">
  <defs>
    <linearGradient id="bg" x1="0" y1="0" x2="0" y2="1">
      <stop offset="0" stop-color="hsl(126 70% 95%)"/><stop offset="1" stop-color="hsl(166 70% 92%)"/>
    </linearGradient>
  </defs>
  <rect width="600" height="800" fill="url(#bg)"/>
  <rect x="22" y="22" width="556" height="756" rx="28" fill="none" stroke="hsl(126 55% 38%)" stroke-width="2" opacity="0.5"/>
  <text x="300" y="74" text-anchor="middle" font-family="Quicksand, Arial, sans-serif" font-size="26" font-weight="700" fill="hsl(126 55% 38%)">&#10022; Coloreo</text>
  <g transform="translate(0,40)"><path d="M 323.4 360 Q 335.17 372.84 349.14 360 Q 335.17 347.16 323.4 360 Z" fill="none" stroke="hsl(126 55% 38%)" stroke-width="1.6" stroke-linejoin="round"/><path d="M 320.26 371.7 Q 324.04 388.7 342.56 384.57 Q 336.88 366.47 320.26 371.7 Z" fill="none" stroke="hsl(126 55% 38%)" stroke-width="1.6" stroke-linejoin="round"/><path d="M 311.7 380.26 Q 306.47 396.88 324.57 402.56 Q 328.7 384.04 311.7 380.26 Z" fill="none" stroke="hsl(126 55% 38%)" stroke-width="1.6" stroke-linejoin="round"/><path d="M 300 383.4 Q 287.16 395.17 300 409.14 Q 312.84 395.17 300 383.4 Z" fill="none" stroke="hsl(126 55% 38%)" stroke-width="1.6" stroke-linejoin="round"/><path d="M 288.3 380.26 Q 271.3 384.04 275.43 402.56 Q 293.53 396.88 288.3 380.26 Z" fill="none" stroke="hsl(126 55% 38%)" stroke-width="1.6" stroke-linejoin="round"/><path d="M 279.74 371.7 Q 263.12 366.47 257.44 384.57 Q 275.96 388.7 279.74 371.7 Z" fill="none" stroke="hsl(126 55% 38%)" stroke-width="1.6" stroke-linejoin="round"/><path d="M 276.6 360 Q 264.83 347.16 250.86 360 Q 264.83 372.84 276.6 360 Z" fill="none" stroke="hsl(126 55% 38%)" stroke-width="1.6" stroke-linejoin="round"/><path d="M 279.74 348.3 Q 275.96 331.3 257.44 335.43 Q 263.12 353.53 279.74 348.3 Z" fill="none" stroke="hsl(126 55% 38%)" stroke-width="1.6" stroke-linejoin="round"/><path d="M 288.3 339.74 Q 293.53 323.12 275.43 317.44 Q 271.3 335.96 288.3 339.74 Z" fill="none" stroke="hsl(126 55% 38%)" stroke-width="1.6" stroke-linejoin="round"/><path d="M 300 336.6 Q 312.84 324.83 300 310.86 Q 287.16 324.83 300 336.6 Z" fill="none" stroke="hsl(126 55% 38%)" stroke-width="1.6" stroke-linejoin="round"/><path d="M 311.7 339.74 Q 328.7 335.96 324.57 317.44 Q 306.47 323.12 311.7 339.74 Z" fill="none" stroke="hsl(126 55% 38%)" stroke-width="1.6" stroke-linejoin="round"/><path d="M 320.26 348.3 Q 336.88 353.53 342.56 335.43 Q 324.04 331.3 320.26 348.3 Z" fill="none" stroke="hsl(126 55% 38%)" stroke-width="1.6" stroke-linejoin="round"/><path d="M 300 345.96 C 307.75 345.96 314.04 352.25 314.04 360 C 314.04 367.75 307.75 374.04 300 374.04 C 292.25 374.04 285.96 367.75 285.96 360 C 285.96 352.25 292.25 345.96 300 345.96 Z" fill="none" stroke="hsl(126 55% 38%)" stroke-width="1.6" stroke-linejoin="round"/><path d="M 300 282 C 343.08 282 378 316.92 378 360 C 378 403.08 343.08 438 300 438 C 256.92 438 222 403.08 222 360 C 222 316.92 256.92 282 300 282 Z" fill="none" stroke="hsl(126 55% 38%)" stroke-width="1.6" stroke-linejoin="round"/><path d="M 375.34 380.19 Q 384.61 400.02 405.48 388.26 Q 393.29 367.65 375.34 380.19 Z" fill="none" stroke="hsl(126 55% 38%)" stroke-width="1.6" stroke-linejoin="round"/><path d="M 355.15 415.15 Q 353.27 436.96 377.22 437.22 Q 376.96 413.27 355.15 415.15 Z" fill="none" stroke="hsl(126 55% 38%)" stroke-width="1.6" stroke-linejoin="round"/><path d="M 320.19 435.34 Q 307.65 453.29 328.26 465.48 Q 340.02 444.61 320.19 435.34 Z" fill="none" stroke="hsl(126 55% 38%)" stroke-width="1.6" stroke-linejoin="round"/><path d="M 279.81 435.34 Q 259.98 444.61 271.74 465.48 Q 292.35 453.29 279.81 435.34 Z" fill="none" stroke="hsl(126 55% 38%)" stroke-width="1.6" stroke-linejoin="round"/><path d="M 244.85 415.15 Q 223.04 413.27 222.78 437.22 Q 246.73 436.96 244.85 415.15 Z" fill="none" stroke="hsl(126 55% 38%)" stroke-width="1.6" stroke-linejoin="round"/><path d="M 224.66 380.19 Q 206.71 367.65 194.52 388.26 Q 215.39 400.02 224.66 380.19 Z" fill="none" stroke="hsl(126 55% 38%)" stroke-width="1.6" stroke-linejoin="round"/><path d="M 224.66 339.81 Q 215.39 319.98 194.52 331.74 Q 206.71 352.35 224.66 339.81 Z" fill="none" stroke="hsl(126 55% 38%)" stroke-width="1.6" stroke-linejoin="round"/><path d="M 244.85 304.85 Q 246.73 283.04 222.78 282.78 Q 223.04 306.73 244.85 304.85 Z" fill="none" stroke="hsl(126 55% 38%)" stroke-width="1.6" stroke-linejoin="round"/><path d="M 279.81 284.66 Q 292.35 266.71 271.74 254.52 Q 259.98 275.39 279.81 284.66 Z" fill="none" stroke="hsl(126 55% 38%)" stroke-width="1.6" stroke-linejoin="round"/><path d="M 320.19 284.66 Q 340.02 275.39 328.26 254.52 Q 307.65 266.71 320.19 284.66 Z" fill="none" stroke="hsl(126 55% 38%)" stroke-width="1.6" stroke-linejoin="round"/><path d="M 355.15 304.85 Q 376.96 306.73 377.22 282.78 Q 353.27 283.04 355.15 304.85 Z" fill="none" stroke="hsl(126 55% 38%)" stroke-width="1.6" stroke-linejoin="round"/><path d="M 375.34 339.81 Q 393.29 352.35 405.48 331.74 Q 384.61 319.98 375.34 339.81 Z" fill="none" stroke="hsl(126 55% 38%)" stroke-width="1.6" stroke-linejoin="round"/><path d="M 300 243 C 364.62 243 417 295.38 417 360 C 417 424.62 364.62 477 300 477 C 235.38 477 183 424.62 183 360 C 183 295.38 235.38 243 300 243 Z" fill="none" stroke="hsl(126 55% 38%)" stroke-width="1.6" stroke-linejoin="round"/><path d="M 417 360 L 438.84 360" fill="none" stroke="hsl(126 55% 38%)" stroke-width="1.6" stroke-linejoin="round"/><path d="M 413.01 390.28 L 434.11 395.93" fill="none" stroke="hsl(126 55% 38%)" stroke-width="1.6" stroke-linejoin="round"/><path d="M 401.32 418.5 L 420.24 429.42" fill="none" stroke="hsl(126 55% 38%)" stroke-width="1.6" stroke-linejoin="round"/><path d="M 382.73 442.73 L 398.17 458.17" fill="none" stroke="hsl(126 55% 38%)" stroke-width="1.6" stroke-linejoin="round"/><path d="M 358.5 461.32 L 369.42 480.24" fill="none" stroke="hsl(126 55% 38%)" stroke-width="1.6" stroke-linejoin="round"/><path d="M 330.28 473.01 L 335.93 494.11" fill="none" stroke="hsl(126 55% 38%)" stroke-width="1.6" stroke-linejoin="round"/><path d="M 300 477 L 300 498.84" fill="none" stroke="hsl(126 55% 38%)" stroke-width="1.6" stroke-linejoin="round"/><path d="M 269.72 473.01 L 264.07 494.11" fill="none" stroke="hsl(126 55% 38%)" stroke-width="1.6" stroke-linejoin="round"/><path d="M 241.5 461.32 L 230.58 480.24" fill="none" stroke="hsl(126 55% 38%)" stroke-width="1.6" stroke-linejoin="round"/><path d="M 217.27 442.73 L 201.83 458.17" fill="none" stroke="hsl(126 55% 38%)" stroke-width="1.6" stroke-linejoin="round"/><path d="M 198.68 418.5 L 179.76 429.42" fill="none" stroke="hsl(126 55% 38%)" stroke-width="1.6" stroke-linejoin="round"/><path d="M 186.99 390.28 L 165.89 395.93" fill="none" stroke="hsl(126 55% 38%)" stroke-width="1.6" stroke-linejoin="round"/><path d="M 183 360 L 161.16 360" fill="none" stroke="hsl(126 55% 38%)" stroke-width="1.6" stroke-linejoin="round"/><path d="M 186.99 329.72 L 165.89 324.07" fill="none" stroke="hsl(126 55% 38%)" stroke-width="1.6" stroke-linejoin="round"/><path d="M 198.68 301.5 L 179.76 290.58" fill="none" stroke="hsl(126 55% 38%)" stroke-width="1.6" stroke-linejoin="round"/><path d="M 217.27 277.27 L 201.83 261.83" fill="none" stroke="hsl(126 55% 38%)" stroke-width="1.6" stroke-linejoin="round"/><path d="M 241.5 258.68 L 230.58 239.76" fill="none" stroke="hsl(126 55% 38%)" stroke-width="1.6" stroke-linejoin="round"/><path d="M 269.72 246.99 L 264.07 225.89" fill="none" stroke="hsl(126 55% 38%)" stroke-width="1.6" stroke-linejoin="round"/><path d="M 300 243 L 300 221.16" fill="none" stroke="hsl(126 55% 38%)" stroke-width="1.6" stroke-linejoin="round"/><path d="M 330.28 246.99 L 335.93 225.89" fill="none" stroke="hsl(126 55% 38%)" stroke-width="1.6" stroke-linejoin="round"/><path d="M 358.5 258.68 L 369.42 239.76" fill="none" stroke="hsl(126 55% 38%)" stroke-width="1.6" stroke-linejoin="round"/><path d="M 382.73 277.27 L 398.17 261.83" fill="none" stroke="hsl(126 55% 38%)" stroke-width="1.6" stroke-linejoin="round"/><path d="M 401.32 301.5 L 420.24 290.58" fill="none" stroke="hsl(126 55% 38%)" stroke-width="1.6" stroke-linejoin="round"/><path d="M 413.01 329.72 L 434.11 324.07" fill="none" stroke="hsl(126 55% 38%)" stroke-width="1.6" stroke-linejoin="round"/><path d="M 300 204 C 386.16 204 456 273.84 456 360 C 456 446.16 386.16 516 300 516 C 213.84 516 144 446.16 144 360 C 144 273.84 213.84 204 300 204 Z" fill="none" stroke="hsl(126 55% 38%)" stroke-width="1.6" stroke-linejoin="round"/><path d="M 450.68 400.38 Q 455.12 433.37 480.82 408.45 Q 471.03 374.02 450.68 400.38 Z" fill="none" stroke="hsl(126 55% 38%)" stroke-width="1.6" stroke-linejoin="round"/><path d="M 410.31 470.31 Q 397.66 501.1 432.37 492.37 Q 441.1 457.66 410.31 470.31 Z" fill="none" stroke="hsl(126 55% 38%)" stroke-width="1.6" stroke-linejoin="round"/><path d="M 340.38 510.68 Q 314.02 531.03 348.45 540.82 Q 373.37 515.12 340.38 510.68 Z" fill="none" stroke="hsl(126 55% 38%)" stroke-width="1.6" stroke-linejoin="round"/><path d="M 259.62 510.68 Q 226.63 515.12 251.55 540.82 Q 285.98 531.03 259.62 510.68 Z" fill="none" stroke="hsl(126 55% 38%)" stroke-width="1.6" stroke-linejoin="round"/><path d="M 189.69 470.31 Q 158.9 457.66 167.63 492.37 Q 202.34 501.1 189.69 470.31 Z" fill="none" stroke="hsl(126 55% 38%)" stroke-width="1.6" stroke-linejoin="round"/><path d="M 149.32 400.38 Q 128.97 374.02 119.18 408.45 Q 144.88 433.37 149.32 400.38 Z" fill="none" stroke="hsl(126 55% 38%)" stroke-width="1.6" stroke-linejoin="round"/><path d="M 149.32 319.62 Q 144.88 286.63 119.18 311.55 Q 128.97 345.98 149.32 319.62 Z" fill="none" stroke="hsl(126 55% 38%)" stroke-width="1.6" stroke-linejoin="round"/><path d="M 189.69 249.69 Q 202.34 218.9 167.63 227.63 Q 158.9 262.34 189.69 249.69 Z" fill="none" stroke="hsl(126 55% 38%)" stroke-width="1.6" stroke-linejoin="round"/><path d="M 259.62 209.32 Q 285.98 188.97 251.55 179.18 Q 226.63 204.88 259.62 209.32 Z" fill="none" stroke="hsl(126 55% 38%)" stroke-width="1.6" stroke-linejoin="round"/><path d="M 340.38 209.32 Q 373.37 204.88 348.45 179.18 Q 314.02 188.97 340.38 209.32 Z" fill="none" stroke="hsl(126 55% 38%)" stroke-width="1.6" stroke-linejoin="round"/><path d="M 410.31 249.69 Q 441.1 262.34 432.37 227.63 Q 397.66 218.9 410.31 249.69 Z" fill="none" stroke="hsl(126 55% 38%)" stroke-width="1.6" stroke-linejoin="round"/><path d="M 450.68 319.62 Q 471.03 345.98 480.82 311.55 Q 455.12 286.63 450.68 319.62 Z" fill="none" stroke="hsl(126 55% 38%)" stroke-width="1.6" stroke-linejoin="round"/><path d="M 300 165 C 407.7 165 495 252.3 495 360 C 495 467.7 407.7 555 300 555 C 192.3 555 105 467.7 105 360 C 105 252.3 192.3 165 300 165 Z" fill="none" stroke="hsl(126 55% 38%)" stroke-width="1.6" stroke-linejoin="round"/><path d="M 495 360 Q 507.2 397.7 526.2 360 Q 507.2 322.3 495 360 Z" fill="none" stroke="hsl(126 55% 38%)" stroke-width="1.6" stroke-linejoin="round"/><path d="M 488.36 410.47 Q 490.38 450.05 518.49 418.54 Q 509.9 377.21 488.36 410.47 Z" fill="none" stroke="hsl(126 55% 38%)" stroke-width="1.6" stroke-linejoin="round"/><path d="M 468.87 457.5 Q 460.59 496.25 495.89 473.1 Q 498.29 430.95 468.87 457.5 Z" fill="none" stroke="hsl(126 55% 38%)" stroke-width="1.6" stroke-linejoin="round"/><path d="M 437.89 497.89 Q 419.85 533.17 459.95 519.95 Q 473.17 479.85 437.89 497.89 Z" fill="none" stroke="hsl(126 55% 38%)" stroke-width="1.6" stroke-linejoin="round"/><path d="M 397.5 528.87 Q 370.95 558.29 413.1 555.89 Q 436.25 520.59 397.5 528.87 Z" fill="none" stroke="hsl(126 55% 38%)" stroke-width="1.6" stroke-linejoin="round"/><path d="M 350.47 548.36 Q 317.21 569.9 358.54 578.49 Q 390.05 550.38 350.47 548.36 Z" fill="none" stroke="hsl(126 55% 38%)" stroke-width="1.6" stroke-linejoin="round"/><path d="M 300 555 Q 262.3 567.2 300 586.2 Q 337.7 567.2 300 555 Z" fill="none" stroke="hsl(126 55% 38%)" stroke-width="1.6" stroke-linejoin="round"/><path d="M 249.53 548.36 Q 209.95 550.38 241.46 578.49 Q 282.79 569.9 249.53 548.36 Z" fill="none" stroke="hsl(126 55% 38%)" stroke-width="1.6" stroke-linejoin="round"/><path d="M 202.5 528.87 Q 163.75 520.59 186.9 555.89 Q 229.05 558.29 202.5 528.87 Z" fill="none" stroke="hsl(126 55% 38%)" stroke-width="1.6" stroke-linejoin="round"/><path d="M 162.11 497.89 Q 126.83 479.85 140.05 519.95 Q 180.15 533.17 162.11 497.89 Z" fill="none" stroke="hsl(126 55% 38%)" stroke-width="1.6" stroke-linejoin="round"/><path d="M 131.13 457.5 Q 101.71 430.95 104.11 473.1 Q 139.41 496.25 131.13 457.5 Z" fill="none" stroke="hsl(126 55% 38%)" stroke-width="1.6" stroke-linejoin="round"/><path d="M 111.64 410.47 Q 90.1 377.21 81.51 418.54 Q 109.62 450.05 111.64 410.47 Z" fill="none" stroke="hsl(126 55% 38%)" stroke-width="1.6" stroke-linejoin="round"/><path d="M 105 360 Q 92.8 322.3 73.8 360 Q 92.8 397.7 105 360 Z" fill="none" stroke="hsl(126 55% 38%)" stroke-width="1.6" stroke-linejoin="round"/><path d="M 111.64 309.53 Q 109.62 269.95 81.51 301.46 Q 90.1 342.79 111.64 309.53 Z" fill="none" stroke="hsl(126 55% 38%)" stroke-width="1.6" stroke-linejoin="round"/><path d="M 131.13 262.5 Q 139.41 223.75 104.11 246.9 Q 101.71 289.05 131.13 262.5 Z" fill="none" stroke="hsl(126 55% 38%)" stroke-width="1.6" stroke-linejoin="round"/><path d="M 162.11 222.11 Q 180.15 186.83 140.05 200.05 Q 126.83 240.15 162.11 222.11 Z" fill="none" stroke="hsl(126 55% 38%)" stroke-width="1.6" stroke-linejoin="round"/><path d="M 202.5 191.13 Q 229.05 161.71 186.9 164.11 Q 163.75 199.41 202.5 191.13 Z" fill="none" stroke="hsl(126 55% 38%)" stroke-width="1.6" stroke-linejoin="round"/><path d="M 249.53 171.64 Q 282.79 150.1 241.46 141.51 Q 209.95 169.62 249.53 171.64 Z" fill="none" stroke="hsl(126 55% 38%)" stroke-width="1.6" stroke-linejoin="round"/><path d="M 300 165 Q 337.7 152.8 300 133.8 Q 262.3 152.8 300 165 Z" fill="none" stroke="hsl(126 55% 38%)" stroke-width="1.6" stroke-linejoin="round"/><path d="M 350.47 171.64 Q 390.05 169.62 358.54 141.51 Q 317.21 150.1 350.47 171.64 Z" fill="none" stroke="hsl(126 55% 38%)" stroke-width="1.6" stroke-linejoin="round"/><path d="M 397.5 191.13 Q 436.25 199.41 413.1 164.11 Q 370.95 161.71 397.5 191.13 Z" fill="none" stroke="hsl(126 55% 38%)" stroke-width="1.6" stroke-linejoin="round"/><path d="M 437.89 222.11 Q 473.17 240.15 459.95 200.05 Q 419.85 186.83 437.89 222.11 Z" fill="none" stroke="hsl(126 55% 38%)" stroke-width="1.6" stroke-linejoin="round"/><path d="M 468.87 262.5 Q 498.29 289.05 495.89 246.9 Q 460.59 223.75 468.87 262.5 Z" fill="none" stroke="hsl(126 55% 38%)" stroke-width="1.6" stroke-linejoin="round"/><path d="M 488.36 309.53 Q 509.9 342.79 518.49 301.46 Q 490.38 269.95 488.36 309.53 Z" fill="none" stroke="hsl(126 55% 38%)" stroke-width="1.6" stroke-linejoin="round"/><path d="M 300 165 C 407.7 165 495 252.3 495 360 C 495 467.7 407.7 555 300 555 C 192.3 555 105 467.7 105 360 C 105 252.3 192.3 165 300 165 Z" fill="none" stroke="hsl(126 55% 38%)" stroke-width="1.6" stroke-linejoin="round"/></g>
  <g transform="translate(300,640)">
    <rect x="-110" y="-26" width="220" height="34" rx="17" fill="#ffffff" opacity="0.8"/>
    <text x="0" y="-3" text-anchor="middle" font-family="Quicksand, Arial, sans-serif" font-size="16" font-weight="600" fill="hsl(126 55% 38%)">🌀 Mandalas</text>
  </g>
  <text x="300" y="700" text-anchor="middle" font-family="Quicksand, Arial, sans-serif" font-size="40" font-weight="700" fill="#2b2540"><tspan x="300" dy="0">Mandalas – Vol. 2</tspan></text>
  <text x="300" y="772" text-anchor="middle" font-family="Arial, sans-serif" font-size="15" fill="#5b5470">Malbuch · 24 Seiten</text>
</svg>