<svg xmlns="http://www.w3.org/2000/svg" viewBox="0 0 600 800" width="600" height="800">
  <defs>
    <linearGradient id="bg" x1="0" y1="0" x2="0" y2="1">
      <stop offset="0" stop-color="hsl(277 70% 95%)"/><stop offset="1" stop-color="hsl(317 70% 92%)"/>
    </linearGradient>
  </defs>
  <rect width="600" height="800" fill="url(#bg)"/>
  <rect x="22" y="22" width="556" height="756" rx="28" fill="none" stroke="hsl(277 55% 38%)" stroke-width="2" opacity="0.5"/>
  <text x="300" y="74" text-anchor="middle" font-family="Quicksand, Arial, sans-serif" font-size="26" font-weight="700" fill="hsl(277 55% 38%)">&#10022; Coloreo</text>
  <g transform="translate(0,40)"><path d="M 323.4 360 Q 335.17 372.84 349.14 360 Q 335.17 347.16 323.4 360 Z" fill="none" stroke="hsl(277 55% 38%)" stroke-width="1.6" stroke-linejoin="round"/><path d="M 320.26 371.7 Q 324.04 388.7 342.56 384.57 Q 336.88 366.47 320.26 371.7 Z" fill="none" stroke="hsl(277 55% 38%)" stroke-width="1.6" stroke-linejoin="round"/><path d="M 311.7 380.26 Q 306.47 396.88 324.57 402.56 Q 328.7 384.04 311.7 380.26 Z" fill="none" stroke="hsl(277 55% 38%)" stroke-width="1.6" stroke-linejoin="round"/><path d="M 300 383.4 Q 287.16 395.17 300 409.14 Q 312.84 395.17 300 383.4 Z" fill="none" stroke="hsl(277 55% 38%)" stroke-width="1.6" stroke-linejoin="round"/><path d="M 288.3 380.26 Q 271.3 384.04 275.43 402.56 Q 293.53 396.88 288.3 380.26 Z" fill="none" stroke="hsl(277 55% 38%)" stroke-width="1.6" stroke-linejoin="round"/><path d="M 279.74 371.7 Q 263.12 366.47 257.44 384.57 Q 275.96 388.7 279.74 371.7 Z" fill="none" stroke="hsl(277 55% 38%)" stroke-width="1.6" stroke-linejoin="round"/><path d="M 276.6 360 Q 264.83 347.16 250.86 360 Q 264.83 372.84 276.6 360 Z" fill="none" stroke="hsl(277 55% 38%)" stroke-width="1.6" stroke-linejoin="round"/><path d="M 279.74 348.3 Q 275.96 331.3 257.44 335.43 Q 263.12 353.53 279.74 348.3 Z" fill="none" stroke="hsl(277 55% 38%)" stroke-width="1.6" stroke-linejoin="round"/><path d="M 288.3 339.74 Q 293.53 323.12 275.43 317.44 Q 271.3 335.96 288.3 339.74 Z" fill="none" stroke="hsl(277 55% 38%)" stroke-width="1.6" stroke-linejoin="round"/><path d="M 300 336.6 Q 312.84 324.83 300 310.86 Q 287.16 324.83 300 336.6 Z" fill="none" stroke="hsl(277 55% 38%)" stroke-width="1.6" stroke-linejoin="round"/><path d="M 311.7 339.74 Q 328.7 335.96 324.57 317.44 Q 306.47 323.12 311.7 339.74 Z" fill="none" stroke="hsl(277 55% 38%)" stroke-width="1.6" stroke-linejoin="round"/><path d="M 320.26 348.3 Q 336.88 353.53 342.56 335.43 Q 324.04 331.3 320.26 348.3 Z" fill="none" stroke="hsl(277 55% 38%)" stroke-width="1.6" stroke-linejoin="round"/><path d="M 285.96 360 a 14.04 14.04 0 1 0 28.08 0 a 14.04 14.04 0 1 0 -28.08 0 Z" fill="none" stroke="hsl(277 55% 38%)" stroke-width="1.6" stroke-linejoin="round"/><path d="M 202.5 360 a 97.5 97.5 0 1 0 195 0 a 97.5 97.5 0 1 0 -195 0 Z" fill="none" stroke="hsl(277 55% 38%)" stroke-width="1.6" stroke-linejoin="round"/><path d="M 394.18 385.23 L 420.55 392.3" fill="none" stroke="hsl(277 55% 38%)" stroke-width="1.6" stroke-linejoin="round"/><path d="M 368.94 428.94 L 388.25 448.25" fill="none" stroke="hsl(277 55% 38%)" stroke-width="1.6" stroke-linejoin="round"/><path d="M 325.23 454.18 L 332.3 480.55" fill="none" stroke="hsl(277 55% 38%)" stroke-width="1.6" stroke-linejoin="round"/><path d="M 274.77 454.18 L 267.7 480.55" fill="none" stroke="hsl(277 55% 38%)" stroke-width="1.6" stroke-linejoin="round"/><path d="M 231.06 428.94 L 211.75 448.25" fill="none" stroke="hsl(277 55% 38%)" stroke-width="1.6" stroke-linejoin="round"/><path d="M 205.82 385.23 L 179.45 392.3" fill="none" stroke="hsl(277 55% 38%)" stroke-width="1.6" stroke-linejoin="round"/><path d="M 205.82 334.77 L 179.45 327.7" fill="none" stroke="hsl(277 55% 38%)" stroke-width="1.6" stroke-linejoin="round"/><path d="M 231.06 291.06 L 211.75 271.75" fill="none" stroke="hsl(277 55% 38%)" stroke-width="1.6" stroke-linejoin="round"/><path d="M 274.77 265.82 L 267.7 239.45" fill="none" stroke="hsl(277 55% 38%)" stroke-width="1.6" stroke-linejoin="round"/><path d="M 325.23 265.82 L 332.3 239.45" fill="none" stroke="hsl(277 55% 38%)" stroke-width="1.6" stroke-linejoin="round"/><path d="M 368.94 291.06 L 388.25 271.75" fill="none" stroke="hsl(277 55% 38%)" stroke-width="1.6" stroke-linejoin="round"/><path d="M 394.18 334.77 L 420.55 327.7" fill="none" stroke="hsl(277 55% 38%)" stroke-width="1.6" stroke-linejoin="round"/><path d="M 153.75 360 a 146.25 146.25 0 1 0 292.5 0 a 146.25 146.25 0 1 0 -292.5 0 Z" fill="none" stroke="hsl(277 55% 38%)" stroke-width="1.6" stroke-linejoin="round"/><path d="M 435.33 360 a 10.92 10.92 0 1 0 21.84 0 a 10.92 10.92 0 1 0 -21.84 0 Z" fill="none" stroke="hsl(277 55% 38%)" stroke-width="1.6" stroke-linejoin="round"/><path d="M 430.35 397.85 a 10.92 10.92 0 1 0 21.84 0 a 10.92 10.92 0 1 0 -21.84 0 Z" fill="none" stroke="hsl(277 55% 38%)" stroke-width="1.6" stroke-linejoin="round"/><path d="M 415.74 433.13 a 10.92 10.92 0 1 0 21.84 0 a 10.92 10.92 0 1 0 -21.84 0 Z" fill="none" stroke="hsl(277 55% 38%)" stroke-width="1.6" stroke-linejoin="round"/><path d="M 392.49 463.41 a 10.92 10.92 0 1 0 21.84 0 a 10.92 10.92 0 1 0 -21.84 0 Z" fill="none" stroke="hsl(277 55% 38%)" stroke-width="1.6" stroke-linejoin="round"/><path d="M 362.2 486.66 a 10.92 10.92 0 1 0 21.84 0 a 10.92 10.92 0 1 0 -21.84 0 Z" fill="none" stroke="hsl(277 55% 38%)" stroke-width="1.6" stroke-linejoin="round"/><path d="M 326.93 501.27 a 10.92 10.92 0 1 0 21.84 0 a 10.92 10.92 0 1 0 -21.84 0 Z" fill="none" stroke="hsl(277 55% 38%)" stroke-width="1.6" stroke-linejoin="round"/><path d="M 289.08 506.25 a 10.92 10.92 0 1 0 21.84 0 a 10.92 10.92 0 1 0 -21.84 0 Z" fill="none" stroke="hsl(277 55% 38%)" stroke-width="1.6" stroke-linejoin="round"/><path d="M 251.23 501.27 a 10.92 10.92 0 1 0 21.84 0 a 10.92 10.92 0 1 0 -21.84 0 Z" fill="none" stroke="hsl(277 55% 38%)" stroke-width="1.6" stroke-linejoin="round"/><path d="M 215.96 486.66 a 10.92 10.92 0 1 0 21.84 0 a 10.92 10.92 0 1 0 -21.84 0 Z" fill="none" stroke="hsl(277 55% 38%)" stroke-width="1.6" stroke-linejoin="round"/><path d="M 185.67 463.41 a 10.92 10.92 0 1 0 21.84 0 a 10.92 10.92 0 1 0 -21.84 0 Z" fill="none" stroke="hsl(277 55% 38%)" stroke-width="1.6" stroke-linejoin="round"/><path d="M 162.42 433.13 a 10.92 10.92 0 1 0 21.84 0 a 10.92 10.92 0 1 0 -21.84 0 Z" fill="none" stroke="hsl(277 55% 38%)" stroke-width="1.6" stroke-linejoin="round"/><path d="M 147.81 397.85 a 10.92 10.92 0 1 0 21.84 0 a 10.92 10.92 0 1 0 -21.84 0 Z" fill="none" stroke="hsl(277 55% 38%)" stroke-width="1.6" stroke-linejoin="round"/><path d="M 142.83 360 a 10.92 10.92 0 1 0 21.84 0 a 10.92 10.92 0 1 0 -21.84 0 Z" fill="none" stroke="hsl(277 55% 38%)" stroke-width="1.6" stroke-linejoin="round"/><path d="M 147.81 322.15 a 10.92 10.92 0 1 0 21.84 0 a 10.92 10.92 0 1 0 -21.84 0 Z" fill="none" stroke="hsl(277 55% 38%)" stroke-width="1.6" stroke-linejoin="round"/><path d="M 162.42 286.88 a 10.92 10.92 0 1 0 21.84 0 a 10.92 10.92 0 1 0 -21.84 0 Z" fill="none" stroke="hsl(277 55% 38%)" stroke-width="1.6" stroke-linejoin="round"/><path d="M 185.67 256.59 a 10.92 10.92 0 1 0 21.84 0 a 10.92 10.92 0 1 0 -21.84 0 Z" fill="none" stroke="hsl(277 55% 38%)" stroke-width="1.6" stroke-linejoin="round"/><path d="M 215.95 233.34 a 10.92 10.92 0 1 0 21.84 0 a 10.92 10.92 0 1 0 -21.84 0 Z" fill="none" stroke="hsl(277 55% 38%)" stroke-width="1.6" stroke-linejoin="round"/><path d="M 251.23 218.73 a 10.92 10.92 0 1 0 21.84 0 a 10.92 10.92 0 1 0 -21.84 0 Z" fill="none" stroke="hsl(277 55% 38%)" stroke-width="1.6" stroke-linejoin="round"/><path d="M 289.08 213.75 a 10.92 10.92 0 1 0 21.84 0 a 10.92 10.92 0 1 0 -21.84 0 Z" fill="none" stroke="hsl(277 55% 38%)" stroke-width="1.6" stroke-linejoin="round"/><path d="M 326.93 218.73 a 10.92 10.92 0 1 0 21.84 0 a 10.92 10.92 0 1 0 -21.84 0 Z" fill="none" stroke="hsl(277 55% 38%)" stroke-width="1.6" stroke-linejoin="round"/><path d="M 362.2 233.34 a 10.92 10.92 0 1 0 21.84 0 a 10.92 10.92 0 1 0 -21.84 0 Z" fill="none" stroke="hsl(277 55% 38%)" stroke-width="1.6" stroke-linejoin="round"/><path d="M 392.49 256.59 a 10.92 10.92 0 1 0 21.84 0 a 10.92 10.92 0 1 0 -21.84 0 Z" fill="none" stroke="hsl(277 55% 38%)" stroke-width="1.6" stroke-linejoin="round"/><path d="M 415.74 286.87 a 10.92 10.92 0 1 0 21.84 0 a 10.92 10.92 0 1 0 -21.84 0 Z" fill="none" stroke="hsl(277 55% 38%)" stroke-width="1.6" stroke-linejoin="round"/><path d="M 430.35 322.15 a 10.92 10.92 0 1 0 21.84 0 a 10.92 10.92 0 1 0 -21.84 0 Z" fill="none" stroke="hsl(277 55% 38%)" stroke-width="1.6" stroke-linejoin="round"/><path d="M 105 360 a 195 195 0 1 0 390 0 a 195 195 0 1 0 -390 0 Z" fill="none" stroke="hsl(277 55% 38%)" stroke-width="1.6" stroke-linejoin="round"/><path d="M 488.36 410.47 Q 493.9 451.71 526.03 420.56 Q 513.78 377.53 488.36 410.47 Z" fill="none" stroke="hsl(277 55% 38%)" stroke-width="1.6" stroke-linejoin="round"/><path d="M 437.89 497.89 Q 422.07 536.38 465.46 525.46 Q 476.38 482.07 437.89 497.89 Z" fill="none" stroke="hsl(277 55% 38%)" stroke-width="1.6" stroke-linejoin="round"/><path d="M 350.47 548.36 Q 317.53 573.78 360.56 586.03 Q 391.71 553.9 350.47 548.36 Z" fill="none" stroke="hsl(277 55% 38%)" stroke-width="1.6" stroke-linejoin="round"/><path d="M 249.53 548.36 Q 208.29 553.9 239.44 586.03 Q 282.47 573.78 249.53 548.36 Z" fill="none" stroke="hsl(277 55% 38%)" stroke-width="1.6" stroke-linejoin="round"/><path d="M 162.11 497.89 Q 123.62 482.07 134.54 525.46 Q 177.93 536.38 162.11 497.89 Z" fill="none" stroke="hsl(277 55% 38%)" stroke-width="1.6" stroke-linejoin="round"/><path d="M 111.64 410.47 Q 86.22 377.53 73.97 420.56 Q 106.1 451.71 111.64 410.47 Z" fill="none" stroke="hsl(277 55% 38%)" stroke-width="1.6" stroke-linejoin="round"/><path d="M 111.64 309.53 Q 106.1 268.29 73.97 299.44 Q 86.22 342.47 111.64 309.53 Z" fill="none" stroke="hsl(277 55% 38%)" stroke-width="1.6" stroke-linejoin="round"/><path d="M 162.11 222.11 Q 177.93 183.62 134.54 194.54 Q 123.62 237.93 162.11 222.11 Z" fill="none" stroke="hsl(277 55% 38%)" stroke-width="1.6" stroke-linejoin="round"/><path d="M 249.53 171.64 Q 282.47 146.22 239.44 133.97 Q 208.29 166.1 249.53 171.64 Z" fill="none" stroke="hsl(277 55% 38%)" stroke-width="1.6" stroke-linejoin="round"/><path d="M 350.47 171.64 Q 391.71 166.1 360.56 133.97 Q 317.53 146.22 350.47 171.64 Z" fill="none" stroke="hsl(277 55% 38%)" stroke-width="1.6" stroke-linejoin="round"/><path d="M 437.89 222.11 Q 476.38 237.93 465.46 194.54 Q 422.07 183.62 437.89 222.11 Z" fill="none" stroke="hsl(277 55% 38%)" stroke-width="1.6" stroke-linejoin="round"/><path d="M 488.36 309.53 Q 513.78 342.47 526.03 299.44 Q 493.9 268.29 488.36 309.53 Z" fill="none" stroke="hsl(277 55% 38%)" stroke-width="1.6" stroke-linejoin="round"/><path d="M 105 360 a 195 195 0 1 0 390 0 a 195 195 0 1 0 -390 0 Z" fill="none" stroke="hsl(277 55% 38%)" stroke-width="1.6" stroke-linejoin="round"/></g>
  <g transform="translate(300,640)">
    <rect x="-110" y="-26" width="220" height="34" rx="17" fill="#ffffff" opacity="0.8"/>
    <text x="0" y="-3" text-anchor="middle" font-family="Quicksand, Arial, sans-serif" font-size="16" font-weight="600" fill="hsl(277 55% 38%)">🐚 Meereswelt</text>
  </g>
  <text x="300" y="700" text-anchor="middle" font-family="Quicksand, Arial, sans-serif" font-size="40" font-weight="700" fill="#2b2540"><tspan x="300" dy="0">Meereswelt – Vol.</tspan><tspan x="300" dy="44">2</tspan></text>
  <text x="300" y="772" text-anchor="middle" font-family="Arial, sans-serif" font-size="15" fill="#5b5470">Malbuch · 40 Seiten</text>
</svg>