<svg xmlns="http://www.w3.org/2000/svg" viewBox="0 0 600 800" width="600" height="800">
  <defs>
    <linearGradient id="bg" x1="0" y1="0" x2="0" y2="1">
      <stop offset="0" stop-color="hsl(277 70% 95%)"/><stop offset="1" stop-color="hsl(317 70% 92%)"/>
    </linearGradient>
  </defs>
  <rect width="600" height="800" fill="url(#bg)"/>
  <rect x="22" y="22" width="556" height="756" rx="28" fill="none" stroke="hsl(277 55% 38%)" stroke-width="2" opacity="0.5"/>
  <text x="300" y="74" text-anchor="middle" font-family="Quicksand, Arial, sans-serif" font-size="26" font-weight="700" fill="hsl(277 55% 38%)">&#10022; Coloreo</text>
  <g transform="translate(0,40)"><path d="M 323.4 360 Q 335.17 372.84 349.14 360 Q 335.17 347.16 323.4 360 Z" fill="none" stroke="hsl(277 55% 38%)" stroke-width="1.6" stroke-linejoin="round"/><path d="M 320.26 371.7 Q 324.04 388.7 342.56 384.57 Q 336.88 366.47 320.26 371.7 Z" fill="none" stroke="hsl(277 55% 38%)" stroke-width="1.6" stroke-linejoin="round"/><path d="M 311.7 380.26 Q 306.47 396.88 324.57 402.56 Q 328.7 384.04 311.7 380.26 Z" fill="none" stroke="hsl(277 55% 38%)" stroke-width="1.6" stroke-linejoin="round"/><path d="M 300 383.4 Q 287.16 395.17 300 409.14 Q 312.84 395.17 300 383.4 Z" fill="none" stroke="hsl(277 55% 38%)" stroke-width="1.6" stroke-linejoin="round"/><path d="M 288.3 380.26 Q 271.3 384.04 275.43 402.56 Q 293.53 396.88 288.3 380.26 Z" fill="none" stroke="hsl(277 55% 38%)" stroke-width="1.6" stroke-linejoin="round"/><path d="M 279.74 371.7 Q 263.12 366.47 257.44 384.57 Q 275.96 388.7 279.74 371.7 Z" fill="none" stroke="hsl(277 55% 38%)" stroke-width="1.6" stroke-linejoin="round"/><path d="M 276.6 360 Q 264.83 347.16 250.86 360 Q 264.83 372.84 276.6 360 Z" fill="none" stroke="hsl(277 55% 38%)" stroke-width="1.6" stroke-linejoin="round"/><path d="M 279.74 348.3 Q 275.96 331.3 257.44 335.43 Q 263.12 353.53 279.74 348.3 Z" fill="none" stroke="hsl(277 55% 38%)" stroke-width="1.6" stroke-linejoin="round"/><path d="M 288.3 339.74 Q 293.53 323.12 275.43 317.44 Q 271.3 335.96 288.3 339.74 Z" fill="none" stroke="hsl(277 55% 38%)" stroke-width="1.6" stroke-linejoin="round"/><path d="M 300 336.6 Q 312.84 324.83 300 310.86 Q 287.16 324.83 300 336.6 Z" fill="none" stroke="hsl(277 55% 38%)" stroke-width="1.6" stroke-linejoin="round"/><path d="M 311.7 339.74 Q 328.7 335.96 324.57 317.44 Q 306.47 323.12 311.7 339.74 Z" fill="none" stroke="hsl(277 55% 38%)" stroke-width="1.6" stroke-linejoin="round"/><path d="M 320.26 348.3 Q 336.88 353.53 342.56 335.43 Q 324.04 331.3 320.26 348.3 Z" fill="none" stroke="hsl(277 55% 38%)" stroke-width="1.6" stroke-linejoin="round"/><path d="M 300 345.96 C 307.75 345.96 314.04 352.25 314.04 360 C 314.04 367.75 307.75 374.04 300 374.04 C 292.25 374.04 285.96 367.75 285.96 360 C 285.96 352.25 292.25 345.96 300 345.96 Z" fill="none" stroke="hsl(277 55% 38%)" stroke-width="1.6" stroke-linejoin="round"/><path d="M 300 262.5 C 353.85 262.5 397.5 306.15 397.5 360 C 397.5 413.85 353.85 457.5 300 457.5 C 246.15 457.5 202.5 413.85 202.5 360 C 202.5 306.15 246.15 262.5 300 262.5 Z" fill="none" stroke="hsl(277 55% 38%)" stroke-width="1.6" stroke-linejoin="round"/><path d="M 394.18 385.23 L 420.55 392.3" fill="none" stroke="hsl(277 55% 38%)" stroke-width="1.6" stroke-linejoin="round"/><path d="M 368.94 428.94 L 388.25 448.25" fill="none" stroke="hsl(277 55% 38%)" stroke-width="1.6" stroke-linejoin="round"/><path d="M 325.23 454.18 L 332.3 480.55" fill="none" stroke="hsl(277 55% 38%)" stroke-width="1.6" stroke-linejoin="round"/><path d="M 274.77 454.18 L 267.7 480.55" fill="none" stroke="hsl(277 55% 38%)" stroke-width="1.6" stroke-linejoin="round"/><path d="M 231.06 428.94 L 211.75 448.25" fill="none" stroke="hsl(277 55% 38%)" stroke-width="1.6" stroke-linejoin="round"/><path d="M 205.82 385.23 L 179.45 392.3" fill="none" stroke="hsl(277 55% 38%)" stroke-width="1.6" stroke-linejoin="round"/><path d="M 205.82 334.77 L 179.45 327.7" fill="none" stroke="hsl(277 55% 38%)" stroke-width="1.6" stroke-linejoin="round"/><path d="M 231.06 291.06 L 211.75 271.75" fill="none" stroke="hsl(277 55% 38%)" stroke-width="1.6" stroke-linejoin="round"/><path d="M 274.77 265.82 L 267.7 239.45" fill="none" stroke="hsl(277 55% 38%)" stroke-width="1.6" stroke-linejoin="round"/><path d="M 325.23 265.82 L 332.3 239.45" fill="none" stroke="hsl(277 55% 38%)" stroke-width="1.6" stroke-linejoin="round"/><path d="M 368.94 291.06 L 388.25 271.75" fill="none" stroke="hsl(277 55% 38%)" stroke-width="1.6" stroke-linejoin="round"/><path d="M 394.18 334.77 L 420.55 327.7" fill="none" stroke="hsl(277 55% 38%)" stroke-width="1.6" stroke-linejoin="round"/><path d="M 300 213.75 C 380.77 213.75 446.25 279.23 446.25 360 C 446.25 440.77 380.77 506.25 300 506.25 C 219.23 506.25 153.75 440.77 153.75 360 C 153.75 279.23 219.23 213.75 300 213.75 Z" fill="none" stroke="hsl(277 55% 38%)" stroke-width="1.6" stroke-linejoin="round"/><path d="M 446.25 349.08 C 452.28 349.08 457.17 353.97 457.17 360 C 457.17 366.03 452.28 370.92 446.25 370.92 C 440.22 370.92 435.33 366.03 435.33 360 C 435.33 353.97 440.22 349.08 446.25 349.08 Z" fill="none" stroke="hsl(277 55% 38%)" stroke-width="1.6" stroke-linejoin="round"/><path d="M 441.27 386.93 C 447.3 386.93 452.19 391.82 452.19 397.85 C 452.19 403.88 447.3 408.77 441.27 408.77 C 435.24 408.77 430.35 403.88 430.35 397.85 C 430.35 391.82 435.24 386.93 441.27 386.93 Z" fill="none" stroke="hsl(277 55% 38%)" stroke-width="1.6" stroke-linejoin="round"/><path d="M 426.66 422.2 C 432.69 422.2 437.58 427.09 437.58 433.13 C 437.58 439.16 432.69 444.05 426.66 444.05 C 420.63 444.05 415.74 439.16 415.74 433.13 C 415.74 427.09 420.63 422.2 426.66 422.2 Z" fill="none" stroke="hsl(277 55% 38%)" stroke-width="1.6" stroke-linejoin="round"/><path d="M 403.41 452.49 C 409.45 452.49 414.33 457.38 414.33 463.41 C 414.33 469.45 409.45 474.33 403.41 474.33 C 397.38 474.33 392.49 469.45 392.49 463.41 C 392.49 457.38 397.38 452.49 403.41 452.49 Z" fill="none" stroke="hsl(277 55% 38%)" stroke-width="1.6" stroke-linejoin="round"/><path d="M 373.13 475.74 C 379.16 475.74 384.05 480.63 384.05 486.66 C 384.05 492.69 379.16 497.58 373.13 497.58 C 367.09 497.58 362.2 492.69 362.2 486.66 C 362.2 480.63 367.09 475.74 373.13 475.74 Z" fill="none" stroke="hsl(277 55% 38%)" stroke-width="1.6" stroke-linejoin="round"/><path d="M 337.85 490.35 C 343.88 490.35 348.77 495.24 348.77 501.27 C 348.77 507.3 343.88 512.19 337.85 512.19 C 331.82 512.19 326.93 507.3 326.93 501.27 C 326.93 495.24 331.82 490.35 337.85 490.35 Z" fill="none" stroke="hsl(277 55% 38%)" stroke-width="1.6" stroke-linejoin="round"/><path d="M 300 495.33 C 306.03 495.33 310.92 500.22 310.92 506.25 C 310.92 512.28 306.03 517.17 300 517.17 C 293.97 517.17 289.08 512.28 289.08 506.25 C 289.08 500.22 293.97 495.33 300 495.33 Z" fill="none" stroke="hsl(277 55% 38%)" stroke-width="1.6" stroke-linejoin="round"/><path d="M 262.15 490.35 C 268.18 490.35 273.07 495.24 273.07 501.27 C 273.07 507.3 268.18 512.19 262.15 512.19 C 256.12 512.19 251.23 507.3 251.23 501.27 C 251.23 495.24 256.12 490.35 262.15 490.35 Z" fill="none" stroke="hsl(277 55% 38%)" stroke-width="1.6" stroke-linejoin="round"/><path d="M 226.88 475.74 C 232.91 475.74 237.8 480.63 237.8 486.66 C 237.8 492.69 232.91 497.58 226.88 497.58 C 220.84 497.58 215.96 492.69 215.96 486.66 C 215.96 480.63 220.84 475.74 226.88 475.74 Z" fill="none" stroke="hsl(277 55% 38%)" stroke-width="1.6" stroke-linejoin="round"/><path d="M 196.59 452.49 C 202.62 452.49 207.51 457.38 207.51 463.41 C 207.51 469.45 202.62 474.33 196.59 474.33 C 190.55 474.33 185.67 469.45 185.67 463.41 C 185.67 457.38 190.55 452.49 196.59 452.49 Z" fill="none" stroke="hsl(277 55% 38%)" stroke-width="1.6" stroke-linejoin="round"/><path d="M 173.34 422.2 C 179.37 422.2 184.26 427.09 184.26 433.13 C 184.26 439.16 179.37 444.05 173.34 444.05 C 167.31 444.05 162.42 439.16 162.42 433.13 C 162.42 427.09 167.31 422.2 173.34 422.2 Z" fill="none" stroke="hsl(277 55% 38%)" stroke-width="1.6" stroke-linejoin="round"/><path d="M 158.73 386.93 C 164.76 386.93 169.65 391.82 169.65 397.85 C 169.65 403.88 164.76 408.77 158.73 408.77 C 152.7 408.77 147.81 403.88 147.81 397.85 C 147.81 391.82 152.7 386.93 158.73 386.93 Z" fill="none" stroke="hsl(277 55% 38%)" stroke-width="1.6" stroke-linejoin="round"/><path d="M 153.75 349.08 C 159.78 349.08 164.67 353.97 164.67 360 C 164.67 366.03 159.78 370.92 153.75 370.92 C 147.72 370.92 142.83 366.03 142.83 360 C 142.83 353.97 147.72 349.08 153.75 349.08 Z" fill="none" stroke="hsl(277 55% 38%)" stroke-width="1.6" stroke-linejoin="round"/><path d="M 158.73 311.23 C 164.76 311.23 169.65 316.12 169.65 322.15 C 169.65 328.18 164.76 333.07 158.73 333.07 C 152.7 333.07 147.81 328.18 147.81 322.15 C 147.81 316.12 152.7 311.23 158.73 311.23 Z" fill="none" stroke="hsl(277 55% 38%)" stroke-width="1.6" stroke-linejoin="round"/><path d="M 173.34 275.95 C 179.37 275.95 184.26 280.84 184.26 286.88 C 184.26 292.91 179.37 297.8 173.34 297.8 C 167.31 297.8 162.42 292.91 162.42 286.88 C 162.42 280.84 167.31 275.95 173.34 275.95 Z" fill="none" stroke="hsl(277 55% 38%)" stroke-width="1.6" stroke-linejoin="round"/><path d="M 196.59 245.67 C 202.62 245.67 207.51 250.55 207.51 256.59 C 207.51 262.62 202.62 267.51 196.59 267.51 C 190.55 267.51 185.67 262.62 185.67 256.59 C 185.67 250.55 190.55 245.67 196.59 245.67 Z" fill="none" stroke="hsl(277 55% 38%)" stroke-width="1.6" stroke-linejoin="round"/><path d="M 226.87 222.42 C 232.91 222.42 237.79 227.31 237.79 233.34 C 237.79 239.37 232.91 244.26 226.87 244.26 C 220.84 244.26 215.95 239.37 215.95 233.34 C 215.95 227.31 220.84 222.42 226.87 222.42 Z" fill="none" stroke="hsl(277 55% 38%)" stroke-width="1.6" stroke-linejoin="round"/><path d="M 262.15 207.81 C 268.18 207.81 273.07 212.7 273.07 218.73 C 273.07 224.76 268.18 229.65 262.15 229.65 C 256.12 229.65 251.23 224.76 251.23 218.73 C 251.23 212.7 256.12 207.81 262.15 207.81 Z" fill="none" stroke="hsl(277 55% 38%)" stroke-width="1.6" stroke-linejoin="round"/><path d="M 300 202.83 C 306.03 202.83 310.92 207.72 310.92 213.75 C 310.92 219.78 306.03 224.67 300 224.67 C 293.97 224.67 289.08 219.78 289.08 213.75 C 289.08 207.72 293.97 202.83 300 202.83 Z" fill="none" stroke="hsl(277 55% 38%)" stroke-width="1.6" stroke-linejoin="round"/><path d="M 337.85 207.81 C 343.88 207.81 348.77 212.7 348.77 218.73 C 348.77 224.76 343.88 229.65 337.85 229.65 C 331.82 229.65 326.93 224.76 326.93 218.73 C 326.93 212.7 331.82 207.81 337.85 207.81 Z" fill="none" stroke="hsl(277 55% 38%)" stroke-width="1.6" stroke-linejoin="round"/><path d="M 373.13 222.42 C 379.16 222.42 384.05 227.31 384.05 233.34 C 384.05 239.37 379.16 244.26 373.13 244.26 C 367.09 244.26 362.2 239.37 362.2 233.34 C 362.2 227.31 367.09 222.42 373.13 222.42 Z" fill="none" stroke="hsl(277 55% 38%)" stroke-width="1.6" stroke-linejoin="round"/><path d="M 403.41 245.67 C 409.45 245.67 414.33 250.55 414.33 256.59 C 414.33 262.62 409.45 267.51 403.41 267.51 C 397.38 267.51 392.49 262.62 392.49 256.59 C 392.49 250.55 397.38 245.67 403.41 245.67 Z" fill="none" stroke="hsl(277 55% 38%)" stroke-width="1.6" stroke-linejoin="round"/><path d="M 426.66 275.95 C 432.69 275.95 437.58 280.84 437.58 286.87 C 437.58 292.91 432.69 297.79 426.66 297.79 C 420.63 297.79 415.74 292.91 415.74 286.87 C 415.74 280.84 420.63 275.95 426.66 275.95 Z" fill="none" stroke="hsl(277 55% 38%)" stroke-width="1.6" stroke-linejoin="round"/><path d="M 441.27 311.23 C 447.3 311.23 452.19 316.12 452.19 322.15 C 452.19 328.18 447.3 333.07 441.27 333.07 C 435.24 333.07 430.35 328.18 430.35 322.15 C 430.35 316.12 435.24 311.23 441.27 311.23 Z" fill="none" stroke="hsl(277 55% 38%)" stroke-width="1.6" stroke-linejoin="round"/><path d="M 300 165 C 407.7 165 495 252.3 495 360 C 495 467.7 407.7 555 300 555 C 192.3 555 105 467.7 105 360 C 105 252.3 192.3 165 300 165 Z" fill="none" stroke="hsl(277 55% 38%)" stroke-width="1.6" stroke-linejoin="round"/><path d="M 488.36 410.47 Q 493.9 451.71 526.03 420.56 Q 513.78 377.53 488.36 410.47 Z" fill="none" stroke="hsl(277 55% 38%)" stroke-width="1.6" stroke-linejoin="round"/><path d="M 437.89 497.89 Q 422.07 536.38 465.46 525.46 Q 476.38 482.07 437.89 497.89 Z" fill="none" stroke="hsl(277 55% 38%)" stroke-width="1.6" stroke-linejoin="round"/><path d="M 350.47 548.36 Q 317.53 573.78 360.56 586.03 Q 391.71 553.9 350.47 548.36 Z" fill="none" stroke="hsl(277 55% 38%)" stroke-width="1.6" stroke-linejoin="round"/><path d="M 249.53 548.36 Q 208.29 553.9 239.44 586.03 Q 282.47 573.78 249.53 548.36 Z" fill="none" stroke="hsl(277 55% 38%)" stroke-width="1.6" stroke-linejoin="round"/><path d="M 162.11 497.89 Q 123.62 482.07 134.54 525.46 Q 177.93 536.38 162.11 497.89 Z" fill="none" stroke="hsl(277 55% 38%)" stroke-width="1.6" stroke-linejoin="round"/><path d="M 111.64 410.47 Q 86.22 377.53 73.97 420.56 Q 106.1 451.71 111.64 410.47 Z" fill="none" stroke="hsl(277 55% 38%)" stroke-width="1.6" stroke-linejoin="round"/><path d="M 111.64 309.53 Q 106.1 268.29 73.97 299.44 Q 86.22 342.47 111.64 309.53 Z" fill="none" stroke="hsl(277 55% 38%)" stroke-width="1.6" stroke-linejoin="round"/><path d="M 162.11 222.11 Q 177.93 183.62 134.54 194.54 Q 123.62 237.93 162.11 222.11 Z" fill="none" stroke="hsl(277 55% 38%)" stroke-width="1.6" stroke-linejoin="round"/><path d="M 249.53 171.64 Q 282.47 146.22 239.44 133.97 Q 208.29 166.1 249.53 171.64 Z" fill="none" stroke="hsl(277 55% 38%)" stroke-width="1.6" stroke-linejoin="round"/><path d="M 350.47 171.64 Q 391.71 166.1 360.56 133.97 Q 317.53 146.22 350.47 171.64 Z" fill="none" stroke="hsl(277 55% 38%)" stroke-width="1.6" stroke-linejoin="round"/><path d="M 437.89 222.11 Q 476.38 237.93 465.46 194.54 Q 422.07 183.62 437.89 222.11 Z" fill="none" stroke="hsl(277 55% 38%)" stroke-width="1.6" stroke-linejoin="round"/><path d="M 488.36 309.53 Q 513.78 342.47 526.03 299.44 Q 493.9 268.29 488.36 309.53 Z" fill="none" stroke="hsl(277 55% 38%)" stroke-width="1.6" stroke-linejoin="round"/><path d="M 300 165 C 407.7 165 495 252.3 495 360 C 495 467.7 407.7 555 300 555 C 192.3 555 105 467.7 105 360 C 105 252.3 192.3 165 300 165 Z" fill="none" stroke="hsl(277 55% 38%)" stroke-width="1.6" stroke-linejoin="round"/></g>
  <g transform="translate(300,640)">
    <rect x="-110" y="-26" width="220" height="34" rx="17" fill="#ffffff" opacity="0.8"/>
    <text x="0" y="-3" text-anchor="middle" font-family="Quicksand, Arial, sans-serif" font-size="16" font-weight="600" fill="hsl(277 55% 38%)">🐚 Meereswelt</text>
  </g>
  <text x="300" y="700" text-anchor="middle" font-family="Quicksand, Arial, sans-serif" font-size="40" font-weight="700" fill="#2b2540"><tspan x="300" dy="0">Meereswelt – Vol.</tspan><tspan x="300" dy="44">2</tspan></text>
  <text x="300" y="772" text-anchor="middle" font-family="Arial, sans-serif" font-size="15" fill="#5b5470">Malbuch · 24 Seiten</text>
</svg>