<svg xmlns="http://www.w3.org/2000/svg" viewBox="0 0 600 800" width="600" height="800">
  <defs>
    <linearGradient id="bg" x1="0" y1="0" x2="0" y2="1">
      <stop offset="0" stop-color="hsl(277 70% 95%)"/><stop offset="1" stop-color="hsl(317 70% 92%)"/>
    </linearGradient>
  </defs>
  <rect width="600" height="800" fill="url(#bg)"/>
  <rect x="22" y="22" width="556" height="756" rx="28" fill="none" stroke="hsl(277 55% 38%)" stroke-width="2" opacity="0.5"/>
  <text x="300" y="74" text-anchor="middle" font-family="Quicksand, Arial, sans-serif" font-size="26" font-weight="700" fill="hsl(277 55% 38%)">&#10022; Coloreo</text>
  <g transform="translate(0,40)"><path d="M 323.4 360 Q 335.17 372.84 349.14 360 Q 335.17 347.16 323.4 360 Z" fill="none" stroke="hsl(277 55% 38%)" stroke-width="1.6" stroke-linejoin="round"/><path d="M 311.7 380.26 Q 306.47 396.88 324.57 402.56 Q 328.7 384.04 311.7 380.26 Z" fill="none" stroke="hsl(277 55% 38%)" stroke-width="1.6" stroke-linejoin="round"/><path d="M 288.3 380.26 Q 271.3 384.04 275.43 402.56 Q 293.53 396.88 288.3 380.26 Z" fill="none" stroke="hsl(277 55% 38%)" stroke-width="1.6" stroke-linejoin="round"/><path d="M 276.6 360 Q 264.83 347.16 250.86 360 Q 264.83 372.84 276.6 360 Z" fill="none" stroke="hsl(277 55% 38%)" stroke-width="1.6" stroke-linejoin="round"/><path d="M 288.3 339.74 Q 293.53 323.12 275.43 317.44 Q 271.3 335.96 288.3 339.74 Z" fill="none" stroke="hsl(277 55% 38%)" stroke-width="1.6" stroke-linejoin="round"/><path d="M 311.7 339.74 Q 328.7 335.96 324.57 317.44 Q 306.47 323.12 311.7 339.74 Z" fill="none" stroke="hsl(277 55% 38%)" stroke-width="1.6" stroke-linejoin="round"/><path d="M 285.96 360 a 14.04 14.04 0 1 0 28.08 0 a 14.04 14.04 0 1 0 -28.08 0 Z" fill="none" stroke="hsl(277 55% 38%)" stroke-width="1.6" stroke-linejoin="round"/><path d="M 222 360 a 78 78 0 1 0 156 0 a 78 78 0 1 0 -156 0 Z" fill="none" stroke="hsl(277 55% 38%)" stroke-width="1.6" stroke-linejoin="round"/><path d="M 358.81 399 a 8.74 8.74 0 1 0 17.47 0 a 8.74 8.74 0 1 0 -17.47 0 Z" fill="none" stroke="hsl(277 55% 38%)" stroke-width="1.6" stroke-linejoin="round"/><path d="M 291.26 438 a 8.74 8.74 0 1 0 17.47 0 a 8.74 8.74 0 1 0 -17.47 0 Z" fill="none" stroke="hsl(277 55% 38%)" stroke-width="1.6" stroke-linejoin="round"/><path d="M 223.71 399 a 8.74 8.74 0 1 0 17.47 0 a 8.74 8.74 0 1 0 -17.47 0 Z" fill="none" stroke="hsl(277 55% 38%)" stroke-width="1.6" stroke-linejoin="round"/><path d="M 223.71 321 a 8.74 8.74 0 1 0 17.47 0 a 8.74 8.74 0 1 0 -17.47 0 Z" fill="none" stroke="hsl(277 55% 38%)" stroke-width="1.6" stroke-linejoin="round"/><path d="M 291.26 282 a 8.74 8.74 0 1 0 17.47 0 a 8.74 8.74 0 1 0 -17.47 0 Z" fill="none" stroke="hsl(277 55% 38%)" stroke-width="1.6" stroke-linejoin="round"/><path d="M 358.81 321 a 8.74 8.74 0 1 0 17.47 0 a 8.74 8.74 0 1 0 -17.47 0 Z" fill="none" stroke="hsl(277 55% 38%)" stroke-width="1.6" stroke-linejoin="round"/><path d="M 183 360 a 117 117 0 1 0 234 0 a 117 117 0 1 0 -234 0 Z" fill="none" stroke="hsl(277 55% 38%)" stroke-width="1.6" stroke-linejoin="round"/><path d="M 417 360 Q 430.46 383.74 448.2 360 Q 430.46 336.26 417 360 Z" fill="none" stroke="hsl(277 55% 38%)" stroke-width="1.6" stroke-linejoin="round"/><path d="M 401.32 418.5 Q 401.11 445.79 428.34 434.1 Q 424.85 404.67 401.32 418.5 Z" fill="none" stroke="hsl(277 55% 38%)" stroke-width="1.6" stroke-linejoin="round"/><path d="M 358.5 461.32 Q 344.67 484.85 374.1 488.34 Q 385.79 461.11 358.5 461.32 Z" fill="none" stroke="hsl(277 55% 38%)" stroke-width="1.6" stroke-linejoin="round"/><path d="M 300 477 Q 276.26 490.46 300 508.2 Q 323.74 490.46 300 477 Z" fill="none" stroke="hsl(277 55% 38%)" stroke-width="1.6" stroke-linejoin="round"/><path d="M 241.5 461.32 Q 214.21 461.11 225.9 488.34 Q 255.33 484.85 241.5 461.32 Z" fill="none" stroke="hsl(277 55% 38%)" stroke-width="1.6" stroke-linejoin="round"/><path d="M 198.68 418.5 Q 175.15 404.67 171.66 434.1 Q 198.89 445.79 198.68 418.5 Z" fill="none" stroke="hsl(277 55% 38%)" stroke-width="1.6" stroke-linejoin="round"/><path d="M 183 360 Q 169.54 336.26 151.8 360 Q 169.54 383.74 183 360 Z" fill="none" stroke="hsl(277 55% 38%)" stroke-width="1.6" stroke-linejoin="round"/><path d="M 198.68 301.5 Q 198.89 274.21 171.66 285.9 Q 175.15 315.33 198.68 301.5 Z" fill="none" stroke="hsl(277 55% 38%)" stroke-width="1.6" stroke-linejoin="round"/><path d="M 241.5 258.68 Q 255.33 235.15 225.9 231.66 Q 214.21 258.89 241.5 258.68 Z" fill="none" stroke="hsl(277 55% 38%)" stroke-width="1.6" stroke-linejoin="round"/><path d="M 300 243 Q 323.74 229.54 300 211.8 Q 276.26 229.54 300 243 Z" fill="none" stroke="hsl(277 55% 38%)" stroke-width="1.6" stroke-linejoin="round"/><path d="M 358.5 258.68 Q 385.79 258.89 374.1 231.66 Q 344.67 235.15 358.5 258.68 Z" fill="none" stroke="hsl(277 55% 38%)" stroke-width="1.6" stroke-linejoin="round"/><path d="M 401.32 301.5 Q 424.85 315.33 428.34 285.9 Q 401.11 274.21 401.32 301.5 Z" fill="none" stroke="hsl(277 55% 38%)" stroke-width="1.6" stroke-linejoin="round"/><path d="M 144 360 a 156 156 0 1 0 312 0 a 156 156 0 1 0 -312 0 Z" fill="none" stroke="hsl(277 55% 38%)" stroke-width="1.6" stroke-linejoin="round"/><path d="M 426.36 438 a 8.74 8.74 0 1 0 17.47 0 a 8.74 8.74 0 1 0 -17.47 0 Z" fill="none" stroke="hsl(277 55% 38%)" stroke-width="1.6" stroke-linejoin="round"/><path d="M 291.26 516 a 8.74 8.74 0 1 0 17.47 0 a 8.74 8.74 0 1 0 -17.47 0 Z" fill="none" stroke="hsl(277 55% 38%)" stroke-width="1.6" stroke-linejoin="round"/><path d="M 156.16 438 a 8.74 8.74 0 1 0 17.47 0 a 8.74 8.74 0 1 0 -17.47 0 Z" fill="none" stroke="hsl(277 55% 38%)" stroke-width="1.6" stroke-linejoin="round"/><path d="M 156.16 282 a 8.74 8.74 0 1 0 17.47 0 a 8.74 8.74 0 1 0 -17.47 0 Z" fill="none" stroke="hsl(277 55% 38%)" stroke-width="1.6" stroke-linejoin="round"/><path d="M 291.26 204 a 8.74 8.74 0 1 0 17.47 0 a 8.74 8.74 0 1 0 -17.47 0 Z" fill="none" stroke="hsl(277 55% 38%)" stroke-width="1.6" stroke-linejoin="round"/><path d="M 426.36 282 a 8.74 8.74 0 1 0 17.47 0 a 8.74 8.74 0 1 0 -17.47 0 Z" fill="none" stroke="hsl(277 55% 38%)" stroke-width="1.6" stroke-linejoin="round"/><path d="M 105 360 a 195 195 0 1 0 390 0 a 195 195 0 1 0 -390 0 Z" fill="none" stroke="hsl(277 55% 38%)" stroke-width="1.6" stroke-linejoin="round"/><path d="M 486.26 360 a 8.74 8.74 0 1 0 17.47 0 a 8.74 8.74 0 1 0 -17.47 0 Z" fill="none" stroke="hsl(277 55% 38%)" stroke-width="1.6" stroke-linejoin="round"/><path d="M 460.14 457.5 a 8.74 8.74 0 1 0 17.47 0 a 8.74 8.74 0 1 0 -17.47 0 Z" fill="none" stroke="hsl(277 55% 38%)" stroke-width="1.6" stroke-linejoin="round"/><path d="M 388.76 528.87 a 8.74 8.74 0 1 0 17.47 0 a 8.74 8.74 0 1 0 -17.47 0 Z" fill="none" stroke="hsl(277 55% 38%)" stroke-width="1.6" stroke-linejoin="round"/><path d="M 291.26 555 a 8.74 8.74 0 1 0 17.47 0 a 8.74 8.74 0 1 0 -17.47 0 Z" fill="none" stroke="hsl(277 55% 38%)" stroke-width="1.6" stroke-linejoin="round"/><path d="M 193.76 528.87 a 8.74 8.74 0 1 0 17.47 0 a 8.74 8.74 0 1 0 -17.47 0 Z" fill="none" stroke="hsl(277 55% 38%)" stroke-width="1.6" stroke-linejoin="round"/><path d="M 122.39 457.5 a 8.74 8.74 0 1 0 17.47 0 a 8.74 8.74 0 1 0 -17.47 0 Z" fill="none" stroke="hsl(277 55% 38%)" stroke-width="1.6" stroke-linejoin="round"/><path d="M 96.26 360 a 8.74 8.74 0 1 0 17.47 0 a 8.74 8.74 0 1 0 -17.47 0 Z" fill="none" stroke="hsl(277 55% 38%)" stroke-width="1.6" stroke-linejoin="round"/><path d="M 122.39 262.5 a 8.74 8.74 0 1 0 17.47 0 a 8.74 8.74 0 1 0 -17.47 0 Z" fill="none" stroke="hsl(277 55% 38%)" stroke-width="1.6" stroke-linejoin="round"/><path d="M 193.76 191.13 a 8.74 8.74 0 1 0 17.47 0 a 8.74 8.74 0 1 0 -17.47 0 Z" fill="none" stroke="hsl(277 55% 38%)" stroke-width="1.6" stroke-linejoin="round"/><path d="M 291.26 165 a 8.74 8.74 0 1 0 17.47 0 a 8.74 8.74 0 1 0 -17.47 0 Z" fill="none" stroke="hsl(277 55% 38%)" stroke-width="1.6" stroke-linejoin="round"/><path d="M 388.76 191.13 a 8.74 8.74 0 1 0 17.47 0 a 8.74 8.74 0 1 0 -17.47 0 Z" fill="none" stroke="hsl(277 55% 38%)" stroke-width="1.6" stroke-linejoin="round"/><path d="M 460.14 262.5 a 8.74 8.74 0 1 0 17.47 0 a 8.74 8.74 0 1 0 -17.47 0 Z" fill="none" stroke="hsl(277 55% 38%)" stroke-width="1.6" stroke-linejoin="round"/><path d="M 105 360 a 195 195 0 1 0 390 0 a 195 195 0 1 0 -390 0 Z" fill="none" stroke="hsl(277 55% 38%)" stroke-width="1.6" stroke-linejoin="round"/></g>
  <g transform="translate(300,640)">
    <rect x="-110" y="-26" width="220" height="34" rx="17" fill="#ffffff" opacity="0.8"/>
    <text x="0" y="-3" text-anchor="middle" font-family="Quicksand, Arial, sans-serif" font-size="16" font-weight="600" fill="hsl(277 55% 38%)">🐚 Meereswelt</text>
  </g>
  <text x="300" y="700" text-anchor="middle" font-family="Quicksand, Arial, sans-serif" font-size="40" font-weight="700" fill="#2b2540"><tspan x="300" dy="0">Meereswelt – Vol.</tspan><tspan x="300" dy="44">1</tspan></text>
  <text x="300" y="772" text-anchor="middle" font-family="Arial, sans-serif" font-size="15" fill="#5b5470">Malbuch · 30 Seiten</text>
</svg>