<svg xmlns="http://www.w3.org/2000/svg" viewBox="0 0 600 800" width="600" height="800">
  <defs>
    <linearGradient id="bg" x1="0" y1="0" x2="0" y2="1">
      <stop offset="0" stop-color="hsl(99 70% 95%)"/><stop offset="1" stop-color="hsl(139 70% 92%)"/>
    </linearGradient>
  </defs>
  <rect width="600" height="800" fill="url(#bg)"/>
  <rect x="22" y="22" width="556" height="756" rx="28" fill="none" stroke="hsl(99 55% 38%)" stroke-width="2" opacity="0.5"/>
  <text x="300" y="74" text-anchor="middle" font-family="Quicksand, Arial, sans-serif" font-size="26" font-weight="700" fill="hsl(99 55% 38%)">&#10022; Coloreo</text>
  <g transform="translate(0,40)"><path d="M 323.4 360 Q 335.17 372.84 349.14 360 Q 335.17 347.16 323.4 360 Z" fill="none" stroke="hsl(99 55% 38%)" stroke-width="1.6" stroke-linejoin="round"/><path d="M 318.93 373.75 Q 320.91 391.06 339.76 388.88 Q 336 370.29 318.93 373.75 Z" fill="none" stroke="hsl(99 55% 38%)" stroke-width="1.6" stroke-linejoin="round"/><path d="M 307.23 382.25 Q 298.66 397.42 315.19 406.73 Q 323.08 389.48 307.23 382.25 Z" fill="none" stroke="hsl(99 55% 38%)" stroke-width="1.6" stroke-linejoin="round"/><path d="M 292.77 382.25 Q 276.92 389.48 284.81 406.73 Q 301.34 397.42 292.77 382.25 Z" fill="none" stroke="hsl(99 55% 38%)" stroke-width="1.6" stroke-linejoin="round"/><path d="M 281.07 373.75 Q 264 370.29 260.24 388.88 Q 279.09 391.06 281.07 373.75 Z" fill="none" stroke="hsl(99 55% 38%)" stroke-width="1.6" stroke-linejoin="round"/><path d="M 276.6 360 Q 264.83 347.16 250.86 360 Q 264.83 372.84 276.6 360 Z" fill="none" stroke="hsl(99 55% 38%)" stroke-width="1.6" stroke-linejoin="round"/><path d="M 281.07 346.25 Q 279.09 328.94 260.24 331.12 Q 264 349.71 281.07 346.25 Z" fill="none" stroke="hsl(99 55% 38%)" stroke-width="1.6" stroke-linejoin="round"/><path d="M 292.77 337.75 Q 301.34 322.58 284.81 313.27 Q 276.92 330.52 292.77 337.75 Z" fill="none" stroke="hsl(99 55% 38%)" stroke-width="1.6" stroke-linejoin="round"/><path d="M 307.23 337.75 Q 323.08 330.52 315.19 313.27 Q 298.66 322.58 307.23 337.75 Z" fill="none" stroke="hsl(99 55% 38%)" stroke-width="1.6" stroke-linejoin="round"/><path d="M 318.93 346.25 Q 336 349.71 339.76 331.12 Q 320.91 328.94 318.93 346.25 Z" fill="none" stroke="hsl(99 55% 38%)" stroke-width="1.6" stroke-linejoin="round"/><path d="M 300 345.96 C 307.75 345.96 314.04 352.25 314.04 360 C 314.04 367.75 307.75 374.04 300 374.04 C 292.25 374.04 285.96 367.75 285.96 360 C 285.96 352.25 292.25 345.96 300 345.96 Z" fill="none" stroke="hsl(99 55% 38%)" stroke-width="1.6" stroke-linejoin="round"/><path d="M 300 295 C 335.9 295 365 324.1 365 360 C 365 395.9 335.9 425 300 425 C 264.1 425 235 395.9 235 360 C 235 324.1 264.1 295 300 295 Z" fill="none" stroke="hsl(99 55% 38%)" stroke-width="1.6" stroke-linejoin="round"/><path d="M 361.82 372.81 C 365.84 372.81 369.1 376.07 369.1 380.09 C 369.1 384.11 365.84 387.37 361.82 387.37 C 357.8 387.37 354.54 384.11 354.54 380.09 C 354.54 376.07 357.8 372.81 361.82 372.81 Z" fill="none" stroke="hsl(99 55% 38%)" stroke-width="1.6" stroke-linejoin="round"/><path d="M 338.21 405.31 C 342.23 405.31 345.49 408.57 345.49 412.59 C 345.49 416.61 342.23 419.87 338.21 419.87 C 334.19 419.87 330.93 416.61 330.93 412.59 C 330.93 408.57 334.19 405.31 338.21 405.31 Z" fill="none" stroke="hsl(99 55% 38%)" stroke-width="1.6" stroke-linejoin="round"/><path d="M 300 417.72 C 304.02 417.72 307.28 420.98 307.28 425 C 307.28 429.02 304.02 432.28 300 432.28 C 295.98 432.28 292.72 429.02 292.72 425 C 292.72 420.98 295.98 417.72 300 417.72 Z" fill="none" stroke="hsl(99 55% 38%)" stroke-width="1.6" stroke-linejoin="round"/><path d="M 261.79 405.31 C 265.81 405.31 269.07 408.57 269.07 412.59 C 269.07 416.61 265.81 419.87 261.79 419.87 C 257.77 419.87 254.51 416.61 254.51 412.59 C 254.51 408.57 257.77 405.31 261.79 405.31 Z" fill="none" stroke="hsl(99 55% 38%)" stroke-width="1.6" stroke-linejoin="round"/><path d="M 238.18 372.81 C 242.2 372.81 245.46 376.07 245.46 380.09 C 245.46 384.11 242.2 387.37 238.18 387.37 C 234.16 387.37 230.9 384.11 230.9 380.09 C 230.9 376.07 234.16 372.81 238.18 372.81 Z" fill="none" stroke="hsl(99 55% 38%)" stroke-width="1.6" stroke-linejoin="round"/><path d="M 238.18 332.63 C 242.2 332.63 245.46 335.89 245.46 339.91 C 245.46 343.93 242.2 347.19 238.18 347.19 C 234.16 347.19 230.9 343.93 230.9 339.91 C 230.9 335.89 234.16 332.63 238.18 332.63 Z" fill="none" stroke="hsl(99 55% 38%)" stroke-width="1.6" stroke-linejoin="round"/><path d="M 261.79 300.13 C 265.81 300.13 269.07 303.39 269.07 307.41 C 269.07 311.43 265.81 314.69 261.79 314.69 C 257.77 314.69 254.51 311.43 254.51 307.41 C 254.51 303.39 257.77 300.13 261.79 300.13 Z" fill="none" stroke="hsl(99 55% 38%)" stroke-width="1.6" stroke-linejoin="round"/><path d="M 300 287.72 C 304.02 287.72 307.28 290.98 307.28 295 C 307.28 299.02 304.02 302.28 300 302.28 C 295.98 302.28 292.72 299.02 292.72 295 C 292.72 290.98 295.98 287.72 300 287.72 Z" fill="none" stroke="hsl(99 55% 38%)" stroke-width="1.6" stroke-linejoin="round"/><path d="M 338.21 300.13 C 342.23 300.13 345.49 303.39 345.49 307.41 C 345.49 311.43 342.23 314.69 338.21 314.69 C 334.19 314.69 330.93 311.43 330.93 307.41 C 330.93 303.39 334.19 300.13 338.21 300.13 Z" fill="none" stroke="hsl(99 55% 38%)" stroke-width="1.6" stroke-linejoin="round"/><path d="M 361.82 332.63 C 365.84 332.63 369.1 335.89 369.1 339.91 C 369.1 343.93 365.84 347.19 361.82 347.19 C 357.8 347.19 354.54 343.93 354.54 339.91 C 354.54 335.89 357.8 332.63 361.82 332.63 Z" fill="none" stroke="hsl(99 55% 38%)" stroke-width="1.6" stroke-linejoin="round"/><path d="M 300 262.5 C 353.85 262.5 397.5 306.15 397.5 360 C 397.5 413.85 353.85 457.5 300 457.5 C 246.15 457.5 202.5 413.85 202.5 360 C 202.5 306.15 246.15 262.5 300 262.5 Z" fill="none" stroke="hsl(99 55% 38%)" stroke-width="1.6" stroke-linejoin="round"/><path d="M 397.5 352.72 C 401.52 352.72 404.78 355.98 404.78 360 C 404.78 364.02 401.52 367.28 397.5 367.28 C 393.48 367.28 390.22 364.02 390.22 360 C 390.22 355.98 393.48 352.72 397.5 352.72 Z" fill="none" stroke="hsl(99 55% 38%)" stroke-width="1.6" stroke-linejoin="round"/><path d="M 392.73 382.85 C 396.75 382.85 400.01 386.11 400.01 390.13 C 400.01 394.15 396.75 397.41 392.73 397.41 C 388.71 397.41 385.45 394.15 385.45 390.13 C 385.45 386.11 388.71 382.85 392.73 382.85 Z" fill="none" stroke="hsl(99 55% 38%)" stroke-width="1.6" stroke-linejoin="round"/><path d="M 378.88 410.03 C 382.9 410.03 386.16 413.29 386.16 417.31 C 386.16 421.33 382.9 424.59 378.88 424.59 C 374.86 424.59 371.6 421.33 371.6 417.31 C 371.6 413.29 374.86 410.03 378.88 410.03 Z" fill="none" stroke="hsl(99 55% 38%)" stroke-width="1.6" stroke-linejoin="round"/><path d="M 357.31 431.6 C 361.33 431.6 364.59 434.86 364.59 438.88 C 364.59 442.9 361.33 446.16 357.31 446.16 C 353.29 446.16 350.03 442.9 350.03 438.88 C 350.03 434.86 353.29 431.6 357.31 431.6 Z" fill="none" stroke="hsl(99 55% 38%)" stroke-width="1.6" stroke-linejoin="round"/><path d="M 330.13 445.45 C 334.15 445.45 337.41 448.71 337.41 452.73 C 337.41 456.75 334.15 460.01 330.13 460.01 C 326.11 460.01 322.85 456.75 322.85 452.73 C 322.85 448.71 326.11 445.45 330.13 445.45 Z" fill="none" stroke="hsl(99 55% 38%)" stroke-width="1.6" stroke-linejoin="round"/><path d="M 300 450.22 C 304.02 450.22 307.28 453.48 307.28 457.5 C 307.28 461.52 304.02 464.78 300 464.78 C 295.98 464.78 292.72 461.52 292.72 457.5 C 292.72 453.48 295.98 450.22 300 450.22 Z" fill="none" stroke="hsl(99 55% 38%)" stroke-width="1.6" stroke-linejoin="round"/><path d="M 269.87 445.45 C 273.89 445.45 277.15 448.71 277.15 452.73 C 277.15 456.75 273.89 460.01 269.87 460.01 C 265.85 460.01 262.59 456.75 262.59 452.73 C 262.59 448.71 265.85 445.45 269.87 445.45 Z" fill="none" stroke="hsl(99 55% 38%)" stroke-width="1.6" stroke-linejoin="round"/><path d="M 242.69 431.6 C 246.71 431.6 249.97 434.86 249.97 438.88 C 249.97 442.9 246.71 446.16 242.69 446.16 C 238.67 446.16 235.41 442.9 235.41 438.88 C 235.41 434.86 238.67 431.6 242.69 431.6 Z" fill="none" stroke="hsl(99 55% 38%)" stroke-width="1.6" stroke-linejoin="round"/><path d="M 221.12 410.03 C 225.14 410.03 228.4 413.29 228.4 417.31 C 228.4 421.33 225.14 424.59 221.12 424.59 C 217.1 424.59 213.84 421.33 213.84 417.31 C 213.84 413.29 217.1 410.03 221.12 410.03 Z" fill="none" stroke="hsl(99 55% 38%)" stroke-width="1.6" stroke-linejoin="round"/><path d="M 207.27 382.85 C 211.29 382.85 214.55 386.11 214.55 390.13 C 214.55 394.15 211.29 397.41 207.27 397.41 C 203.25 397.41 199.99 394.15 199.99 390.13 C 199.99 386.11 203.25 382.85 207.27 382.85 Z" fill="none" stroke="hsl(99 55% 38%)" stroke-width="1.6" stroke-linejoin="round"/><path d="M 202.5 352.72 C 206.52 352.72 209.78 355.98 209.78 360 C 209.78 364.02 206.52 367.28 202.5 367.28 C 198.48 367.28 195.22 364.02 195.22 360 C 195.22 355.98 198.48 352.72 202.5 352.72 Z" fill="none" stroke="hsl(99 55% 38%)" stroke-width="1.6" stroke-linejoin="round"/><path d="M 207.27 322.59 C 211.29 322.59 214.55 325.85 214.55 329.87 C 214.55 333.89 211.29 337.15 207.27 337.15 C 203.25 337.15 199.99 333.89 199.99 329.87 C 199.99 325.85 203.25 322.59 207.27 322.59 Z" fill="none" stroke="hsl(99 55% 38%)" stroke-width="1.6" stroke-linejoin="round"/><path d="M 221.12 295.41 C 225.14 295.41 228.4 298.67 228.4 302.69 C 228.4 306.71 225.14 309.97 221.12 309.97 C 217.1 309.97 213.84 306.71 213.84 302.69 C 213.84 298.67 217.1 295.41 221.12 295.41 Z" fill="none" stroke="hsl(99 55% 38%)" stroke-width="1.6" stroke-linejoin="round"/><path d="M 242.69 273.84 C 246.71 273.84 249.97 277.1 249.97 281.12 C 249.97 285.14 246.71 288.4 242.69 288.4 C 238.67 288.4 235.41 285.14 235.41 281.12 C 235.41 277.1 238.67 273.84 242.69 273.84 Z" fill="none" stroke="hsl(99 55% 38%)" stroke-width="1.6" stroke-linejoin="round"/><path d="M 269.87 259.99 C 273.89 259.99 277.15 263.25 277.15 267.27 C 277.15 271.29 273.89 274.55 269.87 274.55 C 265.85 274.55 262.59 271.29 262.59 267.27 C 262.59 263.25 265.85 259.99 269.87 259.99 Z" fill="none" stroke="hsl(99 55% 38%)" stroke-width="1.6" stroke-linejoin="round"/><path d="M 300 255.22 C 304.02 255.22 307.28 258.48 307.28 262.5 C 307.28 266.52 304.02 269.78 300 269.78 C 295.98 269.78 292.72 266.52 292.72 262.5 C 292.72 258.48 295.98 255.22 300 255.22 Z" fill="none" stroke="hsl(99 55% 38%)" stroke-width="1.6" stroke-linejoin="round"/><path d="M 330.13 259.99 C 334.15 259.99 337.41 263.25 337.41 267.27 C 337.41 271.29 334.15 274.55 330.13 274.55 C 326.11 274.55 322.85 271.29 322.85 267.27 C 322.85 263.25 326.11 259.99 330.13 259.99 Z" fill="none" stroke="hsl(99 55% 38%)" stroke-width="1.6" stroke-linejoin="round"/><path d="M 357.31 273.84 C 361.33 273.84 364.59 277.1 364.59 281.12 C 364.59 285.14 361.33 288.4 357.31 288.4 C 353.29 288.4 350.03 285.14 350.03 281.12 C 350.03 277.1 353.29 273.84 357.31 273.84 Z" fill="none" stroke="hsl(99 55% 38%)" stroke-width="1.6" stroke-linejoin="round"/><path d="M 378.88 295.41 C 382.9 295.41 386.16 298.67 386.16 302.69 C 386.16 306.71 382.9 309.97 378.88 309.97 C 374.86 309.97 371.6 306.71 371.6 302.69 C 371.6 298.67 374.86 295.41 378.88 295.41 Z" fill="none" stroke="hsl(99 55% 38%)" stroke-width="1.6" stroke-linejoin="round"/><path d="M 392.73 322.59 C 396.75 322.59 400.01 325.85 400.01 329.87 C 400.01 333.89 396.75 337.15 392.73 337.15 C 388.71 337.15 385.45 333.89 385.45 329.87 C 385.45 325.85 388.71 322.59 392.73 322.59 Z" fill="none" stroke="hsl(99 55% 38%)" stroke-width="1.6" stroke-linejoin="round"/><path d="M 300 230 C 371.8 230 430 288.2 430 360 C 430 431.8 371.8 490 300 490 C 228.2 490 170 431.8 170 360 C 170 288.2 228.2 230 300 230 Z" fill="none" stroke="hsl(99 55% 38%)" stroke-width="1.6" stroke-linejoin="round"/><path d="M 423.64 400.17 Q 425.89 427.82 448.36 408.21 Q 441.72 379.13 423.64 400.17 Z" fill="none" stroke="hsl(99 55% 38%)" stroke-width="1.6" stroke-linejoin="round"/><path d="M 376.41 465.17 Q 361.98 488.87 391.69 486.21 Q 403.41 458.77 376.41 465.17 Z" fill="none" stroke="hsl(99 55% 38%)" stroke-width="1.6" stroke-linejoin="round"/><path d="M 300 490 Q 274.4 500.69 300 516 Q 325.6 500.69 300 490 Z" fill="none" stroke="hsl(99 55% 38%)" stroke-width="1.6" stroke-linejoin="round"/><path d="M 223.59 465.17 Q 196.59 458.77 208.31 486.21 Q 238.02 488.87 223.59 465.17 Z" fill="none" stroke="hsl(99 55% 38%)" stroke-width="1.6" stroke-linejoin="round"/><path d="M 176.36 400.17 Q 158.28 379.13 151.64 408.21 Q 174.11 427.82 176.36 400.17 Z" fill="none" stroke="hsl(99 55% 38%)" stroke-width="1.6" stroke-linejoin="round"/><path d="M 176.36 319.83 Q 174.11 292.18 151.64 311.79 Q 158.28 340.87 176.36 319.83 Z" fill="none" stroke="hsl(99 55% 38%)" stroke-width="1.6" stroke-linejoin="round"/><path d="M 223.59 254.83 Q 238.02 231.13 208.31 233.79 Q 196.59 261.23 223.59 254.83 Z" fill="none" stroke="hsl(99 55% 38%)" stroke-width="1.6" stroke-linejoin="round"/><path d="M 300 230 Q 325.6 219.31 300 204 Q 274.4 219.31 300 230 Z" fill="none" stroke="hsl(99 55% 38%)" stroke-width="1.6" stroke-linejoin="round"/><path d="M 376.41 254.83 Q 403.41 261.23 391.69 233.79 Q 361.98 231.13 376.41 254.83 Z" fill="none" stroke="hsl(99 55% 38%)" stroke-width="1.6" stroke-linejoin="round"/><path d="M 423.64 319.83 Q 441.72 340.87 448.36 311.79 Q 425.89 292.18 423.64 319.83 Z" fill="none" stroke="hsl(99 55% 38%)" stroke-width="1.6" stroke-linejoin="round"/><path d="M 300 197.5 C 389.75 197.5 462.5 270.25 462.5 360 C 462.5 449.75 389.75 522.5 300 522.5 C 210.25 522.5 137.5 449.75 137.5 360 C 137.5 270.25 210.25 197.5 300 197.5 Z" fill="none" stroke="hsl(99 55% 38%)" stroke-width="1.6" stroke-linejoin="round"/><path d="M 462.5 360 Q 472.66 391.42 488.5 360 Q 472.66 328.58 462.5 360 Z" fill="none" stroke="hsl(99 55% 38%)" stroke-width="1.6" stroke-linejoin="round"/><path d="M 454.55 410.22 Q 454.5 443.24 479.27 418.25 Q 473.92 383.47 454.55 410.22 Z" fill="none" stroke="hsl(99 55% 38%)" stroke-width="1.6" stroke-linejoin="round"/><path d="M 431.47 455.52 Q 421.22 486.91 452.5 470.8 Q 458.16 436.07 431.47 455.52 Z" fill="none" stroke="hsl(99 55% 38%)" stroke-width="1.6" stroke-linejoin="round"/><path d="M 395.52 491.47 Q 376.07 518.16 410.8 512.5 Q 426.91 481.22 395.52 491.47 Z" fill="none" stroke="hsl(99 55% 38%)" stroke-width="1.6" stroke-linejoin="round"/><path d="M 350.22 514.55 Q 323.47 533.92 358.25 539.27 Q 383.24 514.5 350.22 514.55 Z" fill="none" stroke="hsl(99 55% 38%)" stroke-width="1.6" stroke-linejoin="round"/><path d="M 300 522.5 Q 268.58 532.66 300 548.5 Q 331.42 532.66 300 522.5 Z" fill="none" stroke="hsl(99 55% 38%)" stroke-width="1.6" stroke-linejoin="round"/><path d="M 249.78 514.55 Q 216.76 514.5 241.75 539.27 Q 276.53 533.92 249.78 514.55 Z" fill="none" stroke="hsl(99 55% 38%)" stroke-width="1.6" stroke-linejoin="round"/><path d="M 204.48 491.47 Q 173.09 481.22 189.2 512.5 Q 223.93 518.16 204.48 491.47 Z" fill="none" stroke="hsl(99 55% 38%)" stroke-width="1.6" stroke-linejoin="round"/><path d="M 168.53 455.52 Q 141.84 436.07 147.5 470.8 Q 178.78 486.91 168.53 455.52 Z" fill="none" stroke="hsl(99 55% 38%)" stroke-width="1.6" stroke-linejoin="round"/><path d="M 145.45 410.22 Q 126.08 383.47 120.73 418.25 Q 145.5 443.24 145.45 410.22 Z" fill="none" stroke="hsl(99 55% 38%)" stroke-width="1.6" stroke-linejoin="round"/><path d="M 137.5 360 Q 127.34 328.58 111.5 360 Q 127.34 391.42 137.5 360 Z" fill="none" stroke="hsl(99 55% 38%)" stroke-width="1.6" stroke-linejoin="round"/><path d="M 145.45 309.78 Q 145.5 276.76 120.73 301.75 Q 126.08 336.53 145.45 309.78 Z" fill="none" stroke="hsl(99 55% 38%)" stroke-width="1.6" stroke-linejoin="round"/><path d="M 168.53 264.48 Q 178.78 233.09 147.5 249.2 Q 141.84 283.93 168.53 264.48 Z" fill="none" stroke="hsl(99 55% 38%)" stroke-width="1.6" stroke-linejoin="round"/><path d="M 204.48 228.53 Q 223.93 201.84 189.2 207.5 Q 173.09 238.78 204.48 228.53 Z" fill="none" stroke="hsl(99 55% 38%)" stroke-width="1.6" stroke-linejoin="round"/><path d="M 249.78 205.45 Q 276.53 186.08 241.75 180.73 Q 216.76 205.5 249.78 205.45 Z" fill="none" stroke="hsl(99 55% 38%)" stroke-width="1.6" stroke-linejoin="round"/><path d="M 300 197.5 Q 331.42 187.34 300 171.5 Q 268.58 187.34 300 197.5 Z" fill="none" stroke="hsl(99 55% 38%)" stroke-width="1.6" stroke-linejoin="round"/><path d="M 350.22 205.45 Q 383.24 205.5 358.25 180.73 Q 323.47 186.08 350.22 205.45 Z" fill="none" stroke="hsl(99 55% 38%)" stroke-width="1.6" stroke-linejoin="round"/><path d="M 395.52 228.53 Q 426.91 238.78 410.8 207.5 Q 376.07 201.84 395.52 228.53 Z" fill="none" stroke="hsl(99 55% 38%)" stroke-width="1.6" stroke-linejoin="round"/><path d="M 431.47 264.48 Q 458.16 283.93 452.5 249.2 Q 421.22 233.09 431.47 264.48 Z" fill="none" stroke="hsl(99 55% 38%)" stroke-width="1.6" stroke-linejoin="round"/><path d="M 454.55 309.78 Q 473.92 336.53 479.27 301.75 Q 454.5 276.76 454.55 309.78 Z" fill="none" stroke="hsl(99 55% 38%)" stroke-width="1.6" stroke-linejoin="round"/><path d="M 300 165 C 407.7 165 495 252.3 495 360 C 495 467.7 407.7 555 300 555 C 192.3 555 105 467.7 105 360 C 105 252.3 192.3 165 300 165 Z" fill="none" stroke="hsl(99 55% 38%)" stroke-width="1.6" stroke-linejoin="round"/><path d="M 485.46 420.26 Q 483.12 458.65 510.18 428.29 Q 506.13 387.82 485.46 420.26 Z" fill="none" stroke="hsl(99 55% 38%)" stroke-width="1.6" stroke-linejoin="round"/><path d="M 414.62 517.76 Q 390.16 547.44 429.9 538.79 Q 450.41 503.67 414.62 517.76 Z" fill="none" stroke="hsl(99 55% 38%)" stroke-width="1.6" stroke-linejoin="round"/><path d="M 300 555 Q 262.76 564.64 300 581 Q 337.24 564.64 300 555 Z" fill="none" stroke="hsl(99 55% 38%)" stroke-width="1.6" stroke-linejoin="round"/><path d="M 185.38 517.76 Q 149.59 503.67 170.1 538.79 Q 209.84 547.44 185.38 517.76 Z" fill="none" stroke="hsl(99 55% 38%)" stroke-width="1.6" stroke-linejoin="round"/><path d="M 114.54 420.26 Q 93.87 387.82 89.82 428.29 Q 116.88 458.65 114.54 420.26 Z" fill="none" stroke="hsl(99 55% 38%)" stroke-width="1.6" stroke-linejoin="round"/><path d="M 114.54 299.74 Q 116.88 261.35 89.82 291.71 Q 93.87 332.18 114.54 299.74 Z" fill="none" stroke="hsl(99 55% 38%)" stroke-width="1.6" stroke-linejoin="round"/><path d="M 185.38 202.24 Q 209.84 172.56 170.1 181.21 Q 149.59 216.33 185.38 202.24 Z" fill="none" stroke="hsl(99 55% 38%)" stroke-width="1.6" stroke-linejoin="round"/><path d="M 300 165 Q 337.24 155.36 300 139 Q 262.76 155.36 300 165 Z" fill="none" stroke="hsl(99 55% 38%)" stroke-width="1.6" stroke-linejoin="round"/><path d="M 414.62 202.24 Q 450.41 216.33 429.9 181.21 Q 390.16 172.56 414.62 202.24 Z" fill="none" stroke="hsl(99 55% 38%)" stroke-width="1.6" stroke-linejoin="round"/><path d="M 485.46 299.74 Q 506.13 332.18 510.18 291.71 Q 483.12 261.35 485.46 299.74 Z" fill="none" stroke="hsl(99 55% 38%)" stroke-width="1.6" stroke-linejoin="round"/><path d="M 300 165 C 407.7 165 495 252.3 495 360 C 495 467.7 407.7 555 300 555 C 192.3 555 105 467.7 105 360 C 105 252.3 192.3 165 300 165 Z" fill="none" stroke="hsl(99 55% 38%)" stroke-width="1.6" stroke-linejoin="round"/></g>
  <g transform="translate(300,640)">
    <rect x="-110" y="-26" width="220" height="34" rx="17" fill="#ffffff" opacity="0.8"/>
    <text x="0" y="-3" text-anchor="middle" font-family="Quicksand, Arial, sans-serif" font-size="16" font-weight="600" fill="hsl(99 55% 38%)">🪷 Paisley &amp; Henna</text>
  </g>
  <text x="300" y="700" text-anchor="middle" font-family="Quicksand, Arial, sans-serif" font-size="40" font-weight="700" fill="#2b2540"><tspan x="300" dy="0">Paisley &amp; Henna –</tspan><tspan x="300" dy="44">Vol. 1</tspan></text>
  <text x="300" y="772" text-anchor="middle" font-family="Arial, sans-serif" font-size="15" fill="#5b5470">Malbuch · 24 Seiten</text>
</svg>