<svg xmlns="http://www.w3.org/2000/svg" viewBox="0 0 600 800" width="600" height="800">
  <defs>
    <linearGradient id="bg" x1="0" y1="0" x2="0" y2="1">
      <stop offset="0" stop-color="hsl(99 70% 95%)"/><stop offset="1" stop-color="hsl(139 70% 92%)"/>
    </linearGradient>
  </defs>
  <rect width="600" height="800" fill="url(#bg)"/>
  <rect x="22" y="22" width="556" height="756" rx="28" fill="none" stroke="hsl(99 55% 38%)" stroke-width="2" opacity="0.5"/>
  <text x="300" y="74" text-anchor="middle" font-family="Quicksand, Arial, sans-serif" font-size="26" font-weight="700" fill="hsl(99 55% 38%)">&#10022; Coloreo</text>
  <g transform="translate(0,40)"><path d="M 323.4 360 Q 335.17 372.84 349.14 360 Q 335.17 347.16 323.4 360 Z" fill="none" stroke="hsl(99 55% 38%)" stroke-width="1.6" stroke-linejoin="round"/><path d="M 318.93 373.75 Q 320.91 391.06 339.76 388.88 Q 336 370.29 318.93 373.75 Z" fill="none" stroke="hsl(99 55% 38%)" stroke-width="1.6" stroke-linejoin="round"/><path d="M 307.23 382.25 Q 298.66 397.42 315.19 406.73 Q 323.08 389.48 307.23 382.25 Z" fill="none" stroke="hsl(99 55% 38%)" stroke-width="1.6" stroke-linejoin="round"/><path d="M 292.77 382.25 Q 276.92 389.48 284.81 406.73 Q 301.34 397.42 292.77 382.25 Z" fill="none" stroke="hsl(99 55% 38%)" stroke-width="1.6" stroke-linejoin="round"/><path d="M 281.07 373.75 Q 264 370.29 260.24 388.88 Q 279.09 391.06 281.07 373.75 Z" fill="none" stroke="hsl(99 55% 38%)" stroke-width="1.6" stroke-linejoin="round"/><path d="M 276.6 360 Q 264.83 347.16 250.86 360 Q 264.83 372.84 276.6 360 Z" fill="none" stroke="hsl(99 55% 38%)" stroke-width="1.6" stroke-linejoin="round"/><path d="M 281.07 346.25 Q 279.09 328.94 260.24 331.12 Q 264 349.71 281.07 346.25 Z" fill="none" stroke="hsl(99 55% 38%)" stroke-width="1.6" stroke-linejoin="round"/><path d="M 292.77 337.75 Q 301.34 322.58 284.81 313.27 Q 276.92 330.52 292.77 337.75 Z" fill="none" stroke="hsl(99 55% 38%)" stroke-width="1.6" stroke-linejoin="round"/><path d="M 307.23 337.75 Q 323.08 330.52 315.19 313.27 Q 298.66 322.58 307.23 337.75 Z" fill="none" stroke="hsl(99 55% 38%)" stroke-width="1.6" stroke-linejoin="round"/><path d="M 318.93 346.25 Q 336 349.71 339.76 331.12 Q 320.91 328.94 318.93 346.25 Z" fill="none" stroke="hsl(99 55% 38%)" stroke-width="1.6" stroke-linejoin="round"/><path d="M 285.96 360 a 14.04 14.04 0 1 0 28.08 0 a 14.04 14.04 0 1 0 -28.08 0 Z" fill="none" stroke="hsl(99 55% 38%)" stroke-width="1.6" stroke-linejoin="round"/><path d="M 235 360 a 65 65 0 1 0 130 0 a 65 65 0 1 0 -130 0 Z" fill="none" stroke="hsl(99 55% 38%)" stroke-width="1.6" stroke-linejoin="round"/><path d="M 354.54 380.09 a 7.28 7.28 0 1 0 14.56 0 a 7.28 7.28 0 1 0 -14.56 0 Z" fill="none" stroke="hsl(99 55% 38%)" stroke-width="1.6" stroke-linejoin="round"/><path d="M 330.93 412.59 a 7.28 7.28 0 1 0 14.56 0 a 7.28 7.28 0 1 0 -14.56 0 Z" fill="none" stroke="hsl(99 55% 38%)" stroke-width="1.6" stroke-linejoin="round"/><path d="M 292.72 425 a 7.28 7.28 0 1 0 14.56 0 a 7.28 7.28 0 1 0 -14.56 0 Z" fill="none" stroke="hsl(99 55% 38%)" stroke-width="1.6" stroke-linejoin="round"/><path d="M 254.51 412.59 a 7.28 7.28 0 1 0 14.56 0 a 7.28 7.28 0 1 0 -14.56 0 Z" fill="none" stroke="hsl(99 55% 38%)" stroke-width="1.6" stroke-linejoin="round"/><path d="M 230.9 380.09 a 7.28 7.28 0 1 0 14.56 0 a 7.28 7.28 0 1 0 -14.56 0 Z" fill="none" stroke="hsl(99 55% 38%)" stroke-width="1.6" stroke-linejoin="round"/><path d="M 230.9 339.91 a 7.28 7.28 0 1 0 14.56 0 a 7.28 7.28 0 1 0 -14.56 0 Z" fill="none" stroke="hsl(99 55% 38%)" stroke-width="1.6" stroke-linejoin="round"/><path d="M 254.51 307.41 a 7.28 7.28 0 1 0 14.56 0 a 7.28 7.28 0 1 0 -14.56 0 Z" fill="none" stroke="hsl(99 55% 38%)" stroke-width="1.6" stroke-linejoin="round"/><path d="M 292.72 295 a 7.28 7.28 0 1 0 14.56 0 a 7.28 7.28 0 1 0 -14.56 0 Z" fill="none" stroke="hsl(99 55% 38%)" stroke-width="1.6" stroke-linejoin="round"/><path d="M 330.93 307.41 a 7.28 7.28 0 1 0 14.56 0 a 7.28 7.28 0 1 0 -14.56 0 Z" fill="none" stroke="hsl(99 55% 38%)" stroke-width="1.6" stroke-linejoin="round"/><path d="M 354.54 339.91 a 7.28 7.28 0 1 0 14.56 0 a 7.28 7.28 0 1 0 -14.56 0 Z" fill="none" stroke="hsl(99 55% 38%)" stroke-width="1.6" stroke-linejoin="round"/><path d="M 202.5 360 a 97.5 97.5 0 1 0 195 0 a 97.5 97.5 0 1 0 -195 0 Z" fill="none" stroke="hsl(99 55% 38%)" stroke-width="1.6" stroke-linejoin="round"/><path d="M 390.22 360 a 7.28 7.28 0 1 0 14.56 0 a 7.28 7.28 0 1 0 -14.56 0 Z" fill="none" stroke="hsl(99 55% 38%)" stroke-width="1.6" stroke-linejoin="round"/><path d="M 385.45 390.13 a 7.28 7.28 0 1 0 14.56 0 a 7.28 7.28 0 1 0 -14.56 0 Z" fill="none" stroke="hsl(99 55% 38%)" stroke-width="1.6" stroke-linejoin="round"/><path d="M 371.6 417.31 a 7.28 7.28 0 1 0 14.56 0 a 7.28 7.28 0 1 0 -14.56 0 Z" fill="none" stroke="hsl(99 55% 38%)" stroke-width="1.6" stroke-linejoin="round"/><path d="M 350.03 438.88 a 7.28 7.28 0 1 0 14.56 0 a 7.28 7.28 0 1 0 -14.56 0 Z" fill="none" stroke="hsl(99 55% 38%)" stroke-width="1.6" stroke-linejoin="round"/><path d="M 322.85 452.73 a 7.28 7.28 0 1 0 14.56 0 a 7.28 7.28 0 1 0 -14.56 0 Z" fill="none" stroke="hsl(99 55% 38%)" stroke-width="1.6" stroke-linejoin="round"/><path d="M 292.72 457.5 a 7.28 7.28 0 1 0 14.56 0 a 7.28 7.28 0 1 0 -14.56 0 Z" fill="none" stroke="hsl(99 55% 38%)" stroke-width="1.6" stroke-linejoin="round"/><path d="M 262.59 452.73 a 7.28 7.28 0 1 0 14.56 0 a 7.28 7.28 0 1 0 -14.56 0 Z" fill="none" stroke="hsl(99 55% 38%)" stroke-width="1.6" stroke-linejoin="round"/><path d="M 235.41 438.88 a 7.28 7.28 0 1 0 14.56 0 a 7.28 7.28 0 1 0 -14.56 0 Z" fill="none" stroke="hsl(99 55% 38%)" stroke-width="1.6" stroke-linejoin="round"/><path d="M 213.84 417.31 a 7.28 7.28 0 1 0 14.56 0 a 7.28 7.28 0 1 0 -14.56 0 Z" fill="none" stroke="hsl(99 55% 38%)" stroke-width="1.6" stroke-linejoin="round"/><path d="M 199.99 390.13 a 7.28 7.28 0 1 0 14.56 0 a 7.28 7.28 0 1 0 -14.56 0 Z" fill="none" stroke="hsl(99 55% 38%)" stroke-width="1.6" stroke-linejoin="round"/><path d="M 195.22 360 a 7.28 7.28 0 1 0 14.56 0 a 7.28 7.28 0 1 0 -14.56 0 Z" fill="none" stroke="hsl(99 55% 38%)" stroke-width="1.6" stroke-linejoin="round"/><path d="M 199.99 329.87 a 7.28 7.28 0 1 0 14.56 0 a 7.28 7.28 0 1 0 -14.56 0 Z" fill="none" stroke="hsl(99 55% 38%)" stroke-width="1.6" stroke-linejoin="round"/><path d="M 213.84 302.69 a 7.28 7.28 0 1 0 14.56 0 a 7.28 7.28 0 1 0 -14.56 0 Z" fill="none" stroke="hsl(99 55% 38%)" stroke-width="1.6" stroke-linejoin="round"/><path d="M 235.41 281.12 a 7.28 7.28 0 1 0 14.56 0 a 7.28 7.28 0 1 0 -14.56 0 Z" fill="none" stroke="hsl(99 55% 38%)" stroke-width="1.6" stroke-linejoin="round"/><path d="M 262.59 267.27 a 7.28 7.28 0 1 0 14.56 0 a 7.28 7.28 0 1 0 -14.56 0 Z" fill="none" stroke="hsl(99 55% 38%)" stroke-width="1.6" stroke-linejoin="round"/><path d="M 292.72 262.5 a 7.28 7.28 0 1 0 14.56 0 a 7.28 7.28 0 1 0 -14.56 0 Z" fill="none" stroke="hsl(99 55% 38%)" stroke-width="1.6" stroke-linejoin="round"/><path d="M 322.85 267.27 a 7.28 7.28 0 1 0 14.56 0 a 7.28 7.28 0 1 0 -14.56 0 Z" fill="none" stroke="hsl(99 55% 38%)" stroke-width="1.6" stroke-linejoin="round"/><path d="M 350.03 281.12 a 7.28 7.28 0 1 0 14.56 0 a 7.28 7.28 0 1 0 -14.56 0 Z" fill="none" stroke="hsl(99 55% 38%)" stroke-width="1.6" stroke-linejoin="round"/><path d="M 371.6 302.69 a 7.28 7.28 0 1 0 14.56 0 a 7.28 7.28 0 1 0 -14.56 0 Z" fill="none" stroke="hsl(99 55% 38%)" stroke-width="1.6" stroke-linejoin="round"/><path d="M 385.45 329.87 a 7.28 7.28 0 1 0 14.56 0 a 7.28 7.28 0 1 0 -14.56 0 Z" fill="none" stroke="hsl(99 55% 38%)" stroke-width="1.6" stroke-linejoin="round"/><path d="M 170 360 a 130 130 0 1 0 260 0 a 130 130 0 1 0 -260 0 Z" fill="none" stroke="hsl(99 55% 38%)" stroke-width="1.6" stroke-linejoin="round"/><path d="M 423.64 400.17 Q 425.89 427.82 448.36 408.21 Q 441.72 379.13 423.64 400.17 Z" fill="none" stroke="hsl(99 55% 38%)" stroke-width="1.6" stroke-linejoin="round"/><path d="M 376.41 465.17 Q 361.98 488.87 391.69 486.21 Q 403.41 458.77 376.41 465.17 Z" fill="none" stroke="hsl(99 55% 38%)" stroke-width="1.6" stroke-linejoin="round"/><path d="M 300 490 Q 274.4 500.69 300 516 Q 325.6 500.69 300 490 Z" fill="none" stroke="hsl(99 55% 38%)" stroke-width="1.6" stroke-linejoin="round"/><path d="M 223.59 465.17 Q 196.59 458.77 208.31 486.21 Q 238.02 488.87 223.59 465.17 Z" fill="none" stroke="hsl(99 55% 38%)" stroke-width="1.6" stroke-linejoin="round"/><path d="M 176.36 400.17 Q 158.28 379.13 151.64 408.21 Q 174.11 427.82 176.36 400.17 Z" fill="none" stroke="hsl(99 55% 38%)" stroke-width="1.6" stroke-linejoin="round"/><path d="M 176.36 319.83 Q 174.11 292.18 151.64 311.79 Q 158.28 340.87 176.36 319.83 Z" fill="none" stroke="hsl(99 55% 38%)" stroke-width="1.6" stroke-linejoin="round"/><path d="M 223.59 254.83 Q 238.02 231.13 208.31 233.79 Q 196.59 261.23 223.59 254.83 Z" fill="none" stroke="hsl(99 55% 38%)" stroke-width="1.6" stroke-linejoin="round"/><path d="M 300 230 Q 325.6 219.31 300 204 Q 274.4 219.31 300 230 Z" fill="none" stroke="hsl(99 55% 38%)" stroke-width="1.6" stroke-linejoin="round"/><path d="M 376.41 254.83 Q 403.41 261.23 391.69 233.79 Q 361.98 231.13 376.41 254.83 Z" fill="none" stroke="hsl(99 55% 38%)" stroke-width="1.6" stroke-linejoin="round"/><path d="M 423.64 319.83 Q 441.72 340.87 448.36 311.79 Q 425.89 292.18 423.64 319.83 Z" fill="none" stroke="hsl(99 55% 38%)" stroke-width="1.6" stroke-linejoin="round"/><path d="M 137.5 360 a 162.5 162.5 0 1 0 325 0 a 162.5 162.5 0 1 0 -325 0 Z" fill="none" stroke="hsl(99 55% 38%)" stroke-width="1.6" stroke-linejoin="round"/><path d="M 462.5 360 Q 472.66 391.42 488.5 360 Q 472.66 328.58 462.5 360 Z" fill="none" stroke="hsl(99 55% 38%)" stroke-width="1.6" stroke-linejoin="round"/><path d="M 454.55 410.22 Q 454.5 443.24 479.27 418.25 Q 473.92 383.47 454.55 410.22 Z" fill="none" stroke="hsl(99 55% 38%)" stroke-width="1.6" stroke-linejoin="round"/><path d="M 431.47 455.52 Q 421.22 486.91 452.5 470.8 Q 458.16 436.07 431.47 455.52 Z" fill="none" stroke="hsl(99 55% 38%)" stroke-width="1.6" stroke-linejoin="round"/><path d="M 395.52 491.47 Q 376.07 518.16 410.8 512.5 Q 426.91 481.22 395.52 491.47 Z" fill="none" stroke="hsl(99 55% 38%)" stroke-width="1.6" stroke-linejoin="round"/><path d="M 350.22 514.55 Q 323.47 533.92 358.25 539.27 Q 383.24 514.5 350.22 514.55 Z" fill="none" stroke="hsl(99 55% 38%)" stroke-width="1.6" stroke-linejoin="round"/><path d="M 300 522.5 Q 268.58 532.66 300 548.5 Q 331.42 532.66 300 522.5 Z" fill="none" stroke="hsl(99 55% 38%)" stroke-width="1.6" stroke-linejoin="round"/><path d="M 249.78 514.55 Q 216.76 514.5 241.75 539.27 Q 276.53 533.92 249.78 514.55 Z" fill="none" stroke="hsl(99 55% 38%)" stroke-width="1.6" stroke-linejoin="round"/><path d="M 204.48 491.47 Q 173.09 481.22 189.2 512.5 Q 223.93 518.16 204.48 491.47 Z" fill="none" stroke="hsl(99 55% 38%)" stroke-width="1.6" stroke-linejoin="round"/><path d="M 168.53 455.52 Q 141.84 436.07 147.5 470.8 Q 178.78 486.91 168.53 455.52 Z" fill="none" stroke="hsl(99 55% 38%)" stroke-width="1.6" stroke-linejoin="round"/><path d="M 145.45 410.22 Q 126.08 383.47 120.73 418.25 Q 145.5 443.24 145.45 410.22 Z" fill="none" stroke="hsl(99 55% 38%)" stroke-width="1.6" stroke-linejoin="round"/><path d="M 137.5 360 Q 127.34 328.58 111.5 360 Q 127.34 391.42 137.5 360 Z" fill="none" stroke="hsl(99 55% 38%)" stroke-width="1.6" stroke-linejoin="round"/><path d="M 145.45 309.78 Q 145.5 276.76 120.73 301.75 Q 126.08 336.53 145.45 309.78 Z" fill="none" stroke="hsl(99 55% 38%)" stroke-width="1.6" stroke-linejoin="round"/><path d="M 168.53 264.48 Q 178.78 233.09 147.5 249.2 Q 141.84 283.93 168.53 264.48 Z" fill="none" stroke="hsl(99 55% 38%)" stroke-width="1.6" stroke-linejoin="round"/><path d="M 204.48 228.53 Q 223.93 201.84 189.2 207.5 Q 173.09 238.78 204.48 228.53 Z" fill="none" stroke="hsl(99 55% 38%)" stroke-width="1.6" stroke-linejoin="round"/><path d="M 249.78 205.45 Q 276.53 186.08 241.75 180.73 Q 216.76 205.5 249.78 205.45 Z" fill="none" stroke="hsl(99 55% 38%)" stroke-width="1.6" stroke-linejoin="round"/><path d="M 300 197.5 Q 331.42 187.34 300 171.5 Q 268.58 187.34 300 197.5 Z" fill="none" stroke="hsl(99 55% 38%)" stroke-width="1.6" stroke-linejoin="round"/><path d="M 350.22 205.45 Q 383.24 205.5 358.25 180.73 Q 323.47 186.08 350.22 205.45 Z" fill="none" stroke="hsl(99 55% 38%)" stroke-width="1.6" stroke-linejoin="round"/><path d="M 395.52 228.53 Q 426.91 238.78 410.8 207.5 Q 376.07 201.84 395.52 228.53 Z" fill="none" stroke="hsl(99 55% 38%)" stroke-width="1.6" stroke-linejoin="round"/><path d="M 431.47 264.48 Q 458.16 283.93 452.5 249.2 Q 421.22 233.09 431.47 264.48 Z" fill="none" stroke="hsl(99 55% 38%)" stroke-width="1.6" stroke-linejoin="round"/><path d="M 454.55 309.78 Q 473.92 336.53 479.27 301.75 Q 454.5 276.76 454.55 309.78 Z" fill="none" stroke="hsl(99 55% 38%)" stroke-width="1.6" stroke-linejoin="round"/><path d="M 105 360 a 195 195 0 1 0 390 0 a 195 195 0 1 0 -390 0 Z" fill="none" stroke="hsl(99 55% 38%)" stroke-width="1.6" stroke-linejoin="round"/><path d="M 485.46 420.26 Q 483.12 458.65 510.18 428.29 Q 506.13 387.82 485.46 420.26 Z" fill="none" stroke="hsl(99 55% 38%)" stroke-width="1.6" stroke-linejoin="round"/><path d="M 414.62 517.76 Q 390.16 547.44 429.9 538.79 Q 450.41 503.67 414.62 517.76 Z" fill="none" stroke="hsl(99 55% 38%)" stroke-width="1.6" stroke-linejoin="round"/><path d="M 300 555 Q 262.76 564.64 300 581 Q 337.24 564.64 300 555 Z" fill="none" stroke="hsl(99 55% 38%)" stroke-width="1.6" stroke-linejoin="round"/><path d="M 185.38 517.76 Q 149.59 503.67 170.1 538.79 Q 209.84 547.44 185.38 517.76 Z" fill="none" stroke="hsl(99 55% 38%)" stroke-width="1.6" stroke-linejoin="round"/><path d="M 114.54 420.26 Q 93.87 387.82 89.82 428.29 Q 116.88 458.65 114.54 420.26 Z" fill="none" stroke="hsl(99 55% 38%)" stroke-width="1.6" stroke-linejoin="round"/><path d="M 114.54 299.74 Q 116.88 261.35 89.82 291.71 Q 93.87 332.18 114.54 299.74 Z" fill="none" stroke="hsl(99 55% 38%)" stroke-width="1.6" stroke-linejoin="round"/><path d="M 185.38 202.24 Q 209.84 172.56 170.1 181.21 Q 149.59 216.33 185.38 202.24 Z" fill="none" stroke="hsl(99 55% 38%)" stroke-width="1.6" stroke-linejoin="round"/><path d="M 300 165 Q 337.24 155.36 300 139 Q 262.76 155.36 300 165 Z" fill="none" stroke="hsl(99 55% 38%)" stroke-width="1.6" stroke-linejoin="round"/><path d="M 414.62 202.24 Q 450.41 216.33 429.9 181.21 Q 390.16 172.56 414.62 202.24 Z" fill="none" stroke="hsl(99 55% 38%)" stroke-width="1.6" stroke-linejoin="round"/><path d="M 485.46 299.74 Q 506.13 332.18 510.18 291.71 Q 483.12 261.35 485.46 299.74 Z" fill="none" stroke="hsl(99 55% 38%)" stroke-width="1.6" stroke-linejoin="round"/><path d="M 105 360 a 195 195 0 1 0 390 0 a 195 195 0 1 0 -390 0 Z" fill="none" stroke="hsl(99 55% 38%)" stroke-width="1.6" stroke-linejoin="round"/></g>
  <g transform="translate(300,640)">
    <rect x="-110" y="-26" width="220" height="34" rx="17" fill="#ffffff" opacity="0.8"/>
    <text x="0" y="-3" text-anchor="middle" font-family="Quicksand, Arial, sans-serif" font-size="16" font-weight="600" fill="hsl(99 55% 38%)">🪷 Paisley &amp; Henna</text>
  </g>
  <text x="300" y="700" text-anchor="middle" font-family="Quicksand, Arial, sans-serif" font-size="40" font-weight="700" fill="#2b2540"><tspan x="300" dy="0">Paisley &amp; Henna –</tspan><tspan x="300" dy="44">Vol. 1</tspan></text>
  <text x="300" y="772" text-anchor="middle" font-family="Arial, sans-serif" font-size="15" fill="#5b5470">Malbuch · 30 Seiten</text>
</svg>