<svg xmlns="http://www.w3.org/2000/svg" viewBox="0 0 600 800" width="600" height="800">
  <defs>
    <linearGradient id="bg" x1="0" y1="0" x2="0" y2="1">
      <stop offset="0" stop-color="hsl(123 70% 95%)"/><stop offset="1" stop-color="hsl(163 70% 92%)"/>
    </linearGradient>
  </defs>
  <rect width="600" height="800" fill="url(#bg)"/>
  <rect x="22" y="22" width="556" height="756" rx="28" fill="none" stroke="hsl(123 55% 38%)" stroke-width="2" opacity="0.5"/>
  <text x="300" y="74" text-anchor="middle" font-family="Quicksand, Arial, sans-serif" font-size="26" font-weight="700" fill="hsl(123 55% 38%)">&#10022; Coloreo</text>
  <g transform="translate(0,40)"><path d="M 323.4 360 Q 335.17 372.84 349.14 360 Q 335.17 347.16 323.4 360 Z" fill="none" stroke="hsl(123 55% 38%)" stroke-width="1.6" stroke-linejoin="round"/><path d="M 316.55 376.55 Q 315.79 393.95 334.75 394.75 Q 333.95 375.79 316.55 376.55 Z" fill="none" stroke="hsl(123 55% 38%)" stroke-width="1.6" stroke-linejoin="round"/><path d="M 300 383.4 Q 287.16 395.17 300 409.14 Q 312.84 395.17 300 383.4 Z" fill="none" stroke="hsl(123 55% 38%)" stroke-width="1.6" stroke-linejoin="round"/><path d="M 283.45 376.55 Q 266.05 375.79 265.25 394.75 Q 284.21 393.95 283.45 376.55 Z" fill="none" stroke="hsl(123 55% 38%)" stroke-width="1.6" stroke-linejoin="round"/><path d="M 276.6 360 Q 264.83 347.16 250.86 360 Q 264.83 372.84 276.6 360 Z" fill="none" stroke="hsl(123 55% 38%)" stroke-width="1.6" stroke-linejoin="round"/><path d="M 283.45 343.45 Q 284.21 326.05 265.25 325.25 Q 266.05 344.21 283.45 343.45 Z" fill="none" stroke="hsl(123 55% 38%)" stroke-width="1.6" stroke-linejoin="round"/><path d="M 300 336.6 Q 312.84 324.83 300 310.86 Q 287.16 324.83 300 336.6 Z" fill="none" stroke="hsl(123 55% 38%)" stroke-width="1.6" stroke-linejoin="round"/><path d="M 316.55 343.45 Q 333.95 344.21 334.75 325.25 Q 315.79 326.05 316.55 343.45 Z" fill="none" stroke="hsl(123 55% 38%)" stroke-width="1.6" stroke-linejoin="round"/><path d="M 300 345.96 C 307.75 345.96 314.04 352.25 314.04 360 C 314.04 367.75 307.75 374.04 300 374.04 C 292.25 374.04 285.96 367.75 285.96 360 C 285.96 352.25 292.25 345.96 300 345.96 Z" fill="none" stroke="hsl(123 55% 38%)" stroke-width="1.6" stroke-linejoin="round"/><path d="M 300 262.5 C 353.85 262.5 397.5 306.15 397.5 360 C 397.5 413.85 353.85 457.5 300 457.5 C 246.15 457.5 202.5 413.85 202.5 360 C 202.5 306.15 246.15 262.5 300 262.5 Z" fill="none" stroke="hsl(123 55% 38%)" stroke-width="1.6" stroke-linejoin="round"/><path d="M 390.08 397.31 L 415.3 407.76" fill="none" stroke="hsl(123 55% 38%)" stroke-width="1.6" stroke-linejoin="round"/><path d="M 337.31 450.08 L 347.76 475.3" fill="none" stroke="hsl(123 55% 38%)" stroke-width="1.6" stroke-linejoin="round"/><path d="M 262.69 450.08 L 252.24 475.3" fill="none" stroke="hsl(123 55% 38%)" stroke-width="1.6" stroke-linejoin="round"/><path d="M 209.92 397.31 L 184.7 407.76" fill="none" stroke="hsl(123 55% 38%)" stroke-width="1.6" stroke-linejoin="round"/><path d="M 209.92 322.69 L 184.7 312.24" fill="none" stroke="hsl(123 55% 38%)" stroke-width="1.6" stroke-linejoin="round"/><path d="M 262.69 269.92 L 252.24 244.7" fill="none" stroke="hsl(123 55% 38%)" stroke-width="1.6" stroke-linejoin="round"/><path d="M 337.31 269.92 L 347.76 244.7" fill="none" stroke="hsl(123 55% 38%)" stroke-width="1.6" stroke-linejoin="round"/><path d="M 390.08 322.69 L 415.3 312.24" fill="none" stroke="hsl(123 55% 38%)" stroke-width="1.6" stroke-linejoin="round"/><path d="M 300 213.75 C 380.77 213.75 446.25 279.23 446.25 360 C 446.25 440.77 380.77 506.25 300 506.25 C 219.23 506.25 153.75 440.77 153.75 360 C 153.75 279.23 219.23 213.75 300 213.75 Z" fill="none" stroke="hsl(123 55% 38%)" stroke-width="1.6" stroke-linejoin="round"/><path d="M 446.25 349.08 C 452.28 349.08 457.17 353.97 457.17 360 C 457.17 366.03 452.28 370.92 446.25 370.92 C 440.22 370.92 435.33 366.03 435.33 360 C 435.33 353.97 440.22 349.08 446.25 349.08 Z" fill="none" stroke="hsl(123 55% 38%)" stroke-width="1.6" stroke-linejoin="round"/><path d="M 435.12 405.05 C 441.15 405.05 446.04 409.94 446.04 415.97 C 446.04 422 441.15 426.89 435.12 426.89 C 429.09 426.89 424.2 422 424.2 415.97 C 424.2 409.94 429.09 405.05 435.12 405.05 Z" fill="none" stroke="hsl(123 55% 38%)" stroke-width="1.6" stroke-linejoin="round"/><path d="M 403.41 452.49 C 409.45 452.49 414.33 457.38 414.33 463.41 C 414.33 469.45 409.45 474.33 403.41 474.33 C 397.38 474.33 392.49 469.45 392.49 463.41 C 392.49 457.38 397.38 452.49 403.41 452.49 Z" fill="none" stroke="hsl(123 55% 38%)" stroke-width="1.6" stroke-linejoin="round"/><path d="M 355.97 484.2 C 362 484.2 366.89 489.09 366.89 495.12 C 366.89 501.15 362 506.04 355.97 506.04 C 349.94 506.04 345.05 501.15 345.05 495.12 C 345.05 489.09 349.94 484.2 355.97 484.2 Z" fill="none" stroke="hsl(123 55% 38%)" stroke-width="1.6" stroke-linejoin="round"/><path d="M 300 495.33 C 306.03 495.33 310.92 500.22 310.92 506.25 C 310.92 512.28 306.03 517.17 300 517.17 C 293.97 517.17 289.08 512.28 289.08 506.25 C 289.08 500.22 293.97 495.33 300 495.33 Z" fill="none" stroke="hsl(123 55% 38%)" stroke-width="1.6" stroke-linejoin="round"/><path d="M 244.03 484.2 C 250.06 484.2 254.95 489.09 254.95 495.12 C 254.95 501.15 250.06 506.04 244.03 506.04 C 238 506.04 233.11 501.15 233.11 495.12 C 233.11 489.09 238 484.2 244.03 484.2 Z" fill="none" stroke="hsl(123 55% 38%)" stroke-width="1.6" stroke-linejoin="round"/><path d="M 196.59 452.49 C 202.62 452.49 207.51 457.38 207.51 463.41 C 207.51 469.45 202.62 474.33 196.59 474.33 C 190.55 474.33 185.67 469.45 185.67 463.41 C 185.67 457.38 190.55 452.49 196.59 452.49 Z" fill="none" stroke="hsl(123 55% 38%)" stroke-width="1.6" stroke-linejoin="round"/><path d="M 164.88 405.05 C 170.91 405.05 175.8 409.94 175.8 415.97 C 175.8 422 170.91 426.89 164.88 426.89 C 158.85 426.89 153.96 422 153.96 415.97 C 153.96 409.94 158.85 405.05 164.88 405.05 Z" fill="none" stroke="hsl(123 55% 38%)" stroke-width="1.6" stroke-linejoin="round"/><path d="M 153.75 349.08 C 159.78 349.08 164.67 353.97 164.67 360 C 164.67 366.03 159.78 370.92 153.75 370.92 C 147.72 370.92 142.83 366.03 142.83 360 C 142.83 353.97 147.72 349.08 153.75 349.08 Z" fill="none" stroke="hsl(123 55% 38%)" stroke-width="1.6" stroke-linejoin="round"/><path d="M 164.88 293.11 C 170.91 293.11 175.8 298 175.8 304.03 C 175.8 310.06 170.91 314.95 164.88 314.95 C 158.85 314.95 153.96 310.06 153.96 304.03 C 153.96 298 158.85 293.11 164.88 293.11 Z" fill="none" stroke="hsl(123 55% 38%)" stroke-width="1.6" stroke-linejoin="round"/><path d="M 196.59 245.67 C 202.62 245.67 207.51 250.55 207.51 256.59 C 207.51 262.62 202.62 267.51 196.59 267.51 C 190.55 267.51 185.67 262.62 185.67 256.59 C 185.67 250.55 190.55 245.67 196.59 245.67 Z" fill="none" stroke="hsl(123 55% 38%)" stroke-width="1.6" stroke-linejoin="round"/><path d="M 244.03 213.96 C 250.06 213.96 254.95 218.85 254.95 224.88 C 254.95 230.91 250.06 235.8 244.03 235.8 C 238 235.8 233.11 230.91 233.11 224.88 C 233.11 218.85 238 213.96 244.03 213.96 Z" fill="none" stroke="hsl(123 55% 38%)" stroke-width="1.6" stroke-linejoin="round"/><path d="M 300 202.83 C 306.03 202.83 310.92 207.72 310.92 213.75 C 310.92 219.78 306.03 224.67 300 224.67 C 293.97 224.67 289.08 219.78 289.08 213.75 C 289.08 207.72 293.97 202.83 300 202.83 Z" fill="none" stroke="hsl(123 55% 38%)" stroke-width="1.6" stroke-linejoin="round"/><path d="M 355.97 213.96 C 362 213.96 366.89 218.85 366.89 224.88 C 366.89 230.91 362 235.8 355.97 235.8 C 349.94 235.8 345.05 230.91 345.05 224.88 C 345.05 218.85 349.94 213.96 355.97 213.96 Z" fill="none" stroke="hsl(123 55% 38%)" stroke-width="1.6" stroke-linejoin="round"/><path d="M 403.41 245.67 C 409.45 245.67 414.33 250.55 414.33 256.59 C 414.33 262.62 409.45 267.51 403.41 267.51 C 397.38 267.51 392.49 262.62 392.49 256.59 C 392.49 250.55 397.38 245.67 403.41 245.67 Z" fill="none" stroke="hsl(123 55% 38%)" stroke-width="1.6" stroke-linejoin="round"/><path d="M 435.12 293.11 C 441.15 293.11 446.04 298 446.04 304.03 C 446.04 310.06 441.15 314.95 435.12 314.95 C 429.09 314.95 424.2 310.06 424.2 304.03 C 424.2 298 429.09 293.11 435.12 293.11 Z" fill="none" stroke="hsl(123 55% 38%)" stroke-width="1.6" stroke-linejoin="round"/><path d="M 300 165 C 407.7 165 495 252.3 495 360 C 495 467.7 407.7 555 300 555 C 192.3 555 105 467.7 105 360 C 105 252.3 192.3 165 300 165 Z" fill="none" stroke="hsl(123 55% 38%)" stroke-width="1.6" stroke-linejoin="round"/><path d="M 480.16 434.62 Q 480.27 476.24 516.19 449.55 Q 509.67 405.28 480.16 434.62 Z" fill="none" stroke="hsl(123 55% 38%)" stroke-width="1.6" stroke-linejoin="round"/><path d="M 374.62 540.16 Q 345.28 569.67 389.55 576.19 Q 416.24 540.27 374.62 540.16 Z" fill="none" stroke="hsl(123 55% 38%)" stroke-width="1.6" stroke-linejoin="round"/><path d="M 225.38 540.16 Q 183.76 540.27 210.45 576.19 Q 254.72 569.67 225.38 540.16 Z" fill="none" stroke="hsl(123 55% 38%)" stroke-width="1.6" stroke-linejoin="round"/><path d="M 119.84 434.62 Q 90.33 405.28 83.81 449.55 Q 119.73 476.24 119.84 434.62 Z" fill="none" stroke="hsl(123 55% 38%)" stroke-width="1.6" stroke-linejoin="round"/><path d="M 119.84 285.38 Q 119.73 243.76 83.81 270.45 Q 90.33 314.72 119.84 285.38 Z" fill="none" stroke="hsl(123 55% 38%)" stroke-width="1.6" stroke-linejoin="round"/><path d="M 225.38 179.84 Q 254.72 150.33 210.45 143.81 Q 183.76 179.73 225.38 179.84 Z" fill="none" stroke="hsl(123 55% 38%)" stroke-width="1.6" stroke-linejoin="round"/><path d="M 374.62 179.84 Q 416.24 179.73 389.55 143.81 Q 345.28 150.33 374.62 179.84 Z" fill="none" stroke="hsl(123 55% 38%)" stroke-width="1.6" stroke-linejoin="round"/><path d="M 480.16 285.38 Q 509.67 314.72 516.19 270.45 Q 480.27 243.76 480.16 285.38 Z" fill="none" stroke="hsl(123 55% 38%)" stroke-width="1.6" stroke-linejoin="round"/><path d="M 300 165 C 407.7 165 495 252.3 495 360 C 495 467.7 407.7 555 300 555 C 192.3 555 105 467.7 105 360 C 105 252.3 192.3 165 300 165 Z" fill="none" stroke="hsl(123 55% 38%)" stroke-width="1.6" stroke-linejoin="round"/></g>
  <g transform="translate(300,640)">
    <rect x="-110" y="-26" width="220" height="34" rx="17" fill="#ffffff" opacity="0.8"/>
    <text x="0" y="-3" text-anchor="middle" font-family="Quicksand, Arial, sans-serif" font-size="16" font-weight="600" fill="hsl(123 55% 38%)">🦋 Schmetterlinge</text>
  </g>
  <text x="300" y="700" text-anchor="middle" font-family="Quicksand, Arial, sans-serif" font-size="40" font-weight="700" fill="#2b2540"><tspan x="300" dy="0">Schmetterlinge –</tspan><tspan x="300" dy="44">Vol. 1</tspan></text>
  <text x="300" y="772" text-anchor="middle" font-family="Arial, sans-serif" font-size="15" fill="#5b5470">Malbuch · 24 Seiten</text>
</svg>