<svg xmlns="http://www.w3.org/2000/svg" viewBox="0 0 600 800" width="600" height="800">
  <defs>
    <linearGradient id="bg" x1="0" y1="0" x2="0" y2="1">
      <stop offset="0" stop-color="hsl(123 70% 95%)"/><stop offset="1" stop-color="hsl(163 70% 92%)"/>
    </linearGradient>
  </defs>
  <rect width="600" height="800" fill="url(#bg)"/>
  <rect x="22" y="22" width="556" height="756" rx="28" fill="none" stroke="hsl(123 55% 38%)" stroke-width="2" opacity="0.5"/>
  <text x="300" y="74" text-anchor="middle" font-family="Quicksand, Arial, sans-serif" font-size="26" font-weight="700" fill="hsl(123 55% 38%)">&#10022; Coloreo</text>
  <g transform="translate(0,40)"><path d="M 323.4 360 Q 335.17 372.84 349.14 360 Q 335.17 347.16 323.4 360 Z" fill="none" stroke="hsl(123 55% 38%)" stroke-width="1.6" stroke-linejoin="round"/><path d="M 316.55 376.55 Q 315.79 393.95 334.75 394.75 Q 333.95 375.79 316.55 376.55 Z" fill="none" stroke="hsl(123 55% 38%)" stroke-width="1.6" stroke-linejoin="round"/><path d="M 300 383.4 Q 287.16 395.17 300 409.14 Q 312.84 395.17 300 383.4 Z" fill="none" stroke="hsl(123 55% 38%)" stroke-width="1.6" stroke-linejoin="round"/><path d="M 283.45 376.55 Q 266.05 375.79 265.25 394.75 Q 284.21 393.95 283.45 376.55 Z" fill="none" stroke="hsl(123 55% 38%)" stroke-width="1.6" stroke-linejoin="round"/><path d="M 276.6 360 Q 264.83 347.16 250.86 360 Q 264.83 372.84 276.6 360 Z" fill="none" stroke="hsl(123 55% 38%)" stroke-width="1.6" stroke-linejoin="round"/><path d="M 283.45 343.45 Q 284.21 326.05 265.25 325.25 Q 266.05 344.21 283.45 343.45 Z" fill="none" stroke="hsl(123 55% 38%)" stroke-width="1.6" stroke-linejoin="round"/><path d="M 300 336.6 Q 312.84 324.83 300 310.86 Q 287.16 324.83 300 336.6 Z" fill="none" stroke="hsl(123 55% 38%)" stroke-width="1.6" stroke-linejoin="round"/><path d="M 316.55 343.45 Q 333.95 344.21 334.75 325.25 Q 315.79 326.05 316.55 343.45 Z" fill="none" stroke="hsl(123 55% 38%)" stroke-width="1.6" stroke-linejoin="round"/><path d="M 285.96 360 a 14.04 14.04 0 1 0 28.08 0 a 14.04 14.04 0 1 0 -28.08 0 Z" fill="none" stroke="hsl(123 55% 38%)" stroke-width="1.6" stroke-linejoin="round"/><path d="M 202.5 360 a 97.5 97.5 0 1 0 195 0 a 97.5 97.5 0 1 0 -195 0 Z" fill="none" stroke="hsl(123 55% 38%)" stroke-width="1.6" stroke-linejoin="round"/><path d="M 390.08 397.31 L 415.3 407.76" fill="none" stroke="hsl(123 55% 38%)" stroke-width="1.6" stroke-linejoin="round"/><path d="M 337.31 450.08 L 347.76 475.3" fill="none" stroke="hsl(123 55% 38%)" stroke-width="1.6" stroke-linejoin="round"/><path d="M 262.69 450.08 L 252.24 475.3" fill="none" stroke="hsl(123 55% 38%)" stroke-width="1.6" stroke-linejoin="round"/><path d="M 209.92 397.31 L 184.7 407.76" fill="none" stroke="hsl(123 55% 38%)" stroke-width="1.6" stroke-linejoin="round"/><path d="M 209.92 322.69 L 184.7 312.24" fill="none" stroke="hsl(123 55% 38%)" stroke-width="1.6" stroke-linejoin="round"/><path d="M 262.69 269.92 L 252.24 244.7" fill="none" stroke="hsl(123 55% 38%)" stroke-width="1.6" stroke-linejoin="round"/><path d="M 337.31 269.92 L 347.76 244.7" fill="none" stroke="hsl(123 55% 38%)" stroke-width="1.6" stroke-linejoin="round"/><path d="M 390.08 322.69 L 415.3 312.24" fill="none" stroke="hsl(123 55% 38%)" stroke-width="1.6" stroke-linejoin="round"/><path d="M 153.75 360 a 146.25 146.25 0 1 0 292.5 0 a 146.25 146.25 0 1 0 -292.5 0 Z" fill="none" stroke="hsl(123 55% 38%)" stroke-width="1.6" stroke-linejoin="round"/><path d="M 435.33 360 a 10.92 10.92 0 1 0 21.84 0 a 10.92 10.92 0 1 0 -21.84 0 Z" fill="none" stroke="hsl(123 55% 38%)" stroke-width="1.6" stroke-linejoin="round"/><path d="M 424.2 415.97 a 10.92 10.92 0 1 0 21.84 0 a 10.92 10.92 0 1 0 -21.84 0 Z" fill="none" stroke="hsl(123 55% 38%)" stroke-width="1.6" stroke-linejoin="round"/><path d="M 392.49 463.41 a 10.92 10.92 0 1 0 21.84 0 a 10.92 10.92 0 1 0 -21.84 0 Z" fill="none" stroke="hsl(123 55% 38%)" stroke-width="1.6" stroke-linejoin="round"/><path d="M 345.05 495.12 a 10.92 10.92 0 1 0 21.84 0 a 10.92 10.92 0 1 0 -21.84 0 Z" fill="none" stroke="hsl(123 55% 38%)" stroke-width="1.6" stroke-linejoin="round"/><path d="M 289.08 506.25 a 10.92 10.92 0 1 0 21.84 0 a 10.92 10.92 0 1 0 -21.84 0 Z" fill="none" stroke="hsl(123 55% 38%)" stroke-width="1.6" stroke-linejoin="round"/><path d="M 233.11 495.12 a 10.92 10.92 0 1 0 21.84 0 a 10.92 10.92 0 1 0 -21.84 0 Z" fill="none" stroke="hsl(123 55% 38%)" stroke-width="1.6" stroke-linejoin="round"/><path d="M 185.67 463.41 a 10.92 10.92 0 1 0 21.84 0 a 10.92 10.92 0 1 0 -21.84 0 Z" fill="none" stroke="hsl(123 55% 38%)" stroke-width="1.6" stroke-linejoin="round"/><path d="M 153.96 415.97 a 10.92 10.92 0 1 0 21.84 0 a 10.92 10.92 0 1 0 -21.84 0 Z" fill="none" stroke="hsl(123 55% 38%)" stroke-width="1.6" stroke-linejoin="round"/><path d="M 142.83 360 a 10.92 10.92 0 1 0 21.84 0 a 10.92 10.92 0 1 0 -21.84 0 Z" fill="none" stroke="hsl(123 55% 38%)" stroke-width="1.6" stroke-linejoin="round"/><path d="M 153.96 304.03 a 10.92 10.92 0 1 0 21.84 0 a 10.92 10.92 0 1 0 -21.84 0 Z" fill="none" stroke="hsl(123 55% 38%)" stroke-width="1.6" stroke-linejoin="round"/><path d="M 185.67 256.59 a 10.92 10.92 0 1 0 21.84 0 a 10.92 10.92 0 1 0 -21.84 0 Z" fill="none" stroke="hsl(123 55% 38%)" stroke-width="1.6" stroke-linejoin="round"/><path d="M 233.11 224.88 a 10.92 10.92 0 1 0 21.84 0 a 10.92 10.92 0 1 0 -21.84 0 Z" fill="none" stroke="hsl(123 55% 38%)" stroke-width="1.6" stroke-linejoin="round"/><path d="M 289.08 213.75 a 10.92 10.92 0 1 0 21.84 0 a 10.92 10.92 0 1 0 -21.84 0 Z" fill="none" stroke="hsl(123 55% 38%)" stroke-width="1.6" stroke-linejoin="round"/><path d="M 345.05 224.88 a 10.92 10.92 0 1 0 21.84 0 a 10.92 10.92 0 1 0 -21.84 0 Z" fill="none" stroke="hsl(123 55% 38%)" stroke-width="1.6" stroke-linejoin="round"/><path d="M 392.49 256.59 a 10.92 10.92 0 1 0 21.84 0 a 10.92 10.92 0 1 0 -21.84 0 Z" fill="none" stroke="hsl(123 55% 38%)" stroke-width="1.6" stroke-linejoin="round"/><path d="M 424.2 304.03 a 10.92 10.92 0 1 0 21.84 0 a 10.92 10.92 0 1 0 -21.84 0 Z" fill="none" stroke="hsl(123 55% 38%)" stroke-width="1.6" stroke-linejoin="round"/><path d="M 105 360 a 195 195 0 1 0 390 0 a 195 195 0 1 0 -390 0 Z" fill="none" stroke="hsl(123 55% 38%)" stroke-width="1.6" stroke-linejoin="round"/><path d="M 480.16 434.62 Q 480.27 476.24 516.19 449.55 Q 509.67 405.28 480.16 434.62 Z" fill="none" stroke="hsl(123 55% 38%)" stroke-width="1.6" stroke-linejoin="round"/><path d="M 374.62 540.16 Q 345.28 569.67 389.55 576.19 Q 416.24 540.27 374.62 540.16 Z" fill="none" stroke="hsl(123 55% 38%)" stroke-width="1.6" stroke-linejoin="round"/><path d="M 225.38 540.16 Q 183.76 540.27 210.45 576.19 Q 254.72 569.67 225.38 540.16 Z" fill="none" stroke="hsl(123 55% 38%)" stroke-width="1.6" stroke-linejoin="round"/><path d="M 119.84 434.62 Q 90.33 405.28 83.81 449.55 Q 119.73 476.24 119.84 434.62 Z" fill="none" stroke="hsl(123 55% 38%)" stroke-width="1.6" stroke-linejoin="round"/><path d="M 119.84 285.38 Q 119.73 243.76 83.81 270.45 Q 90.33 314.72 119.84 285.38 Z" fill="none" stroke="hsl(123 55% 38%)" stroke-width="1.6" stroke-linejoin="round"/><path d="M 225.38 179.84 Q 254.72 150.33 210.45 143.81 Q 183.76 179.73 225.38 179.84 Z" fill="none" stroke="hsl(123 55% 38%)" stroke-width="1.6" stroke-linejoin="round"/><path d="M 374.62 179.84 Q 416.24 179.73 389.55 143.81 Q 345.28 150.33 374.62 179.84 Z" fill="none" stroke="hsl(123 55% 38%)" stroke-width="1.6" stroke-linejoin="round"/><path d="M 480.16 285.38 Q 509.67 314.72 516.19 270.45 Q 480.27 243.76 480.16 285.38 Z" fill="none" stroke="hsl(123 55% 38%)" stroke-width="1.6" stroke-linejoin="round"/><path d="M 105 360 a 195 195 0 1 0 390 0 a 195 195 0 1 0 -390 0 Z" fill="none" stroke="hsl(123 55% 38%)" stroke-width="1.6" stroke-linejoin="round"/></g>
  <g transform="translate(300,640)">
    <rect x="-110" y="-26" width="220" height="34" rx="17" fill="#ffffff" opacity="0.8"/>
    <text x="0" y="-3" text-anchor="middle" font-family="Quicksand, Arial, sans-serif" font-size="16" font-weight="600" fill="hsl(123 55% 38%)">🦋 Schmetterlinge</text>
  </g>
  <text x="300" y="700" text-anchor="middle" font-family="Quicksand, Arial, sans-serif" font-size="40" font-weight="700" fill="#2b2540"><tspan x="300" dy="0">Schmetterlinge –</tspan><tspan x="300" dy="44">Vol. 1</tspan></text>
  <text x="300" y="772" text-anchor="middle" font-family="Arial, sans-serif" font-size="15" fill="#5b5470">Malbuch · 30 Seiten</text>
</svg>