<svg xmlns="http://www.w3.org/2000/svg" viewBox="0 0 600 800" width="600" height="800">
  <defs>
    <linearGradient id="bg" x1="0" y1="0" x2="0" y2="1">
      <stop offset="0" stop-color="hsl(228 70% 95%)"/><stop offset="1" stop-color="hsl(268 70% 92%)"/>
    </linearGradient>
  </defs>
  <rect width="600" height="800" fill="url(#bg)"/>
  <rect x="22" y="22" width="556" height="756" rx="28" fill="none" stroke="hsl(228 55% 38%)" stroke-width="2" opacity="0.5"/>
  <text x="300" y="74" text-anchor="middle" font-family="Quicksand, Arial, sans-serif" font-size="26" font-weight="700" fill="hsl(228 55% 38%)">&#10022; Coloreo</text>
  <g transform="translate(0,40)"><path d="M 323.4 360 Q 335.17 372.84 349.14 360 Q 335.17 347.16 323.4 360 Z" fill="none" stroke="hsl(228 55% 38%)" stroke-width="1.6" stroke-linejoin="round"/><path d="M 311.7 380.26 Q 306.47 396.88 324.57 402.56 Q 328.7 384.04 311.7 380.26 Z" fill="none" stroke="hsl(228 55% 38%)" stroke-width="1.6" stroke-linejoin="round"/><path d="M 288.3 380.26 Q 271.3 384.04 275.43 402.56 Q 293.53 396.88 288.3 380.26 Z" fill="none" stroke="hsl(228 55% 38%)" stroke-width="1.6" stroke-linejoin="round"/><path d="M 276.6 360 Q 264.83 347.16 250.86 360 Q 264.83 372.84 276.6 360 Z" fill="none" stroke="hsl(228 55% 38%)" stroke-width="1.6" stroke-linejoin="round"/><path d="M 288.3 339.74 Q 293.53 323.12 275.43 317.44 Q 271.3 335.96 288.3 339.74 Z" fill="none" stroke="hsl(228 55% 38%)" stroke-width="1.6" stroke-linejoin="round"/><path d="M 311.7 339.74 Q 328.7 335.96 324.57 317.44 Q 306.47 323.12 311.7 339.74 Z" fill="none" stroke="hsl(228 55% 38%)" stroke-width="1.6" stroke-linejoin="round"/><path d="M 300 345.96 C 307.75 345.96 314.04 352.25 314.04 360 C 314.04 367.75 307.75 374.04 300 374.04 C 292.25 374.04 285.96 367.75 285.96 360 C 285.96 352.25 292.25 345.96 300 345.96 Z" fill="none" stroke="hsl(228 55% 38%)" stroke-width="1.6" stroke-linejoin="round"/><path d="M 300 295 C 335.9 295 365 324.1 365 360 C 365 395.9 335.9 425 300 425 C 264.1 425 235 395.9 235 360 C 235 324.1 264.1 295 300 295 Z" fill="none" stroke="hsl(228 55% 38%)" stroke-width="1.6" stroke-linejoin="round"/><path d="M 356.29 392.5 Q 359.48 410.46 378.81 405.5 Q 373.44 386.28 356.29 392.5 Z" fill="none" stroke="hsl(228 55% 38%)" stroke-width="1.6" stroke-linejoin="round"/><path d="M 300 425 Q 286.04 436.74 300 451 Q 313.96 436.74 300 425 Z" fill="none" stroke="hsl(228 55% 38%)" stroke-width="1.6" stroke-linejoin="round"/><path d="M 243.71 392.5 Q 226.56 386.28 221.19 405.5 Q 240.52 410.46 243.71 392.5 Z" fill="none" stroke="hsl(228 55% 38%)" stroke-width="1.6" stroke-linejoin="round"/><path d="M 243.71 327.5 Q 240.52 309.54 221.19 314.5 Q 226.56 333.72 243.71 327.5 Z" fill="none" stroke="hsl(228 55% 38%)" stroke-width="1.6" stroke-linejoin="round"/><path d="M 300 295 Q 313.96 283.26 300 269 Q 286.04 283.26 300 295 Z" fill="none" stroke="hsl(228 55% 38%)" stroke-width="1.6" stroke-linejoin="round"/><path d="M 356.29 327.5 Q 373.44 333.72 378.81 314.5 Q 359.48 309.54 356.29 327.5 Z" fill="none" stroke="hsl(228 55% 38%)" stroke-width="1.6" stroke-linejoin="round"/><path d="M 300 262.5 C 353.85 262.5 397.5 306.15 397.5 360 C 397.5 413.85 353.85 457.5 300 457.5 C 246.15 457.5 202.5 413.85 202.5 360 C 202.5 306.15 246.15 262.5 300 262.5 Z" fill="none" stroke="hsl(228 55% 38%)" stroke-width="1.6" stroke-linejoin="round"/><path d="M 397.5 360 Q 408.71 379.78 423.5 360 Q 408.71 340.22 397.5 360 Z" fill="none" stroke="hsl(228 55% 38%)" stroke-width="1.6" stroke-linejoin="round"/><path d="M 384.44 408.75 Q 384.26 431.49 406.95 421.75 Q 404.04 397.22 384.44 408.75 Z" fill="none" stroke="hsl(228 55% 38%)" stroke-width="1.6" stroke-linejoin="round"/><path d="M 348.75 444.44 Q 337.22 464.04 361.75 466.95 Q 371.49 444.26 348.75 444.44 Z" fill="none" stroke="hsl(228 55% 38%)" stroke-width="1.6" stroke-linejoin="round"/><path d="M 300 457.5 Q 280.22 468.71 300 483.5 Q 319.78 468.71 300 457.5 Z" fill="none" stroke="hsl(228 55% 38%)" stroke-width="1.6" stroke-linejoin="round"/><path d="M 251.25 444.44 Q 228.51 444.26 238.25 466.95 Q 262.78 464.04 251.25 444.44 Z" fill="none" stroke="hsl(228 55% 38%)" stroke-width="1.6" stroke-linejoin="round"/><path d="M 215.56 408.75 Q 195.96 397.22 193.05 421.75 Q 215.74 431.49 215.56 408.75 Z" fill="none" stroke="hsl(228 55% 38%)" stroke-width="1.6" stroke-linejoin="round"/><path d="M 202.5 360 Q 191.29 340.22 176.5 360 Q 191.29 379.78 202.5 360 Z" fill="none" stroke="hsl(228 55% 38%)" stroke-width="1.6" stroke-linejoin="round"/><path d="M 215.56 311.25 Q 215.74 288.51 193.05 298.25 Q 195.96 322.78 215.56 311.25 Z" fill="none" stroke="hsl(228 55% 38%)" stroke-width="1.6" stroke-linejoin="round"/><path d="M 251.25 275.56 Q 262.78 255.96 238.25 253.05 Q 228.51 275.74 251.25 275.56 Z" fill="none" stroke="hsl(228 55% 38%)" stroke-width="1.6" stroke-linejoin="round"/><path d="M 300 262.5 Q 319.78 251.29 300 236.5 Q 280.22 251.29 300 262.5 Z" fill="none" stroke="hsl(228 55% 38%)" stroke-width="1.6" stroke-linejoin="round"/><path d="M 348.75 275.56 Q 371.49 275.74 361.75 253.05 Q 337.22 255.96 348.75 275.56 Z" fill="none" stroke="hsl(228 55% 38%)" stroke-width="1.6" stroke-linejoin="round"/><path d="M 384.44 311.25 Q 404.04 322.78 406.95 298.25 Q 384.26 288.51 384.44 311.25 Z" fill="none" stroke="hsl(228 55% 38%)" stroke-width="1.6" stroke-linejoin="round"/><path d="M 300 230 C 371.8 230 430 288.2 430 360 C 430 431.8 371.8 490 300 490 C 228.2 490 170 431.8 170 360 C 170 288.2 228.2 230 300 230 Z" fill="none" stroke="hsl(228 55% 38%)" stroke-width="1.6" stroke-linejoin="round"/><path d="M 412.58 425 Q 409.04 452.52 435.1 438 Q 434.64 408.17 412.58 425 Z" fill="none" stroke="hsl(228 55% 38%)" stroke-width="1.6" stroke-linejoin="round"/><path d="M 300 490 Q 274.4 500.69 300 516 Q 325.6 500.69 300 490 Z" fill="none" stroke="hsl(228 55% 38%)" stroke-width="1.6" stroke-linejoin="round"/><path d="M 187.42 425 Q 165.36 408.17 164.9 438 Q 190.96 452.52 187.42 425 Z" fill="none" stroke="hsl(228 55% 38%)" stroke-width="1.6" stroke-linejoin="round"/><path d="M 187.42 295 Q 190.96 267.48 164.9 282 Q 165.36 311.83 187.42 295 Z" fill="none" stroke="hsl(228 55% 38%)" stroke-width="1.6" stroke-linejoin="round"/><path d="M 300 230 Q 325.6 219.31 300 204 Q 274.4 219.31 300 230 Z" fill="none" stroke="hsl(228 55% 38%)" stroke-width="1.6" stroke-linejoin="round"/><path d="M 412.58 295 Q 434.64 311.83 435.1 282 Q 409.04 267.48 412.58 295 Z" fill="none" stroke="hsl(228 55% 38%)" stroke-width="1.6" stroke-linejoin="round"/><path d="M 300 197.5 C 389.75 197.5 462.5 270.25 462.5 360 C 462.5 449.75 389.75 522.5 300 522.5 C 210.25 522.5 137.5 449.75 137.5 360 C 137.5 270.25 210.25 197.5 300 197.5 Z" fill="none" stroke="hsl(228 55% 38%)" stroke-width="1.6" stroke-linejoin="round"/><path d="M 462.5 360 L 480.7 360" fill="none" stroke="hsl(228 55% 38%)" stroke-width="1.6" stroke-linejoin="round"/><path d="M 440.73 441.25 L 456.49 450.35" fill="none" stroke="hsl(228 55% 38%)" stroke-width="1.6" stroke-linejoin="round"/><path d="M 381.25 500.73 L 390.35 516.49" fill="none" stroke="hsl(228 55% 38%)" stroke-width="1.6" stroke-linejoin="round"/><path d="M 300 522.5 L 300 540.7" fill="none" stroke="hsl(228 55% 38%)" stroke-width="1.6" stroke-linejoin="round"/><path d="M 218.75 500.73 L 209.65 516.49" fill="none" stroke="hsl(228 55% 38%)" stroke-width="1.6" stroke-linejoin="round"/><path d="M 159.27 441.25 L 143.51 450.35" fill="none" stroke="hsl(228 55% 38%)" stroke-width="1.6" stroke-linejoin="round"/><path d="M 137.5 360 L 119.3 360" fill="none" stroke="hsl(228 55% 38%)" stroke-width="1.6" stroke-linejoin="round"/><path d="M 159.27 278.75 L 143.51 269.65" fill="none" stroke="hsl(228 55% 38%)" stroke-width="1.6" stroke-linejoin="round"/><path d="M 218.75 219.27 L 209.65 203.51" fill="none" stroke="hsl(228 55% 38%)" stroke-width="1.6" stroke-linejoin="round"/><path d="M 300 197.5 L 300 179.3" fill="none" stroke="hsl(228 55% 38%)" stroke-width="1.6" stroke-linejoin="round"/><path d="M 381.25 219.27 L 390.35 203.51" fill="none" stroke="hsl(228 55% 38%)" stroke-width="1.6" stroke-linejoin="round"/><path d="M 440.73 278.75 L 456.49 269.65" fill="none" stroke="hsl(228 55% 38%)" stroke-width="1.6" stroke-linejoin="round"/><path d="M 300 165 C 407.7 165 495 252.3 495 360 C 495 467.7 407.7 555 300 555 C 192.3 555 105 467.7 105 360 C 105 252.3 192.3 165 300 165 Z" fill="none" stroke="hsl(228 55% 38%)" stroke-width="1.6" stroke-linejoin="round"/><path d="M 468.87 457.5 L 484.64 466.6" fill="none" stroke="hsl(228 55% 38%)" stroke-width="1.6" stroke-linejoin="round"/><path d="M 300 555 L 300 573.2" fill="none" stroke="hsl(228 55% 38%)" stroke-width="1.6" stroke-linejoin="round"/><path d="M 131.13 457.5 L 115.36 466.6" fill="none" stroke="hsl(228 55% 38%)" stroke-width="1.6" stroke-linejoin="round"/><path d="M 131.13 262.5 L 115.36 253.4" fill="none" stroke="hsl(228 55% 38%)" stroke-width="1.6" stroke-linejoin="round"/><path d="M 300 165 L 300 146.8" fill="none" stroke="hsl(228 55% 38%)" stroke-width="1.6" stroke-linejoin="round"/><path d="M 468.87 262.5 L 484.64 253.4" fill="none" stroke="hsl(228 55% 38%)" stroke-width="1.6" stroke-linejoin="round"/><path d="M 300 165 C 407.7 165 495 252.3 495 360 C 495 467.7 407.7 555 300 555 C 192.3 555 105 467.7 105 360 C 105 252.3 192.3 165 300 165 Z" fill="none" stroke="hsl(228 55% 38%)" stroke-width="1.6" stroke-linejoin="round"/></g>
  <g transform="translate(300,640)">
    <rect x="-110" y="-26" width="220" height="34" rx="17" fill="#ffffff" opacity="0.8"/>
    <text x="0" y="-3" text-anchor="middle" font-family="Quicksand, Arial, sans-serif" font-size="16" font-weight="600" fill="hsl(228 55% 38%)">🏛️ Architektur &amp; Städte</text>
  </g>
  <text x="300" y="700" text-anchor="middle" font-family="Quicksand, Arial, sans-serif" font-size="40" font-weight="700" fill="#2b2540"><tspan x="300" dy="0">Architektur &amp;</tspan><tspan x="300" dy="44">Städte – Vol. 1</tspan></text>
  <text x="300" y="772" text-anchor="middle" font-family="Arial, sans-serif" font-size="15" fill="#5b5470">Malbuch · 24 Seiten</text>
</svg>