<svg xmlns="http://www.w3.org/2000/svg" viewBox="0 0 600 800" width="600" height="800">
  <defs>
    <linearGradient id="bg" x1="0" y1="0" x2="0" y2="1">
      <stop offset="0" stop-color="hsl(345 70% 95%)"/><stop offset="1" stop-color="hsl(25 70% 92%)"/>
    </linearGradient>
  </defs>
  <rect width="600" height="800" fill="url(#bg)"/>
  <rect x="22" y="22" width="556" height="756" rx="28" fill="none" stroke="hsl(345 55% 38%)" stroke-width="2" opacity="0.5"/>
  <text x="300" y="74" text-anchor="middle" font-family="Quicksand, Arial, sans-serif" font-size="26" font-weight="700" fill="hsl(345 55% 38%)">&#10022; Coloreo</text>
  <g transform="translate(0,40)"><path d="M 323.4 360 Q 335.17 372.84 349.14 360 Q 335.17 347.16 323.4 360 Z" fill="none" stroke="hsl(345 55% 38%)" stroke-width="1.6" stroke-linejoin="round"/><path d="M 316.55 376.55 Q 315.79 393.95 334.75 394.75 Q 333.95 375.79 316.55 376.55 Z" fill="none" stroke="hsl(345 55% 38%)" stroke-width="1.6" stroke-linejoin="round"/><path d="M 300 383.4 Q 287.16 395.17 300 409.14 Q 312.84 395.17 300 383.4 Z" fill="none" stroke="hsl(345 55% 38%)" stroke-width="1.6" stroke-linejoin="round"/><path d="M 283.45 376.55 Q 266.05 375.79 265.25 394.75 Q 284.21 393.95 283.45 376.55 Z" fill="none" stroke="hsl(345 55% 38%)" stroke-width="1.6" stroke-linejoin="round"/><path d="M 276.6 360 Q 264.83 347.16 250.86 360 Q 264.83 372.84 276.6 360 Z" fill="none" stroke="hsl(345 55% 38%)" stroke-width="1.6" stroke-linejoin="round"/><path d="M 283.45 343.45 Q 284.21 326.05 265.25 325.25 Q 266.05 344.21 283.45 343.45 Z" fill="none" stroke="hsl(345 55% 38%)" stroke-width="1.6" stroke-linejoin="round"/><path d="M 300 336.6 Q 312.84 324.83 300 310.86 Q 287.16 324.83 300 336.6 Z" fill="none" stroke="hsl(345 55% 38%)" stroke-width="1.6" stroke-linejoin="round"/><path d="M 316.55 343.45 Q 333.95 344.21 334.75 325.25 Q 315.79 326.05 316.55 343.45 Z" fill="none" stroke="hsl(345 55% 38%)" stroke-width="1.6" stroke-linejoin="round"/><path d="M 285.96 360 a 14.04 14.04 0 1 0 28.08 0 a 14.04 14.04 0 1 0 -28.08 0 Z" fill="none" stroke="hsl(345 55% 38%)" stroke-width="1.6" stroke-linejoin="round"/><path d="M 202.5 360 a 97.5 97.5 0 1 0 195 0 a 97.5 97.5 0 1 0 -195 0 Z" fill="none" stroke="hsl(345 55% 38%)" stroke-width="1.6" stroke-linejoin="round"/><path d="M 390.08 397.31 Q 398.33 423.4 426.11 412.24 Q 414.36 384.7 390.08 397.31 Z" fill="none" stroke="hsl(345 55% 38%)" stroke-width="1.6" stroke-linejoin="round"/><path d="M 337.31 450.08 Q 324.7 474.36 352.24 486.11 Q 363.4 458.33 337.31 450.08 Z" fill="none" stroke="hsl(345 55% 38%)" stroke-width="1.6" stroke-linejoin="round"/><path d="M 262.69 450.08 Q 236.6 458.33 247.76 486.11 Q 275.3 474.36 262.69 450.08 Z" fill="none" stroke="hsl(345 55% 38%)" stroke-width="1.6" stroke-linejoin="round"/><path d="M 209.92 397.31 Q 185.64 384.7 173.89 412.24 Q 201.67 423.4 209.92 397.31 Z" fill="none" stroke="hsl(345 55% 38%)" stroke-width="1.6" stroke-linejoin="round"/><path d="M 209.92 322.69 Q 201.67 296.6 173.89 307.76 Q 185.64 335.3 209.92 322.69 Z" fill="none" stroke="hsl(345 55% 38%)" stroke-width="1.6" stroke-linejoin="round"/><path d="M 262.69 269.92 Q 275.3 245.64 247.76 233.89 Q 236.6 261.67 262.69 269.92 Z" fill="none" stroke="hsl(345 55% 38%)" stroke-width="1.6" stroke-linejoin="round"/><path d="M 337.31 269.92 Q 363.4 261.67 352.24 233.89 Q 324.7 245.64 337.31 269.92 Z" fill="none" stroke="hsl(345 55% 38%)" stroke-width="1.6" stroke-linejoin="round"/><path d="M 390.08 322.69 Q 414.36 335.3 426.11 307.76 Q 398.33 296.6 390.08 322.69 Z" fill="none" stroke="hsl(345 55% 38%)" stroke-width="1.6" stroke-linejoin="round"/><path d="M 153.75 360 a 146.25 146.25 0 1 0 292.5 0 a 146.25 146.25 0 1 0 -292.5 0 Z" fill="none" stroke="hsl(345 55% 38%)" stroke-width="1.6" stroke-linejoin="round"/><path d="M 446.25 360 Q 463.07 389.67 485.25 360 Q 463.07 330.33 446.25 360 Z" fill="none" stroke="hsl(345 55% 38%)" stroke-width="1.6" stroke-linejoin="round"/><path d="M 435.12 415.97 Q 439.3 449.82 471.15 430.89 Q 462.01 394.99 435.12 415.97 Z" fill="none" stroke="hsl(345 55% 38%)" stroke-width="1.6" stroke-linejoin="round"/><path d="M 403.41 463.41 Q 394.33 496.29 430.99 490.99 Q 436.29 454.33 403.41 463.41 Z" fill="none" stroke="hsl(345 55% 38%)" stroke-width="1.6" stroke-linejoin="round"/><path d="M 355.97 495.12 Q 334.99 522.01 370.89 531.15 Q 389.82 499.3 355.97 495.12 Z" fill="none" stroke="hsl(345 55% 38%)" stroke-width="1.6" stroke-linejoin="round"/><path d="M 300 506.25 Q 270.33 523.07 300 545.25 Q 329.67 523.07 300 506.25 Z" fill="none" stroke="hsl(345 55% 38%)" stroke-width="1.6" stroke-linejoin="round"/><path d="M 244.03 495.12 Q 210.18 499.3 229.11 531.15 Q 265.01 522.01 244.03 495.12 Z" fill="none" stroke="hsl(345 55% 38%)" stroke-width="1.6" stroke-linejoin="round"/><path d="M 196.59 463.41 Q 163.71 454.33 169.01 490.99 Q 205.67 496.29 196.59 463.41 Z" fill="none" stroke="hsl(345 55% 38%)" stroke-width="1.6" stroke-linejoin="round"/><path d="M 164.88 415.97 Q 137.99 394.99 128.85 430.89 Q 160.7 449.82 164.88 415.97 Z" fill="none" stroke="hsl(345 55% 38%)" stroke-width="1.6" stroke-linejoin="round"/><path d="M 153.75 360 Q 136.93 330.33 114.75 360 Q 136.93 389.67 153.75 360 Z" fill="none" stroke="hsl(345 55% 38%)" stroke-width="1.6" stroke-linejoin="round"/><path d="M 164.88 304.03 Q 160.7 270.18 128.85 289.11 Q 137.99 325.01 164.88 304.03 Z" fill="none" stroke="hsl(345 55% 38%)" stroke-width="1.6" stroke-linejoin="round"/><path d="M 196.59 256.59 Q 205.67 223.71 169.01 229.01 Q 163.71 265.67 196.59 256.59 Z" fill="none" stroke="hsl(345 55% 38%)" stroke-width="1.6" stroke-linejoin="round"/><path d="M 244.03 224.88 Q 265.01 197.99 229.11 188.85 Q 210.18 220.7 244.03 224.88 Z" fill="none" stroke="hsl(345 55% 38%)" stroke-width="1.6" stroke-linejoin="round"/><path d="M 300 213.75 Q 329.67 196.93 300 174.75 Q 270.33 196.93 300 213.75 Z" fill="none" stroke="hsl(345 55% 38%)" stroke-width="1.6" stroke-linejoin="round"/><path d="M 355.97 224.88 Q 389.82 220.7 370.89 188.85 Q 334.99 197.99 355.97 224.88 Z" fill="none" stroke="hsl(345 55% 38%)" stroke-width="1.6" stroke-linejoin="round"/><path d="M 403.41 256.59 Q 436.29 265.67 430.99 229.01 Q 394.33 223.71 403.41 256.59 Z" fill="none" stroke="hsl(345 55% 38%)" stroke-width="1.6" stroke-linejoin="round"/><path d="M 435.12 304.03 Q 462.01 325.01 471.15 289.11 Q 439.3 270.18 435.12 304.03 Z" fill="none" stroke="hsl(345 55% 38%)" stroke-width="1.6" stroke-linejoin="round"/><path d="M 105 360 a 195 195 0 1 0 390 0 a 195 195 0 1 0 -390 0 Z" fill="none" stroke="hsl(345 55% 38%)" stroke-width="1.6" stroke-linejoin="round"/><path d="M 469.24 434.62 a 10.92 10.92 0 1 0 21.84 0 a 10.92 10.92 0 1 0 -21.84 0 Z" fill="none" stroke="hsl(345 55% 38%)" stroke-width="1.6" stroke-linejoin="round"/><path d="M 363.7 540.16 a 10.92 10.92 0 1 0 21.84 0 a 10.92 10.92 0 1 0 -21.84 0 Z" fill="none" stroke="hsl(345 55% 38%)" stroke-width="1.6" stroke-linejoin="round"/><path d="M 214.46 540.16 a 10.92 10.92 0 1 0 21.84 0 a 10.92 10.92 0 1 0 -21.84 0 Z" fill="none" stroke="hsl(345 55% 38%)" stroke-width="1.6" stroke-linejoin="round"/><path d="M 108.92 434.62 a 10.92 10.92 0 1 0 21.84 0 a 10.92 10.92 0 1 0 -21.84 0 Z" fill="none" stroke="hsl(345 55% 38%)" stroke-width="1.6" stroke-linejoin="round"/><path d="M 108.92 285.38 a 10.92 10.92 0 1 0 21.84 0 a 10.92 10.92 0 1 0 -21.84 0 Z" fill="none" stroke="hsl(345 55% 38%)" stroke-width="1.6" stroke-linejoin="round"/><path d="M 214.46 179.84 a 10.92 10.92 0 1 0 21.84 0 a 10.92 10.92 0 1 0 -21.84 0 Z" fill="none" stroke="hsl(345 55% 38%)" stroke-width="1.6" stroke-linejoin="round"/><path d="M 363.7 179.84 a 10.92 10.92 0 1 0 21.84 0 a 10.92 10.92 0 1 0 -21.84 0 Z" fill="none" stroke="hsl(345 55% 38%)" stroke-width="1.6" stroke-linejoin="round"/><path d="M 469.24 285.38 a 10.92 10.92 0 1 0 21.84 0 a 10.92 10.92 0 1 0 -21.84 0 Z" fill="none" stroke="hsl(345 55% 38%)" stroke-width="1.6" stroke-linejoin="round"/><path d="M 105 360 a 195 195 0 1 0 390 0 a 195 195 0 1 0 -390 0 Z" fill="none" stroke="hsl(345 55% 38%)" stroke-width="1.6" stroke-linejoin="round"/></g>
  <g transform="translate(300,640)">
    <rect x="-110" y="-26" width="220" height="34" rx="17" fill="#ffffff" opacity="0.8"/>
    <text x="0" y="-3" text-anchor="middle" font-family="Quicksand, Arial, sans-serif" font-size="16" font-weight="600" fill="hsl(345 55% 38%)">🦁 Tiere</text>
  </g>
  <text x="300" y="700" text-anchor="middle" font-family="Quicksand, Arial, sans-serif" font-size="40" font-weight="700" fill="#2b2540"><tspan x="300" dy="0">Tiere – Vol. 2</tspan></text>
  <text x="300" y="772" text-anchor="middle" font-family="Arial, sans-serif" font-size="15" fill="#5b5470">Malbuch · 40 Seiten</text>
</svg>