<svg xmlns="http://www.w3.org/2000/svg" viewBox="0 0 600 800" width="600" height="800">
  <defs>
    <linearGradient id="bg" x1="0" y1="0" x2="0" y2="1">
      <stop offset="0" stop-color="hsl(345 70% 95%)"/><stop offset="1" stop-color="hsl(25 70% 92%)"/>
    </linearGradient>
  </defs>
  <rect width="600" height="800" fill="url(#bg)"/>
  <rect x="22" y="22" width="556" height="756" rx="28" fill="none" stroke="hsl(345 55% 38%)" stroke-width="2" opacity="0.5"/>
  <text x="300" y="74" text-anchor="middle" font-family="Quicksand, Arial, sans-serif" font-size="26" font-weight="700" fill="hsl(345 55% 38%)">&#10022; Coloreo</text>
  <g transform="translate(0,40)"><path d="M 323.4 360 Q 335.17 372.84 349.14 360 Q 335.17 347.16 323.4 360 Z" fill="none" stroke="hsl(345 55% 38%)" stroke-width="1.6" stroke-linejoin="round"/><path d="M 316.55 376.55 Q 315.79 393.95 334.75 394.75 Q 333.95 375.79 316.55 376.55 Z" fill="none" stroke="hsl(345 55% 38%)" stroke-width="1.6" stroke-linejoin="round"/><path d="M 300 383.4 Q 287.16 395.17 300 409.14 Q 312.84 395.17 300 383.4 Z" fill="none" stroke="hsl(345 55% 38%)" stroke-width="1.6" stroke-linejoin="round"/><path d="M 283.45 376.55 Q 266.05 375.79 265.25 394.75 Q 284.21 393.95 283.45 376.55 Z" fill="none" stroke="hsl(345 55% 38%)" stroke-width="1.6" stroke-linejoin="round"/><path d="M 276.6 360 Q 264.83 347.16 250.86 360 Q 264.83 372.84 276.6 360 Z" fill="none" stroke="hsl(345 55% 38%)" stroke-width="1.6" stroke-linejoin="round"/><path d="M 283.45 343.45 Q 284.21 326.05 265.25 325.25 Q 266.05 344.21 283.45 343.45 Z" fill="none" stroke="hsl(345 55% 38%)" stroke-width="1.6" stroke-linejoin="round"/><path d="M 300 336.6 Q 312.84 324.83 300 310.86 Q 287.16 324.83 300 336.6 Z" fill="none" stroke="hsl(345 55% 38%)" stroke-width="1.6" stroke-linejoin="round"/><path d="M 316.55 343.45 Q 333.95 344.21 334.75 325.25 Q 315.79 326.05 316.55 343.45 Z" fill="none" stroke="hsl(345 55% 38%)" stroke-width="1.6" stroke-linejoin="round"/><path d="M 300 345.96 C 307.75 345.96 314.04 352.25 314.04 360 C 314.04 367.75 307.75 374.04 300 374.04 C 292.25 374.04 285.96 367.75 285.96 360 C 285.96 352.25 292.25 345.96 300 345.96 Z" fill="none" stroke="hsl(345 55% 38%)" stroke-width="1.6" stroke-linejoin="round"/><path d="M 300 262.5 C 353.85 262.5 397.5 306.15 397.5 360 C 397.5 413.85 353.85 457.5 300 457.5 C 246.15 457.5 202.5 413.85 202.5 360 C 202.5 306.15 246.15 262.5 300 262.5 Z" fill="none" stroke="hsl(345 55% 38%)" stroke-width="1.6" stroke-linejoin="round"/><path d="M 390.08 397.31 Q 398.33 423.4 426.11 412.24 Q 414.36 384.7 390.08 397.31 Z" fill="none" stroke="hsl(345 55% 38%)" stroke-width="1.6" stroke-linejoin="round"/><path d="M 337.31 450.08 Q 324.7 474.36 352.24 486.11 Q 363.4 458.33 337.31 450.08 Z" fill="none" stroke="hsl(345 55% 38%)" stroke-width="1.6" stroke-linejoin="round"/><path d="M 262.69 450.08 Q 236.6 458.33 247.76 486.11 Q 275.3 474.36 262.69 450.08 Z" fill="none" stroke="hsl(345 55% 38%)" stroke-width="1.6" stroke-linejoin="round"/><path d="M 209.92 397.31 Q 185.64 384.7 173.89 412.24 Q 201.67 423.4 209.92 397.31 Z" fill="none" stroke="hsl(345 55% 38%)" stroke-width="1.6" stroke-linejoin="round"/><path d="M 209.92 322.69 Q 201.67 296.6 173.89 307.76 Q 185.64 335.3 209.92 322.69 Z" fill="none" stroke="hsl(345 55% 38%)" stroke-width="1.6" stroke-linejoin="round"/><path d="M 262.69 269.92 Q 275.3 245.64 247.76 233.89 Q 236.6 261.67 262.69 269.92 Z" fill="none" stroke="hsl(345 55% 38%)" stroke-width="1.6" stroke-linejoin="round"/><path d="M 337.31 269.92 Q 363.4 261.67 352.24 233.89 Q 324.7 245.64 337.31 269.92 Z" fill="none" stroke="hsl(345 55% 38%)" stroke-width="1.6" stroke-linejoin="round"/><path d="M 390.08 322.69 Q 414.36 335.3 426.11 307.76 Q 398.33 296.6 390.08 322.69 Z" fill="none" stroke="hsl(345 55% 38%)" stroke-width="1.6" stroke-linejoin="round"/><path d="M 300 213.75 C 380.77 213.75 446.25 279.23 446.25 360 C 446.25 440.77 380.77 506.25 300 506.25 C 219.23 506.25 153.75 440.77 153.75 360 C 153.75 279.23 219.23 213.75 300 213.75 Z" fill="none" stroke="hsl(345 55% 38%)" stroke-width="1.6" stroke-linejoin="round"/><path d="M 446.25 360 Q 463.07 389.67 485.25 360 Q 463.07 330.33 446.25 360 Z" fill="none" stroke="hsl(345 55% 38%)" stroke-width="1.6" stroke-linejoin="round"/><path d="M 435.12 415.97 Q 439.3 449.82 471.15 430.89 Q 462.01 394.99 435.12 415.97 Z" fill="none" stroke="hsl(345 55% 38%)" stroke-width="1.6" stroke-linejoin="round"/><path d="M 403.41 463.41 Q 394.33 496.29 430.99 490.99 Q 436.29 454.33 403.41 463.41 Z" fill="none" stroke="hsl(345 55% 38%)" stroke-width="1.6" stroke-linejoin="round"/><path d="M 355.97 495.12 Q 334.99 522.01 370.89 531.15 Q 389.82 499.3 355.97 495.12 Z" fill="none" stroke="hsl(345 55% 38%)" stroke-width="1.6" stroke-linejoin="round"/><path d="M 300 506.25 Q 270.33 523.07 300 545.25 Q 329.67 523.07 300 506.25 Z" fill="none" stroke="hsl(345 55% 38%)" stroke-width="1.6" stroke-linejoin="round"/><path d="M 244.03 495.12 Q 210.18 499.3 229.11 531.15 Q 265.01 522.01 244.03 495.12 Z" fill="none" stroke="hsl(345 55% 38%)" stroke-width="1.6" stroke-linejoin="round"/><path d="M 196.59 463.41 Q 163.71 454.33 169.01 490.99 Q 205.67 496.29 196.59 463.41 Z" fill="none" stroke="hsl(345 55% 38%)" stroke-width="1.6" stroke-linejoin="round"/><path d="M 164.88 415.97 Q 137.99 394.99 128.85 430.89 Q 160.7 449.82 164.88 415.97 Z" fill="none" stroke="hsl(345 55% 38%)" stroke-width="1.6" stroke-linejoin="round"/><path d="M 153.75 360 Q 136.93 330.33 114.75 360 Q 136.93 389.67 153.75 360 Z" fill="none" stroke="hsl(345 55% 38%)" stroke-width="1.6" stroke-linejoin="round"/><path d="M 164.88 304.03 Q 160.7 270.18 128.85 289.11 Q 137.99 325.01 164.88 304.03 Z" fill="none" stroke="hsl(345 55% 38%)" stroke-width="1.6" stroke-linejoin="round"/><path d="M 196.59 256.59 Q 205.67 223.71 169.01 229.01 Q 163.71 265.67 196.59 256.59 Z" fill="none" stroke="hsl(345 55% 38%)" stroke-width="1.6" stroke-linejoin="round"/><path d="M 244.03 224.88 Q 265.01 197.99 229.11 188.85 Q 210.18 220.7 244.03 224.88 Z" fill="none" stroke="hsl(345 55% 38%)" stroke-width="1.6" stroke-linejoin="round"/><path d="M 300 213.75 Q 329.67 196.93 300 174.75 Q 270.33 196.93 300 213.75 Z" fill="none" stroke="hsl(345 55% 38%)" stroke-width="1.6" stroke-linejoin="round"/><path d="M 355.97 224.88 Q 389.82 220.7 370.89 188.85 Q 334.99 197.99 355.97 224.88 Z" fill="none" stroke="hsl(345 55% 38%)" stroke-width="1.6" stroke-linejoin="round"/><path d="M 403.41 256.59 Q 436.29 265.67 430.99 229.01 Q 394.33 223.71 403.41 256.59 Z" fill="none" stroke="hsl(345 55% 38%)" stroke-width="1.6" stroke-linejoin="round"/><path d="M 435.12 304.03 Q 462.01 325.01 471.15 289.11 Q 439.3 270.18 435.12 304.03 Z" fill="none" stroke="hsl(345 55% 38%)" stroke-width="1.6" stroke-linejoin="round"/><path d="M 300 165 C 407.7 165 495 252.3 495 360 C 495 467.7 407.7 555 300 555 C 192.3 555 105 467.7 105 360 C 105 252.3 192.3 165 300 165 Z" fill="none" stroke="hsl(345 55% 38%)" stroke-width="1.6" stroke-linejoin="round"/><path d="M 480.16 423.7 C 486.19 423.7 491.08 428.59 491.08 434.62 C 491.08 440.65 486.19 445.54 480.16 445.54 C 474.13 445.54 469.24 440.65 469.24 434.62 C 469.24 428.59 474.13 423.7 480.16 423.7 Z" fill="none" stroke="hsl(345 55% 38%)" stroke-width="1.6" stroke-linejoin="round"/><path d="M 374.62 529.24 C 380.65 529.24 385.54 534.13 385.54 540.16 C 385.54 546.19 380.65 551.08 374.62 551.08 C 368.59 551.08 363.7 546.19 363.7 540.16 C 363.7 534.13 368.59 529.24 374.62 529.24 Z" fill="none" stroke="hsl(345 55% 38%)" stroke-width="1.6" stroke-linejoin="round"/><path d="M 225.38 529.24 C 231.41 529.24 236.3 534.13 236.3 540.16 C 236.3 546.19 231.41 551.08 225.38 551.08 C 219.35 551.08 214.46 546.19 214.46 540.16 C 214.46 534.13 219.35 529.24 225.38 529.24 Z" fill="none" stroke="hsl(345 55% 38%)" stroke-width="1.6" stroke-linejoin="round"/><path d="M 119.84 423.7 C 125.87 423.7 130.76 428.59 130.76 434.62 C 130.76 440.65 125.87 445.54 119.84 445.54 C 113.81 445.54 108.92 440.65 108.92 434.62 C 108.92 428.59 113.81 423.7 119.84 423.7 Z" fill="none" stroke="hsl(345 55% 38%)" stroke-width="1.6" stroke-linejoin="round"/><path d="M 119.84 274.46 C 125.87 274.46 130.76 279.35 130.76 285.38 C 130.76 291.41 125.87 296.3 119.84 296.3 C 113.81 296.3 108.92 291.41 108.92 285.38 C 108.92 279.35 113.81 274.46 119.84 274.46 Z" fill="none" stroke="hsl(345 55% 38%)" stroke-width="1.6" stroke-linejoin="round"/><path d="M 225.38 168.92 C 231.41 168.92 236.3 173.81 236.3 179.84 C 236.3 185.87 231.41 190.76 225.38 190.76 C 219.35 190.76 214.46 185.87 214.46 179.84 C 214.46 173.81 219.35 168.92 225.38 168.92 Z" fill="none" stroke="hsl(345 55% 38%)" stroke-width="1.6" stroke-linejoin="round"/><path d="M 374.62 168.92 C 380.65 168.92 385.54 173.81 385.54 179.84 C 385.54 185.87 380.65 190.76 374.62 190.76 C 368.59 190.76 363.7 185.87 363.7 179.84 C 363.7 173.81 368.59 168.92 374.62 168.92 Z" fill="none" stroke="hsl(345 55% 38%)" stroke-width="1.6" stroke-linejoin="round"/><path d="M 480.16 274.46 C 486.19 274.46 491.08 279.35 491.08 285.38 C 491.08 291.41 486.19 296.3 480.16 296.3 C 474.13 296.3 469.24 291.41 469.24 285.38 C 469.24 279.35 474.13 274.46 480.16 274.46 Z" fill="none" stroke="hsl(345 55% 38%)" stroke-width="1.6" stroke-linejoin="round"/><path d="M 300 165 C 407.7 165 495 252.3 495 360 C 495 467.7 407.7 555 300 555 C 192.3 555 105 467.7 105 360 C 105 252.3 192.3 165 300 165 Z" fill="none" stroke="hsl(345 55% 38%)" stroke-width="1.6" stroke-linejoin="round"/></g>
  <g transform="translate(300,640)">
    <rect x="-110" y="-26" width="220" height="34" rx="17" fill="#ffffff" opacity="0.8"/>
    <text x="0" y="-3" text-anchor="middle" font-family="Quicksand, Arial, sans-serif" font-size="16" font-weight="600" fill="hsl(345 55% 38%)">🦁 Tiere</text>
  </g>
  <text x="300" y="700" text-anchor="middle" font-family="Quicksand, Arial, sans-serif" font-size="40" font-weight="700" fill="#2b2540"><tspan x="300" dy="0">Tiere – Vol. 2</tspan></text>
  <text x="300" y="772" text-anchor="middle" font-family="Arial, sans-serif" font-size="15" fill="#5b5470">Malbuch · 24 Seiten</text>
</svg>