<svg xmlns="http://www.w3.org/2000/svg" viewBox="0 0 600 800" width="600" height="800">
  <defs>
    <linearGradient id="bg" x1="0" y1="0" x2="0" y2="1">
      <stop offset="0" stop-color="hsl(345 70% 95%)"/><stop offset="1" stop-color="hsl(25 70% 92%)"/>
    </linearGradient>
  </defs>
  <rect width="600" height="800" fill="url(#bg)"/>
  <rect x="22" y="22" width="556" height="756" rx="28" fill="none" stroke="hsl(345 55% 38%)" stroke-width="2" opacity="0.5"/>
  <text x="300" y="74" text-anchor="middle" font-family="Quicksand, Arial, sans-serif" font-size="26" font-weight="700" fill="hsl(345 55% 38%)">&#10022; Coloreo</text>
  <g transform="translate(0,40)"><path d="M 323.4 360 Q 335.17 372.84 349.14 360 Q 335.17 347.16 323.4 360 Z" fill="none" stroke="hsl(345 55% 38%)" stroke-width="1.6" stroke-linejoin="round"/><path d="M 321.62 368.95 Q 327.58 385.32 345.4 378.81 Q 337.41 361.6 321.62 368.95 Z" fill="none" stroke="hsl(345 55% 38%)" stroke-width="1.6" stroke-linejoin="round"/><path d="M 316.55 376.55 Q 315.79 393.95 334.75 394.75 Q 333.95 375.79 316.55 376.55 Z" fill="none" stroke="hsl(345 55% 38%)" stroke-width="1.6" stroke-linejoin="round"/><path d="M 308.95 381.62 Q 301.6 397.41 318.81 405.4 Q 325.32 387.58 308.95 381.62 Z" fill="none" stroke="hsl(345 55% 38%)" stroke-width="1.6" stroke-linejoin="round"/><path d="M 300 383.4 Q 287.16 395.17 300 409.14 Q 312.84 395.17 300 383.4 Z" fill="none" stroke="hsl(345 55% 38%)" stroke-width="1.6" stroke-linejoin="round"/><path d="M 291.05 381.62 Q 274.68 387.58 281.19 405.4 Q 298.4 397.41 291.05 381.62 Z" fill="none" stroke="hsl(345 55% 38%)" stroke-width="1.6" stroke-linejoin="round"/><path d="M 283.45 376.55 Q 266.05 375.79 265.25 394.75 Q 284.21 393.95 283.45 376.55 Z" fill="none" stroke="hsl(345 55% 38%)" stroke-width="1.6" stroke-linejoin="round"/><path d="M 278.38 368.95 Q 262.59 361.6 254.6 378.81 Q 272.42 385.32 278.38 368.95 Z" fill="none" stroke="hsl(345 55% 38%)" stroke-width="1.6" stroke-linejoin="round"/><path d="M 276.6 360 Q 264.83 347.16 250.86 360 Q 264.83 372.84 276.6 360 Z" fill="none" stroke="hsl(345 55% 38%)" stroke-width="1.6" stroke-linejoin="round"/><path d="M 278.38 351.05 Q 272.42 334.68 254.6 341.19 Q 262.59 358.4 278.38 351.05 Z" fill="none" stroke="hsl(345 55% 38%)" stroke-width="1.6" stroke-linejoin="round"/><path d="M 283.45 343.45 Q 284.21 326.05 265.25 325.25 Q 266.05 344.21 283.45 343.45 Z" fill="none" stroke="hsl(345 55% 38%)" stroke-width="1.6" stroke-linejoin="round"/><path d="M 291.05 338.38 Q 298.4 322.59 281.19 314.6 Q 274.68 332.42 291.05 338.38 Z" fill="none" stroke="hsl(345 55% 38%)" stroke-width="1.6" stroke-linejoin="round"/><path d="M 300 336.6 Q 312.84 324.83 300 310.86 Q 287.16 324.83 300 336.6 Z" fill="none" stroke="hsl(345 55% 38%)" stroke-width="1.6" stroke-linejoin="round"/><path d="M 308.95 338.38 Q 325.32 332.42 318.81 314.6 Q 301.6 322.59 308.95 338.38 Z" fill="none" stroke="hsl(345 55% 38%)" stroke-width="1.6" stroke-linejoin="round"/><path d="M 316.55 343.45 Q 333.95 344.21 334.75 325.25 Q 315.79 326.05 316.55 343.45 Z" fill="none" stroke="hsl(345 55% 38%)" stroke-width="1.6" stroke-linejoin="round"/><path d="M 321.62 351.05 Q 337.41 358.4 345.4 341.19 Q 327.58 334.68 321.62 351.05 Z" fill="none" stroke="hsl(345 55% 38%)" stroke-width="1.6" stroke-linejoin="round"/><path d="M 300 345.96 C 307.75 345.96 314.04 352.25 314.04 360 C 314.04 367.75 307.75 374.04 300 374.04 C 292.25 374.04 285.96 367.75 285.96 360 C 285.96 352.25 292.25 345.96 300 345.96 Z" fill="none" stroke="hsl(345 55% 38%)" stroke-width="1.6" stroke-linejoin="round"/><path d="M 300 262.5 C 353.85 262.5 397.5 306.15 397.5 360 C 397.5 413.85 353.85 457.5 300 457.5 C 246.15 457.5 202.5 413.85 202.5 360 C 202.5 306.15 246.15 262.5 300 262.5 Z" fill="none" stroke="hsl(345 55% 38%)" stroke-width="1.6" stroke-linejoin="round"/><path d="M 395.63 379.02 Q 408.81 403 433.88 386.63 Q 416.98 361.91 395.63 379.02 Z" fill="none" stroke="hsl(345 55% 38%)" stroke-width="1.6" stroke-linejoin="round"/><path d="M 381.07 414.17 Q 384.07 441.37 413.5 435.84 Q 407.35 406.54 381.07 414.17 Z" fill="none" stroke="hsl(345 55% 38%)" stroke-width="1.6" stroke-linejoin="round"/><path d="M 354.17 441.07 Q 346.54 467.35 375.84 473.5 Q 381.37 444.07 354.17 441.07 Z" fill="none" stroke="hsl(345 55% 38%)" stroke-width="1.6" stroke-linejoin="round"/><path d="M 319.02 455.63 Q 301.91 476.98 326.63 493.88 Q 343 468.81 319.02 455.63 Z" fill="none" stroke="hsl(345 55% 38%)" stroke-width="1.6" stroke-linejoin="round"/><path d="M 280.98 455.63 Q 257 468.81 273.37 493.88 Q 298.09 476.98 280.98 455.63 Z" fill="none" stroke="hsl(345 55% 38%)" stroke-width="1.6" stroke-linejoin="round"/><path d="M 245.83 441.07 Q 218.63 444.07 224.16 473.5 Q 253.46 467.35 245.83 441.07 Z" fill="none" stroke="hsl(345 55% 38%)" stroke-width="1.6" stroke-linejoin="round"/><path d="M 218.93 414.17 Q 192.65 406.54 186.5 435.84 Q 215.93 441.37 218.93 414.17 Z" fill="none" stroke="hsl(345 55% 38%)" stroke-width="1.6" stroke-linejoin="round"/><path d="M 204.37 379.02 Q 183.02 361.91 166.12 386.63 Q 191.19 403 204.37 379.02 Z" fill="none" stroke="hsl(345 55% 38%)" stroke-width="1.6" stroke-linejoin="round"/><path d="M 204.37 340.98 Q 191.19 317 166.12 333.37 Q 183.02 358.09 204.37 340.98 Z" fill="none" stroke="hsl(345 55% 38%)" stroke-width="1.6" stroke-linejoin="round"/><path d="M 218.93 305.83 Q 215.93 278.63 186.5 284.16 Q 192.65 313.46 218.93 305.83 Z" fill="none" stroke="hsl(345 55% 38%)" stroke-width="1.6" stroke-linejoin="round"/><path d="M 245.83 278.93 Q 253.46 252.65 224.16 246.5 Q 218.63 275.93 245.83 278.93 Z" fill="none" stroke="hsl(345 55% 38%)" stroke-width="1.6" stroke-linejoin="round"/><path d="M 280.98 264.37 Q 298.09 243.02 273.37 226.12 Q 257 251.19 280.98 264.37 Z" fill="none" stroke="hsl(345 55% 38%)" stroke-width="1.6" stroke-linejoin="round"/><path d="M 319.02 264.37 Q 343 251.19 326.63 226.12 Q 301.91 243.02 319.02 264.37 Z" fill="none" stroke="hsl(345 55% 38%)" stroke-width="1.6" stroke-linejoin="round"/><path d="M 354.17 278.93 Q 381.37 275.93 375.84 246.5 Q 346.54 252.65 354.17 278.93 Z" fill="none" stroke="hsl(345 55% 38%)" stroke-width="1.6" stroke-linejoin="round"/><path d="M 381.07 305.83 Q 407.35 313.46 413.5 284.16 Q 384.07 278.63 381.07 305.83 Z" fill="none" stroke="hsl(345 55% 38%)" stroke-width="1.6" stroke-linejoin="round"/><path d="M 395.63 340.98 Q 416.98 358.09 433.88 333.37 Q 408.81 317 395.63 340.98 Z" fill="none" stroke="hsl(345 55% 38%)" stroke-width="1.6" stroke-linejoin="round"/><path d="M 300 213.75 C 380.77 213.75 446.25 279.23 446.25 360 C 446.25 440.77 380.77 506.25 300 506.25 C 219.23 506.25 153.75 440.77 153.75 360 C 153.75 279.23 219.23 213.75 300 213.75 Z" fill="none" stroke="hsl(345 55% 38%)" stroke-width="1.6" stroke-linejoin="round"/><path d="M 446.25 349.08 C 452.28 349.08 457.17 353.97 457.17 360 C 457.17 366.03 452.28 370.92 446.25 370.92 C 440.22 370.92 435.33 366.03 435.33 360 C 435.33 353.97 440.22 349.08 446.25 349.08 Z" fill="none" stroke="hsl(345 55% 38%)" stroke-width="1.6" stroke-linejoin="round"/><path d="M 443.44 377.61 C 449.47 377.61 454.36 382.5 454.36 388.53 C 454.36 394.56 449.47 399.45 443.44 399.45 C 437.41 399.45 432.52 394.56 432.52 388.53 C 432.52 382.5 437.41 377.61 443.44 377.61 Z" fill="none" stroke="hsl(345 55% 38%)" stroke-width="1.6" stroke-linejoin="round"/><path d="M 435.12 405.05 C 441.15 405.05 446.04 409.94 446.04 415.97 C 446.04 422 441.15 426.89 435.12 426.89 C 429.09 426.89 424.2 422 424.2 415.97 C 424.2 409.94 429.09 405.05 435.12 405.05 Z" fill="none" stroke="hsl(345 55% 38%)" stroke-width="1.6" stroke-linejoin="round"/><path d="M 421.6 430.33 C 427.63 430.33 432.52 435.22 432.52 441.25 C 432.52 447.28 427.63 452.17 421.6 452.17 C 415.57 452.17 410.68 447.28 410.68 441.25 C 410.68 435.22 415.57 430.33 421.6 430.33 Z" fill="none" stroke="hsl(345 55% 38%)" stroke-width="1.6" stroke-linejoin="round"/><path d="M 403.41 452.49 C 409.45 452.49 414.33 457.38 414.33 463.41 C 414.33 469.45 409.45 474.33 403.41 474.33 C 397.38 474.33 392.49 469.45 392.49 463.41 C 392.49 457.38 397.38 452.49 403.41 452.49 Z" fill="none" stroke="hsl(345 55% 38%)" stroke-width="1.6" stroke-linejoin="round"/><path d="M 381.25 470.68 C 387.28 470.68 392.17 475.57 392.17 481.6 C 392.17 487.63 387.28 492.52 381.25 492.52 C 375.22 492.52 370.33 487.63 370.33 481.6 C 370.33 475.57 375.22 470.68 381.25 470.68 Z" fill="none" stroke="hsl(345 55% 38%)" stroke-width="1.6" stroke-linejoin="round"/><path d="M 355.97 484.2 C 362 484.2 366.89 489.09 366.89 495.12 C 366.89 501.15 362 506.04 355.97 506.04 C 349.94 506.04 345.05 501.15 345.05 495.12 C 345.05 489.09 349.94 484.2 355.97 484.2 Z" fill="none" stroke="hsl(345 55% 38%)" stroke-width="1.6" stroke-linejoin="round"/><path d="M 328.53 492.52 C 334.56 492.52 339.45 497.41 339.45 503.44 C 339.45 509.47 334.56 514.36 328.53 514.36 C 322.5 514.36 317.61 509.47 317.61 503.44 C 317.61 497.41 322.5 492.52 328.53 492.52 Z" fill="none" stroke="hsl(345 55% 38%)" stroke-width="1.6" stroke-linejoin="round"/><path d="M 300 495.33 C 306.03 495.33 310.92 500.22 310.92 506.25 C 310.92 512.28 306.03 517.17 300 517.17 C 293.97 517.17 289.08 512.28 289.08 506.25 C 289.08 500.22 293.97 495.33 300 495.33 Z" fill="none" stroke="hsl(345 55% 38%)" stroke-width="1.6" stroke-linejoin="round"/><path d="M 271.47 492.52 C 277.5 492.52 282.39 497.41 282.39 503.44 C 282.39 509.47 277.5 514.36 271.47 514.36 C 265.44 514.36 260.55 509.47 260.55 503.44 C 260.55 497.41 265.44 492.52 271.47 492.52 Z" fill="none" stroke="hsl(345 55% 38%)" stroke-width="1.6" stroke-linejoin="round"/><path d="M 244.03 484.2 C 250.06 484.2 254.95 489.09 254.95 495.12 C 254.95 501.15 250.06 506.04 244.03 506.04 C 238 506.04 233.11 501.15 233.11 495.12 C 233.11 489.09 238 484.2 244.03 484.2 Z" fill="none" stroke="hsl(345 55% 38%)" stroke-width="1.6" stroke-linejoin="round"/><path d="M 218.75 470.68 C 224.78 470.68 229.67 475.57 229.67 481.6 C 229.67 487.63 224.78 492.52 218.75 492.52 C 212.72 492.52 207.83 487.63 207.83 481.6 C 207.83 475.57 212.72 470.68 218.75 470.68 Z" fill="none" stroke="hsl(345 55% 38%)" stroke-width="1.6" stroke-linejoin="round"/><path d="M 196.59 452.49 C 202.62 452.49 207.51 457.38 207.51 463.41 C 207.51 469.45 202.62 474.33 196.59 474.33 C 190.55 474.33 185.67 469.45 185.67 463.41 C 185.67 457.38 190.55 452.49 196.59 452.49 Z" fill="none" stroke="hsl(345 55% 38%)" stroke-width="1.6" stroke-linejoin="round"/><path d="M 178.4 430.33 C 184.43 430.33 189.32 435.22 189.32 441.25 C 189.32 447.28 184.43 452.17 178.4 452.17 C 172.37 452.17 167.48 447.28 167.48 441.25 C 167.48 435.22 172.37 430.33 178.4 430.33 Z" fill="none" stroke="hsl(345 55% 38%)" stroke-width="1.6" stroke-linejoin="round"/><path d="M 164.88 405.05 C 170.91 405.05 175.8 409.94 175.8 415.97 C 175.8 422 170.91 426.89 164.88 426.89 C 158.85 426.89 153.96 422 153.96 415.97 C 153.96 409.94 158.85 405.05 164.88 405.05 Z" fill="none" stroke="hsl(345 55% 38%)" stroke-width="1.6" stroke-linejoin="round"/><path d="M 156.56 377.61 C 162.59 377.61 167.48 382.5 167.48 388.53 C 167.48 394.56 162.59 399.45 156.56 399.45 C 150.53 399.45 145.64 394.56 145.64 388.53 C 145.64 382.5 150.53 377.61 156.56 377.61 Z" fill="none" stroke="hsl(345 55% 38%)" stroke-width="1.6" stroke-linejoin="round"/><path d="M 153.75 349.08 C 159.78 349.08 164.67 353.97 164.67 360 C 164.67 366.03 159.78 370.92 153.75 370.92 C 147.72 370.92 142.83 366.03 142.83 360 C 142.83 353.97 147.72 349.08 153.75 349.08 Z" fill="none" stroke="hsl(345 55% 38%)" stroke-width="1.6" stroke-linejoin="round"/><path d="M 156.56 320.55 C 162.59 320.55 167.48 325.44 167.48 331.47 C 167.48 337.5 162.59 342.39 156.56 342.39 C 150.53 342.39 145.64 337.5 145.64 331.47 C 145.64 325.44 150.53 320.55 156.56 320.55 Z" fill="none" stroke="hsl(345 55% 38%)" stroke-width="1.6" stroke-linejoin="round"/><path d="M 164.88 293.11 C 170.91 293.11 175.8 298 175.8 304.03 C 175.8 310.06 170.91 314.95 164.88 314.95 C 158.85 314.95 153.96 310.06 153.96 304.03 C 153.96 298 158.85 293.11 164.88 293.11 Z" fill="none" stroke="hsl(345 55% 38%)" stroke-width="1.6" stroke-linejoin="round"/><path d="M 178.4 267.83 C 184.43 267.83 189.32 272.72 189.32 278.75 C 189.32 284.78 184.43 289.67 178.4 289.67 C 172.37 289.67 167.48 284.78 167.48 278.75 C 167.48 272.72 172.37 267.83 178.4 267.83 Z" fill="none" stroke="hsl(345 55% 38%)" stroke-width="1.6" stroke-linejoin="round"/><path d="M 196.59 245.67 C 202.62 245.67 207.51 250.55 207.51 256.59 C 207.51 262.62 202.62 267.51 196.59 267.51 C 190.55 267.51 185.67 262.62 185.67 256.59 C 185.67 250.55 190.55 245.67 196.59 245.67 Z" fill="none" stroke="hsl(345 55% 38%)" stroke-width="1.6" stroke-linejoin="round"/><path d="M 218.75 227.48 C 224.78 227.48 229.67 232.37 229.67 238.4 C 229.67 244.43 224.78 249.32 218.75 249.32 C 212.72 249.32 207.83 244.43 207.83 238.4 C 207.83 232.37 212.72 227.48 218.75 227.48 Z" fill="none" stroke="hsl(345 55% 38%)" stroke-width="1.6" stroke-linejoin="round"/><path d="M 244.03 213.96 C 250.06 213.96 254.95 218.85 254.95 224.88 C 254.95 230.91 250.06 235.8 244.03 235.8 C 238 235.8 233.11 230.91 233.11 224.88 C 233.11 218.85 238 213.96 244.03 213.96 Z" fill="none" stroke="hsl(345 55% 38%)" stroke-width="1.6" stroke-linejoin="round"/><path d="M 271.47 205.64 C 277.5 205.64 282.39 210.53 282.39 216.56 C 282.39 222.59 277.5 227.48 271.47 227.48 C 265.44 227.48 260.55 222.59 260.55 216.56 C 260.55 210.53 265.44 205.64 271.47 205.64 Z" fill="none" stroke="hsl(345 55% 38%)" stroke-width="1.6" stroke-linejoin="round"/><path d="M 300 202.83 C 306.03 202.83 310.92 207.72 310.92 213.75 C 310.92 219.78 306.03 224.67 300 224.67 C 293.97 224.67 289.08 219.78 289.08 213.75 C 289.08 207.72 293.97 202.83 300 202.83 Z" fill="none" stroke="hsl(345 55% 38%)" stroke-width="1.6" stroke-linejoin="round"/><path d="M 328.53 205.64 C 334.56 205.64 339.45 210.53 339.45 216.56 C 339.45 222.59 334.56 227.48 328.53 227.48 C 322.5 227.48 317.61 222.59 317.61 216.56 C 317.61 210.53 322.5 205.64 328.53 205.64 Z" fill="none" stroke="hsl(345 55% 38%)" stroke-width="1.6" stroke-linejoin="round"/><path d="M 355.97 213.96 C 362 213.96 366.89 218.85 366.89 224.88 C 366.89 230.91 362 235.8 355.97 235.8 C 349.94 235.8 345.05 230.91 345.05 224.88 C 345.05 218.85 349.94 213.96 355.97 213.96 Z" fill="none" stroke="hsl(345 55% 38%)" stroke-width="1.6" stroke-linejoin="round"/><path d="M 381.25 227.48 C 387.28 227.48 392.17 232.37 392.17 238.4 C 392.17 244.43 387.28 249.32 381.25 249.32 C 375.22 249.32 370.33 244.43 370.33 238.4 C 370.33 232.37 375.22 227.48 381.25 227.48 Z" fill="none" stroke="hsl(345 55% 38%)" stroke-width="1.6" stroke-linejoin="round"/><path d="M 403.41 245.67 C 409.45 245.67 414.33 250.55 414.33 256.59 C 414.33 262.62 409.45 267.51 403.41 267.51 C 397.38 267.51 392.49 262.62 392.49 256.59 C 392.49 250.55 397.38 245.67 403.41 245.67 Z" fill="none" stroke="hsl(345 55% 38%)" stroke-width="1.6" stroke-linejoin="round"/><path d="M 421.6 267.83 C 427.63 267.83 432.52 272.72 432.52 278.75 C 432.52 284.78 427.63 289.67 421.6 289.67 C 415.57 289.67 410.68 284.78 410.68 278.75 C 410.68 272.72 415.57 267.83 421.6 267.83 Z" fill="none" stroke="hsl(345 55% 38%)" stroke-width="1.6" stroke-linejoin="round"/><path d="M 435.12 293.11 C 441.15 293.11 446.04 298 446.04 304.03 C 446.04 310.06 441.15 314.95 435.12 314.95 C 429.09 314.95 424.2 310.06 424.2 304.03 C 424.2 298 429.09 293.11 435.12 293.11 Z" fill="none" stroke="hsl(345 55% 38%)" stroke-width="1.6" stroke-linejoin="round"/><path d="M 443.44 320.55 C 449.47 320.55 454.36 325.44 454.36 331.47 C 454.36 337.5 449.47 342.39 443.44 342.39 C 437.41 342.39 432.52 337.5 432.52 331.47 C 432.52 325.44 437.41 320.55 443.44 320.55 Z" fill="none" stroke="hsl(345 55% 38%)" stroke-width="1.6" stroke-linejoin="round"/><path d="M 300 165 C 407.7 165 495 252.3 495 360 C 495 467.7 407.7 555 300 555 C 192.3 555 105 467.7 105 360 C 105 252.3 192.3 165 300 165 Z" fill="none" stroke="hsl(345 55% 38%)" stroke-width="1.6" stroke-linejoin="round"/><path d="M 491.25 398.04 Q 499.49 438.83 529.5 405.65 Q 514.47 363.51 491.25 398.04 Z" fill="none" stroke="hsl(345 55% 38%)" stroke-width="1.6" stroke-linejoin="round"/><path d="M 462.14 468.34 Q 454.13 509.17 494.56 490 Q 496.8 445.31 462.14 468.34 Z" fill="none" stroke="hsl(345 55% 38%)" stroke-width="1.6" stroke-linejoin="round"/><path d="M 408.34 522.14 Q 385.31 556.8 430 554.56 Q 449.17 514.13 408.34 522.14 Z" fill="none" stroke="hsl(345 55% 38%)" stroke-width="1.6" stroke-linejoin="round"/><path d="M 338.04 551.25 Q 303.51 574.47 345.65 589.5 Q 378.83 559.49 338.04 551.25 Z" fill="none" stroke="hsl(345 55% 38%)" stroke-width="1.6" stroke-linejoin="round"/><path d="M 261.96 551.25 Q 221.17 559.49 254.35 589.5 Q 296.49 574.47 261.96 551.25 Z" fill="none" stroke="hsl(345 55% 38%)" stroke-width="1.6" stroke-linejoin="round"/><path d="M 191.66 522.14 Q 150.83 514.13 170 554.56 Q 214.69 556.8 191.66 522.14 Z" fill="none" stroke="hsl(345 55% 38%)" stroke-width="1.6" stroke-linejoin="round"/><path d="M 137.86 468.34 Q 103.2 445.31 105.44 490 Q 145.87 509.17 137.86 468.34 Z" fill="none" stroke="hsl(345 55% 38%)" stroke-width="1.6" stroke-linejoin="round"/><path d="M 108.75 398.04 Q 85.53 363.51 70.5 405.65 Q 100.51 438.83 108.75 398.04 Z" fill="none" stroke="hsl(345 55% 38%)" stroke-width="1.6" stroke-linejoin="round"/><path d="M 108.75 321.96 Q 100.51 281.17 70.5 314.35 Q 85.53 356.49 108.75 321.96 Z" fill="none" stroke="hsl(345 55% 38%)" stroke-width="1.6" stroke-linejoin="round"/><path d="M 137.86 251.66 Q 145.87 210.83 105.44 230 Q 103.2 274.69 137.86 251.66 Z" fill="none" stroke="hsl(345 55% 38%)" stroke-width="1.6" stroke-linejoin="round"/><path d="M 191.66 197.86 Q 214.69 163.2 170 165.44 Q 150.83 205.87 191.66 197.86 Z" fill="none" stroke="hsl(345 55% 38%)" stroke-width="1.6" stroke-linejoin="round"/><path d="M 261.96 168.75 Q 296.49 145.53 254.35 130.5 Q 221.17 160.51 261.96 168.75 Z" fill="none" stroke="hsl(345 55% 38%)" stroke-width="1.6" stroke-linejoin="round"/><path d="M 338.04 168.75 Q 378.83 160.51 345.65 130.5 Q 303.51 145.53 338.04 168.75 Z" fill="none" stroke="hsl(345 55% 38%)" stroke-width="1.6" stroke-linejoin="round"/><path d="M 408.34 197.86 Q 449.17 205.87 430 165.44 Q 385.31 163.2 408.34 197.86 Z" fill="none" stroke="hsl(345 55% 38%)" stroke-width="1.6" stroke-linejoin="round"/><path d="M 462.14 251.66 Q 496.8 274.69 494.56 230 Q 454.13 210.83 462.14 251.66 Z" fill="none" stroke="hsl(345 55% 38%)" stroke-width="1.6" stroke-linejoin="round"/><path d="M 491.25 321.96 Q 514.47 356.49 529.5 314.35 Q 499.49 281.17 491.25 321.96 Z" fill="none" stroke="hsl(345 55% 38%)" stroke-width="1.6" stroke-linejoin="round"/><path d="M 300 165 C 407.7 165 495 252.3 495 360 C 495 467.7 407.7 555 300 555 C 192.3 555 105 467.7 105 360 C 105 252.3 192.3 165 300 165 Z" fill="none" stroke="hsl(345 55% 38%)" stroke-width="1.6" stroke-linejoin="round"/></g>
  <g transform="translate(300,640)">
    <rect x="-110" y="-26" width="220" height="34" rx="17" fill="#ffffff" opacity="0.8"/>
    <text x="0" y="-3" text-anchor="middle" font-family="Quicksand, Arial, sans-serif" font-size="16" font-weight="600" fill="hsl(345 55% 38%)">🦁 Tiere</text>
  </g>
  <text x="300" y="700" text-anchor="middle" font-family="Quicksand, Arial, sans-serif" font-size="40" font-weight="700" fill="#2b2540"><tspan x="300" dy="0">Tiere – Vol. 1</tspan></text>
  <text x="300" y="772" text-anchor="middle" font-family="Arial, sans-serif" font-size="15" fill="#5b5470">Malbuch · 24 Seiten</text>
</svg>