<svg xmlns="http://www.w3.org/2000/svg" viewBox="0 0 600 800" width="600" height="800">
  <defs>
    <linearGradient id="bg" x1="0" y1="0" x2="0" y2="1">
      <stop offset="0" stop-color="hsl(345 70% 95%)"/><stop offset="1" stop-color="hsl(25 70% 92%)"/>
    </linearGradient>
  </defs>
  <rect width="600" height="800" fill="url(#bg)"/>
  <rect x="22" y="22" width="556" height="756" rx="28" fill="none" stroke="hsl(345 55% 38%)" stroke-width="2" opacity="0.5"/>
  <text x="300" y="74" text-anchor="middle" font-family="Quicksand, Arial, sans-serif" font-size="26" font-weight="700" fill="hsl(345 55% 38%)">&#10022; Coloreo</text>
  <g transform="translate(0,40)"><path d="M 323.4 360 Q 335.17 372.84 349.14 360 Q 335.17 347.16 323.4 360 Z" fill="none" stroke="hsl(345 55% 38%)" stroke-width="1.6" stroke-linejoin="round"/><path d="M 321.62 368.95 Q 327.58 385.32 345.4 378.81 Q 337.41 361.6 321.62 368.95 Z" fill="none" stroke="hsl(345 55% 38%)" stroke-width="1.6" stroke-linejoin="round"/><path d="M 316.55 376.55 Q 315.79 393.95 334.75 394.75 Q 333.95 375.79 316.55 376.55 Z" fill="none" stroke="hsl(345 55% 38%)" stroke-width="1.6" stroke-linejoin="round"/><path d="M 308.95 381.62 Q 301.6 397.41 318.81 405.4 Q 325.32 387.58 308.95 381.62 Z" fill="none" stroke="hsl(345 55% 38%)" stroke-width="1.6" stroke-linejoin="round"/><path d="M 300 383.4 Q 287.16 395.17 300 409.14 Q 312.84 395.17 300 383.4 Z" fill="none" stroke="hsl(345 55% 38%)" stroke-width="1.6" stroke-linejoin="round"/><path d="M 291.05 381.62 Q 274.68 387.58 281.19 405.4 Q 298.4 397.41 291.05 381.62 Z" fill="none" stroke="hsl(345 55% 38%)" stroke-width="1.6" stroke-linejoin="round"/><path d="M 283.45 376.55 Q 266.05 375.79 265.25 394.75 Q 284.21 393.95 283.45 376.55 Z" fill="none" stroke="hsl(345 55% 38%)" stroke-width="1.6" stroke-linejoin="round"/><path d="M 278.38 368.95 Q 262.59 361.6 254.6 378.81 Q 272.42 385.32 278.38 368.95 Z" fill="none" stroke="hsl(345 55% 38%)" stroke-width="1.6" stroke-linejoin="round"/><path d="M 276.6 360 Q 264.83 347.16 250.86 360 Q 264.83 372.84 276.6 360 Z" fill="none" stroke="hsl(345 55% 38%)" stroke-width="1.6" stroke-linejoin="round"/><path d="M 278.38 351.05 Q 272.42 334.68 254.6 341.19 Q 262.59 358.4 278.38 351.05 Z" fill="none" stroke="hsl(345 55% 38%)" stroke-width="1.6" stroke-linejoin="round"/><path d="M 283.45 343.45 Q 284.21 326.05 265.25 325.25 Q 266.05 344.21 283.45 343.45 Z" fill="none" stroke="hsl(345 55% 38%)" stroke-width="1.6" stroke-linejoin="round"/><path d="M 291.05 338.38 Q 298.4 322.59 281.19 314.6 Q 274.68 332.42 291.05 338.38 Z" fill="none" stroke="hsl(345 55% 38%)" stroke-width="1.6" stroke-linejoin="round"/><path d="M 300 336.6 Q 312.84 324.83 300 310.86 Q 287.16 324.83 300 336.6 Z" fill="none" stroke="hsl(345 55% 38%)" stroke-width="1.6" stroke-linejoin="round"/><path d="M 308.95 338.38 Q 325.32 332.42 318.81 314.6 Q 301.6 322.59 308.95 338.38 Z" fill="none" stroke="hsl(345 55% 38%)" stroke-width="1.6" stroke-linejoin="round"/><path d="M 316.55 343.45 Q 333.95 344.21 334.75 325.25 Q 315.79 326.05 316.55 343.45 Z" fill="none" stroke="hsl(345 55% 38%)" stroke-width="1.6" stroke-linejoin="round"/><path d="M 321.62 351.05 Q 337.41 358.4 345.4 341.19 Q 327.58 334.68 321.62 351.05 Z" fill="none" stroke="hsl(345 55% 38%)" stroke-width="1.6" stroke-linejoin="round"/><path d="M 285.96 360 a 14.04 14.04 0 1 0 28.08 0 a 14.04 14.04 0 1 0 -28.08 0 Z" fill="none" stroke="hsl(345 55% 38%)" stroke-width="1.6" stroke-linejoin="round"/><path d="M 202.5 360 a 97.5 97.5 0 1 0 195 0 a 97.5 97.5 0 1 0 -195 0 Z" fill="none" stroke="hsl(345 55% 38%)" stroke-width="1.6" stroke-linejoin="round"/><path d="M 395.63 379.02 Q 408.81 403 433.88 386.63 Q 416.98 361.91 395.63 379.02 Z" fill="none" stroke="hsl(345 55% 38%)" stroke-width="1.6" stroke-linejoin="round"/><path d="M 381.07 414.17 Q 384.07 441.37 413.5 435.84 Q 407.35 406.54 381.07 414.17 Z" fill="none" stroke="hsl(345 55% 38%)" stroke-width="1.6" stroke-linejoin="round"/><path d="M 354.17 441.07 Q 346.54 467.35 375.84 473.5 Q 381.37 444.07 354.17 441.07 Z" fill="none" stroke="hsl(345 55% 38%)" stroke-width="1.6" stroke-linejoin="round"/><path d="M 319.02 455.63 Q 301.91 476.98 326.63 493.88 Q 343 468.81 319.02 455.63 Z" fill="none" stroke="hsl(345 55% 38%)" stroke-width="1.6" stroke-linejoin="round"/><path d="M 280.98 455.63 Q 257 468.81 273.37 493.88 Q 298.09 476.98 280.98 455.63 Z" fill="none" stroke="hsl(345 55% 38%)" stroke-width="1.6" stroke-linejoin="round"/><path d="M 245.83 441.07 Q 218.63 444.07 224.16 473.5 Q 253.46 467.35 245.83 441.07 Z" fill="none" stroke="hsl(345 55% 38%)" stroke-width="1.6" stroke-linejoin="round"/><path d="M 218.93 414.17 Q 192.65 406.54 186.5 435.84 Q 215.93 441.37 218.93 414.17 Z" fill="none" stroke="hsl(345 55% 38%)" stroke-width="1.6" stroke-linejoin="round"/><path d="M 204.37 379.02 Q 183.02 361.91 166.12 386.63 Q 191.19 403 204.37 379.02 Z" fill="none" stroke="hsl(345 55% 38%)" stroke-width="1.6" stroke-linejoin="round"/><path d="M 204.37 340.98 Q 191.19 317 166.12 333.37 Q 183.02 358.09 204.37 340.98 Z" fill="none" stroke="hsl(345 55% 38%)" stroke-width="1.6" stroke-linejoin="round"/><path d="M 218.93 305.83 Q 215.93 278.63 186.5 284.16 Q 192.65 313.46 218.93 305.83 Z" fill="none" stroke="hsl(345 55% 38%)" stroke-width="1.6" stroke-linejoin="round"/><path d="M 245.83 278.93 Q 253.46 252.65 224.16 246.5 Q 218.63 275.93 245.83 278.93 Z" fill="none" stroke="hsl(345 55% 38%)" stroke-width="1.6" stroke-linejoin="round"/><path d="M 280.98 264.37 Q 298.09 243.02 273.37 226.12 Q 257 251.19 280.98 264.37 Z" fill="none" stroke="hsl(345 55% 38%)" stroke-width="1.6" stroke-linejoin="round"/><path d="M 319.02 264.37 Q 343 251.19 326.63 226.12 Q 301.91 243.02 319.02 264.37 Z" fill="none" stroke="hsl(345 55% 38%)" stroke-width="1.6" stroke-linejoin="round"/><path d="M 354.17 278.93 Q 381.37 275.93 375.84 246.5 Q 346.54 252.65 354.17 278.93 Z" fill="none" stroke="hsl(345 55% 38%)" stroke-width="1.6" stroke-linejoin="round"/><path d="M 381.07 305.83 Q 407.35 313.46 413.5 284.16 Q 384.07 278.63 381.07 305.83 Z" fill="none" stroke="hsl(345 55% 38%)" stroke-width="1.6" stroke-linejoin="round"/><path d="M 395.63 340.98 Q 416.98 358.09 433.88 333.37 Q 408.81 317 395.63 340.98 Z" fill="none" stroke="hsl(345 55% 38%)" stroke-width="1.6" stroke-linejoin="round"/><path d="M 153.75 360 a 146.25 146.25 0 1 0 292.5 0 a 146.25 146.25 0 1 0 -292.5 0 Z" fill="none" stroke="hsl(345 55% 38%)" stroke-width="1.6" stroke-linejoin="round"/><path d="M 435.33 360 a 10.92 10.92 0 1 0 21.84 0 a 10.92 10.92 0 1 0 -21.84 0 Z" fill="none" stroke="hsl(345 55% 38%)" stroke-width="1.6" stroke-linejoin="round"/><path d="M 432.52 388.53 a 10.92 10.92 0 1 0 21.84 0 a 10.92 10.92 0 1 0 -21.84 0 Z" fill="none" stroke="hsl(345 55% 38%)" stroke-width="1.6" stroke-linejoin="round"/><path d="M 424.2 415.97 a 10.92 10.92 0 1 0 21.84 0 a 10.92 10.92 0 1 0 -21.84 0 Z" fill="none" stroke="hsl(345 55% 38%)" stroke-width="1.6" stroke-linejoin="round"/><path d="M 410.68 441.25 a 10.92 10.92 0 1 0 21.84 0 a 10.92 10.92 0 1 0 -21.84 0 Z" fill="none" stroke="hsl(345 55% 38%)" stroke-width="1.6" stroke-linejoin="round"/><path d="M 392.49 463.41 a 10.92 10.92 0 1 0 21.84 0 a 10.92 10.92 0 1 0 -21.84 0 Z" fill="none" stroke="hsl(345 55% 38%)" stroke-width="1.6" stroke-linejoin="round"/><path d="M 370.33 481.6 a 10.92 10.92 0 1 0 21.84 0 a 10.92 10.92 0 1 0 -21.84 0 Z" fill="none" stroke="hsl(345 55% 38%)" stroke-width="1.6" stroke-linejoin="round"/><path d="M 345.05 495.12 a 10.92 10.92 0 1 0 21.84 0 a 10.92 10.92 0 1 0 -21.84 0 Z" fill="none" stroke="hsl(345 55% 38%)" stroke-width="1.6" stroke-linejoin="round"/><path d="M 317.61 503.44 a 10.92 10.92 0 1 0 21.84 0 a 10.92 10.92 0 1 0 -21.84 0 Z" fill="none" stroke="hsl(345 55% 38%)" stroke-width="1.6" stroke-linejoin="round"/><path d="M 289.08 506.25 a 10.92 10.92 0 1 0 21.84 0 a 10.92 10.92 0 1 0 -21.84 0 Z" fill="none" stroke="hsl(345 55% 38%)" stroke-width="1.6" stroke-linejoin="round"/><path d="M 260.55 503.44 a 10.92 10.92 0 1 0 21.84 0 a 10.92 10.92 0 1 0 -21.84 0 Z" fill="none" stroke="hsl(345 55% 38%)" stroke-width="1.6" stroke-linejoin="round"/><path d="M 233.11 495.12 a 10.92 10.92 0 1 0 21.84 0 a 10.92 10.92 0 1 0 -21.84 0 Z" fill="none" stroke="hsl(345 55% 38%)" stroke-width="1.6" stroke-linejoin="round"/><path d="M 207.83 481.6 a 10.92 10.92 0 1 0 21.84 0 a 10.92 10.92 0 1 0 -21.84 0 Z" fill="none" stroke="hsl(345 55% 38%)" stroke-width="1.6" stroke-linejoin="round"/><path d="M 185.67 463.41 a 10.92 10.92 0 1 0 21.84 0 a 10.92 10.92 0 1 0 -21.84 0 Z" fill="none" stroke="hsl(345 55% 38%)" stroke-width="1.6" stroke-linejoin="round"/><path d="M 167.48 441.25 a 10.92 10.92 0 1 0 21.84 0 a 10.92 10.92 0 1 0 -21.84 0 Z" fill="none" stroke="hsl(345 55% 38%)" stroke-width="1.6" stroke-linejoin="round"/><path d="M 153.96 415.97 a 10.92 10.92 0 1 0 21.84 0 a 10.92 10.92 0 1 0 -21.84 0 Z" fill="none" stroke="hsl(345 55% 38%)" stroke-width="1.6" stroke-linejoin="round"/><path d="M 145.64 388.53 a 10.92 10.92 0 1 0 21.84 0 a 10.92 10.92 0 1 0 -21.84 0 Z" fill="none" stroke="hsl(345 55% 38%)" stroke-width="1.6" stroke-linejoin="round"/><path d="M 142.83 360 a 10.92 10.92 0 1 0 21.84 0 a 10.92 10.92 0 1 0 -21.84 0 Z" fill="none" stroke="hsl(345 55% 38%)" stroke-width="1.6" stroke-linejoin="round"/><path d="M 145.64 331.47 a 10.92 10.92 0 1 0 21.84 0 a 10.92 10.92 0 1 0 -21.84 0 Z" fill="none" stroke="hsl(345 55% 38%)" stroke-width="1.6" stroke-linejoin="round"/><path d="M 153.96 304.03 a 10.92 10.92 0 1 0 21.84 0 a 10.92 10.92 0 1 0 -21.84 0 Z" fill="none" stroke="hsl(345 55% 38%)" stroke-width="1.6" stroke-linejoin="round"/><path d="M 167.48 278.75 a 10.92 10.92 0 1 0 21.84 0 a 10.92 10.92 0 1 0 -21.84 0 Z" fill="none" stroke="hsl(345 55% 38%)" stroke-width="1.6" stroke-linejoin="round"/><path d="M 185.67 256.59 a 10.92 10.92 0 1 0 21.84 0 a 10.92 10.92 0 1 0 -21.84 0 Z" fill="none" stroke="hsl(345 55% 38%)" stroke-width="1.6" stroke-linejoin="round"/><path d="M 207.83 238.4 a 10.92 10.92 0 1 0 21.84 0 a 10.92 10.92 0 1 0 -21.84 0 Z" fill="none" stroke="hsl(345 55% 38%)" stroke-width="1.6" stroke-linejoin="round"/><path d="M 233.11 224.88 a 10.92 10.92 0 1 0 21.84 0 a 10.92 10.92 0 1 0 -21.84 0 Z" fill="none" stroke="hsl(345 55% 38%)" stroke-width="1.6" stroke-linejoin="round"/><path d="M 260.55 216.56 a 10.92 10.92 0 1 0 21.84 0 a 10.92 10.92 0 1 0 -21.84 0 Z" fill="none" stroke="hsl(345 55% 38%)" stroke-width="1.6" stroke-linejoin="round"/><path d="M 289.08 213.75 a 10.92 10.92 0 1 0 21.84 0 a 10.92 10.92 0 1 0 -21.84 0 Z" fill="none" stroke="hsl(345 55% 38%)" stroke-width="1.6" stroke-linejoin="round"/><path d="M 317.61 216.56 a 10.92 10.92 0 1 0 21.84 0 a 10.92 10.92 0 1 0 -21.84 0 Z" fill="none" stroke="hsl(345 55% 38%)" stroke-width="1.6" stroke-linejoin="round"/><path d="M 345.05 224.88 a 10.92 10.92 0 1 0 21.84 0 a 10.92 10.92 0 1 0 -21.84 0 Z" fill="none" stroke="hsl(345 55% 38%)" stroke-width="1.6" stroke-linejoin="round"/><path d="M 370.33 238.4 a 10.92 10.92 0 1 0 21.84 0 a 10.92 10.92 0 1 0 -21.84 0 Z" fill="none" stroke="hsl(345 55% 38%)" stroke-width="1.6" stroke-linejoin="round"/><path d="M 392.49 256.59 a 10.92 10.92 0 1 0 21.84 0 a 10.92 10.92 0 1 0 -21.84 0 Z" fill="none" stroke="hsl(345 55% 38%)" stroke-width="1.6" stroke-linejoin="round"/><path d="M 410.68 278.75 a 10.92 10.92 0 1 0 21.84 0 a 10.92 10.92 0 1 0 -21.84 0 Z" fill="none" stroke="hsl(345 55% 38%)" stroke-width="1.6" stroke-linejoin="round"/><path d="M 424.2 304.03 a 10.92 10.92 0 1 0 21.84 0 a 10.92 10.92 0 1 0 -21.84 0 Z" fill="none" stroke="hsl(345 55% 38%)" stroke-width="1.6" stroke-linejoin="round"/><path d="M 432.52 331.47 a 10.92 10.92 0 1 0 21.84 0 a 10.92 10.92 0 1 0 -21.84 0 Z" fill="none" stroke="hsl(345 55% 38%)" stroke-width="1.6" stroke-linejoin="round"/><path d="M 105 360 a 195 195 0 1 0 390 0 a 195 195 0 1 0 -390 0 Z" fill="none" stroke="hsl(345 55% 38%)" stroke-width="1.6" stroke-linejoin="round"/><path d="M 491.25 398.04 Q 499.49 438.83 529.5 405.65 Q 514.47 363.51 491.25 398.04 Z" fill="none" stroke="hsl(345 55% 38%)" stroke-width="1.6" stroke-linejoin="round"/><path d="M 462.14 468.34 Q 454.13 509.17 494.56 490 Q 496.8 445.31 462.14 468.34 Z" fill="none" stroke="hsl(345 55% 38%)" stroke-width="1.6" stroke-linejoin="round"/><path d="M 408.34 522.14 Q 385.31 556.8 430 554.56 Q 449.17 514.13 408.34 522.14 Z" fill="none" stroke="hsl(345 55% 38%)" stroke-width="1.6" stroke-linejoin="round"/><path d="M 338.04 551.25 Q 303.51 574.47 345.65 589.5 Q 378.83 559.49 338.04 551.25 Z" fill="none" stroke="hsl(345 55% 38%)" stroke-width="1.6" stroke-linejoin="round"/><path d="M 261.96 551.25 Q 221.17 559.49 254.35 589.5 Q 296.49 574.47 261.96 551.25 Z" fill="none" stroke="hsl(345 55% 38%)" stroke-width="1.6" stroke-linejoin="round"/><path d="M 191.66 522.14 Q 150.83 514.13 170 554.56 Q 214.69 556.8 191.66 522.14 Z" fill="none" stroke="hsl(345 55% 38%)" stroke-width="1.6" stroke-linejoin="round"/><path d="M 137.86 468.34 Q 103.2 445.31 105.44 490 Q 145.87 509.17 137.86 468.34 Z" fill="none" stroke="hsl(345 55% 38%)" stroke-width="1.6" stroke-linejoin="round"/><path d="M 108.75 398.04 Q 85.53 363.51 70.5 405.65 Q 100.51 438.83 108.75 398.04 Z" fill="none" stroke="hsl(345 55% 38%)" stroke-width="1.6" stroke-linejoin="round"/><path d="M 108.75 321.96 Q 100.51 281.17 70.5 314.35 Q 85.53 356.49 108.75 321.96 Z" fill="none" stroke="hsl(345 55% 38%)" stroke-width="1.6" stroke-linejoin="round"/><path d="M 137.86 251.66 Q 145.87 210.83 105.44 230 Q 103.2 274.69 137.86 251.66 Z" fill="none" stroke="hsl(345 55% 38%)" stroke-width="1.6" stroke-linejoin="round"/><path d="M 191.66 197.86 Q 214.69 163.2 170 165.44 Q 150.83 205.87 191.66 197.86 Z" fill="none" stroke="hsl(345 55% 38%)" stroke-width="1.6" stroke-linejoin="round"/><path d="M 261.96 168.75 Q 296.49 145.53 254.35 130.5 Q 221.17 160.51 261.96 168.75 Z" fill="none" stroke="hsl(345 55% 38%)" stroke-width="1.6" stroke-linejoin="round"/><path d="M 338.04 168.75 Q 378.83 160.51 345.65 130.5 Q 303.51 145.53 338.04 168.75 Z" fill="none" stroke="hsl(345 55% 38%)" stroke-width="1.6" stroke-linejoin="round"/><path d="M 408.34 197.86 Q 449.17 205.87 430 165.44 Q 385.31 163.2 408.34 197.86 Z" fill="none" stroke="hsl(345 55% 38%)" stroke-width="1.6" stroke-linejoin="round"/><path d="M 462.14 251.66 Q 496.8 274.69 494.56 230 Q 454.13 210.83 462.14 251.66 Z" fill="none" stroke="hsl(345 55% 38%)" stroke-width="1.6" stroke-linejoin="round"/><path d="M 491.25 321.96 Q 514.47 356.49 529.5 314.35 Q 499.49 281.17 491.25 321.96 Z" fill="none" stroke="hsl(345 55% 38%)" stroke-width="1.6" stroke-linejoin="round"/><path d="M 105 360 a 195 195 0 1 0 390 0 a 195 195 0 1 0 -390 0 Z" fill="none" stroke="hsl(345 55% 38%)" stroke-width="1.6" stroke-linejoin="round"/></g>
  <g transform="translate(300,640)">
    <rect x="-110" y="-26" width="220" height="34" rx="17" fill="#ffffff" opacity="0.8"/>
    <text x="0" y="-3" text-anchor="middle" font-family="Quicksand, Arial, sans-serif" font-size="16" font-weight="600" fill="hsl(345 55% 38%)">🦁 Tiere</text>
  </g>
  <text x="300" y="700" text-anchor="middle" font-family="Quicksand, Arial, sans-serif" font-size="40" font-weight="700" fill="#2b2540"><tspan x="300" dy="0">Tiere – Vol. 1</tspan></text>
  <text x="300" y="772" text-anchor="middle" font-family="Arial, sans-serif" font-size="15" fill="#5b5470">Malbuch · 30 Seiten</text>
</svg>