<svg xmlns="http://www.w3.org/2000/svg" viewBox="0 0 600 800" width="600" height="800">
  <defs>
    <linearGradient id="bg" x1="0" y1="0" x2="0" y2="1">
      <stop offset="0" stop-color="hsl(266 70% 95%)"/><stop offset="1" stop-color="hsl(306 70% 92%)"/>
    </linearGradient>
  </defs>
  <rect width="600" height="800" fill="url(#bg)"/>
  <rect x="22" y="22" width="556" height="756" rx="28" fill="none" stroke="hsl(266 55% 38%)" stroke-width="2" opacity="0.5"/>
  <text x="300" y="74" text-anchor="middle" font-family="Quicksand, Arial, sans-serif" font-size="26" font-weight="700" fill="hsl(266 55% 38%)">&#10022; Coloreo</text>
  <g transform="translate(0,40)"><path d="M 323.4 360 Q 335.17 372.84 349.14 360 Q 335.17 347.16 323.4 360 Z" fill="none" stroke="hsl(266 55% 38%)" stroke-width="1.6" stroke-linejoin="round"/><path d="M 318.93 373.75 Q 320.91 391.06 339.76 388.88 Q 336 370.29 318.93 373.75 Z" fill="none" stroke="hsl(266 55% 38%)" stroke-width="1.6" stroke-linejoin="round"/><path d="M 307.23 382.25 Q 298.66 397.42 315.19 406.73 Q 323.08 389.48 307.23 382.25 Z" fill="none" stroke="hsl(266 55% 38%)" stroke-width="1.6" stroke-linejoin="round"/><path d="M 292.77 382.25 Q 276.92 389.48 284.81 406.73 Q 301.34 397.42 292.77 382.25 Z" fill="none" stroke="hsl(266 55% 38%)" stroke-width="1.6" stroke-linejoin="round"/><path d="M 281.07 373.75 Q 264 370.29 260.24 388.88 Q 279.09 391.06 281.07 373.75 Z" fill="none" stroke="hsl(266 55% 38%)" stroke-width="1.6" stroke-linejoin="round"/><path d="M 276.6 360 Q 264.83 347.16 250.86 360 Q 264.83 372.84 276.6 360 Z" fill="none" stroke="hsl(266 55% 38%)" stroke-width="1.6" stroke-linejoin="round"/><path d="M 281.07 346.25 Q 279.09 328.94 260.24 331.12 Q 264 349.71 281.07 346.25 Z" fill="none" stroke="hsl(266 55% 38%)" stroke-width="1.6" stroke-linejoin="round"/><path d="M 292.77 337.75 Q 301.34 322.58 284.81 313.27 Q 276.92 330.52 292.77 337.75 Z" fill="none" stroke="hsl(266 55% 38%)" stroke-width="1.6" stroke-linejoin="round"/><path d="M 307.23 337.75 Q 323.08 330.52 315.19 313.27 Q 298.66 322.58 307.23 337.75 Z" fill="none" stroke="hsl(266 55% 38%)" stroke-width="1.6" stroke-linejoin="round"/><path d="M 318.93 346.25 Q 336 349.71 339.76 331.12 Q 320.91 328.94 318.93 346.25 Z" fill="none" stroke="hsl(266 55% 38%)" stroke-width="1.6" stroke-linejoin="round"/><path d="M 285.96 360 a 14.04 14.04 0 1 0 28.08 0 a 14.04 14.04 0 1 0 -28.08 0 Z" fill="none" stroke="hsl(266 55% 38%)" stroke-width="1.6" stroke-linejoin="round"/><path d="M 202.5 360 a 97.5 97.5 0 1 0 195 0 a 97.5 97.5 0 1 0 -195 0 Z" fill="none" stroke="hsl(266 55% 38%)" stroke-width="1.6" stroke-linejoin="round"/><path d="M 392.73 390.13 Q 403 415.49 429.82 402.18 Q 415.95 375.65 392.73 390.13 Z" fill="none" stroke="hsl(266 55% 38%)" stroke-width="1.6" stroke-linejoin="round"/><path d="M 357.31 438.88 Q 350.71 465.44 380.23 470.43 Q 384.61 440.81 357.31 438.88 Z" fill="none" stroke="hsl(266 55% 38%)" stroke-width="1.6" stroke-linejoin="round"/><path d="M 300 457.5 Q 279.05 475.11 300 496.5 Q 320.95 475.11 300 457.5 Z" fill="none" stroke="hsl(266 55% 38%)" stroke-width="1.6" stroke-linejoin="round"/><path d="M 242.69 438.88 Q 215.39 440.81 219.77 470.43 Q 249.29 465.44 242.69 438.88 Z" fill="none" stroke="hsl(266 55% 38%)" stroke-width="1.6" stroke-linejoin="round"/><path d="M 207.27 390.13 Q 184.05 375.65 170.18 402.18 Q 197 415.49 207.27 390.13 Z" fill="none" stroke="hsl(266 55% 38%)" stroke-width="1.6" stroke-linejoin="round"/><path d="M 207.27 329.87 Q 197 304.51 170.18 317.82 Q 184.05 344.35 207.27 329.87 Z" fill="none" stroke="hsl(266 55% 38%)" stroke-width="1.6" stroke-linejoin="round"/><path d="M 242.69 281.12 Q 249.29 254.56 219.77 249.57 Q 215.39 279.19 242.69 281.12 Z" fill="none" stroke="hsl(266 55% 38%)" stroke-width="1.6" stroke-linejoin="round"/><path d="M 300 262.5 Q 320.95 244.89 300 223.5 Q 279.05 244.89 300 262.5 Z" fill="none" stroke="hsl(266 55% 38%)" stroke-width="1.6" stroke-linejoin="round"/><path d="M 357.31 281.12 Q 384.61 279.19 380.23 249.57 Q 350.71 254.56 357.31 281.12 Z" fill="none" stroke="hsl(266 55% 38%)" stroke-width="1.6" stroke-linejoin="round"/><path d="M 392.73 329.87 Q 415.95 344.35 429.82 317.82 Q 403 304.51 392.73 329.87 Z" fill="none" stroke="hsl(266 55% 38%)" stroke-width="1.6" stroke-linejoin="round"/><path d="M 153.75 360 a 146.25 146.25 0 1 0 292.5 0 a 146.25 146.25 0 1 0 -292.5 0 Z" fill="none" stroke="hsl(266 55% 38%)" stroke-width="1.6" stroke-linejoin="round"/><path d="M 446.25 360 Q 463.07 389.67 485.25 360 Q 463.07 330.33 446.25 360 Z" fill="none" stroke="hsl(266 55% 38%)" stroke-width="1.6" stroke-linejoin="round"/><path d="M 439.09 405.19 Q 445.92 438.61 476.18 417.25 Q 464.26 382.17 439.09 405.19 Z" fill="none" stroke="hsl(266 55% 38%)" stroke-width="1.6" stroke-linejoin="round"/><path d="M 418.32 445.96 Q 414.49 479.86 449.87 468.89 Q 449.37 431.84 418.32 445.96 Z" fill="none" stroke="hsl(266 55% 38%)" stroke-width="1.6" stroke-linejoin="round"/><path d="M 385.96 478.32 Q 371.84 509.37 408.89 509.87 Q 419.86 474.49 385.96 478.32 Z" fill="none" stroke="hsl(266 55% 38%)" stroke-width="1.6" stroke-linejoin="round"/><path d="M 345.19 499.09 Q 322.17 524.26 357.25 536.18 Q 378.61 505.92 345.19 499.09 Z" fill="none" stroke="hsl(266 55% 38%)" stroke-width="1.6" stroke-linejoin="round"/><path d="M 300 506.25 Q 270.33 523.07 300 545.25 Q 329.67 523.07 300 506.25 Z" fill="none" stroke="hsl(266 55% 38%)" stroke-width="1.6" stroke-linejoin="round"/><path d="M 254.81 499.09 Q 221.39 505.92 242.75 536.18 Q 277.83 524.26 254.81 499.09 Z" fill="none" stroke="hsl(266 55% 38%)" stroke-width="1.6" stroke-linejoin="round"/><path d="M 214.04 478.32 Q 180.14 474.49 191.11 509.87 Q 228.16 509.37 214.04 478.32 Z" fill="none" stroke="hsl(266 55% 38%)" stroke-width="1.6" stroke-linejoin="round"/><path d="M 181.68 445.96 Q 150.63 431.84 150.13 468.89 Q 185.51 479.86 181.68 445.96 Z" fill="none" stroke="hsl(266 55% 38%)" stroke-width="1.6" stroke-linejoin="round"/><path d="M 160.91 405.19 Q 135.74 382.17 123.82 417.25 Q 154.08 438.61 160.91 405.19 Z" fill="none" stroke="hsl(266 55% 38%)" stroke-width="1.6" stroke-linejoin="round"/><path d="M 153.75 360 Q 136.93 330.33 114.75 360 Q 136.93 389.67 153.75 360 Z" fill="none" stroke="hsl(266 55% 38%)" stroke-width="1.6" stroke-linejoin="round"/><path d="M 160.91 314.81 Q 154.08 281.39 123.82 302.75 Q 135.74 337.83 160.91 314.81 Z" fill="none" stroke="hsl(266 55% 38%)" stroke-width="1.6" stroke-linejoin="round"/><path d="M 181.68 274.04 Q 185.51 240.14 150.13 251.11 Q 150.63 288.16 181.68 274.04 Z" fill="none" stroke="hsl(266 55% 38%)" stroke-width="1.6" stroke-linejoin="round"/><path d="M 214.04 241.68 Q 228.16 210.63 191.11 210.13 Q 180.14 245.51 214.04 241.68 Z" fill="none" stroke="hsl(266 55% 38%)" stroke-width="1.6" stroke-linejoin="round"/><path d="M 254.81 220.91 Q 277.83 195.74 242.75 183.82 Q 221.39 214.08 254.81 220.91 Z" fill="none" stroke="hsl(266 55% 38%)" stroke-width="1.6" stroke-linejoin="round"/><path d="M 300 213.75 Q 329.67 196.93 300 174.75 Q 270.33 196.93 300 213.75 Z" fill="none" stroke="hsl(266 55% 38%)" stroke-width="1.6" stroke-linejoin="round"/><path d="M 345.19 220.91 Q 378.61 214.08 357.25 183.82 Q 322.17 195.74 345.19 220.91 Z" fill="none" stroke="hsl(266 55% 38%)" stroke-width="1.6" stroke-linejoin="round"/><path d="M 385.96 241.68 Q 419.86 245.51 408.89 210.13 Q 371.84 210.63 385.96 241.68 Z" fill="none" stroke="hsl(266 55% 38%)" stroke-width="1.6" stroke-linejoin="round"/><path d="M 418.32 274.04 Q 449.37 288.16 449.87 251.11 Q 414.49 240.14 418.32 274.04 Z" fill="none" stroke="hsl(266 55% 38%)" stroke-width="1.6" stroke-linejoin="round"/><path d="M 439.09 314.81 Q 464.26 337.83 476.18 302.75 Q 445.92 281.39 439.09 314.81 Z" fill="none" stroke="hsl(266 55% 38%)" stroke-width="1.6" stroke-linejoin="round"/><path d="M 105 360 a 195 195 0 1 0 390 0 a 195 195 0 1 0 -390 0 Z" fill="none" stroke="hsl(266 55% 38%)" stroke-width="1.6" stroke-linejoin="round"/><path d="M 485.46 420.26 L 511.42 428.69" fill="none" stroke="hsl(266 55% 38%)" stroke-width="1.6" stroke-linejoin="round"/><path d="M 414.62 517.76 L 430.66 539.84" fill="none" stroke="hsl(266 55% 38%)" stroke-width="1.6" stroke-linejoin="round"/><path d="M 300 555 L 300 582.3" fill="none" stroke="hsl(266 55% 38%)" stroke-width="1.6" stroke-linejoin="round"/><path d="M 185.38 517.76 L 169.34 539.84" fill="none" stroke="hsl(266 55% 38%)" stroke-width="1.6" stroke-linejoin="round"/><path d="M 114.54 420.26 L 88.58 428.69" fill="none" stroke="hsl(266 55% 38%)" stroke-width="1.6" stroke-linejoin="round"/><path d="M 114.54 299.74 L 88.58 291.31" fill="none" stroke="hsl(266 55% 38%)" stroke-width="1.6" stroke-linejoin="round"/><path d="M 185.38 202.24 L 169.34 180.16" fill="none" stroke="hsl(266 55% 38%)" stroke-width="1.6" stroke-linejoin="round"/><path d="M 300 165 L 300 137.7" fill="none" stroke="hsl(266 55% 38%)" stroke-width="1.6" stroke-linejoin="round"/><path d="M 414.62 202.24 L 430.66 180.16" fill="none" stroke="hsl(266 55% 38%)" stroke-width="1.6" stroke-linejoin="round"/><path d="M 485.46 299.74 L 511.42 291.31" fill="none" stroke="hsl(266 55% 38%)" stroke-width="1.6" stroke-linejoin="round"/><path d="M 105 360 a 195 195 0 1 0 390 0 a 195 195 0 1 0 -390 0 Z" fill="none" stroke="hsl(266 55% 38%)" stroke-width="1.6" stroke-linejoin="round"/></g>
  <g transform="translate(300,640)">
    <rect x="-110" y="-26" width="220" height="34" rx="17" fill="#ffffff" opacity="0.8"/>
    <text x="0" y="-3" text-anchor="middle" font-family="Quicksand, Arial, sans-serif" font-size="16" font-weight="600" fill="hsl(266 55% 38%)">⚙️ Vintage &amp; Steampunk</text>
  </g>
  <text x="300" y="700" text-anchor="middle" font-family="Quicksand, Arial, sans-serif" font-size="40" font-weight="700" fill="#2b2540"><tspan x="300" dy="0">Vintage &amp;</tspan><tspan x="300" dy="44">Steampunk – Vol. 1</tspan></text>
  <text x="300" y="772" text-anchor="middle" font-family="Arial, sans-serif" font-size="15" fill="#5b5470">Malbuch · 30 Seiten</text>
</svg>