<svg xmlns="http://www.w3.org/2000/svg" viewBox="0 0 600 800" width="600" height="800">
  <defs>
    <linearGradient id="bg" x1="0" y1="0" x2="0" y2="1">
      <stop offset="0" stop-color="hsl(266 70% 95%)"/><stop offset="1" stop-color="hsl(306 70% 92%)"/>
    </linearGradient>
  </defs>
  <rect width="600" height="800" fill="url(#bg)"/>
  <rect x="22" y="22" width="556" height="756" rx="28" fill="none" stroke="hsl(266 55% 38%)" stroke-width="2" opacity="0.5"/>
  <text x="300" y="74" text-anchor="middle" font-family="Quicksand, Arial, sans-serif" font-size="26" font-weight="700" fill="hsl(266 55% 38%)">&#10022; Coloreo</text>
  <g transform="translate(0,40)"><path d="M 323.4 360 Q 335.17 372.84 349.14 360 Q 335.17 347.16 323.4 360 Z" fill="none" stroke="hsl(266 55% 38%)" stroke-width="1.6" stroke-linejoin="round"/><path d="M 321.62 368.95 Q 327.58 385.32 345.4 378.81 Q 337.41 361.6 321.62 368.95 Z" fill="none" stroke="hsl(266 55% 38%)" stroke-width="1.6" stroke-linejoin="round"/><path d="M 316.55 376.55 Q 315.79 393.95 334.75 394.75 Q 333.95 375.79 316.55 376.55 Z" fill="none" stroke="hsl(266 55% 38%)" stroke-width="1.6" stroke-linejoin="round"/><path d="M 308.95 381.62 Q 301.6 397.41 318.81 405.4 Q 325.32 387.58 308.95 381.62 Z" fill="none" stroke="hsl(266 55% 38%)" stroke-width="1.6" stroke-linejoin="round"/><path d="M 300 383.4 Q 287.16 395.17 300 409.14 Q 312.84 395.17 300 383.4 Z" fill="none" stroke="hsl(266 55% 38%)" stroke-width="1.6" stroke-linejoin="round"/><path d="M 291.05 381.62 Q 274.68 387.58 281.19 405.4 Q 298.4 397.41 291.05 381.62 Z" fill="none" stroke="hsl(266 55% 38%)" stroke-width="1.6" stroke-linejoin="round"/><path d="M 283.45 376.55 Q 266.05 375.79 265.25 394.75 Q 284.21 393.95 283.45 376.55 Z" fill="none" stroke="hsl(266 55% 38%)" stroke-width="1.6" stroke-linejoin="round"/><path d="M 278.38 368.95 Q 262.59 361.6 254.6 378.81 Q 272.42 385.32 278.38 368.95 Z" fill="none" stroke="hsl(266 55% 38%)" stroke-width="1.6" stroke-linejoin="round"/><path d="M 276.6 360 Q 264.83 347.16 250.86 360 Q 264.83 372.84 276.6 360 Z" fill="none" stroke="hsl(266 55% 38%)" stroke-width="1.6" stroke-linejoin="round"/><path d="M 278.38 351.05 Q 272.42 334.68 254.6 341.19 Q 262.59 358.4 278.38 351.05 Z" fill="none" stroke="hsl(266 55% 38%)" stroke-width="1.6" stroke-linejoin="round"/><path d="M 283.45 343.45 Q 284.21 326.05 265.25 325.25 Q 266.05 344.21 283.45 343.45 Z" fill="none" stroke="hsl(266 55% 38%)" stroke-width="1.6" stroke-linejoin="round"/><path d="M 291.05 338.38 Q 298.4 322.59 281.19 314.6 Q 274.68 332.42 291.05 338.38 Z" fill="none" stroke="hsl(266 55% 38%)" stroke-width="1.6" stroke-linejoin="round"/><path d="M 300 336.6 Q 312.84 324.83 300 310.86 Q 287.16 324.83 300 336.6 Z" fill="none" stroke="hsl(266 55% 38%)" stroke-width="1.6" stroke-linejoin="round"/><path d="M 308.95 338.38 Q 325.32 332.42 318.81 314.6 Q 301.6 322.59 308.95 338.38 Z" fill="none" stroke="hsl(266 55% 38%)" stroke-width="1.6" stroke-linejoin="round"/><path d="M 316.55 343.45 Q 333.95 344.21 334.75 325.25 Q 315.79 326.05 316.55 343.45 Z" fill="none" stroke="hsl(266 55% 38%)" stroke-width="1.6" stroke-linejoin="round"/><path d="M 321.62 351.05 Q 337.41 358.4 345.4 341.19 Q 327.58 334.68 321.62 351.05 Z" fill="none" stroke="hsl(266 55% 38%)" stroke-width="1.6" stroke-linejoin="round"/><path d="M 285.96 360 a 14.04 14.04 0 1 0 28.08 0 a 14.04 14.04 0 1 0 -28.08 0 Z" fill="none" stroke="hsl(266 55% 38%)" stroke-width="1.6" stroke-linejoin="round"/><path d="M 235 360 a 65 65 0 1 0 130 0 a 65 65 0 1 0 -130 0 Z" fill="none" stroke="hsl(266 55% 38%)" stroke-width="1.6" stroke-linejoin="round"/><path d="M 363.75 372.68 L 381.6 376.23" fill="none" stroke="hsl(266 55% 38%)" stroke-width="1.6" stroke-linejoin="round"/><path d="M 354.05 396.11 L 369.18 406.22" fill="none" stroke="hsl(266 55% 38%)" stroke-width="1.6" stroke-linejoin="round"/><path d="M 336.11 414.05 L 346.22 429.18" fill="none" stroke="hsl(266 55% 38%)" stroke-width="1.6" stroke-linejoin="round"/><path d="M 312.68 423.75 L 316.23 441.6" fill="none" stroke="hsl(266 55% 38%)" stroke-width="1.6" stroke-linejoin="round"/><path d="M 287.32 423.75 L 283.77 441.6" fill="none" stroke="hsl(266 55% 38%)" stroke-width="1.6" stroke-linejoin="round"/><path d="M 263.89 414.05 L 253.78 429.18" fill="none" stroke="hsl(266 55% 38%)" stroke-width="1.6" stroke-linejoin="round"/><path d="M 245.95 396.11 L 230.82 406.22" fill="none" stroke="hsl(266 55% 38%)" stroke-width="1.6" stroke-linejoin="round"/><path d="M 236.25 372.68 L 218.4 376.23" fill="none" stroke="hsl(266 55% 38%)" stroke-width="1.6" stroke-linejoin="round"/><path d="M 236.25 347.32 L 218.4 343.77" fill="none" stroke="hsl(266 55% 38%)" stroke-width="1.6" stroke-linejoin="round"/><path d="M 245.95 323.89 L 230.82 313.78" fill="none" stroke="hsl(266 55% 38%)" stroke-width="1.6" stroke-linejoin="round"/><path d="M 263.89 305.95 L 253.78 290.82" fill="none" stroke="hsl(266 55% 38%)" stroke-width="1.6" stroke-linejoin="round"/><path d="M 287.32 296.25 L 283.77 278.4" fill="none" stroke="hsl(266 55% 38%)" stroke-width="1.6" stroke-linejoin="round"/><path d="M 312.68 296.25 L 316.23 278.4" fill="none" stroke="hsl(266 55% 38%)" stroke-width="1.6" stroke-linejoin="round"/><path d="M 336.11 305.95 L 346.22 290.82" fill="none" stroke="hsl(266 55% 38%)" stroke-width="1.6" stroke-linejoin="round"/><path d="M 354.05 323.89 L 369.18 313.78" fill="none" stroke="hsl(266 55% 38%)" stroke-width="1.6" stroke-linejoin="round"/><path d="M 363.75 347.32 L 381.6 343.77" fill="none" stroke="hsl(266 55% 38%)" stroke-width="1.6" stroke-linejoin="round"/><path d="M 202.5 360 a 97.5 97.5 0 1 0 195 0 a 97.5 97.5 0 1 0 -195 0 Z" fill="none" stroke="hsl(266 55% 38%)" stroke-width="1.6" stroke-linejoin="round"/><path d="M 390.22 360 a 7.28 7.28 0 1 0 14.56 0 a 7.28 7.28 0 1 0 -14.56 0 Z" fill="none" stroke="hsl(266 55% 38%)" stroke-width="1.6" stroke-linejoin="round"/><path d="M 388.35 379.02 a 7.28 7.28 0 1 0 14.56 0 a 7.28 7.28 0 1 0 -14.56 0 Z" fill="none" stroke="hsl(266 55% 38%)" stroke-width="1.6" stroke-linejoin="round"/><path d="M 382.8 397.31 a 7.28 7.28 0 1 0 14.56 0 a 7.28 7.28 0 1 0 -14.56 0 Z" fill="none" stroke="hsl(266 55% 38%)" stroke-width="1.6" stroke-linejoin="round"/><path d="M 373.79 414.17 a 7.28 7.28 0 1 0 14.56 0 a 7.28 7.28 0 1 0 -14.56 0 Z" fill="none" stroke="hsl(266 55% 38%)" stroke-width="1.6" stroke-linejoin="round"/><path d="M 361.66 428.94 a 7.28 7.28 0 1 0 14.56 0 a 7.28 7.28 0 1 0 -14.56 0 Z" fill="none" stroke="hsl(266 55% 38%)" stroke-width="1.6" stroke-linejoin="round"/><path d="M 346.89 441.07 a 7.28 7.28 0 1 0 14.56 0 a 7.28 7.28 0 1 0 -14.56 0 Z" fill="none" stroke="hsl(266 55% 38%)" stroke-width="1.6" stroke-linejoin="round"/><path d="M 330.03 450.08 a 7.28 7.28 0 1 0 14.56 0 a 7.28 7.28 0 1 0 -14.56 0 Z" fill="none" stroke="hsl(266 55% 38%)" stroke-width="1.6" stroke-linejoin="round"/><path d="M 311.74 455.63 a 7.28 7.28 0 1 0 14.56 0 a 7.28 7.28 0 1 0 -14.56 0 Z" fill="none" stroke="hsl(266 55% 38%)" stroke-width="1.6" stroke-linejoin="round"/><path d="M 292.72 457.5 a 7.28 7.28 0 1 0 14.56 0 a 7.28 7.28 0 1 0 -14.56 0 Z" fill="none" stroke="hsl(266 55% 38%)" stroke-width="1.6" stroke-linejoin="round"/><path d="M 273.7 455.63 a 7.28 7.28 0 1 0 14.56 0 a 7.28 7.28 0 1 0 -14.56 0 Z" fill="none" stroke="hsl(266 55% 38%)" stroke-width="1.6" stroke-linejoin="round"/><path d="M 255.41 450.08 a 7.28 7.28 0 1 0 14.56 0 a 7.28 7.28 0 1 0 -14.56 0 Z" fill="none" stroke="hsl(266 55% 38%)" stroke-width="1.6" stroke-linejoin="round"/><path d="M 238.55 441.07 a 7.28 7.28 0 1 0 14.56 0 a 7.28 7.28 0 1 0 -14.56 0 Z" fill="none" stroke="hsl(266 55% 38%)" stroke-width="1.6" stroke-linejoin="round"/><path d="M 223.78 428.94 a 7.28 7.28 0 1 0 14.56 0 a 7.28 7.28 0 1 0 -14.56 0 Z" fill="none" stroke="hsl(266 55% 38%)" stroke-width="1.6" stroke-linejoin="round"/><path d="M 211.65 414.17 a 7.28 7.28 0 1 0 14.56 0 a 7.28 7.28 0 1 0 -14.56 0 Z" fill="none" stroke="hsl(266 55% 38%)" stroke-width="1.6" stroke-linejoin="round"/><path d="M 202.64 397.31 a 7.28 7.28 0 1 0 14.56 0 a 7.28 7.28 0 1 0 -14.56 0 Z" fill="none" stroke="hsl(266 55% 38%)" stroke-width="1.6" stroke-linejoin="round"/><path d="M 197.09 379.02 a 7.28 7.28 0 1 0 14.56 0 a 7.28 7.28 0 1 0 -14.56 0 Z" fill="none" stroke="hsl(266 55% 38%)" stroke-width="1.6" stroke-linejoin="round"/><path d="M 195.22 360 a 7.28 7.28 0 1 0 14.56 0 a 7.28 7.28 0 1 0 -14.56 0 Z" fill="none" stroke="hsl(266 55% 38%)" stroke-width="1.6" stroke-linejoin="round"/><path d="M 197.09 340.98 a 7.28 7.28 0 1 0 14.56 0 a 7.28 7.28 0 1 0 -14.56 0 Z" fill="none" stroke="hsl(266 55% 38%)" stroke-width="1.6" stroke-linejoin="round"/><path d="M 202.64 322.69 a 7.28 7.28 0 1 0 14.56 0 a 7.28 7.28 0 1 0 -14.56 0 Z" fill="none" stroke="hsl(266 55% 38%)" stroke-width="1.6" stroke-linejoin="round"/><path d="M 211.65 305.83 a 7.28 7.28 0 1 0 14.56 0 a 7.28 7.28 0 1 0 -14.56 0 Z" fill="none" stroke="hsl(266 55% 38%)" stroke-width="1.6" stroke-linejoin="round"/><path d="M 223.78 291.06 a 7.28 7.28 0 1 0 14.56 0 a 7.28 7.28 0 1 0 -14.56 0 Z" fill="none" stroke="hsl(266 55% 38%)" stroke-width="1.6" stroke-linejoin="round"/><path d="M 238.55 278.93 a 7.28 7.28 0 1 0 14.56 0 a 7.28 7.28 0 1 0 -14.56 0 Z" fill="none" stroke="hsl(266 55% 38%)" stroke-width="1.6" stroke-linejoin="round"/><path d="M 255.41 269.92 a 7.28 7.28 0 1 0 14.56 0 a 7.28 7.28 0 1 0 -14.56 0 Z" fill="none" stroke="hsl(266 55% 38%)" stroke-width="1.6" stroke-linejoin="round"/><path d="M 273.7 264.37 a 7.28 7.28 0 1 0 14.56 0 a 7.28 7.28 0 1 0 -14.56 0 Z" fill="none" stroke="hsl(266 55% 38%)" stroke-width="1.6" stroke-linejoin="round"/><path d="M 292.72 262.5 a 7.28 7.28 0 1 0 14.56 0 a 7.28 7.28 0 1 0 -14.56 0 Z" fill="none" stroke="hsl(266 55% 38%)" stroke-width="1.6" stroke-linejoin="round"/><path d="M 311.74 264.37 a 7.28 7.28 0 1 0 14.56 0 a 7.28 7.28 0 1 0 -14.56 0 Z" fill="none" stroke="hsl(266 55% 38%)" stroke-width="1.6" stroke-linejoin="round"/><path d="M 330.03 269.92 a 7.28 7.28 0 1 0 14.56 0 a 7.28 7.28 0 1 0 -14.56 0 Z" fill="none" stroke="hsl(266 55% 38%)" stroke-width="1.6" stroke-linejoin="round"/><path d="M 346.89 278.93 a 7.28 7.28 0 1 0 14.56 0 a 7.28 7.28 0 1 0 -14.56 0 Z" fill="none" stroke="hsl(266 55% 38%)" stroke-width="1.6" stroke-linejoin="round"/><path d="M 361.66 291.06 a 7.28 7.28 0 1 0 14.56 0 a 7.28 7.28 0 1 0 -14.56 0 Z" fill="none" stroke="hsl(266 55% 38%)" stroke-width="1.6" stroke-linejoin="round"/><path d="M 373.79 305.83 a 7.28 7.28 0 1 0 14.56 0 a 7.28 7.28 0 1 0 -14.56 0 Z" fill="none" stroke="hsl(266 55% 38%)" stroke-width="1.6" stroke-linejoin="round"/><path d="M 382.8 322.69 a 7.28 7.28 0 1 0 14.56 0 a 7.28 7.28 0 1 0 -14.56 0 Z" fill="none" stroke="hsl(266 55% 38%)" stroke-width="1.6" stroke-linejoin="round"/><path d="M 388.35 340.98 a 7.28 7.28 0 1 0 14.56 0 a 7.28 7.28 0 1 0 -14.56 0 Z" fill="none" stroke="hsl(266 55% 38%)" stroke-width="1.6" stroke-linejoin="round"/><path d="M 170 360 a 130 130 0 1 0 260 0 a 130 130 0 1 0 -260 0 Z" fill="none" stroke="hsl(266 55% 38%)" stroke-width="1.6" stroke-linejoin="round"/><path d="M 427.5 385.36 L 445.35 388.91" fill="none" stroke="hsl(266 55% 38%)" stroke-width="1.6" stroke-linejoin="round"/><path d="M 408.09 432.22 L 423.22 442.34" fill="none" stroke="hsl(266 55% 38%)" stroke-width="1.6" stroke-linejoin="round"/><path d="M 372.22 468.09 L 382.34 483.22" fill="none" stroke="hsl(266 55% 38%)" stroke-width="1.6" stroke-linejoin="round"/><path d="M 325.36 487.5 L 328.91 505.35" fill="none" stroke="hsl(266 55% 38%)" stroke-width="1.6" stroke-linejoin="round"/><path d="M 274.64 487.5 L 271.09 505.35" fill="none" stroke="hsl(266 55% 38%)" stroke-width="1.6" stroke-linejoin="round"/><path d="M 227.78 468.09 L 217.66 483.22" fill="none" stroke="hsl(266 55% 38%)" stroke-width="1.6" stroke-linejoin="round"/><path d="M 191.91 432.22 L 176.78 442.34" fill="none" stroke="hsl(266 55% 38%)" stroke-width="1.6" stroke-linejoin="round"/><path d="M 172.5 385.36 L 154.65 388.91" fill="none" stroke="hsl(266 55% 38%)" stroke-width="1.6" stroke-linejoin="round"/><path d="M 172.5 334.64 L 154.65 331.09" fill="none" stroke="hsl(266 55% 38%)" stroke-width="1.6" stroke-linejoin="round"/><path d="M 191.91 287.78 L 176.78 277.66" fill="none" stroke="hsl(266 55% 38%)" stroke-width="1.6" stroke-linejoin="round"/><path d="M 227.78 251.91 L 217.66 236.78" fill="none" stroke="hsl(266 55% 38%)" stroke-width="1.6" stroke-linejoin="round"/><path d="M 274.64 232.5 L 271.09 214.65" fill="none" stroke="hsl(266 55% 38%)" stroke-width="1.6" stroke-linejoin="round"/><path d="M 325.36 232.5 L 328.91 214.65" fill="none" stroke="hsl(266 55% 38%)" stroke-width="1.6" stroke-linejoin="round"/><path d="M 372.22 251.91 L 382.34 236.78" fill="none" stroke="hsl(266 55% 38%)" stroke-width="1.6" stroke-linejoin="round"/><path d="M 408.09 287.78 L 423.22 277.66" fill="none" stroke="hsl(266 55% 38%)" stroke-width="1.6" stroke-linejoin="round"/><path d="M 427.5 334.64 L 445.35 331.09" fill="none" stroke="hsl(266 55% 38%)" stroke-width="1.6" stroke-linejoin="round"/><path d="M 137.5 360 a 162.5 162.5 0 1 0 325 0 a 162.5 162.5 0 1 0 -325 0 Z" fill="none" stroke="hsl(266 55% 38%)" stroke-width="1.6" stroke-linejoin="round"/><path d="M 462.5 360 Q 472.66 391.42 488.5 360 Q 472.66 328.58 462.5 360 Z" fill="none" stroke="hsl(266 55% 38%)" stroke-width="1.6" stroke-linejoin="round"/><path d="M 459.38 391.7 Q 463.22 424.5 484.88 396.77 Q 475.48 362.87 459.38 391.7 Z" fill="none" stroke="hsl(266 55% 38%)" stroke-width="1.6" stroke-linejoin="round"/><path d="M 450.13 422.19 Q 447.5 455.1 474.15 432.14 Q 471.55 397.05 450.13 422.19 Z" fill="none" stroke="hsl(266 55% 38%)" stroke-width="1.6" stroke-linejoin="round"/><path d="M 435.11 450.28 Q 426.11 482.05 456.73 464.72 Q 461.02 429.8 435.11 450.28 Z" fill="none" stroke="hsl(266 55% 38%)" stroke-width="1.6" stroke-linejoin="round"/><path d="M 414.9 474.9 Q 399.88 504.31 433.29 493.29 Q 444.31 459.88 414.9 474.9 Z" fill="none" stroke="hsl(266 55% 38%)" stroke-width="1.6" stroke-linejoin="round"/><path d="M 390.28 495.11 Q 369.8 521.02 404.72 516.73 Q 422.05 486.11 390.28 495.11 Z" fill="none" stroke="hsl(266 55% 38%)" stroke-width="1.6" stroke-linejoin="round"/><path d="M 362.19 510.13 Q 337.05 531.55 372.14 534.15 Q 395.1 507.5 362.19 510.13 Z" fill="none" stroke="hsl(266 55% 38%)" stroke-width="1.6" stroke-linejoin="round"/><path d="M 331.7 519.38 Q 302.87 535.48 336.77 544.88 Q 364.5 523.22 331.7 519.38 Z" fill="none" stroke="hsl(266 55% 38%)" stroke-width="1.6" stroke-linejoin="round"/><path d="M 300 522.5 Q 268.58 532.66 300 548.5 Q 331.42 532.66 300 522.5 Z" fill="none" stroke="hsl(266 55% 38%)" stroke-width="1.6" stroke-linejoin="round"/><path d="M 268.3 519.38 Q 235.5 523.22 263.23 544.88 Q 297.13 535.48 268.3 519.38 Z" fill="none" stroke="hsl(266 55% 38%)" stroke-width="1.6" stroke-linejoin="round"/><path d="M 237.81 510.13 Q 204.9 507.5 227.86 534.15 Q 262.95 531.55 237.81 510.13 Z" fill="none" stroke="hsl(266 55% 38%)" stroke-width="1.6" stroke-linejoin="round"/><path d="M 209.72 495.11 Q 177.95 486.11 195.28 516.73 Q 230.2 521.02 209.72 495.11 Z" fill="none" stroke="hsl(266 55% 38%)" stroke-width="1.6" stroke-linejoin="round"/><path d="M 185.1 474.9 Q 155.69 459.88 166.71 493.29 Q 200.12 504.31 185.1 474.9 Z" fill="none" stroke="hsl(266 55% 38%)" stroke-width="1.6" stroke-linejoin="round"/><path d="M 164.89 450.28 Q 138.98 429.8 143.27 464.72 Q 173.89 482.05 164.89 450.28 Z" fill="none" stroke="hsl(266 55% 38%)" stroke-width="1.6" stroke-linejoin="round"/><path d="M 149.87 422.19 Q 128.45 397.05 125.85 432.14 Q 152.5 455.1 149.87 422.19 Z" fill="none" stroke="hsl(266 55% 38%)" stroke-width="1.6" stroke-linejoin="round"/><path d="M 140.62 391.7 Q 124.52 362.87 115.12 396.77 Q 136.78 424.5 140.62 391.7 Z" fill="none" stroke="hsl(266 55% 38%)" stroke-width="1.6" stroke-linejoin="round"/><path d="M 137.5 360 Q 127.34 328.58 111.5 360 Q 127.34 391.42 137.5 360 Z" fill="none" stroke="hsl(266 55% 38%)" stroke-width="1.6" stroke-linejoin="round"/><path d="M 140.62 328.3 Q 136.78 295.5 115.12 323.23 Q 124.52 357.13 140.62 328.3 Z" fill="none" stroke="hsl(266 55% 38%)" stroke-width="1.6" stroke-linejoin="round"/><path d="M 149.87 297.81 Q 152.5 264.9 125.85 287.86 Q 128.45 322.95 149.87 297.81 Z" fill="none" stroke="hsl(266 55% 38%)" stroke-width="1.6" stroke-linejoin="round"/><path d="M 164.89 269.72 Q 173.89 237.95 143.27 255.28 Q 138.98 290.2 164.89 269.72 Z" fill="none" stroke="hsl(266 55% 38%)" stroke-width="1.6" stroke-linejoin="round"/><path d="M 185.1 245.1 Q 200.12 215.69 166.71 226.71 Q 155.69 260.12 185.1 245.1 Z" fill="none" stroke="hsl(266 55% 38%)" stroke-width="1.6" stroke-linejoin="round"/><path d="M 209.72 224.89 Q 230.2 198.98 195.28 203.27 Q 177.95 233.89 209.72 224.89 Z" fill="none" stroke="hsl(266 55% 38%)" stroke-width="1.6" stroke-linejoin="round"/><path d="M 237.81 209.87 Q 262.95 188.45 227.86 185.85 Q 204.9 212.5 237.81 209.87 Z" fill="none" stroke="hsl(266 55% 38%)" stroke-width="1.6" stroke-linejoin="round"/><path d="M 268.3 200.62 Q 297.13 184.52 263.23 175.12 Q 235.5 196.78 268.3 200.62 Z" fill="none" stroke="hsl(266 55% 38%)" stroke-width="1.6" stroke-linejoin="round"/><path d="M 300 197.5 Q 331.42 187.34 300 171.5 Q 268.58 187.34 300 197.5 Z" fill="none" stroke="hsl(266 55% 38%)" stroke-width="1.6" stroke-linejoin="round"/><path d="M 331.7 200.62 Q 364.5 196.78 336.77 175.12 Q 302.87 184.52 331.7 200.62 Z" fill="none" stroke="hsl(266 55% 38%)" stroke-width="1.6" stroke-linejoin="round"/><path d="M 362.19 209.87 Q 395.1 212.5 372.14 185.85 Q 337.05 188.45 362.19 209.87 Z" fill="none" stroke="hsl(266 55% 38%)" stroke-width="1.6" stroke-linejoin="round"/><path d="M 390.28 224.89 Q 422.05 233.89 404.72 203.27 Q 369.8 198.98 390.28 224.89 Z" fill="none" stroke="hsl(266 55% 38%)" stroke-width="1.6" stroke-linejoin="round"/><path d="M 414.9 245.1 Q 444.31 260.12 433.29 226.71 Q 399.88 215.69 414.9 245.1 Z" fill="none" stroke="hsl(266 55% 38%)" stroke-width="1.6" stroke-linejoin="round"/><path d="M 435.11 269.72 Q 461.02 290.2 456.73 255.28 Q 426.11 237.95 435.11 269.72 Z" fill="none" stroke="hsl(266 55% 38%)" stroke-width="1.6" stroke-linejoin="round"/><path d="M 450.13 297.81 Q 471.55 322.95 474.15 287.86 Q 447.5 264.9 450.13 297.81 Z" fill="none" stroke="hsl(266 55% 38%)" stroke-width="1.6" stroke-linejoin="round"/><path d="M 459.38 328.3 Q 475.48 357.13 484.88 323.23 Q 463.22 295.5 459.38 328.3 Z" fill="none" stroke="hsl(266 55% 38%)" stroke-width="1.6" stroke-linejoin="round"/><path d="M 105 360 a 195 195 0 1 0 390 0 a 195 195 0 1 0 -390 0 Z" fill="none" stroke="hsl(266 55% 38%)" stroke-width="1.6" stroke-linejoin="round"/><path d="M 483.97 398.04 a 7.28 7.28 0 1 0 14.56 0 a 7.28 7.28 0 1 0 -14.56 0 Z" fill="none" stroke="hsl(266 55% 38%)" stroke-width="1.6" stroke-linejoin="round"/><path d="M 454.86 468.34 a 7.28 7.28 0 1 0 14.56 0 a 7.28 7.28 0 1 0 -14.56 0 Z" fill="none" stroke="hsl(266 55% 38%)" stroke-width="1.6" stroke-linejoin="round"/><path d="M 401.06 522.14 a 7.28 7.28 0 1 0 14.56 0 a 7.28 7.28 0 1 0 -14.56 0 Z" fill="none" stroke="hsl(266 55% 38%)" stroke-width="1.6" stroke-linejoin="round"/><path d="M 330.76 551.25 a 7.28 7.28 0 1 0 14.56 0 a 7.28 7.28 0 1 0 -14.56 0 Z" fill="none" stroke="hsl(266 55% 38%)" stroke-width="1.6" stroke-linejoin="round"/><path d="M 254.68 551.25 a 7.28 7.28 0 1 0 14.56 0 a 7.28 7.28 0 1 0 -14.56 0 Z" fill="none" stroke="hsl(266 55% 38%)" stroke-width="1.6" stroke-linejoin="round"/><path d="M 184.38 522.14 a 7.28 7.28 0 1 0 14.56 0 a 7.28 7.28 0 1 0 -14.56 0 Z" fill="none" stroke="hsl(266 55% 38%)" stroke-width="1.6" stroke-linejoin="round"/><path d="M 130.58 468.34 a 7.28 7.28 0 1 0 14.56 0 a 7.28 7.28 0 1 0 -14.56 0 Z" fill="none" stroke="hsl(266 55% 38%)" stroke-width="1.6" stroke-linejoin="round"/><path d="M 101.47 398.04 a 7.28 7.28 0 1 0 14.56 0 a 7.28 7.28 0 1 0 -14.56 0 Z" fill="none" stroke="hsl(266 55% 38%)" stroke-width="1.6" stroke-linejoin="round"/><path d="M 101.47 321.96 a 7.28 7.28 0 1 0 14.56 0 a 7.28 7.28 0 1 0 -14.56 0 Z" fill="none" stroke="hsl(266 55% 38%)" stroke-width="1.6" stroke-linejoin="round"/><path d="M 130.58 251.66 a 7.28 7.28 0 1 0 14.56 0 a 7.28 7.28 0 1 0 -14.56 0 Z" fill="none" stroke="hsl(266 55% 38%)" stroke-width="1.6" stroke-linejoin="round"/><path d="M 184.38 197.86 a 7.28 7.28 0 1 0 14.56 0 a 7.28 7.28 0 1 0 -14.56 0 Z" fill="none" stroke="hsl(266 55% 38%)" stroke-width="1.6" stroke-linejoin="round"/><path d="M 254.68 168.75 a 7.28 7.28 0 1 0 14.56 0 a 7.28 7.28 0 1 0 -14.56 0 Z" fill="none" stroke="hsl(266 55% 38%)" stroke-width="1.6" stroke-linejoin="round"/><path d="M 330.76 168.75 a 7.28 7.28 0 1 0 14.56 0 a 7.28 7.28 0 1 0 -14.56 0 Z" fill="none" stroke="hsl(266 55% 38%)" stroke-width="1.6" stroke-linejoin="round"/><path d="M 401.06 197.86 a 7.28 7.28 0 1 0 14.56 0 a 7.28 7.28 0 1 0 -14.56 0 Z" fill="none" stroke="hsl(266 55% 38%)" stroke-width="1.6" stroke-linejoin="round"/><path d="M 454.86 251.66 a 7.28 7.28 0 1 0 14.56 0 a 7.28 7.28 0 1 0 -14.56 0 Z" fill="none" stroke="hsl(266 55% 38%)" stroke-width="1.6" stroke-linejoin="round"/><path d="M 483.97 321.96 a 7.28 7.28 0 1 0 14.56 0 a 7.28 7.28 0 1 0 -14.56 0 Z" fill="none" stroke="hsl(266 55% 38%)" stroke-width="1.6" stroke-linejoin="round"/><path d="M 105 360 a 195 195 0 1 0 390 0 a 195 195 0 1 0 -390 0 Z" fill="none" stroke="hsl(266 55% 38%)" stroke-width="1.6" stroke-linejoin="round"/></g>
  <g transform="translate(300,640)">
    <rect x="-110" y="-26" width="220" height="34" rx="17" fill="#ffffff" opacity="0.8"/>
    <text x="0" y="-3" text-anchor="middle" font-family="Quicksand, Arial, sans-serif" font-size="16" font-weight="600" fill="hsl(266 55% 38%)">⚙️ Vintage &amp; Steampunk</text>
  </g>
  <text x="300" y="700" text-anchor="middle" font-family="Quicksand, Arial, sans-serif" font-size="40" font-weight="700" fill="#2b2540"><tspan x="300" dy="0">Vintage &amp;</tspan><tspan x="300" dy="44">Steampunk – Vol. 2</tspan></text>
  <text x="300" y="772" text-anchor="middle" font-family="Arial, sans-serif" font-size="15" fill="#5b5470">Malbuch · 40 Seiten</text>
</svg>