<svg xmlns="http://www.w3.org/2000/svg" viewBox="0 0 600 800" width="600" height="800">
  <defs>
    <linearGradient id="bg" x1="0" y1="0" x2="0" y2="1">
      <stop offset="0" stop-color="hsl(266 70% 95%)"/><stop offset="1" stop-color="hsl(306 70% 92%)"/>
    </linearGradient>
  </defs>
  <rect width="600" height="800" fill="url(#bg)"/>
  <rect x="22" y="22" width="556" height="756" rx="28" fill="none" stroke="hsl(266 55% 38%)" stroke-width="2" opacity="0.5"/>
  <text x="300" y="74" text-anchor="middle" font-family="Quicksand, Arial, sans-serif" font-size="26" font-weight="700" fill="hsl(266 55% 38%)">&#10022; Coloreo</text>
  <g transform="translate(0,40)"><path d="M 323.4 360 Q 335.17 372.84 349.14 360 Q 335.17 347.16 323.4 360 Z" fill="none" stroke="hsl(266 55% 38%)" stroke-width="1.6" stroke-linejoin="round"/><path d="M 321.62 368.95 Q 327.58 385.32 345.4 378.81 Q 337.41 361.6 321.62 368.95 Z" fill="none" stroke="hsl(266 55% 38%)" stroke-width="1.6" stroke-linejoin="round"/><path d="M 316.55 376.55 Q 315.79 393.95 334.75 394.75 Q 333.95 375.79 316.55 376.55 Z" fill="none" stroke="hsl(266 55% 38%)" stroke-width="1.6" stroke-linejoin="round"/><path d="M 308.95 381.62 Q 301.6 397.41 318.81 405.4 Q 325.32 387.58 308.95 381.62 Z" fill="none" stroke="hsl(266 55% 38%)" stroke-width="1.6" stroke-linejoin="round"/><path d="M 300 383.4 Q 287.16 395.17 300 409.14 Q 312.84 395.17 300 383.4 Z" fill="none" stroke="hsl(266 55% 38%)" stroke-width="1.6" stroke-linejoin="round"/><path d="M 291.05 381.62 Q 274.68 387.58 281.19 405.4 Q 298.4 397.41 291.05 381.62 Z" fill="none" stroke="hsl(266 55% 38%)" stroke-width="1.6" stroke-linejoin="round"/><path d="M 283.45 376.55 Q 266.05 375.79 265.25 394.75 Q 284.21 393.95 283.45 376.55 Z" fill="none" stroke="hsl(266 55% 38%)" stroke-width="1.6" stroke-linejoin="round"/><path d="M 278.38 368.95 Q 262.59 361.6 254.6 378.81 Q 272.42 385.32 278.38 368.95 Z" fill="none" stroke="hsl(266 55% 38%)" stroke-width="1.6" stroke-linejoin="round"/><path d="M 276.6 360 Q 264.83 347.16 250.86 360 Q 264.83 372.84 276.6 360 Z" fill="none" stroke="hsl(266 55% 38%)" stroke-width="1.6" stroke-linejoin="round"/><path d="M 278.38 351.05 Q 272.42 334.68 254.6 341.19 Q 262.59 358.4 278.38 351.05 Z" fill="none" stroke="hsl(266 55% 38%)" stroke-width="1.6" stroke-linejoin="round"/><path d="M 283.45 343.45 Q 284.21 326.05 265.25 325.25 Q 266.05 344.21 283.45 343.45 Z" fill="none" stroke="hsl(266 55% 38%)" stroke-width="1.6" stroke-linejoin="round"/><path d="M 291.05 338.38 Q 298.4 322.59 281.19 314.6 Q 274.68 332.42 291.05 338.38 Z" fill="none" stroke="hsl(266 55% 38%)" stroke-width="1.6" stroke-linejoin="round"/><path d="M 300 336.6 Q 312.84 324.83 300 310.86 Q 287.16 324.83 300 336.6 Z" fill="none" stroke="hsl(266 55% 38%)" stroke-width="1.6" stroke-linejoin="round"/><path d="M 308.95 338.38 Q 325.32 332.42 318.81 314.6 Q 301.6 322.59 308.95 338.38 Z" fill="none" stroke="hsl(266 55% 38%)" stroke-width="1.6" stroke-linejoin="round"/><path d="M 316.55 343.45 Q 333.95 344.21 334.75 325.25 Q 315.79 326.05 316.55 343.45 Z" fill="none" stroke="hsl(266 55% 38%)" stroke-width="1.6" stroke-linejoin="round"/><path d="M 321.62 351.05 Q 337.41 358.4 345.4 341.19 Q 327.58 334.68 321.62 351.05 Z" fill="none" stroke="hsl(266 55% 38%)" stroke-width="1.6" stroke-linejoin="round"/><path d="M 300 345.96 C 307.75 345.96 314.04 352.25 314.04 360 C 314.04 367.75 307.75 374.04 300 374.04 C 292.25 374.04 285.96 367.75 285.96 360 C 285.96 352.25 292.25 345.96 300 345.96 Z" fill="none" stroke="hsl(266 55% 38%)" stroke-width="1.6" stroke-linejoin="round"/><path d="M 300 295 C 335.9 295 365 324.1 365 360 C 365 395.9 335.9 425 300 425 C 264.1 425 235 395.9 235 360 C 235 324.1 264.1 295 300 295 Z" fill="none" stroke="hsl(266 55% 38%)" stroke-width="1.6" stroke-linejoin="round"/><path d="M 363.75 372.68 L 381.6 376.23" fill="none" stroke="hsl(266 55% 38%)" stroke-width="1.6" stroke-linejoin="round"/><path d="M 354.05 396.11 L 369.18 406.22" fill="none" stroke="hsl(266 55% 38%)" stroke-width="1.6" stroke-linejoin="round"/><path d="M 336.11 414.05 L 346.22 429.18" fill="none" stroke="hsl(266 55% 38%)" stroke-width="1.6" stroke-linejoin="round"/><path d="M 312.68 423.75 L 316.23 441.6" fill="none" stroke="hsl(266 55% 38%)" stroke-width="1.6" stroke-linejoin="round"/><path d="M 287.32 423.75 L 283.77 441.6" fill="none" stroke="hsl(266 55% 38%)" stroke-width="1.6" stroke-linejoin="round"/><path d="M 263.89 414.05 L 253.78 429.18" fill="none" stroke="hsl(266 55% 38%)" stroke-width="1.6" stroke-linejoin="round"/><path d="M 245.95 396.11 L 230.82 406.22" fill="none" stroke="hsl(266 55% 38%)" stroke-width="1.6" stroke-linejoin="round"/><path d="M 236.25 372.68 L 218.4 376.23" fill="none" stroke="hsl(266 55% 38%)" stroke-width="1.6" stroke-linejoin="round"/><path d="M 236.25 347.32 L 218.4 343.77" fill="none" stroke="hsl(266 55% 38%)" stroke-width="1.6" stroke-linejoin="round"/><path d="M 245.95 323.89 L 230.82 313.78" fill="none" stroke="hsl(266 55% 38%)" stroke-width="1.6" stroke-linejoin="round"/><path d="M 263.89 305.95 L 253.78 290.82" fill="none" stroke="hsl(266 55% 38%)" stroke-width="1.6" stroke-linejoin="round"/><path d="M 287.32 296.25 L 283.77 278.4" fill="none" stroke="hsl(266 55% 38%)" stroke-width="1.6" stroke-linejoin="round"/><path d="M 312.68 296.25 L 316.23 278.4" fill="none" stroke="hsl(266 55% 38%)" stroke-width="1.6" stroke-linejoin="round"/><path d="M 336.11 305.95 L 346.22 290.82" fill="none" stroke="hsl(266 55% 38%)" stroke-width="1.6" stroke-linejoin="round"/><path d="M 354.05 323.89 L 369.18 313.78" fill="none" stroke="hsl(266 55% 38%)" stroke-width="1.6" stroke-linejoin="round"/><path d="M 363.75 347.32 L 381.6 343.77" fill="none" stroke="hsl(266 55% 38%)" stroke-width="1.6" stroke-linejoin="round"/><path d="M 300 262.5 C 353.85 262.5 397.5 306.15 397.5 360 C 397.5 413.85 353.85 457.5 300 457.5 C 246.15 457.5 202.5 413.85 202.5 360 C 202.5 306.15 246.15 262.5 300 262.5 Z" fill="none" stroke="hsl(266 55% 38%)" stroke-width="1.6" stroke-linejoin="round"/><path d="M 397.5 352.72 C 401.52 352.72 404.78 355.98 404.78 360 C 404.78 364.02 401.52 367.28 397.5 367.28 C 393.48 367.28 390.22 364.02 390.22 360 C 390.22 355.98 393.48 352.72 397.5 352.72 Z" fill="none" stroke="hsl(266 55% 38%)" stroke-width="1.6" stroke-linejoin="round"/><path d="M 395.63 371.74 C 399.65 371.74 402.91 375 402.91 379.02 C 402.91 383.04 399.65 386.3 395.63 386.3 C 391.61 386.3 388.35 383.04 388.35 379.02 C 388.35 375 391.61 371.74 395.63 371.74 Z" fill="none" stroke="hsl(266 55% 38%)" stroke-width="1.6" stroke-linejoin="round"/><path d="M 390.08 390.03 C 394.1 390.03 397.36 393.29 397.36 397.31 C 397.36 401.33 394.1 404.59 390.08 404.59 C 386.06 404.59 382.8 401.33 382.8 397.31 C 382.8 393.29 386.06 390.03 390.08 390.03 Z" fill="none" stroke="hsl(266 55% 38%)" stroke-width="1.6" stroke-linejoin="round"/><path d="M 381.07 406.89 C 385.09 406.89 388.35 410.15 388.35 414.17 C 388.35 418.19 385.09 421.45 381.07 421.45 C 377.05 421.45 373.79 418.19 373.79 414.17 C 373.79 410.15 377.05 406.89 381.07 406.89 Z" fill="none" stroke="hsl(266 55% 38%)" stroke-width="1.6" stroke-linejoin="round"/><path d="M 368.94 421.66 C 372.96 421.66 376.22 424.92 376.22 428.94 C 376.22 432.96 372.96 436.22 368.94 436.22 C 364.92 436.22 361.66 432.96 361.66 428.94 C 361.66 424.92 364.92 421.66 368.94 421.66 Z" fill="none" stroke="hsl(266 55% 38%)" stroke-width="1.6" stroke-linejoin="round"/><path d="M 354.17 433.79 C 358.19 433.79 361.45 437.05 361.45 441.07 C 361.45 445.09 358.19 448.35 354.17 448.35 C 350.15 448.35 346.89 445.09 346.89 441.07 C 346.89 437.05 350.15 433.79 354.17 433.79 Z" fill="none" stroke="hsl(266 55% 38%)" stroke-width="1.6" stroke-linejoin="round"/><path d="M 337.31 442.8 C 341.33 442.8 344.59 446.06 344.59 450.08 C 344.59 454.1 341.33 457.36 337.31 457.36 C 333.29 457.36 330.03 454.1 330.03 450.08 C 330.03 446.06 333.29 442.8 337.31 442.8 Z" fill="none" stroke="hsl(266 55% 38%)" stroke-width="1.6" stroke-linejoin="round"/><path d="M 319.02 448.35 C 323.04 448.35 326.3 451.61 326.3 455.63 C 326.3 459.65 323.04 462.91 319.02 462.91 C 315 462.91 311.74 459.65 311.74 455.63 C 311.74 451.61 315 448.35 319.02 448.35 Z" fill="none" stroke="hsl(266 55% 38%)" stroke-width="1.6" stroke-linejoin="round"/><path d="M 300 450.22 C 304.02 450.22 307.28 453.48 307.28 457.5 C 307.28 461.52 304.02 464.78 300 464.78 C 295.98 464.78 292.72 461.52 292.72 457.5 C 292.72 453.48 295.98 450.22 300 450.22 Z" fill="none" stroke="hsl(266 55% 38%)" stroke-width="1.6" stroke-linejoin="round"/><path d="M 280.98 448.35 C 285 448.35 288.26 451.61 288.26 455.63 C 288.26 459.65 285 462.91 280.98 462.91 C 276.96 462.91 273.7 459.65 273.7 455.63 C 273.7 451.61 276.96 448.35 280.98 448.35 Z" fill="none" stroke="hsl(266 55% 38%)" stroke-width="1.6" stroke-linejoin="round"/><path d="M 262.69 442.8 C 266.71 442.8 269.97 446.06 269.97 450.08 C 269.97 454.1 266.71 457.36 262.69 457.36 C 258.67 457.36 255.41 454.1 255.41 450.08 C 255.41 446.06 258.67 442.8 262.69 442.8 Z" fill="none" stroke="hsl(266 55% 38%)" stroke-width="1.6" stroke-linejoin="round"/><path d="M 245.83 433.79 C 249.85 433.79 253.11 437.05 253.11 441.07 C 253.11 445.09 249.85 448.35 245.83 448.35 C 241.81 448.35 238.55 445.09 238.55 441.07 C 238.55 437.05 241.81 433.79 245.83 433.79 Z" fill="none" stroke="hsl(266 55% 38%)" stroke-width="1.6" stroke-linejoin="round"/><path d="M 231.06 421.66 C 235.08 421.66 238.34 424.92 238.34 428.94 C 238.34 432.96 235.08 436.22 231.06 436.22 C 227.04 436.22 223.78 432.96 223.78 428.94 C 223.78 424.92 227.04 421.66 231.06 421.66 Z" fill="none" stroke="hsl(266 55% 38%)" stroke-width="1.6" stroke-linejoin="round"/><path d="M 218.93 406.89 C 222.95 406.89 226.21 410.15 226.21 414.17 C 226.21 418.19 222.95 421.45 218.93 421.45 C 214.91 421.45 211.65 418.19 211.65 414.17 C 211.65 410.15 214.91 406.89 218.93 406.89 Z" fill="none" stroke="hsl(266 55% 38%)" stroke-width="1.6" stroke-linejoin="round"/><path d="M 209.92 390.03 C 213.94 390.03 217.2 393.29 217.2 397.31 C 217.2 401.33 213.94 404.59 209.92 404.59 C 205.9 404.59 202.64 401.33 202.64 397.31 C 202.64 393.29 205.9 390.03 209.92 390.03 Z" fill="none" stroke="hsl(266 55% 38%)" stroke-width="1.6" stroke-linejoin="round"/><path d="M 204.37 371.74 C 208.39 371.74 211.65 375 211.65 379.02 C 211.65 383.04 208.39 386.3 204.37 386.3 C 200.35 386.3 197.09 383.04 197.09 379.02 C 197.09 375 200.35 371.74 204.37 371.74 Z" fill="none" stroke="hsl(266 55% 38%)" stroke-width="1.6" stroke-linejoin="round"/><path d="M 202.5 352.72 C 206.52 352.72 209.78 355.98 209.78 360 C 209.78 364.02 206.52 367.28 202.5 367.28 C 198.48 367.28 195.22 364.02 195.22 360 C 195.22 355.98 198.48 352.72 202.5 352.72 Z" fill="none" stroke="hsl(266 55% 38%)" stroke-width="1.6" stroke-linejoin="round"/><path d="M 204.37 333.7 C 208.39 333.7 211.65 336.96 211.65 340.98 C 211.65 345 208.39 348.26 204.37 348.26 C 200.35 348.26 197.09 345 197.09 340.98 C 197.09 336.96 200.35 333.7 204.37 333.7 Z" fill="none" stroke="hsl(266 55% 38%)" stroke-width="1.6" stroke-linejoin="round"/><path d="M 209.92 315.41 C 213.94 315.41 217.2 318.67 217.2 322.69 C 217.2 326.71 213.94 329.97 209.92 329.97 C 205.9 329.97 202.64 326.71 202.64 322.69 C 202.64 318.67 205.9 315.41 209.92 315.41 Z" fill="none" stroke="hsl(266 55% 38%)" stroke-width="1.6" stroke-linejoin="round"/><path d="M 218.93 298.55 C 222.95 298.55 226.21 301.81 226.21 305.83 C 226.21 309.85 222.95 313.11 218.93 313.11 C 214.91 313.11 211.65 309.85 211.65 305.83 C 211.65 301.81 214.91 298.55 218.93 298.55 Z" fill="none" stroke="hsl(266 55% 38%)" stroke-width="1.6" stroke-linejoin="round"/><path d="M 231.06 283.78 C 235.08 283.78 238.34 287.04 238.34 291.06 C 238.34 295.08 235.08 298.34 231.06 298.34 C 227.04 298.34 223.78 295.08 223.78 291.06 C 223.78 287.04 227.04 283.78 231.06 283.78 Z" fill="none" stroke="hsl(266 55% 38%)" stroke-width="1.6" stroke-linejoin="round"/><path d="M 245.83 271.65 C 249.85 271.65 253.11 274.91 253.11 278.93 C 253.11 282.95 249.85 286.21 245.83 286.21 C 241.81 286.21 238.55 282.95 238.55 278.93 C 238.55 274.91 241.81 271.65 245.83 271.65 Z" fill="none" stroke="hsl(266 55% 38%)" stroke-width="1.6" stroke-linejoin="round"/><path d="M 262.69 262.64 C 266.71 262.64 269.97 265.9 269.97 269.92 C 269.97 273.94 266.71 277.2 262.69 277.2 C 258.67 277.2 255.41 273.94 255.41 269.92 C 255.41 265.9 258.67 262.64 262.69 262.64 Z" fill="none" stroke="hsl(266 55% 38%)" stroke-width="1.6" stroke-linejoin="round"/><path d="M 280.98 257.09 C 285 257.09 288.26 260.35 288.26 264.37 C 288.26 268.39 285 271.65 280.98 271.65 C 276.96 271.65 273.7 268.39 273.7 264.37 C 273.7 260.35 276.96 257.09 280.98 257.09 Z" fill="none" stroke="hsl(266 55% 38%)" stroke-width="1.6" stroke-linejoin="round"/><path d="M 300 255.22 C 304.02 255.22 307.28 258.48 307.28 262.5 C 307.28 266.52 304.02 269.78 300 269.78 C 295.98 269.78 292.72 266.52 292.72 262.5 C 292.72 258.48 295.98 255.22 300 255.22 Z" fill="none" stroke="hsl(266 55% 38%)" stroke-width="1.6" stroke-linejoin="round"/><path d="M 319.02 257.09 C 323.04 257.09 326.3 260.35 326.3 264.37 C 326.3 268.39 323.04 271.65 319.02 271.65 C 315 271.65 311.74 268.39 311.74 264.37 C 311.74 260.35 315 257.09 319.02 257.09 Z" fill="none" stroke="hsl(266 55% 38%)" stroke-width="1.6" stroke-linejoin="round"/><path d="M 337.31 262.64 C 341.33 262.64 344.59 265.9 344.59 269.92 C 344.59 273.94 341.33 277.2 337.31 277.2 C 333.29 277.2 330.03 273.94 330.03 269.92 C 330.03 265.9 333.29 262.64 337.31 262.64 Z" fill="none" stroke="hsl(266 55% 38%)" stroke-width="1.6" stroke-linejoin="round"/><path d="M 354.17 271.65 C 358.19 271.65 361.45 274.91 361.45 278.93 C 361.45 282.95 358.19 286.21 354.17 286.21 C 350.15 286.21 346.89 282.95 346.89 278.93 C 346.89 274.91 350.15 271.65 354.17 271.65 Z" fill="none" stroke="hsl(266 55% 38%)" stroke-width="1.6" stroke-linejoin="round"/><path d="M 368.94 283.78 C 372.96 283.78 376.22 287.04 376.22 291.06 C 376.22 295.08 372.96 298.34 368.94 298.34 C 364.92 298.34 361.66 295.08 361.66 291.06 C 361.66 287.04 364.92 283.78 368.94 283.78 Z" fill="none" stroke="hsl(266 55% 38%)" stroke-width="1.6" stroke-linejoin="round"/><path d="M 381.07 298.55 C 385.09 298.55 388.35 301.81 388.35 305.83 C 388.35 309.85 385.09 313.11 381.07 313.11 C 377.05 313.11 373.79 309.85 373.79 305.83 C 373.79 301.81 377.05 298.55 381.07 298.55 Z" fill="none" stroke="hsl(266 55% 38%)" stroke-width="1.6" stroke-linejoin="round"/><path d="M 390.08 315.41 C 394.1 315.41 397.36 318.67 397.36 322.69 C 397.36 326.71 394.1 329.97 390.08 329.97 C 386.06 329.97 382.8 326.71 382.8 322.69 C 382.8 318.67 386.06 315.41 390.08 315.41 Z" fill="none" stroke="hsl(266 55% 38%)" stroke-width="1.6" stroke-linejoin="round"/><path d="M 395.63 333.7 C 399.65 333.7 402.91 336.96 402.91 340.98 C 402.91 345 399.65 348.26 395.63 348.26 C 391.61 348.26 388.35 345 388.35 340.98 C 388.35 336.96 391.61 333.7 395.63 333.7 Z" fill="none" stroke="hsl(266 55% 38%)" stroke-width="1.6" stroke-linejoin="round"/><path d="M 300 230 C 371.8 230 430 288.2 430 360 C 430 431.8 371.8 490 300 490 C 228.2 490 170 431.8 170 360 C 170 288.2 228.2 230 300 230 Z" fill="none" stroke="hsl(266 55% 38%)" stroke-width="1.6" stroke-linejoin="round"/><path d="M 427.5 385.36 L 445.35 388.91" fill="none" stroke="hsl(266 55% 38%)" stroke-width="1.6" stroke-linejoin="round"/><path d="M 408.09 432.22 L 423.22 442.34" fill="none" stroke="hsl(266 55% 38%)" stroke-width="1.6" stroke-linejoin="round"/><path d="M 372.22 468.09 L 382.34 483.22" fill="none" stroke="hsl(266 55% 38%)" stroke-width="1.6" stroke-linejoin="round"/><path d="M 325.36 487.5 L 328.91 505.35" fill="none" stroke="hsl(266 55% 38%)" stroke-width="1.6" stroke-linejoin="round"/><path d="M 274.64 487.5 L 271.09 505.35" fill="none" stroke="hsl(266 55% 38%)" stroke-width="1.6" stroke-linejoin="round"/><path d="M 227.78 468.09 L 217.66 483.22" fill="none" stroke="hsl(266 55% 38%)" stroke-width="1.6" stroke-linejoin="round"/><path d="M 191.91 432.22 L 176.78 442.34" fill="none" stroke="hsl(266 55% 38%)" stroke-width="1.6" stroke-linejoin="round"/><path d="M 172.5 385.36 L 154.65 388.91" fill="none" stroke="hsl(266 55% 38%)" stroke-width="1.6" stroke-linejoin="round"/><path d="M 172.5 334.64 L 154.65 331.09" fill="none" stroke="hsl(266 55% 38%)" stroke-width="1.6" stroke-linejoin="round"/><path d="M 191.91 287.78 L 176.78 277.66" fill="none" stroke="hsl(266 55% 38%)" stroke-width="1.6" stroke-linejoin="round"/><path d="M 227.78 251.91 L 217.66 236.78" fill="none" stroke="hsl(266 55% 38%)" stroke-width="1.6" stroke-linejoin="round"/><path d="M 274.64 232.5 L 271.09 214.65" fill="none" stroke="hsl(266 55% 38%)" stroke-width="1.6" stroke-linejoin="round"/><path d="M 325.36 232.5 L 328.91 214.65" fill="none" stroke="hsl(266 55% 38%)" stroke-width="1.6" stroke-linejoin="round"/><path d="M 372.22 251.91 L 382.34 236.78" fill="none" stroke="hsl(266 55% 38%)" stroke-width="1.6" stroke-linejoin="round"/><path d="M 408.09 287.78 L 423.22 277.66" fill="none" stroke="hsl(266 55% 38%)" stroke-width="1.6" stroke-linejoin="round"/><path d="M 427.5 334.64 L 445.35 331.09" fill="none" stroke="hsl(266 55% 38%)" stroke-width="1.6" stroke-linejoin="round"/><path d="M 300 197.5 C 389.75 197.5 462.5 270.25 462.5 360 C 462.5 449.75 389.75 522.5 300 522.5 C 210.25 522.5 137.5 449.75 137.5 360 C 137.5 270.25 210.25 197.5 300 197.5 Z" fill="none" stroke="hsl(266 55% 38%)" stroke-width="1.6" stroke-linejoin="round"/><path d="M 462.5 360 Q 472.66 391.42 488.5 360 Q 472.66 328.58 462.5 360 Z" fill="none" stroke="hsl(266 55% 38%)" stroke-width="1.6" stroke-linejoin="round"/><path d="M 459.38 391.7 Q 463.22 424.5 484.88 396.77 Q 475.48 362.87 459.38 391.7 Z" fill="none" stroke="hsl(266 55% 38%)" stroke-width="1.6" stroke-linejoin="round"/><path d="M 450.13 422.19 Q 447.5 455.1 474.15 432.14 Q 471.55 397.05 450.13 422.19 Z" fill="none" stroke="hsl(266 55% 38%)" stroke-width="1.6" stroke-linejoin="round"/><path d="M 435.11 450.28 Q 426.11 482.05 456.73 464.72 Q 461.02 429.8 435.11 450.28 Z" fill="none" stroke="hsl(266 55% 38%)" stroke-width="1.6" stroke-linejoin="round"/><path d="M 414.9 474.9 Q 399.88 504.31 433.29 493.29 Q 444.31 459.88 414.9 474.9 Z" fill="none" stroke="hsl(266 55% 38%)" stroke-width="1.6" stroke-linejoin="round"/><path d="M 390.28 495.11 Q 369.8 521.02 404.72 516.73 Q 422.05 486.11 390.28 495.11 Z" fill="none" stroke="hsl(266 55% 38%)" stroke-width="1.6" stroke-linejoin="round"/><path d="M 362.19 510.13 Q 337.05 531.55 372.14 534.15 Q 395.1 507.5 362.19 510.13 Z" fill="none" stroke="hsl(266 55% 38%)" stroke-width="1.6" stroke-linejoin="round"/><path d="M 331.7 519.38 Q 302.87 535.48 336.77 544.88 Q 364.5 523.22 331.7 519.38 Z" fill="none" stroke="hsl(266 55% 38%)" stroke-width="1.6" stroke-linejoin="round"/><path d="M 300 522.5 Q 268.58 532.66 300 548.5 Q 331.42 532.66 300 522.5 Z" fill="none" stroke="hsl(266 55% 38%)" stroke-width="1.6" stroke-linejoin="round"/><path d="M 268.3 519.38 Q 235.5 523.22 263.23 544.88 Q 297.13 535.48 268.3 519.38 Z" fill="none" stroke="hsl(266 55% 38%)" stroke-width="1.6" stroke-linejoin="round"/><path d="M 237.81 510.13 Q 204.9 507.5 227.86 534.15 Q 262.95 531.55 237.81 510.13 Z" fill="none" stroke="hsl(266 55% 38%)" stroke-width="1.6" stroke-linejoin="round"/><path d="M 209.72 495.11 Q 177.95 486.11 195.28 516.73 Q 230.2 521.02 209.72 495.11 Z" fill="none" stroke="hsl(266 55% 38%)" stroke-width="1.6" stroke-linejoin="round"/><path d="M 185.1 474.9 Q 155.69 459.88 166.71 493.29 Q 200.12 504.31 185.1 474.9 Z" fill="none" stroke="hsl(266 55% 38%)" stroke-width="1.6" stroke-linejoin="round"/><path d="M 164.89 450.28 Q 138.98 429.8 143.27 464.72 Q 173.89 482.05 164.89 450.28 Z" fill="none" stroke="hsl(266 55% 38%)" stroke-width="1.6" stroke-linejoin="round"/><path d="M 149.87 422.19 Q 128.45 397.05 125.85 432.14 Q 152.5 455.1 149.87 422.19 Z" fill="none" stroke="hsl(266 55% 38%)" stroke-width="1.6" stroke-linejoin="round"/><path d="M 140.62 391.7 Q 124.52 362.87 115.12 396.77 Q 136.78 424.5 140.62 391.7 Z" fill="none" stroke="hsl(266 55% 38%)" stroke-width="1.6" stroke-linejoin="round"/><path d="M 137.5 360 Q 127.34 328.58 111.5 360 Q 127.34 391.42 137.5 360 Z" fill="none" stroke="hsl(266 55% 38%)" stroke-width="1.6" stroke-linejoin="round"/><path d="M 140.62 328.3 Q 136.78 295.5 115.12 323.23 Q 124.52 357.13 140.62 328.3 Z" fill="none" stroke="hsl(266 55% 38%)" stroke-width="1.6" stroke-linejoin="round"/><path d="M 149.87 297.81 Q 152.5 264.9 125.85 287.86 Q 128.45 322.95 149.87 297.81 Z" fill="none" stroke="hsl(266 55% 38%)" stroke-width="1.6" stroke-linejoin="round"/><path d="M 164.89 269.72 Q 173.89 237.95 143.27 255.28 Q 138.98 290.2 164.89 269.72 Z" fill="none" stroke="hsl(266 55% 38%)" stroke-width="1.6" stroke-linejoin="round"/><path d="M 185.1 245.1 Q 200.12 215.69 166.71 226.71 Q 155.69 260.12 185.1 245.1 Z" fill="none" stroke="hsl(266 55% 38%)" stroke-width="1.6" stroke-linejoin="round"/><path d="M 209.72 224.89 Q 230.2 198.98 195.28 203.27 Q 177.95 233.89 209.72 224.89 Z" fill="none" stroke="hsl(266 55% 38%)" stroke-width="1.6" stroke-linejoin="round"/><path d="M 237.81 209.87 Q 262.95 188.45 227.86 185.85 Q 204.9 212.5 237.81 209.87 Z" fill="none" stroke="hsl(266 55% 38%)" stroke-width="1.6" stroke-linejoin="round"/><path d="M 268.3 200.62 Q 297.13 184.52 263.23 175.12 Q 235.5 196.78 268.3 200.62 Z" fill="none" stroke="hsl(266 55% 38%)" stroke-width="1.6" stroke-linejoin="round"/><path d="M 300 197.5 Q 331.42 187.34 300 171.5 Q 268.58 187.34 300 197.5 Z" fill="none" stroke="hsl(266 55% 38%)" stroke-width="1.6" stroke-linejoin="round"/><path d="M 331.7 200.62 Q 364.5 196.78 336.77 175.12 Q 302.87 184.52 331.7 200.62 Z" fill="none" stroke="hsl(266 55% 38%)" stroke-width="1.6" stroke-linejoin="round"/><path d="M 362.19 209.87 Q 395.1 212.5 372.14 185.85 Q 337.05 188.45 362.19 209.87 Z" fill="none" stroke="hsl(266 55% 38%)" stroke-width="1.6" stroke-linejoin="round"/><path d="M 390.28 224.89 Q 422.05 233.89 404.72 203.27 Q 369.8 198.98 390.28 224.89 Z" fill="none" stroke="hsl(266 55% 38%)" stroke-width="1.6" stroke-linejoin="round"/><path d="M 414.9 245.1 Q 444.31 260.12 433.29 226.71 Q 399.88 215.69 414.9 245.1 Z" fill="none" stroke="hsl(266 55% 38%)" stroke-width="1.6" stroke-linejoin="round"/><path d="M 435.11 269.72 Q 461.02 290.2 456.73 255.28 Q 426.11 237.95 435.11 269.72 Z" fill="none" stroke="hsl(266 55% 38%)" stroke-width="1.6" stroke-linejoin="round"/><path d="M 450.13 297.81 Q 471.55 322.95 474.15 287.86 Q 447.5 264.9 450.13 297.81 Z" fill="none" stroke="hsl(266 55% 38%)" stroke-width="1.6" stroke-linejoin="round"/><path d="M 459.38 328.3 Q 475.48 357.13 484.88 323.23 Q 463.22 295.5 459.38 328.3 Z" fill="none" stroke="hsl(266 55% 38%)" stroke-width="1.6" stroke-linejoin="round"/><path d="M 300 165 C 407.7 165 495 252.3 495 360 C 495 467.7 407.7 555 300 555 C 192.3 555 105 467.7 105 360 C 105 252.3 192.3 165 300 165 Z" fill="none" stroke="hsl(266 55% 38%)" stroke-width="1.6" stroke-linejoin="round"/><path d="M 491.25 390.76 C 495.27 390.76 498.53 394.02 498.53 398.04 C 498.53 402.06 495.27 405.32 491.25 405.32 C 487.23 405.32 483.97 402.06 483.97 398.04 C 483.97 394.02 487.23 390.76 491.25 390.76 Z" fill="none" stroke="hsl(266 55% 38%)" stroke-width="1.6" stroke-linejoin="round"/><path d="M 462.14 461.06 C 466.16 461.06 469.42 464.32 469.42 468.34 C 469.42 472.36 466.16 475.62 462.14 475.62 C 458.12 475.62 454.86 472.36 454.86 468.34 C 454.86 464.32 458.12 461.06 462.14 461.06 Z" fill="none" stroke="hsl(266 55% 38%)" stroke-width="1.6" stroke-linejoin="round"/><path d="M 408.34 514.86 C 412.36 514.86 415.62 518.12 415.62 522.14 C 415.62 526.16 412.36 529.42 408.34 529.42 C 404.32 529.42 401.06 526.16 401.06 522.14 C 401.06 518.12 404.32 514.86 408.34 514.86 Z" fill="none" stroke="hsl(266 55% 38%)" stroke-width="1.6" stroke-linejoin="round"/><path d="M 338.04 543.97 C 342.06 543.97 345.32 547.23 345.32 551.25 C 345.32 555.27 342.06 558.53 338.04 558.53 C 334.02 558.53 330.76 555.27 330.76 551.25 C 330.76 547.23 334.02 543.97 338.04 543.97 Z" fill="none" stroke="hsl(266 55% 38%)" stroke-width="1.6" stroke-linejoin="round"/><path d="M 261.96 543.97 C 265.98 543.97 269.24 547.23 269.24 551.25 C 269.24 555.27 265.98 558.53 261.96 558.53 C 257.94 558.53 254.68 555.27 254.68 551.25 C 254.68 547.23 257.94 543.97 261.96 543.97 Z" fill="none" stroke="hsl(266 55% 38%)" stroke-width="1.6" stroke-linejoin="round"/><path d="M 191.66 514.86 C 195.68 514.86 198.94 518.12 198.94 522.14 C 198.94 526.16 195.68 529.42 191.66 529.42 C 187.64 529.42 184.38 526.16 184.38 522.14 C 184.38 518.12 187.64 514.86 191.66 514.86 Z" fill="none" stroke="hsl(266 55% 38%)" stroke-width="1.6" stroke-linejoin="round"/><path d="M 137.86 461.06 C 141.88 461.06 145.14 464.32 145.14 468.34 C 145.14 472.36 141.88 475.62 137.86 475.62 C 133.84 475.62 130.58 472.36 130.58 468.34 C 130.58 464.32 133.84 461.06 137.86 461.06 Z" fill="none" stroke="hsl(266 55% 38%)" stroke-width="1.6" stroke-linejoin="round"/><path d="M 108.75 390.76 C 112.77 390.76 116.03 394.02 116.03 398.04 C 116.03 402.06 112.77 405.32 108.75 405.32 C 104.73 405.32 101.47 402.06 101.47 398.04 C 101.47 394.02 104.73 390.76 108.75 390.76 Z" fill="none" stroke="hsl(266 55% 38%)" stroke-width="1.6" stroke-linejoin="round"/><path d="M 108.75 314.68 C 112.77 314.68 116.03 317.94 116.03 321.96 C 116.03 325.98 112.77 329.24 108.75 329.24 C 104.73 329.24 101.47 325.98 101.47 321.96 C 101.47 317.94 104.73 314.68 108.75 314.68 Z" fill="none" stroke="hsl(266 55% 38%)" stroke-width="1.6" stroke-linejoin="round"/><path d="M 137.86 244.38 C 141.88 244.38 145.14 247.64 145.14 251.66 C 145.14 255.68 141.88 258.94 137.86 258.94 C 133.84 258.94 130.58 255.68 130.58 251.66 C 130.58 247.64 133.84 244.38 137.86 244.38 Z" fill="none" stroke="hsl(266 55% 38%)" stroke-width="1.6" stroke-linejoin="round"/><path d="M 191.66 190.58 C 195.68 190.58 198.94 193.84 198.94 197.86 C 198.94 201.88 195.68 205.14 191.66 205.14 C 187.64 205.14 184.38 201.88 184.38 197.86 C 184.38 193.84 187.64 190.58 191.66 190.58 Z" fill="none" stroke="hsl(266 55% 38%)" stroke-width="1.6" stroke-linejoin="round"/><path d="M 261.96 161.47 C 265.98 161.47 269.24 164.73 269.24 168.75 C 269.24 172.77 265.98 176.03 261.96 176.03 C 257.94 176.03 254.68 172.77 254.68 168.75 C 254.68 164.73 257.94 161.47 261.96 161.47 Z" fill="none" stroke="hsl(266 55% 38%)" stroke-width="1.6" stroke-linejoin="round"/><path d="M 338.04 161.47 C 342.06 161.47 345.32 164.73 345.32 168.75 C 345.32 172.77 342.06 176.03 338.04 176.03 C 334.02 176.03 330.76 172.77 330.76 168.75 C 330.76 164.73 334.02 161.47 338.04 161.47 Z" fill="none" stroke="hsl(266 55% 38%)" stroke-width="1.6" stroke-linejoin="round"/><path d="M 408.34 190.58 C 412.36 190.58 415.62 193.84 415.62 197.86 C 415.62 201.88 412.36 205.14 408.34 205.14 C 404.32 205.14 401.06 201.88 401.06 197.86 C 401.06 193.84 404.32 190.58 408.34 190.58 Z" fill="none" stroke="hsl(266 55% 38%)" stroke-width="1.6" stroke-linejoin="round"/><path d="M 462.14 244.38 C 466.16 244.38 469.42 247.64 469.42 251.66 C 469.42 255.68 466.16 258.94 462.14 258.94 C 458.12 258.94 454.86 255.68 454.86 251.66 C 454.86 247.64 458.12 244.38 462.14 244.38 Z" fill="none" stroke="hsl(266 55% 38%)" stroke-width="1.6" stroke-linejoin="round"/><path d="M 491.25 314.68 C 495.27 314.68 498.53 317.94 498.53 321.96 C 498.53 325.98 495.27 329.24 491.25 329.24 C 487.23 329.24 483.97 325.98 483.97 321.96 C 483.97 317.94 487.23 314.68 491.25 314.68 Z" fill="none" stroke="hsl(266 55% 38%)" stroke-width="1.6" stroke-linejoin="round"/><path d="M 300 165 C 407.7 165 495 252.3 495 360 C 495 467.7 407.7 555 300 555 C 192.3 555 105 467.7 105 360 C 105 252.3 192.3 165 300 165 Z" fill="none" stroke="hsl(266 55% 38%)" stroke-width="1.6" stroke-linejoin="round"/></g>
  <g transform="translate(300,640)">
    <rect x="-110" y="-26" width="220" height="34" rx="17" fill="#ffffff" opacity="0.8"/>
    <text x="0" y="-3" text-anchor="middle" font-family="Quicksand, Arial, sans-serif" font-size="16" font-weight="600" fill="hsl(266 55% 38%)">⚙️ Vintage &amp; Steampunk</text>
  </g>
  <text x="300" y="700" text-anchor="middle" font-family="Quicksand, Arial, sans-serif" font-size="40" font-weight="700" fill="#2b2540"><tspan x="300" dy="0">Vintage &amp;</tspan><tspan x="300" dy="44">Steampunk – Vol. 2</tspan></text>
  <text x="300" y="772" text-anchor="middle" font-family="Arial, sans-serif" font-size="15" fill="#5b5470">Malbuch · 24 Seiten</text>
</svg>