<svg xmlns="http://www.w3.org/2000/svg" viewBox="0 0 600 800" width="600" height="800">
  <defs>
    <linearGradient id="bg" x1="0" y1="0" x2="0" y2="1">
      <stop offset="0" stop-color="hsl(313 70% 95%)"/><stop offset="1" stop-color="hsl(353 70% 92%)"/>
    </linearGradient>
  </defs>
  <rect width="600" height="800" fill="url(#bg)"/>
  <rect x="22" y="22" width="556" height="756" rx="28" fill="none" stroke="hsl(313 55% 38%)" stroke-width="2" opacity="0.5"/>
  <text x="300" y="74" text-anchor="middle" font-family="Quicksand, Arial, sans-serif" font-size="26" font-weight="700" fill="hsl(313 55% 38%)">&#10022; Coloreo</text>
  <g transform="translate(0,40)"><path d="M 323.4 360 Q 335.17 372.84 349.14 360 Q 335.17 347.16 323.4 360 Z" fill="none" stroke="hsl(313 55% 38%)" stroke-width="1.6" stroke-linejoin="round"/><path d="M 311.7 380.26 Q 306.47 396.88 324.57 402.56 Q 328.7 384.04 311.7 380.26 Z" fill="none" stroke="hsl(313 55% 38%)" stroke-width="1.6" stroke-linejoin="round"/><path d="M 288.3 380.26 Q 271.3 384.04 275.43 402.56 Q 293.53 396.88 288.3 380.26 Z" fill="none" stroke="hsl(313 55% 38%)" stroke-width="1.6" stroke-linejoin="round"/><path d="M 276.6 360 Q 264.83 347.16 250.86 360 Q 264.83 372.84 276.6 360 Z" fill="none" stroke="hsl(313 55% 38%)" stroke-width="1.6" stroke-linejoin="round"/><path d="M 288.3 339.74 Q 293.53 323.12 275.43 317.44 Q 271.3 335.96 288.3 339.74 Z" fill="none" stroke="hsl(313 55% 38%)" stroke-width="1.6" stroke-linejoin="round"/><path d="M 311.7 339.74 Q 328.7 335.96 324.57 317.44 Q 306.47 323.12 311.7 339.74 Z" fill="none" stroke="hsl(313 55% 38%)" stroke-width="1.6" stroke-linejoin="round"/><path d="M 300 345.96 C 307.75 345.96 314.04 352.25 314.04 360 C 314.04 367.75 307.75 374.04 300 374.04 C 292.25 374.04 285.96 367.75 285.96 360 C 285.96 352.25 292.25 345.96 300 345.96 Z" fill="none" stroke="hsl(313 55% 38%)" stroke-width="1.6" stroke-linejoin="round"/><path d="M 300 295 C 335.9 295 365 324.1 365 360 C 365 395.9 335.9 425 300 425 C 264.1 425 235 395.9 235 360 C 235 324.1 264.1 295 300 295 Z" fill="none" stroke="hsl(313 55% 38%)" stroke-width="1.6" stroke-linejoin="round"/><path d="M 356.29 392.5 Q 359.48 410.46 378.81 405.5 Q 373.44 386.28 356.29 392.5 Z" fill="none" stroke="hsl(313 55% 38%)" stroke-width="1.6" stroke-linejoin="round"/><path d="M 300 425 Q 286.04 436.74 300 451 Q 313.96 436.74 300 425 Z" fill="none" stroke="hsl(313 55% 38%)" stroke-width="1.6" stroke-linejoin="round"/><path d="M 243.71 392.5 Q 226.56 386.28 221.19 405.5 Q 240.52 410.46 243.71 392.5 Z" fill="none" stroke="hsl(313 55% 38%)" stroke-width="1.6" stroke-linejoin="round"/><path d="M 243.71 327.5 Q 240.52 309.54 221.19 314.5 Q 226.56 333.72 243.71 327.5 Z" fill="none" stroke="hsl(313 55% 38%)" stroke-width="1.6" stroke-linejoin="round"/><path d="M 300 295 Q 313.96 283.26 300 269 Q 286.04 283.26 300 295 Z" fill="none" stroke="hsl(313 55% 38%)" stroke-width="1.6" stroke-linejoin="round"/><path d="M 356.29 327.5 Q 373.44 333.72 378.81 314.5 Q 359.48 309.54 356.29 327.5 Z" fill="none" stroke="hsl(313 55% 38%)" stroke-width="1.6" stroke-linejoin="round"/><path d="M 300 262.5 C 353.85 262.5 397.5 306.15 397.5 360 C 397.5 413.85 353.85 457.5 300 457.5 C 246.15 457.5 202.5 413.85 202.5 360 C 202.5 306.15 246.15 262.5 300 262.5 Z" fill="none" stroke="hsl(313 55% 38%)" stroke-width="1.6" stroke-linejoin="round"/><path d="M 397.5 352.72 C 401.52 352.72 404.78 355.98 404.78 360 C 404.78 364.02 401.52 367.28 397.5 367.28 C 393.48 367.28 390.22 364.02 390.22 360 C 390.22 355.98 393.48 352.72 397.5 352.72 Z" fill="none" stroke="hsl(313 55% 38%)" stroke-width="1.6" stroke-linejoin="round"/><path d="M 384.44 401.47 C 388.46 401.47 391.72 404.73 391.72 408.75 C 391.72 412.77 388.46 416.03 384.44 416.03 C 380.42 416.03 377.16 412.77 377.16 408.75 C 377.16 404.73 380.42 401.47 384.44 401.47 Z" fill="none" stroke="hsl(313 55% 38%)" stroke-width="1.6" stroke-linejoin="round"/><path d="M 348.75 437.16 C 352.77 437.16 356.03 440.42 356.03 444.44 C 356.03 448.46 352.77 451.72 348.75 451.72 C 344.73 451.72 341.47 448.46 341.47 444.44 C 341.47 440.42 344.73 437.16 348.75 437.16 Z" fill="none" stroke="hsl(313 55% 38%)" stroke-width="1.6" stroke-linejoin="round"/><path d="M 300 450.22 C 304.02 450.22 307.28 453.48 307.28 457.5 C 307.28 461.52 304.02 464.78 300 464.78 C 295.98 464.78 292.72 461.52 292.72 457.5 C 292.72 453.48 295.98 450.22 300 450.22 Z" fill="none" stroke="hsl(313 55% 38%)" stroke-width="1.6" stroke-linejoin="round"/><path d="M 251.25 437.16 C 255.27 437.16 258.53 440.42 258.53 444.44 C 258.53 448.46 255.27 451.72 251.25 451.72 C 247.23 451.72 243.97 448.46 243.97 444.44 C 243.97 440.42 247.23 437.16 251.25 437.16 Z" fill="none" stroke="hsl(313 55% 38%)" stroke-width="1.6" stroke-linejoin="round"/><path d="M 215.56 401.47 C 219.58 401.47 222.84 404.73 222.84 408.75 C 222.84 412.77 219.58 416.03 215.56 416.03 C 211.54 416.03 208.28 412.77 208.28 408.75 C 208.28 404.73 211.54 401.47 215.56 401.47 Z" fill="none" stroke="hsl(313 55% 38%)" stroke-width="1.6" stroke-linejoin="round"/><path d="M 202.5 352.72 C 206.52 352.72 209.78 355.98 209.78 360 C 209.78 364.02 206.52 367.28 202.5 367.28 C 198.48 367.28 195.22 364.02 195.22 360 C 195.22 355.98 198.48 352.72 202.5 352.72 Z" fill="none" stroke="hsl(313 55% 38%)" stroke-width="1.6" stroke-linejoin="round"/><path d="M 215.56 303.97 C 219.58 303.97 222.84 307.23 222.84 311.25 C 222.84 315.27 219.58 318.53 215.56 318.53 C 211.54 318.53 208.28 315.27 208.28 311.25 C 208.28 307.23 211.54 303.97 215.56 303.97 Z" fill="none" stroke="hsl(313 55% 38%)" stroke-width="1.6" stroke-linejoin="round"/><path d="M 251.25 268.28 C 255.27 268.28 258.53 271.54 258.53 275.56 C 258.53 279.58 255.27 282.84 251.25 282.84 C 247.23 282.84 243.97 279.58 243.97 275.56 C 243.97 271.54 247.23 268.28 251.25 268.28 Z" fill="none" stroke="hsl(313 55% 38%)" stroke-width="1.6" stroke-linejoin="round"/><path d="M 300 255.22 C 304.02 255.22 307.28 258.48 307.28 262.5 C 307.28 266.52 304.02 269.78 300 269.78 C 295.98 269.78 292.72 266.52 292.72 262.5 C 292.72 258.48 295.98 255.22 300 255.22 Z" fill="none" stroke="hsl(313 55% 38%)" stroke-width="1.6" stroke-linejoin="round"/><path d="M 348.75 268.28 C 352.77 268.28 356.03 271.54 356.03 275.56 C 356.03 279.58 352.77 282.84 348.75 282.84 C 344.73 282.84 341.47 279.58 341.47 275.56 C 341.47 271.54 344.73 268.28 348.75 268.28 Z" fill="none" stroke="hsl(313 55% 38%)" stroke-width="1.6" stroke-linejoin="round"/><path d="M 384.44 303.97 C 388.46 303.97 391.72 307.23 391.72 311.25 C 391.72 315.27 388.46 318.53 384.44 318.53 C 380.42 318.53 377.16 315.27 377.16 311.25 C 377.16 307.23 380.42 303.97 384.44 303.97 Z" fill="none" stroke="hsl(313 55% 38%)" stroke-width="1.6" stroke-linejoin="round"/><path d="M 300 230 C 371.8 230 430 288.2 430 360 C 430 431.8 371.8 490 300 490 C 228.2 490 170 431.8 170 360 C 170 288.2 228.2 230 300 230 Z" fill="none" stroke="hsl(313 55% 38%)" stroke-width="1.6" stroke-linejoin="round"/><path d="M 412.58 417.72 C 416.6 417.72 419.86 420.98 419.86 425 C 419.86 429.02 416.6 432.28 412.58 432.28 C 408.56 432.28 405.3 429.02 405.3 425 C 405.3 420.98 408.56 417.72 412.58 417.72 Z" fill="none" stroke="hsl(313 55% 38%)" stroke-width="1.6" stroke-linejoin="round"/><path d="M 300 482.72 C 304.02 482.72 307.28 485.98 307.28 490 C 307.28 494.02 304.02 497.28 300 497.28 C 295.98 497.28 292.72 494.02 292.72 490 C 292.72 485.98 295.98 482.72 300 482.72 Z" fill="none" stroke="hsl(313 55% 38%)" stroke-width="1.6" stroke-linejoin="round"/><path d="M 187.42 417.72 C 191.44 417.72 194.7 420.98 194.7 425 C 194.7 429.02 191.44 432.28 187.42 432.28 C 183.4 432.28 180.14 429.02 180.14 425 C 180.14 420.98 183.4 417.72 187.42 417.72 Z" fill="none" stroke="hsl(313 55% 38%)" stroke-width="1.6" stroke-linejoin="round"/><path d="M 187.42 287.72 C 191.44 287.72 194.7 290.98 194.7 295 C 194.7 299.02 191.44 302.28 187.42 302.28 C 183.4 302.28 180.14 299.02 180.14 295 C 180.14 290.98 183.4 287.72 187.42 287.72 Z" fill="none" stroke="hsl(313 55% 38%)" stroke-width="1.6" stroke-linejoin="round"/><path d="M 300 222.72 C 304.02 222.72 307.28 225.98 307.28 230 C 307.28 234.02 304.02 237.28 300 237.28 C 295.98 237.28 292.72 234.02 292.72 230 C 292.72 225.98 295.98 222.72 300 222.72 Z" fill="none" stroke="hsl(313 55% 38%)" stroke-width="1.6" stroke-linejoin="round"/><path d="M 412.58 287.72 C 416.6 287.72 419.86 290.98 419.86 295 C 419.86 299.02 416.6 302.28 412.58 302.28 C 408.56 302.28 405.3 299.02 405.3 295 C 405.3 290.98 408.56 287.72 412.58 287.72 Z" fill="none" stroke="hsl(313 55% 38%)" stroke-width="1.6" stroke-linejoin="round"/><path d="M 300 197.5 C 389.75 197.5 462.5 270.25 462.5 360 C 462.5 449.75 389.75 522.5 300 522.5 C 210.25 522.5 137.5 449.75 137.5 360 C 137.5 270.25 210.25 197.5 300 197.5 Z" fill="none" stroke="hsl(313 55% 38%)" stroke-width="1.6" stroke-linejoin="round"/><path d="M 462.5 360 L 480.7 360" fill="none" stroke="hsl(313 55% 38%)" stroke-width="1.6" stroke-linejoin="round"/><path d="M 440.73 441.25 L 456.49 450.35" fill="none" stroke="hsl(313 55% 38%)" stroke-width="1.6" stroke-linejoin="round"/><path d="M 381.25 500.73 L 390.35 516.49" fill="none" stroke="hsl(313 55% 38%)" stroke-width="1.6" stroke-linejoin="round"/><path d="M 300 522.5 L 300 540.7" fill="none" stroke="hsl(313 55% 38%)" stroke-width="1.6" stroke-linejoin="round"/><path d="M 218.75 500.73 L 209.65 516.49" fill="none" stroke="hsl(313 55% 38%)" stroke-width="1.6" stroke-linejoin="round"/><path d="M 159.27 441.25 L 143.51 450.35" fill="none" stroke="hsl(313 55% 38%)" stroke-width="1.6" stroke-linejoin="round"/><path d="M 137.5 360 L 119.3 360" fill="none" stroke="hsl(313 55% 38%)" stroke-width="1.6" stroke-linejoin="round"/><path d="M 159.27 278.75 L 143.51 269.65" fill="none" stroke="hsl(313 55% 38%)" stroke-width="1.6" stroke-linejoin="round"/><path d="M 218.75 219.27 L 209.65 203.51" fill="none" stroke="hsl(313 55% 38%)" stroke-width="1.6" stroke-linejoin="round"/><path d="M 300 197.5 L 300 179.3" fill="none" stroke="hsl(313 55% 38%)" stroke-width="1.6" stroke-linejoin="round"/><path d="M 381.25 219.27 L 390.35 203.51" fill="none" stroke="hsl(313 55% 38%)" stroke-width="1.6" stroke-linejoin="round"/><path d="M 440.73 278.75 L 456.49 269.65" fill="none" stroke="hsl(313 55% 38%)" stroke-width="1.6" stroke-linejoin="round"/><path d="M 300 165 C 407.7 165 495 252.3 495 360 C 495 467.7 407.7 555 300 555 C 192.3 555 105 467.7 105 360 C 105 252.3 192.3 165 300 165 Z" fill="none" stroke="hsl(313 55% 38%)" stroke-width="1.6" stroke-linejoin="round"/><path d="M 468.87 450.22 C 472.9 450.22 476.15 453.48 476.15 457.5 C 476.15 461.52 472.9 464.78 468.87 464.78 C 464.85 464.78 461.59 461.52 461.59 457.5 C 461.59 453.48 464.85 450.22 468.87 450.22 Z" fill="none" stroke="hsl(313 55% 38%)" stroke-width="1.6" stroke-linejoin="round"/><path d="M 300 547.72 C 304.02 547.72 307.28 550.98 307.28 555 C 307.28 559.02 304.02 562.28 300 562.28 C 295.98 562.28 292.72 559.02 292.72 555 C 292.72 550.98 295.98 547.72 300 547.72 Z" fill="none" stroke="hsl(313 55% 38%)" stroke-width="1.6" stroke-linejoin="round"/><path d="M 131.13 450.22 C 135.15 450.22 138.41 453.48 138.41 457.5 C 138.41 461.52 135.15 464.78 131.13 464.78 C 127.1 464.78 123.85 461.52 123.85 457.5 C 123.85 453.48 127.1 450.22 131.13 450.22 Z" fill="none" stroke="hsl(313 55% 38%)" stroke-width="1.6" stroke-linejoin="round"/><path d="M 131.13 255.22 C 135.15 255.22 138.41 258.48 138.41 262.5 C 138.41 266.52 135.15 269.78 131.13 269.78 C 127.1 269.78 123.85 266.52 123.85 262.5 C 123.85 258.48 127.1 255.22 131.13 255.22 Z" fill="none" stroke="hsl(313 55% 38%)" stroke-width="1.6" stroke-linejoin="round"/><path d="M 300 157.72 C 304.02 157.72 307.28 160.98 307.28 165 C 307.28 169.02 304.02 172.28 300 172.28 C 295.98 172.28 292.72 169.02 292.72 165 C 292.72 160.98 295.98 157.72 300 157.72 Z" fill="none" stroke="hsl(313 55% 38%)" stroke-width="1.6" stroke-linejoin="round"/><path d="M 468.87 255.22 C 472.9 255.22 476.15 258.48 476.15 262.5 C 476.15 266.52 472.9 269.78 468.87 269.78 C 464.85 269.78 461.59 266.52 461.59 262.5 C 461.59 258.48 464.85 255.22 468.87 255.22 Z" fill="none" stroke="hsl(313 55% 38%)" stroke-width="1.6" stroke-linejoin="round"/><path d="M 300 165 C 407.7 165 495 252.3 495 360 C 495 467.7 407.7 555 300 555 C 192.3 555 105 467.7 105 360 C 105 252.3 192.3 165 300 165 Z" fill="none" stroke="hsl(313 55% 38%)" stroke-width="1.6" stroke-linejoin="round"/></g>
  <g transform="translate(300,640)">
    <rect x="-110" y="-26" width="220" height="34" rx="17" fill="#ffffff" opacity="0.8"/>
    <text x="0" y="-3" text-anchor="middle" font-family="Quicksand, Arial, sans-serif" font-size="16" font-weight="600" fill="hsl(313 55% 38%)">🌌 Weltraum &amp; Galaxien</text>
  </g>
  <text x="300" y="700" text-anchor="middle" font-family="Quicksand, Arial, sans-serif" font-size="40" font-weight="700" fill="#2b2540"><tspan x="300" dy="0">Weltraum &amp;</tspan><tspan x="300" dy="44">Galaxien – Vol. 1</tspan></text>
  <text x="300" y="772" text-anchor="middle" font-family="Arial, sans-serif" font-size="15" fill="#5b5470">Malbuch · 24 Seiten</text>
</svg>