<svg xmlns="http://www.w3.org/2000/svg" viewBox="0 0 600 800" width="600" height="800">
  <defs>
    <linearGradient id="bg" x1="0" y1="0" x2="0" y2="1">
      <stop offset="0" stop-color="hsl(313 70% 95%)"/><stop offset="1" stop-color="hsl(353 70% 92%)"/>
    </linearGradient>
  </defs>
  <rect width="600" height="800" fill="url(#bg)"/>
  <rect x="22" y="22" width="556" height="756" rx="28" fill="none" stroke="hsl(313 55% 38%)" stroke-width="2" opacity="0.5"/>
  <text x="300" y="74" text-anchor="middle" font-family="Quicksand, Arial, sans-serif" font-size="26" font-weight="700" fill="hsl(313 55% 38%)">&#10022; Coloreo</text>
  <g transform="translate(0,40)"><path d="M 323.4 360 Q 335.17 372.84 349.14 360 Q 335.17 347.16 323.4 360 Z" fill="none" stroke="hsl(313 55% 38%)" stroke-width="1.6" stroke-linejoin="round"/><path d="M 311.7 380.26 Q 306.47 396.88 324.57 402.56 Q 328.7 384.04 311.7 380.26 Z" fill="none" stroke="hsl(313 55% 38%)" stroke-width="1.6" stroke-linejoin="round"/><path d="M 288.3 380.26 Q 271.3 384.04 275.43 402.56 Q 293.53 396.88 288.3 380.26 Z" fill="none" stroke="hsl(313 55% 38%)" stroke-width="1.6" stroke-linejoin="round"/><path d="M 276.6 360 Q 264.83 347.16 250.86 360 Q 264.83 372.84 276.6 360 Z" fill="none" stroke="hsl(313 55% 38%)" stroke-width="1.6" stroke-linejoin="round"/><path d="M 288.3 339.74 Q 293.53 323.12 275.43 317.44 Q 271.3 335.96 288.3 339.74 Z" fill="none" stroke="hsl(313 55% 38%)" stroke-width="1.6" stroke-linejoin="round"/><path d="M 311.7 339.74 Q 328.7 335.96 324.57 317.44 Q 306.47 323.12 311.7 339.74 Z" fill="none" stroke="hsl(313 55% 38%)" stroke-width="1.6" stroke-linejoin="round"/><path d="M 285.96 360 a 14.04 14.04 0 1 0 28.08 0 a 14.04 14.04 0 1 0 -28.08 0 Z" fill="none" stroke="hsl(313 55% 38%)" stroke-width="1.6" stroke-linejoin="round"/><path d="M 235 360 a 65 65 0 1 0 130 0 a 65 65 0 1 0 -130 0 Z" fill="none" stroke="hsl(313 55% 38%)" stroke-width="1.6" stroke-linejoin="round"/><path d="M 356.29 392.5 Q 359.48 410.46 378.81 405.5 Q 373.44 386.28 356.29 392.5 Z" fill="none" stroke="hsl(313 55% 38%)" stroke-width="1.6" stroke-linejoin="round"/><path d="M 300 425 Q 286.04 436.74 300 451 Q 313.96 436.74 300 425 Z" fill="none" stroke="hsl(313 55% 38%)" stroke-width="1.6" stroke-linejoin="round"/><path d="M 243.71 392.5 Q 226.56 386.28 221.19 405.5 Q 240.52 410.46 243.71 392.5 Z" fill="none" stroke="hsl(313 55% 38%)" stroke-width="1.6" stroke-linejoin="round"/><path d="M 243.71 327.5 Q 240.52 309.54 221.19 314.5 Q 226.56 333.72 243.71 327.5 Z" fill="none" stroke="hsl(313 55% 38%)" stroke-width="1.6" stroke-linejoin="round"/><path d="M 300 295 Q 313.96 283.26 300 269 Q 286.04 283.26 300 295 Z" fill="none" stroke="hsl(313 55% 38%)" stroke-width="1.6" stroke-linejoin="round"/><path d="M 356.29 327.5 Q 373.44 333.72 378.81 314.5 Q 359.48 309.54 356.29 327.5 Z" fill="none" stroke="hsl(313 55% 38%)" stroke-width="1.6" stroke-linejoin="round"/><path d="M 202.5 360 a 97.5 97.5 0 1 0 195 0 a 97.5 97.5 0 1 0 -195 0 Z" fill="none" stroke="hsl(313 55% 38%)" stroke-width="1.6" stroke-linejoin="round"/><path d="M 390.22 360 a 7.28 7.28 0 1 0 14.56 0 a 7.28 7.28 0 1 0 -14.56 0 Z" fill="none" stroke="hsl(313 55% 38%)" stroke-width="1.6" stroke-linejoin="round"/><path d="M 377.16 408.75 a 7.28 7.28 0 1 0 14.56 0 a 7.28 7.28 0 1 0 -14.56 0 Z" fill="none" stroke="hsl(313 55% 38%)" stroke-width="1.6" stroke-linejoin="round"/><path d="M 341.47 444.44 a 7.28 7.28 0 1 0 14.56 0 a 7.28 7.28 0 1 0 -14.56 0 Z" fill="none" stroke="hsl(313 55% 38%)" stroke-width="1.6" stroke-linejoin="round"/><path d="M 292.72 457.5 a 7.28 7.28 0 1 0 14.56 0 a 7.28 7.28 0 1 0 -14.56 0 Z" fill="none" stroke="hsl(313 55% 38%)" stroke-width="1.6" stroke-linejoin="round"/><path d="M 243.97 444.44 a 7.28 7.28 0 1 0 14.56 0 a 7.28 7.28 0 1 0 -14.56 0 Z" fill="none" stroke="hsl(313 55% 38%)" stroke-width="1.6" stroke-linejoin="round"/><path d="M 208.28 408.75 a 7.28 7.28 0 1 0 14.56 0 a 7.28 7.28 0 1 0 -14.56 0 Z" fill="none" stroke="hsl(313 55% 38%)" stroke-width="1.6" stroke-linejoin="round"/><path d="M 195.22 360 a 7.28 7.28 0 1 0 14.56 0 a 7.28 7.28 0 1 0 -14.56 0 Z" fill="none" stroke="hsl(313 55% 38%)" stroke-width="1.6" stroke-linejoin="round"/><path d="M 208.28 311.25 a 7.28 7.28 0 1 0 14.56 0 a 7.28 7.28 0 1 0 -14.56 0 Z" fill="none" stroke="hsl(313 55% 38%)" stroke-width="1.6" stroke-linejoin="round"/><path d="M 243.97 275.56 a 7.28 7.28 0 1 0 14.56 0 a 7.28 7.28 0 1 0 -14.56 0 Z" fill="none" stroke="hsl(313 55% 38%)" stroke-width="1.6" stroke-linejoin="round"/><path d="M 292.72 262.5 a 7.28 7.28 0 1 0 14.56 0 a 7.28 7.28 0 1 0 -14.56 0 Z" fill="none" stroke="hsl(313 55% 38%)" stroke-width="1.6" stroke-linejoin="round"/><path d="M 341.47 275.56 a 7.28 7.28 0 1 0 14.56 0 a 7.28 7.28 0 1 0 -14.56 0 Z" fill="none" stroke="hsl(313 55% 38%)" stroke-width="1.6" stroke-linejoin="round"/><path d="M 377.16 311.25 a 7.28 7.28 0 1 0 14.56 0 a 7.28 7.28 0 1 0 -14.56 0 Z" fill="none" stroke="hsl(313 55% 38%)" stroke-width="1.6" stroke-linejoin="round"/><path d="M 170 360 a 130 130 0 1 0 260 0 a 130 130 0 1 0 -260 0 Z" fill="none" stroke="hsl(313 55% 38%)" stroke-width="1.6" stroke-linejoin="round"/><path d="M 405.3 425 a 7.28 7.28 0 1 0 14.56 0 a 7.28 7.28 0 1 0 -14.56 0 Z" fill="none" stroke="hsl(313 55% 38%)" stroke-width="1.6" stroke-linejoin="round"/><path d="M 292.72 490 a 7.28 7.28 0 1 0 14.56 0 a 7.28 7.28 0 1 0 -14.56 0 Z" fill="none" stroke="hsl(313 55% 38%)" stroke-width="1.6" stroke-linejoin="round"/><path d="M 180.14 425 a 7.28 7.28 0 1 0 14.56 0 a 7.28 7.28 0 1 0 -14.56 0 Z" fill="none" stroke="hsl(313 55% 38%)" stroke-width="1.6" stroke-linejoin="round"/><path d="M 180.14 295 a 7.28 7.28 0 1 0 14.56 0 a 7.28 7.28 0 1 0 -14.56 0 Z" fill="none" stroke="hsl(313 55% 38%)" stroke-width="1.6" stroke-linejoin="round"/><path d="M 292.72 230 a 7.28 7.28 0 1 0 14.56 0 a 7.28 7.28 0 1 0 -14.56 0 Z" fill="none" stroke="hsl(313 55% 38%)" stroke-width="1.6" stroke-linejoin="round"/><path d="M 405.3 295 a 7.28 7.28 0 1 0 14.56 0 a 7.28 7.28 0 1 0 -14.56 0 Z" fill="none" stroke="hsl(313 55% 38%)" stroke-width="1.6" stroke-linejoin="round"/><path d="M 137.5 360 a 162.5 162.5 0 1 0 325 0 a 162.5 162.5 0 1 0 -325 0 Z" fill="none" stroke="hsl(313 55% 38%)" stroke-width="1.6" stroke-linejoin="round"/><path d="M 462.5 360 L 480.7 360" fill="none" stroke="hsl(313 55% 38%)" stroke-width="1.6" stroke-linejoin="round"/><path d="M 440.73 441.25 L 456.49 450.35" fill="none" stroke="hsl(313 55% 38%)" stroke-width="1.6" stroke-linejoin="round"/><path d="M 381.25 500.73 L 390.35 516.49" fill="none" stroke="hsl(313 55% 38%)" stroke-width="1.6" stroke-linejoin="round"/><path d="M 300 522.5 L 300 540.7" fill="none" stroke="hsl(313 55% 38%)" stroke-width="1.6" stroke-linejoin="round"/><path d="M 218.75 500.73 L 209.65 516.49" fill="none" stroke="hsl(313 55% 38%)" stroke-width="1.6" stroke-linejoin="round"/><path d="M 159.27 441.25 L 143.51 450.35" fill="none" stroke="hsl(313 55% 38%)" stroke-width="1.6" stroke-linejoin="round"/><path d="M 137.5 360 L 119.3 360" fill="none" stroke="hsl(313 55% 38%)" stroke-width="1.6" stroke-linejoin="round"/><path d="M 159.27 278.75 L 143.51 269.65" fill="none" stroke="hsl(313 55% 38%)" stroke-width="1.6" stroke-linejoin="round"/><path d="M 218.75 219.27 L 209.65 203.51" fill="none" stroke="hsl(313 55% 38%)" stroke-width="1.6" stroke-linejoin="round"/><path d="M 300 197.5 L 300 179.3" fill="none" stroke="hsl(313 55% 38%)" stroke-width="1.6" stroke-linejoin="round"/><path d="M 381.25 219.27 L 390.35 203.51" fill="none" stroke="hsl(313 55% 38%)" stroke-width="1.6" stroke-linejoin="round"/><path d="M 440.73 278.75 L 456.49 269.65" fill="none" stroke="hsl(313 55% 38%)" stroke-width="1.6" stroke-linejoin="round"/><path d="M 105 360 a 195 195 0 1 0 390 0 a 195 195 0 1 0 -390 0 Z" fill="none" stroke="hsl(313 55% 38%)" stroke-width="1.6" stroke-linejoin="round"/><path d="M 461.59 457.5 a 7.28 7.28 0 1 0 14.56 0 a 7.28 7.28 0 1 0 -14.56 0 Z" fill="none" stroke="hsl(313 55% 38%)" stroke-width="1.6" stroke-linejoin="round"/><path d="M 292.72 555 a 7.28 7.28 0 1 0 14.56 0 a 7.28 7.28 0 1 0 -14.56 0 Z" fill="none" stroke="hsl(313 55% 38%)" stroke-width="1.6" stroke-linejoin="round"/><path d="M 123.85 457.5 a 7.28 7.28 0 1 0 14.56 0 a 7.28 7.28 0 1 0 -14.56 0 Z" fill="none" stroke="hsl(313 55% 38%)" stroke-width="1.6" stroke-linejoin="round"/><path d="M 123.85 262.5 a 7.28 7.28 0 1 0 14.56 0 a 7.28 7.28 0 1 0 -14.56 0 Z" fill="none" stroke="hsl(313 55% 38%)" stroke-width="1.6" stroke-linejoin="round"/><path d="M 292.72 165 a 7.28 7.28 0 1 0 14.56 0 a 7.28 7.28 0 1 0 -14.56 0 Z" fill="none" stroke="hsl(313 55% 38%)" stroke-width="1.6" stroke-linejoin="round"/><path d="M 461.59 262.5 a 7.28 7.28 0 1 0 14.56 0 a 7.28 7.28 0 1 0 -14.56 0 Z" fill="none" stroke="hsl(313 55% 38%)" stroke-width="1.6" stroke-linejoin="round"/><path d="M 105 360 a 195 195 0 1 0 390 0 a 195 195 0 1 0 -390 0 Z" fill="none" stroke="hsl(313 55% 38%)" stroke-width="1.6" stroke-linejoin="round"/></g>
  <g transform="translate(300,640)">
    <rect x="-110" y="-26" width="220" height="34" rx="17" fill="#ffffff" opacity="0.8"/>
    <text x="0" y="-3" text-anchor="middle" font-family="Quicksand, Arial, sans-serif" font-size="16" font-weight="600" fill="hsl(313 55% 38%)">🌌 Weltraum &amp; Galaxien</text>
  </g>
  <text x="300" y="700" text-anchor="middle" font-family="Quicksand, Arial, sans-serif" font-size="40" font-weight="700" fill="#2b2540"><tspan x="300" dy="0">Weltraum &amp;</tspan><tspan x="300" dy="44">Galaxien – Vol. 1</tspan></text>
  <text x="300" y="772" text-anchor="middle" font-family="Arial, sans-serif" font-size="15" fill="#5b5470">Malbuch · 30 Seiten</text>
</svg>