<svg xmlns="http://www.w3.org/2000/svg" viewBox="0 0 600 800" width="600" height="800">
  <defs>
    <linearGradient id="bg" x1="0" y1="0" x2="0" y2="1">
      <stop offset="0" stop-color="hsl(48 70% 95%)"/><stop offset="1" stop-color="hsl(88 70% 92%)"/>
    </linearGradient>
  </defs>
  <rect width="600" height="800" fill="url(#bg)"/>
  <rect x="22" y="22" width="556" height="756" rx="28" fill="none" stroke="hsl(48 55% 38%)" stroke-width="2" opacity="0.5"/>
  <text x="300" y="74" text-anchor="middle" font-family="Quicksand, Arial, sans-serif" font-size="26" font-weight="700" fill="hsl(48 55% 38%)">&#10022; Coloreo</text>
  <g transform="translate(0,40)"><path d="M 323.4 360 Q 335.17 372.84 349.14 360 Q 335.17 347.16 323.4 360 Z" fill="none" stroke="hsl(48 55% 38%)" stroke-width="1.6" stroke-linejoin="round"/><path d="M 321.62 368.95 Q 327.58 385.32 345.4 378.81 Q 337.41 361.6 321.62 368.95 Z" fill="none" stroke="hsl(48 55% 38%)" stroke-width="1.6" stroke-linejoin="round"/><path d="M 316.55 376.55 Q 315.79 393.95 334.75 394.75 Q 333.95 375.79 316.55 376.55 Z" fill="none" stroke="hsl(48 55% 38%)" stroke-width="1.6" stroke-linejoin="round"/><path d="M 308.95 381.62 Q 301.6 397.41 318.81 405.4 Q 325.32 387.58 308.95 381.62 Z" fill="none" stroke="hsl(48 55% 38%)" stroke-width="1.6" stroke-linejoin="round"/><path d="M 300 383.4 Q 287.16 395.17 300 409.14 Q 312.84 395.17 300 383.4 Z" fill="none" stroke="hsl(48 55% 38%)" stroke-width="1.6" stroke-linejoin="round"/><path d="M 291.05 381.62 Q 274.68 387.58 281.19 405.4 Q 298.4 397.41 291.05 381.62 Z" fill="none" stroke="hsl(48 55% 38%)" stroke-width="1.6" stroke-linejoin="round"/><path d="M 283.45 376.55 Q 266.05 375.79 265.25 394.75 Q 284.21 393.95 283.45 376.55 Z" fill="none" stroke="hsl(48 55% 38%)" stroke-width="1.6" stroke-linejoin="round"/><path d="M 278.38 368.95 Q 262.59 361.6 254.6 378.81 Q 272.42 385.32 278.38 368.95 Z" fill="none" stroke="hsl(48 55% 38%)" stroke-width="1.6" stroke-linejoin="round"/><path d="M 276.6 360 Q 264.83 347.16 250.86 360 Q 264.83 372.84 276.6 360 Z" fill="none" stroke="hsl(48 55% 38%)" stroke-width="1.6" stroke-linejoin="round"/><path d="M 278.38 351.05 Q 272.42 334.68 254.6 341.19 Q 262.59 358.4 278.38 351.05 Z" fill="none" stroke="hsl(48 55% 38%)" stroke-width="1.6" stroke-linejoin="round"/><path d="M 283.45 343.45 Q 284.21 326.05 265.25 325.25 Q 266.05 344.21 283.45 343.45 Z" fill="none" stroke="hsl(48 55% 38%)" stroke-width="1.6" stroke-linejoin="round"/><path d="M 291.05 338.38 Q 298.4 322.59 281.19 314.6 Q 274.68 332.42 291.05 338.38 Z" fill="none" stroke="hsl(48 55% 38%)" stroke-width="1.6" stroke-linejoin="round"/><path d="M 300 336.6 Q 312.84 324.83 300 310.86 Q 287.16 324.83 300 336.6 Z" fill="none" stroke="hsl(48 55% 38%)" stroke-width="1.6" stroke-linejoin="round"/><path d="M 308.95 338.38 Q 325.32 332.42 318.81 314.6 Q 301.6 322.59 308.95 338.38 Z" fill="none" stroke="hsl(48 55% 38%)" stroke-width="1.6" stroke-linejoin="round"/><path d="M 316.55 343.45 Q 333.95 344.21 334.75 325.25 Q 315.79 326.05 316.55 343.45 Z" fill="none" stroke="hsl(48 55% 38%)" stroke-width="1.6" stroke-linejoin="round"/><path d="M 321.62 351.05 Q 337.41 358.4 345.4 341.19 Q 327.58 334.68 321.62 351.05 Z" fill="none" stroke="hsl(48 55% 38%)" stroke-width="1.6" stroke-linejoin="round"/><path d="M 285.96 360 a 14.04 14.04 0 1 0 28.08 0 a 14.04 14.04 0 1 0 -28.08 0 Z" fill="none" stroke="hsl(48 55% 38%)" stroke-width="1.6" stroke-linejoin="round"/><path d="M 235 360 a 65 65 0 1 0 130 0 a 65 65 0 1 0 -130 0 Z" fill="none" stroke="hsl(48 55% 38%)" stroke-width="1.6" stroke-linejoin="round"/><path d="M 363.75 372.68 L 381.6 376.23" fill="none" stroke="hsl(48 55% 38%)" stroke-width="1.6" stroke-linejoin="round"/><path d="M 354.05 396.11 L 369.18 406.22" fill="none" stroke="hsl(48 55% 38%)" stroke-width="1.6" stroke-linejoin="round"/><path d="M 336.11 414.05 L 346.22 429.18" fill="none" stroke="hsl(48 55% 38%)" stroke-width="1.6" stroke-linejoin="round"/><path d="M 312.68 423.75 L 316.23 441.6" fill="none" stroke="hsl(48 55% 38%)" stroke-width="1.6" stroke-linejoin="round"/><path d="M 287.32 423.75 L 283.77 441.6" fill="none" stroke="hsl(48 55% 38%)" stroke-width="1.6" stroke-linejoin="round"/><path d="M 263.89 414.05 L 253.78 429.18" fill="none" stroke="hsl(48 55% 38%)" stroke-width="1.6" stroke-linejoin="round"/><path d="M 245.95 396.11 L 230.82 406.22" fill="none" stroke="hsl(48 55% 38%)" stroke-width="1.6" stroke-linejoin="round"/><path d="M 236.25 372.68 L 218.4 376.23" fill="none" stroke="hsl(48 55% 38%)" stroke-width="1.6" stroke-linejoin="round"/><path d="M 236.25 347.32 L 218.4 343.77" fill="none" stroke="hsl(48 55% 38%)" stroke-width="1.6" stroke-linejoin="round"/><path d="M 245.95 323.89 L 230.82 313.78" fill="none" stroke="hsl(48 55% 38%)" stroke-width="1.6" stroke-linejoin="round"/><path d="M 263.89 305.95 L 253.78 290.82" fill="none" stroke="hsl(48 55% 38%)" stroke-width="1.6" stroke-linejoin="round"/><path d="M 287.32 296.25 L 283.77 278.4" fill="none" stroke="hsl(48 55% 38%)" stroke-width="1.6" stroke-linejoin="round"/><path d="M 312.68 296.25 L 316.23 278.4" fill="none" stroke="hsl(48 55% 38%)" stroke-width="1.6" stroke-linejoin="round"/><path d="M 336.11 305.95 L 346.22 290.82" fill="none" stroke="hsl(48 55% 38%)" stroke-width="1.6" stroke-linejoin="round"/><path d="M 354.05 323.89 L 369.18 313.78" fill="none" stroke="hsl(48 55% 38%)" stroke-width="1.6" stroke-linejoin="round"/><path d="M 363.75 347.32 L 381.6 343.77" fill="none" stroke="hsl(48 55% 38%)" stroke-width="1.6" stroke-linejoin="round"/><path d="M 202.5 360 a 97.5 97.5 0 1 0 195 0 a 97.5 97.5 0 1 0 -195 0 Z" fill="none" stroke="hsl(48 55% 38%)" stroke-width="1.6" stroke-linejoin="round"/><path d="M 397.5 360 Q 408.71 379.78 423.5 360 Q 408.71 340.22 397.5 360 Z" fill="none" stroke="hsl(48 55% 38%)" stroke-width="1.6" stroke-linejoin="round"/><path d="M 395.63 379.02 Q 402.77 400.61 421.13 384.09 Q 410.49 361.81 395.63 379.02 Z" fill="none" stroke="hsl(48 55% 38%)" stroke-width="1.6" stroke-linejoin="round"/><path d="M 390.08 397.31 Q 392.87 419.88 414.1 407.26 Q 408.01 383.33 390.08 397.31 Z" fill="none" stroke="hsl(48 55% 38%)" stroke-width="1.6" stroke-linejoin="round"/><path d="M 381.07 414.17 Q 379.4 436.85 402.69 428.61 Q 401.38 403.95 381.07 414.17 Z" fill="none" stroke="hsl(48 55% 38%)" stroke-width="1.6" stroke-linejoin="round"/><path d="M 368.94 428.94 Q 362.88 450.86 387.33 447.33 Q 390.86 422.88 368.94 428.94 Z" fill="none" stroke="hsl(48 55% 38%)" stroke-width="1.6" stroke-linejoin="round"/><path d="M 354.17 441.07 Q 343.95 461.38 368.61 462.69 Q 376.85 439.4 354.17 441.07 Z" fill="none" stroke="hsl(48 55% 38%)" stroke-width="1.6" stroke-linejoin="round"/><path d="M 337.31 450.08 Q 323.33 468.01 347.26 474.1 Q 359.88 452.87 337.31 450.08 Z" fill="none" stroke="hsl(48 55% 38%)" stroke-width="1.6" stroke-linejoin="round"/><path d="M 319.02 455.63 Q 301.81 470.49 324.09 481.13 Q 340.61 462.77 319.02 455.63 Z" fill="none" stroke="hsl(48 55% 38%)" stroke-width="1.6" stroke-linejoin="round"/><path d="M 300 457.5 Q 280.22 468.71 300 483.5 Q 319.78 468.71 300 457.5 Z" fill="none" stroke="hsl(48 55% 38%)" stroke-width="1.6" stroke-linejoin="round"/><path d="M 280.98 455.63 Q 259.39 462.77 275.91 481.13 Q 298.19 470.49 280.98 455.63 Z" fill="none" stroke="hsl(48 55% 38%)" stroke-width="1.6" stroke-linejoin="round"/><path d="M 262.69 450.08 Q 240.12 452.87 252.74 474.1 Q 276.67 468.01 262.69 450.08 Z" fill="none" stroke="hsl(48 55% 38%)" stroke-width="1.6" stroke-linejoin="round"/><path d="M 245.83 441.07 Q 223.15 439.4 231.39 462.69 Q 256.05 461.38 245.83 441.07 Z" fill="none" stroke="hsl(48 55% 38%)" stroke-width="1.6" stroke-linejoin="round"/><path d="M 231.06 428.94 Q 209.14 422.88 212.67 447.33 Q 237.12 450.86 231.06 428.94 Z" fill="none" stroke="hsl(48 55% 38%)" stroke-width="1.6" stroke-linejoin="round"/><path d="M 218.93 414.17 Q 198.62 403.95 197.31 428.61 Q 220.6 436.85 218.93 414.17 Z" fill="none" stroke="hsl(48 55% 38%)" stroke-width="1.6" stroke-linejoin="round"/><path d="M 209.92 397.31 Q 191.99 383.33 185.9 407.26 Q 207.13 419.88 209.92 397.31 Z" fill="none" stroke="hsl(48 55% 38%)" stroke-width="1.6" stroke-linejoin="round"/><path d="M 204.37 379.02 Q 189.51 361.81 178.87 384.09 Q 197.23 400.61 204.37 379.02 Z" fill="none" stroke="hsl(48 55% 38%)" stroke-width="1.6" stroke-linejoin="round"/><path d="M 202.5 360 Q 191.29 340.22 176.5 360 Q 191.29 379.78 202.5 360 Z" fill="none" stroke="hsl(48 55% 38%)" stroke-width="1.6" stroke-linejoin="round"/><path d="M 204.37 340.98 Q 197.23 319.39 178.87 335.91 Q 189.51 358.19 204.37 340.98 Z" fill="none" stroke="hsl(48 55% 38%)" stroke-width="1.6" stroke-linejoin="round"/><path d="M 209.92 322.69 Q 207.13 300.12 185.9 312.74 Q 191.99 336.67 209.92 322.69 Z" fill="none" stroke="hsl(48 55% 38%)" stroke-width="1.6" stroke-linejoin="round"/><path d="M 218.93 305.83 Q 220.6 283.15 197.31 291.39 Q 198.62 316.05 218.93 305.83 Z" fill="none" stroke="hsl(48 55% 38%)" stroke-width="1.6" stroke-linejoin="round"/><path d="M 231.06 291.06 Q 237.12 269.14 212.67 272.67 Q 209.14 297.12 231.06 291.06 Z" fill="none" stroke="hsl(48 55% 38%)" stroke-width="1.6" stroke-linejoin="round"/><path d="M 245.83 278.93 Q 256.05 258.62 231.39 257.31 Q 223.15 280.6 245.83 278.93 Z" fill="none" stroke="hsl(48 55% 38%)" stroke-width="1.6" stroke-linejoin="round"/><path d="M 262.69 269.92 Q 276.67 251.99 252.74 245.9 Q 240.12 267.13 262.69 269.92 Z" fill="none" stroke="hsl(48 55% 38%)" stroke-width="1.6" stroke-linejoin="round"/><path d="M 280.98 264.37 Q 298.19 249.51 275.91 238.87 Q 259.39 257.23 280.98 264.37 Z" fill="none" stroke="hsl(48 55% 38%)" stroke-width="1.6" stroke-linejoin="round"/><path d="M 300 262.5 Q 319.78 251.29 300 236.5 Q 280.22 251.29 300 262.5 Z" fill="none" stroke="hsl(48 55% 38%)" stroke-width="1.6" stroke-linejoin="round"/><path d="M 319.02 264.37 Q 340.61 257.23 324.09 238.87 Q 301.81 249.51 319.02 264.37 Z" fill="none" stroke="hsl(48 55% 38%)" stroke-width="1.6" stroke-linejoin="round"/><path d="M 337.31 269.92 Q 359.88 267.13 347.26 245.9 Q 323.33 251.99 337.31 269.92 Z" fill="none" stroke="hsl(48 55% 38%)" stroke-width="1.6" stroke-linejoin="round"/><path d="M 354.17 278.93 Q 376.85 280.6 368.61 257.31 Q 343.95 258.62 354.17 278.93 Z" fill="none" stroke="hsl(48 55% 38%)" stroke-width="1.6" stroke-linejoin="round"/><path d="M 368.94 291.06 Q 390.86 297.12 387.33 272.67 Q 362.88 269.14 368.94 291.06 Z" fill="none" stroke="hsl(48 55% 38%)" stroke-width="1.6" stroke-linejoin="round"/><path d="M 381.07 305.83 Q 401.38 316.05 402.69 291.39 Q 379.4 283.15 381.07 305.83 Z" fill="none" stroke="hsl(48 55% 38%)" stroke-width="1.6" stroke-linejoin="round"/><path d="M 390.08 322.69 Q 408.01 336.67 414.1 312.74 Q 392.87 300.12 390.08 322.69 Z" fill="none" stroke="hsl(48 55% 38%)" stroke-width="1.6" stroke-linejoin="round"/><path d="M 395.63 340.98 Q 410.49 358.19 421.13 335.91 Q 402.77 319.39 395.63 340.98 Z" fill="none" stroke="hsl(48 55% 38%)" stroke-width="1.6" stroke-linejoin="round"/><path d="M 170 360 a 130 130 0 1 0 260 0 a 130 130 0 1 0 -260 0 Z" fill="none" stroke="hsl(48 55% 38%)" stroke-width="1.6" stroke-linejoin="round"/><path d="M 420.22 385.36 a 7.28 7.28 0 1 0 14.56 0 a 7.28 7.28 0 1 0 -14.56 0 Z" fill="none" stroke="hsl(48 55% 38%)" stroke-width="1.6" stroke-linejoin="round"/><path d="M 400.81 432.22 a 7.28 7.28 0 1 0 14.56 0 a 7.28 7.28 0 1 0 -14.56 0 Z" fill="none" stroke="hsl(48 55% 38%)" stroke-width="1.6" stroke-linejoin="round"/><path d="M 364.94 468.09 a 7.28 7.28 0 1 0 14.56 0 a 7.28 7.28 0 1 0 -14.56 0 Z" fill="none" stroke="hsl(48 55% 38%)" stroke-width="1.6" stroke-linejoin="round"/><path d="M 318.08 487.5 a 7.28 7.28 0 1 0 14.56 0 a 7.28 7.28 0 1 0 -14.56 0 Z" fill="none" stroke="hsl(48 55% 38%)" stroke-width="1.6" stroke-linejoin="round"/><path d="M 267.36 487.5 a 7.28 7.28 0 1 0 14.56 0 a 7.28 7.28 0 1 0 -14.56 0 Z" fill="none" stroke="hsl(48 55% 38%)" stroke-width="1.6" stroke-linejoin="round"/><path d="M 220.5 468.09 a 7.28 7.28 0 1 0 14.56 0 a 7.28 7.28 0 1 0 -14.56 0 Z" fill="none" stroke="hsl(48 55% 38%)" stroke-width="1.6" stroke-linejoin="round"/><path d="M 184.63 432.22 a 7.28 7.28 0 1 0 14.56 0 a 7.28 7.28 0 1 0 -14.56 0 Z" fill="none" stroke="hsl(48 55% 38%)" stroke-width="1.6" stroke-linejoin="round"/><path d="M 165.22 385.36 a 7.28 7.28 0 1 0 14.56 0 a 7.28 7.28 0 1 0 -14.56 0 Z" fill="none" stroke="hsl(48 55% 38%)" stroke-width="1.6" stroke-linejoin="round"/><path d="M 165.22 334.64 a 7.28 7.28 0 1 0 14.56 0 a 7.28 7.28 0 1 0 -14.56 0 Z" fill="none" stroke="hsl(48 55% 38%)" stroke-width="1.6" stroke-linejoin="round"/><path d="M 184.63 287.78 a 7.28 7.28 0 1 0 14.56 0 a 7.28 7.28 0 1 0 -14.56 0 Z" fill="none" stroke="hsl(48 55% 38%)" stroke-width="1.6" stroke-linejoin="round"/><path d="M 220.5 251.91 a 7.28 7.28 0 1 0 14.56 0 a 7.28 7.28 0 1 0 -14.56 0 Z" fill="none" stroke="hsl(48 55% 38%)" stroke-width="1.6" stroke-linejoin="round"/><path d="M 267.36 232.5 a 7.28 7.28 0 1 0 14.56 0 a 7.28 7.28 0 1 0 -14.56 0 Z" fill="none" stroke="hsl(48 55% 38%)" stroke-width="1.6" stroke-linejoin="round"/><path d="M 318.08 232.5 a 7.28 7.28 0 1 0 14.56 0 a 7.28 7.28 0 1 0 -14.56 0 Z" fill="none" stroke="hsl(48 55% 38%)" stroke-width="1.6" stroke-linejoin="round"/><path d="M 364.94 251.91 a 7.28 7.28 0 1 0 14.56 0 a 7.28 7.28 0 1 0 -14.56 0 Z" fill="none" stroke="hsl(48 55% 38%)" stroke-width="1.6" stroke-linejoin="round"/><path d="M 400.81 287.78 a 7.28 7.28 0 1 0 14.56 0 a 7.28 7.28 0 1 0 -14.56 0 Z" fill="none" stroke="hsl(48 55% 38%)" stroke-width="1.6" stroke-linejoin="round"/><path d="M 420.22 334.64 a 7.28 7.28 0 1 0 14.56 0 a 7.28 7.28 0 1 0 -14.56 0 Z" fill="none" stroke="hsl(48 55% 38%)" stroke-width="1.6" stroke-linejoin="round"/><path d="M 137.5 360 a 162.5 162.5 0 1 0 325 0 a 162.5 162.5 0 1 0 -325 0 Z" fill="none" stroke="hsl(48 55% 38%)" stroke-width="1.6" stroke-linejoin="round"/><path d="M 462.5 360 L 480.7 360" fill="none" stroke="hsl(48 55% 38%)" stroke-width="1.6" stroke-linejoin="round"/><path d="M 459.38 391.7 L 477.23 395.25" fill="none" stroke="hsl(48 55% 38%)" stroke-width="1.6" stroke-linejoin="round"/><path d="M 450.13 422.19 L 466.95 429.15" fill="none" stroke="hsl(48 55% 38%)" stroke-width="1.6" stroke-linejoin="round"/><path d="M 435.11 450.28 L 450.25 460.39" fill="none" stroke="hsl(48 55% 38%)" stroke-width="1.6" stroke-linejoin="round"/><path d="M 414.9 474.9 L 427.77 487.77" fill="none" stroke="hsl(48 55% 38%)" stroke-width="1.6" stroke-linejoin="round"/><path d="M 390.28 495.11 L 400.39 510.25" fill="none" stroke="hsl(48 55% 38%)" stroke-width="1.6" stroke-linejoin="round"/><path d="M 362.19 510.13 L 369.15 526.95" fill="none" stroke="hsl(48 55% 38%)" stroke-width="1.6" stroke-linejoin="round"/><path d="M 331.7 519.38 L 335.25 537.23" fill="none" stroke="hsl(48 55% 38%)" stroke-width="1.6" stroke-linejoin="round"/><path d="M 300 522.5 L 300 540.7" fill="none" stroke="hsl(48 55% 38%)" stroke-width="1.6" stroke-linejoin="round"/><path d="M 268.3 519.38 L 264.75 537.23" fill="none" stroke="hsl(48 55% 38%)" stroke-width="1.6" stroke-linejoin="round"/><path d="M 237.81 510.13 L 230.85 526.95" fill="none" stroke="hsl(48 55% 38%)" stroke-width="1.6" stroke-linejoin="round"/><path d="M 209.72 495.11 L 199.61 510.25" fill="none" stroke="hsl(48 55% 38%)" stroke-width="1.6" stroke-linejoin="round"/><path d="M 185.1 474.9 L 172.23 487.77" fill="none" stroke="hsl(48 55% 38%)" stroke-width="1.6" stroke-linejoin="round"/><path d="M 164.89 450.28 L 149.75 460.39" fill="none" stroke="hsl(48 55% 38%)" stroke-width="1.6" stroke-linejoin="round"/><path d="M 149.87 422.19 L 133.05 429.15" fill="none" stroke="hsl(48 55% 38%)" stroke-width="1.6" stroke-linejoin="round"/><path d="M 140.62 391.7 L 122.77 395.25" fill="none" stroke="hsl(48 55% 38%)" stroke-width="1.6" stroke-linejoin="round"/><path d="M 137.5 360 L 119.3 360" fill="none" stroke="hsl(48 55% 38%)" stroke-width="1.6" stroke-linejoin="round"/><path d="M 140.62 328.3 L 122.77 324.75" fill="none" stroke="hsl(48 55% 38%)" stroke-width="1.6" stroke-linejoin="round"/><path d="M 149.87 297.81 L 133.05 290.85" fill="none" stroke="hsl(48 55% 38%)" stroke-width="1.6" stroke-linejoin="round"/><path d="M 164.89 269.72 L 149.75 259.61" fill="none" stroke="hsl(48 55% 38%)" stroke-width="1.6" stroke-linejoin="round"/><path d="M 185.1 245.1 L 172.23 232.23" fill="none" stroke="hsl(48 55% 38%)" stroke-width="1.6" stroke-linejoin="round"/><path d="M 209.72 224.89 L 199.61 209.75" fill="none" stroke="hsl(48 55% 38%)" stroke-width="1.6" stroke-linejoin="round"/><path d="M 237.81 209.87 L 230.85 193.05" fill="none" stroke="hsl(48 55% 38%)" stroke-width="1.6" stroke-linejoin="round"/><path d="M 268.3 200.62 L 264.75 182.77" fill="none" stroke="hsl(48 55% 38%)" stroke-width="1.6" stroke-linejoin="round"/><path d="M 300 197.5 L 300 179.3" fill="none" stroke="hsl(48 55% 38%)" stroke-width="1.6" stroke-linejoin="round"/><path d="M 331.7 200.62 L 335.25 182.77" fill="none" stroke="hsl(48 55% 38%)" stroke-width="1.6" stroke-linejoin="round"/><path d="M 362.19 209.87 L 369.15 193.05" fill="none" stroke="hsl(48 55% 38%)" stroke-width="1.6" stroke-linejoin="round"/><path d="M 390.28 224.89 L 400.39 209.75" fill="none" stroke="hsl(48 55% 38%)" stroke-width="1.6" stroke-linejoin="round"/><path d="M 414.9 245.1 L 427.77 232.23" fill="none" stroke="hsl(48 55% 38%)" stroke-width="1.6" stroke-linejoin="round"/><path d="M 435.11 269.72 L 450.25 259.61" fill="none" stroke="hsl(48 55% 38%)" stroke-width="1.6" stroke-linejoin="round"/><path d="M 450.13 297.81 L 466.95 290.85" fill="none" stroke="hsl(48 55% 38%)" stroke-width="1.6" stroke-linejoin="round"/><path d="M 459.38 328.3 L 477.23 324.75" fill="none" stroke="hsl(48 55% 38%)" stroke-width="1.6" stroke-linejoin="round"/><path d="M 105 360 a 195 195 0 1 0 390 0 a 195 195 0 1 0 -390 0 Z" fill="none" stroke="hsl(48 55% 38%)" stroke-width="1.6" stroke-linejoin="round"/><path d="M 483.97 398.04 a 7.28 7.28 0 1 0 14.56 0 a 7.28 7.28 0 1 0 -14.56 0 Z" fill="none" stroke="hsl(48 55% 38%)" stroke-width="1.6" stroke-linejoin="round"/><path d="M 454.86 468.34 a 7.28 7.28 0 1 0 14.56 0 a 7.28 7.28 0 1 0 -14.56 0 Z" fill="none" stroke="hsl(48 55% 38%)" stroke-width="1.6" stroke-linejoin="round"/><path d="M 401.06 522.14 a 7.28 7.28 0 1 0 14.56 0 a 7.28 7.28 0 1 0 -14.56 0 Z" fill="none" stroke="hsl(48 55% 38%)" stroke-width="1.6" stroke-linejoin="round"/><path d="M 330.76 551.25 a 7.28 7.28 0 1 0 14.56 0 a 7.28 7.28 0 1 0 -14.56 0 Z" fill="none" stroke="hsl(48 55% 38%)" stroke-width="1.6" stroke-linejoin="round"/><path d="M 254.68 551.25 a 7.28 7.28 0 1 0 14.56 0 a 7.28 7.28 0 1 0 -14.56 0 Z" fill="none" stroke="hsl(48 55% 38%)" stroke-width="1.6" stroke-linejoin="round"/><path d="M 184.38 522.14 a 7.28 7.28 0 1 0 14.56 0 a 7.28 7.28 0 1 0 -14.56 0 Z" fill="none" stroke="hsl(48 55% 38%)" stroke-width="1.6" stroke-linejoin="round"/><path d="M 130.58 468.34 a 7.28 7.28 0 1 0 14.56 0 a 7.28 7.28 0 1 0 -14.56 0 Z" fill="none" stroke="hsl(48 55% 38%)" stroke-width="1.6" stroke-linejoin="round"/><path d="M 101.47 398.04 a 7.28 7.28 0 1 0 14.56 0 a 7.28 7.28 0 1 0 -14.56 0 Z" fill="none" stroke="hsl(48 55% 38%)" stroke-width="1.6" stroke-linejoin="round"/><path d="M 101.47 321.96 a 7.28 7.28 0 1 0 14.56 0 a 7.28 7.28 0 1 0 -14.56 0 Z" fill="none" stroke="hsl(48 55% 38%)" stroke-width="1.6" stroke-linejoin="round"/><path d="M 130.58 251.66 a 7.28 7.28 0 1 0 14.56 0 a 7.28 7.28 0 1 0 -14.56 0 Z" fill="none" stroke="hsl(48 55% 38%)" stroke-width="1.6" stroke-linejoin="round"/><path d="M 184.38 197.86 a 7.28 7.28 0 1 0 14.56 0 a 7.28 7.28 0 1 0 -14.56 0 Z" fill="none" stroke="hsl(48 55% 38%)" stroke-width="1.6" stroke-linejoin="round"/><path d="M 254.68 168.75 a 7.28 7.28 0 1 0 14.56 0 a 7.28 7.28 0 1 0 -14.56 0 Z" fill="none" stroke="hsl(48 55% 38%)" stroke-width="1.6" stroke-linejoin="round"/><path d="M 330.76 168.75 a 7.28 7.28 0 1 0 14.56 0 a 7.28 7.28 0 1 0 -14.56 0 Z" fill="none" stroke="hsl(48 55% 38%)" stroke-width="1.6" stroke-linejoin="round"/><path d="M 401.06 197.86 a 7.28 7.28 0 1 0 14.56 0 a 7.28 7.28 0 1 0 -14.56 0 Z" fill="none" stroke="hsl(48 55% 38%)" stroke-width="1.6" stroke-linejoin="round"/><path d="M 454.86 251.66 a 7.28 7.28 0 1 0 14.56 0 a 7.28 7.28 0 1 0 -14.56 0 Z" fill="none" stroke="hsl(48 55% 38%)" stroke-width="1.6" stroke-linejoin="round"/><path d="M 483.97 321.96 a 7.28 7.28 0 1 0 14.56 0 a 7.28 7.28 0 1 0 -14.56 0 Z" fill="none" stroke="hsl(48 55% 38%)" stroke-width="1.6" stroke-linejoin="round"/><path d="M 105 360 a 195 195 0 1 0 390 0 a 195 195 0 1 0 -390 0 Z" fill="none" stroke="hsl(48 55% 38%)" stroke-width="1.6" stroke-linejoin="round"/></g>
  <g transform="translate(300,640)">
    <rect x="-110" y="-26" width="220" height="34" rx="17" fill="#ffffff" opacity="0.8"/>
    <text x="0" y="-3" text-anchor="middle" font-family="Quicksand, Arial, sans-serif" font-size="16" font-weight="600" fill="hsl(48 55% 38%)">🌲 Zauberwald</text>
  </g>
  <text x="300" y="700" text-anchor="middle" font-family="Quicksand, Arial, sans-serif" font-size="40" font-weight="700" fill="#2b2540"><tspan x="300" dy="0">Zauberwald – Vol.</tspan><tspan x="300" dy="44">2</tspan></text>
  <text x="300" y="772" text-anchor="middle" font-family="Arial, sans-serif" font-size="15" fill="#5b5470">Malbuch · 40 Seiten</text>
</svg>