<svg xmlns="http://www.w3.org/2000/svg" viewBox="0 0 600 800" width="600" height="800">
  <defs>
    <linearGradient id="bg" x1="0" y1="0" x2="0" y2="1">
      <stop offset="0" stop-color="hsl(48 70% 95%)"/><stop offset="1" stop-color="hsl(88 70% 92%)"/>
    </linearGradient>
  </defs>
  <rect width="600" height="800" fill="url(#bg)"/>
  <rect x="22" y="22" width="556" height="756" rx="28" fill="none" stroke="hsl(48 55% 38%)" stroke-width="2" opacity="0.5"/>
  <text x="300" y="74" text-anchor="middle" font-family="Quicksand, Arial, sans-serif" font-size="26" font-weight="700" fill="hsl(48 55% 38%)">&#10022; Coloreo</text>
  <g transform="translate(0,40)"><path d="M 323.4 360 Q 335.17 372.84 349.14 360 Q 335.17 347.16 323.4 360 Z" fill="none" stroke="hsl(48 55% 38%)" stroke-width="1.6" stroke-linejoin="round"/><path d="M 321.62 368.95 Q 327.58 385.32 345.4 378.81 Q 337.41 361.6 321.62 368.95 Z" fill="none" stroke="hsl(48 55% 38%)" stroke-width="1.6" stroke-linejoin="round"/><path d="M 316.55 376.55 Q 315.79 393.95 334.75 394.75 Q 333.95 375.79 316.55 376.55 Z" fill="none" stroke="hsl(48 55% 38%)" stroke-width="1.6" stroke-linejoin="round"/><path d="M 308.95 381.62 Q 301.6 397.41 318.81 405.4 Q 325.32 387.58 308.95 381.62 Z" fill="none" stroke="hsl(48 55% 38%)" stroke-width="1.6" stroke-linejoin="round"/><path d="M 300 383.4 Q 287.16 395.17 300 409.14 Q 312.84 395.17 300 383.4 Z" fill="none" stroke="hsl(48 55% 38%)" stroke-width="1.6" stroke-linejoin="round"/><path d="M 291.05 381.62 Q 274.68 387.58 281.19 405.4 Q 298.4 397.41 291.05 381.62 Z" fill="none" stroke="hsl(48 55% 38%)" stroke-width="1.6" stroke-linejoin="round"/><path d="M 283.45 376.55 Q 266.05 375.79 265.25 394.75 Q 284.21 393.95 283.45 376.55 Z" fill="none" stroke="hsl(48 55% 38%)" stroke-width="1.6" stroke-linejoin="round"/><path d="M 278.38 368.95 Q 262.59 361.6 254.6 378.81 Q 272.42 385.32 278.38 368.95 Z" fill="none" stroke="hsl(48 55% 38%)" stroke-width="1.6" stroke-linejoin="round"/><path d="M 276.6 360 Q 264.83 347.16 250.86 360 Q 264.83 372.84 276.6 360 Z" fill="none" stroke="hsl(48 55% 38%)" stroke-width="1.6" stroke-linejoin="round"/><path d="M 278.38 351.05 Q 272.42 334.68 254.6 341.19 Q 262.59 358.4 278.38 351.05 Z" fill="none" stroke="hsl(48 55% 38%)" stroke-width="1.6" stroke-linejoin="round"/><path d="M 283.45 343.45 Q 284.21 326.05 265.25 325.25 Q 266.05 344.21 283.45 343.45 Z" fill="none" stroke="hsl(48 55% 38%)" stroke-width="1.6" stroke-linejoin="round"/><path d="M 291.05 338.38 Q 298.4 322.59 281.19 314.6 Q 274.68 332.42 291.05 338.38 Z" fill="none" stroke="hsl(48 55% 38%)" stroke-width="1.6" stroke-linejoin="round"/><path d="M 300 336.6 Q 312.84 324.83 300 310.86 Q 287.16 324.83 300 336.6 Z" fill="none" stroke="hsl(48 55% 38%)" stroke-width="1.6" stroke-linejoin="round"/><path d="M 308.95 338.38 Q 325.32 332.42 318.81 314.6 Q 301.6 322.59 308.95 338.38 Z" fill="none" stroke="hsl(48 55% 38%)" stroke-width="1.6" stroke-linejoin="round"/><path d="M 316.55 343.45 Q 333.95 344.21 334.75 325.25 Q 315.79 326.05 316.55 343.45 Z" fill="none" stroke="hsl(48 55% 38%)" stroke-width="1.6" stroke-linejoin="round"/><path d="M 321.62 351.05 Q 337.41 358.4 345.4 341.19 Q 327.58 334.68 321.62 351.05 Z" fill="none" stroke="hsl(48 55% 38%)" stroke-width="1.6" stroke-linejoin="round"/><path d="M 300 345.96 C 307.75 345.96 314.04 352.25 314.04 360 C 314.04 367.75 307.75 374.04 300 374.04 C 292.25 374.04 285.96 367.75 285.96 360 C 285.96 352.25 292.25 345.96 300 345.96 Z" fill="none" stroke="hsl(48 55% 38%)" stroke-width="1.6" stroke-linejoin="round"/><path d="M 300 295 C 335.9 295 365 324.1 365 360 C 365 395.9 335.9 425 300 425 C 264.1 425 235 395.9 235 360 C 235 324.1 264.1 295 300 295 Z" fill="none" stroke="hsl(48 55% 38%)" stroke-width="1.6" stroke-linejoin="round"/><path d="M 363.75 372.68 L 381.6 376.23" fill="none" stroke="hsl(48 55% 38%)" stroke-width="1.6" stroke-linejoin="round"/><path d="M 354.05 396.11 L 369.18 406.22" fill="none" stroke="hsl(48 55% 38%)" stroke-width="1.6" stroke-linejoin="round"/><path d="M 336.11 414.05 L 346.22 429.18" fill="none" stroke="hsl(48 55% 38%)" stroke-width="1.6" stroke-linejoin="round"/><path d="M 312.68 423.75 L 316.23 441.6" fill="none" stroke="hsl(48 55% 38%)" stroke-width="1.6" stroke-linejoin="round"/><path d="M 287.32 423.75 L 283.77 441.6" fill="none" stroke="hsl(48 55% 38%)" stroke-width="1.6" stroke-linejoin="round"/><path d="M 263.89 414.05 L 253.78 429.18" fill="none" stroke="hsl(48 55% 38%)" stroke-width="1.6" stroke-linejoin="round"/><path d="M 245.95 396.11 L 230.82 406.22" fill="none" stroke="hsl(48 55% 38%)" stroke-width="1.6" stroke-linejoin="round"/><path d="M 236.25 372.68 L 218.4 376.23" fill="none" stroke="hsl(48 55% 38%)" stroke-width="1.6" stroke-linejoin="round"/><path d="M 236.25 347.32 L 218.4 343.77" fill="none" stroke="hsl(48 55% 38%)" stroke-width="1.6" stroke-linejoin="round"/><path d="M 245.95 323.89 L 230.82 313.78" fill="none" stroke="hsl(48 55% 38%)" stroke-width="1.6" stroke-linejoin="round"/><path d="M 263.89 305.95 L 253.78 290.82" fill="none" stroke="hsl(48 55% 38%)" stroke-width="1.6" stroke-linejoin="round"/><path d="M 287.32 296.25 L 283.77 278.4" fill="none" stroke="hsl(48 55% 38%)" stroke-width="1.6" stroke-linejoin="round"/><path d="M 312.68 296.25 L 316.23 278.4" fill="none" stroke="hsl(48 55% 38%)" stroke-width="1.6" stroke-linejoin="round"/><path d="M 336.11 305.95 L 346.22 290.82" fill="none" stroke="hsl(48 55% 38%)" stroke-width="1.6" stroke-linejoin="round"/><path d="M 354.05 323.89 L 369.18 313.78" fill="none" stroke="hsl(48 55% 38%)" stroke-width="1.6" stroke-linejoin="round"/><path d="M 363.75 347.32 L 381.6 343.77" fill="none" stroke="hsl(48 55% 38%)" stroke-width="1.6" stroke-linejoin="round"/><path d="M 300 262.5 C 353.85 262.5 397.5 306.15 397.5 360 C 397.5 413.85 353.85 457.5 300 457.5 C 246.15 457.5 202.5 413.85 202.5 360 C 202.5 306.15 246.15 262.5 300 262.5 Z" fill="none" stroke="hsl(48 55% 38%)" stroke-width="1.6" stroke-linejoin="round"/><path d="M 397.5 360 Q 408.71 379.78 423.5 360 Q 408.71 340.22 397.5 360 Z" fill="none" stroke="hsl(48 55% 38%)" stroke-width="1.6" stroke-linejoin="round"/><path d="M 395.63 379.02 Q 402.77 400.61 421.13 384.09 Q 410.49 361.81 395.63 379.02 Z" fill="none" stroke="hsl(48 55% 38%)" stroke-width="1.6" stroke-linejoin="round"/><path d="M 390.08 397.31 Q 392.87 419.88 414.1 407.26 Q 408.01 383.33 390.08 397.31 Z" fill="none" stroke="hsl(48 55% 38%)" stroke-width="1.6" stroke-linejoin="round"/><path d="M 381.07 414.17 Q 379.4 436.85 402.69 428.61 Q 401.38 403.95 381.07 414.17 Z" fill="none" stroke="hsl(48 55% 38%)" stroke-width="1.6" stroke-linejoin="round"/><path d="M 368.94 428.94 Q 362.88 450.86 387.33 447.33 Q 390.86 422.88 368.94 428.94 Z" fill="none" stroke="hsl(48 55% 38%)" stroke-width="1.6" stroke-linejoin="round"/><path d="M 354.17 441.07 Q 343.95 461.38 368.61 462.69 Q 376.85 439.4 354.17 441.07 Z" fill="none" stroke="hsl(48 55% 38%)" stroke-width="1.6" stroke-linejoin="round"/><path d="M 337.31 450.08 Q 323.33 468.01 347.26 474.1 Q 359.88 452.87 337.31 450.08 Z" fill="none" stroke="hsl(48 55% 38%)" stroke-width="1.6" stroke-linejoin="round"/><path d="M 319.02 455.63 Q 301.81 470.49 324.09 481.13 Q 340.61 462.77 319.02 455.63 Z" fill="none" stroke="hsl(48 55% 38%)" stroke-width="1.6" stroke-linejoin="round"/><path d="M 300 457.5 Q 280.22 468.71 300 483.5 Q 319.78 468.71 300 457.5 Z" fill="none" stroke="hsl(48 55% 38%)" stroke-width="1.6" stroke-linejoin="round"/><path d="M 280.98 455.63 Q 259.39 462.77 275.91 481.13 Q 298.19 470.49 280.98 455.63 Z" fill="none" stroke="hsl(48 55% 38%)" stroke-width="1.6" stroke-linejoin="round"/><path d="M 262.69 450.08 Q 240.12 452.87 252.74 474.1 Q 276.67 468.01 262.69 450.08 Z" fill="none" stroke="hsl(48 55% 38%)" stroke-width="1.6" stroke-linejoin="round"/><path d="M 245.83 441.07 Q 223.15 439.4 231.39 462.69 Q 256.05 461.38 245.83 441.07 Z" fill="none" stroke="hsl(48 55% 38%)" stroke-width="1.6" stroke-linejoin="round"/><path d="M 231.06 428.94 Q 209.14 422.88 212.67 447.33 Q 237.12 450.86 231.06 428.94 Z" fill="none" stroke="hsl(48 55% 38%)" stroke-width="1.6" stroke-linejoin="round"/><path d="M 218.93 414.17 Q 198.62 403.95 197.31 428.61 Q 220.6 436.85 218.93 414.17 Z" fill="none" stroke="hsl(48 55% 38%)" stroke-width="1.6" stroke-linejoin="round"/><path d="M 209.92 397.31 Q 191.99 383.33 185.9 407.26 Q 207.13 419.88 209.92 397.31 Z" fill="none" stroke="hsl(48 55% 38%)" stroke-width="1.6" stroke-linejoin="round"/><path d="M 204.37 379.02 Q 189.51 361.81 178.87 384.09 Q 197.23 400.61 204.37 379.02 Z" fill="none" stroke="hsl(48 55% 38%)" stroke-width="1.6" stroke-linejoin="round"/><path d="M 202.5 360 Q 191.29 340.22 176.5 360 Q 191.29 379.78 202.5 360 Z" fill="none" stroke="hsl(48 55% 38%)" stroke-width="1.6" stroke-linejoin="round"/><path d="M 204.37 340.98 Q 197.23 319.39 178.87 335.91 Q 189.51 358.19 204.37 340.98 Z" fill="none" stroke="hsl(48 55% 38%)" stroke-width="1.6" stroke-linejoin="round"/><path d="M 209.92 322.69 Q 207.13 300.12 185.9 312.74 Q 191.99 336.67 209.92 322.69 Z" fill="none" stroke="hsl(48 55% 38%)" stroke-width="1.6" stroke-linejoin="round"/><path d="M 218.93 305.83 Q 220.6 283.15 197.31 291.39 Q 198.62 316.05 218.93 305.83 Z" fill="none" stroke="hsl(48 55% 38%)" stroke-width="1.6" stroke-linejoin="round"/><path d="M 231.06 291.06 Q 237.12 269.14 212.67 272.67 Q 209.14 297.12 231.06 291.06 Z" fill="none" stroke="hsl(48 55% 38%)" stroke-width="1.6" stroke-linejoin="round"/><path d="M 245.83 278.93 Q 256.05 258.62 231.39 257.31 Q 223.15 280.6 245.83 278.93 Z" fill="none" stroke="hsl(48 55% 38%)" stroke-width="1.6" stroke-linejoin="round"/><path d="M 262.69 269.92 Q 276.67 251.99 252.74 245.9 Q 240.12 267.13 262.69 269.92 Z" fill="none" stroke="hsl(48 55% 38%)" stroke-width="1.6" stroke-linejoin="round"/><path d="M 280.98 264.37 Q 298.19 249.51 275.91 238.87 Q 259.39 257.23 280.98 264.37 Z" fill="none" stroke="hsl(48 55% 38%)" stroke-width="1.6" stroke-linejoin="round"/><path d="M 300 262.5 Q 319.78 251.29 300 236.5 Q 280.22 251.29 300 262.5 Z" fill="none" stroke="hsl(48 55% 38%)" stroke-width="1.6" stroke-linejoin="round"/><path d="M 319.02 264.37 Q 340.61 257.23 324.09 238.87 Q 301.81 249.51 319.02 264.37 Z" fill="none" stroke="hsl(48 55% 38%)" stroke-width="1.6" stroke-linejoin="round"/><path d="M 337.31 269.92 Q 359.88 267.13 347.26 245.9 Q 323.33 251.99 337.31 269.92 Z" fill="none" stroke="hsl(48 55% 38%)" stroke-width="1.6" stroke-linejoin="round"/><path d="M 354.17 278.93 Q 376.85 280.6 368.61 257.31 Q 343.95 258.62 354.17 278.93 Z" fill="none" stroke="hsl(48 55% 38%)" stroke-width="1.6" stroke-linejoin="round"/><path d="M 368.94 291.06 Q 390.86 297.12 387.33 272.67 Q 362.88 269.14 368.94 291.06 Z" fill="none" stroke="hsl(48 55% 38%)" stroke-width="1.6" stroke-linejoin="round"/><path d="M 381.07 305.83 Q 401.38 316.05 402.69 291.39 Q 379.4 283.15 381.07 305.83 Z" fill="none" stroke="hsl(48 55% 38%)" stroke-width="1.6" stroke-linejoin="round"/><path d="M 390.08 322.69 Q 408.01 336.67 414.1 312.74 Q 392.87 300.12 390.08 322.69 Z" fill="none" stroke="hsl(48 55% 38%)" stroke-width="1.6" stroke-linejoin="round"/><path d="M 395.63 340.98 Q 410.49 358.19 421.13 335.91 Q 402.77 319.39 395.63 340.98 Z" fill="none" stroke="hsl(48 55% 38%)" stroke-width="1.6" stroke-linejoin="round"/><path d="M 300 230 C 371.8 230 430 288.2 430 360 C 430 431.8 371.8 490 300 490 C 228.2 490 170 431.8 170 360 C 170 288.2 228.2 230 300 230 Z" fill="none" stroke="hsl(48 55% 38%)" stroke-width="1.6" stroke-linejoin="round"/><path d="M 427.5 378.08 C 431.52 378.08 434.78 381.34 434.78 385.36 C 434.78 389.38 431.52 392.64 427.5 392.64 C 423.48 392.64 420.22 389.38 420.22 385.36 C 420.22 381.34 423.48 378.08 427.5 378.08 Z" fill="none" stroke="hsl(48 55% 38%)" stroke-width="1.6" stroke-linejoin="round"/><path d="M 408.09 424.94 C 412.11 424.94 415.37 428.2 415.37 432.22 C 415.37 436.24 412.11 439.5 408.09 439.5 C 404.07 439.5 400.81 436.24 400.81 432.22 C 400.81 428.2 404.07 424.94 408.09 424.94 Z" fill="none" stroke="hsl(48 55% 38%)" stroke-width="1.6" stroke-linejoin="round"/><path d="M 372.22 460.81 C 376.24 460.81 379.5 464.07 379.5 468.09 C 379.5 472.11 376.24 475.37 372.22 475.37 C 368.2 475.37 364.94 472.11 364.94 468.09 C 364.94 464.07 368.2 460.81 372.22 460.81 Z" fill="none" stroke="hsl(48 55% 38%)" stroke-width="1.6" stroke-linejoin="round"/><path d="M 325.36 480.22 C 329.38 480.22 332.64 483.48 332.64 487.5 C 332.64 491.52 329.38 494.78 325.36 494.78 C 321.34 494.78 318.08 491.52 318.08 487.5 C 318.08 483.48 321.34 480.22 325.36 480.22 Z" fill="none" stroke="hsl(48 55% 38%)" stroke-width="1.6" stroke-linejoin="round"/><path d="M 274.64 480.22 C 278.66 480.22 281.92 483.48 281.92 487.5 C 281.92 491.52 278.66 494.78 274.64 494.78 C 270.62 494.78 267.36 491.52 267.36 487.5 C 267.36 483.48 270.62 480.22 274.64 480.22 Z" fill="none" stroke="hsl(48 55% 38%)" stroke-width="1.6" stroke-linejoin="round"/><path d="M 227.78 460.81 C 231.8 460.81 235.06 464.07 235.06 468.09 C 235.06 472.11 231.8 475.37 227.78 475.37 C 223.76 475.37 220.5 472.11 220.5 468.09 C 220.5 464.07 223.76 460.81 227.78 460.81 Z" fill="none" stroke="hsl(48 55% 38%)" stroke-width="1.6" stroke-linejoin="round"/><path d="M 191.91 424.94 C 195.93 424.94 199.19 428.2 199.19 432.22 C 199.19 436.24 195.93 439.5 191.91 439.5 C 187.89 439.5 184.63 436.24 184.63 432.22 C 184.63 428.2 187.89 424.94 191.91 424.94 Z" fill="none" stroke="hsl(48 55% 38%)" stroke-width="1.6" stroke-linejoin="round"/><path d="M 172.5 378.08 C 176.52 378.08 179.78 381.34 179.78 385.36 C 179.78 389.38 176.52 392.64 172.5 392.64 C 168.48 392.64 165.22 389.38 165.22 385.36 C 165.22 381.34 168.48 378.08 172.5 378.08 Z" fill="none" stroke="hsl(48 55% 38%)" stroke-width="1.6" stroke-linejoin="round"/><path d="M 172.5 327.36 C 176.52 327.36 179.78 330.62 179.78 334.64 C 179.78 338.66 176.52 341.92 172.5 341.92 C 168.48 341.92 165.22 338.66 165.22 334.64 C 165.22 330.62 168.48 327.36 172.5 327.36 Z" fill="none" stroke="hsl(48 55% 38%)" stroke-width="1.6" stroke-linejoin="round"/><path d="M 191.91 280.5 C 195.93 280.5 199.19 283.76 199.19 287.78 C 199.19 291.8 195.93 295.06 191.91 295.06 C 187.89 295.06 184.63 291.8 184.63 287.78 C 184.63 283.76 187.89 280.5 191.91 280.5 Z" fill="none" stroke="hsl(48 55% 38%)" stroke-width="1.6" stroke-linejoin="round"/><path d="M 227.78 244.63 C 231.8 244.63 235.06 247.89 235.06 251.91 C 235.06 255.93 231.8 259.19 227.78 259.19 C 223.76 259.19 220.5 255.93 220.5 251.91 C 220.5 247.89 223.76 244.63 227.78 244.63 Z" fill="none" stroke="hsl(48 55% 38%)" stroke-width="1.6" stroke-linejoin="round"/><path d="M 274.64 225.22 C 278.66 225.22 281.92 228.48 281.92 232.5 C 281.92 236.52 278.66 239.78 274.64 239.78 C 270.62 239.78 267.36 236.52 267.36 232.5 C 267.36 228.48 270.62 225.22 274.64 225.22 Z" fill="none" stroke="hsl(48 55% 38%)" stroke-width="1.6" stroke-linejoin="round"/><path d="M 325.36 225.22 C 329.38 225.22 332.64 228.48 332.64 232.5 C 332.64 236.52 329.38 239.78 325.36 239.78 C 321.34 239.78 318.08 236.52 318.08 232.5 C 318.08 228.48 321.34 225.22 325.36 225.22 Z" fill="none" stroke="hsl(48 55% 38%)" stroke-width="1.6" stroke-linejoin="round"/><path d="M 372.22 244.63 C 376.24 244.63 379.5 247.89 379.5 251.91 C 379.5 255.93 376.24 259.19 372.22 259.19 C 368.2 259.19 364.94 255.93 364.94 251.91 C 364.94 247.89 368.2 244.63 372.22 244.63 Z" fill="none" stroke="hsl(48 55% 38%)" stroke-width="1.6" stroke-linejoin="round"/><path d="M 408.09 280.5 C 412.11 280.5 415.37 283.76 415.37 287.78 C 415.37 291.8 412.11 295.06 408.09 295.06 C 404.07 295.06 400.81 291.8 400.81 287.78 C 400.81 283.76 404.07 280.5 408.09 280.5 Z" fill="none" stroke="hsl(48 55% 38%)" stroke-width="1.6" stroke-linejoin="round"/><path d="M 427.5 327.36 C 431.52 327.36 434.78 330.62 434.78 334.64 C 434.78 338.66 431.52 341.92 427.5 341.92 C 423.48 341.92 420.22 338.66 420.22 334.64 C 420.22 330.62 423.48 327.36 427.5 327.36 Z" fill="none" stroke="hsl(48 55% 38%)" stroke-width="1.6" stroke-linejoin="round"/><path d="M 300 197.5 C 389.75 197.5 462.5 270.25 462.5 360 C 462.5 449.75 389.75 522.5 300 522.5 C 210.25 522.5 137.5 449.75 137.5 360 C 137.5 270.25 210.25 197.5 300 197.5 Z" fill="none" stroke="hsl(48 55% 38%)" stroke-width="1.6" stroke-linejoin="round"/><path d="M 462.5 360 L 480.7 360" fill="none" stroke="hsl(48 55% 38%)" stroke-width="1.6" stroke-linejoin="round"/><path d="M 459.38 391.7 L 477.23 395.25" fill="none" stroke="hsl(48 55% 38%)" stroke-width="1.6" stroke-linejoin="round"/><path d="M 450.13 422.19 L 466.95 429.15" fill="none" stroke="hsl(48 55% 38%)" stroke-width="1.6" stroke-linejoin="round"/><path d="M 435.11 450.28 L 450.25 460.39" fill="none" stroke="hsl(48 55% 38%)" stroke-width="1.6" stroke-linejoin="round"/><path d="M 414.9 474.9 L 427.77 487.77" fill="none" stroke="hsl(48 55% 38%)" stroke-width="1.6" stroke-linejoin="round"/><path d="M 390.28 495.11 L 400.39 510.25" fill="none" stroke="hsl(48 55% 38%)" stroke-width="1.6" stroke-linejoin="round"/><path d="M 362.19 510.13 L 369.15 526.95" fill="none" stroke="hsl(48 55% 38%)" stroke-width="1.6" stroke-linejoin="round"/><path d="M 331.7 519.38 L 335.25 537.23" fill="none" stroke="hsl(48 55% 38%)" stroke-width="1.6" stroke-linejoin="round"/><path d="M 300 522.5 L 300 540.7" fill="none" stroke="hsl(48 55% 38%)" stroke-width="1.6" stroke-linejoin="round"/><path d="M 268.3 519.38 L 264.75 537.23" fill="none" stroke="hsl(48 55% 38%)" stroke-width="1.6" stroke-linejoin="round"/><path d="M 237.81 510.13 L 230.85 526.95" fill="none" stroke="hsl(48 55% 38%)" stroke-width="1.6" stroke-linejoin="round"/><path d="M 209.72 495.11 L 199.61 510.25" fill="none" stroke="hsl(48 55% 38%)" stroke-width="1.6" stroke-linejoin="round"/><path d="M 185.1 474.9 L 172.23 487.77" fill="none" stroke="hsl(48 55% 38%)" stroke-width="1.6" stroke-linejoin="round"/><path d="M 164.89 450.28 L 149.75 460.39" fill="none" stroke="hsl(48 55% 38%)" stroke-width="1.6" stroke-linejoin="round"/><path d="M 149.87 422.19 L 133.05 429.15" fill="none" stroke="hsl(48 55% 38%)" stroke-width="1.6" stroke-linejoin="round"/><path d="M 140.62 391.7 L 122.77 395.25" fill="none" stroke="hsl(48 55% 38%)" stroke-width="1.6" stroke-linejoin="round"/><path d="M 137.5 360 L 119.3 360" fill="none" stroke="hsl(48 55% 38%)" stroke-width="1.6" stroke-linejoin="round"/><path d="M 140.62 328.3 L 122.77 324.75" fill="none" stroke="hsl(48 55% 38%)" stroke-width="1.6" stroke-linejoin="round"/><path d="M 149.87 297.81 L 133.05 290.85" fill="none" stroke="hsl(48 55% 38%)" stroke-width="1.6" stroke-linejoin="round"/><path d="M 164.89 269.72 L 149.75 259.61" fill="none" stroke="hsl(48 55% 38%)" stroke-width="1.6" stroke-linejoin="round"/><path d="M 185.1 245.1 L 172.23 232.23" fill="none" stroke="hsl(48 55% 38%)" stroke-width="1.6" stroke-linejoin="round"/><path d="M 209.72 224.89 L 199.61 209.75" fill="none" stroke="hsl(48 55% 38%)" stroke-width="1.6" stroke-linejoin="round"/><path d="M 237.81 209.87 L 230.85 193.05" fill="none" stroke="hsl(48 55% 38%)" stroke-width="1.6" stroke-linejoin="round"/><path d="M 268.3 200.62 L 264.75 182.77" fill="none" stroke="hsl(48 55% 38%)" stroke-width="1.6" stroke-linejoin="round"/><path d="M 300 197.5 L 300 179.3" fill="none" stroke="hsl(48 55% 38%)" stroke-width="1.6" stroke-linejoin="round"/><path d="M 331.7 200.62 L 335.25 182.77" fill="none" stroke="hsl(48 55% 38%)" stroke-width="1.6" stroke-linejoin="round"/><path d="M 362.19 209.87 L 369.15 193.05" fill="none" stroke="hsl(48 55% 38%)" stroke-width="1.6" stroke-linejoin="round"/><path d="M 390.28 224.89 L 400.39 209.75" fill="none" stroke="hsl(48 55% 38%)" stroke-width="1.6" stroke-linejoin="round"/><path d="M 414.9 245.1 L 427.77 232.23" fill="none" stroke="hsl(48 55% 38%)" stroke-width="1.6" stroke-linejoin="round"/><path d="M 435.11 269.72 L 450.25 259.61" fill="none" stroke="hsl(48 55% 38%)" stroke-width="1.6" stroke-linejoin="round"/><path d="M 450.13 297.81 L 466.95 290.85" fill="none" stroke="hsl(48 55% 38%)" stroke-width="1.6" stroke-linejoin="round"/><path d="M 459.38 328.3 L 477.23 324.75" fill="none" stroke="hsl(48 55% 38%)" stroke-width="1.6" stroke-linejoin="round"/><path d="M 300 165 C 407.7 165 495 252.3 495 360 C 495 467.7 407.7 555 300 555 C 192.3 555 105 467.7 105 360 C 105 252.3 192.3 165 300 165 Z" fill="none" stroke="hsl(48 55% 38%)" stroke-width="1.6" stroke-linejoin="round"/><path d="M 491.25 390.76 C 495.27 390.76 498.53 394.02 498.53 398.04 C 498.53 402.06 495.27 405.32 491.25 405.32 C 487.23 405.32 483.97 402.06 483.97 398.04 C 483.97 394.02 487.23 390.76 491.25 390.76 Z" fill="none" stroke="hsl(48 55% 38%)" stroke-width="1.6" stroke-linejoin="round"/><path d="M 462.14 461.06 C 466.16 461.06 469.42 464.32 469.42 468.34 C 469.42 472.36 466.16 475.62 462.14 475.62 C 458.12 475.62 454.86 472.36 454.86 468.34 C 454.86 464.32 458.12 461.06 462.14 461.06 Z" fill="none" stroke="hsl(48 55% 38%)" stroke-width="1.6" stroke-linejoin="round"/><path d="M 408.34 514.86 C 412.36 514.86 415.62 518.12 415.62 522.14 C 415.62 526.16 412.36 529.42 408.34 529.42 C 404.32 529.42 401.06 526.16 401.06 522.14 C 401.06 518.12 404.32 514.86 408.34 514.86 Z" fill="none" stroke="hsl(48 55% 38%)" stroke-width="1.6" stroke-linejoin="round"/><path d="M 338.04 543.97 C 342.06 543.97 345.32 547.23 345.32 551.25 C 345.32 555.27 342.06 558.53 338.04 558.53 C 334.02 558.53 330.76 555.27 330.76 551.25 C 330.76 547.23 334.02 543.97 338.04 543.97 Z" fill="none" stroke="hsl(48 55% 38%)" stroke-width="1.6" stroke-linejoin="round"/><path d="M 261.96 543.97 C 265.98 543.97 269.24 547.23 269.24 551.25 C 269.24 555.27 265.98 558.53 261.96 558.53 C 257.94 558.53 254.68 555.27 254.68 551.25 C 254.68 547.23 257.94 543.97 261.96 543.97 Z" fill="none" stroke="hsl(48 55% 38%)" stroke-width="1.6" stroke-linejoin="round"/><path d="M 191.66 514.86 C 195.68 514.86 198.94 518.12 198.94 522.14 C 198.94 526.16 195.68 529.42 191.66 529.42 C 187.64 529.42 184.38 526.16 184.38 522.14 C 184.38 518.12 187.64 514.86 191.66 514.86 Z" fill="none" stroke="hsl(48 55% 38%)" stroke-width="1.6" stroke-linejoin="round"/><path d="M 137.86 461.06 C 141.88 461.06 145.14 464.32 145.14 468.34 C 145.14 472.36 141.88 475.62 137.86 475.62 C 133.84 475.62 130.58 472.36 130.58 468.34 C 130.58 464.32 133.84 461.06 137.86 461.06 Z" fill="none" stroke="hsl(48 55% 38%)" stroke-width="1.6" stroke-linejoin="round"/><path d="M 108.75 390.76 C 112.77 390.76 116.03 394.02 116.03 398.04 C 116.03 402.06 112.77 405.32 108.75 405.32 C 104.73 405.32 101.47 402.06 101.47 398.04 C 101.47 394.02 104.73 390.76 108.75 390.76 Z" fill="none" stroke="hsl(48 55% 38%)" stroke-width="1.6" stroke-linejoin="round"/><path d="M 108.75 314.68 C 112.77 314.68 116.03 317.94 116.03 321.96 C 116.03 325.98 112.77 329.24 108.75 329.24 C 104.73 329.24 101.47 325.98 101.47 321.96 C 101.47 317.94 104.73 314.68 108.75 314.68 Z" fill="none" stroke="hsl(48 55% 38%)" stroke-width="1.6" stroke-linejoin="round"/><path d="M 137.86 244.38 C 141.88 244.38 145.14 247.64 145.14 251.66 C 145.14 255.68 141.88 258.94 137.86 258.94 C 133.84 258.94 130.58 255.68 130.58 251.66 C 130.58 247.64 133.84 244.38 137.86 244.38 Z" fill="none" stroke="hsl(48 55% 38%)" stroke-width="1.6" stroke-linejoin="round"/><path d="M 191.66 190.58 C 195.68 190.58 198.94 193.84 198.94 197.86 C 198.94 201.88 195.68 205.14 191.66 205.14 C 187.64 205.14 184.38 201.88 184.38 197.86 C 184.38 193.84 187.64 190.58 191.66 190.58 Z" fill="none" stroke="hsl(48 55% 38%)" stroke-width="1.6" stroke-linejoin="round"/><path d="M 261.96 161.47 C 265.98 161.47 269.24 164.73 269.24 168.75 C 269.24 172.77 265.98 176.03 261.96 176.03 C 257.94 176.03 254.68 172.77 254.68 168.75 C 254.68 164.73 257.94 161.47 261.96 161.47 Z" fill="none" stroke="hsl(48 55% 38%)" stroke-width="1.6" stroke-linejoin="round"/><path d="M 338.04 161.47 C 342.06 161.47 345.32 164.73 345.32 168.75 C 345.32 172.77 342.06 176.03 338.04 176.03 C 334.02 176.03 330.76 172.77 330.76 168.75 C 330.76 164.73 334.02 161.47 338.04 161.47 Z" fill="none" stroke="hsl(48 55% 38%)" stroke-width="1.6" stroke-linejoin="round"/><path d="M 408.34 190.58 C 412.36 190.58 415.62 193.84 415.62 197.86 C 415.62 201.88 412.36 205.14 408.34 205.14 C 404.32 205.14 401.06 201.88 401.06 197.86 C 401.06 193.84 404.32 190.58 408.34 190.58 Z" fill="none" stroke="hsl(48 55% 38%)" stroke-width="1.6" stroke-linejoin="round"/><path d="M 462.14 244.38 C 466.16 244.38 469.42 247.64 469.42 251.66 C 469.42 255.68 466.16 258.94 462.14 258.94 C 458.12 258.94 454.86 255.68 454.86 251.66 C 454.86 247.64 458.12 244.38 462.14 244.38 Z" fill="none" stroke="hsl(48 55% 38%)" stroke-width="1.6" stroke-linejoin="round"/><path d="M 491.25 314.68 C 495.27 314.68 498.53 317.94 498.53 321.96 C 498.53 325.98 495.27 329.24 491.25 329.24 C 487.23 329.24 483.97 325.98 483.97 321.96 C 483.97 317.94 487.23 314.68 491.25 314.68 Z" fill="none" stroke="hsl(48 55% 38%)" stroke-width="1.6" stroke-linejoin="round"/><path d="M 300 165 C 407.7 165 495 252.3 495 360 C 495 467.7 407.7 555 300 555 C 192.3 555 105 467.7 105 360 C 105 252.3 192.3 165 300 165 Z" fill="none" stroke="hsl(48 55% 38%)" stroke-width="1.6" stroke-linejoin="round"/></g>
  <g transform="translate(300,640)">
    <rect x="-110" y="-26" width="220" height="34" rx="17" fill="#ffffff" opacity="0.8"/>
    <text x="0" y="-3" text-anchor="middle" font-family="Quicksand, Arial, sans-serif" font-size="16" font-weight="600" fill="hsl(48 55% 38%)">🌲 Zauberwald</text>
  </g>
  <text x="300" y="700" text-anchor="middle" font-family="Quicksand, Arial, sans-serif" font-size="40" font-weight="700" fill="#2b2540"><tspan x="300" dy="0">Zauberwald – Vol.</tspan><tspan x="300" dy="44">2</tspan></text>
  <text x="300" y="772" text-anchor="middle" font-family="Arial, sans-serif" font-size="15" fill="#5b5470">Malbuch · 24 Seiten</text>
</svg>